<svg width="30" height="30" viewBox="0 0 30 30" fill="none" xmlns="http://www.w3.org/2000/svg">
    <path d="M8 8h1.218c.756 0 1.351.651 1.288 1.4l-.581 6.972a1.957 1.957 0 0 0 1.953 2.121h7.455c1.008 0 1.89-.826 1.967-1.827l.13-1.808.04-.558M10.674 9.309H16.4M21.3 12.2l-2.8-2.8M21.3 9.4l-2.8 2.8M17.975 22a.875.875 0 1 0 0-1.75.875.875 0 0 0 0 1.75zM12.375 22a.875.875 0 1 0 0-1.75.875.875 0 0 0 0 1.75zM12.2 15.7h3.85" stroke="#3C4249" stroke-width="1.2" stroke-linecap="round" stroke-linejoin="round"/>
</svg>
