<svg width="20" height="20" viewBox="0 0 20 20" fill="none" xmlns="http://www.w3.org/2000/svg">
<g clip-path="url(#clip0_209_61039)">
<rect width="20" height="20" rx="10" fill="#F0742F"/>
<g clip-path="url(#clip1_209_61039)">
<path d="M11.286 12.0293C11.0536 12.7981 10.8211 13.5668 10.5886 14.3356C10.4861 14.6834 10.616 14.8298 11.0262 14.8359C11.4159 14.842 11.7988 14.8359 12.1886 14.8359C12.7014 14.8359 12.8997 14.72 13.0364 14.299C12.6262 13.3716 12.0108 12.6211 11.286 12.0293Z" fill="white"/>
<path d="M14.5885 9.12837L14.8415 8.2986L15.1834 7.17596L15.2928 6.81599C15.4227 6.395 15.5526 5.96791 15.6825 5.54082C15.7987 5.14424 15.6825 5.00391 15.2312 5.00391C14.8347 5.00391 14.4313 5.00391 14.0347 5.00391C13.5629 5.00391 13.3851 5.11983 13.2552 5.53472C13.1527 5.85809 13.0501 6.18755 12.9475 6.51702C12.8587 6.79768 12.7698 7.07224 12.6877 7.3529C12.6809 7.38341 12.6809 7.40781 12.674 7.43832L12.4689 8.11556C12.4552 8.14607 12.4484 8.17047 12.4347 8.20098C12.3458 8.49384 12.2638 8.7867 12.1749 9.07346V9.07956C12.0997 9.34192 12.0177 9.60427 11.9424 9.86663C12.7356 10.1595 13.4398 10.5073 14.0552 10.9038C14.233 10.3059 14.4107 9.7141 14.5885 9.12837Z" fill="white"/>
<path d="M8.99554 8.95518C8.43487 8.85146 7.86737 8.85756 7.29303 8.87586C8.25027 8.96738 9.13913 9.10161 9.96645 9.28465C9.7203 9.14432 9.39895 9.0345 8.99554 8.95518Z" fill="white"/>
<path d="M4.4418 9.72266C4.43497 9.86299 4.47599 10.0338 4.56488 10.2596C4.68111 10.5829 4.8247 10.6134 5.36485 10.467C6.04859 10.2779 6.746 10.1742 7.45709 10.2169C6.42465 9.9484 5.42639 9.81418 4.6059 9.74096C4.5512 9.73486 4.4965 9.72876 4.4418 9.72266Z" fill="white"/>
<path d="M8.12715 10.6737C8.10664 10.9361 7.92886 10.9666 7.68272 10.9788C6.74599 11.0215 5.81611 11.1008 4.92041 11.351C4.06573 11.5889 3.28627 11.9367 2.81449 12.6627C2.11708 13.7366 2.60937 14.7311 3.97685 14.9446C4.8999 15.091 5.78876 14.969 6.62292 14.5663C6.79385 14.487 6.95795 14.365 7.04 14.6518C7.08103 14.7921 7.23829 14.8287 7.40238 14.8287C7.86049 14.8287 8.31176 14.8348 8.76986 14.8287C9.09806 14.8226 9.33053 14.6701 9.42625 14.3894C9.50146 14.1759 9.563 13.9623 9.62454 13.7427C9.86385 12.9556 10.1168 12.1624 10.3425 11.3754C9.6177 10.9422 8.8314 10.6249 8.0451 10.3809C8.10663 10.448 8.13398 10.5456 8.12715 10.6737ZM7.58699 12.4614C7.49127 12.7177 7.54597 13.041 7.2041 13.2058C6.71864 13.4437 6.21268 13.5779 5.66568 13.4986C5.22809 13.4376 5.08451 13.102 5.33065 12.7665C5.49475 12.5407 5.73406 12.4126 6.01439 12.3333C6.42464 12.2173 6.84855 12.1136 7.2588 12.1258C7.68955 12.1197 7.7169 12.1258 7.58699 12.4614Z" fill="white"/>
<path d="M11.6757 10.7475C12.38 11.0831 13.0501 11.4918 13.6381 11.9922C13.6654 12.0105 13.6859 12.0349 13.7065 12.0532C14.5269 12.7731 15.1765 13.6822 15.5184 14.8354H16.25C16.25 14.8354 16.2021 12.9806 13.9047 11.4003C13.3441 11.0159 12.6535 10.6499 11.7988 10.3326C11.6005 10.2594 11.3954 10.1862 11.1835 10.1191C10.9647 10.0519 10.7322 9.98483 10.4929 9.91772C9.04335 9.53334 7.2246 9.27708 4.95459 9.23438C6.80069 9.27708 8.29808 9.55164 9.50829 9.95433C9.857 10.0519 10.2057 10.1618 10.5544 10.2838C10.9305 10.4241 11.3065 10.5767 11.6757 10.7475Z" fill="#252324"/>
<path d="M4.94096 9.23462C4.87942 9.23462 4.81105 9.23462 4.74951 9.22852C4.65379 9.22852 4.55807 9.22852 4.45551 9.22852C4.45551 9.23462 4.59909 9.24682 4.84524 9.26512C5.7341 9.34444 7.96993 9.60069 10.028 10.6257C10.1852 10.705 10.3357 10.7843 10.4861 10.8698C10.8143 11.0589 11.1356 11.2663 11.4433 11.4982C12.1544 12.0412 12.7835 12.7123 13.2552 13.5482C13.474 13.9387 13.6586 14.3658 13.7954 14.8295H14.5475C14.5475 14.8295 14.3902 13.8289 13.5151 12.6757C13.4262 12.5537 13.3236 12.4317 13.221 12.3097C12.8176 11.846 12.2912 11.3762 11.6074 10.943C11.2861 10.7416 10.9374 10.5464 10.5476 10.3695C10.2263 10.223 9.87756 10.0827 9.5015 9.95457C7.54601 9.41765 5.69307 9.28953 4.87942 9.25292C4.89994 9.24682 4.92045 9.24072 4.94096 9.23462Z" fill="#252324"/>
<path d="M4.94093 9.23438C4.92042 9.24048 4.89991 9.24658 4.88623 9.25268C5.69988 9.29539 7.55281 9.41741 9.50831 9.95433C8.29809 9.54554 6.8007 9.27708 4.9546 9.23438C4.94777 9.23438 4.94093 9.23438 4.94093 9.23438Z" fill="#252324"/>
</g>
</g>
<defs>
<clipPath id="clip0_209_61039">
<rect width="20" height="20" fill="white"/>
</clipPath>
<clipPath id="clip1_209_61039">
<rect width="13.75" height="10" fill="white" transform="translate(2.5 5)"/>
</clipPath>
</defs>
</svg>
