<svg width="16" height="16" viewBox="0 0 16 16" fill="none" xmlns="http://www.w3.org/2000/svg">
<path d="M9.75 3H3C2.44772 3 2 3.44772 2 4V9.58333C2 10.1356 2.44772 10.5833 3 10.5833H9.75C10.3023 10.5833 10.75 10.1356 10.75 9.58333V4C10.75 3.44772 10.3023 3 9.75 3Z" stroke="#4B5563" stroke-miterlimit="10" stroke-linecap="round"/>
<path d="M10.75 6.11797C10.75 6.00751 10.8395 5.91797 10.95 5.91797H13.0005C13.0535 5.91797 13.1044 5.93904 13.1419 5.97655L14.7748 7.60939C14.8123 7.6469 14.8333 7.69777 14.8333 7.75081V10.3846C14.8333 10.4951 14.7438 10.5846 14.6333 10.5846H10.95C10.8395 10.5846 10.75 10.4951 10.75 10.3846V6.11797Z" stroke="#4B5563" stroke-miterlimit="10" stroke-linecap="round"/>
<path d="M4.62533 13.4987C5.43074 13.4987 6.08366 12.8458 6.08366 12.0404C6.08366 11.2349 5.43074 10.582 4.62533 10.582C3.81991 10.582 3.16699 11.2349 3.16699 12.0404C3.16699 12.8458 3.81991 13.4987 4.62533 13.4987Z" stroke="#4B5563" stroke-miterlimit="10" stroke-linecap="round"/>
<path d="M12.2083 13.4987C13.0137 13.4987 13.6667 12.8458 13.6667 12.0404C13.6667 11.2349 13.0137 10.582 12.2083 10.582C11.4029 10.582 10.75 11.2349 10.75 12.0404C10.75 12.8458 11.4029 13.4987 12.2083 13.4987Z" stroke="#4B5563" stroke-miterlimit="10" stroke-linecap="round"/>
</svg>
