<svg width="16" height="16" viewBox="0 0 16 16" fill="none" xmlns="http://www.w3.org/2000/svg">
<path d="M4.3999 6.2V2H11.5999V6.2" stroke="#8E929B" stroke-linecap="round" stroke-linejoin="round"/>
<path d="M4.4 11.6H3.2C2.88174 11.6 2.57652 11.4735 2.35147 11.2485C2.12643 11.0234 2 10.7182 2 10.4V7.39995C2 7.08169 2.12643 6.77647 2.35147 6.55142C2.57652 6.32638 2.88174 6.19995 3.2 6.19995H12.8C13.1183 6.19995 13.4235 6.32638 13.6485 6.55142C13.8736 6.77647 14 7.08169 14 7.39995V10.4C14 10.7182 13.8736 11.0234 13.6485 11.2485C13.4235 11.4735 13.1183 11.6 12.8 11.6H11.6" stroke="#8E929B" stroke-linecap="round" stroke-linejoin="round"/>
<path d="M11.5999 9.19995H4.3999V14H11.5999V9.19995Z" stroke="#8E929B" stroke-linecap="round" stroke-linejoin="round"/>
</svg>
