<svg width="16" height="16" viewBox="0 0 16 16" fill="none" xmlns="http://www.w3.org/2000/svg">
<path d="M12.6909 5.49084H6.79994C6.07695 5.49084 5.49084 6.07695 5.49084 6.79994V12.6909C5.49084 13.4139 6.07695 14 6.79994 14H12.6909C13.4139 14 14 13.4139 14 12.6909V6.79994C14 6.07695 13.4139 5.49084 12.6909 5.49084Z" stroke="#8E929B" stroke-linecap="round" stroke-linejoin="round"/>
<path d="M3.96364 10.5091H3.30909C2.9619 10.5091 2.62893 10.3712 2.38342 10.1257C2.13792 9.88019 2 9.54722 2 9.20002V3.30909C2 2.9619 2.13792 2.62893 2.38342 2.38342C2.62893 2.13792 2.9619 2 3.30909 2H9.20002C9.54722 2 9.88019 2.13792 10.1257 2.38342C10.3712 2.62893 10.5091 2.9619 10.5091 3.30909V3.96364" stroke="#8E929B" stroke-linecap="round" stroke-linejoin="round"/>
</svg>
