<svg width="16" height="16" viewBox="0 0 16 16" fill="none" xmlns="http://www.w3.org/2000/svg">
<path d="M6.5 11.5H9.5" stroke="#8E929B" stroke-linecap="round" stroke-linejoin="round"/>
<path d="M3.87415 9.90698H12.0902" stroke="#8E929B" stroke-linecap="round" stroke-linejoin="round"/>
<path d="M11.3708 9.9259L12.5256 13.1063H3.57129L4.63142 9.9259" stroke="#8E929B" stroke-linecap="round" stroke-linejoin="round"/>
<path d="M4.13919 11.3646H2.75724C2.33903 11.3646 2 11.0256 2 10.6074V6.78336C2 6.36515 2.33903 6.02612 2.75724 6.02612H13.2071C13.6253 6.02612 13.9643 6.36515 13.9643 6.78336V10.6074C13.9643 11.0256 13.6253 11.3646 13.2071 11.3646H11.9198" stroke="#8E929B" stroke-linecap="round" stroke-linejoin="round"/>
<path d="M11.3899 6.02618V3.67875C11.3899 3.26053 11.0508 2.92151 10.6326 2.92151H5.25626C4.83805 2.92151 4.49902 3.26054 4.49902 3.67875V6.02618" stroke="#8E929B" stroke-linecap="round" stroke-linejoin="round"/>
<path d="M3.66602 5.98738V5.23099C3.66602 4.81278 4.00504 4.47375 4.42325 4.47375H4.49898M12.2228 5.98738V5.23099C12.2228 4.81278 11.8837 4.47375 11.4655 4.47375V4.47375" stroke="#8E929B" stroke-linecap="round" stroke-linejoin="round"/>
</svg>
