<svg width="176" height="152" viewBox="0 0 176 152" fill="none" xmlns="http://www.w3.org/2000/svg">
    <path d="M0 24C0 12.686 0 7.03 3.515 3.515 7.029 0 12.686 0 24 0h128c11.314 0 16.971 0 20.485 3.515C176 7.029 176 12.686 176 24v96c0 15.085 0 22.627-4.686 27.314C166.627 152 159.085 152 144 152H24c-11.314 0-16.97 0-20.485-3.515C0 144.971 0 139.314 0 128V24z" fill="#DEEBFF"/>
    <circle cx="147" cy="69" r="4" fill="#fff"/>
    <circle cx="107" cy="24" r="4" fill="#fff"/>
    <circle cx="29" cy="86" r="4" fill="#fff"/>
    <path d="M92.624 94.176C99.596 88.04 112 75.504 112 64a24.003 24.003 0 0 0-24-24 24 24 0 0 0-24 24c0 11.504 12.4 24.04 19.376 30.176a6.944 6.944 0 0 0 9.248 0zM80 64a8 8 0 1 1 16.001 0A8 8 0 0 1 80 64z" fill="#0066EA"/>
    <path d="M68 116h40M60 128h56" stroke="#ABC6F6" stroke-width="6" stroke-linecap="round"/>
    <circle cx="116.5" cy="68.5" r="11.5" fill="#fff"/>
    <path fill-rule="evenodd" clip-rule="evenodd" d="M116 84a16.001 16.001 0 0 0 11.314-27.314A16.007 16.007 0 0 0 116 52a16.002 16.002 0 0 0-16 16 16.002 16.002 0 0 0 16 16zm8.476-20.196a1.77 1.77 0 0 0 .241-1.987 1.763 1.763 0 0 0-1.06-.884 1.78 1.78 0 0 0-1.911.596l-6.397 7.675c-.617.74-.963 1.15-1.239 1.4l-.01.011-.013-.009c-.299-.226-.681-.602-1.36-1.283l-2.581-2.58a1.78 1.78 0 0 0-2.492.022 1.776 1.776 0 0 0-.022 2.492l2.58 2.58.072.072c.582.582 1.138 1.14 1.659 1.533.581.44 1.344.853 2.32.81.978-.044 1.7-.526 2.24-1.016.48-.44.987-1.046 1.511-1.677l.066-.078 6.396-7.677z" fill="#45D93F"/>
</svg>
