<svg width="256" height="152" viewBox="0 0 256 152" fill="none" xmlns="http://www.w3.org/2000/svg">
    <path d="M0 24C0 12.686 0 7.03 3.515 3.515 7.029 0 12.686 0 24 0h208c11.314 0 16.971 0 20.485 3.515C256 7.029 256 12.686 256 24v96c0 15.085 0 22.627-4.686 27.314C246.627 152 239.085 152 224 152H24c-11.314 0-16.97 0-20.485-3.515C0 144.971 0 139.314 0 128V24z" fill="#DEEBFF"/>
    <circle cx="187" cy="69" r="4" fill="#fff"/>
    <circle cx="147" cy="24" r="4" fill="#fff"/>
    <circle cx="69" cy="86" r="4" fill="#fff"/>
    <path d="M132.624 94.176C139.596 88.04 152 75.504 152 64a24.003 24.003 0 0 0-24-24 24.002 24.002 0 0 0-24 24c0 11.504 12.4 24.04 19.376 30.176a6.942 6.942 0 0 0 9.248 0zM120 64a8.001 8.001 0 0 1 13.657-5.657 8.001 8.001 0 0 1-11.314 11.314A8.001 8.001 0 0 1 120 64z" fill="#0066EA"/>
    <path d="M108 116h40M100 128h56" stroke="#ABC6F6" stroke-width="6" stroke-linecap="round"/>
    <circle cx="156.5" cy="68.5" r="11.5" fill="#fff"/>
    <path fill-rule="evenodd" clip-rule="evenodd" d="M156 84a16.001 16.001 0 0 0 11.314-27.314A16.007 16.007 0 0 0 156 52a16.002 16.002 0 0 0-16 16 16.002 16.002 0 0 0 16 16zm8.476-20.196a1.77 1.77 0 0 0 .241-1.987 1.763 1.763 0 0 0-1.06-.884 1.78 1.78 0 0 0-1.911.596l-6.397 7.675c-.617.74-.963 1.15-1.239 1.4l-.01.011-.013-.009c-.299-.226-.681-.602-1.36-1.283l-2.581-2.58a1.78 1.78 0 0 0-2.492.022 1.776 1.776 0 0 0-.022 2.492l2.58 2.58.072.072c.582.582 1.138 1.14 1.659 1.533.581.44 1.344.853 2.32.81.978-.044 1.7-.526 2.24-1.016.48-.44.987-1.046 1.511-1.677l.066-.078 6.396-7.677z" fill="#45D93F"/>
</svg>
