<svg xmlns="http://www.w3.org/2000/svg" width="30" height="30" viewBox="0 0 24 24" fill="none">
    <path d="M10.502 14H8.335a2.667 2.667 0 0 0-2.667 2.667V18" stroke="#3C4249" stroke-linecap="round" stroke-linejoin="round"></path>
    <path d="M15.502 16.4a.9.9 0 1 0 0-1.8.9.9 0 0 0 0 1.8z" fill="#3C4249" stroke="#3C4249" stroke-linecap="round" stroke-linejoin="round"></path>
    <path d="M15.993 19h-.956a.3.3 0 0 1-.278-.188l-.457-1.138a.3.3 0 0 0-.352-.178l-1.072.274a.3.3 0 0 1-.334-.14l-.45-.773a.3.3 0 0 1 .01-.318l.626-.938a.3.3 0 0 0-.026-.366l-.564-.631a.3.3 0 0 1-.04-.343l.465-.858a.3.3 0 0 1 .289-.157l1.142.094a.3.3 0 0 0 .297-.172l.46-.994a.3.3 0 0 1 .273-.174h.979a.3.3 0 0 1 .27.171l.474.998a.3.3 0 0 0 .297.17l1.05-.092a.3.3 0 0 1 .284.147l.502.851a.3.3 0 0 1-.048.366l-.62.612a.3.3 0 0 0-.029.395l.702.928a.3.3 0 0 1 .028.316l-.38.75a.3.3 0 0 1-.34.156l-1.105-.275a.3.3 0 0 0-.35.177l-.47 1.144a.3.3 0 0 1-.277.186z" stroke="#3C4249"></path>
    <path d="M11.003 11.333a2.667 2.667 0 1 0 0-5.333 2.667 2.667 0 0 0 0 5.333z" stroke="#3C4249" stroke-linecap="round" stroke-linejoin="round"></path>
</svg>