<svg width="17" height="16" viewBox="0 0 17 16" fill="none" xmlns="http://www.w3.org/2000/svg">
<path d="M8.79999 16C6.67826 16 4.64342 15.1571 3.14313 13.6569C1.64284 12.1566 0.799988 10.1217 0.799988 8C0.799988 5.87827 1.64284 3.84344 3.14313 2.34315C4.64342 0.842855 6.67826 -1.22062e-07 8.79999 -3.49691e-07L8.79999 8L8.79999 16Z" fill="#E12626"/>
<path d="M8.79999 16C10.9217 16 12.9566 15.1571 14.4568 13.6569C15.9571 12.1566 16.8 10.1217 16.8 8C16.8 5.87827 15.9571 3.84344 14.4568 2.34315C12.9566 0.842855 10.9217 -1.22062e-07 8.79999 -3.49691e-07L8.79999 8L8.79999 16Z" fill="#E12626"/>
<path d="M9.91603 5.03008C9.57893 4.68797 9.21177 4.42983 8.81453 4.25941C8.41853 4.08648 7.99122 4.00126 7.54009 4C6.55639 4 5.7218 4.37594 5.03258 5.12532C4.34461 5.87595 4.00125 6.83835 4 8.01253C4 9.14536 4.35464 10.094 5.06516 10.8546C5.77568 11.6178 6.61779 12 7.59147 12C8.02631 12.0006 8.42981 11.9223 8.80074 11.7669C9.17292 11.6103 9.54385 11.3559 9.91352 11V11.8058H11.8158V4.19925H9.91603V5.03008ZM9.41227 9.62406C9.02129 10.0426 8.52881 10.2494 7.93483 10.2506C7.35964 10.25 6.87468 10.0376 6.48245 9.61153C6.08897 9.18672 5.89223 8.64411 5.89223 7.98622C5.89223 7.33083 6.08646 6.79574 6.47242 6.3772C6.85964 5.95865 7.3446 5.75188 7.92982 5.75188C8.52881 5.75188 9.0238 5.9574 9.41477 6.36717C9.80575 6.77945 9.93232 7.24813 9.93107 7.91103C9.93107 8.58898 9.8045 9.20677 9.41227 9.62406Z" fill="white"/>
</svg>
