<svg width="36" height="36" viewBox="0 0 36 36" fill="none" xmlns="http://www.w3.org/2000/svg">
    <path d="M16 32a16 16 0 1 1 0-32v32zM16 32a16 16 0 1 0 0-32v32z" fill="#E12626"/>
    <path d="M18.232 10.06c-.674-.684-1.409-1.2-2.203-1.541A6.359 6.359 0 0 0 13.48 8c-1.967 0-3.636.752-5.015 2.25-1.376 1.502-2.063 3.427-2.065 5.775 0 2.266.71 4.163 2.13 5.684C9.951 23.236 11.636 24 13.583 24A6.176 6.176 0 0 0 16 23.534c.745-.313 1.487-.822 2.226-1.534v1.611h3.805V8.4h-3.8v1.661zm-1.008 9.188c-.782.837-1.767 1.25-2.954 1.253-1.15-.001-2.12-.426-2.905-1.278-.787-.85-1.18-1.935-1.18-3.25 0-1.311.388-2.382 1.16-3.219.774-.837 1.744-1.25 2.914-1.25 1.198 0 2.189.41 2.97 1.23.782.825 1.036 1.762 1.033 3.088 0 1.356-.253 2.591-1.038 3.426z" fill="#fff"/>
    <circle cx="28" cy="28" r="6.857" fill="#FF5230" stroke="#fff" stroke-width="1.714"/>
    <g clip-path="url(#roylqlcica)" stroke="#fff" stroke-width=".714" stroke-linecap="round" stroke-linejoin="round">
        <path d="M29.143 25.43h-4.286v3.714h4.286V25.43z" fill="#fff"/>
        <path d="M29.143 26.86h1.143l.857.857v1.428h-2V26.86zM26.143 30.57a.714.714 0 1 0 0-1.43.714.714 0 0 0 0 1.43z"/>
        <path d="M29.857 30.57a.714.714 0 1 0 0-1.43.714.714 0 0 0 0 1.43z"/>
    </g>
    <defs>
        <clipPath id="roylqlcica">
            <path fill="#fff" transform="translate(24.571 24.57)" d="M0 0h6.857v6.857H0z"/>
        </clipPath>
    </defs>
</svg>
