<svg width="16" height="16" viewBox="0 0 16 16" fill="none" xmlns="http://www.w3.org/2000/svg">
    <path d="M8 1.333C4.326 1.333 1.333 4.327 1.333 8c0 3.673 2.993 6.667 6.667 6.667 3.673 0 6.666-2.994 6.666-6.667 0-3.673-2.993-6.667-6.666-6.667zm-.5 4c0-.273.226-.5.5-.5.273 0 .5.227.5.5v3.334c0 .273-.227.5-.5.5a.504.504 0 0 1-.5-.5V5.333zm1.113 5.587a.687.687 0 0 1-.14.22.77.77 0 0 1-.22.14.662.662 0 0 1-.253.053.662.662 0 0 1-.254-.053.77.77 0 0 1-.22-.14.687.687 0 0 1-.14-.22.663.663 0 0 1-.053-.253c0-.087.02-.174.053-.254a.769.769 0 0 1 .14-.22.77.77 0 0 1 .22-.14.667.667 0 0 1 .507 0 .77.77 0 0 1 .22.14.77.77 0 0 1 .14.22c.033.08.053.167.053.254 0 .086-.02.173-.053.253z" fill="#FF5A3A"/>
</svg>
