<!-- <svg width="24" height="24" viewBox="0 0 24 24" fill="none" xmlns="http://www.w3.org/2000/svg">
    <path d="M11.535 18.07a6.535 6.535 0 1 1 0-13.07 6.535 6.535 0 0 1 5.925 9.295M19.566 15.902 16.338 19l-1.701-1.63" stroke="#3C4249" stroke-linecap="round" stroke-linejoin="round"/>
    <path d="M10.129 9.353h2.25c.68 0 1.235.555 1.235 1.235s-.555 1.235-1.235 1.235h-1.017M12.921 14.482l-1.694-2.662" stroke="#3C4249" stroke-linecap="round" stroke-linejoin="round"/>
</svg> -->
<svg xmlns="http://www.w3.org/2000/svg" width="30" height="30" viewBox="0 0 24 24" fill="none">
                                <path d="M11.535 18.07a6.535 6.535 0 1 1 0-13.07 6.535 6.535 0 0 1 5.925 9.295M19.567 15.902 16.338 19l-1.7-1.63" stroke="#3C4249" stroke-linecap="round" stroke-linejoin="round"></path>
                                <path d="M10.128 9.353h2.25c.68 0 1.235.555 1.235 1.235s-.555 1.235-1.235 1.235h-1.017M12.92 14.482l-1.694-2.662" stroke="#3C4249" stroke-linecap="round" stroke-linejoin="round"></path>
 </svg>