<svg width="16" height="16" viewBox="0 0 16 16" fill="none" xmlns="http://www.w3.org/2000/svg">
<path d="M8 16C5.87827 16 3.84344 15.1571 2.34315 13.6569C0.842854 12.1566 -2.82249e-07 10.1217 -3.49691e-07 8C-4.17134e-07 5.87827 0.842854 3.84344 2.34315 2.34315C3.84344 0.842855 5.87827 -1.22062e-07 8 -3.49691e-07L8 8L8 16Z" fill="#00A656"/>
<path d="M8 16C10.1217 16 12.1566 15.1571 13.6569 13.6569C15.1571 12.1566 16 10.1217 16 8C16 5.87827 15.1571 3.84344 13.6569 2.34315C12.1566 0.842855 10.1217 -1.22062e-07 8 -3.49691e-07L8 8L8 16Z" fill="#0074B8"/>
<g clip-path="url(#clip0_201_63442)">
<path d="M4.66669 6.18705L5.32735 4H8.69071C9.47149 4 10.012 4.17266 10.4325 4.57554C10.8529 4.97842 11.0331 5.4964 11.0331 6.18705C11.0331 6.64748 10.9129 6.99281 10.7328 7.28058C10.5526 7.56835 10.2523 7.74101 9.89191 7.85612C10.3724 7.97122 10.7328 8.20144 10.973 8.48921C11.2132 8.77698 11.3334 9.23741 11.3334 9.7554C11.3334 10.5036 11.0931 11.0791 10.6727 11.4245C10.2523 11.8273 9.59161 12 8.75077 12H5.32735V6.18705H4.66669ZM7.72975 5.89928V7.05036H8.09011C8.27029 7.05036 8.45047 6.99281 8.57059 6.8777C8.69071 6.76259 8.75077 6.64748 8.75077 6.47482C8.75077 6.30216 8.69071 6.1295 8.57059 6.07194C8.45047 5.95683 8.27029 5.89928 8.09011 5.89928H7.72975ZM7.72975 8.77698V10.0432H8.15017C8.39041 10.0432 8.57059 9.98561 8.69071 9.8705C8.87089 9.7554 8.93095 9.58273 8.93095 9.41007C8.93095 9.17986 8.87089 9.06475 8.75077 8.94964C8.57059 8.83453 8.39041 8.77698 8.15017 8.77698H7.72975Z" fill="white"/>
</g>
<defs>
<clipPath id="clip0_201_63442">
<rect width="6.66667" height="8" fill="white" transform="translate(4.66669 4)"/>
</clipPath>
</defs>
</svg>
