<svg width="24" height="24" viewBox="0 0 24 24" fill="none" xmlns="http://www.w3.org/2000/svg">
<path d="M3.90576 7.81934L11.9999 12.5035L20.0391 7.84681" stroke="#4B5563" stroke-width="1.4" stroke-linecap="round" stroke-linejoin="round"/>
<path d="M11.9999 20.8083V12.4941" stroke="#4B5563" stroke-width="1.4" stroke-linecap="round" stroke-linejoin="round"/>
<path d="M20.8091 9.40551V14.5939C20.8091 14.6397 20.8091 14.6763 20.8 14.7222C20.1583 14.163 19.3333 13.833 18.4166 13.833C17.5549 13.833 16.7574 14.1355 16.1249 14.6397C15.2816 15.3089 14.7499 16.3447 14.7499 17.4997C14.7499 18.1872 14.9424 18.838 15.2816 19.388C15.3641 19.5347 15.4649 19.6722 15.5749 19.8005L13.8975 20.7264C12.8525 21.313 11.1474 21.313 10.1024 20.7264L5.20745 18.013C4.09828 17.3989 3.1908 15.8589 3.1908 14.5939V9.40551C3.1908 8.14051 4.09828 6.60053 5.20745 5.98636L10.1024 3.27301C11.1474 2.68634 12.8525 2.68634 13.8975 3.27301L18.7925 5.98636C19.9016 6.60053 20.8091 8.14051 20.8091 9.40551Z" stroke="#4B5563" stroke-width="1.4" stroke-linecap="round" stroke-linejoin="round"/>
<path d="M22.0833 17.4997C22.0833 18.1872 21.8908 18.838 21.5517 19.388C21.3592 19.718 21.1117 20.0113 20.8275 20.2497C20.1858 20.8272 19.3425 21.1663 18.4167 21.1663C17.0783 21.1663 15.9142 20.4513 15.2817 19.388C14.9425 18.838 14.75 18.1872 14.75 17.4997C14.75 16.3447 15.2817 15.3088 16.125 14.6397C16.7575 14.1355 17.555 13.833 18.4167 13.833C20.4425 13.833 22.0833 15.4738 22.0833 17.4997Z" stroke="#4B5563" stroke-width="1.4" stroke-miterlimit="10" stroke-linecap="round" stroke-linejoin="round"/>
<path d="M19.3974 18.4527L17.4541 16.5186" stroke="#4B5563" stroke-width="1.4" stroke-miterlimit="10" stroke-linecap="round" stroke-linejoin="round"/>
<path d="M19.3791 16.5459L17.4358 18.4801" stroke="#4B5563" stroke-width="1.4" stroke-miterlimit="10" stroke-linecap="round" stroke-linejoin="round"/>
</svg>
