<svg width="256" height="152" viewBox="0 0 256 152" fill="none" xmlns="http://www.w3.org/2000/svg">
    <rect width="256" height="152" rx="16" fill="#DEEBFF"/>
    <circle cx="107" cy="122" r="4" fill="#fff"/>
    <circle cx="73" cy="105" r="4" fill="#fff"/>
    <circle cx="183" cy="44" r="4" fill="#fff"/>
    <mask id="htwcyko9wa" style="mask-type:luminance" maskUnits="userSpaceOnUse" x="127" y="78" width="40" height="32">
        <path d="M151 78h-8c-7.542 0-11.314 0-13.656 2.344-1.688 1.686-2.16 4.114-2.292 8.156h39.896c-.132-4.042-.604-6.47-2.292-8.156C162.314 78 158.542 78 151 78zm-8 32h8c7.542 0 11.314 0 13.656-2.344C167 105.314 167 101.542 167 94c0-.884 0-1.716-.004-2.5h-39.992C127 92.284 127 93.116 127 94c0 7.542 0 11.314 2.344 13.656C131.686 110 135.458 110 143 110z" fill="#fff"/>
        <path fill-rule="evenodd" clip-rule="evenodd" d="M133.5 102a1.503 1.503 0 0 1 1.5-1.5h8a1.503 1.503 0 0 1 1.5 1.5 1.503 1.503 0 0 1-1.5 1.5h-8a1.503 1.503 0 0 1-1.5-1.5zm13 0a1.503 1.503 0 0 1 1.5-1.5h3a1.503 1.503 0 0 1 1.5 1.5 1.503 1.503 0 0 1-1.5 1.5h-3a1.503 1.503 0 0 1-1.5-1.5z" fill="#000"/>
    </mask>
    <g mask="url(#htwcyko9wa)">
        <path d="M123 70h48v48h-48V70z" fill="#0066EA"/>
    </g>
    <g clip-path="url(#t3v8zy22lb)">
        <path d="M117 66.286V69c0 1.628-.762 3.02-1.82 4.114-1.046 1.084-2.466 1.968-4.064 2.668C107.912 77.182 103.628 78 99 78c-4.628 0-8.912-.816-12.116-2.218-1.598-.7-3.018-1.584-4.064-2.668-.97-1-1.69-2.256-1.804-3.712L81 69v-2.714c.93.528 1.924.996 2.988 1.39 4.06 1.502 9.37 2.34 15.012 2.34 5.642 0 10.952-.838 15.012-2.34a20.271 20.271 0 0 0 2.278-1.006l.71-.384zm-36-11c.93.528 1.924.996 2.988 1.39 4.06 1.502 9.37 2.34 15.012 2.34 5.642 0 10.952-.838 15.012-2.34a20.152 20.152 0 0 0 2.988-1.39v6.21a16.648 16.648 0 0 1-4.376 2.428c-3.51 1.3-8.328 2.094-13.624 2.094-5.294 0-10.112-.794-13.624-2.094A16.656 16.656 0 0 1 81 61.496v-6.21zM99 40c4.628 0 8.912.816 12.116 2.218 1.598.7 3.018 1.584 4.064 2.668.97 1 1.69 2.256 1.804 3.712L117 49v1.496a16.645 16.645 0 0 1-4.376 2.428c-3.51 1.3-8.328 2.094-13.624 2.094-5.294 0-10.112-.794-13.624-2.094a16.533 16.533 0 0 1-3.81-2.012L81 50.496V49c0-1.628.762-3.02 1.82-4.114 1.046-1.084 2.466-1.968 4.064-2.668C90.088 40.818 94.372 40 99 40z" fill="#AB4FD6"/>
    </g>
    <path d="M144.467 54.367c-2.159-1.867-4.959-3.033-8.05-3.033-5.425 0-10.01 3.535-11.62 8.423l2.753.91a9.333 9.333 0 0 1 8.867-6.417c2.275 0 4.351.84 5.973 2.194l-4.223 4.223h10.5v-10.5l-4.2 4.2z" fill="#3C4249"/>
    <defs>
        <clipPath id="t3v8zy22lb">
            <path fill="#fff" transform="translate(75 34)" d="M0 0h48v48H0z"/>
        </clipPath>
    </defs>
</svg>
