<svg width="40" height="40" viewBox="0 0 40 40" fill="none" xmlns="http://www.w3.org/2000/svg">
    <circle cx="20" cy="20" r="19" stroke="#9B4FF8" stroke-width="2"/>
    <path fill-rule="evenodd" clip-rule="evenodd" d="M14.063 10a1.563 1.563 0 0 0 0 3.125h3.124a4.689 4.689 0 0 1 4.421 3.125h-7.546a1.563 1.563 0 0 0 0 3.125h7.546a4.69 4.69 0 0 1-4.42 3.125h-3.125a1.563 1.563 0 0 0-1.105 2.667l6.25 6.25a1.564 1.564 0 0 0 2.57-1.702 1.564 1.564 0 0 0-.361-.507L17.812 25.6a7.817 7.817 0 0 0 7.032-6.225h1.718a1.563 1.563 0 0 0 0-3.125h-1.718a7.777 7.777 0 0 0-1.407-3.125h3.125a1.563 1.563 0 0 0 0-3.125h-12.5z" fill="#9B4FF8"/>
</svg>
