<svg width="16" height="16" viewBox="0 0 16 16" fill="none" xmlns="http://www.w3.org/2000/svg">
<path d="M8.00013 9.63601C8.90387 9.63601 9.6365 8.90338 9.6365 7.99964C9.6365 7.09591 8.90387 6.36328 8.00013 6.36328C7.09639 6.36328 6.36377 7.09591 6.36377 7.99964C6.36377 8.90338 7.09639 9.63601 8.00013 9.63601Z" stroke="#575F6C" stroke-linecap="round" stroke-linejoin="round"/>
<path d="M12.0364 9.63636C11.9638 9.80088 11.9421 9.98338 11.9742 10.1603C12.0063 10.3373 12.0906 10.5005 12.2164 10.6291L12.2491 10.6618C12.3505 10.7631 12.431 10.8834 12.4859 11.0159C12.5408 11.1483 12.569 11.2903 12.569 11.4336C12.569 11.577 12.5408 11.719 12.4859 11.8514C12.431 11.9838 12.3505 12.1041 12.2491 12.2055C12.1478 12.3069 12.0275 12.3873 11.895 12.4422C11.7626 12.4971 11.6206 12.5254 11.4773 12.5254C11.3339 12.5254 11.192 12.4971 11.0595 12.4422C10.9271 12.3873 10.8068 12.3069 10.7055 12.2055L10.6727 12.1727C10.5442 12.047 10.3809 11.9626 10.204 11.9305C10.027 11.8985 9.84452 11.9201 9.68 11.9927C9.51867 12.0619 9.38108 12.1767 9.28417 12.323C9.18725 12.4694 9.13525 12.6408 9.13455 12.8164V12.9091C9.13455 13.1984 9.01961 13.4759 8.81503 13.6805C8.61044 13.8851 8.33296 14 8.04364 14C7.75431 14 7.47683 13.8851 7.27225 13.6805C7.06766 13.4759 6.95273 13.1984 6.95273 12.9091V12.86C6.9485 12.6795 6.89006 12.5044 6.78501 12.3575C6.67995 12.2106 6.53313 12.0987 6.36364 12.0364C6.19912 11.9638 6.01662 11.9421 5.83968 11.9742C5.66274 12.0063 5.49946 12.0906 5.37091 12.2164L5.33818 12.2491C5.23687 12.3505 5.11655 12.431 4.98412 12.4859C4.85168 12.5408 4.70973 12.569 4.56636 12.569C4.423 12.569 4.28104 12.5408 4.14861 12.4859C4.01618 12.431 3.89586 12.3505 3.79455 12.2491C3.69312 12.1478 3.61265 12.0275 3.55775 11.895C3.50285 11.7626 3.4746 11.6206 3.4746 11.4773C3.4746 11.3339 3.50285 11.192 3.55775 11.0595C3.61265 10.9271 3.69312 10.8068 3.79455 10.7055L3.82727 10.6727C3.95302 10.5442 4.03737 10.3809 4.06946 10.204C4.10154 10.027 4.07988 9.84452 4.00727 9.68C3.93813 9.51867 3.82332 9.38108 3.67698 9.28417C3.53064 9.18725 3.35916 9.13525 3.18364 9.13455H3.09091C2.80158 9.13455 2.52411 9.01961 2.31952 8.81503C2.11493 8.61044 2 8.33296 2 8.04364C2 7.75431 2.11493 7.47683 2.31952 7.27225C2.52411 7.06766 2.80158 6.95273 3.09091 6.95273H3.14C3.32054 6.9485 3.49564 6.89006 3.64253 6.78501C3.78941 6.67995 3.9013 6.53313 3.96364 6.36364C4.03624 6.19912 4.0579 6.01662 4.02582 5.83968C3.99374 5.66274 3.90938 5.49946 3.78364 5.37091L3.75091 5.33818C3.64948 5.23687 3.56902 5.11655 3.51412 4.98412C3.45922 4.85168 3.43096 4.70973 3.43096 4.56636C3.43096 4.423 3.45922 4.28104 3.51412 4.14861C3.56902 4.01618 3.64948 3.89586 3.75091 3.79455C3.85223 3.69312 3.97254 3.61265 4.10497 3.55775C4.23741 3.50285 4.37936 3.4746 4.52273 3.4746C4.66609 3.4746 4.80805 3.50285 4.94048 3.55775C5.07291 3.61265 5.19323 3.69312 5.29455 3.79455L5.32727 3.82727C5.45583 3.95302 5.6191 4.03737 5.79604 4.06946C5.97299 4.10154 6.15548 4.07988 6.32 4.00727H6.36364C6.52497 3.93813 6.66255 3.82332 6.75947 3.67698C6.85638 3.53064 6.90839 3.35916 6.90909 3.18364V3.09091C6.90909 2.80158 7.02403 2.52411 7.22861 2.31952C7.4332 2.11493 7.71067 2 8 2C8.28933 2 8.5668 2.11493 8.77139 2.31952C8.97597 2.52411 9.09091 2.80158 9.09091 3.09091V3.14C9.09161 3.31552 9.14362 3.487 9.24053 3.63334C9.33745 3.77969 9.47504 3.89449 9.63636 3.96364C9.80088 4.03624 9.98338 4.0579 10.1603 4.02582C10.3373 3.99374 10.5005 3.90938 10.6291 3.78364L10.6618 3.75091C10.7631 3.64948 10.8834 3.56902 11.0159 3.51412C11.1483 3.45922 11.2903 3.43096 11.4336 3.43096C11.577 3.43096 11.719 3.45922 11.8514 3.51412C11.9838 3.56902 12.1041 3.64948 12.2055 3.75091C12.3069 3.85223 12.3873 3.97254 12.4422 4.10497C12.4971 4.23741 12.5254 4.37936 12.5254 4.52273C12.5254 4.66609 12.4971 4.80805 12.4422 4.94048C12.3873 5.07291 12.3069 5.19323 12.2055 5.29455L12.1727 5.32727C12.047 5.45583 11.9626 5.6191 11.9305 5.79604C11.8985 5.97299 11.9201 6.15548 11.9927 6.32V6.36364C12.0619 6.52497 12.1767 6.66255 12.323 6.75947C12.4694 6.85638 12.6408 6.90839 12.8164 6.90909H12.9091C13.1984 6.90909 13.4759 7.02403 13.6805 7.22861C13.8851 7.4332 14 7.71067 14 8C14 8.28933 13.8851 8.5668 13.6805 8.77139C13.4759 8.97597 13.1984 9.09091 12.9091 9.09091H12.86C12.6845 9.09161 12.513 9.14362 12.3667 9.24053C12.2203 9.33745 12.1055 9.47504 12.0364 9.63636Z" stroke="#575F6C" stroke-linecap="round" stroke-linejoin="round"/>
</svg>
