<svg width="16" height="16" viewBox="0 0 16 16" fill="none" xmlns="http://www.w3.org/2000/svg">
    <g clip-path="url(#g6qdhoqlaa)" stroke="#575F6C" stroke-linecap="round" stroke-linejoin="round">
        <path d="M11.78 11.78A6.408 6.408 0 0 1 8 13.091c-4.455 0-7-5.09-7-5.09a11.741 11.741 0 0 1 3.22-3.78m2.444-1.16A5.804 5.804 0 0 1 8 2.91C12.455 2.91 15 8 15 8a11.765 11.765 0 0 1-1.374 2.03m-4.277-.68A1.91 1.91 0 1 1 6.651 6.65M1 1l14 14"/>
    </g>
    <defs>
        <clipPath id="g6qdhoqlaa">
            <path fill="#fff" d="M0 0h16v16H0z"/>
        </clipPath>
    </defs>
</svg>
