<svg width="56" height="56" viewBox="0 0 56 56" fill="none" xmlns="http://www.w3.org/2000/svg">
    <circle cx="28" cy="28" r="28" fill="#EAE6FF"/>
    <path d="M28 38.5c5.799 0 10.5-4.701 10.5-10.5S33.799 17.5 28 17.5 17.5 22.201 17.5 28 22.201 38.5 28 38.5z" stroke="#5243AA" stroke-width="1.6" stroke-linecap="round" stroke-linejoin="round"/>
    <path d="m37.424 32.635-5.937-3.652a.875.875 0 0 0-.342-.122l-2.496-.337a.875.875 0 0 0-.916.511l-1.498 3.362a.875.875 0 0 0 .157.95l2.056 2.225a.875.875 0 0 1 .216.76l-.418 2.165" stroke="#5243AA" stroke-width="1.6" stroke-linecap="round" stroke-linejoin="round"/>
    <path d="m21.104 20.082-.978 2.313a.875.875 0 0 0-.014.648l1.257 3.354a.874.874 0 0 0 .636.549l2.344.504a.875.875 0 0 1 .603.474l.416.86a.876.876 0 0 0 .788.494h1.47" stroke="#5243AA" stroke-width="1.6" stroke-linecap="round" stroke-linejoin="round"/>
    <path d="m30.675 17.845 1.02 1.828a.875.875 0 0 1-.176 1.076l-2.944 2.662a.868.868 0 0 1-.164.117l-1.338.74a.875.875 0 0 1-.424.108h-2.334a.875.875 0 0 0-.807.535l-.91 2.163" stroke="#5243AA" stroke-width="1.6" stroke-linecap="round" stroke-linejoin="round"/>
</svg>
