<svg width="30" height="30" viewBox="0 0 30 30" fill="none" xmlns="http://www.w3.org/2000/svg">
<path d="M12.75 22.5H17.25C21 22.5 22.5 21 22.5 17.25V12.75C22.5 9 21 7.5 17.25 7.5H12.75C9 7.5 7.5 9 7.5 12.75V17.25C7.5 21 9 22.5 12.75 22.5Z" stroke="#3C4249" stroke-linecap="round" stroke-linejoin="round"/>
<path d="M17.6758 19.8752V18.2002" stroke="#3C4249" stroke-miterlimit="10" stroke-linecap="round" stroke-linejoin="round"/>
<path d="M17.6758 11.5875V10.125" stroke="#3C4249" stroke-miterlimit="10" stroke-linecap="round" stroke-linejoin="round"/>
<path d="M17.6766 15.4874C18.7535 15.4874 19.6266 14.6144 19.6266 13.5374C19.6266 12.4604 18.7535 11.5874 17.6766 11.5874C16.5996 11.5874 15.7266 12.4604 15.7266 13.5374C15.7266 14.6144 16.5996 15.4874 17.6766 15.4874Z" stroke="#3C4249" stroke-miterlimit="10" stroke-linecap="round" stroke-linejoin="round"/>
<path d="M12.3242 19.8751V18.4126" stroke="#3C4249" stroke-miterlimit="10" stroke-linecap="round" stroke-linejoin="round"/>
<path d="M12.3242 14.3V10.125" stroke="#3C4249" stroke-miterlimit="10" stroke-linecap="round" stroke-linejoin="round"/>
<path d="M12.3211 18.4127C13.398 18.4127 14.2711 17.5397 14.2711 16.4627C14.2711 15.3857 13.398 14.5127 12.3211 14.5127C11.2441 14.5127 10.3711 15.3857 10.3711 16.4627C10.3711 17.5397 11.2441 18.4127 12.3211 18.4127Z" stroke="#3C4249" stroke-miterlimit="10" stroke-linecap="round" stroke-linejoin="round"/>
</svg>
