<svg width="176" height="152" viewBox="0 0 176 152" fill="none" xmlns="http://www.w3.org/2000/svg">
    <rect width="176" height="152" rx="16" fill="#DEEBFF"/>
    <circle cx="72" cy="122" r="4" fill="#fff"/>
    <circle cx="38" cy="105" r="4" fill="#fff"/>
    <circle cx="148" cy="44" r="4" fill="#fff"/>
    <mask id="xtn53jmnpa" style="mask-type:luminance" maskUnits="userSpaceOnUse" x="92" y="78" width="40" height="32">
        <path d="M116 78h-8c-7.542 0-11.314 0-13.656 2.344-1.688 1.686-2.16 4.114-2.292 8.156h39.896c-.132-4.042-.604-6.47-2.292-8.156C127.314 78 123.542 78 116 78zm-8 32h8c7.542 0 11.314 0 13.656-2.344C132 105.314 132 101.542 132 94c0-.884 0-1.716-.004-2.5H92.004C92 92.284 92 93.116 92 94c0 7.542 0 11.314 2.344 13.656C96.686 110 100.458 110 108 110z" fill="#fff"/>
        <path fill-rule="evenodd" clip-rule="evenodd" d="M98.5 102a1.502 1.502 0 0 1 1.5-1.5h8a1.503 1.503 0 0 1 1.5 1.5 1.503 1.503 0 0 1-1.5 1.5h-8a1.501 1.501 0 0 1-1.5-1.5zm13 0a1.503 1.503 0 0 1 1.5-1.5h3a1.503 1.503 0 0 1 1.5 1.5 1.503 1.503 0 0 1-1.5 1.5h-3a1.503 1.503 0 0 1-1.5-1.5z" fill="#000"/>
    </mask>
    <g mask="url(#xtn53jmnpa)">
        <path d="M88 70h48v48H88V70z" fill="#0066EA"/>
    </g>
    <g clip-path="url(#zyweagm80b)">
        <path d="M82 66.286V69c0 1.628-.762 3.02-1.82 4.114-1.046 1.084-2.466 1.968-4.064 2.668C72.912 77.182 68.628 78 64 78c-4.628 0-8.912-.816-12.116-2.218-1.598-.7-3.018-1.584-4.064-2.668-.97-1-1.69-2.256-1.804-3.712L46 69v-2.714c.93.528 1.924.996 2.988 1.39 4.06 1.502 9.37 2.34 15.012 2.34 5.642 0 10.952-.838 15.012-2.34a20.271 20.271 0 0 0 2.278-1.006l.71-.384zm-36-11c.93.528 1.924.996 2.988 1.39 4.06 1.502 9.37 2.34 15.012 2.34 5.642 0 10.952-.838 15.012-2.34A20.157 20.157 0 0 0 82 55.286v6.21a16.656 16.656 0 0 1-4.376 2.428c-3.51 1.3-8.328 2.094-13.624 2.094-5.294 0-10.112-.794-13.624-2.094A16.656 16.656 0 0 1 46 61.496v-6.21zM64 40c4.628 0 8.912.816 12.116 2.218 1.598.7 3.018 1.584 4.064 2.668.97 1 1.69 2.256 1.804 3.712L82 49v1.496a16.652 16.652 0 0 1-4.376 2.428c-3.51 1.3-8.328 2.094-13.624 2.094-5.294 0-10.112-.794-13.624-2.094a16.533 16.533 0 0 1-3.81-2.012L46 50.496V49c0-1.628.762-3.02 1.82-4.114 1.046-1.084 2.466-1.968 4.064-2.668C55.088 40.818 59.372 40 64 40z" fill="#AB4FD6"/>
    </g>
    <path d="M109.467 54.367c-2.159-1.867-4.959-3.033-8.05-3.033-5.425 0-10.01 3.535-11.62 8.423l2.753.91a9.336 9.336 0 0 1 8.867-6.417c2.275 0 4.351.84 5.973 2.194l-4.223 4.223h10.5v-10.5l-4.2 4.2z" fill="#3C4249"/>
    <defs>
        <clipPath id="zyweagm80b">
            <path fill="#fff" transform="translate(40 34)" d="M0 0h48v48H0z"/>
        </clipPath>
    </defs>
</svg>
