<svg xmlns="http://www.w3.org/2000/svg" width="30" height="30" viewBox="0 0 24 24" fill="none">
                                    <path d="m6.392 13.858-1.066-1.066a1.126 1.126 0 0 1 0-1.584l1.066-1.066c.182-.182.33-.54.33-.792V7.843c0-.617.504-1.122 1.12-1.122H9.35c.252 0 .61-.147.792-.33l1.066-1.065a1.126 1.126 0 0 1 1.584 0l1.066 1.066c.182.182.54.33.792.33h1.507c.617 0 1.122.504 1.122 1.12V9.35c0 .252.147.61.33.792l1.065 1.066c.435.434.435 1.15 0 1.584l-1.066 1.066c-.182.182-.33.54-.33.792v1.507c0 .617-.504 1.122-1.12 1.122H14.65c-.252 0-.61.147-.792.33l-1.066 1.065a1.125 1.125 0 0 1-1.584 0l-1.066-1.066a1.293 1.293 0 0 0-.792-.33H7.843a1.125 1.125 0 0 1-1.122-1.12V14.65c0-.26-.147-.617-.33-.792zM9.906 14.096l4.207-4.206" stroke="#3C4249" stroke-linecap="round" stroke-linejoin="round"></path>
                                    <path d="M13.757 13.745h.006M10.253 10.24h.006" stroke="#3C4249" stroke-width="1.2" stroke-linecap="round" stroke-linejoin="round"></path>
</svg>