<svg width="30" height="30" viewBox="0 0 30 30" fill="none" xmlns="http://www.w3.org/2000/svg">
    <path d="M20.799 11.522H7v9.623c0 .471.384.855.855.855h6.255" stroke="#3C4249" stroke-width="1.2" stroke-linecap="round" stroke-linejoin="round"/>
    <path fill-rule="evenodd" clip-rule="evenodd" d="M18.561 17.916a.798.798 0 1 1 1.596 0 .798.798 0 0 1-1.596 0zm.798-1.797a1.798 1.798 0 1 0 0 3.595 1.798 1.798 0 0 0 0-3.595z" fill="#3C4249"/>
    <path d="M15.166 18.297v-.761c0-.45.347-.822.776-.822.739 0 1.04-.554.67-1.233-.213-.39-.086-.896.285-1.12l.706-.429c.322-.203.739-.082.93.26l.045.082c.368.68.972.68 1.343 0l.045-.082c.192-.342.608-.463.93-.26l.707.429c.371.224.498.73.285 1.12-.371.68-.069 1.233.67 1.233.424 0 .775.368.775.822v.761c0 .45-.347.822-.775.822-.739 0-1.041.554-.67 1.233.213.394.086.896-.285 1.12l-.706.429c-.323.203-.74.082-.93-.26l-.046-.082c-.367-.68-.971-.68-1.343 0l-.044.082c-.192.342-.609.463-.931.26l-.706-.428c-.371-.225-.498-.732-.286-1.12.372-.68.07-1.234-.67-1.234-.428 0-.775-.372-.775-.822z" stroke="#3C4249" stroke-width="1.2" stroke-miterlimit="10" stroke-linecap="round" stroke-linejoin="round"/>
    <path d="M20.799 11.522 19.137 8H8.747L7 11.522M13.904 8v3.522" stroke="#3C4249" stroke-width="1.2" stroke-linecap="round" stroke-linejoin="round"/>
</svg>
