<svg width="28" height="22" viewBox="0 0 28 22" fill="none" xmlns="http://www.w3.org/2000/svg">
<path d="M21.6189 3.37863H0.666504C0.666504 2.62087 0.967524 1.89414 1.50334 1.35832C2.03916 0.822504 2.76589 0.521484 3.52365 0.521484H18.7617C19.5195 0.521484 20.2462 0.822504 20.782 1.35832C21.3179 1.89414 21.6189 2.62087 21.6189 3.37863ZM27.3332 10.9977V14.8072H23.5236C23.0185 14.8072 22.534 14.6065 22.1768 14.2493C21.8196 13.8921 21.6189 13.4076 21.6189 12.9024C21.6189 12.3973 21.8196 11.9128 22.1768 11.5556C22.534 11.1984 23.0185 10.9977 23.5236 10.9977H27.3332ZM19.7141 12.9024C19.7141 13.9128 20.1155 14.8818 20.8299 15.5962C21.5443 16.3106 22.5133 16.712 23.5236 16.712H27.3332V18.6167C27.3332 19.3745 27.0322 20.1012 26.4963 20.637C25.9605 21.1728 25.2338 21.4739 24.476 21.4739H3.52365C2.76589 21.4739 2.03916 21.1728 1.50334 20.637C0.967524 20.1012 0.666504 19.3745 0.666504 18.6167V5.28339C0.666504 5.0308 0.766844 4.78856 0.94545 4.60995C1.12406 4.43135 1.3663 4.33101 1.61888 4.33101H24.476C25.2338 4.33101 25.9605 4.63203 26.4963 5.16785C27.0322 5.70366 27.3332 6.43039 27.3332 7.18815V9.09291H23.5236C22.5133 9.09291 21.5443 9.49427 20.8299 10.2087C20.1155 10.9231 19.7141 11.8921 19.7141 12.9024ZM9.23793 15.7596H4.47603V17.6643H9.23793V15.7596Z" fill="url(#paint0_linear_7932_128605)"/>
<defs>
<linearGradient id="paint0_linear_7932_128605" x1="9.15793" y1="-2.05718" x2="10.5204" y2="31.4597" gradientUnits="userSpaceOnUse">
<stop stop-color="#D1D5DB"/>
<stop offset="1" stop-color="#4B5563"/>
</linearGradient>
</defs>
</svg>
