<svg xmlns="http://www.w3.org/2000/svg" width="16" height="16" viewBox="0 0 16 16">
    <g fill="none" fill-rule="evenodd">
        <g>
            <g>
                <g transform="translate(-664 -802) translate(416 666) translate(248 136)">
                    <circle cx="8" cy="8" r="8" fill="#DFE1E6"/>
                    <path fill="#FFF" fill-rule="nonzero" d="M10.893 11.964c-.048 0-.107-.035-.179-.107L8 9.18l-2.679 2.714c-.047.047-.119.071-.214.071s-.167-.024-.214-.071l-.75-.786c-.048-.047-.072-.119-.072-.214s.024-.155.072-.179L6.857 8 4.143 5.321C4 5.18 4 5.036 4.143 4.893l.75-.75c.071-.072.143-.107.214-.107.048 0 .107.035.179.107L8 6.786l2.714-2.643c.072-.072.131-.107.179-.107.071 0 .143.035.214.107l.786.75c.143.143.143.286 0 .428L9.179 8l2.678 2.679c.072.071.107.142.107.214 0 .095-.035.167-.107.214l-.75.75c-.071.072-.143.107-.214.107z"/>
                </g>
            </g>
        </g>
    </g>
</svg>
