<svg width="20" height="20" viewBox="0 0 20 20" fill="none" xmlns="http://www.w3.org/2000/svg">
<g clip-path="url(#clip0_6964_74887)">
<rect width="20" height="20" rx="10" fill="#E4722B"/>
<path d="M4.00293 4.38675C4.47282 4.36032 12.1116 4.38675 12.1116 4.38675C12.1116 4.38675 16.3083 5.0123 16.6211 10.1488C16.6211 10.1224 16.7782 14.9726 11.7195 15.8316C11.6666 15.8052 5.59323 15.8316 5.59323 15.8316V5.95062L4.00293 4.38675Z" fill="white" fill-opacity="0.7"/>
<path d="M7.33643 11.9935L8.88121 9.84375H12.1661L13.6918 11.9935L12.2248 11.4458L12.2645 13.7336C12.2645 13.7336 11.7946 14.7497 8.74464 15.2387C8.74464 15.2196 8.74464 11.484 8.74464 11.484L7.33643 11.9935Z" fill="white"/>
<path d="M8.61377 7.21088C8.61377 6.22704 9.43609 5.42969 10.4522 5.42969C11.4684 5.42969 12.2907 6.22704 12.2907 7.21088C12.2907 8.19473 11.1953 8.0611 10.4522 8.99208C9.43609 8.99208 8.61377 8.19473 8.61377 7.21088Z" fill="white"/>
<path d="M12.0456 7.71622C12.0456 7.71622 12.3966 8.10095 12.7299 8.09508C12.8929 8.09214 13.025 7.95998 13.0397 7.79846C13.0588 7.56351 13.0001 7.16703 12.4142 7.06865C11.4993 6.79406 12.0456 7.71622 12.0456 7.71622Z" fill="#DDB59B"/>
<path d="M10.4962 9.55174C11.4069 9.55174 12.1452 8.83579 12.1452 7.95263C12.1452 7.06946 11.4069 6.35352 10.4962 6.35352C9.58547 6.35352 8.84717 7.06946 8.84717 7.95263C8.84717 8.83579 9.58547 9.55174 10.4962 9.55174Z" fill="white"/>
<path d="M11.9305 6.78321L12.719 7.03431C12.8027 7.06074 12.8027 7.18702 12.7205 7.21492L11.9319 7.47483C11.8747 7.49392 11.8174 7.4484 11.8174 7.38526V6.87278C11.8159 6.80964 11.8732 6.76559 11.9305 6.78321Z" fill="white"/>
<path d="M16.4934 9.0957C16.0249 10.0252 13.3642 14.9018 5.59326 15.8328C5.59326 15.8328 11.6681 15.8064 11.7195 15.8328C16.7782 14.9709 16.6211 10.1221 16.6211 10.1486C16.5991 9.77265 16.555 9.42316 16.4934 9.0957Z" fill="#FCECE3"/>
<path d="M12.1734 6.58248C11.4099 6.54577 10.6918 6.93931 10.3878 7.13314C10.3805 7.13754 10.3746 7.14195 10.3717 7.14342L10.3629 7.14782C9.35261 7.76162 8.74027 7.82036 8.7344 7.82036C8.72999 7.82036 8.72706 7.8233 8.72412 7.82476C8.72559 7.82623 8.72559 7.8277 8.72559 7.82917C8.72706 7.83357 8.72853 7.83798 8.72999 7.84092C8.73146 7.84385 8.73146 7.84532 8.73293 7.84826C8.7344 7.8512 8.7344 7.85266 8.73587 7.8556C8.73734 7.85854 8.7388 7.86294 8.74027 7.86588C8.74174 7.87029 8.74468 7.87469 8.74615 7.87763C8.74762 7.8791 8.74762 7.88203 8.74908 7.8835C8.81076 7.87763 9.40841 7.80421 10.3967 7.20362C10.4025 7.20068 10.4113 7.19481 10.426 7.186C10.727 6.99364 11.4466 6.6001 12.2013 6.64856C12.1911 6.628 12.1823 6.60451 12.1734 6.58248Z" fill="#F7D5BF"/>
<path d="M12.0561 7.43155C12.0561 7.43155 12.0443 7.44036 12.0326 7.45504C11.4173 8.16282 10.8975 8.10849 10.8902 8.10849C10.3219 8.09968 9.94008 7.92787 9.75506 7.59895C9.40704 6.98074 9.82554 5.94991 10.062 5.4668C10.0605 5.4668 10.059 5.4668 10.0561 5.4668C10.0561 5.4668 10.0546 5.4668 10.0546 5.46827C10.0517 5.46973 10.0502 5.46827 10.0473 5.46973C10.0458 5.46973 10.0458 5.4712 10.0443 5.4712C10.0429 5.4712 10.0429 5.4712 10.0414 5.4712C10.0399 5.4712 10.0399 5.4712 10.0385 5.4712C10.037 5.4712 10.037 5.47267 10.0355 5.47267H10.0341C10.0326 5.47267 10.0311 5.47267 10.0282 5.47267C10.0282 5.47267 10.0282 5.47267 10.0267 5.47267C10.0267 5.47267 10.0253 5.47267 10.0253 5.47414C10.0194 5.47708 10.0135 5.47708 10.0076 5.47708C10.0076 5.47708 10.0076 5.47708 10.0062 5.47708C10.0062 5.47708 10.0047 5.47708 10.0047 5.47854C10.0018 5.48001 10.0003 5.47854 9.99735 5.48001H9.99588C9.99441 5.48001 9.99294 5.48001 9.99148 5.48001L9.99001 5.48148C9.98854 5.48148 9.98707 5.48295 9.98707 5.48295C9.98413 5.48442 9.98267 5.48295 9.9812 5.48442C9.90631 5.64154 9.8182 5.84271 9.74038 6.06885C9.50983 6.74432 9.49515 7.27002 9.69926 7.63125C9.89603 7.9822 10.2969 8.16429 10.8902 8.17457C10.8916 8.17457 10.8931 8.17457 10.8975 8.17457C10.9665 8.17457 11.479 8.2054 12.084 7.50937C12.081 7.5079 12.0693 7.44329 12.0561 7.43155Z" fill="#F7D5BF"/>
</g>
<defs>
<clipPath id="clip0_6964_74887">
<rect width="20" height="20" fill="white"/>
</clipPath>
</defs>
</svg>
