<svg width="16" height="16" viewBox="0 0 16 16" fill="none" xmlns="http://www.w3.org/2000/svg">
    <path d="M14 12.2h.6-.6zm-12 0h-.6.6zm12-8.4h.6-.6zM3.8 2v-.6.6zM2 3.8h-.6.6zm2.4 0a.6.6 0 0 0 0 1.2V3.8zM6.8 5a.6.6 0 0 0 0-1.2V5zm6.6 7.2a1.2 1.2 0 0 1-.351.849l.848.848A2.4 2.4 0 0 0 14.6 12.2h-1.2zm-.351.849a1.2 1.2 0 0 1-.849.351v1.2a2.4 2.4 0 0 0 1.697-.703l-.848-.848zm-.849.351H3.8v1.2h8.4v-1.2zm-8.4 0a1.2 1.2 0 0 1-.849-.351l-.848.848A2.4 2.4 0 0 0 3.8 14.6v-1.2zm-.849-.351A1.2 1.2 0 0 1 2.6 12.2H1.4a2.4 2.4 0 0 0 .703 1.697l.848-.848zM14.6 3.8a2.4 2.4 0 0 0-.703-1.697l-.848.848a1.2 1.2 0 0 1 .351.849h1.2zm-.703-1.697A2.4 2.4 0 0 0 12.2 1.4v1.2a1.2 1.2 0 0 1 .849.351l.848-.848zM12.2 1.4H3.8v1.2h8.4V1.4zm-8.4 0a2.4 2.4 0 0 0-1.697.703l.848.848A1.2 1.2 0 0 1 3.8 2.6V1.4zm-1.697.703A2.4 2.4 0 0 0 1.4 3.8h1.2a1.2 1.2 0 0 1 .351-.849l-.848-.848zM4.4 5h2.4V3.8H4.4V5zm7.2 1.2H14V5h-2.4v1.2zM14 9.8h-2.4V11H14V9.8zm-2.4 0A1.8 1.8 0 0 1 9.8 8H8.6a3 3 0 0 0 3 3V9.8zm0-4.8a3 3 0 0 0-3 3h1.2a1.8 1.8 0 0 1 1.8-1.8V5zm1.8-1.2v8.4h1.2V3.8h-1.2zM2.6 12.2V3.8H1.4v8.4h1.2z" fill="#D1D5DB"/>
</svg>
