<svg width="14" height="14" viewBox="0 0 14 14" fill="none" xmlns="http://www.w3.org/2000/svg">
    <path d="M4.572 11.765a5.26 5.26 0 0 0 2.678.735c2.887 0 5.25-2.363 5.25-5.25C12.5 4.362 10.137 2 7.25 2 4.362 2 2 4.362 2 7.25c0 .945.263 1.838.683 2.625L2 12.5l2.572-.735z" stroke="#9CA3AF" stroke-miterlimit="10" stroke-linecap="round" stroke-linejoin="round"/>
    <path d="M10.25 9.149a.762.762 0 0 1-.075.327 1.354 1.354 0 0 1-.697.66 1.51 1.51 0 0 1-.586.114c-.306 0-.634-.072-.98-.219a5.28 5.28 0 0 1-1.033-.594 8.634 8.634 0 0 1-.986-.84 8.527 8.527 0 0 1-.838-.981 5.347 5.347 0 0 1-.589-1.023 2.524 2.524 0 0 1-.216-.981c0-.204.036-.399.108-.579a1.38 1.38 0 0 1 .346-.501c.192-.189.402-.282.625-.282.084 0 .168.018.243.054a.49.49 0 0 1 .201.168l.697.981c.054.075.093.144.12.21a.474.474 0 0 1 .043.183.407.407 0 0 1-.064.213 1.02 1.02 0 0 1-.168.213l-.228.237a.16.16 0 0 0-.048.12c0 .024.003.045.009.069.009.024.018.042.024.06.054.099.147.228.28.384.134.156.279.315.435.474.162.159.318.306.478.441.156.132.285.222.387.276l.054.024a.208.208 0 0 0 .075.012c.051 0 .09-.018.124-.051l.228-.225a.922.922 0 0 1 .216-.168.4.4 0 0 1 .214-.063.48.48 0 0 1 .183.039c.066.027.135.066.21.117l.995.705a.455.455 0 0 1 .165.192c.03.075.048.15.048.234z" fill="#9CA3AF"/>
</svg>
