<svg width="24" height="24" viewBox="0 0 24 24" fill="none" xmlns="http://www.w3.org/2000/svg">
    <path d="M8.445 18.222v1.194a3.555 3.555 0 0 1-1.042 2.514l-.736.736h10.666l-.735-.736a3.555 3.555 0 0 1-1.042-2.514v-1.194M22.666 4v11.555A2.667 2.667 0 0 1 20 18.222H4a2.667 2.667 0 0 1-2.667-2.667V4m21.334 0A2.667 2.667 0 0 0 20 1.333H4A2.667 2.667 0 0 0 1.333 4m21.334 0v8A2.667 2.667 0 0 1 20 14.666H4A2.667 2.667 0 0 1 1.333 12V4" stroke="#6745DF" stroke-width="1.6" stroke-linecap="round" stroke-linejoin="round"/>
</svg>
