<svg width="16" height="16" viewBox="0 0 16 16" fill="none" xmlns="http://www.w3.org/2000/svg">
<g clip-path="url(#clip0_206_62653)">
<rect width="16" height="16" rx="8" fill="#D0D5DD"/>
<path d="M12.9842 9.85133C12.8712 9.85789 12.8389 9.82505 12.8389 9.70683C12.8454 9.10913 12.8422 8.51472 12.8422 7.91702C12.8422 7.64773 12.784 7.39814 12.6355 7.17154C12.3417 6.72819 12.051 6.28156 11.7507 5.8415C11.515 5.49667 11.1792 5.31934 10.7626 5.31934C10.359 5.31934 9.95538 5.31934 9.55175 5.31934C9.19333 5.31934 9.11583 5.39815 9.11583 5.7594C9.11583 7.05988 9.1126 8.36365 9.11906 9.66413C9.11906 9.80206 9.09645 9.85133 8.94469 9.84804C8.38929 9.83819 7.83712 9.84476 7.28172 9.84476C7.15579 9.84476 7.02986 9.84476 6.86517 9.84476C7.07506 10.0517 7.20422 10.2684 7.25266 10.5246C7.26881 10.6034 7.31724 10.5968 7.37214 10.5968C8.09222 10.5968 8.8123 10.5968 9.53561 10.6001C9.62279 10.6001 9.65508 10.564 9.67768 10.4851C9.82622 9.92357 10.2751 9.55905 10.8175 9.55576C11.3697 9.55248 11.825 9.91701 11.9735 10.4851C11.9961 10.5705 12.0284 10.6001 12.1156 10.5968C12.4482 10.5935 12.784 10.5935 13.1166 10.5968C13.2038 10.5968 13.2716 10.5672 13.3298 10.5049C13.3298 10.3078 13.3298 10.1108 13.3298 9.91372C13.2329 9.81848 13.1037 9.84476 12.9842 9.85133ZM11.867 7.35545C11.8282 7.43098 11.7604 7.43755 11.6862 7.43755C11.402 7.43755 11.1146 7.43755 10.8305 7.43755C10.5495 7.43755 10.2718 7.43426 9.9909 7.43755C9.83914 7.44083 9.77779 7.37187 9.77779 7.2208C9.78101 6.9318 9.78101 6.63952 9.77779 6.35053C9.77456 6.20275 9.83268 6.1305 9.98767 6.13378C10.3106 6.14035 10.6335 6.13706 10.9564 6.13378C11.0565 6.13378 11.1275 6.16334 11.1857 6.24872C11.3955 6.56071 11.6087 6.86612 11.825 7.17482C11.867 7.23394 11.9025 7.28648 11.867 7.35545Z" fill="#475467"/>
<path d="M3.17114 9.84766C3.1001 9.84766 3.05166 9.88378 3 9.91991C3 10.1169 3 10.314 3 10.511C3.05489 10.5669 3.11302 10.603 3.19697 10.603C3.73945 10.5997 4.28194 10.603 4.82442 10.603C4.8664 10.603 4.92129 10.6096 4.93098 10.5537C4.97618 10.2844 5.11826 10.0644 5.31201 9.85094C4.57901 9.84766 3.87508 9.85094 3.17114 9.84766Z" fill="#475467"/>
<path d="M10.8336 9.85156C10.3299 9.85156 9.91659 10.2686 9.91982 10.7744C9.92305 11.2768 10.3331 11.6906 10.8272 11.6939C11.3212 11.6972 11.7249 11.29 11.7378 10.7809C11.7507 10.2785 11.3341 9.85156 10.8336 9.85156ZM10.8272 11.2276C10.5818 11.2276 10.3816 11.0141 10.388 10.7612C10.3913 10.5117 10.5882 10.3179 10.8304 10.3179C11.0823 10.3179 11.276 10.5248 11.2696 10.7809C11.2663 11.0273 11.0661 11.2309 10.8272 11.2276Z" fill="#475467"/>
<path d="M6.09672 9.85156C5.58975 9.85156 5.18612 10.2588 5.18935 10.7777C5.19258 11.2801 5.59621 11.6939 6.09349 11.6939C6.58753 11.6939 6.99762 11.2834 7.00085 10.7809C7.00731 10.2654 6.60691 9.85156 6.09672 9.85156ZM6.09026 11.2276C5.85131 11.221 5.65111 11.0141 5.65111 10.7711C5.65111 10.5215 5.85777 10.3113 6.1064 10.3179C6.34535 10.3212 6.54878 10.5281 6.54878 10.7711C6.54878 11.0141 6.32921 11.2341 6.09026 11.2276Z" fill="#475467"/>
<path d="M8.71226 4.94457C8.71226 4.6293 8.62508 4.50779 8.328 4.4027C6.94919 4.4027 5.57039 4.40598 4.19158 4.40598C3.95586 4.40598 3.72014 4.4027 3.48441 4.39941C3.17765 4.46838 3.06464 4.60631 3.06464 4.92158C3.06464 6.33372 3.06464 7.74586 3.06464 9.158C3.06464 9.37803 3.09693 9.41087 3.31973 9.41087C5.03113 9.41087 6.74253 9.41087 8.45394 9.41087C8.68643 9.41087 8.71549 9.38132 8.71549 9.14487C8.71226 7.74586 8.71226 6.34357 8.71226 4.94457Z" fill="#475467"/>
</g>
<defs>
<clipPath id="clip0_206_62653">
<rect width="16" height="16" fill="white"/>
</clipPath>
</defs>
</svg>
