<svg width="17" height="16" viewBox="0 0 17 16" fill="none" xmlns="http://www.w3.org/2000/svg">
<path d="M8.79999 16C6.67826 16 4.64342 15.1571 3.14313 13.6569C1.64284 12.1566 0.799988 10.1217 0.799988 8C0.799988 5.87827 1.64284 3.84344 3.14313 2.34315C4.64342 0.842855 6.67826 -1.22062e-07 8.79999 -3.49691e-07L8.79999 8L8.79999 16Z" fill="#231F20"/>
<path d="M8.79999 16C10.9217 16 12.9566 15.1571 14.4568 13.6569C15.9571 12.1566 16.8 10.1217 16.8 8C16.8 5.87827 15.9571 3.84344 14.4568 2.34315C12.9566 0.842855 10.9217 -1.22062e-07 8.79999 -3.49691e-07L8.79999 8L8.79999 16Z" fill="#231F20"/>
<path d="M10.1921 10.1559H8.25286V5.82695H10.1921V10.1559ZM9.47945 4H6.40002V12H11.1127L12.0308 11.0765V4.92349L11.1073 4H9.47945Z" fill="white"/>
<path d="M6.41162 10.1562H8.24984V11.9949H6.41162V10.1562Z" fill="#E36556"/>
</svg>
