<svg width="24" height="24" viewBox="0 0 24 24" fill="none" xmlns="http://www.w3.org/2000/svg">
<path d="M22.0833 17.4171C22.1016 18.1046 21.9183 18.7555 21.5883 19.3146C21.4049 19.6446 21.1575 19.9472 20.8825 20.1947C20.25 20.7813 19.4158 21.1388 18.4899 21.1663C17.1516 21.1938 15.9691 20.5063 15.3183 19.4522C14.9699 18.9113 14.7591 18.2605 14.75 17.573C14.7225 16.418 15.2358 15.373 16.0608 14.6855C16.6841 14.1721 17.4725 13.8513 18.3341 13.833C20.36 13.7872 22.0375 15.3913 22.0833 17.4171Z" stroke="#4B5563" stroke-width="1.4" stroke-miterlimit="10" stroke-linecap="round" stroke-linejoin="round"/>
<path d="M16.9866 17.5274L17.9124 18.4073L19.8282 16.5557" stroke="#4B5563" stroke-width="1.4" stroke-linecap="round" stroke-linejoin="round"/>
<path d="M3.90576 7.81934L11.9999 12.5035L20.0391 7.84681" stroke="#4B5563" stroke-width="1.4" stroke-linecap="round" stroke-linejoin="round"/>
<path d="M11.9999 20.8083V12.4941" stroke="#4B5563" stroke-width="1.4" stroke-linecap="round" stroke-linejoin="round"/>
<path d="M20.8091 9.40551V14.5939C20.8091 14.6397 20.8091 14.6763 20.8 14.7222C20.1583 14.163 19.3333 13.833 18.4166 13.833C17.5549 13.833 16.7574 14.1355 16.1249 14.6397C15.2816 15.3089 14.7499 16.3447 14.7499 17.4997C14.7499 18.1872 14.9424 18.838 15.2816 19.388C15.3641 19.5347 15.4649 19.6722 15.5749 19.8005L13.8975 20.7264C12.8525 21.313 11.1474 21.313 10.1024 20.7264L5.20745 18.013C4.09828 17.3989 3.1908 15.8589 3.1908 14.5939V9.40551C3.1908 8.14051 4.09828 6.60053 5.20745 5.98636L10.1024 3.27301C11.1474 2.68634 12.8525 2.68634 13.8975 3.27301L18.7925 5.98636C19.9016 6.60053 20.8091 8.14051 20.8091 9.40551Z" stroke="#4B5563" stroke-width="1.4" stroke-linecap="round" stroke-linejoin="round"/>
</svg>
