<svg width="36" height="36" viewBox="0 0 36 36" fill="none" xmlns="http://www.w3.org/2000/svg">
    <circle cx="16" cy="16" r="16" fill="#FFC900"/>
    <path d="M3.2 19.023h7.355l-.427.598H3.2v-.598zm0-1.112h8.189l-.448.6H3.2v-.6zm0-1.112h9.024l-.45.6H3.2v-.6zm7.933 2.822 3.89-5.195h4.833c.536 0 .536.192.257.555-.256.342-.705.963-.984 1.326-.128.192-.384.512.43.512h6.455c-.534.728-2.288 2.824-5.408 2.824-2.525-.022-9.474-.022-9.474-.022z" fill="#F00000"/>
    <path d="m13.87 11.2-1.945 2.586h10.561c.536 0 .536.192.256.557-.256.341-.704.96-.982 1.325-.128.171-.384.512.427.512h4.32l1.283-1.709c.79-1.048.064-3.251-2.758-3.251-2.544-.02-11.162-.02-11.162-.02z" fill="#F00000"/>
    <circle cx="28" cy="28" r="6.857" fill="#2872FF" stroke="#fff" stroke-width="1.714"/>
    <path d="M32.286 30.03v-.902l-3.61-2.255V24.39a.676.676 0 1 0-1.353 0v2.482l-3.609 2.255v.903l3.61-1.128v2.481l-.903.677v.676l1.58-.45 1.578.45v-.676l-.902-.677v-2.481l3.609 1.128z" fill="#fff"/>
</svg>
