<svg width="24" height="24" viewBox="0 0 24 24" fill="none" xmlns="http://www.w3.org/2000/svg">
<circle cx="12" cy="12" r="12" fill="#23C05F"/>
<path d="M13.3359 7.02045C13.9453 7.16107 14.3438 7.74701 14.2266 8.35638L14.1562 8.6142C14.0391 9.24701 13.8047 9.83295 13.5 10.372H16.875C17.4844 10.372 18 10.8876 18 11.497C18 11.9423 17.7422 12.3173 17.3906 12.5048C17.6484 12.7158 17.8125 13.0204 17.8125 13.372C17.8125 13.9345 17.4141 14.3798 16.8984 14.497C16.9922 14.6611 17.0625 14.8486 17.0625 15.0595C17.0625 15.5751 16.7344 15.997 16.2656 16.1376C16.2891 16.2079 16.3125 16.3017 16.3125 16.372C16.3125 17.0048 15.7969 17.497 15.1875 17.497H12.8906C12.4453 17.497 12.0234 17.3798 11.6484 17.122L10.7344 16.5361C10.125 16.1142 9.75 15.4111 9.75 14.6611V12.0595C9.75 11.3564 10.0547 10.7236 10.5938 10.3017L10.7578 10.1611C11.3672 9.64545 11.8125 8.96576 11.9531 8.16888L12 7.91107C12.1406 7.3017 12.7266 6.90326 13.3359 7.02045ZM6.75 10.747H8.25C8.64844 10.747 9 11.0986 9 11.497V16.747C9 17.1689 8.64844 17.497 8.25 17.497H6.75C6.32812 17.497 6 17.1689 6 16.747V11.497C6 11.0986 6.32812 10.747 6.75 10.747Z" fill="white"/>
</svg>
