<svg width="32" height="32" viewBox="0 0 32 32" fill="none" xmlns="http://www.w3.org/2000/svg">
<g clip-path="url(#clip0_8858_143176)">
<path d="M26.3528 10.4461L19.4195 3.51273C19.219 3.3122 18.948 3.2002 18.6654 3.2002H7.46536C6.2867 3.2002 5.33203 4.15486 5.33203 5.33353V27.7335C5.33203 28.9122 6.2867 29.8669 7.46536 29.8669H24.532C25.7107 29.8669 26.6654 28.9122 26.6654 27.7335V11.2002C26.6654 10.9175 26.5534 10.6466 26.3528 10.4461ZM19.1987 11.7335C18.6099 11.7335 18.132 11.2557 18.132 10.6669V5.23113L24.6344 11.7335H19.1987Z" fill="#EE596B"/>
<path d="M9.85547 17.6H11.8715C12.5275 17.6 13.0195 17.776 13.3475 18.128C13.6755 18.48 13.8395 18.996 13.8395 19.676V23.924C13.8395 24.604 13.6755 25.12 13.3475 25.472C13.0195 25.824 12.5275 26 11.8715 26H9.85547V17.6ZM11.8475 24.8C12.0635 24.8 12.2275 24.736 12.3395 24.608C12.4595 24.48 12.5195 24.272 12.5195 23.984V19.616C12.5195 19.328 12.4595 19.12 12.3395 18.992C12.2275 18.864 12.0635 18.8 11.8475 18.8H11.1755V24.8H11.8475Z" fill="white"/>
<path d="M16.6385 26.12C15.9905 26.12 15.4945 25.936 15.1505 25.568C14.8065 25.2 14.6345 24.68 14.6345 24.008V19.592C14.6345 18.92 14.8065 18.4 15.1505 18.032C15.4945 17.664 15.9905 17.48 16.6385 17.48C17.2865 17.48 17.7825 17.664 18.1265 18.032C18.4705 18.4 18.6425 18.92 18.6425 19.592V24.008C18.6425 24.68 18.4705 25.2 18.1265 25.568C17.7825 25.936 17.2865 26.12 16.6385 26.12ZM16.6385 24.92C17.0945 24.92 17.3225 24.644 17.3225 24.092V19.508C17.3225 18.956 17.0945 18.68 16.6385 18.68C16.1825 18.68 15.9545 18.956 15.9545 19.508V24.092C15.9545 24.644 16.1825 24.92 16.6385 24.92Z" fill="white"/>
<path d="M21.3952 26.12C20.7632 26.12 20.2792 25.94 19.9432 25.58C19.6152 25.22 19.4512 24.712 19.4512 24.056V19.544C19.4512 18.888 19.6152 18.38 19.9432 18.02C20.2792 17.66 20.7632 17.48 21.3952 17.48C22.0272 17.48 22.5072 17.66 22.8352 18.02C23.1712 18.38 23.3392 18.888 23.3392 19.544V20.432H22.0912V19.46C22.0912 18.94 21.8712 18.68 21.4312 18.68C20.9912 18.68 20.7712 18.94 20.7712 19.46V24.152C20.7712 24.664 20.9912 24.92 21.4312 24.92C21.8712 24.92 22.0912 24.664 22.0912 24.152V22.868H23.3392V24.056C23.3392 24.712 23.1712 25.22 22.8352 25.58C22.5072 25.94 22.0272 26.12 21.3952 26.12Z" fill="white"/>
</g>
<defs>
<clipPath id="clip0_8858_143176">
<rect width="32" height="32" fill="white"/>
</clipPath>
</defs>
</svg>
