<svg width="20" height="20" viewBox="0 0 20 20" fill="none" xmlns="http://www.w3.org/2000/svg">
<path d="M10 20C15.5228 20 20 15.5228 20 10C20 4.47715 15.5228 0 10 0C4.47715 0 0 4.47715 0 10C0 15.5228 4.47715 20 10 20Z" fill="#E0BAFA"/>
<path d="M13 10.5V15.5H7" fill="#19122D"/>
<path d="M10 9.5C11.3807 9.5 12.5 8.38071 12.5 7C12.5 5.61929 11.3807 4.5 10 4.5C8.61929 4.5 7.5 5.61929 7.5 7C7.5 8.38071 8.61929 9.5 10 9.5Z" fill="#19122D"/>
<path d="M13 10.5L7 15.5V10.5H13Z" fill="url(#paint0_linear_6748_30623)"/>
<defs>
<linearGradient id="paint0_linear_6748_30623" x1="13" y1="13" x2="7" y2="13" gradientUnits="userSpaceOnUse">
<stop stop-color="#E9E800"/>
<stop offset="1" stop-color="#2AEFFF"/>
</linearGradient>
</defs>
</svg>
