<?xml version="1.0" encoding="utf-8"?>
<!-- Generator: Adobe Illustrator 23.0.3, SVG Export Plug-In . SVG Version: 6.00 Build 0)  -->
<svg version="1.1" id="Layer_1" xmlns="http://www.w3.org/2000/svg" xmlns:xlink="http://www.w3.org/1999/xlink" x="0px" y="0px"
	 viewBox="0 0 80 80" style="enable-background:new 0 0 80 80;" xml:space="preserve">
<style type="text/css">
	.st0{fill:url(#SVGID_1_);}
	.st1{fill-rule:evenodd;clip-rule:evenodd;fill:#000088;}
</style>
<g>
	
		<linearGradient id="SVGID_1_" gradientUnits="userSpaceOnUse" x1="17.8767" y1="69.3288" x2="68.8767" y2="6.3288" gradientTransform="matrix(1 0 0 -1 0 82)">
		<stop  offset="0" style="stop-color:#FF9933"/>
		<stop  offset="0.374" style="stop-color:#FFFFFF"/>
		<stop  offset="0.48" style="stop-color:#FFFFFF"/>
		<stop  offset="1" style="stop-color:#128807"/>
	</linearGradient>
	<path class="st0" d="M40,80c22.1,0,40-17.9,40-40S62.1,0,40,0S0,17.9,0,40S17.9,80,40,80z"/>
</g>
<g>
	<path class="st1" d="M29.6,15.5c-1.4,0.8-2.6,1.5-2.7,1.5c-0.1,0,0.3,0.7,1.1,1.8l1.3,1.8l0,1.1l0,1.1l1,1.4c0.6,0.8,1,1.4,1,1.5
		c0,0.1-0.2,0.7-0.4,1.4l-0.4,1.3l-1.1,1.1l-1.1,1.1l-0.6-0.1c-0.3,0-0.8-0.1-1-0.1l-0.5-0.1l-1.3,1.4l-1.3,1.4l0.2,0.4
		c0.1,0.2,0.4,1,0.7,1.9l0.6,1.5L23.6,38c-0.8,0.5-1.6,0.9-1.6,1c-0.1,0.1,1.6,4.8,1.7,4.9c0.1,0.1,3.4,2,3.5,2c0,0,0.3-0.2,0.7-0.5
		c0.8-0.7,0.8-0.6,0.8,1v1.4l2.4,6.4c2.4,6.4,2.4,6.4,2.9,8.8c0.3,1.3,0.6,2.5,0.7,2.5c1.3,0.8,3.2,0.5,4.4-0.6
		c1.7-1.7,3.7-6.8,3.6-9.3c0-1.4,0.9-2.8,2.4-3.5c0.8-0.4,1.5-1.1,2.2-2.4l0.3-0.6l1.7-0.8l1.7-0.8l0.3-0.8c0.3-0.8,0.4-0.8,1.8-2
		c1.3-1.1,1.4-1.3,1.4-1.5c-0.4-1.9-0.7-3.8-0.7-3.8c0,0,0.2-0.1,0.5-0.1l0.4-0.1l0.1,0.4c0,0.2,0.1,0.6,0.1,0.8l0,0.5l2.9,2.4
		l2.9,2.4l0.4-2c0.2-1.1,0.4-2.2,0.5-2.5l0.1-0.5l0.6,0l0.6,0l0.6-2.4l0.6-2.4l2-0.8c1.1-0.4,2-0.8,2-0.8c0,0-0.6-1.3-1.4-2.8
		l-1.4-2.8h-2.3h-2.3l-1.9,1.6c-1.9,1.6-2.3,1.8-3,1.8c-0.1,0-0.8-0.4-1.6-1.1c-0.7-0.6-1.4-1.1-1.4-1c0,0-0.6,0.6-1.2,1.3
		c-0.6,0.7-1.3,1.4-1.4,1.5L49.9,33l-3.6-1.4l-3.6-1.4V29v-1.2l-0.9-1.6c-1.1-1.9-1.1-1.3,0-4.3c0.5-1.4,0.9-2.5,0.9-2.6
		c0,0-0.7-0.7-1.6-1.4l-1.6-1.3l-2.2-0.2l-2.2-0.2l-1.3-1.2c-0.7-0.7-1.3-1.2-1.4-1.2C32.2,14,31,14.7,29.6,15.5z"/>
</g>
</svg>
