<svg width="16" height="16" viewBox="0 0 16 16" fill="none" xmlns="http://www.w3.org/2000/svg">
<circle cx="8" cy="8" r="8" fill="#07287F"/>
<path fill-rule="evenodd" clip-rule="evenodd" d="M12.7157 5.81131C12.4631 5.47447 12.0421 5.22183 11.7052 5.05341C11.2842 4.80078 10.7789 4.80078 10.3578 4.80078C9.26311 4.80078 8.25258 4.80078 7.15785 4.80078C6.73679 4.80078 6.31574 5.05341 5.89469 4.9692C5.72627 4.9692 5.55785 4.9692 5.47364 5.05341C5.72627 5.05341 6.06311 5.05341 6.31574 5.13762C6.48416 5.22183 6.65258 5.22183 6.90521 5.30604L6.821 5.39025C6.48416 5.39025 6.14732 5.64289 5.72627 5.55868C5.55785 5.64289 5.38943 5.55868 5.221 5.64289C5.47364 5.64289 5.64206 5.64289 5.89469 5.64289C6.14732 5.64289 6.39995 5.81131 6.65258 5.81131L6.56837 5.97973C6.39995 5.97973 6.14732 6.06394 5.9789 6.06394C5.72627 6.14815 5.47364 6.14815 5.221 6.14815C5.13679 6.14815 5.05258 6.14815 4.96837 6.23236C5.30521 6.31657 5.64206 6.23236 5.89469 6.31657C6.06311 6.40078 6.23153 6.40078 6.39995 6.48499V6.5692C6.23153 6.5692 6.06311 6.65341 5.89469 6.65341C5.55785 6.82183 5.13679 6.73762 4.79995 6.73762L4.71574 6.82183C4.96837 6.90604 5.30521 6.82183 5.55785 6.90604C5.72627 6.99025 5.9789 7.07447 6.14732 7.07447V7.24289C5.9789 7.15868 5.72627 7.24289 5.55785 7.3271C5.221 7.41131 4.88416 7.3271 4.54732 7.41131V7.49552C4.79995 7.49552 5.05258 7.49552 5.30521 7.49552C5.55785 7.57973 5.72627 7.66394 5.9789 7.66394V7.74815C5.72627 7.83236 5.55785 7.83236 5.30521 7.91657C5.05258 8.00078 4.71574 8.00078 4.3789 8.00078L4.29469 8.08499C4.54732 8.08499 4.88416 8.08499 5.13679 8.08499C5.38942 8.1692 5.55785 8.25341 5.81048 8.25341L5.72627 8.33762C5.47364 8.33762 5.30521 8.42183 5.05258 8.50604C4.71574 8.59026 4.3789 8.50604 4.12627 8.59025V8.67447C4.3789 8.67447 4.71574 8.67447 4.96837 8.67447C5.221 8.75868 5.38943 8.84289 5.64206 8.84289L5.55785 9.01131C5.221 8.9271 4.96837 9.01131 4.71574 9.09552C4.46311 9.17973 4.12627 9.09552 3.87364 9.09552V9.17973C4.21048 9.17973 4.46311 9.17973 4.79995 9.26394C4.96837 9.34815 5.221 9.34815 5.38942 9.34815L5.30521 9.51657C5.05258 9.51657 4.79995 9.60078 4.54732 9.68499C4.29469 9.7692 4.04206 9.68499 3.87364 9.7692C3.78942 9.7692 3.70521 9.7692 3.621 9.85341C3.95785 9.85341 4.29469 9.85341 4.63153 9.93762C4.79995 10.0218 4.96837 10.0218 5.221 10.0218L5.13679 10.106C4.88416 10.106 4.63153 10.1903 4.46311 10.2745C4.12627 10.3587 3.78942 10.2745 3.45258 10.3587C3.45258 10.3587 3.45258 10.3587 3.45258 10.4429C3.78942 10.5271 4.12627 10.4429 4.3789 10.5271C4.54732 10.6113 4.79995 10.6113 4.96837 10.6113L4.88416 10.6955C4.71574 10.6955 4.46311 10.7797 4.21048 10.8639C3.87364 10.9481 3.53679 10.8639 3.19995 10.9481L3.28416 11.0324C3.53679 11.1166 3.87364 11.0324 4.21048 11.1166C4.3789 11.1166 4.63153 11.2008 4.88416 11.2008C6.14732 11.2008 7.32627 11.2008 8.58943 11.2008C9.43153 11.2008 10.2736 11.0324 11.0315 10.6113C11.621 10.1903 12.1263 9.60078 12.4631 8.9271C12.8 8.1692 12.9684 7.41131 12.9684 6.65341C12.9684 6.31657 12.8 6.06394 12.7157 5.81131ZM10.7789 7.24289C10.6105 7.24289 10.4421 7.24289 10.1894 7.3271C9.93679 7.49552 9.59995 7.41131 9.26311 7.49552H9.1789C9.51574 7.57973 9.85258 7.49552 10.1894 7.57973C10.3578 7.66394 10.5263 7.66394 10.6947 7.74815V7.83236C10.4421 7.83236 10.1894 7.91657 9.93679 8.00078C9.59995 8.08499 9.26311 8.00078 8.92627 8.08499C9.26311 8.1692 9.59995 8.08499 9.93679 8.1692C10.1052 8.25341 10.2736 8.33762 10.5263 8.33762L10.4421 8.42183C10.1894 8.42183 9.93679 8.42183 9.76837 8.50604C9.34732 8.67447 9.01048 8.59025 8.67364 8.59025V8.67447C8.84206 8.67447 9.09469 8.67447 9.26311 8.67447C9.51574 8.67447 9.76837 8.84289 10.1052 8.84289C10.1052 8.9271 10.021 9.01131 9.93679 9.01131C9.68416 9.01131 9.43153 9.01131 9.26311 9.09552C8.92627 9.26394 8.58943 9.17973 8.25258 9.26394C8.58943 9.26394 9.01048 9.26394 9.34732 9.34815C9.01048 9.51657 8.75785 9.51657 8.421 9.51657C8.16837 9.51657 7.91574 9.51657 7.66311 9.51657C8.08416 8.50604 8.421 7.41131 8.84206 6.40078C9.43153 6.40078 10.1052 6.31657 10.6105 6.65341C10.3578 6.73762 10.1052 6.73762 9.93679 6.82183C9.68416 6.82183 9.43153 6.82183 9.1789 6.82183L9.01048 6.90604C9.34732 6.90604 9.68416 6.90604 9.93679 6.99025C10.1894 7.07447 10.4421 7.15868 10.7789 7.15868V7.24289Z" fill="white"/>
</svg>
