<svg width="20" height="20" viewBox="0 0 20 20" fill="none" xmlns="http://www.w3.org/2000/svg">
<g clip-path="url(#clip0_2_86326)">
<rect width="20" height="20" rx="10" fill="#EFF1F4"/>
<path fill-rule="evenodd" clip-rule="evenodd" d="M6.89756 11.4901C6.41845 12.4776 5.93934 13.4651 5.45967 14.4524C5.45336 14.4654 5.44742 14.4788 5.44136 14.4924C5.40832 14.5668 5.37145 14.6497 5.24901 14.7377C5.26753 14.6056 5.2848 14.4804 5.30143 14.3598C5.3334 14.128 5.36304 13.9131 5.39482 13.6983C5.55879 12.584 5.72392 11.47 5.88905 10.3561C5.92886 10.0875 5.96867 9.81894 6.00846 9.55038C6.06132 9.19368 6.11407 8.83695 6.16683 8.48021C6.33594 7.33669 6.50507 6.19309 6.67757 5.05001C6.73124 4.69712 6.86005 4.58531 7.21473 4.58486C7.4395 4.58444 7.66427 4.5839 7.88904 4.58335C9.09462 4.58044 10.3002 4.57752 11.5058 4.59336C12.1221 4.60141 12.7053 4.78926 13.2671 5.04375C13.4058 5.10673 13.3654 5.1763 13.324 5.24774C13.316 5.26153 13.3079 5.2754 13.3011 5.2893C12.9306 6.05133 12.5598 6.81309 12.189 7.5748C11.879 8.21155 11.5691 8.84827 11.2593 9.48508C11.2299 9.54599 11.2011 9.60731 11.1724 9.66866C11.1349 9.74877 11.0973 9.82891 11.0581 9.90819C10.9507 10.1251 10.9006 10.1376 10.7132 9.97752C10.3367 9.6559 9.9615 9.33281 9.58623 9.0097C9.41404 8.86144 9.24186 8.71319 9.06953 8.56506C9.00737 8.51184 8.9452 8.45861 8.88168 8.40673C8.61243 8.18712 8.48899 8.21172 8.33557 8.52749C7.85586 9.51487 7.37671 10.5025 6.89756 11.4901ZM13.2088 9.61325C13.7935 8.8043 14.3781 7.99535 14.9631 7.18652C15.1648 6.90787 15.2538 6.91771 15.3925 7.24019C16.0316 8.72332 15.9663 10.2172 15.3335 11.6645C14.4398 13.7076 12.9057 15.0338 10.6976 15.5213C10.3626 15.5955 10.0195 15.6179 9.67691 15.621C9.22744 15.6251 8.77774 15.6243 8.32814 15.6235C8.14423 15.6231 7.96034 15.6228 7.77649 15.6228H5.8537C5.8393 15.6228 5.82491 15.623 5.81052 15.6231C5.76503 15.6236 5.71965 15.6241 5.67479 15.6197C5.25929 15.5776 5.18236 15.4202 5.4212 15.0874C6.5067 13.5743 7.59356 12.0617 8.68085 10.5499C8.87005 10.287 8.97739 10.2811 9.22025 10.4949C9.82943 11.0316 10.4413 11.5661 11.0536 12.0993C11.2513 12.271 11.2929 12.2639 11.4543 12.0402C12.0394 11.2313 12.6241 10.4223 13.2088 9.61325Z" fill="url(#paint0_linear_2_86326)"/>
</g>
<defs>
<linearGradient id="paint0_linear_2_86326" x1="5.50972" y1="5.11545" x2="16.4212" y2="5.59519" gradientUnits="userSpaceOnUse">
<stop stop-color="#05FBA8"/>
<stop offset="1" stop-color="#44B6F0"/>
</linearGradient>
<clipPath id="clip0_2_86326">
<rect width="20" height="20" fill="white"/>
</clipPath>
</defs>
</svg>
