<svg width="16" height="16" viewBox="0 0 16 16" fill="none" xmlns="http://www.w3.org/2000/svg">
<path d="M8 16C5.87827 16 3.84344 15.1571 2.34315 13.6569C0.842854 12.1566 -2.82249e-07 10.1217 -3.49691e-07 8C-4.17134e-07 5.87827 0.842854 3.84344 2.34315 2.34315C3.84344 0.842855 5.87827 -1.22062e-07 8 -3.49691e-07L8 8L8 16Z" fill="#D8000C"/>
<path d="M8 16C10.1217 16 12.1566 15.1571 13.6569 13.6569C15.1571 12.1566 16 10.1217 16 8C16 5.87827 15.1571 3.84344 13.6569 2.34315C12.1566 0.842855 10.1217 -1.22062e-07 8 -3.49691e-07L8 8L8 16Z" fill="#2F3B89"/>
<path d="M4.79999 5.50336H5.3369V12H10.8134V10.0671H9.31006V10.4966H6.84026V8.77852H9.36375V7.22148H6.84026V5.50336H9.31006V5.93289H10.8134V4H4.79999V5.50336Z" fill="white"/>
</svg>
