<svg width="36" height="36" viewBox="0 0 36 36" fill="none" xmlns="http://www.w3.org/2000/svg">
    <circle cx="16" cy="16" r="16" fill="#2A75C9"/>
    <path d="M12.124 17.959h7.681c1.55 0 2.471-.897 3.01-1.795.45-.766.674-1.663.674-2.539v-3.502c0-.766-.45-1.27-.943-1.598A3.508 3.508 0 0 0 20.704 8h-9.928c-.83 0-1.325.482-1.617.963-.247.438-.36.92-.36 1.4v11.383c0 1.203 1.146 1.838 1.798 2.1.27.11.539.154.808.154h12.017v-2.955H12.573c-.539 0-.472-.46-.472-.46V17.96h.023zm.022-6.85h7.75s.426.021.426.415v1.51c0 .504-.157.985-.494 1.357-.202.22-.45.394-.764.394H12.17v-3.677h-.023z" fill="#fff"/>
    <circle cx="28" cy="28" r="6.857" fill="#2872FF" stroke="#fff" stroke-width="1.714"/>
    <path d="M32.286 30.03v-.902l-3.61-2.255V24.39a.676.676 0 1 0-1.353 0v2.482l-3.609 2.255v.903l3.61-1.128v2.481l-.903.677v.676l1.58-.45 1.578.45v-.676l-.902-.677v-2.481l3.609 1.128z" fill="#fff"/>
</svg>
