<svg width="17" height="16" viewBox="0 0 17 16" fill="none" xmlns="http://www.w3.org/2000/svg">
<circle cx="8.19995" cy="8" r="8" fill="#2A75C9"/>
<path d="M6.26205 8.97948H10.1028C10.8777 8.97948 11.3381 8.53078 11.6076 8.08208C11.8322 7.69904 11.9445 7.25034 11.9445 6.81259V5.06156C11.9445 4.67852 11.7199 4.42681 11.4729 4.26265C11.1921 4.08755 10.8664 4 10.552 4H5.58823C5.17272 4 4.92565 4.24077 4.77966 4.48153C4.65613 4.70041 4.59998 4.94118 4.59998 5.18194V10.8728C4.59998 11.4747 5.17272 11.7921 5.49839 11.9234C5.63316 11.9781 5.76792 12 5.90268 12H11.9108V10.5226H6.48665C6.21713 10.5226 6.25082 10.2927 6.25082 10.2927V8.97948H6.26205ZM6.27328 5.55404H10.1477C10.1477 5.55404 10.3611 5.56498 10.3611 5.76197V6.5171C10.3611 6.76881 10.2825 7.00958 10.114 7.19562C10.0129 7.30506 9.88941 7.39261 9.73219 7.39261H6.28451V7.29412V5.55404H6.27328Z" fill="white"/>
</svg>
