<svg width="17" height="16" viewBox="0 0 17 16" fill="none" xmlns="http://www.w3.org/2000/svg">
<path d="M8.40002 16C6.27829 16 4.24346 15.1571 2.74317 13.6569C1.24288 12.1566 0.400025 10.1217 0.400025 8C0.400025 5.87827 1.24288 3.84344 2.74317 2.34315C4.24346 0.842855 6.27829 -1.22062e-07 8.40002 -3.49691e-07L8.40002 8L8.40002 16Z" fill="#461B87"/>
<path d="M8.40002 16C10.5218 16 12.5566 15.1571 14.0569 13.6569C15.5572 12.1566 16.4 10.1217 16.4 8C16.4 5.87827 15.5572 3.84344 14.0569 2.34315C12.5566 0.842855 10.5218 -1.22062e-07 8.40003 -3.49691e-07L8.40002 8L8.40002 16Z" fill="#EB6B2D"/>
<path d="M10.8433 6.12094H8.48332V7.38094H10.6333V9.04094H8.48332V12.0009H6.52332V4.46094H10.8433V6.12094Z" fill="white"/>
</svg>
