<svg width="25" height="24" viewBox="0 0 25 24" fill="none" xmlns="http://www.w3.org/2000/svg">
    <path d="M10.531 18h3.665c3.055 0 4.277-1.2 4.277-4.2v-3.6c0-3-1.222-4.2-4.276-4.2H10.53c-3.055 0-4.276 1.2-4.276 4.2v3.6c0 3 1.221 4.2 4.276 4.2z" stroke="#575F6C" stroke-linecap="round" stroke-linejoin="round"/>
    <path d="M14.545 15.9v-1.34M14.545 9.27V8.1M14.545 12.39c.877 0 1.588-.698 1.588-1.56 0-.862-.711-1.56-1.588-1.56-.878 0-1.589.698-1.589 1.56 0 .862.711 1.56 1.589 1.56zM10.183 15.9v-1.17M10.183 11.44V8.1M10.183 14.73c.877 0 1.588-.699 1.588-1.56 0-.862-.71-1.56-1.588-1.56-.877 0-1.589.698-1.589 1.56 0 .861.712 1.56 1.589 1.56z" stroke="#575F6C" stroke-miterlimit="10" stroke-linecap="round" stroke-linejoin="round"/>
</svg>
