<svg width="137" height="16" viewBox="0 0 137 16" fill="none" xmlns="http://www.w3.org/2000/svg">
    <path d="M26.086 9.824V13h-.984V4.598h2.308c.899 0 1.594.218 2.086.656.496.437.744 1.055.744 1.851 0 .797-.275 1.45-.826 1.957-.547.508-1.287.762-2.22.762h-1.108zm0-4.336v3.446h1.031c.68 0 1.197-.155 1.553-.463.36-.313.539-.752.539-1.319 0-1.109-.656-1.664-1.969-1.664h-1.154zm7.676 7.653c-.887 0-1.596-.28-2.127-.838-.528-.563-.791-1.307-.791-2.233 0-1.008.275-1.795.826-2.361.55-.566 1.295-.85 2.232-.85.895 0 1.592.276 2.092.827.504.55.756 1.314.756 2.29 0 .958-.272 1.725-.815 2.303-.538.575-1.263.862-2.173.862zm.07-5.473c-.617 0-1.105.21-1.465.633-.36.418-.539.996-.539 1.734 0 .711.182 1.272.545 1.682.363.41.85.615 1.459.615.621 0 1.098-.201 1.43-.604.336-.402.504-.974.504-1.716 0-.75-.168-1.328-.504-1.735-.332-.406-.809-.609-1.43-.609zM45.844 7l-1.8 6h-.995l-1.236-4.295a2.795 2.795 0 0 1-.094-.557h-.024c-.011.141-.052.323-.123.545L40.23 13h-.96l-1.817-6h1.008l1.242 4.512c.04.136.066.316.082.539h.047c.012-.172.047-.356.105-.551L41.32 7h.88l1.241 4.523c.04.145.069.325.088.54h.047c.008-.153.041-.333.1-.54L44.894 7h.95zm5.935 3.24h-4.236c.016.668.195 1.184.539 1.547.344.363.816.545 1.418.545.676 0 1.297-.223 1.863-.668v.902c-.527.383-1.224.575-2.091.575-.848 0-1.514-.272-1.999-.815-.484-.547-.726-1.314-.726-2.303 0-.933.264-1.693.79-2.279.532-.59 1.19-.885 1.975-.885.786 0 1.393.254 1.823.762.43.508.644 1.213.644 2.115v.504zm-.984-.814c-.004-.555-.139-.987-.404-1.295-.262-.309-.627-.463-1.096-.463-.453 0-.838.162-1.154.486-.317.325-.512.748-.586 1.272h3.24zm5.572-1.453c-.168-.13-.41-.194-.726-.194-.41 0-.754.194-1.032.58-.273.387-.41.914-.41 1.582V13h-.96V7h.96v1.236h.024c.136-.422.345-.75.627-.984.28-.238.595-.357.943-.357.25 0 .441.027.574.082v.996zm5.865 2.267h-4.236c.016.668.195 1.184.54 1.547.343.363.816.545 1.417.545.676 0 1.297-.223 1.863-.668v.902c-.527.383-1.224.575-2.091.575-.848 0-1.514-.272-1.998-.815-.485-.547-.727-1.314-.727-2.303 0-.933.264-1.693.791-2.279.531-.59 1.19-.885 1.975-.885.785 0 1.392.254 1.822.762.43.508.644 1.213.644 2.115v.504zm-.984-.814c-.004-.555-.139-.987-.404-1.295-.262-.309-.627-.463-1.096-.463-.453 0-.838.162-1.154.486-.317.325-.512.748-.586 1.272h3.24zM68.813 13h-.961v-1.02h-.024c-.445.774-1.133 1.16-2.062 1.16-.754 0-1.358-.267-1.81-.802-.45-.54-.675-1.272-.675-2.197 0-.993.25-1.787.75-2.385.5-.598 1.166-.897 1.998-.897.825 0 1.424.325 1.8.973h.023V4.117h.96V13zm-.961-2.713v-.885c0-.484-.16-.894-.48-1.23-.321-.336-.728-.504-1.22-.504-.586 0-1.046.215-1.383.644-.335.43-.503 1.024-.503 1.782 0 .691.16 1.238.48 1.64.324.399.758.598 1.3.598.536 0 .97-.193 1.302-.58.336-.387.504-.875.504-1.465zm7.183 1.846h-.023V13h-.961V4.117h.96v3.938h.024c.473-.797 1.164-1.196 2.074-1.196.77 0 1.372.27 1.805.809.438.535.656 1.254.656 2.156 0 1.004-.244 1.809-.732 2.414-.488.602-1.156.903-2.004.903-.793 0-1.393-.336-1.799-1.008zm-.023-2.42v.838c0 .496.16.918.48 1.265.324.344.735.516 1.23.516.583 0 1.038-.223 1.366-.668.332-.445.498-1.064.498-1.857 0-.668-.154-1.192-.463-1.57-.309-.38-.727-.569-1.254-.569-.558 0-1.008.195-1.347.586-.34.387-.51.873-.51 1.459zM85.88 7l-2.76 6.96c-.492 1.243-1.183 1.864-2.074 1.864-.25 0-.46-.025-.627-.076v-.861c.207.07.396.105.568.105.485 0 .848-.289 1.09-.867l.48-1.137L80.216 7h1.066l1.623 4.617c.02.059.06.211.123.457h.035a6.84 6.84 0 0 1 .118-.445L84.885 7h.996zm10.254 5.648c-.633.329-1.42.493-2.362.493-1.218 0-2.195-.385-2.93-1.155-.734-.77-1.1-1.779-1.1-3.029 0-1.344.411-2.43 1.236-3.258.828-.828 1.873-1.242 3.134-1.242.813 0 1.487.115 2.022.346v1.383a3.607 3.607 0 0 0-1.875-.504c-.91 0-1.649.29-2.215.873-.563.582-.844 1.36-.844 2.332 0 .925.264 1.664.791 2.215.527.546 1.22.82 2.08.82.793 0 1.48-.188 2.063-.563v1.29zm6.773.352h-1.359V9.719c0-1.188-.397-1.781-1.19-1.781-.398 0-.734.171-1.007.515-.274.344-.41.783-.41 1.318V13h-1.366V4.117h1.365v3.88h.024c.453-.759 1.101-1.138 1.945-1.138 1.332 0 1.998.815 1.998 2.444V13zm6.258 0h-1.318v-.938h-.024c-.414.72-1.021 1.079-1.822 1.079-.59 0-1.053-.16-1.389-.48-.332-.321-.498-.745-.498-1.272 0-1.133.653-1.793 1.957-1.98l1.782-.253c0-.855-.407-1.283-1.219-1.283-.715 0-1.36.246-1.934.738v-1.19c.633-.374 1.363-.562 2.192-.562 1.515 0 2.273.746 2.273 2.239V13zm-1.312-2.947-1.26.175c-.391.051-.686.147-.885.288-.195.136-.293.379-.293.726 0 .254.09.463.27.627.183.16.427.24.732.24a1.34 1.34 0 0 0 1.025-.433c.274-.293.411-.66.411-1.102v-.521zm6.14 2.882c-.265.133-.615.2-1.049.2-1.164 0-1.746-.559-1.746-1.676V8.066h-1.002V7h1.002V5.611l1.36-.386V7h1.435v1.066h-1.435v3c0 .356.064.61.193.762.129.152.344.229.644.229.231 0 .43-.067.598-.2v1.079zm7.881-.51c-.875.477-1.85.716-2.924.716-1.242 0-2.248-.387-3.017-1.16-.77-.774-1.155-1.797-1.155-3.07 0-1.302.42-2.368 1.26-3.2.844-.836 1.914-1.254 3.211-1.254.934 0 1.719.137 2.355.41v1.436c-.644-.43-1.412-.645-2.302-.645-.895 0-1.629.295-2.203.885-.571.59-.856 1.353-.856 2.291 0 .965.246 1.725.738 2.28.493.55 1.161.825 2.004.825.578 0 1.078-.11 1.5-.334V9.607h-1.769V8.436h3.158v3.99zm3.199-2.472V13h-1.388V4.598h2.548c.965 0 1.713.224 2.245.673.531.45.796 1.083.796 1.899 0 .816-.277 1.484-.832 2.004-.554.52-1.304.78-2.25.78h-1.119zm0-4.207v3.07h.903c.597 0 1.052-.138 1.365-.416.312-.277.469-.668.469-1.171 0-.989-.575-1.483-1.723-1.483h-1.014zm11.022.035h-2.414V13h-1.395V5.781h-2.408V4.598h6.217V5.78z" fill="#808B98"/>
    <g clip-path="url(#yj1jq9hyha)">
        <path d="M14.853 6.549a3.986 3.986 0 0 0-.342-3.274 4.031 4.031 0 0 0-4.342-1.934A3.987 3.987 0 0 0 7.162 0a4.032 4.032 0 0 0-3.846 2.79A3.988 3.988 0 0 0 .651 4.725a4.032 4.032 0 0 0 .496 4.727 3.986 3.986 0 0 0 .342 3.274 4.031 4.031 0 0 0 4.342 1.934A3.984 3.984 0 0 0 8.838 16a4.032 4.032 0 0 0 3.847-2.793 3.988 3.988 0 0 0 2.665-1.934 4.033 4.033 0 0 0-.496-4.725h-.001zm-6.014 8.405a2.989 2.989 0 0 1-1.92-.694c.025-.013.067-.036.095-.053l3.186-1.84a.518.518 0 0 0 .262-.454V7.422l1.347.777a.047.047 0 0 1 .026.037v3.72a3.002 3.002 0 0 1-2.996 2.998zm-6.442-2.751a2.986 2.986 0 0 1-.358-2.01l.095.057 3.186 1.84a.519.519 0 0 0 .523 0l3.89-2.246V11.4a.05.05 0 0 1-.019.042l-3.22 1.86a3.002 3.002 0 0 1-4.097-1.098zm-.839-6.955A2.988 2.988 0 0 1 3.12 3.934l-.002.11v3.68a.518.518 0 0 0 .262.453l3.89 2.246-1.347.777a.048.048 0 0 1-.046.004l-3.22-1.86a3.002 3.002 0 0 1-1.098-4.095zm11.063 2.575L8.732 5.577l1.347-.777a.048.048 0 0 1 .045-.004l3.221 1.86a3 3 0 0 1-.463 5.41v-3.79a.518.518 0 0 0-.26-.453zm1.34-2.017a4.322 4.322 0 0 0-.094-.057l-3.186-1.84a.519.519 0 0 0-.523 0l-3.89 2.246V4.6a.05.05 0 0 1 .019-.041L9.507 2.7a2.998 2.998 0 0 1 4.454 3.105zM5.536 8.577 4.189 7.8a.047.047 0 0 1-.026-.037v-3.72A2.999 2.999 0 0 1 9.08 1.74a2.235 2.235 0 0 0-.094.054L5.8 3.634a.517.517 0 0 0-.262.453l-.002 4.49zM6.267 7 8 6l1.732 1v2L8 10 6.267 9V7z" fill="#808B98"/>
    </g>
    <defs>
        <clipPath id="yj1jq9hyha">
            <path fill="#fff" d="M0 0h16v16H0z"/>
        </clipPath>
    </defs>
</svg>
