<svg width="20" height="20" viewBox="0 0 20 20" fill="none" xmlns="http://www.w3.org/2000/svg">
    <circle cx="4.349" cy="8.136" r="1.409" stroke="#3C4249" stroke-width="1.2" stroke-linecap="round" stroke-linejoin="round"/>
    <path d="M14.682 10.015h1.461c.75 0 1.357-.612 1.357-1.366V3.866c0-.754-.607-1.366-1.357-1.366H6.645c-.75 0-1.357.612-1.357 1.366v.982M8.106 5.318h6.576M8.106 7.667h3.758M10.924 12.364l2.349-3.288M2 18v-4.697a2.349 2.349 0 0 1 2.348-2.349c1.298 0 2.344 1.118 2.344 2.415l2.065-1.21a1.477 1.477 0 1 1 1.494 2.548l-2.754 1.614a1.477 1.477 0 0 1-2.022-.528l-.563-1.01M6.697 18l-.005-1.477" stroke="#3C4249" stroke-width="1.2" stroke-linecap="round" stroke-linejoin="round"/>
</svg>
