<svg width="16" height="16" viewBox="0 0 16 16" fill="none" xmlns="http://www.w3.org/2000/svg">
    <path d="M14 10v2a2 2 0 0 1-2 2h-.666M2 6V4a2 2 0 0 1 2-2h.667" stroke="#3C4249" stroke-width="1.2" stroke-linecap="round" stroke-linejoin="round"/>
    <path clip-rule="evenodd" d="M6.667 3.5v3a1.5 1.5 0 0 0 1.5 1.5H12.5A1.5 1.5 0 0 0 14 6.5v-3A1.5 1.5 0 0 0 12.5 2H8.167a1.5 1.5 0 0 0-1.5 1.5z" stroke="#3C4249" stroke-width="1.2" stroke-linecap="round" stroke-linejoin="round"/>
    <path d="m2 13.333.77.386c.37.185.779.281 1.193.281h4.37a1 1 0 0 0 1-1v0a1 1 0 0 0-1-1H5.667" stroke="#3C4249" stroke-width="1.2" stroke-linecap="round" stroke-linejoin="round"/>
    <path d="M2 8.667h1.942c.289 0 .57.093.8.266l1.492 1.119a1.082 1.082 0 0 1 .116 1.631v0c-.381.38-.984.424-1.415.1l-.935-.7" stroke="#3C4249" stroke-width="1.2" stroke-linecap="round" stroke-linejoin="round"/>
    <circle cx="10.333" cy="5" r="1.083" stroke="#3C4249" stroke-width="1.2" stroke-linecap="round" stroke-linejoin="round"/>
</svg>
