<svg width="16" height="16" viewBox="0 0 16 16" fill="none" xmlns="http://www.w3.org/2000/svg">
    <path d="m2 13.333.77.386c.37.185.779.28 1.193.28h4.37a1 1 0 0 0 1-1v0a1 1 0 0 0-1-1H5.667" stroke="#3C4249" stroke-width="1.2" stroke-linecap="round" stroke-linejoin="round"/>
    <path d="M2 8.667h1.942c.289 0 .57.093.8.266l1.492 1.119a1.082 1.082 0 0 1 .116 1.631v0c-.381.38-.984.424-1.415.1l-.935-.7M11.333 12H12a2 2 0 0 0 2-2V4a2 2 0 0 0-2-2H4a2 2 0 0 0-2 2v2.667M14 5.333H2" stroke="#3C4249" stroke-width="1.2" stroke-linecap="round" stroke-linejoin="round"/>
</svg>
