<svg width="24" height="20" viewBox="0 0 24 20" fill="none" xmlns="http://www.w3.org/2000/svg">
    <path d="M6 8.398c1.324 0 2.4-1.077 2.4-2.4 0-1.324-1.076-2.4-2.4-2.4a2.403 2.403 0 0 0-2.4 2.4c0 1.323 1.077 2.4 2.4 2.4z" fill="#808B98"/>
    <path d="M21 0H3C1.347 0 0 1.347 0 3v13.2c0 1.654 1.347 3 3 3h18c1.654 0 3-1.346 3-3V3c0-1.653-1.346-3-3-3zM3 2.4h18a.6.6 0 0 1 .6.6v8.519l-3.79-4.423c-.403-.472-.985-.724-1.61-.738a2.097 2.097 0 0 0-1.603.757l-4.457 5.35-1.452-1.449a2.106 2.106 0 0 0-2.976 0L2.4 14.326V3a.6.6 0 0 1 .6-.6z" fill="#808B98"/>
</svg>
