<svg width="24" height="24" viewBox="0 0 24 24" fill="none" xmlns="http://www.w3.org/2000/svg">
    <path d="M16.088 12.97a4.09 4.09 0 1 0-5.504 3.837.916.916 0 0 0-.018.175v2.038c0 .522.427.949.95.949h1.004c.522 0 .949-.427.949-.95v-2.037a.942.942 0 0 0-.02-.19 4.089 4.089 0 0 0 2.638-3.822h.001zM16.33 17.311l1.155 1.178M17.992 12.89H20M12.001 6.866V5M16.207 8.611l1.289-1.289M7.671 17.311 6.516 18.49M6.008 12.89H4M7.793 8.611l-1.29-1.289" stroke="#3C4249" stroke-linecap="round" stroke-linejoin="round"/>
</svg>
