<svg width="24" height="24" viewBox="0 0 24 24" fill="none" xmlns="http://www.w3.org/2000/svg">
    <path clip-rule="evenodd" d="M10 10.447h4c.55 0 1 .45 1 1V14.5a1 1 0 0 1-1 1h-4a1 1 0 0 1-1-1v-3.053a1 1 0 0 1 1-1z" stroke="#1D252B" stroke-width="1.4" stroke-linecap="round" stroke-linejoin="round"/>
    <path d="M10.316 10.447V9.184a1.684 1.684 0 0 1 3.368 0v1.261" stroke="#1D252B" stroke-width="1.4" stroke-linecap="round" stroke-linejoin="round"/>
    <path clip-rule="evenodd" d="m5.973 5.067 5.342-1.946a2 2 0 0 1 1.369 0l5.342 1.946A3 3 0 0 1 20 7.887v4.871c0 3.581-1.828 5.05-7.005 7.981a2.022 2.022 0 0 1-1.99 0C5.828 17.81 4 16.34 4 12.76V7.885a3 3 0 0 1 1.973-2.819z" stroke="#1D252B" stroke-width="1.4" stroke-linecap="round" stroke-linejoin="round"/>
</svg>
