<svg width="20" height="20" viewBox="0 0 20 20" fill="none" xmlns="http://www.w3.org/2000/svg">
<g clip-path="url(#clip0_6707_30632)">
<g filter="url(#filter0_i_6707_30632)">
<path d="M10 20C15.5228 20 20 15.5228 20 10C20 4.47715 15.5228 0 10 0C4.47715 0 0 4.47715 0 10C0 15.5228 4.47715 20 10 20Z" fill="url(#paint0_linear_6707_30632)"/>
</g>
<path d="M9.5 27.5C28.5 30.5 26.5 8.52285 26.5 3C26.5 -2.52285 3.02285 -5 -2.5 -5C-8.02285 -5 -12 4.47715 -12 10C-12 15.5228 3.97715 27.5 9.5 27.5Z" fill="#B4A6FF"/>
<path d="M7.5 5.5V10.5H12.5" fill="#19122D"/>
<path d="M10 11.5C8.3425 11.5 7 12.8425 7 14.5H13C13 12.8425 11.6575 11.5 10 11.5Z" fill="#19122D"/>
<path d="M7.5 5.5L12.5 10.5V5.5H7.5Z" fill="url(#paint1_linear_6707_30632)"/>
</g>
<defs>
<filter id="filter0_i_6707_30632" x="0" y="0" width="20" height="21" filterUnits="userSpaceOnUse" color-interpolation-filters="sRGB">
<feFlood flood-opacity="0" result="BackgroundImageFix"/>
<feBlend mode="normal" in="SourceGraphic" in2="BackgroundImageFix" result="shape"/>
<feColorMatrix in="SourceAlpha" type="matrix" values="0 0 0 0 0 0 0 0 0 0 0 0 0 0 0 0 0 0 127 0" result="hardAlpha"/>
<feOffset dy="1"/>
<feGaussianBlur stdDeviation="0.5"/>
<feComposite in2="hardAlpha" operator="arithmetic" k2="-1" k3="1"/>
<feColorMatrix type="matrix" values="0 0 0 0 0.286875 0 0 0 0 0.396445 0 0 0 0 0.6375 0 0 0 0.8 0"/>
<feBlend mode="normal" in2="shape" result="effect1_innerShadow_6707_30632"/>
</filter>
<linearGradient id="paint0_linear_6707_30632" x1="10" y1="0" x2="10" y2="20" gradientUnits="userSpaceOnUse">
<stop stop-color="#101F41"/>
<stop offset="0.78125" stop-color="#45557B"/>
</linearGradient>
<linearGradient id="paint1_linear_6707_30632" x1="7.5" y1="8" x2="12.5" y2="8" gradientUnits="userSpaceOnUse">
<stop stop-color="#88FFEF"/>
<stop offset="1" stop-color="#DDFFA5"/>
</linearGradient>
<clipPath id="clip0_6707_30632">
<rect width="20" height="20" fill="white"/>
</clipPath>
</defs>
</svg>
