<?xml version="1.0" encoding="utf-8"?>
<!-- Generator: Adobe Illustrator 23.0.3, SVG Export Plug-In . SVG Version: 6.00 Build 0)  -->
<svg version="1.1" id="Layer_1" xmlns="http://www.w3.org/2000/svg" xmlns:xlink="http://www.w3.org/1999/xlink" x="0px" y="0px"
	 viewBox="0 0 80 80" style="enable-background:new 0 0 80 80;" xml:space="preserve">
<style type="text/css">
	.st0{fill:url(#SVGID_1_);}
	.st1{fill-rule:evenodd;clip-rule:evenodd;fill:url(#SVGID_2_);}
</style>
<g>
	
		<linearGradient id="SVGID_1_" gradientUnits="userSpaceOnUse" x1="40" y1="82" x2="40" y2="2" gradientTransform="matrix(1 0 0 -1 0 82)">
		<stop  offset="0" style="stop-color:#3292D3"/>
		<stop  offset="0.7812" style="stop-color:#005C9B"/>
	</linearGradient>
	<path class="st0" d="M40,80c22.1,0,40-17.9,40-40S62.1,0,40,0S0,17.9,0,40S17.9,80,40,80z"/>
</g>
<g>
	
		<linearGradient id="SVGID_2_" gradientUnits="userSpaceOnUse" x1="30.3471" y1="63.0715" x2="51.3471" y2="17.0715" gradientTransform="matrix(1 0 0 -1 0 82)">
		<stop  offset="0" style="stop-color:#FFFFFF"/>
		<stop  offset="1" style="stop-color:#156AB7"/>
	</linearGradient>
	<path class="st1" d="M39,16.1c-4.4,0.3-8.4,1.7-12,4.1l-0.8,0.5l0.7,0c0.4,0,0.7,0.1,0.8,0.2c0.1,0.1,0.4,0.2,0.7,0.2
		c0.5,0.1,0.6,0.2,0.6,0.3c0,0.2,1.6,0.4,1.6,0.2c0-0.3-0.2-0.4-0.7-0.4c-0.7,0-0.9-0.1-0.8-0.3c0.2-0.3,0-0.5-0.6-0.5l-0.6,0
		l0.7-0.5c0.7-0.5,0.7-0.5,1.4-0.5h0.7l0.3,0.4c0.5,0.6,1.2,0.7,1.7,0.2c0.3-0.3,0.4-0.3,0.6-0.2c0.5,0.3-0.4,1.1-1.2,1.1
		c-0.5,0-0.6,0-0.5,0.2c0,0.1,0.1,0.3,0.1,0.4v0.3h0.8c0.7,0,0.8,0,0.9-0.2c0.1-0.2,0.2-0.2,0.6-0.3c0.6,0,0.9-0.6,0.4-0.7
		c-0.3,0-0.4-0.3-0.1-0.6c0.2-0.2,0.9-0.3,1.6-0.1l0.3,0.1l-0.4,0.4c-0.4,0.4-0.5,0.7-0.3,1c0,0,0.2,0,0.5,0.1l0.5,0.1v-0.6v-0.6
		l0.5-0.2c0.3-0.1,0.8-0.3,1.2-0.3l0.7-0.1l1.2,0.5l1.2,0.5v0.5c0,0.4,0,0.5,0.3,0.5c0.4,0.1,0.4,0.1,0.1,0.5
		c-0.2,0.3-0.2,0.3-0.7,0.3c-0.5,0-0.5,0-0.7,0.4l-0.1,0.4l-1-0.2c-1.3-0.3-1.3-0.3-0.3-0.9l0.9-0.5l-0.4-0.3
		c-0.2-0.2-0.4-0.3-0.5-0.3c-0.1,0-0.4,0.1-0.8,0.1c-0.6,0.1-0.7,0.1-1,0.4c-0.2,0.2-0.5,0.4-0.7,0.4c-0.4,0.1-0.5,0.1-0.2,0.4
		c0.2,0.2,0.2,0.3-0.2,0.3c-0.2,0-0.3,0-0.3,0.2c0,0.2-0.1,0.2-0.3,0.2c-0.3,0-0.3,0-0.3-0.2c0-0.6-0.5-0.5-2.1,0.4
		c-1.3,0.8-1.2,0.7-1.1,1.2c0.2,0.6,0.5,0.8,1.5,1l0.5,0.1v0.7V27h0.3c0.2,0,0.3-0.1,0.5-0.6c0.3-0.6,0.3-0.6,0.9-0.8l0.7-0.2v-0.9
		v-0.9l0.4-0.3l0.4-0.3l0.9,0.2l0.9,0.2l-0.1,0.5c-0.1,0.8,0,0.8,1.1,0.3l0.7-0.3v0.7v0.7l0.5,0.3c0.7,0.5,0.7,1.1,0,1.3
		c-0.6,0.2-0.6,0.4,0.1,0.7c0.5,0.2,0.8,0.9,0.4,0.9c-1,0-1.9-0.7-1.4-1c0.3-0.2,0.2-0.6-0.1-0.6c-0.1,0-0.2,0-0.3,0.2
		c-0.1,0.3-1,0.4-1.3,0.1c-0.3-0.4-1.2-0.3-1.1,0.2c0,0.2,0.1,0.3,0.4,0.3l0.4,0.1l-0.2,0.2c-0.2,0.2-0.2,0.2-0.5,0.1
		c-0.3-0.1-1.4,0.7-1.3,1c0,0.1-0.3,0.3-0.7,0.5c-1,0.5-2.3,1.9-2.4,2.4c-0.1,0.3-0.1,0.4-0.8,0.9c-0.4,0.3-0.9,0.7-1.1,0.9
		l-0.4,0.4l0.1,0.8l0.1,0.8l-0.5-0.2c-0.5-0.2-0.5-0.2-0.5-0.7l0-0.5h-1.4h-1.4l-0.7,0.4c-1.2,0.6-1.8,2-1.4,3l0.2,0.5l0.6,0.1
		l0.6,0.1l0.9-0.6c1.2-0.8,1.5-0.6,0.9,0.5l-0.3,0.5l0.2,0.1c0.1,0,0.4,0.1,0.7,0.1c0.6,0.1,0.5,0,0.6,1.3l0.1,1l1,0.2l1,0.2
		l0.3-0.4c0.2-0.2,0.5-0.5,0.6-0.7l0.3-0.4l0.7,0.2c0.4,0.1,0.8,0.2,0.9,0.3c0.4,0.6,0.4,0.6,1.2,0.6c0.5,0,0.7-0.1,0.7-0.2
		c0-0.5,0.7-0.1,1.3,0.8l0.5,0.7l0.6,0c1,0,1.5,0.6,1.5,1.8v0.5l0.9,0.4c0.9,0.3,1,0.4,2,0.4l1,0l0.3,0.5c0.3,0.5,0.4,0.5,0.7,0.6
		c0.7,0.2,0.7,0.6-0.2,1.7l-0.5,0.7l-0.1,1.3c-0.2,1.8-0.2,1.7-0.7,2.1C42.5,53,42.5,53,41.8,53H41l-0.2,0.4
		c-0.2,0.4-0.2,0.4-0.1,1.1c0.2,0.9,0.2,0.9-0.6,1.9c-0.4,0.5-0.9,1.2-1,1.4c-0.3,0.5-1.5,1.3-2,1.3c-0.7,0-0.9,0.4-0.3,0.6
		c0.4,0.1,0.4,0.3-0.1,0.8c-0.4,0.4-0.2,0.8,0.4,0.8c0.4,0,0.4,0.1,0.2,1.1l-0.1,0.5l0.3,0.3c0.2,0.2,0.4,0.4,0.6,0.5
		c0.5,0.4,0.2,0.6-0.7,0.6h-0.8L36,63.6c-0.6-0.5-0.8-0.8-1.3-1.7l-0.6-1l0.1-1l0.1-1l-0.4-0.6l-0.4-0.6l0.2-1l0.2-1l-0.3-0.1
		l-0.3-0.1v-2.1v-2.1l-0.7-0.5c-0.4-0.3-0.9-0.6-1.1-0.6c-0.4-0.1-0.5-0.2-0.5-0.6c0-0.2-0.3-0.6-1-1.5l-1-1.2l0.1-0.4
		c0.1-0.2,0.1-0.7,0.1-1.1v-0.7l0.7-0.5c0.8-0.5,0.7-0.3,0.5-1.6c-0.1-0.4-0.1-0.4-1.3-0.5c-0.7-0.1-0.6,0-1.6-1.2
		c-0.4-0.5-0.5-0.5-1.3-0.7c-0.8-0.2-0.8-0.2-0.8-0.5c0-0.3,0-0.3-0.3-0.4c-0.5-0.1-0.6-0.1-0.6,0.1c0,0.2,0,0.2-1.8-0.3
		c-0.3-0.1-0.4-0.2-0.8-0.8l-0.4-0.7l0.2-0.3l0.2-0.3l-0.7-1c-0.5-0.7-0.7-1.1-0.7-1.5c-0.1-1-0.1-1-0.4-1c-0.2,0-0.3,0-0.2,0.2
		c0,0.1,0.1,0.4,0.1,0.7c0,0.4,0.2,0.7,0.5,1.2c0.6,1,0.6,1.4-0.2,1.2c-0.1,0-0.4-0.4-0.7-0.9L19,35.1v-1v-1l-0.5-0.2L18,32.7l0-0.7
		c0-2.3-1.7,3.9-1.9,7.3C14.2,62.7,43,75.3,58.6,57.9c1-1.1,1-1.1,0.5-1.1h-0.4V56v-0.8l-0.4-0.6l-0.4-0.6v-1v-1l-0.4-0.4
		c-0.6-0.6-0.6-1,0-2.2l0.4-0.9L57.1,47l-0.9-1.5l0.1-0.6c0-0.3,0.1-0.8,0.1-1.1l0.1-0.5l-0.8-0.1c-0.7-0.1-0.8-0.1-1-0.4
		c-0.4-0.4-1.3-0.4-1.7,0c-0.2,0.2-0.3,0.2-1.2,0.2c-0.6,0-0.9,0-0.9,0.1c0,0.1-0.2,0.1-0.5,0.1h-0.5l-1.2-1.4l-1.2-1.4v-1.1
		c0-1,0-1.1,0.2-1.1c0.1,0,0.2-0.2,0.2-0.3c0.1-0.5,0.1-0.6-0.2-0.6c-0.3,0-0.4-0.2-0.4-0.7c0-0.1,0.6-0.6,1.3-1.1l1.3-1v-0.7v-0.7
		l0.6-0.4c0.6-0.3,0.7-0.4,1.4-0.3c0.7,0.1,0.8,0,1.2-0.2c0.5-0.3,1.6-0.4,2.9-0.4l0.4,0l0,0.7l0,0.7l1,0.3c0.6,0.1,1.1,0.3,1.3,0.4
		c0.4,0.3,0.6,0.2,0.6-0.2c0-0.4,0-0.4,0.7-0.5c0.6-0.1,0.6-0.1,1.1,0.4l0.6,0.4l1,0c1.2,0,1.2,0.1,0.8-1.1l-0.3-0.9l-0.7,0
		c-0.9,0-1.3-0.4-1.3-1.3c-0.1-0.6-0.1-0.6-0.5-0.4c-0.2,0.1-0.3,0.3-0.4,0.8c-0.2,0.8-0.2,0.8-0.7,0.3c-0.4-0.4-0.5-0.5-0.5-1
		c0-0.8-0.9-1.6-1.7-1.6c-0.3,0-0.6,0-0.6,0c0,0.5,0.3,0.9,1,1.3c0.7,0.4,0.9,0.6,0.7,0.6c-0.1,0-0.1,0.2-0.1,0.5
		c0,0.6-0.8,0.9-1.2,0.4c-0.3-0.3-0.2-0.4,0.2-0.3c0.9,0.1,0.8-0.2-0.3-1c-0.7-0.5-1-0.7-1-0.9c-0.1-0.3-0.1-0.3-0.5,0.1
		c-0.3,0.3-0.4,0.3-0.8,0.3l-0.4,0L54,30.5c-0.3,0.4-0.6,0.9-0.7,1.1l-0.1,0.4h-1c-0.9,0-1.6-0.1-1.6-0.4c0,0,0-0.3-0.1-0.7
		c-0.2-1.2,0.4-1.7,1.9-1.4c0.7,0.1,0.7,0.1,0.7-0.3c0-0.3,0-0.3-0.2-0.4c-0.2,0-0.2-0.1-0.2-0.4c0.1-0.7,0.1-0.7,0.7-0.8
		c0.7-0.1,0.8-0.2,1.2-0.8c0.5-0.7,0.8-0.8,1.8-0.6l0.6,0.1L57,25.6c-0.1-0.7-0.1-0.7-0.6-0.5l-0.5,0.2l-0.2-0.5
		c-0.2-0.4-0.2-0.5-0.5-0.5c-0.7-0.1-0.3-1,0.7-1.4c0.5-0.2,1-0.7,0.8-0.8c0,0-0.4-0.3-0.8-0.7C51.2,17.7,45,15.6,39,16.1z M53,24.9
		c0.2,0.7,0.7,1.5,1.2,1.7c0.5,0.2-0.5,0.7-1.2,0.7h-0.8l0.1-0.3c0.1-0.5,0.1-0.5,0.3-0.6c0.4-0.1,0.3-0.4-0.2-0.8
		c-0.8-0.5-0.6-1.1,0.3-1.2C52.8,24.4,52.9,24.5,53,24.9z M51.9,25.6c0.5,0.3-0.4,1.4-1.1,1.4c-0.5,0-0.1-1.3,0.4-1.4
		C51.6,25.5,51.7,25.5,51.9,25.6z M39,28.6c0.1,0.1,0,0.3-0.2,0.3c-0.1,0-0.2,0.1-0.3,0.2c-0.2,0.4-0.9,0.4-0.9,0
		c0-0.2,0.1-0.2,0.4-0.2c0.3,0,0.4,0,0.4-0.2C38.5,28.5,38.9,28.4,39,28.6z M37.2,29.3c0,0.1-0.1,0.2-0.2,0.2
		c-0.3,0.1-0.3-0.3-0.1-0.5C36.9,28.9,37.2,29.1,37.2,29.3z"/>
</g>
</svg>
