<svg width="161" height="24" viewBox="0 0 161 24" fill="none" xmlns="http://www.w3.org/2000/svg">
<path fill-rule="evenodd" clip-rule="evenodd" d="M19.5368 9.76842C19.5368 4.37347 15.1634 0 9.76842 0C4.37347 0 0 4.37347 0 9.76842C0 12.2975 0.961142 14.6022 2.53809 16.337L2.52632 16.3368L9.76842 24L17.0105 16.3368L16.9988 16.337C18.5757 14.6022 19.5368 12.2975 19.5368 9.76842ZM6.06079 9.76605C6.06079 7.71969 7.71969 6.06079 9.76605 6.06079C11.8124 6.06079 13.4713 7.71969 13.4713 9.76605L13.471 9.81633C13.459 10.7368 13.1171 11.5882 12.5098 12.2563L12.2542 12.5373L9.76605 15.1703L7.2778 12.5373L7.02228 12.2563L6.98942 12.2197C6.39185 11.545 6.06079 10.689 6.06079 9.76605Z" fill="url(#paint0_linear_107_179)"/>
<mask id="mask0_107_179" style="mask-type:alpha" maskUnits="userSpaceOnUse" x="0" y="0" width="20" height="24">
<path fill-rule="evenodd" clip-rule="evenodd" d="M19.5368 9.76842C19.5368 4.37347 15.1634 0 9.76842 0C4.37347 0 0 4.37347 0 9.76842C0 12.2975 0.961142 14.6022 2.53809 16.337L2.52632 16.3368L9.76842 24L17.0105 16.3368L16.9988 16.337C18.5757 14.6022 19.5368 12.2975 19.5368 9.76842ZM6.06079 9.76605C6.06079 7.71969 7.71969 6.06079 9.76605 6.06079C11.8124 6.06079 13.4713 7.71969 13.4713 9.76605L13.471 9.81633C13.459 10.7368 13.1171 11.5882 12.5098 12.2563L12.2542 12.5373L9.76605 15.1703L7.2778 12.5373L7.02228 12.2563L6.98942 12.2197C6.39185 11.545 6.06079 10.689 6.06079 9.76605Z" fill="white"/>
</mask>
<g mask="url(#mask0_107_179)">
<path fill-rule="evenodd" clip-rule="evenodd" d="M12.7523 9.80176L15.1197 10.9902L20.1531 9.91434V15.2849L9.7559 25.1528L8.0957 24.0007L10.1121 20.8849L10.3618 18.1901L9.77235 15.3012V11.4226L12.7523 9.80176Z" fill="#407EF4"/>
<path fill-rule="evenodd" clip-rule="evenodd" d="M6.56641 22.312L8.08976 24.0003L10.1061 20.8845L10.3559 18.1897L9.76641 15.3008L10.8001 13.0645L8.29272 15.9582L7.71229 18.5851L6.56641 22.312Z" fill="#588CEF"/>
<path opacity="0.1" fill-rule="evenodd" clip-rule="evenodd" d="M1.70559 16.4648H6.27467L8.29573 15.9596L5.20674 13.9736L1.13281 16.2543L1.70559 16.4648Z" fill="white"/>
<path opacity="0.05" fill-rule="evenodd" clip-rule="evenodd" d="M0.894531 14.9932L5.20391 13.9756L2.53565 11.1426L0.894531 14.9932Z" fill="white"/>
<path opacity="0.06" fill-rule="evenodd" clip-rule="evenodd" d="M5.20703 13.9724L7.70654 12.6252L6.5697 9.91406L5.20703 13.9724Z" fill="white"/>
<path opacity="0.06" fill-rule="evenodd" clip-rule="evenodd" d="M8.29297 15.9377L9.76665 14.22L8.58771 13.1602L8.29297 15.9377Z" fill="white"/>
<path opacity="0.497745" fill-rule="evenodd" clip-rule="evenodd" d="M15.1172 10.9873L15.3277 13.5634L19.6204 12.9663L15.1172 10.9873Z" fill="white"/>
<path opacity="0.63244" fill-rule="evenodd" clip-rule="evenodd" d="M12.075 15.3004L11.1562 13.659L15.3689 13.5654L12.075 15.3004Z" fill="white"/>
<path opacity="0.700033" fill-rule="evenodd" clip-rule="evenodd" d="M20.5326 9.80176L15.1055 10.9676L19.338 14.2199L20.5326 9.80176Z" fill="white"/>
<path opacity="0.5" fill-rule="evenodd" clip-rule="evenodd" d="M12.5156 11.4224L15.3706 13.566L15.1066 10.9674L13.0565 9.91406L12.5156 11.4224Z" fill="white"/>
<path fill-rule="evenodd" clip-rule="evenodd" d="M12.5156 11.4224L15.3706 13.566L15.1066 10.9674L13.0565 9.91406L12.5156 11.4224Z" stroke="#0052CC" stroke-width="0.636364"/>
<path opacity="0.700033" fill-rule="evenodd" clip-rule="evenodd" d="M10.8008 13.661L15.3693 13.5674L12.5144 11.4238L10.8008 13.661Z" fill="white"/>
<path fill-rule="evenodd" clip-rule="evenodd" d="M10.8008 13.661L15.3693 13.5674L12.5144 11.4238L10.8008 13.661Z" stroke="#0052CC" stroke-width="0.636364"/>
<path opacity="0.123884" fill-rule="evenodd" clip-rule="evenodd" d="M18.454 15.302H12.0801L15.374 13.567L19.2945 12.9775L18.454 15.302Z" fill="white"/>
<path opacity="0.335496" fill-rule="evenodd" clip-rule="evenodd" d="M18.4511 15.302H15.6215L15.3711 13.567L19.2916 12.9775L18.4511 15.302Z" fill="white"/>
<path opacity="0.392741" fill-rule="evenodd" clip-rule="evenodd" d="M18.454 15.302H12.0801L15.374 13.567L19.2945 12.9775L18.454 15.302Z" fill="white"/>
<path fill-rule="evenodd" clip-rule="evenodd" d="M20.5326 9.80176L15.1055 10.9676L19.338 14.2199L20.5326 9.80176Z" stroke="#0052CC" stroke-width="0.636364"/>
<path fill-rule="evenodd" clip-rule="evenodd" d="M18.454 15.302H12.0801L15.374 13.567L19.2945 12.9775L18.454 15.302Z" stroke="#0052CC" stroke-width="0.636364"/>
<path opacity="0.5" fill-rule="evenodd" clip-rule="evenodd" d="M9.75 15.0486L12.0748 15.3013L10.9124 13.1602L9.75 15.0486Z" fill="white"/>
<path fill-rule="evenodd" clip-rule="evenodd" d="M9.75 15.0486L12.0748 15.3013L10.9124 13.1602L9.75 15.0486Z" stroke="#0052CC" stroke-width="0.636364"/>
<path fill-rule="evenodd" clip-rule="evenodd" d="M10.3374 18.1884L12.0748 15.2995L9.75 15.0469L10.3374 18.1884Z" stroke="#005B91" stroke-width="0.636364"/>
<path opacity="0.69322" fill-rule="evenodd" clip-rule="evenodd" d="M12.7488 18.9809L12.0772 15.2998L10.3398 18.1887L12.7488 18.9809Z" fill="#2872FF"/>
<path fill-rule="evenodd" clip-rule="evenodd" d="M12.7488 18.9809L12.0772 15.2998L10.3398 18.1887L12.7488 18.9809Z" stroke="#0052CC" stroke-width="0.636364"/>
<path opacity="0.5" fill-rule="evenodd" clip-rule="evenodd" d="M12.75 18.9795L13.088 21.4737L14.9535 19.6277L12.75 18.9795Z" fill="white"/>
<path fill-rule="evenodd" clip-rule="evenodd" d="M12.75 18.9795L13.088 21.4737L14.9535 19.6277L12.75 18.9795Z" stroke="#0052CC" stroke-width="0.636364"/>
<path opacity="0.342192" fill-rule="evenodd" clip-rule="evenodd" d="M15.6873 18.7448L12.0801 15.2998L17.5448 16.66L15.6873 18.7448Z" fill="white"/>
<path fill-rule="evenodd" clip-rule="evenodd" d="M15.6873 18.7448L12.0801 15.2998L17.5448 16.66L15.6873 18.7448Z" stroke="#0052CC" stroke-width="0.636364"/>
<path fill-rule="evenodd" clip-rule="evenodd" d="M15.3711 13.567L16.2079 18.7469L19.8449 15.09L19.2916 12.9775L15.3711 13.567Z" stroke="#005B91" stroke-width="0.636364"/>
<path opacity="0.159389" fill-rule="evenodd" clip-rule="evenodd" d="M15.3711 13.567L16.2079 18.7469L19.8449 15.09L19.2916 12.9775L15.3711 13.567Z" fill="white"/>
<path fill-rule="evenodd" clip-rule="evenodd" d="M15.3711 13.567L16.2079 18.7469L19.8449 15.09L19.2916 12.9775L15.3711 13.567Z" stroke="#0052CC" stroke-width="0.636364"/>
<path opacity="0.147368" fill-rule="evenodd" clip-rule="evenodd" d="M8.0957 23.682L10.1121 20.8828L12.3396 23.0257L9.7559 25.6641L8.0957 23.682Z" fill="#006099"/>
<path opacity="0.20066" fill-rule="evenodd" clip-rule="evenodd" d="M7.70703 18.5693L15.0755 20.2296L12.3807 23.0318L7.70703 18.5693Z" fill="white"/>
<path fill-rule="evenodd" clip-rule="evenodd" d="M8.0957 23.682L10.1121 20.8828L12.3396 23.0257L9.7559 25.6641L8.0957 23.682Z" stroke="#0052CC" stroke-width="0.636364"/>
<path opacity="0.173665" fill-rule="evenodd" clip-rule="evenodd" d="M6.47656 22.3128L10.11 20.8853L7.71612 18.5859L6.47656 22.3128Z" fill="white"/>
<path fill-rule="evenodd" clip-rule="evenodd" d="M6.47656 22.3128L10.11 20.8853L7.71612 18.5859L6.47656 22.3128Z" stroke="#0052CC" stroke-width="0.636364"/>
<path opacity="0.27002" fill-rule="evenodd" clip-rule="evenodd" d="M5.47266 18.19L7.71328 18.5854L8.29042 15.9375L6.27825 16.4091L5.47266 18.19Z" fill="white"/>
<path fill-rule="evenodd" clip-rule="evenodd" d="M4.82812 19.4146L7.71299 18.5854L8.29013 15.9375L6.27796 16.4091L4.82812 19.4146Z" stroke="#0052CC" stroke-width="0.636364"/>
<path opacity="0.2" fill-rule="evenodd" clip-rule="evenodd" d="M8.29297 15.9384L10.1097 20.8857L10.3409 18.1909L9.7535 15.302V14.2314L8.29297 15.9384Z" fill="white"/>
<path fill-rule="evenodd" clip-rule="evenodd" d="M8.29297 15.9343L10.1097 20.8816L10.3409 18.1867L9.63388 14.3574L8.29297 15.9343Z" stroke="#0052CC" stroke-width="0.636364"/>
<path opacity="0.15" fill-rule="evenodd" clip-rule="evenodd" d="M3.05078 17.3546L6.2734 16.4648L4.66209 19.6717L3.05078 17.3546Z" fill="white"/>
<circle cx="15.115" cy="10.9891" r="0.294737" fill="#0052CC"/>
<circle cx="15.369" cy="13.5184" r="0.294737" fill="#0052CC"/>
<circle cx="15.6229" cy="15.283" r="0.294737" fill="#0052CC"/>
<circle cx="12.0838" cy="15.283" r="0.294737" fill="#0052CC"/>
<circle cx="12.7596" cy="18.991" r="0.294737" fill="#0052CC"/>
<circle cx="10.3143" cy="18.1473" r="0.294737" fill="#0052CC"/>
<circle cx="10.0643" cy="20.8397" r="0.294737" fill="#0052CC"/>
<circle cx="7.70489" cy="18.5692" r="0.294737" fill="#0052CC"/>
<circle cx="8.29669" cy="15.9578" r="0.294737" fill="#0052CC"/>
<circle cx="5.17755" cy="13.9354" r="0.294737" fill="#0052CC"/>
<circle cx="6.27521" cy="16.4617" r="0.294737" fill="#0052CC"/>
</g>
<path d="M31.8943 7.56618V5.78418H30.2383V7.56618H31.8943ZM31.8943 18.6002V9.31218H30.2383V18.6002H31.8943Z" fill="#004FE5"/>
<path d="M33.9634 5.78418V7.24218H38.2474V18.6002H39.9214V7.24218H44.2054V5.78418H33.9634Z" fill="#004FE5"/>
<path d="M50.9315 9.07818C49.5995 9.07818 48.5915 9.54618 47.9255 10.4822V5.78418H46.2695V18.6002H47.9255V13.4342C47.9255 12.4622 48.1595 11.7422 48.6635 11.2562C49.1495 10.7702 49.7795 10.5182 50.5715 10.5182C51.7955 10.5182 52.4255 11.1842 52.4255 12.4802V18.6002H54.0815V12.1562C54.0815 11.1842 53.7935 10.4282 53.2355 9.88818C52.6775 9.34818 51.9035 9.07818 50.9315 9.07818Z" fill="#004FE5"/>
<path d="M58.613 7.56618V5.78418H56.957V7.56618H58.613ZM58.613 18.6002V9.31218H56.957V18.6002H58.613Z" fill="#004FE5"/>
<path d="M66.1542 9.07818C64.7502 9.07818 63.7062 9.60018 63.0402 10.6262V9.31218H61.4922V18.6002H63.1482V13.4342C63.1482 12.4622 63.3822 11.7422 63.8862 11.2562C64.3722 10.7702 65.0022 10.5182 65.7942 10.5182C67.0182 10.5182 67.6482 11.1842 67.6482 12.4802V18.6002H69.3042V12.1562C69.3042 11.1842 69.0162 10.4282 68.4582 9.88818C67.9002 9.34818 67.1262 9.07818 66.1542 9.07818Z" fill="#004FE5"/>
<path d="M80.2977 18.6002L76.3197 12.7322L80.0277 9.31218H77.9397L73.8357 13.2722V5.78418H72.1797V18.6002H73.8357V14.9822L75.1857 13.7582L78.3537 18.6002H80.2977Z" fill="#004FE5"/>
<path d="M88.9378 5.78418H87.2638V18.6002H95.6158V17.1422H88.9378V5.78418Z" fill="#004FE5"/>
<path d="M101.065 18.8342C102.361 18.8342 103.423 18.3842 104.287 17.4482C105.115 16.5482 105.547 15.3602 105.547 13.8842C105.547 12.4442 105.133 11.2742 104.323 10.3742C103.495 9.51018 102.415 9.07818 101.119 9.07818C99.7686 9.07818 98.6886 9.52818 97.8606 10.4102C97.0146 11.2922 96.6006 12.4802 96.6006 13.9562C96.6006 15.4142 97.0146 16.5842 97.8426 17.4842C98.6346 18.3842 99.7146 18.8342 101.065 18.8342ZM101.065 17.4482C100.201 17.4482 99.5166 17.1422 99.0126 16.4942C98.5086 15.8642 98.2566 15.0182 98.2566 13.9562C98.2566 12.8762 98.4906 12.0302 98.9946 11.4002C99.4986 10.7882 100.183 10.4642 101.065 10.4642C101.947 10.4642 102.631 10.7702 103.135 11.3822C103.639 11.9942 103.891 12.8402 103.891 13.8842C103.891 14.9642 103.639 15.8282 103.135 16.4762C102.631 17.1242 101.929 17.4482 101.065 17.4482Z" fill="#004FE5"/>
<path d="M114.361 10.7522C114.073 10.2482 113.659 9.83418 113.137 9.54618C112.597 9.25818 112.003 9.11418 111.355 9.11418C110.167 9.11418 109.195 9.54618 108.457 10.4102C107.701 11.2922 107.341 12.4262 107.341 13.8122C107.341 15.2882 107.701 16.4942 108.439 17.3942C109.159 18.3302 110.149 18.7982 111.391 18.7982C112.003 18.7982 112.561 18.6722 113.083 18.3842C113.587 18.1142 114.001 17.7362 114.307 17.2502V18.4562C114.307 19.4282 114.091 20.1302 113.677 20.5442C113.245 20.9762 112.561 21.1742 111.607 21.1742C110.905 21.1742 110.365 21.0662 109.987 20.8502C109.609 20.6342 109.357 20.2742 109.249 19.7702H107.629C107.737 20.6702 108.133 21.3542 108.817 21.8042C109.501 22.2722 110.401 22.4882 111.553 22.4882C114.451 22.4882 115.909 21.1022 115.909 18.2942V9.31218H114.361V10.7522ZM109.681 16.4042C109.213 15.7742 108.997 14.9102 108.997 13.8122C108.997 12.7682 109.213 11.9762 109.663 11.4002C110.113 10.8242 110.761 10.5362 111.589 10.5362C112.399 10.5362 113.047 10.8242 113.533 11.4002C114.001 11.9762 114.253 12.8042 114.253 13.8482C114.253 14.9282 114.001 15.7922 113.497 16.4222C112.993 17.0702 112.345 17.3762 111.553 17.3762C110.761 17.3762 110.131 17.0522 109.681 16.4042Z" fill="#004FE5"/>
<path d="M120.453 7.56618V5.78418H118.797V7.56618H120.453ZM120.453 18.6002V9.31218H118.797V18.6002H120.453Z" fill="#004FE5"/>
<path d="M126.482 18.8342C127.688 18.8342 128.642 18.5822 129.326 18.0602C130.01 17.5382 130.352 16.8182 130.352 15.9002C130.352 15.2162 130.118 14.6762 129.686 14.2442C129.254 13.8122 128.57 13.4882 127.634 13.2722L125.834 12.8762C125.312 12.7682 124.934 12.6242 124.718 12.4262C124.502 12.2282 124.394 11.9582 124.394 11.6342C124.394 10.8242 125.006 10.4102 126.266 10.4102C127.544 10.4102 128.282 10.9502 128.462 12.0122H130.1C129.974 11.0582 129.578 10.3382 128.93 9.83418C128.282 9.34818 127.4 9.09618 126.32 9.09618C125.204 9.09618 124.358 9.34818 123.764 9.81618C123.152 10.2842 122.864 10.9502 122.864 11.7782C122.864 13.1102 123.71 13.9382 125.438 14.2982L127.31 14.6942C128.282 14.9102 128.768 15.3602 128.768 16.0442C128.768 16.5122 128.57 16.8722 128.192 17.1242C127.814 17.3762 127.274 17.5022 126.554 17.5022C125.834 17.5022 125.276 17.3582 124.898 17.0702C124.502 16.7822 124.268 16.3142 124.196 15.6662H122.612C122.828 17.7902 124.106 18.8342 126.482 18.8342Z" fill="#004FE5"/>
<path d="M136.866 10.5902V9.31218L134.742 9.38418V6.46818H133.086V9.36618L131.7 9.31218V10.5902L133.086 10.5182V16.5302C133.086 17.2502 133.248 17.7902 133.572 18.1142C133.896 18.4382 134.436 18.6002 135.156 18.6002H136.848V17.2142H135.642C135.282 17.2142 135.048 17.1602 134.922 17.0342C134.796 16.9082 134.742 16.6742 134.742 16.3142V10.5182L136.866 10.5902Z" fill="#004FE5"/>
<path d="M140.51 7.56618V5.78418H138.854V7.56618H140.51ZM140.51 18.6002V9.31218H138.854V18.6002H140.51Z" fill="#004FE5"/>
<path d="M147.151 18.8342C148.285 18.8342 149.203 18.5462 149.887 17.9342C150.571 17.3402 150.985 16.4762 151.165 15.3602H149.617C149.329 16.7642 148.537 17.4482 147.241 17.4482C146.359 17.4482 145.675 17.1422 145.207 16.5302C144.739 15.9182 144.505 15.0722 144.505 13.9562C144.505 11.6342 145.423 10.4642 147.259 10.4642C148.555 10.4642 149.347 11.0942 149.599 12.3542H151.165C151.003 11.3102 150.589 10.5182 149.905 9.94218C149.221 9.36618 148.321 9.07818 147.241 9.07818C145.873 9.07818 144.793 9.52818 144.019 10.3922C143.227 11.2742 142.849 12.4802 142.849 14.0282C142.849 15.5582 143.227 16.7462 144.001 17.5742C144.757 18.4202 145.819 18.8342 147.151 18.8342Z" fill="#004FE5"/>
<path d="M156.558 18.8342C157.764 18.8342 158.718 18.5822 159.402 18.0602C160.086 17.5382 160.428 16.8182 160.428 15.9002C160.428 15.2162 160.194 14.6762 159.762 14.2442C159.33 13.8122 158.646 13.4882 157.71 13.2722L155.91 12.8762C155.388 12.7682 155.01 12.6242 154.794 12.4262C154.578 12.2282 154.47 11.9582 154.47 11.6342C154.47 10.8242 155.082 10.4102 156.342 10.4102C157.62 10.4102 158.358 10.9502 158.538 12.0122H160.176C160.05 11.0582 159.654 10.3382 159.006 9.83418C158.358 9.34818 157.476 9.09618 156.396 9.09618C155.28 9.09618 154.434 9.34818 153.84 9.81618C153.228 10.2842 152.94 10.9502 152.94 11.7782C152.94 13.1102 153.786 13.9382 155.514 14.2982L157.386 14.6942C158.358 14.9102 158.844 15.3602 158.844 16.0442C158.844 16.5122 158.646 16.8722 158.268 17.1242C157.89 17.3762 157.35 17.5022 156.63 17.5022C155.91 17.5022 155.352 17.3582 154.974 17.0702C154.578 16.7822 154.344 16.3142 154.272 15.6662H152.688C152.904 17.7902 154.182 18.8342 156.558 18.8342Z" fill="#004FE5"/>
<defs>
<linearGradient id="paint0_linear_107_179" x1="8.18158" y1="18.9983" x2="17.1166" y2="18.9983" gradientUnits="userSpaceOnUse">
<stop stop-color="#004FE5"/>
<stop offset="1" stop-color="#4C9AFF"/>
</linearGradient>
</defs>
</svg>