<svg xmlns="http://www.w3.org/2000/svg" xmlns:xlink="http://www.w3.org/1999/xlink" width="1653" height="285" viewBox="0 0 1653 285">
    <defs>
        <linearGradient id="fauaz5kpfb" x1="41.878%" x2="87.612%" y1="56.292%" y2="56.292%">
            <stop offset="0%" stop-color="#004FE5"/>
            <stop offset="100%" stop-color="#4C9AFF"/>
        </linearGradient>
        <path id="1gxhpmcqza" d="M116 0c64.065 0 116 51.935 116 116 0 30.033-11.414 57.4-30.14 78.001L202 194l-86 91-86-91 .14.001C11.414 173.401 0 146.033 0 116 0 51.935 51.935 0 116 0zm0 72c-24.3 0-44 19.7-44 44 0 10.96 3.931 21.125 11.027 29.137l.39.434 3.035 3.338L116 180.175l29.547-31.266 3.035-3.338c7.211-7.932 11.271-18.043 11.414-28.974L160 116c0-24.3-19.7-44-44-44z"/>
    </defs>
    <g fill="none" fill-rule="evenodd">
        <g>
            <g>
                <g transform="translate(-200 -1070) translate(200 1070)">
                    <mask id="0p74ic0yxc" fill="#fff">
                        <use xlink:href="#1gxhpmcqza"/>
                    </mask>
                    <use fill="url(#fauaz5kpfb)" fill-rule="nonzero" xlink:href="#1gxhpmcqza"/>
                    <path fill="#407EF4" d="M151.387 116.388L179.5 130.5 239.271 117.725 239.271 181.5 115.805 298.682 96.09 285 120.034 248 123 215.999 116 181.693 116 135.636z" mask="url(#0p74ic0yxc)"/>
                    <path fill="#588CEF" d="M78 264.952L96.09 285 120.034 248 123 215.999 116 181.693 128.275 155.137 98.5 189.5 91.607 220.695z" mask="url(#0p74ic0yxc)"/>
                    <path fill="#FFF" d="M20.242 195.5L74.5 195.5 98.5 189.5 61.818 165.917 13.44 193z" mask="url(#0p74ic0yxc)" opacity=".1"/>
                    <path fill="#FFF" d="M10.645 178L61.818 165.917 30.133 132.274z" mask="url(#0p74ic0yxc)" opacity=".05"/>
                    <path fill="#FFF" d="M61.818 165.917L91.5 149.919 78 117.725zM98.5 189.251L116 168.854 102 156.268z" mask="url(#0p74ic0yxc)" opacity=".06"/>
                    <path fill="#FFF" d="M179.5 130.5L182 161.091 232.976 154z" mask="url(#0p74ic0yxc)" opacity=".498"/>
                    <path fill="#FFF" d="M143.411 181.693L132.501 162.202 182.526 161.091z" mask="url(#0p74ic0yxc)" opacity=".632"/>
                    <path fill="#FFF" d="M243.839 116.388L179.392 130.232 229.652 168.854z" mask="url(#0p74ic0yxc)" opacity=".7"/>
                    <path fill="#FFF" d="M148.624 135.636L182.526 161.091 179.392 130.232 155.047 117.725z" mask="url(#0p74ic0yxc)" opacity=".5"/>
                    <path stroke="#0052CC" d="M148.624 135.636L182.526 161.091 179.392 130.232 155.047 117.725z" mask="url(#0p74ic0yxc)"/>
                    <path fill="#FFF" d="M128.275 162.202L182.526 161.091 148.624 135.636z" mask="url(#0p74ic0yxc)" opacity=".7"/>
                    <path stroke="#0052CC" d="M128.275 162.202L182.526 161.091 148.624 135.636z" mask="url(#0p74ic0yxc)"/>
                    <path fill="#FFF" d="M219.102 181.693L143.411 181.693 182.526 161.091 229.082 154.091z" mask="url(#0p74ic0yxc)" opacity=".124"/>
                    <path fill="#FFF" d="M219.102 181.693L185.5 181.693 182.526 161.091 229.082 154.091z" mask="url(#0p74ic0yxc)" opacity=".335"/>
                    <path fill="#FFF" d="M219.102 181.693L143.411 181.693 182.526 161.091 229.082 154.091z" mask="url(#0p74ic0yxc)" opacity=".393"/>
                    <path stroke="#0052CC" d="M243.839 116.388L179.392 130.232 229.652 168.854z" mask="url(#0p74ic0yxc)"/>
                    <path stroke="#0052CC" d="M219.102 181.693L143.411 181.693 182.526 161.091 229.082 154.091z" mask="url(#0p74ic0yxc)"/>
                    <path fill="#FFF" d="M115.805 178.693L143.411 181.693 129.608 156.268z" mask="url(#0p74ic0yxc)" opacity=".5"/>
                    <path stroke="#0052CC" d="M115.805 178.693L143.411 181.693 129.608 156.268z" mask="url(#0p74ic0yxc)"/>
                    <path stroke="#005B91" d="M122.78 215.999L143.411 181.693 115.805 178.693z" mask="url(#0p74ic0yxc)"/>
                    <path fill="#2872FF" d="M151.387 225.406L143.411 181.693 122.78 215.999z" mask="url(#0p74ic0yxc)" opacity=".693"/>
                    <path stroke="#0052CC" d="M151.387 225.406L143.411 181.693 122.78 215.999z" mask="url(#0p74ic0yxc)"/>
                    <path fill="#FFF" d="M151.387 225.406L155.401 255.025 177.553 233.104z" mask="url(#0p74ic0yxc)" opacity=".5"/>
                    <path stroke="#0052CC" d="M151.387 225.406L155.401 255.025 177.553 233.104z" mask="url(#0p74ic0yxc)"/>
                    <path fill="#FFF" d="M186.247 222.603L143.411 181.693 208.305 197.846z" mask="url(#0p74ic0yxc)" opacity=".342"/>
                    <path stroke="#0052CC" d="M186.247 222.603L143.411 181.693 208.305 197.846z" mask="url(#0p74ic0yxc)"/>
                    <path stroke="#005B91" d="M182.526 161.091L192.464 222.603 235.653 179.176 229.082 154.091z" mask="url(#0p74ic0yxc)"/>
                    <path fill="#FFF" d="M182.526 161.091L192.464 222.603 235.653 179.176 229.082 154.091z" mask="url(#0p74ic0yxc)" opacity=".159"/>
                    <path stroke="#0052CC" d="M182.526 161.091L192.464 222.603 235.653 179.176 229.082 154.091z" mask="url(#0p74ic0yxc)"/>
                    <path fill="#006099" d="M96.09 281.24L120.034 248 146.486 273.447 115.805 304.777z" mask="url(#0p74ic0yxc)" opacity=".147"/>
                    <path fill="#FFF" d="M91.5 220.5L179 240.216 147 273.492z" mask="url(#0p74ic0yxc)" opacity=".201"/>
                    <path stroke="#0052CC" d="M96.09 281.24L120.034 248 146.486 273.447 115.805 304.777z" mask="url(#0p74ic0yxc)"/>
                    <path fill="#FFF" d="M76.888 264.952L120.034 248 91.607 220.695z" mask="url(#0p74ic0yxc)" opacity=".174"/>
                    <path stroke="#0052CC" d="M76.888 264.952L120.034 248 91.607 220.695z" mask="url(#0p74ic0yxc)"/>
                    <path fill="#FFF" d="M65 215.999L91.607 220.695 98.461 189.251 74.566 194.852z" mask="url(#0p74ic0yxc)" opacity=".27"/>
                    <path stroke="#0052CC" d="M57.35 230.541L91.607 220.695 98.461 189.251 74.566 194.852z" mask="url(#0p74ic0yxc)"/>
                    <path fill="#FFF" d="M98.461 189.251L120.034 248 122.78 215.999 115.805 181.693 115.805 168.98z" mask="url(#0p74ic0yxc)" opacity=".2"/>
                    <path stroke="#0052CC" d="M98.461 189.251L120.034 248 122.78 215.999 114.384 170.526z" mask="url(#0p74ic0yxc)"/>
                    <path fill="#FFF" d="M36.231 206.065L74.5 195.5 55.366 233.581z" mask="url(#0p74ic0yxc)" opacity=".15"/>
                    <circle cx="179.5" cy="130.5" r="3.5" fill="#0052CC" mask="url(#0p74ic0yxc)"/>
                    <circle cx="182.5" cy="160.5" r="3.5" fill="#0052CC" mask="url(#0p74ic0yxc)"/>
                    <circle cx="185.5" cy="181.5" r="3.5" fill="#0052CC" mask="url(#0p74ic0yxc)"/>
                    <circle cx="143.5" cy="181.5" r="3.5" fill="#0052CC" mask="url(#0p74ic0yxc)"/>
                    <circle cx="151.5" cy="225.5" r="3.5" fill="#0052CC" mask="url(#0p74ic0yxc)"/>
                    <circle cx="122.5" cy="215.5" r="3.5" fill="#0052CC" mask="url(#0p74ic0yxc)"/>
                    <circle cx="119.5" cy="247.5" r="3.5" fill="#0052CC" mask="url(#0p74ic0yxc)"/>
                    <circle cx="91.5" cy="220.5" r="3.5" fill="#0052CC" mask="url(#0p74ic0yxc)"/>
                    <circle cx="98.5" cy="189.5" r="3.5" fill="#0052CC" mask="url(#0p74ic0yxc)"/>
                    <circle cx="61.5" cy="165.5" r="3.5" fill="#0052CC" mask="url(#0p74ic0yxc)"/>
                    <circle cx="74.5" cy="195.5" r="3.5" fill="#0052CC" mask="url(#0p74ic0yxc)"/>
                </g>
                <path fill="#004FE5" fill-rule="nonzero" d="M347.94 98.76c7.22 0 12.92-5.7 12.92-12.73 0-7.22-5.7-12.92-12.92-12.92-7.03 0-12.73 5.7-12.73 12.92 0 7.03 5.7 12.73 12.73 12.73zM356.87 212v-91.39H339.2V212h17.67zm80.75 0V94.58h45.03V77.29H373.97v17.29H419V212h18.62zm79.99 0v-53.77c.38-13.49 7.6-24.13 21.28-24.13 15.96 0 21.28 10.26 21.28 22.99V212h17.86v-57.95c0-20.33-10.83-36.1-32.68-36.1-10.45 0-21.09 3.61-27.74 13.3V74.44h-17.86V212h17.86zm97.66-113.24c7.22 0 12.92-5.7 12.92-12.73 0-7.22-5.7-12.92-12.92-12.92-7.03 0-12.73 5.7-12.73 12.92 0 7.03 5.7 12.73 12.73 12.73zM624.2 212v-91.39h-17.67V212h17.67zm48.26 0v-52.82c0-13.87 7.22-25.08 21.28-25.08 15.96 0 21.28 10.26 21.28 22.99V212h17.86v-57.95c0-20.33-10.83-36.1-32.68-36.1-10.64 0-21.47 4.37-28.12 15.77v-13.11H654.6V212h17.86zm106.59 0v-27.55l12.73-12.73L821.61 212h22.42l-39.71-52.82 38.95-38.57h-24.7l-39.52 40.47V74.44h-17.67V212h17.67zm213.75 0v-17.48h-63.65V77.29h-18.62V212h82.27zm59.09 2.85c27.36 0 46.74-20.71 46.74-48.64 0-27.74-19.38-48.45-46.74-48.45-27.36 0-46.74 20.71-46.74 48.45 0 27.93 19.38 48.64 46.74 48.64zm0-15.96c-15.2 0-28.5-11.4-28.5-32.68 0-21.09 13.3-32.49 28.5-32.49s28.5 11.4 28.5 32.49c0 21.28-13.3 32.68-28.5 32.68zm105.07 52.06c34.39 0 45.79-22.61 45.79-45.79v-84.55h-17.67v12.73c-4.56-9.12-14.06-14.44-28.12-14.44-25.08 0-41.99 19.76-41.99 44.46 0 25.84 17.67 44.27 41.99 44.27 13.68 0 23.56-6.65 27.93-15.01v13.11c0 19.76-8.74 29.64-27.93 29.64-13.87 0-23.56-9.69-24.89-22.42l-17.29 3.99c2.28 19.57 19.38 34.01 42.18 34.01zm2.66-58.33c-16.15 0-26.41-11.4-26.41-29.26 0-17.67 10.64-29.26 26.41-29.26 15.39 0 26.03 11.59 26.03 29.26s-10.64 29.26-26.03 29.26zm80.37-93.86c7.22 0 12.92-5.7 12.92-12.73 0-7.22-5.7-12.92-12.92-12.92-7.03 0-12.73 5.7-12.73 12.92 0 7.03 5.7 12.73 12.73 12.73zm8.93 113.24v-91.39h-17.67V212h17.67zm59.09 2.85c22.61 0 33.44-15.39 33.44-28.31 0-13.49-8.74-23.56-25.27-27.17l-14.82-3.23c-7.03-1.52-10.45-5.51-10.45-11.02 0-6.27 6.08-12.16 15.2-12.16 14.44 0 18.24 10.45 19 15.2l15.77-5.89c-1.9-8.17-9.69-24.51-34.77-24.51-17.86 0-32.49 13.3-32.49 28.88 0 12.92 8.55 22.61 22.8 25.65l15.58 3.42c7.6 1.71 11.78 6.08 11.78 11.78 0 6.46-5.51 12.16-15.58 12.16-12.92 0-20.14-7.6-21.28-17.1l-16.15 5.7c1.52 10.45 12.16 26.6 37.24 26.6zm88.73-1.9c6.08 0 10.64-1.14 12.16-1.71v-15.2c-1.52.38-4.75.76-7.03.76-9.31 0-12.73-4.18-12.73-12.54v-47.5h19.76v-16.15h-19.76V91.73h-16.34v14.82c0 7.98-4.18 14.06-14.06 14.06h-4.94v16.15h17.48v50.16c0 16.53 9.88 26.03 25.46 26.03zm44.65-114.19c7.22 0 12.92-5.7 12.92-12.73 0-7.22-5.7-12.92-12.92-12.92-7.03 0-12.73 5.7-12.73 12.92 0 7.03 5.7 12.73 12.73 12.73zm8.93 113.24v-91.39h-17.67V212h17.67zm68.97 2.85c23.75 0 36.86-15.39 41.23-28.5l-15.77-6.84c-2.09 7.22-8.36 18.81-25.46 18.81-14.82 0-27.93-11.21-27.93-32.11 0-21.28 13.3-31.92 27.74-31.92 15.58 0 22.23 10.45 24.51 19.38l16.15-6.84c-3.8-13.87-16.34-29.07-40.66-29.07-26.03 0-45.98 19.95-45.98 48.45 0 27.74 19.57 48.64 46.17 48.64zm90.82 0c22.61 0 33.44-15.39 33.44-28.31 0-13.49-8.74-23.56-25.27-27.17l-14.82-3.23c-7.03-1.52-10.45-5.51-10.45-11.02 0-6.27 6.08-12.16 15.2-12.16 14.44 0 18.24 10.45 19 15.2l15.77-5.89c-1.9-8.17-9.69-24.51-34.77-24.51-17.86 0-32.49 13.3-32.49 28.88 0 12.92 8.55 22.61 22.8 25.65l15.58 3.42c7.6 1.71 11.78 6.08 11.78 11.78 0 6.46-5.51 12.16-15.58 12.16-12.92 0-20.14-7.6-21.28-17.1l-16.15 5.7c1.52 10.45 12.16 26.6 37.24 26.6z" transform="translate(-200 -1070) translate(200 1070)"/>
            </g>
        </g>
    </g>
</svg>
