<svg width="17" height="16" viewBox="0 0 17 16" fill="none" xmlns="http://www.w3.org/2000/svg">
<path fill-rule="evenodd" clip-rule="evenodd" d="M8.59994 16C6.47822 16 4.4434 15.1571 2.94312 13.6569ZM2.94312 13.6569C1.44283 12.1566 0.599976 10.1217 0.599976 8ZM0.599976 8C0.599976 5.87827 1.44283 3.84344 2.94312 2.34315ZM2.94312 2.34315C4.44341 0.842855 6.47824 0 8.59997 0ZM8.59997 16C10.7217 16 12.7565 15.1571 14.2568 13.6569ZM14.2568 13.6569C15.7571 12.1566 16.5999 10.1217 16.5999 8ZM16.5999 8C16.5999 5.87827 15.7571 3.84344 14.2568 2.34315ZM14.2568 2.34315C12.7565 0.842855 10.7217 0 8.59997 0Z" fill="white"/>
<g clip-path="url(#clip0_201_63496)">
<path d="M11.3159 8.5613C11.3159 8.54819 11.3159 8.53509 11.3159 8.52362C11.3108 8.13483 11.228 7.76024 11.0698 7.4075C11.0543 7.37364 11.0378 7.34033 11.0212 7.30702H11.0224L10.9972 7.25788C10.9658 7.19727 10.9327 7.13829 10.8967 7.08041C10.8019 6.92534 10.6911 6.78009 10.5678 6.64412L10.5695 6.64303L10.5226 6.59388C10.4855 6.55402 10.4467 6.5158 10.4073 6.47867C10.2485 6.32796 10.0738 6.19418 9.88414 6.07951C9.87786 6.07568 9.87101 6.07186 9.86473 6.06804L9.86644 6.06695L9.78134 6.01999C9.41584 5.8185 9.01834 5.69345 8.59972 5.64813H8.59915L8.58544 5.64649C8.47122 5.63502 8.35814 5.62792 8.24792 5.62902C8.23193 5.62902 8.2148 5.62902 8.20052 5.62956H8.19823C8.18281 5.62956 8.16739 5.63011 8.15312 5.63065C8.14683 5.63065 8.14055 5.6312 8.1337 5.63175C7.98578 5.63666 7.83786 5.65195 7.69337 5.67707L7.68195 5.67925C7.5506 5.70328 7.42153 5.7344 7.29531 5.77427C7.1651 5.81467 7.03831 5.86382 6.91495 5.92115C6.83271 5.95938 6.75219 6.00088 6.67337 6.0462H6.67223L6.58885 6.0948L6.59056 6.09589C6.33756 6.25097 6.11083 6.44044 5.91494 6.6605L5.86925 6.71183L5.87097 6.71292C5.83956 6.74951 5.80929 6.78664 5.77959 6.82432C5.67394 6.96137 5.58027 7.10608 5.50146 7.25897L5.47633 7.30757H5.47747C5.28787 7.6898 5.18792 8.09879 5.18221 8.52307C5.18164 8.53618 5.18164 8.54928 5.18164 8.56239C5.18164 8.72511 5.19535 8.88565 5.22219 9.04346C5.26445 9.28918 5.34041 9.5278 5.44778 9.75714H5.44663L5.47005 9.8052C5.49347 9.85379 5.51859 9.90075 5.54487 9.94717C5.66308 10.1585 5.80872 10.3551 5.97834 10.5336H5.97719L6.02745 10.585C6.05087 10.6084 6.076 10.6303 6.09998 10.6532C6.22563 10.7717 6.36098 10.8804 6.50661 10.9765C6.53574 10.9956 6.56601 11.0131 6.5957 11.0311L6.59171 11.0327L6.68423 11.0851C6.73677 11.1152 6.79102 11.1436 6.84528 11.1703C6.92009 11.2069 6.99662 11.2397 7.07429 11.2702C7.39354 11.3964 7.73449 11.4723 8.07944 11.4903C8.11314 11.4919 8.14683 11.4936 8.18053 11.4936C8.18681 11.4936 8.19252 11.4936 8.19709 11.4936C8.2108 11.4941 8.22393 11.4941 8.23764 11.4941H8.24849C8.76306 11.4941 9.27192 11.3702 9.72024 11.1354L9.81447 11.0857L9.81218 11.0846C10.0132 10.9705 10.2 10.8356 10.3684 10.6811C10.433 10.6215 10.4952 10.5593 10.5552 10.4943L10.6037 10.4413H10.6026C10.726 10.2999 10.835 10.1487 10.9287 9.98867C10.9635 9.9286 10.9967 9.86744 11.0275 9.80465L11.0509 9.75714H11.0498C11.2262 9.37982 11.3165 8.97848 11.3165 8.56184L11.3159 8.5613ZM7.68081 11.3314C7.64711 11.3248 7.61285 11.3188 7.57972 11.3112C7.55631 11.3063 7.53346 11.3003 7.51062 11.2943C7.47864 11.2866 7.44666 11.2784 7.41467 11.2697C7.39126 11.2631 7.36784 11.256 7.34443 11.2484C7.31359 11.2391 7.28275 11.2293 7.25248 11.2189C7.22906 11.2107 7.20565 11.2025 7.18223 11.1938C7.15253 11.1829 7.12284 11.1714 7.09371 11.1594C7.07029 11.1501 7.04745 11.1403 7.02461 11.1305C6.99548 11.1179 6.96692 11.1048 6.93837 11.0911C6.91552 11.0802 6.89325 11.0698 6.87098 11.0584C6.86127 11.0535 6.85156 11.048 6.84185 11.0431C6.96635 10.9923 7.09485 10.9492 7.22507 10.9137C7.40325 11.084 7.59686 11.2309 7.80474 11.3522C7.78589 11.3494 7.76648 11.3472 7.74763 11.344C7.72536 11.3401 7.70365 11.3358 7.68195 11.3314H7.68081ZM5.29586 8.57877H6.20906C6.21706 8.85999 6.25818 9.13792 6.33299 9.40658C6.05829 9.48903 5.79558 9.59005 5.55058 9.70691C5.38438 9.35088 5.29872 8.97193 5.29643 8.57822L5.29586 8.57877ZM5.66308 7.19891C5.67508 7.17816 5.6865 7.15741 5.69906 7.1372C5.71677 7.10826 5.73562 7.08041 5.75389 7.05202C5.76646 7.03345 5.77845 7.01434 5.79101 6.99632C5.81271 6.9652 5.83556 6.93516 5.8584 6.90513C5.86983 6.89039 5.88011 6.8751 5.8921 6.86036C5.91837 6.82759 5.94578 6.79592 5.9732 6.76425C6.1531 6.8549 6.34213 6.93407 6.53745 7.00069C6.45692 7.16942 6.39068 7.34689 6.33928 7.52927C6.09084 7.45336 5.85269 7.36272 5.63053 7.25843C5.64138 7.23877 5.65223 7.21856 5.66366 7.19891H5.66308ZM8.91897 5.8114C8.94753 5.81795 8.97665 5.82396 9.00521 5.8316C9.0252 5.83651 9.04462 5.84198 9.06403 5.84744C9.09145 5.85508 9.11829 5.86218 9.14513 5.87037C9.16512 5.87638 9.18511 5.88293 9.20453 5.88948C9.2308 5.89822 9.25707 5.90696 9.28334 5.91624C9.30333 5.92334 9.32275 5.93098 9.34273 5.93808C9.36843 5.94791 9.39413 5.95828 9.41983 5.96866C9.43925 5.97685 9.45867 5.98504 9.47752 5.99323C9.50322 6.0047 9.52892 6.01617 9.55404 6.02818C9.57232 6.03691 9.59117 6.04565 9.60944 6.05493C9.61744 6.05876 9.626 6.06367 9.634 6.06749C9.51921 6.12647 9.39984 6.1778 9.27763 6.22203C9.13485 6.06094 8.97665 5.91515 8.80589 5.78846C8.82474 5.79174 8.84416 5.79502 8.863 5.79884C8.88185 5.80266 8.9007 5.80703 8.91897 5.8114V5.8114ZM10.6032 6.85872C10.63 6.89257 10.6563 6.92588 10.6814 6.96083C10.6957 6.98103 10.7094 7.00178 10.7231 7.02199C10.7448 7.0542 10.7671 7.08587 10.7871 7.11918C10.8008 7.14157 10.8139 7.1645 10.827 7.18744C10.8408 7.21092 10.8545 7.23495 10.867 7.25843C10.598 7.38456 10.3073 7.48995 10.0029 7.57459C9.94925 7.37528 9.87786 7.18143 9.78991 6.99632C10.0281 6.91441 10.2548 6.81503 10.4667 6.69873C10.5004 6.73531 10.5335 6.77135 10.5649 6.80957C10.578 6.82541 10.59 6.84234 10.6032 6.85872V6.85872ZM10.8145 9.95918C10.8128 9.96246 10.8105 9.96519 10.8088 9.96846C10.8059 9.97283 10.8031 9.9772 10.8008 9.98212C10.7722 10.0291 10.7425 10.0749 10.7111 10.1203C10.7065 10.1268 10.702 10.1328 10.6974 10.1394C10.6648 10.1852 10.6312 10.2311 10.5957 10.2753C10.5929 10.2792 10.5895 10.283 10.586 10.2868C10.5575 10.3223 10.5272 10.3573 10.4964 10.3917C10.2485 10.2759 9.9858 10.1814 9.71338 10.1093C9.82304 9.90512 9.91213 9.69053 9.97781 9.46828C10.3051 9.55729 10.6152 9.67032 10.8996 9.80629C10.8979 9.81011 10.8956 9.81393 10.8939 9.81775C10.8687 9.86581 10.8425 9.91331 10.8145 9.96027V9.95918ZM10.1783 10.6985C10.16 10.7138 10.1411 10.7286 10.1223 10.7433C10.1092 10.7537 10.096 10.7641 10.0823 10.7744C10.0629 10.7892 10.0423 10.8039 10.0224 10.8181C10.0092 10.8274 9.99608 10.8372 9.98238 10.8465C9.96124 10.8613 9.93954 10.8755 9.91784 10.8896C9.90528 10.8978 9.89271 10.9066 9.87958 10.9148C9.85559 10.9301 9.83046 10.9448 9.8059 10.9595C9.79505 10.9661 9.78477 10.9726 9.77392 10.9787C9.74651 10.9945 9.71852 11.0098 9.68997 11.0251C9.52892 10.9481 9.35987 10.8831 9.18568 10.8312C9.36615 10.645 9.52492 10.4353 9.65856 10.2065C9.92241 10.2748 10.1777 10.3643 10.4181 10.4747C10.4113 10.4817 10.405 10.4883 10.3981 10.4954C10.3856 10.5085 10.3724 10.5211 10.3593 10.5342C10.3427 10.5506 10.3262 10.5664 10.3096 10.5822C10.2965 10.5942 10.2833 10.6062 10.2702 10.6183C10.2531 10.6341 10.2354 10.6494 10.2177 10.6647C10.2045 10.6761 10.1914 10.6876 10.1777 10.6985H10.1783ZM9.46038 11.1359C9.43011 11.149 9.39927 11.1616 9.36843 11.1736C9.34445 11.1829 9.31989 11.1922 9.2959 11.2009C9.26449 11.2124 9.23308 11.2227 9.20167 11.2331C9.17711 11.2413 9.15256 11.2489 9.12743 11.2566C9.12343 11.2577 9.11943 11.2588 9.11543 11.2599C9.08745 11.2681 9.05889 11.2757 9.03034 11.2833C9.00578 11.2899 8.98065 11.2965 8.95552 11.3025C8.9224 11.3101 8.8887 11.3172 8.85501 11.3238C8.83045 11.3287 8.80589 11.3341 8.78133 11.338C8.74593 11.344 8.71052 11.3489 8.67511 11.3538C8.65169 11.3571 8.62885 11.3609 8.60543 11.3636C8.56603 11.368 8.52662 11.3713 8.48664 11.3745H8.4855C8.70538 11.2506 8.91041 11.0977 9.09773 10.9197C9.25878 10.965 9.41526 11.0212 9.56547 11.0884C9.55404 11.0939 9.54319 11.0993 9.53177 11.1048C9.50836 11.1157 9.48437 11.1261 9.46095 11.1365L9.46038 11.1359ZM6.08114 10.4779C6.06457 10.461 6.04801 10.4435 6.03145 10.4261C6.02288 10.4168 6.01489 10.4069 6.00632 10.3977C5.98919 10.3791 5.97263 10.36 5.95606 10.3409C5.94635 10.3294 5.93722 10.3179 5.92808 10.307C5.91323 10.289 5.89838 10.2715 5.88467 10.2535C5.87554 10.2415 5.8664 10.2295 5.85726 10.2175C5.84355 10.1994 5.82985 10.1814 5.81671 10.1629C5.80757 10.1503 5.79901 10.1377 5.79044 10.1257C5.77788 10.1072 5.76474 10.0891 5.75275 10.0706C5.74418 10.058 5.73619 10.0449 5.72762 10.0318C5.71563 10.0132 5.70363 9.99467 5.69221 9.97556C5.68422 9.96246 5.67622 9.94881 5.66822 9.93515C5.65737 9.91659 5.64652 9.89748 5.63624 9.87837C5.62825 9.86417 5.62082 9.84997 5.6134 9.83577C5.60826 9.8254 5.60312 9.81557 5.59741 9.8052C5.83727 9.69052 6.09484 9.59278 6.36326 9.51142C6.44093 9.76042 6.54602 9.99795 6.6768 10.2191C6.46835 10.2923 6.26789 10.3791 6.08056 10.4779H6.08114ZM6.06572 6.6605C6.07771 6.64794 6.08913 6.63593 6.10112 6.62392C6.11597 6.60863 6.13082 6.59388 6.14624 6.57914C6.15824 6.56767 6.17023 6.55566 6.18279 6.54419C6.19821 6.52945 6.2142 6.51525 6.22962 6.50106C6.24219 6.49013 6.25418 6.47867 6.26675 6.46829C6.28331 6.4541 6.29987 6.44044 6.31643 6.42625C6.329 6.41587 6.34156 6.4055 6.35413 6.39512C6.37126 6.38147 6.38896 6.36782 6.40667 6.35417C6.41923 6.34434 6.4318 6.33506 6.44436 6.32577C6.46321 6.31212 6.48205 6.29847 6.50147 6.28537C6.51346 6.27718 6.52546 6.26844 6.53745 6.26025C6.55915 6.24551 6.58086 6.23185 6.60256 6.21766C6.61284 6.2111 6.62312 6.20401 6.6334 6.198C6.65681 6.18326 6.6808 6.1696 6.70479 6.15541C6.79959 6.20455 6.89668 6.24933 6.99605 6.28864C6.83843 6.47594 6.70079 6.68125 6.58714 6.90186C6.40096 6.83906 6.22049 6.7648 6.04915 6.67961C6.05486 6.67361 6.06058 6.66705 6.06629 6.66105L6.06572 6.6605ZM7.72593 5.78191C7.74534 5.77863 7.76533 5.7759 7.78532 5.77263C7.7996 5.77044 7.81388 5.76826 7.82816 5.76607C7.85043 5.7628 7.8727 5.76061 7.89497 5.75788C7.90925 5.75625 7.92296 5.75461 7.93667 5.75297C7.95094 5.75133 7.96522 5.75079 7.9795 5.74969C7.98978 5.7486 8.00006 5.74806 8.01091 5.74696C8.01891 5.74642 8.02633 5.74587 8.03433 5.74532C7.88584 5.93153 7.75163 6.1363 7.63512 6.35745C7.48264 6.33014 7.33243 6.29083 7.18737 6.24114C7.35128 6.06531 7.53175 5.91023 7.7265 5.78191H7.72593ZM9.63171 6.93298C9.43868 6.99359 9.23708 7.04274 9.02977 7.07823C8.96123 6.86418 8.87842 6.65941 8.78248 6.4672C8.93839 6.4399 9.09202 6.40113 9.24051 6.35144C9.39185 6.5289 9.52263 6.72439 9.63114 6.93298H9.63171ZM7.74706 10.7029C7.6494 10.5216 7.56373 10.3261 7.49177 10.1214C7.95151 10.0422 8.43696 10.0258 8.9007 10.0722C8.82474 10.2977 8.73336 10.5123 8.62656 10.7116C8.33987 10.674 8.03547 10.6707 7.74706 10.7029ZM6.78645 10.182C6.6551 9.963 6.55002 9.72711 6.47292 9.47975C6.70079 9.41586 6.93608 9.36453 7.17424 9.32631C7.21307 9.56985 7.26961 9.80793 7.34328 10.0373C7.15311 10.0749 6.96692 10.1235 6.78645 10.182V10.182ZM7.69908 6.47921C7.86528 6.50488 8.0349 6.51853 8.20452 6.51853C8.35814 6.51853 8.51291 6.50706 8.66597 6.48577C8.76306 6.67743 8.84701 6.8822 8.91669 7.09625C8.43524 7.16887 7.92981 7.17106 7.44723 7.10335C7.51633 6.88438 7.60085 6.67525 7.69966 6.47921H7.69908ZM7.4141 7.20928C7.65797 7.24477 7.90811 7.26334 8.15826 7.26334C8.42439 7.26334 8.68996 7.24204 8.94924 7.20218C9.00292 7.38347 9.04576 7.56913 9.0766 7.75588C8.4895 7.82686 7.86928 7.82085 7.2936 7.73895C7.3233 7.55875 7.36384 7.38074 7.4141 7.20928V7.20928ZM8.93496 9.96573C8.44838 9.91495 7.93781 9.93188 7.45579 10.0165C7.38212 9.78936 7.32558 9.55183 7.28674 9.30993C7.87384 9.22693 8.49578 9.22147 9.08745 9.29355C9.05318 9.52125 9.00178 9.74677 8.93439 9.96573H8.93496ZM7.22621 8.54492V8.52417C7.22735 8.29646 7.24448 8.06876 7.27646 7.84652C7.59172 7.8913 7.91782 7.91478 8.24849 7.91478C8.5329 7.91478 8.81617 7.8973 9.09316 7.86345C9.12457 8.08241 9.1417 8.30411 9.14285 8.5258C9.14285 8.53782 9.14285 8.54874 9.14285 8.56075C9.14285 8.77043 9.12914 8.98012 9.10287 9.18488C8.50035 9.11117 7.86756 9.11663 7.27075 9.20127C7.24163 8.98612 7.22621 8.76552 7.22621 8.54437V8.54492ZM8.68996 10.8312C8.78305 10.8454 8.87671 10.8634 8.97037 10.8858C8.78933 11.0513 8.59173 11.1916 8.38042 11.3057C8.49293 11.1583 8.5963 10.9994 8.68996 10.8307V10.8312ZM9.06346 10.7968C8.95781 10.769 8.85101 10.7466 8.74478 10.7291C8.85044 10.5276 8.94182 10.3114 9.01663 10.0848C9.19425 10.1066 9.37129 10.1383 9.54433 10.1781C9.40841 10.4058 9.24736 10.6133 9.06346 10.7963V10.7968ZM9.60145 10.0793C9.42098 10.0362 9.23594 10.0029 9.04976 9.97884C9.116 9.76042 9.16683 9.53545 9.2011 9.30829C9.43068 9.34051 9.65399 9.38419 9.86815 9.43825C9.80248 9.66049 9.71281 9.87564 9.60145 10.0793ZM9.89842 9.33286C9.67969 9.27771 9.45067 9.23294 9.21652 9.20017C9.24279 8.99595 9.2565 8.78791 9.25707 8.57877H10.0064C9.99894 8.83487 9.96296 9.08769 9.89842 9.33286ZM9.25535 8.46956C9.25193 8.26261 9.23537 8.05456 9.20624 7.84925C9.4461 7.81649 9.6854 7.76953 9.91955 7.71001C9.97724 7.95682 10.0075 8.21183 10.0081 8.46956H9.25535V8.46956ZM10.1223 8.46956C10.1217 8.20145 10.0909 7.93662 10.0303 7.68052C10.3433 7.59424 10.6409 7.48449 10.9179 7.35508C11.0915 7.70509 11.1863 8.07914 11.1988 8.47011H10.1223V8.46956ZM9.18968 7.74113C9.15827 7.55329 9.11543 7.36654 9.06175 7.18362C9.27477 7.14594 9.48266 7.09516 9.6814 7.03236C9.76935 7.21474 9.84017 7.4064 9.89271 7.60407C9.66198 7.66305 9.42554 7.70892 9.18911 7.74168L9.18968 7.74113ZM8.73051 6.36509C8.61172 6.13957 8.47294 5.93044 8.31817 5.73932C8.39755 5.74096 8.47808 5.74532 8.55974 5.75297C8.78133 5.89385 8.98351 6.06476 9.16284 6.26079C9.02177 6.30557 8.87728 6.34052 8.73051 6.36509ZM8.61114 6.38256C8.32502 6.4186 8.03433 6.41642 7.75334 6.37656C7.8767 6.14667 8.01948 5.93426 8.17824 5.74478C8.34158 5.93699 8.48664 6.15158 8.61114 6.38256ZM7.58315 6.45901C7.48549 6.65668 7.40154 6.86691 7.333 7.08642C7.11484 7.05093 6.90182 7.00069 6.69622 6.9368C6.81044 6.71784 6.94808 6.51416 7.10685 6.33014C7.26105 6.38529 7.42038 6.42843 7.58315 6.45956V6.45901ZM6.64596 7.03564C6.85727 7.10226 7.07658 7.15413 7.30102 7.19181C7.25134 7.36381 7.21079 7.54182 7.18109 7.72202C6.93323 7.68325 6.68708 7.62919 6.44836 7.56094C6.49919 7.3791 6.56544 7.20327 6.64596 7.03564V7.03564ZM6.4198 7.66687C6.66252 7.73567 6.9121 7.79082 7.16396 7.83014C7.13369 8.03982 7.11655 8.25442 7.1137 8.46956H6.32157C6.32214 8.19654 6.35527 7.92679 6.4198 7.66687V7.66687ZM7.11313 8.57877C7.11427 8.79446 7.12969 9.00906 7.15825 9.21874C6.91552 9.25751 6.67509 9.30938 6.44265 9.37491C6.37183 9.11663 6.33185 8.84961 6.32386 8.57877H7.11313ZM7.37812 10.1421C7.44894 10.3441 7.53289 10.5374 7.6277 10.7182C7.50377 10.7362 7.38041 10.7602 7.2599 10.7908C7.10456 10.6352 6.96635 10.4626 6.84699 10.2781C7.0189 10.2235 7.19708 10.1776 7.37812 10.1421V10.1421ZM7.68309 10.8208C7.78932 11.012 7.90925 11.19 8.04004 11.3532C7.79218 11.2309 7.56145 11.0726 7.35299 10.8809C7.4615 10.8558 7.57173 10.8356 7.68309 10.8208ZM8.56945 10.8148C8.45752 11.012 8.3313 11.1954 8.19252 11.3609C8.04975 11.1938 7.9201 11.0076 7.80588 10.8072C8.05717 10.7826 8.31931 10.7854 8.57002 10.8154L8.56945 10.8148ZM10.1206 8.57877H11.2017C11.1994 8.97193 11.1132 9.35143 10.9475 9.70745C10.6574 9.56876 10.3422 9.45299 10.0086 9.36235C10.0755 9.10735 10.1132 8.84415 10.1206 8.57877V8.57877ZM9.89328 6.21602C9.89842 6.21929 9.90413 6.22257 9.90984 6.22639C9.96182 6.26025 10.0126 6.29629 10.0623 6.33287C10.0698 6.33833 10.0777 6.34434 10.0852 6.3498C10.1331 6.38639 10.18 6.42406 10.2251 6.46338C10.2331 6.47048 10.2411 6.47703 10.2491 6.48413C10.2942 6.52399 10.3382 6.56494 10.3804 6.60754C10.3833 6.61027 10.3861 6.61354 10.389 6.61627C10.1863 6.72603 9.9681 6.8194 9.7408 6.89694C9.63286 6.68726 9.50264 6.49068 9.35301 6.31103C9.49008 6.2597 9.62372 6.19909 9.75051 6.12974C9.79905 6.15705 9.84645 6.18544 9.89328 6.21493V6.21602ZM6.83329 6.08333C6.84813 6.07568 6.86355 6.06804 6.87897 6.06039C6.90125 6.04947 6.92352 6.03801 6.94579 6.02763C6.96178 6.01999 6.97778 6.01289 6.99377 6.00579C7.01604 5.99596 7.03831 5.98613 7.06059 5.9763C7.07658 5.9692 7.09314 5.96265 7.1097 5.9561C7.13255 5.94682 7.15482 5.93808 7.17766 5.92989C7.19423 5.92388 7.21079 5.91788 7.22735 5.91187C7.25076 5.90368 7.27418 5.89603 7.2976 5.88839C7.31416 5.88293 7.33015 5.87747 7.34671 5.87255C7.37127 5.86491 7.39583 5.85781 7.42096 5.85126C7.43238 5.84798 7.4438 5.84471 7.45522 5.84198C7.31873 5.94955 7.19023 6.06913 7.07144 6.20018C6.98634 6.16742 6.90182 6.13138 6.81958 6.09097C6.82415 6.08824 6.82872 6.08606 6.83329 6.08333V6.08333ZM5.57913 7.35562C5.80815 7.46374 6.05315 7.55766 6.30958 7.6352C6.24219 7.90549 6.20735 8.18616 6.20678 8.47011H5.29815C5.30957 8.11572 5.38781 7.77335 5.53287 7.45063C5.54715 7.41842 5.56314 7.38729 5.57913 7.35562V7.35562ZM6.57857 10.8907C6.56087 10.8793 6.5443 10.8667 6.52717 10.8547C6.49176 10.8301 6.45635 10.8061 6.42209 10.7804C6.4021 10.7657 6.38325 10.7499 6.36441 10.7346C6.33414 10.7105 6.3033 10.686 6.27417 10.6609C6.25418 10.6439 6.23534 10.6259 6.21592 10.6084C6.19821 10.5921 6.18051 10.5757 6.16338 10.5593C6.34385 10.4659 6.53574 10.3846 6.7362 10.3152C6.85213 10.4981 6.98691 10.6685 7.13711 10.8252C6.99377 10.8667 6.85384 10.9175 6.71849 10.9765C6.67109 10.9492 6.62426 10.9208 6.57914 10.8907H6.57857Z" fill="#2C2C2C"/>
<path d="M7.4375 8.24805C7.44549 8.24805 7.45006 8.25242 7.45006 8.26006V8.84761C7.45006 8.85525 7.44549 8.85962 7.4375 8.85962H7.35412C7.34555 8.85962 7.34155 8.85525 7.34155 8.84761V8.26006C7.34155 8.25242 7.34555 8.24805 7.35412 8.24805H7.4375Z" fill="#2C2C2C"/>
<path d="M7.83895 8.24805C7.84694 8.24805 7.85151 8.25242 7.85151 8.26006V8.84761C7.85151 8.85525 7.84694 8.85962 7.83895 8.85962H7.75956C7.75214 8.85962 7.74757 8.85634 7.74528 8.84979L7.62307 8.52326H7.61907V8.84761C7.61907 8.85525 7.61507 8.85962 7.60651 8.85962H7.52312C7.51513 8.85962 7.51056 8.85525 7.51056 8.84761V8.26006C7.51056 8.25242 7.51513 8.24805 7.52312 8.24805H7.60251C7.60993 8.24805 7.6145 8.25132 7.61678 8.25788L7.73843 8.58277H7.743V8.26006C7.743 8.25242 7.747 8.24805 7.75556 8.24805H7.83895Z" fill="#2C2C2C"/>
<path d="M7.9115 8.26104C7.9115 8.25339 7.9155 8.24902 7.92406 8.24902H8.11596C8.19134 8.24902 8.23132 8.28779 8.23132 8.35987V8.75084C8.23132 8.82292 8.19134 8.86114 8.11596 8.86114H7.92406C7.9155 8.86114 7.9115 8.85732 7.9115 8.84913V8.26158V8.26104ZM8.09368 8.75958C8.11424 8.75958 8.12566 8.74975 8.12566 8.729V8.38117C8.12566 8.36042 8.11424 8.35004 8.09368 8.35004H8.02001V8.76012H8.09368V8.75958Z" fill="#2C2C2C"/>
<path d="M8.61051 8.33748C8.61051 8.34513 8.60708 8.35059 8.59794 8.35059H8.39806V8.50348H8.55111C8.55911 8.50348 8.56368 8.50785 8.56368 8.51659V8.59249C8.56368 8.60068 8.55911 8.60559 8.55111 8.60559H8.39806V8.76012H8.59794C8.60765 8.76012 8.61051 8.76395 8.61051 8.77214V8.84858C8.61051 8.85623 8.60708 8.8606 8.59794 8.8606H8.30325C8.29583 8.8606 8.29126 8.85623 8.29126 8.84858V8.26104C8.29126 8.25339 8.29583 8.24902 8.30325 8.24902H8.59794C8.60765 8.24902 8.61051 8.25339 8.61051 8.26104V8.33748V8.33748Z" fill="#2C2C2C"/>
<path d="M9.02576 8.24805C9.03775 8.24805 9.04232 8.25405 9.04004 8.26497L8.90468 8.84652C8.9024 8.8558 8.89669 8.86017 8.88698 8.86017H8.80702C8.79732 8.86017 8.7916 8.8558 8.78932 8.84652L8.65511 8.26497C8.65283 8.25405 8.65739 8.24805 8.66939 8.24805H8.74534C8.75505 8.24805 8.76076 8.25242 8.76305 8.2617L8.847 8.67178L8.9321 8.2617C8.93438 8.25242 8.94009 8.24805 8.9498 8.24805H9.02576V8.24805Z" fill="#2C2C2C"/>
<path d="M11.2885 10.129C11.0503 12.0817 9.25021 13.5997 7.06515 13.5997C5.53286 13.5997 4.19019 12.8533 3.44261 11.7339L3 12.002L3.2233 11.3631L3.70246 9.99414L4.98117 10.1459L5.88467 10.253L5.33183 10.5882C6.03087 11.35 7.02574 11.8256 8.12912 11.8256C9.44039 11.8256 10.5975 11.1539 11.2885 10.129Z" fill="#0069D7"/>
<path d="M5.30384 10.0445C3.73158 8.77824 3.39919 6.50504 4.60423 4.76205C5.4489 3.53999 6.84012 2.88037 8.22905 2.90112L8.23933 2.40039L8.67395 2.9306L9.60428 4.06748L8.76704 5.00395L8.17537 5.66576L8.18736 5.03999C7.13709 5.17759 6.17363 5.7089 5.5654 6.58913C4.84238 7.63536 4.79041 8.9284 5.30384 10.0445V10.0445Z" fill="#0069D7"/>
<path d="M8.67505 5.04826C10.6208 4.41266 12.8287 5.312 13.7705 7.19751C14.4307 8.51949 14.3045 9.99983 13.57 11.1269L14.0138 11.3933L13.3147 11.4758L11.8161 11.6522L11.4084 10.4836L11.12 9.658L11.6745 9.99055C12.0926 9.05899 12.1125 7.99583 11.6374 7.04407C11.0726 5.91266 9.94005 5.20334 8.67505 5.04881V5.04826Z" fill="#0069D7"/>
</g>
<defs>
<clipPath id="clip0_201_63496">
<rect width="11.2" height="11.2" fill="white" transform="translate(3 2.40039)"/>
</clipPath>
</defs>
</svg>
