<svg width="40" height="40" viewBox="0 0 40 40" fill="none" xmlns="http://www.w3.org/2000/svg">
<circle cx="20" cy="20" r="20" fill="#6B7280"/>
<path d="M29.9944 14.2494C29.9944 13.0072 28.9872 12 27.745 12H12.2494C11.0072 12 10 13.0072 10 14.2494V25.7506C10 26.9928 11.0072 28 12.2494 28H27.745C28.9872 28 29.9944 26.9928 29.9944 25.7506V14.2494Z" fill="white"/>
<path d="M19.246 20.495H14.7498L14.6478 20.502C14.2819 20.5515 14 20.8654 14 21.2448C14 21.6242 14.2819 21.9381 14.6478 21.9876L14.7498 21.9946H19.246L19.348 21.9876C19.7139 21.9381 19.9958 21.6247 19.9958 21.2448C19.9958 20.8654 19.7139 20.5515 19.348 20.502L19.246 20.495ZM23.246 17H14.7498L14.6478 17.007C14.2819 17.0565 14 17.3704 14 17.7498C14 18.1292 14.2819 18.4431 14.6478 18.4926L14.7498 18.4996H23.246L23.348 18.4926C23.7139 18.4431 23.9958 18.1292 23.9958 17.7498C23.9958 17.3704 23.7139 17.0565 23.348 17.007L23.246 17Z" fill="#6B7280"/>
</svg>
