<svg width="16" height="12" viewBox="0 0 16 12" fill="none" xmlns="http://www.w3.org/2000/svg">
<mask id="mask0_330:424" style="mask-type:alpha" maskUnits="userSpaceOnUse" x="0" y="0" width="16" height="12">
<path d="M14.4762 0H1.52381C0.682233 0 0 0.682233 0 1.52381V9.90476C0 10.7463 0.682233 11.4286 1.52381 11.4286H14.4762C15.3178 11.4286 16 10.7463 16 9.90476V1.52381C16 0.682233 15.3178 0 14.4762 0Z" fill="white"/>
</mask>
<g mask="url(#mask0_330:424)">
<path d="M14.4762 0H1.52381C0.682233 0 0 0.682233 0 1.52381V9.90476C0 10.7463 0.682233 11.4286 1.52381 11.4286H14.4762C15.3178 11.4286 16 10.7463 16 9.90476V1.52381C16 0.682233 15.3178 0 14.4762 0Z" fill="white"/>
<path fill-rule="evenodd" clip-rule="evenodd" d="M7.99998 7.61909C9.05141 7.61909 9.90474 6.76576 9.90474 5.71433C9.90474 4.6629 9.05141 3.80957 7.99998 3.80957C6.94855 3.80957 6.09521 4.6629 6.09521 5.71433C6.09521 6.76576 6.94855 7.61909 7.99998 7.61909ZM7.99998 6.85719C8.63083 6.85719 9.14283 6.34519 9.14283 5.71433C9.14283 5.08347 8.63083 4.57148 7.99998 4.57148C7.36912 4.57148 6.85712 5.08347 6.85712 5.71433C6.85712 6.34519 7.36912 6.85719 7.99998 6.85719Z" fill="#00008A"/>
<path d="M8.00009 6.09491C8.21049 6.09491 8.38105 5.92435 8.38105 5.71396C8.38105 5.50357 8.21049 5.33301 8.00009 5.33301C7.7897 5.33301 7.61914 5.50357 7.61914 5.71396C7.61914 5.92435 7.7897 6.09491 8.00009 6.09491Z" fill="#00008A"/>
<path fill-rule="evenodd" clip-rule="evenodd" d="M0 7.61914H16V11.4287H0V7.61914Z" fill="#018900"/>
<path fill-rule="evenodd" clip-rule="evenodd" d="M0 0H16V3.80952H0V0Z" fill="#FF991E"/>
</g>
</svg>
