<svg width="24" height="24" viewBox="0 0 24 24" fill="none" xmlns="http://www.w3.org/2000/svg">
<path d="M12 24C8.8174 24 5.76515 22.7357 3.51472 20.4853C1.26428 18.2348 -6.63652e-07 15.1826 -5.24537e-07 12C-3.85421e-07 8.8174 1.26428 5.76516 3.51472 3.51472C5.76515 1.26428 8.8174 -1.83093e-07 12 -5.24537e-07L12 12L12 24Z" fill="#00A656"/>
<path d="M12 24C15.1826 24 18.2348 22.7357 20.4853 20.4853C22.7357 18.2348 24 15.1826 24 12C24 8.8174 22.7357 5.76516 20.4853 3.51472C18.2348 1.26428 15.1826 -1.83093e-07 12 -5.24537e-07L12 12L12 24Z" fill="#0074B8"/>
<g clip-path="url(#clip0_8618_98196)">
<path d="M7 9.28058L7.99099 6H13.036C14.2072 6 15.018 6.25899 15.6486 6.86331C16.2793 7.46763 16.5495 8.2446 16.5495 9.28058C16.5495 9.97122 16.3694 10.4892 16.0991 10.9209C15.8288 11.3525 15.3784 11.6115 14.8378 11.7842C15.5586 11.9568 16.0991 12.3022 16.4595 12.7338C16.8198 13.1655 17 13.8561 17 14.6331C17 15.7554 16.6396 16.6187 16.009 17.1367C15.3784 17.741 14.3874 18 13.1261 18H7.99099V9.28058H7ZM11.5946 8.84892V10.5755H12.1351C12.4054 10.5755 12.6757 10.4892 12.8559 10.3165C13.036 10.1439 13.1261 9.97122 13.1261 9.71223C13.1261 9.45324 13.036 9.19424 12.8559 9.10791C12.6757 8.93525 12.4054 8.84892 12.1351 8.84892H11.5946ZM11.5946 13.1655V15.0647H12.2252C12.5856 15.0647 12.8559 14.9784 13.036 14.8058C13.3063 14.6331 13.3964 14.3741 13.3964 14.1151C13.3964 13.7698 13.3063 13.5971 13.1261 13.4245C12.8559 13.2518 12.5856 13.1655 12.2252 13.1655H11.5946Z" fill="white"/>
</g>
<defs>
<clipPath id="clip0_8618_98196">
<rect width="10" height="12" fill="white" transform="translate(7 6)"/>
</clipPath>
</defs>
</svg>
