<svg width="38" height="38" viewBox="0 0 38 38" fill="none" xmlns="http://www.w3.org/2000/svg">
    <g clip-path="url(#3dysmjqgqa)">
        <path d="M36.813 32.063H20.186A1.188 1.188 0 0 1 19 30.875V7.125c0-.655.532-1.188 1.188-1.188h16.625c.655 0 1.187.532 1.187 1.188v23.75c0 .655-.532 1.188-1.188 1.188z" fill="#ECEFF1"/>
        <path d="M24.938 13.063h-4.75a1.188 1.188 0 0 1 0-2.376h4.75a1.188 1.188 0 0 1 0 2.376zM24.938 17.813h-4.75a1.188 1.188 0 0 1 0-2.375h4.75a1.188 1.188 0 0 1 0 2.374zM24.938 22.563h-4.75a1.188 1.188 0 0 1 0-2.375h4.75a1.188 1.188 0 0 1 0 2.375zM24.938 27.313h-4.75a1.188 1.188 0 0 1 0-2.375h4.75a1.188 1.188 0 0 1 0 2.375zM32.063 13.063h-2.376a1.188 1.188 0 0 1 0-2.376h2.375a1.188 1.188 0 0 1 0 2.376zM32.063 17.813h-2.376a1.188 1.188 0 0 1 0-2.375h2.375a1.188 1.188 0 0 1 0 2.374zM32.063 22.563h-2.376a1.188 1.188 0 0 1 0-2.375h2.375a1.188 1.188 0 0 1 0 2.375zM32.063 27.313h-2.376a1.188 1.188 0 0 1 0-2.375h2.375a1.188 1.188 0 0 1 0 2.375z" fill="#388E3C"/>
        <path d="M20.945 1.462a1.167 1.167 0 0 0-.976-.252l-19 3.563A1.184 1.184 0 0 0 0 5.939v26.125c0 .57.406 1.062.969 1.166l19 3.563a1.182 1.182 0 0 0 .976-.252c.273-.226.43-.563.43-.914V2.377c0-.354-.157-.69-.43-.915z" fill="#2E7D32"/>
        <path d="m16.33 22.968-3.754-4.292 3.797-4.883a1.19 1.19 0 0 0-.206-1.667 1.19 1.19 0 0 0-1.668.206l-3.517 4.522-2.964-3.386a1.181 1.181 0 0 0-1.674-.112 1.185 1.185 0 0 0-.112 1.674l3.266 3.734-3.311 4.256a1.19 1.19 0 0 0 .207 1.667 1.195 1.195 0 0 0 1.67-.209l3.027-3.895 3.454 3.945a1.178 1.178 0 0 0 1.674.114 1.185 1.185 0 0 0 .111-1.674z" fill="#FAFAFA"/>
    </g>
    <defs>
        <clipPath id="3dysmjqgqa">
            <path fill="#fff" d="M0 0h38v38H0z"/>
        </clipPath>
    </defs>
</svg>
