<svg width="12" height="8" viewBox="0 0 12 8" fill="none" xmlns="http://www.w3.org/2000/svg">
<path d="M10.9117 0.586159L10.5527 0.307159C10.4955 0.263018 10.4231 0.243217 10.3514 0.252066C10.2797 0.260915 10.2143 0.297698 10.1696 0.354409L6.1469 5.50841C6.12618 5.53607 6.09971 5.55893 6.06933 5.57543C6.03894 5.59194 6.00534 5.6017 5.97083 5.60405C5.93632 5.6064 5.9017 5.60128 5.86935 5.58905C5.837 5.57681 5.80768 5.55775 5.78339 5.53316L5.5145 5.28941C5.49032 5.26466 5.46106 5.24544 5.42872 5.23307C5.39639 5.2207 5.36176 5.21548 5.32721 5.21776C5.29266 5.22004 5.25901 5.22977 5.22859 5.24628C5.19817 5.2628 5.17169 5.2857 5.15099 5.31341L4.86708 5.67566C4.82256 5.73547 4.80083 5.80915 4.80579 5.88351C4.81074 5.95786 4.84206 6.02802 4.89412 6.08141L5.88553 7.03091C5.99293 7.13591 6.15667 7.12466 6.24905 7.00616L10.9597 0.970159C11.0041 0.912789 11.024 0.840207 11.015 0.768262C11.006 0.696317 10.9688 0.630852 10.9117 0.586159ZM7.8323 0.586159L7.47329 0.307159C7.4161 0.263018 7.34376 0.243217 7.27203 0.252066C7.20029 0.260915 7.13496 0.297698 7.09024 0.354409L3.06753 5.50841C3.0468 5.53607 3.02034 5.55893 2.98995 5.57543C2.95957 5.59194 2.92597 5.6017 2.89146 5.60405C2.85694 5.6064 2.82233 5.60128 2.78998 5.58905C2.75763 5.57681 2.72831 5.55775 2.70401 5.53316L1.05842 3.92591C1.00636 3.87562 0.936527 3.84788 0.864098 3.84872C0.791669 3.84957 0.722499 3.87892 0.671625 3.93041L0.353924 4.25516C0.303425 4.30693 0.275541 4.37658 0.276386 4.44884C0.277231 4.5211 0.306735 4.59008 0.35843 4.64066L2.80541 7.02941C2.91281 7.13441 3.07654 7.12316 3.16892 7.00466L7.87961 0.968659C7.92382 0.911551 7.94365 0.83932 7.93478 0.767685C7.92592 0.696051 7.88909 0.630809 7.8323 0.586159Z" fill="#1279FF"/>
</svg>
