<svg width="36" height="36" viewBox="0 0 36 36" fill="none" xmlns="http://www.w3.org/2000/svg">
<g filter="url(#filter0_d)">
<rect x="2" y="1" width="32" height="32" rx="16" fill="white"/>
<rect x="2.5" y="1.5" width="31" height="31" rx="15.5" stroke="#D1D5DB"/>
</g>
<path d="M18.8337 17C18.8337 16.5397 18.4606 16.1666 18.0003 16.1666C17.5401 16.1666 17.167 16.5397 17.167 17C17.167 17.4602 17.5401 17.8333 18.0003 17.8333C18.4606 17.8333 18.8337 17.4602 18.8337 17Z" stroke="#6B7280" stroke-width="1.66667" stroke-linecap="round" stroke-linejoin="round"/>
<path d="M12.9997 17C12.9997 16.5397 12.6266 16.1666 12.1663 16.1666C11.7061 16.1666 11.333 16.5397 11.333 17C11.333 17.4602 11.7061 17.8333 12.1663 17.8333C12.6266 17.8333 12.9997 17.4602 12.9997 17Z" stroke="#6B7280" stroke-width="1.66667" stroke-linecap="round" stroke-linejoin="round"/>
<path d="M24.6667 17C24.6667 16.5397 24.2936 16.1666 23.8333 16.1666C23.3731 16.1666 23 16.5397 23 17C23 17.4602 23.3731 17.8333 23.8333 17.8333C24.2936 17.8333 24.6667 17.4602 24.6667 17Z" stroke="#6B7280" stroke-width="1.66667" stroke-linecap="round" stroke-linejoin="round"/>
<defs>
<filter id="filter0_d" x="0" y="0" width="36" height="36" filterUnits="userSpaceOnUse" color-interpolation-filters="sRGB">
<feFlood flood-opacity="0" result="BackgroundImageFix"/>
<feColorMatrix in="SourceAlpha" type="matrix" values="0 0 0 0 0 0 0 0 0 0 0 0 0 0 0 0 0 0 127 0" result="hardAlpha"/>
<feOffset dy="1"/>
<feGaussianBlur stdDeviation="1"/>
<feColorMatrix type="matrix" values="0 0 0 0 0 0 0 0 0 0 0 0 0 0 0 0 0 0 0.05 0"/>
<feBlend mode="normal" in2="BackgroundImageFix" result="effect1_dropShadow"/>
<feBlend mode="normal" in="SourceGraphic" in2="effect1_dropShadow" result="shape"/>
</filter>
</defs>
</svg>
