<svg width="20" height="20" viewBox="0 0 20 20" fill="none" xmlns="http://www.w3.org/2000/svg">
    <circle cx="10" cy="10" r="10" fill="#073EED"/>
    <g clip-path="url(#ywuxb603ra)">
        <path d="M9.217 16a1.208 1.208 0 0 1-1.205-1.044L7.64 12.36l-2.597-.372a1.207 1.207 0 0 1-.981-.818 1.206 1.206 0 0 1 .294-1.243l5.57-5.57a1.21 1.21 0 0 1 1.242-.293c.44.147.754.522.819.98l.371 2.599 2.598.37c.458.066.834.38.98.82.147.439.035.915-.293 1.242l-5.57 5.57a1.21 1.21 0 0 1-.856.356z" fill="#fff"/>
        <path d="M10.965 11.061 12 12.121A2.885 2.885 0 0 1 9.929 13c-.81 0-1.541-.336-2.071-.878A3.028 3.028 0 0 1 7 10c0-.829.328-1.579.858-2.122A2.885 2.885 0 0 1 9.928 7c.81 0 1.542.336 2.072.878l-1.035 1.06a1.446 1.446 0 0 0-2.072 0A1.517 1.517 0 0 0 8.464 10c0 .414.164.79.429 1.061a1.446 1.446 0 0 0 2.072 0z" fill="#073EED"/>
    </g>
    <defs>
        <clipPath id="ywuxb603ra">
            <path fill="#fff" transform="translate(4 4)" d="M0 0h12v12H0z"/>
        </clipPath>
    </defs>
</svg>
