<svg width="16" height="16" viewBox="0 0 16 16" fill="none" xmlns="http://www.w3.org/2000/svg">
    <path d="m9.036 2.867 1.06 2.129c.142.295.525.574.848.634l1.915.317c1.224.204 1.51 1.095.63 1.987l-1.494 1.502c-.248.25-.39.74-.308 1.095l.428 1.858c.338 1.465-.443 2.039-1.727 1.269l-1.795-1.073c-.323-.196-.863-.196-1.186 0l-1.795 1.072c-1.284.763-2.065.197-1.727-1.268l.428-1.858c.082-.347-.06-.838-.308-1.095L2.51 7.934c-.878-.884-.593-1.775.631-1.987l1.915-.317c.323-.053.706-.34.849-.634l1.059-2.13c.563-1.155 1.494-1.155 2.072 0z" stroke="#4B5563" stroke-width="1.3" stroke-linecap="round" stroke-linejoin="round"/>
</svg>
