<svg width="24" height="24" viewBox="0 0 24 24" fill="none" xmlns="http://www.w3.org/2000/svg">
<path d="M12.1283 14.814V13.0173C12.1283 10.7073 13.9983 8.82812 16.3175 8.82812H18.1141" stroke="#4B5563" stroke-width="1.4" stroke-linecap="round" stroke-linejoin="round"/>
<path d="M6.15161 8.83789H7.9483C10.2583 8.83789 12.1375 10.7079 12.1375 13.027V13.6229V16.8129" stroke="#4B5563" stroke-width="1.4" stroke-linecap="round" stroke-linejoin="round"/>
<path d="M7.54501 7.1875L5.89502 8.8375L7.54501 10.4875" stroke="#4B5563" stroke-width="1.4" stroke-linecap="round" stroke-linejoin="round"/>
<path d="M16.455 7.1875L18.1049 8.8375L16.455 10.4875" stroke="#4B5563" stroke-width="1.4" stroke-linecap="round" stroke-linejoin="round"/>
<path d="M9.25004 21.1663H14.75C19.3334 21.1663 21.1667 19.333 21.1667 14.7497V9.24967C21.1667 4.66634 19.3334 2.83301 14.75 2.83301H9.25004C4.66671 2.83301 2.83337 4.66634 2.83337 9.24967V14.7497C2.83337 19.333 4.66671 21.1663 9.25004 21.1663Z" stroke="#4B5563" stroke-width="1.4" stroke-linecap="round" stroke-linejoin="round"/>
</svg>
