<svg width="12" height="12" viewBox="0 0 12 12" fill="none" xmlns="http://www.w3.org/2000/svg">
    <path d="M2 7.5S2.5 7 4 7s2.5 1 4 1 2-.5 2-.5v-6S9.5 2 8 2 5.5 1 4 1s-2 .5-2 .5v6z" fill="#F0D36D"/>
    <path d="M2 7.5h-.5v1.207l.854-.853L2 7.5zm8 0 .354.354.146-.147V7.5H10zm0-6h.5a.5.5 0 0 0-.854-.354L10 1.5zm-8 0-.354-.354-.146.147V1.5H2zm0 6 .353.354a.086.086 0 0 1-.003.003l-.003.003a.242.242 0 0 1-.005.004c-.002.002-.002.002 0 0a1.341 1.341 0 0 1 .28-.15c.248-.099.684-.214 1.378-.214v-1c-.806 0-1.37.135-1.748.286a2.33 2.33 0 0 0-.428.22 1.455 1.455 0 0 0-.173.136l-.002.002-.001.001h-.001L2 7.5zm2 0c.64 0 1.18.21 1.814.464C6.43 8.211 7.14 8.5 8 8.5v-1c-.64 0-1.18-.21-1.814-.464C5.57 6.789 4.86 6.5 4 6.5v1zm4 1c.806 0 1.37-.135 1.748-.286.189-.075.329-.154.428-.22a1.445 1.445 0 0 0 .154-.118l.014-.013.005-.005.002-.002.001-.001h.001L10 7.5a33.267 33.267 0 0 1-.353-.354.086.086 0 0 1 .003-.003l.003-.003a.262.262 0 0 1 .005-.004c.002-.002.002-.002 0 0a1.341 1.341 0 0 1-.28.15c-.248.099-.684.214-1.378.214v1zm2.5-1v-6h-1v6h1zm-.5-6a33.267 33.267 0 0 1-.353-.354.086.086 0 0 1 .003-.003l.003-.003a.216.216 0 0 1 .005-.004c.002-.002.002-.002 0 0a1.341 1.341 0 0 1-.28.15c-.248.099-.684.214-1.378.214v1c.806 0 1.37-.135 1.748-.286.189-.075.329-.154.428-.22a1.445 1.445 0 0 0 .154-.118l.014-.013.005-.005.002-.002.001-.001h.001L10 1.5zm-2 0c-.64 0-1.18-.21-1.814-.464C5.57.789 4.86.5 4 .5v1c.64 0 1.18.21 1.814.464C6.43 2.211 7.14 2.5 8 2.5v-1zm-4-1c-.806 0-1.37.135-1.748.286a2.33 2.33 0 0 0-.428.22 1.458 1.458 0 0 0-.173.136l-.002.002-.001.001h-.001L2 1.5l.353.354a.086.086 0 0 1-.003.003l-.003.003a.242.242 0 0 1-.005.004c-.002.002-.002.002 0 0a1.341 1.341 0 0 1 .28-.15c.248-.099.684-.214 1.378-.214v-1zm-2.5 1v6h1v-6h-1z" fill="#E4AF27"/>
    <path d="M1.5 11a.5.5 0 0 0 1 0h-1zm1 0V7.5h-1V11h1z" fill="#E4AF27"/>
</svg>
