<svg width="20" height="20" viewBox="0 0 20 20" fill="none" xmlns="http://www.w3.org/2000/svg">
<path d="M19.3377 10.6724C19.5367 10.5727 19.7041 10.4195 19.8211 10.23C19.9381 10.0406 20 9.8223 20 9.59964C20 9.37698 19.9381 9.15871 19.8211 8.96925C19.7041 8.77979 19.5367 8.62661 19.3377 8.52684L2.53768 0.126841C2.32938 0.022614 2.09524 -0.018737 1.86383 0.00783262C1.63243 0.0344022 1.41376 0.127744 1.2345 0.276471C1.05523 0.425198 0.923134 0.622882 0.854305 0.845406C0.785477 1.06793 0.782896 1.30568 0.846882 1.52964L2.56168 7.52964C2.63341 7.78041 2.78489 8.00099 2.99318 8.15797C3.20148 8.31495 3.45526 8.39979 3.71608 8.39964L9.20128 8.39964C9.51954 8.39964 9.82476 8.52607 10.0498 8.75111C10.2749 8.97616 10.4013 9.28138 10.4013 9.59964C10.4013 9.9179 10.2749 10.2231 10.0498 10.4482C9.82476 10.6732 9.51954 10.7996 9.20128 10.7996L3.71608 10.7996C3.45526 10.7995 3.20148 10.8843 2.99318 11.0413C2.78489 11.1983 2.63341 11.4189 2.56168 11.6696L0.848081 17.6696C0.783969 17.8935 0.786393 18.1312 0.85506 18.3538C0.923724 18.5763 1.05566 18.7741 1.23479 18.9229C1.41391 19.0718 1.63247 19.1653 1.86382 19.192C2.09517 19.2188 2.32931 19.1777 2.53768 19.0736L19.3377 10.6736L19.3377 10.6724Z" fill="#DFE3E6"/>
</svg>
