<svg width="16" height="16" viewBox="0 0 16 16" fill="none" xmlns="http://www.w3.org/2000/svg">
<path d="M15 7.5632L8.38112 13.8056C7.57026 14.5704 6.47049 15 5.32376 15C4.17703 15 3.07726 14.5704 2.2664 13.8056C1.45554 13.0409 1 12.0037 1 10.9222C1 9.84064 1.45554 8.80342 2.2664 8.03868L8.88528 1.79625C9.42585 1.28642 10.159 1 10.9235 1C11.688 1 12.4212 1.28642 12.9618 1.79625C13.5023 2.30608 13.806 2.99756 13.806 3.71856C13.806 4.43957 13.5023 5.13105 12.9618 5.64088L6.33568 11.8833C6.06539 12.1382 5.6988 12.2814 5.31656 12.2814C4.93431 12.2814 4.56773 12.1382 4.29744 11.8833C4.02715 11.6284 3.8753 11.2827 3.8753 10.9222C3.8753 10.5616 4.02715 10.2159 4.29744 9.961L10.4122 4.20084" stroke="#808B98" stroke-width="1.6" stroke-linecap="round" stroke-linejoin="round"/>
</svg>
