<svg width="32" height="32" viewBox="0 0 32 32" fill="none" xmlns="http://www.w3.org/2000/svg">
<g clip-path="url(#clip0_8858_143139)">
<path d="M26.3528 10.4461L19.4195 3.51273C19.219 3.3122 18.948 3.2002 18.6654 3.2002H7.46536C6.2867 3.2002 5.33203 4.15486 5.33203 5.33353V27.7335C5.33203 28.9122 6.2867 29.8669 7.46536 29.8669H24.532C25.7107 29.8669 26.6654 28.9122 26.6654 27.7335V11.2002C26.6654 10.9175 26.5534 10.6466 26.3528 10.4461ZM19.1987 11.7335C18.6099 11.7335 18.132 11.2557 18.132 10.6669V5.23113L24.6344 11.7335H19.1987Z" fill="#005B91"/>
<path d="M8.54688 17.6H10.4309L11.2709 23.612H11.2949L12.1349 17.6H14.0189V26H12.7709V19.64H12.7469L11.7869 26H10.6829L9.72288 19.64H9.69888V26H8.54688V17.6Z" fill="white"/>
<path d="M15.0039 17.6H16.9479C17.6039 17.6 18.0959 17.776 18.4239 18.128C18.7519 18.48 18.9159 18.996 18.9159 19.676V20.504C18.9159 21.184 18.7519 21.7 18.4239 22.052C18.0959 22.404 17.6039 22.58 16.9479 22.58H16.3239V26H15.0039V17.6ZM16.9479 21.38C17.1639 21.38 17.3239 21.32 17.4279 21.2C17.5399 21.08 17.5959 20.876 17.5959 20.588V19.592C17.5959 19.304 17.5399 19.1 17.4279 18.98C17.3239 18.86 17.1639 18.8 16.9479 18.8H16.3239V21.38H16.9479Z" fill="white"/>
<path d="M21.5048 26.12C20.8568 26.12 20.3648 25.94 20.0288 25.58C19.7008 25.22 19.5368 24.704 19.5368 24.032V23.348H20.7848V24.092C20.7848 24.644 21.0128 24.92 21.4688 24.92C21.6928 24.92 21.8608 24.852 21.9728 24.716C22.0928 24.572 22.1528 24.324 22.1528 23.972V23.288C22.1528 22.904 22.0848 22.632 21.9488 22.472C21.8128 22.304 21.5928 22.22 21.2888 22.22H20.8448V21.02H21.3248C21.5888 21.02 21.7848 20.952 21.9128 20.816C22.0488 20.68 22.1168 20.452 22.1168 20.132V19.52C22.1168 19.232 22.0568 19.02 21.9368 18.884C21.8168 18.748 21.6568 18.68 21.4568 18.68C21.0328 18.68 20.8208 18.94 20.8208 19.46V20.012H19.5728V19.568C19.5728 18.896 19.7368 18.38 20.0648 18.02C20.4008 17.66 20.8808 17.48 21.5048 17.48C22.1368 17.48 22.6168 17.66 22.9448 18.02C23.2728 18.372 23.4368 18.884 23.4368 19.556V19.856C23.4368 20.312 23.3608 20.68 23.2088 20.96C23.0568 21.232 22.8208 21.428 22.5008 21.548V21.572C22.8448 21.7 23.0928 21.908 23.2448 22.196C23.3968 22.484 23.4728 22.852 23.4728 23.3V24.044C23.4728 24.716 23.3048 25.232 22.9688 25.592C22.6408 25.944 22.1528 26.12 21.5048 26.12Z" fill="white"/>
</g>
<defs>
<clipPath id="clip0_8858_143139">
<rect width="32" height="32" fill="white"/>
</clipPath>
</defs>
</svg>
