<svg width="32" height="32" viewBox="0 0 32 32" fill="none" xmlns="http://www.w3.org/2000/svg">
<g clip-path="url(#clip0_8858_143132)">
<path d="M26.3528 10.4461L19.4195 3.51273C19.219 3.3122 18.948 3.2002 18.6654 3.2002H7.46536C6.2867 3.2002 5.33203 4.15486 5.33203 5.33353V27.7335C5.33203 28.9122 6.2867 29.8669 7.46536 29.8669H24.532C25.7107 29.8669 26.6654 28.9122 26.6654 27.7335V11.2002C26.6654 10.9175 26.5534 10.6466 26.3528 10.4461ZM19.1987 11.7335C18.6099 11.7335 18.132 11.2557 18.132 10.6669V5.23113L24.6344 11.7335H19.1987Z" fill="#B6684B"/>
<path d="M8.54688 17.6001H10.4309L11.2709 23.6121H11.2949L12.1349 17.6001H14.0189V26.0001H12.7709V19.6401H12.7469L11.7869 26.0001H10.6829L9.72288 19.6401H9.69888V26.0001H8.54688V17.6001Z" fill="white"/>
<path d="M15.0039 17.6001H16.9479C17.6039 17.6001 18.0959 17.7761 18.4239 18.1281C18.7519 18.4801 18.9159 18.9961 18.9159 19.6761V20.5041C18.9159 21.1841 18.7519 21.7001 18.4239 22.0521C18.0959 22.4041 17.6039 22.5801 16.9479 22.5801H16.3239V26.0001H15.0039V17.6001ZM16.9479 21.3801C17.1639 21.3801 17.3239 21.3201 17.4279 21.2001C17.5399 21.0801 17.5959 20.8761 17.5959 20.5881V19.5921C17.5959 19.3041 17.5399 19.1001 17.4279 18.9801C17.3239 18.8601 17.1639 18.8001 16.9479 18.8001H16.3239V21.3801H16.9479Z" fill="white"/>
<path d="M21.8408 24.4761H19.3208V23.2761L21.7208 17.6001H23.1608V23.2761H23.7848V24.4761H23.1608V26.0001H21.8408V24.4761ZM21.8408 23.2761V20.0001H21.8168L20.5208 23.2761H21.8408Z" fill="white"/>
</g>
<defs>
<clipPath id="clip0_8858_143132">
<rect width="32" height="32" fill="white"/>
</clipPath>
</defs>
</svg>
