<svg width="40" height="40" viewBox="0 0 40 40" fill="none" xmlns="http://www.w3.org/2000/svg">
    <circle cx="20" cy="20" r="20" fill="#fff"/>
    <path d="M22.541 14.165a4.166 4.166 0 0 1 3.292 3.292m-3.291-6.625a7.5 7.5 0 0 1 6.624 6.617m-.833 6.65v2.5a1.667 1.667 0 0 1-1.816 1.666 16.491 16.491 0 0 1-7.192-2.558 16.248 16.248 0 0 1-5-5 16.492 16.492 0 0 1-2.558-7.225 1.668 1.668 0 0 1 1.658-1.817h2.5A1.666 1.666 0 0 1 17.59 13.1c.106.8.302 1.585.584 2.341A1.667 1.667 0 0 1 17.8 17.2l-1.059 1.058a13.333 13.333 0 0 0 5 5l1.059-1.058a1.665 1.665 0 0 1 1.758-.375 10.7 10.7 0 0 0 2.342.583 1.666 1.666 0 0 1 1.433 1.692z" stroke="#178713" stroke-width="1.4" stroke-linecap="round" stroke-linejoin="round"/>
</svg>
