<svg width="550" height="315" viewBox="0 0 550 315" fill="none" xmlns="http://www.w3.org/2000/svg">
    <path d="M39.508 311.513S-49.39 266 39.514 198c59.65-63.498-10.878-154.077 70.093-186.968 87.54-35.56 183.851 27.07 220.5 17.454 73.096-19.182 165.811-9.736 150.385 83.437-19.365 116.959 60.086 102.041 12.897 199.982l-453.88-.39-.002-.002z" fill="url(#cxvhxjmvka)"/>
    <path d="M507.636 132.178c-1.953-1.191-3.901-2.392-5.876-3.54-1.061-.616-1.516-1.435-1.432-2.689.143-2.13.115-4.268-.215-6.386-.166-1.06.212-1.788 1.135-2.332a360.335 360.335 0 0 0 6.4-3.878c1.451-.894 1.648-1.548.909-3.112-.934-1.976-1.935-3.918-2.853-5.901-.627-1.36-1.6-1.663-2.933-1.175-2.047.753-4.106 1.473-6.135 2.273-1.164.46-2.065.353-2.877-.694a27.53 27.53 0 0 0-4.571-4.672c-.852-.682-.98-1.542-.627-2.524.618-1.713 1.235-3.424 1.85-5.138.609-1.698.387-2.339-1.208-3.152-1.897-.966-3.825-1.876-5.741-2.811-1.551-.757-2.197-.604-3.121.854a185.481 185.481 0 0 0-3.073 5.069c-.546.932-1.286 1.254-2.35 1.063-2.883-.513-5.791-.588-8.697-.282-.873.091-1.354-.197-1.766-.9-.995-1.708-2.041-3.384-3.045-5.088-.668-1.132-1.551-1.463-2.753-.87-2.097 1.036-4.203 2.049-6.3 3.087-1.235.613-1.557 1.567-1.045 2.855.462 1.16.833 2.355 1.301 3.512.484 1.2.203 2.089-.871 2.818a27.696 27.696 0 0 0-6.453 6.063c-.833 1.085-1.731 1.301-2.983.798-2.072-.832-4.181-1.57-6.281-2.327-1.114-.4-2.035-.225-2.603.957a583.589 583.589 0 0 1-3.095 6.304c-.659 1.32-.312 2.258.948 2.996 2.154 1.26 4.257 2.605 6.404 3.875.986.581 1.341 1.372 1.132 2.483a20.302 20.302 0 0 0-.243 5.907c.165 1.585-.434 2.526-1.782 3.264-1.869 1.023-3.648 2.202-5.486 3.281-1.232.722-1.647 1.638-.97 2.986 1.03 2.045 2.016 4.109 3.008 6.173.571 1.192 1.451 1.542 2.69 1.088 1.657-.609 3.314-1.225 4.986-1.785 1.673-.56 2.216-.282 3.027 1.413.855.757 1.535 1.658 2.181 2.583.156.226.312.451.465.676.412.325.815.66 1.214 1.001a27.027 27.027 0 0 0 3.455 2.898c.109.082.215.166.324.247.712.582.924 1.311.702 2.268a285.28 285.28 0 0 0-.93 4.218l-.018.05c-.253.579-.362 1.098-.319 1.558l-.318 1.501c-.349 1.673-.009 2.264 1.632 2.801 2.072.679 4.169 1.283 6.238 1.98 1.416.478 2.306-.022 2.867-1.326.737-1.72 1.495-3.43 2.21-5.16.24-.094.343-.341.44-.556.696-1.564 1.828-2.017 3.523-1.795 2.218.29 4.468.09 6.668-.344 1.245-.244 2.081.118 2.721 1.232 1.086 1.895 2.256 3.74 3.392 5.607.646 1.06 1.532 1.348 2.659.797a2501.68 2501.68 0 0 0 6.163-3.011c1.357-.666 1.7-1.661 1.132-3.09-.73-1.836-1.332-3.721-2.019-5.576-.396-1.072-.156-1.898.731-2.623 2.265-1.855 4.259-3.975 5.872-6.423.765-1.161 1.692-1.405 2.94-.932 1.654.622 3.329 1.185 4.986 1.795 1.258.462 2.113.031 2.684-1.123.989-2.005 2.006-4 2.967-6.02.724-1.526.487-2.22-.958-3.102l-.009.006zm-23.971.582c-3.789 6.164-9.589 8.618-16.766 7.802v.063l-.069-.01c-2.013-.35-3.848-.957-5.486-1.807-6.331-3.668-9.486-10.129-8.416-17.35.999-6.732 6.36-12.58 12.956-13.768 7.059-1.273 13.29.478 17.378 6.645 3.901 5.882 4.141 12.33.4 18.422l.003.003z" fill="#CADCFB"/>
    <path d="M107.114 220.141c12.981 0 25.962.006 38.943.006.243 1.009.931 1.14 1.802.922.431-.123.422-.479.437-.823 5.532-.033 11.06-.069 16.591-.096 2.592-.012 5.184.015 7.776-.009.907-.009 1.557.108 1.53 1.266-.021 1.021-.162 1.865-1.437 1.715-1.631-.188-1.583.829-1.583 1.961.012 24.457.009 48.913.009 73.37 0 1.61-.817 2.416-2.452 2.416-22.676 0-45.354-.003-68.03-.006-.021-.348-.066-.695-.057-1.039.341-11.787 1.158-23.547 2.17-35.292.811-9.413 1.676-18.821 2.574-28.225.515-5.394 1.143-10.778 1.721-16.166h.006zm14.93 52.625v.006c-1.096 0-2.188-.006-3.284.003-.395.003-.907-.012-.991.467a11.733 11.733 0 0 0 0 3.996c.09.512.617.598 1.084.598 2.089.006 4.178.006 6.268 0 .697 0 1.071-.314 1.185-1.05.557-3.592.209-4.02-3.367-4.02h-.895zm-.06-31.389c-4.807.093-4.31-.799-4.343 3.709-.006 1.041.506 1.398 1.475 1.377 1.239-.027 2.479.003 3.718-.006 3.858-.03 3.442.49 3.493-3.676.012-1-.318-1.473-1.368-1.416-.988.054-1.982.012-2.975.009v.003zm25.339-15.25c.689.048 1.314.018 1.306-.934-.009-.993-.506-1.397-1.473-1.415-.883-.018-1.063.434-1.075 1.197-.015.904.36 1.278 1.245 1.155l-.003-.003zm10.123.015c1.009-.054 1.862.183 1.901-.99.033-.922-.53-1.063-1.245-1.018-.689.042-1.566-.252-1.587.967-.015.907.485 1.083.928 1.044l.003-.003zm11.036-.021c.772.006 1.481.108 1.49-.972.006-.925-.508-1.063-1.227-1.015-.643.042-1.43-.213-1.475.907-.039 1 .497 1.158 1.212 1.08zm-5.226-1.984c-.742-.03-1.392-.015-1.368 1.033.024 1.086.76.939 1.44.957.679.018 1.263 0 1.281-.96.018-1.054-.626-1.06-1.35-1.027l-.003-.003zm-10.829-.003c-.68-.015-1.275 0-1.293.958-.018 1.038.619 1.044 1.359 1.041.733 0 1.373.006 1.361-1.038-.014-1.096-.754-.943-1.427-.964v.003zM299.488 240.189c20.577 0 41.155-.009 61.733 0 .685 0 1.601-.281 1.694.901.063.826-.021 1.548-1.122 1.476-1.006-.066-1.329.449-1.264 1.368.03.395.003.796.003 1.194v58.71c0 1.409-.717 2.114-2.152 2.116h-57.399c-1.376 0-2.066-.682-2.068-2.047 0-11.553 0-23.107.006-34.657 0-.635-.15-1.305.305-1.871 4.367 3.921 8.734 7.845 13.104 11.763.59.527 1.144 1.128 2.012 1.194 1.176 1.925 2.086 3.93 1.903 6.265-.544 2.706.44 3.993 3.071 3.544a55.14 55.14 0 0 1 9.333-.8c1.544 0 3.065-.368 4.474-1.044a6.835 6.835 0 0 0 1.497-.958c.781-.667.802-1.248-.341-1.511-1.215-.282-2.437-.503-3.694-.422-4.193-.925-7.641-3.089-10.455-6.301.683-.781.204-1.485-.155-2.191-3.278-6.48-6.744-12.858-10.249-19.216-3.265-5.923-6.758-11.712-10.239-17.507l.003-.006zm20.955 21.512c.694 0 1.391-.03 2.086.006 1.068.054 1.583-.401 1.514-1.491a14.28 14.28 0 0 1-.003-1.341c.033-.933-.401-1.37-1.341-1.355-1.242.018-2.484 0-3.726 0-2.044.006-2.107.071-2.107 2.08 0 2.029.063 2.092 2.089 2.101h1.491-.003z" fill="#E3EAF5"/>
    <path d="M121.092 152.288c-.778-1.622-1.299-1.889-2.904-1.353-1.607.536-3.193 1.125-4.783 1.709-1.185.437-2.029.099-2.58-1.042-.951-1.975-1.897-3.95-2.885-5.908-.652-1.293-.251-2.167.931-2.861 1.763-1.033 3.472-2.161 5.262-3.14 1.296-.707 1.871-1.608 1.709-3.125a19.474 19.474 0 0 1 .233-5.654c.201-1.063-.14-1.82-1.086-2.377-2.059-1.215-4.077-2.502-6.142-3.708-1.209-.706-1.542-1.604-.91-2.867 1-2.006 1.996-4.014 2.969-6.035.548-1.131 1.428-1.299 2.496-.916 2.015.725 4.038 1.431 6.026 2.227 1.2.482 2.062.276 2.861-.763a26.472 26.472 0 0 1 6.19-5.804c1.029-.697 1.299-1.547.835-2.696-.446-1.108-.805-2.251-1.248-3.362-.491-1.233-.186-2.146 1.002-2.732 2.009-.994 4.032-1.964 6.044-2.954 1.155-.57 1.999-.252 2.64.832.963 1.628 1.966 3.235 2.921 4.869.395.674.859.952 1.694.862 2.787-.293 5.579-.221 8.342.27 1.02.179 1.73-.126 2.254-1.018.96-1.631 1.936-3.253 2.948-4.852.883-1.397 1.505-1.541 2.993-.817 1.838.895 3.684 1.766 5.507 2.691 1.53.778 1.739 1.389 1.159 3.017-.587 1.64-1.183 3.28-1.775 4.918-.339.94-.216 1.763.601 2.415a26.355 26.355 0 0 1 4.385 4.472c.778 1.003 1.643 1.104 2.76.664 1.945-.766 3.921-1.454 5.884-2.176 1.275-.47 2.209-.176 2.811 1.126.88 1.897 1.841 3.756 2.736 5.648.706 1.496.52 2.122-.871 2.978a347.28 347.28 0 0 1-6.139 3.711c-.889.521-1.248 1.219-1.09 2.233.317 2.027.347 4.074.207 6.112-.081 1.2.356 1.982 1.374 2.574 1.894 1.099 3.762 2.248 5.636 3.389 1.388.844 1.613 1.511.919 2.969-.919 1.933-1.895 3.84-2.847 5.761-.548 1.105-1.368 1.518-2.574 1.075-1.589-.584-3.197-1.119-4.783-1.718-1.197-.449-2.086-.216-2.82.892-1.547 2.344-3.457 4.373-5.633 6.148-.85.691-1.083 1.484-.7 2.511.658 1.775 1.236 3.58 1.937 5.337.544 1.368.218 2.319-1.087 2.957a2291.06 2291.06 0 0 1-5.911 2.882c-1.081.524-1.931.249-2.551-.763-1.092-1.784-2.214-3.553-3.253-5.367-.611-1.065-1.413-1.415-2.61-1.179-2.113.416-4.268.608-6.396.329-1.626-.212-2.715.222-3.38 1.718-.113.255-.236.563-.61.569.09-.584.126-1.182.281-1.745.692-2.475 1.362-4.953 1.886-7.471.161-.775.021-1.344-.449-1.9 1.179-1.455 1.655-3.119 1.505-4.975 6.882.781 12.449-1.568 16.082-7.468 3.592-5.83 3.362-12.002-.383-17.632-3.921-5.903-9.898-7.576-16.668-6.361-6.328 1.138-11.47 6.735-12.428 13.179-1.062 7.154 2.218 13.535 8.734 16.971-.613 1.631-.928 3.313-.823 5.061-.682 0-1.018.384-1.323.976-2.281 4.433-4.424 8.941-6.938 13.251-1.431-.71-1.727-1.763-1.092-3.212.517-1.182.918-2.415 1.352-3.633.291-.812.285-1.656-.472-2.168-1.946-1.313-3.592-2.981-5.427-4.42-.76-1.111-1.521-2.221-2.538-3.122l.003-.009z" fill="#CADCFB"/>
    <path d="M107.114 220.14c-.578 5.388-1.207 10.772-1.721 16.166a3061.591 3061.591 0 0 0-2.574 28.225c-1.012 11.745-1.829 23.505-2.171 35.292-.008.344.036.691.057 1.039-.332 2.382.186 4.765.012 7.15-2.16.859-4.433.964-6.716.973-1.099-2.751-1.38-5.696-1.97-8.557a517.77 517.77 0 0 1-4.28-23.511c-.05-.324.018-.719-.646-1.027-1.65 10.829-3.667 21.512-4.06 32.412-2.325.743-4.707.506-7.084.422-1.06-6.39-1.739-12.828-2.397-19.266-.871-8.525-1.631-17.058-1.431-25.642.066-2.847.27-5.639 1.155-8.396.704-2.188.611-4.538.632-6.821.093-10.366-.341-20.713-1.042-31.054-.045-.646-.054-1.293-.08-1.94.472.12.94.273 1.418.351 11.003 1.769 22.018 1.805 33.041.227.255 1.332-.281 2.637-.134 3.966l-.009-.009z" fill="#3E3E89"/>
    <path opacity=".5" d="M107 219.253s-.637 1.044-3.02 2.478c-3.896 2.344-12.45 5.722-30.49 7.269-.084-2.332-.158-4.516-.22-6.505-.23-7.116-.846-8.346-.77-8.495l16.316-6 15.726 5.286L107 215.5h.5l-.5 3.753z" fill="#30306E"/>
    <path d="M107.249 216.176c-11.024 1.578-22.039 1.542-33.041-.227-.48-.078-.946-.231-1.42-.35-1.322-1.248-1.214-2.844-1.074-4.442.398-4.418 1.41-8.737 2.24-13.08 1.113-5.834 1.418-11.736 1.825-17.639.467-6.728 2.392-13.085 5.253-19.167 1.58-3.356 4.37-4.733 7.953-4.778 3.094.225 6.183.539 9.293.482 1.958.333 3.924.617 5.87 1.009 1.616.326 3.199.862 4.421 2.014.793.749 1.355.671 2.164.039 2.933-2.292 5.911-4.525 8.88-6.77.47-.356.985-.656 1.479-.982 1.017.901 1.778 2.012 2.538 3.122-2.359 3.206-4.906 6.262-7.522 9.258-.353.404-.865.793-.167 1.335 3.136 2.445 6.246 4.929 9.602 7.084.631.404 1.11.27 1.481-.377.742-1.293 1.497-2.577 2.245-3.867 2.514-4.31 4.657-8.818 6.938-13.25.305-.593.641-.976 1.323-.976 1.416.117 2.676.751 3.981 1.227.473.56.61 1.125.449 1.901-.524 2.52-1.197 4.995-1.886 7.47-.158.563-.191 1.162-.281 1.745l.006-.038c-.024.038-.072.083-.066.113.018.084.06.159.093.24-1.865 3.678-2.969 7.698-5.118 11.251-1.425 2.355-2.961 4.597-5.226 6.258-.746.545-1.443.704-2.356.503-5.651-1.23-11.203-2.807-16.684-4.645-3.026-1.371-6.201-2.433-8.988-4.304-.269-.183-.626-.446-.952-.165-.317.27-.123.647-.045.979.802 3.391 1.775 6.735 3.332 9.862 1.556 3.128 3.451 6.026 6.138 8.33.18.494.075.982-.044 1.467-.446.581-.422 1.176-.063 1.787.039 1.404.057 2.807-.234 4.193-.413.476-.407.97-.075 1.485.036 1.005.069 2.014-.203 2.999-.359.272-.368.571-.069.898.012.805.045 1.61-.224 2.388-.249.168-.309.362-.084.599-.138 1.122-.291 2.242-.41 3.367-.087.82-.518 1.344-1.266 1.643l-.006.009z" fill="#4E4E98"/>
    <path d="M314.342 280.331c-.868-.066-1.422-.664-2.011-1.194-4.37-3.918-8.737-7.842-13.104-11.763-2.943-2.897-5.867-5.813-8.638-8.878-.898-.993-.976.234-1.147.683a2054.238 2054.238 0 0 0-5.797 15.531c-.758 2.05-1.659 4.05-2.168 6.187-.335.754-.664 1.512-1.005 2.263-.35.772-.365 1.757-1.35 2.128l-.536-.027c-1.96-.219-3.807-.826-5.585-1.658-1.125-.575-.994-1.539-.868-2.565.907-7.471 1.871-14.933 3.385-22.314.03-.141-.009-.293-.015-.44l1.302-5.549c.638-1.967 1.275-3.93 1.916-5.897.197-.607.206-1.029-.626-.661-.422.14-.865.236-1.26.428-5.154 2.493-10.407 4.69-16.121 5.558-.332.051-.545.21-.661.515-7.705.009-15.406.045-23.11.015-1.985-.006-3.206-1.194-3.804-3.02a21.218 21.218 0 0 1-1.036-5.702c-.245-5.546 1.015-10.85 2.577-16.106l10.114-.674c-.039 1.117.542 1.326 1.577 1.326 14.304-.027 28.611-.009 42.916.006.643 0 1.284.09 1.927.141 2.966 3.694 5.591 7.629 8.276 11.524 3.481 5.794 6.974 11.583 10.24 17.506 3.505 6.358 6.971 12.739 10.248 19.216.356.707.838 1.41.156 2.191-1.805 1.003-3.823.997-5.792 1.227v.003z" fill="#3E3E89"/>
    <path d="m390.496 232.537.003-.003c3.513-3.1 6.694-6.562 10.437-9.408 4.107.18 8.151-.188 12.152-1.194 2.802-.703 5.481-1.739 8.193-2.694.35 9.952 1.107 19.878 1.798 29.809.225 3.226.393 6.462.752 9.674.38 3.376-.365 6.498-1.557 9.607-4.453 11.626-9.395 23.048-14.444 34.424-.243.545-.422 1.156-1.198 1.135-2.269-.437-4.561-.659-6.869-.769-.868-.449-.371-1.156-.254-1.713 2.684-12.708 5.393-25.414 8.102-38.12.548-2.565-.416-5.028-.515-7.549-.033-.814-.224-1.625-.359-2.553-.712.506-.673 1.153-.862 1.682-1.066 3.003-2.11 6.014-3.164 9.019-.64 1.828-1.984 3.211-3.083 4.738-7.216 10.021-14.471 20.012-21.718 30.009-.344.476-.598 1.047-1.2 1.287-2.472-1.084-3.921-3.149-5.187-5.391.676-2.676 2.131-5.016 3.271-7.489 4.068-8.808 8.223-17.578 12.284-26.393.778-1.691.608-3.613.835-5.429.871-6.959 1.697-13.927 2.527-20.892.068-.59.041-1.192.059-1.787h-.003z" fill="#CADCFB"/>
    <path d="M390.499 232.534c3.513-3.1 6.694-6.562 10.437-9.408-1.42-.034-7.549-.81-10.437-1.194v10.602z" fill="#CADCFB"/>
    <path d="m244.791 227.191-10.114.674c-.587-.039-1.173-.105-1.76-.117-3.307-.069-6.606-.192-9.803-1.179-2.307-.74-3.241-2.422-3.343-4.738-.161-3.61.482-7.118 1.254-10.614.877-3.978 2.242-7.815 3.409-11.709 1.41-3.014 2.512-6.163 4.08-9.111 1.269-2.386 3.026-4.125 5.558-5.139 2.754-1.105 5.597-1.727 8.54-1.973 1.948 1.41 4.091 2.398 6.477 2.739 1.613.23 3.08-.063 3.837-1.778 2.808.485 5.504 1.305 8.004 2.691 1.469.814 2.669 1.873 3.13 3.595 1.141 4.262 2.302 8.515 3.457 12.774-.682 0-.901.494-1.122 1.018a235.563 235.563 0 0 1-1.643 3.84c-2.152 4.915-4.313 9.826-6.468 14.738-2.44-1.416-5.029-1.88-7.791-1.197-2.045-1.362-4.364-2.161-6.615-3.05-3.822-1.512-6.415-3.828-6.75-8.207-.09-1.159.18-2.491-.829-3.748-1.047 1.838-2.373 3.323-2.99 5.244-1.335 1.233-1.987 2.901-2.822 4.451-.243.455-.048.814.413.913 1.044.224 2.035.811 3.166.536.521.539 1.233.604 1.904.757 2.751.629 5.513 1.215 8.258 1.865 1.404.332 2.754.82 3.867 1.796.087 1.158-.236 2.355.326 3.469-.341.308-.356.718-.368 1.134-1.068.284-2.221-.248-3.262.326z" fill="#DB6142"/>
    <path d="M423.663 185.157c-.796 1.209-1.688 1.517-3.209 1.006-2.436-.824-4.708-.078-6.608 1.67-7.322 6.737-14.637 13.478-21.958 20.212-.254.234-.548.422-.823.632-.033-5.777-.033-11.551-.114-17.327-.027-1.838-.254-3.673-.419-5.505-.027-.314.039-.781-.422-.847-.317-.045-.491.291-.667.527-.683.919-1.467 1.784-2.021 2.775-.694 1.239-1.472 1.421-2.562.574-2.329-1.643-4.711-3.202-7.207-4.582-.764-.485-1.087-.97-.509-1.928 2.709-4.468 5.498-8.871 8.895-12.87 2.152-2.532 4.733-4.176 8.052-4.696 2.158-.339 4.274-.949 6.486-.931 1.401 2.966 2.993 5.812 5.331 8.162.661.664 1.419 1.425 2.454 1.03 1.003-.383 1.12-1.422 1.263-2.362.359-2.335-.057-4.639-.287-6.95 6.178-.054 9.515 2.218 11.712 7.977 1.649 4.322 2.227 8.853 2.61 13.424l.003.009z" fill="#3E3E89"/>
    <path d="M244.791 227.194c1.042-.575 2.191-.042 3.263-.327 2.385.069 4.768.174 7.15-.056 1.452.461 1.883-.39 2.035-1.59.629-.646.815-1.49 1.042-2.316 2.158-4.912 4.316-9.824 6.468-14.739.56-1.275 1.108-2.556 1.643-3.84.219-.524.44-1.014 1.123-1.017 9.56.018 19.123.039 28.683.056 1.694.003 3.388.051 5.079-.014 1.159-.045 1.377.281.91 1.349-2.113 4.831-4.178 9.683-6.258 14.529-1.159 2.697-2.329 5.391-3.467 8.099-.26.62-.514 1.186-1.248 1.344-.643-.048-1.287-.14-1.927-.14-14.304-.015-28.611-.033-42.916-.006-1.038 0-1.616-.21-1.577-1.326l-.003-.006z" fill="#BACBE4"/>
    <path d="M242.608 183.287c-2.942.248-5.788.871-8.539 1.972-2.532 1.015-4.289 2.754-5.558 5.139-1.569 2.948-2.67 6.097-4.08 9.111-2.062-.805-3.577-2.152-4.181-4.34-.201-.721-.533-.961-1.275-.826a5.99 5.99 0 0 1-3.511-.422c-2.691-1.164-3.251-4.346-1.126-6.366.321-.306.686-.563.982-.802.105-.345-.132-.413-.281-.506-3.191-1.997-3.263-5.181-.129-7.312 2.272-1.545 4.831-1.718 7.465-1.392 1.284.158 2.559.404 3.843.527 3.945.38 6.737-1.422 8.066-5.182.686-1.933.928-3.968 1.293-5.974 1.282-7.034 8.136-11.209 14.813-9.051 1.009.326 2.108.682 2.727 1.479 1.404 1.804 3.454 2.062 5.397 2.448 1.873.374 2.837 1.544 3.149 3.158.565 2.93-.189 5.693-1.65 8.267-.212-.315-.122-.665-.137-1.009-.072-1.688-.078-3.397-.779-4.984-.664-1.505-.912-1.571-2.25-.649-3.311 2.284-6.714 4.325-10.958 4.127-.539-.023-.844.138-.922.704-.147 1.083-.404 2.155-.264 3.262.405 3.14-.454 5.978-2.098 8.621h.003z" fill="#FE7032"/>
    <path d="M223.115 226.573c3.196.988 6.495 1.108 9.802 1.18.587.012 1.173.077 1.76.116-1.565 5.256-2.825 10.56-2.577 16.106a21.21 21.21 0 0 0 1.036 5.702c.598 1.826 1.819 3.011 3.804 3.02 7.704.03 15.406-.006 23.11-.015h11.604l5.151.054-1.302 5.549c-14.846 0-29.691.006-44.54.009-1.985 0-1.952.006-2.063 1.919-.883 15.355-1.781 30.706-2.672 46.061-.039.656-.03 1.461-.937 1.395-1.009-.075-.808-.979-.794-1.64.267-11.296.548-22.595.824-33.891.101-4.131.176-8.261.308-12.392.03-.925-.141-1.589-1.048-2.068-.984-.518-1.532-1.479-1.532-2.586 0-9.506.039-19.016.066-28.522v.003z" fill="#C8D9FA"/>
    <path d="M244.491 141.907c-1.78-3.624-4.426-6.363-7.88-8.533-5.648-3.553-7.657-10.473-5.265-16.989 2.065-5.621 8.425-9.53 14.367-8.827 6.974.823 12.035 5.786 12.831 12.53.32 2.702.006 5.369-1.326 7.68-2.065 3.58-2.921 7.366-2.87 11.428-.695.167-1.389.338-2.083.505.377-4.971 1.137-9.931.619-14.95-.302.242-.383.527-.527.775-.212.374.189 1.212-.616 1.093-.629-.093-.677-.767-.68-1.338-.003-.746.036-1.5-.056-2.236-.093-.734-.276-1.724-1.171-1.64-1.002.092-1.209 1.104-1.104 1.978.087.73.371 1.44.601 2.146.129.395.273.772-.11 1.093-.398.332-.832.236-1.263.047-.647-.281-.806-.811-.803-1.46.006-.895.06-1.799-.299-2.652-.218-.521-.467-1.072-1.149-.946-.635.12-.593.709-.623 1.206-.066 1.033.252 1.973.745 2.853.554.987.192 1.832-.359 2.634-.248.365-.694.449-1.074.242-.874-.476-1.512-1.134-1.431-2.242.021-.296.039-.604-.018-.895-.114-.58-.233-1.17-.443-1.721-.141-.368-.467-.697-.934-.556-.413.125-.371.538-.392.883-.057 1.059.069 2.077.608 3.029.461.817.176 1.751-.422 2.155-.662.446-.779-.614-1.174-.967-.185-.168-.326-.377-.676-.204-.153.321.012.632.174.937a4425.02 4425.02 0 0 0 5.929 11.209c.182.348.413.829.874.608.613-.296.185-.793 0-1.146-1.06-2.027-2.155-4.032-3.23-6.052-.374-.701-.772-1.395-1.065-2.132-.35-.874.015-1.718.506-2.382.496-.674.948.144 1.397.308.943.35 1.745.165 2.197-.679.47-.877.997-1.263 1.997-.958.305.093.697-.003 1.023-.105 2.227-.676 3.074.141 2.823 2.467-.35 3.256-.524 6.528-.775 9.796-2.236.871-4.583 1.353-6.881 2.005l.008.003z" fill="#CADCFB"/>
    <path d="M422.564 202.992c.826-.79 1.613-1.625 2.484-2.359 1.966-1.652 3.262-3.612 3.176-6.288 2.313-1.721 4.549-3.568 6.968-5.133 2.361-1.527 3.861-3.434 4.28-6.259.206-1.404 1.502-2.059 2.978-1.808.063.356-.222.527-.404.748-.189.228-.446.44-.237.773.18.281.5.389.785.29 1.197-.419 2.541-.614 3.187-1.94.856-.203 1.221.506 1.736.934.368.713.545 1.35-.278 1.943-6.399 4.603-11.137 10.889-16.627 16.414-1.437 1.446-2.903 2.864-4.289 4.358-.901.973-1.625.961-2.409-.093-.414-.556-.901-1.056-1.356-1.583l.006.003z" fill="#E7A496"/>
    <path d="M422.564 202.992c.826-.79 1.613-1.625 2.484-2.359 1.966-1.652 3.262-3.612 3.176-6.288L423.5 185l-5-1-1.5 9 5.564 9.992zM377.655 184.301c2.496 1.38 4.879 2.939 7.208 4.582-1.323 1.679-2.622 3.376-3.981 5.029-.59.715-.931 1.499-1.144 2.388-1.35 5.657-2.541 11.362-4.154 16.944-.922 3.197-.683 5.819 1.697 8.168.793 1.578.922 3.35 1.452 5.002.08.248.128.521-.099.682-.305.219-.563 0-.784-.203-.674-.623-.773-1.583-1.371-2.526-.743 1.817-.769 3.579-1.272 5.22-.189.613-.063 1.715-.91 1.598-.65-.09-.288-1.11-.273-1.715.024-.883.141-1.763.249-3.02-.802 1.275-.536 2.412-.862 3.409-.162.5-.081 1.32-.745 1.269-.74-.057-.396-.871-.458-1.365-.048-.371-.009-.754-.009-1.149-.372.072-.276.326-.342.491-.128.311-.167.766-.64.652-.32-.077-.341-.467-.353-.757-.018-.494.015-.991.024-1.488l.305-1.792-.302-.036c-.129.649-.261 1.299-.389 1.951-.177.401-.378.781-.871.862-.339-1.413.176-2.765.293-4.145.916-10.907 2.026-21.79 3.436-32.646.141-1.075.491-2.009 1.116-2.88 1.075-1.496 2.114-3.017 3.17-4.525h.009zm-5.313 43.011c.051-.075.12-.135.129-.207.012-.083 0-.233-.042-.254-.221-.099-.168.111-.177.207-.006.077.054.161.09.254z" fill="#E7A496"/>
    <path d="M90.256 152.636c-1.194-.32-2.149-1.002-2.987-1.891a23.87 23.87 0 0 1-5.043-8.228c-1.784-4.909 1.81-9.719 7-9.453 2.653.135 5.278-.075 7.909-.308 1.786-.159 1.97.03 1.712 1.748-.183 1.23-.434 2.451-.653 3.676-.643 2.226-3.02 3.636-2.918 6.225.018.44-.368.494-.77.446-.586-.075-1.331-.589-1.645.356-.26.782.209 1.347.823 1.754.53.351.56.791.338 1.29-.817 1.838-1.712 3.613-3.769 4.391l.003-.006z" fill="#FE7032"/>
    <path d="M242.608 183.284c1.644-2.643 2.503-5.48 2.099-8.62-.144-1.108.116-2.179.263-3.263.078-.565.383-.73.922-.703 4.244.2 7.644-1.841 10.958-4.128 1.335-.922 1.583-.856 2.25.65.701 1.586.707 3.292.779 4.983.015.345-.075.695.137 1.009l.015-.024c-.401.183-.179.467-.119.724-.835 1.841-1.293 3.838-2.347 5.589-.769 1.278-1.571 2.454-3.364 2.038-.638-.147-.904.248-.994.802-.105.635-.186 1.272-.278 1.907-.761 1.712-2.224 2.005-3.838 1.775-2.385-.339-4.528-1.329-6.477-2.739h-.006z" fill="#F9AA85"/>
    <path d="M421.277 219.239c-2.711.954-5.39 1.987-8.192 2.693-3.999 1.006-8.042 1.374-12.152 1.195.467-1.039 1.434-1.617 2.224-2.347 5.72-5.295 11.458-10.569 17.192-15.846.255-.233.545-.425.818-.637.487 4.382.933 8.767 1.487 13.14.153 1.2-.703 1.368-1.377 1.799v.003z" fill="#3E3E89"/>
    <path d="M400.933 223.127c.467-1.039 1.434-1.617 2.224-2.347 5.72-5.295 11.458-10.569 17.192-15.846.255-.233.545-.425.818-.637l-.818-20.797L408 183l-13.5 12.5-3.5 6-.5 20.5 10.433 1.127z" fill="#3E3E89"/>
    <path d="M401.537 158.433c-.607-1.739-1.709-3.083-3.136-4.247-4.795-3.915-3.688-11.15 2.074-13.478a11.044 11.044 0 0 0 2.673-1.542 10.059 10.059 0 0 1 4.017-1.885c1.634-.365 2.61.09 3.34 1.493.904 1.745.76 3.179-.431 4.316-3.011-.398-4.897.88-5.564 3.775-.156.673-.255 1.365-.446 2.029-.153.533-.312 1.066-1.105.551-.796-.515-1.272-.033-1.568.73-.323.838-.309 1.691.134 2.439.722 1.219.827 2.512.716 3.865a64.41 64.41 0 0 1-.168.787c-.179.389-.359.781-.542 1.17l.006-.003z" fill="#FE7032"/>
    <path d="M402.244 156.475c.11-1.353.006-2.646-.716-3.864-.443-.748-.458-1.598-.134-2.44.293-.763.772-1.245 1.568-.73.793.515.955-.018 1.105-.551.188-.664.29-1.352.445-2.029.668-2.897 2.554-4.172 5.565-3.774 2.203 3.376 2.691 7.093 2.283 11.02-.263 2.539-1.242 4.388-4.025 4.756-2.203-.356-4.37-.802-6.091-2.388z" fill="#F9AA85"/>
    <path d="M310.616 169.024c0-4.681.045-9.362-.03-14.041-.021-1.275.383-1.601 1.604-1.562 2.424.078 2.424.012 2.424 2.496 0 9.063.006 18.124-.017 27.187 0 .574.392 1.499-.515 1.64-1.057.165-2.2.32-3.227-.132-.44-.194-.233-.817-.233-1.248-.012-4.78-.006-9.56-.006-14.34z" fill="#CADCFB"/>
    <path d="M90.256 152.642c2.056-.778 2.951-2.553 3.768-4.39.222-.5.195-.94-.338-1.29-.614-.405-1.08-.973-.823-1.754.314-.946 1.06-.431 1.646-.357.398.051.784-.003.77-.446-.102-2.589 2.274-3.998 2.918-6.225 1.831 3.741 2.433 7.701 2.08 11.823-.051.604-.281 1.251-.895 1.445-1.054.335-1.11 1.057-1.069 1.97.051 1.185-.015 2.376-.032 3.561-3.11.057-6.2-.26-9.294-.484.455-1.275 1.06-2.5 1.269-3.856v.003z" fill="#F9AA85"/>
    <path d="M273.001 283.602c1.777.832 3.624 1.436 5.585 1.658-.793 3.331-1.958 6.564-2.47 9.973-.413 2.745-.314 5.34 1.252 7.734-2.389-.781-4.227-2.317-5.747-4.259-1.808-2.311-2.937-5.041-4.523-7.486.069-.069.132-.183.213-.2 4.019-.851 4.843-4.143 5.693-7.42h-.003z" fill="#E7A496"/>
    <path d="M328.526 171.232c0 4.035-.042 8.067.024 12.098.021 1.207-.398 1.539-1.553 1.521-2.419-.039-2.419.015-2.419-2.418 0-7.72.051-15.436-.039-23.155-.02-1.682.797-1.676 2.009-1.676 1.215 0 2.071-.015 2.017 1.679-.122 3.981-.039 7.964-.039 11.948v.003z" fill="#CADCFB"/>
    <path d="M109.927 195.357c-2.688-2.305-4.583-5.205-6.139-8.33-1.557-3.131-2.53-6.471-3.332-9.862-.078-.336-.272-.71.045-.979.329-.282.683-.018.952.164 2.79 1.871 5.962 2.934 8.988 4.305-.11 4.313-.218 8.626-.338 12.939-.018.589-.117 1.176-.176 1.766v-.003z" fill="#3A3A7B"/>
    <path d="M304.177 172.463c0-3.586.039-7.171-.021-10.757-.021-1.158.323-1.676 1.518-1.524.443.057.898.03 1.344.009.835-.039 1.14.354 1.137 1.171-.015 7.42-.018 14.84.006 22.262 0 .907-.335 1.297-1.23 1.21-.099-.009-.201 0-.3 0-2.72-.024-2.439.257-2.451-2.359-.015-3.337-.003-6.675-.003-10.009v-.003z" fill="#CADCFB"/>
    <path d="M376.886 307.929c.32.611.931.683 1.508.835.725.192 1.443.404 2.012.928.404.371.547.847.371 1.356-.168.485-.644.389-1.027.389-2.688.009-5.375-.012-8.06.018-.683.009-1.009-.278-1.126-.904-.018-.098-.057-.191-.075-.287-.718-4.125-1.783-8.153-3.46-12.002-.526-1.213-.323-1.979 1.063-2.305.916-.216 1.805-.542 2.703-.82.601 1.514 1.158 3.05 1.82 4.537 1.263 2.835 2.298 5.789 4.271 8.258v-.003z" fill="#DB6142"/>
    <path d="m401.538 158.432.539-1.17c1.805 1.634 3.831 2.783 6.334 2.9.308 1.2.619 2.398.928 3.598.23 2.31.646 4.615.287 6.95-.144.94-.261 1.978-1.263 2.361-1.036.395-1.793-.365-2.455-1.029-2.34-2.35-3.93-5.196-5.33-8.162l.96-5.448z" fill="#F9AA85"/>
    <path d="M321.642 175.45c0 2.637-.039 5.274.018 7.908.024 1.072-.272 1.61-1.421 1.482-.491-.054-.997-.036-1.491-.006-.856.054-1.128-.371-1.128-1.171.015-5.471.015-10.942 0-16.414 0-.745.275-1.032 1.041-1.092 2.963-.231 2.981-.237 2.981 2.726v6.567z" fill="#CADCFB"/>
    <path d="M47.946 78.984c-3.703.023-6.8-2.993-6.849-6.663-.048-3.742 3.053-6.93 6.75-6.938 3.651-.01 6.848 3.086 6.902 6.684.057 3.684-3.101 6.893-6.806 6.917h.003zm-4.828-6.714c.014 2.613 2.125 4.693 4.77 4.702 2.638.01 4.852-2.22 4.814-4.852-.036-2.529-2.275-4.729-4.81-4.729-2.658 0-4.79 2.182-4.774 4.879z" fill="#E9F0FB"/>
    <path d="M75.957 308.723c2.377.084 4.76.32 7.085-.422 1.377 2.753 4.04 3.505 6.69 4.253.81.23 1.682.263 2.388.796.311.237.721.488.539.949-.159.392-.605.266-.937.269-3.388.012-6.776.009-10.161.009-1.297 0-2.596-.062-3.886.018-1.17.072-1.616-.5-1.739-1.544-.167-1.443-.05-2.883.024-4.325l-.003-.003zM93.997 308.981c2.287-.009 4.555-.114 6.717-.973 1.487 2.927 4.262 3.864 7.159 4.585.871.216 1.778.306 2.46.973.207.204.491.398.378.742-.099.297-.405.252-.641.255-4.981.003-9.961 0-14.942 0-.766 0-1.005-.476-1.137-1.126-.296-1.487-.2-2.972.003-4.456h.003zM407.467 306.742c2.526.731 5.061 1.44 7.578 2.206.755.231 1.473.59 2.188.934.399.192.895.449.74.976-.138.464-.668.326-1.045.326-3.526.009-7.055.006-10.581.006-2.681 0-5.363-.027-8.045.015-.922.015-1.314-.174-.919-1.158.425-1.057.787-2.137 1.176-3.209 2.984 1.281 5.951 1.17 8.908-.093v-.003z" fill="#DB6142"/>
    <path d="m252.267 139.705 2.084-.506c.356 1.7.739 3.379.637 5.151-.063 1.108-.53 1.832-1.502 2.137-1.566.491-3.155.937-4.763 1.246-1.37.263-2.292-.494-2.771-1.751-.515-1.347-.976-2.715-1.461-4.074 2.299-.653 4.646-1.134 6.881-2.005.3-.066.596-.132.895-.201v.003z" fill="#2F3B62"/>
    <path d="M335.398 177.245c0 2.041-.047 4.083.018 6.121.036 1.078-.278 1.61-1.424 1.479-.443-.051-.898-.033-1.344-.003-.862.057-1.284-.258-1.281-1.186.024-4.232.018-8.461.006-12.693 0-.737.269-1.039 1.044-1.093 2.972-.218 2.981-.233 2.981 2.748v4.63-.003z" fill="#CADCFB"/>
    <path d="M267.096 291.222c1.586 2.448 2.714 5.175 4.522 7.486 1.521 1.942 3.358 3.478 5.747 4.259.793.847 1.263 1.894 1.805 2.897.209.392.479.835.17 1.254-.35.476-.919.335-1.385.228-1.392-.324-2.536-1.12-3.601-2.03-.527-.452-1.057-.922-1.485-1.463-2.128-2.682-4.385-5.22-6.887-7.579-2.269-2.137-1.79-3.729 1.111-5.055l.003.003z" fill="#2F3B62"/>
    <path d="M279.122 285.289c.982-.371 1-1.356 1.35-2.128.341-.751.67-1.508 1.006-2.263.392 8.51.517 17.022.658 25.538.009.616-.006 1.308-.835 1.317-.79.006-.904-.674-.943-1.284-.251-4.176-.488-8.351-.73-12.53l-.506-8.65z" fill="#C8D9FA"/>
    <path d="M407.468 306.741c-2.958 1.263-5.924 1.374-8.908.093.401-1.242.799-2.482 1.2-3.721 2.308.111 4.601.333 6.87.77-.261 1.11.245 1.996.838 2.858zM376.887 307.927c-1.976-2.467-3.008-5.424-4.271-8.258-.662-1.488-1.218-3.023-1.82-4.538.242-.204.482-.407.724-.608 1.263 2.245 2.712 4.311 5.184 5.391-.128 2.676-.021 5.346.183 8.013z" fill="#E7A496"/>
    <path d="M225.64 120.742c.581.11 2.015-.249 2.117.571.128 1.048-1.371.928-2.167 1.305-.396.189-.845.279-1.279.363-.876.164-1.87.149-2.032-.889-.149-.976.814-1.225 1.616-1.335.482-.069.985-.012 1.742-.012l.003-.003zM226.625 108.063c1.317.353 2.607 1.15 3.688 2.272.377.392.206.835-.333.799-1.529-.102-3.074-.26-4.34-1.269-.35-.278-.628-.67-.449-1.167.204-.566.695-.644 1.434-.635zM256.593 102.332c-.044.826-2.397 3.583-3.193 3.756-.578.126-.602-.272-.506-.604.389-1.386.844-2.754 1.88-3.823.365-.377.826-.574 1.347-.332.413.192.499.581.475 1l-.003.003zM259.968 115.644c-.296.021-.643.072-.814-.216-.248-.419.162-.622.401-.829.91-.775 1.964-1.338 3.047-1.817.629-.278 1.332-.263 1.689.431.383.749-.174 1.24-.746 1.548-1.107.598-2.358.7-3.58.88l.003.003zM240.442 103.543c-.051.515.08 1.152-.342 1.293-.595.198-.769-.488-.999-.886-.572-.985-1.09-2.005-1.183-3.17-.044-.559.036-1.149.701-1.305.637-.15 1.032.282 1.269.803.482 1.059.386 2.226.554 3.268v-.003z" fill="#E9F0FB"/>
    <path d="M408.413 160.163c-2.503-.117-4.529-1.266-6.334-2.9.057-.264.111-.527.168-.79 1.721 1.586 3.888 2.035 6.091 2.391l.078 1.299h-.003z" fill="#CE8E71"/>
    <path d="M109.819 198.607c-.356-.607-.38-1.206.063-1.787.246.605.249 1.201-.063 1.787zM109.508 204.285c-.329-.511-.338-1.008.075-1.484.245.509.212 1.002-.075 1.484zM109.232 208.183c-.296-.323-.287-.625.069-.898a.8.8 0 0 1-.069.898zM108.924 211.165c-.222-.236-.165-.431.084-.599.107.219.069.416-.084.599z" fill="#B7CEF9"/>
    <path d="M259.909 173.912c-.057-.258-.281-.542.12-.724-.039.242-.081.481-.12.724z" fill="#2F2D35"/>
    <path d="M139.829 167.279c-.033-.081-.075-.156-.093-.239-.006-.033.042-.075.066-.114l.027.353z" fill="#FCFDFE"/>
    <path d="M122.043 272.766h.895c3.58 0 3.927.428 3.367 4.019-.114.734-.488 1.048-1.185 1.051-2.089.006-4.179.006-6.268 0-.467 0-.994-.087-1.083-.599a11.528 11.528 0 0 1 0-3.995c.084-.476.595-.461.99-.467 1.096-.012 2.188-.003 3.284-.003v-.006zM121.98 241.376c.991 0 1.985.045 2.976-.012 1.053-.057 1.379.413 1.367 1.416-.05 4.163.366 3.645-3.493 3.675-1.239.009-2.478-.021-3.717.006-.97.021-1.482-.335-1.476-1.377.033-4.507-.461-3.615 4.343-3.708z" fill="#BACBE4"/>
    <path d="M79.278 71.12c.862-.02 1.535-.09 1.541.997.006 1-.515 1.132-1.31 1.108-.767-.024-1.498.063-1.474-1.099.021-1.06.659-1.05 1.243-1.005z" fill="#C8D9FA"/>
    <path d="M90.056 71.083c.93-.123 1.221.317 1.197 1.194-.033 1.2-.88.919-1.574.97-.877.063-1.249-.314-1.213-1.21.048-1.19.916-.894 1.593-.954h-.003z" fill="#B7CEF9"/>
    <path d="M58.685 71.117c.74-.045 1.359 0 1.353 1.053-.003 1.066-.653 1.045-1.392 1.051-.77.006-1.356-.066-1.368-1.093-.015-1.101.665-1.035 1.407-1.011z" fill="#C8D9FA"/>
    <path d="M63.888 73.235c-.841.06-1.488-.036-1.473-1.128.015-1.04.67-1.048 1.398-1.03.676.018 1.418-.144 1.44.958.017 1.032-.503 1.287-1.365 1.197v.003zM146.11 88.008c-.053-.802-.035-1.481 1.099-1.451 1.009.023 1.071.613 1.077 1.367.006.8-.003 1.467-1.128 1.437-1.009-.027-1.113-.59-1.048-1.353zM84.758 73.234c-.82.036-1.449-.018-1.47-1.048-.02-1.15.716-1.095 1.491-1.116.802-.021 1.344.137 1.32 1.131-.024 1.033-.659 1.08-1.344 1.033h.003z" fill="#B7CEF9"/>
    <path d="M115.839 73.204c-.742.057-1.335-.018-1.335-1.056 0-1.075.658-1.039 1.389-1.042.745-.003 1.383.006 1.371 1.063-.012 1.056-.656 1.068-1.425 1.035zM141.816 71.123c.865-.057 1.476.012 1.461 1.05-.015 1.054-.673 1.024-1.404 1.042-.775.018-1.344-.051-1.332-1.087.012-1.062.626-1.08 1.275-1.008v.003zM126.327 73.204c-.76.045-1.389 0-1.398-1.038-.009-1.048.629-1.063 1.377-1.06.733 0 1.389-.018 1.383 1.042-.003 1.03-.602 1.11-1.359 1.056h-.003z" fill="#C8D9FA"/>
    <path d="M148.263 93.164c.078.91-.126 1.503-1.155 1.518-1.072.018-.991-.695-1.009-1.4-.021-.806.018-1.447 1.138-1.423 1.041.021 1.089.611 1.026 1.302v.003z" fill="#B7CEF9"/>
    <path d="M100.266 71.124c.787-.05 1.412 0 1.368 1.045-.042 1.008-.686 1.03-1.419 1.05-.787.024-1.332-.104-1.32-1.101.015-1.063.685-1.024 1.374-.994h-.003zM95.165 73.196c-.853.057-1.443.01-1.452-1.032-.009-1.051.59-1.069 1.335-1.063.73.006 1.368-.021 1.36 1.042-.01 1.017-.552 1.143-1.243 1.05v.003zM105.47 73.203c-.766.066-1.311-.06-1.314-1.068-.003-1.063.646-1.018 1.365-1.033.757-.015 1.335.04 1.323 1.072-.015 1.038-.617 1.074-1.374 1.03zM69.006 73.203c-.763.075-1.296-.063-1.296-1.072 0-1.068.65-1.017 1.37-1.03.758-.011 1.335.037 1.318 1.075-.018 1.054-.632 1.063-1.392 1.027z" fill="#C8D9FA"/>
    <path d="M121.286 73.233c-.868.024-1.532.057-1.559-.993-.021-.928.377-1.215 1.23-1.174.745.036 1.5-.086 1.482 1.075-.015.958-.476 1.203-1.153 1.092z" fill="#B7CEF9"/>
    <path d="M131.369 71.108c.794.006 1.506-.117 1.521.978.012.982-.476 1.165-1.29 1.129-.701-.03-1.392.084-1.416-1-.018-.988.473-1.188 1.182-1.11l.003.003z" fill="#C8D9FA"/>
    <path d="M146.112 77.54c-.036-.841-.024-1.476 1.017-1.488 1.096-.012 1.138.647 1.156 1.449.018.811-.159 1.29-1.132 1.281-1.02-.009-1.113-.58-1.041-1.242zM148.273 82.762c.039.763-.084 1.332-1.084 1.356-1.158.027-1.071-.703-1.095-1.47-.027-.826.188-1.275 1.152-1.266 1.051.012 1.06.644 1.027 1.377v.003z" fill="#B7CEF9"/>
    <path d="M110.814 71.117c.661-.024 1.191.093 1.197 1.015.006 1.146-.748 1.047-1.5 1.083-.805.04-1.152-.284-1.152-1.113 0-1.063.7-1 1.455-.985zM136.734 73.2c-.802.078-1.356-.068-1.35-1.08.006-.952.554-1.042 1.269-1.009.644.03 1.323-.075 1.359.928.033.96-.437 1.236-1.278 1.158v.003zM74.279 71.114c.73-.027 1.248.114 1.245 1.042 0 1.053-.67 1.017-1.398 1.062-.916.057-1.233-.35-1.212-1.23.024-1.032.745-.847 1.365-.874zM146.062 71.3a3.975 3.975 0 0 1 1.781-.003v2.032c-.625.117-1.263.297-1.787-.269 0-.587.003-1.17.006-1.757V71.3zM549.057 123.359c-.024.452-.326.578-.575.719-2.583 1.493-5.178 2.969-7.761 4.462-.733.425-.988.174-.967-.598.015-.548-.033-1.096.009-1.64.081-1.123-.051-2.006-1.535-1.838-.736.084-.907-.413-.904-1.051 0-.607.245-1.002.871-.925 1.44.177 1.604-.601 1.583-1.781-.048-2.816 0-2.819 2.419-1.427 2.026 1.164 4.049 2.337 6.07 3.514.29.17.554.392.79.562v.003zM527.962 124.604c-.793.012-1.545.102-1.542-1.057.003-1.119.704-1.107 1.485-1.101.769.003 1.491-.048 1.5 1.083.009 1.147-.713 1.102-1.446 1.075h.003z" fill="#C8D9FA"/>
    <path d="M533.322 124.601c-.799.066-1.431 0-1.413-1.114.018-1.038.635-1.047 1.368-1.041.754.009 1.493-.081 1.511 1.062.018 1.123-.661 1.141-1.466 1.093zM522.639 124.601c-.763.021-1.484.099-1.481-1.059.003-.994.521-1.114 1.302-1.102.817.015 1.595-.063 1.565 1.156-.024 1.041-.673 1.032-1.389 1.005h.003zM517.052 124.6c-.806.099-1.269-.14-1.263-1.116.005-1.066.658-1.036 1.391-1.039.743-.003 1.356 0 1.365 1.057.012 1.155-.679 1.137-1.493 1.098z" fill="#B7CEF9"/>
    <path d="M366.612 124.621c-.53.041-1.179-.039-1.146-1.144.035-1.155.814-1.003 1.55-1.032.823-.033 1.452.068 1.434 1.152-.021 1.188-.835.982-1.838 1.024zM361.563 122.457c.787-.038 1.484-.056 1.499 1.075.015 1.158-.721 1.08-1.481 1.08-.755 0-1.5.09-1.494-1.071.006-1.125.697-1.125 1.476-1.084zM356.443 122.456c.832-.098 1.269.234 1.237 1.159-.033.945-.515 1.281-1.404 1.335-1.117.068-1.141-.662-1.203-1.437-.087-1.042.58-1.105 1.37-1.06v.003zM357.213 134.028c.027.913.066 1.658-1.066 1.637-1.089-.021-1.101-.742-1.101-1.518 0-.739.075-1.382 1.057-1.418 1.086-.042 1.197.613 1.11 1.299zM372.272 124.601c-.733.021-1.389.057-1.416-1-.03-1.227.74-1.149 1.56-1.161.778-.009 1.302.087 1.308 1.096.006 1.167-.713 1.086-1.452 1.065zM377.697 124.601c-.736.003-1.427.096-1.451-.993-.024-1.096.571-1.18 1.412-1.174.833.006 1.449.063 1.422 1.171-.027 1.083-.7 1.014-1.383.999v-.003zM382.935 124.599c-.754.045-1.353-.033-1.377-1.063-.027-1.179.719-1.089 1.491-1.095.739-.006 1.386-.024 1.389 1.044.003 1.141-.695 1.147-1.503 1.114zM388.473 124.592c-.85.045-1.479.024-1.515-1.02-.041-1.144.629-1.159 1.44-1.132.707.024 1.41-.084 1.419 1.009.009 1.095-.599 1.23-1.344 1.143zM393.708 122.451c.715-.006 1.433-.122 1.46.976.027 1.084-.569 1.203-1.422 1.194-.823-.009-1.466-.06-1.445-1.17.021-1.09.715-1.006 1.407-.997v-.003zM399.033 124.6c-.812.081-1.374-.111-1.353-1.167.021-1.209.856-.943 1.553-.985.763-.045 1.335.054 1.329 1.072-.009 1.128-.709 1.11-1.526 1.08h-.003zM404.621 124.601c-.823.018-1.556.066-1.568-1.087-.009-1.044.604-1.092 1.364-1.071.749.021 1.536-.129 1.521 1.065-.015 1.003-.575 1.147-1.317 1.09v.003zM355.046 149.952c-.078-.721.209-1.17 1.158-1.164 1.201.009.979.832 1.024 1.553.051.823-.159 1.311-1.134 1.29-1.168-.027-1.033-.814-1.045-1.679h-.003zM410.02 124.602c-.826.018-1.553.072-1.568-1.066-.015-1.006.533-1.14 1.311-1.086.685.048 1.538-.252 1.571.963.03 1.045-.506 1.275-1.314 1.186v.003zM415.36 124.586c-.942.093-1.535-.066-1.517-1.15.021-1.092.73-.99 1.434-.987.7 0 1.412-.099 1.43.993.018 1.087-.565 1.258-1.347 1.144zM357.215 128.867c.048.769.015 1.458-1.089 1.455-1.039 0-1.084-.671-1.024-1.386.054-.685-.128-1.547 1.039-1.571 1.131-.021 1.104.706 1.074 1.499v.003zM357.213 155.629c.045.755.009 1.386-1.033 1.383-1.269-.006-1.047-.919-1.122-1.667-.078-.784.224-1.176 1.083-1.194 1.156-.027 1.114.706 1.072 1.478zM355.171 144.879c-.036-.725-.039-1.386 1.024-1.389 1.072-.003 1.036.667 1.033 1.398-.003.727.039 1.409-1.033 1.409-1.069 0-1.057-.667-1.024-1.418zM357.219 139.501c-.036.659.174 1.407-.949 1.446-1.161.039-1.11-.668-1.11-1.446 0-.73-.015-1.401 1.032-1.401 1.042 0 1.063.656 1.027 1.398v.003zM355.456 159.769c.948-.228 1.631-.177 1.658 1.107.027 1.299-.578 1.536-1.658 1.254v-2.361zM357.216 182.407c.03.754.048 1.416-.999 1.431-1.239.021-1.114-.841-1.159-1.614-.045-.739.171-1.206 1.054-1.233 1.119-.033 1.161.644 1.107 1.416h-.003zM345.441 226.142c-.649-.048-1.442.212-1.469-.919-.03-1.134.685-1.11 1.472-1.11.785 0 1.494-.027 1.461 1.11-.03 1.134-.811.877-1.464.919zM357.213 192.884c.024.874.06 1.554-1.011 1.557-.991.003-1.177-.551-1.129-1.335.045-.739-.006-1.512 1.149-1.482 1.072.027 1.033.683.991 1.26zM340.164 226.129c-.668-.024-1.419.171-1.452-.94-.036-1.176.722-1.074 1.479-1.08.724-.006 1.392-.042 1.383 1.026-.012 1.072-.686 1.021-1.407.997l-.003-.003zM329.818 224.095c.544-.06 1.071.132 1.017 1.126-.063 1.233-.964.841-1.628.91-.745.074-1.224-.12-1.221-1.024.006-1.212.856-.955 1.829-1.009l.003-.003zM324.016 226.133c-.733.033-1.401.056-1.401-1.009 0-1.218.841-.97 1.55-1.009.779-.045 1.356.066 1.32 1.093-.041 1.122-.811.898-1.469.928v-.003zM355.177 219.827c-.069-.823.024-1.419 1.048-1.407 1.071.012 1.002.707.999 1.419-.003.7.09 1.407-.987 1.425-1.159.021-1.105-.713-1.057-1.437h-.003zM318.574 226.126c-.721.054-1.347.006-1.338-1.033.009-1.083.728-.987 1.425-.981.683.006 1.425-.135 1.446.96.024 1.168-.746 1.072-1.533 1.054zM313.31 226.133c-.682-.009-1.422.153-1.452-.952-.029-1.044.587-1.098 1.347-1.068.728.03 1.545-.171 1.533 1.032-.012 1.084-.718.994-1.425.985l-.003.003zM308.084 226.136c-.838-.009-1.569.14-1.601-.955-.036-1.18.733-1.06 1.484-1.072.736-.012 1.386-.012 1.377 1.036-.012 1.071-.703 1.006-1.257.988l-.003.003zM357.207 225.006c.15 1.078-.539 1.149-1.371 1.14-.691-.009-1.137-.152-1.122-.972.018-.997.506-1.392 1.475-1.407.901-.015 1.096.464 1.018 1.239zM334.786 224.117c.745-.041 1.362-.003 1.377 1.027.015 1.081-.662.997-1.368.997-.764 0-1.491.072-1.452-1.084.039-1.104.787-.907 1.446-.94h-.003zM350.879 226.127c-.661-.021-1.407.176-1.437-.94-.03-1.183.728-1.063 1.476-1.078.748-.015 1.374.021 1.374 1.054 0 1.095-.71.987-1.416.967l.003-.003zM357.218 187.632c-.032.656.171 1.404-.939 1.446-1.141.042-1.126-.644-1.12-1.428.006-.727-.015-1.392 1.027-1.395 1.029-.003 1.077.629 1.032 1.38v-.003zM355.226 172.042c-.081-1.131.068-1.706 1.062-1.661.973.045.883.715.901 1.353.018.76-.165 1.407-1.074 1.431-1.09.029-.851-.836-.886-1.126l-.003.003zM357.183 198.32c.024.725-.018 1.326-.967 1.338-.922.009-1.035-.53-1.026-1.251.009-.673-.021-1.275.964-1.275.924 0 1.071.497 1.029 1.188zM355.195 203.611c-.069-.653.093-1.126 1.015-1.111.838.015.985.455.976 1.123-.009.715.003 1.424-1.03 1.406-.934-.017-.955-.661-.961-1.418zM355.447 165.128c.566-.093 1.237-.365 1.59.263.308.554.308 1.29.012 1.841-.342.634-1.027.344-1.59.269-.003-.793-.006-1.583-.012-2.376v.003zM355.459 207.931c.575-.096 1.245-.35 1.593.317a1.892 1.892 0 0 1-.012 1.727c-.353.659-1.015.422-1.593.318.003-.787.009-1.575.012-2.359v-.003zM355.285 177.184c.036-.688-.069-1.428.913-1.416 1.099.012.823.88.913 1.518.111.787-.194 1.275-1.015 1.272-1.038-.003-.709-.85-.811-1.374zM303.953 225.208c.066.892-.508.934-1.149.922-.59-.012-.781-.287-.652-.844.131-.572.155-1.197 1.011-1.161.778.03.838.521.793 1.086l-.003-.003zM355.456 213.288c1.083-.272 1.688-.039 1.658 1.266-.033 1.284-.706 1.344-1.661 1.111 0-.793.003-1.587.006-2.377h-.003z" fill="#C8D9FA"/>
    <path d="M355.456 213.29c0 .793-.003 1.586-.006 2.377-.625-.794-.649-1.587.006-2.377zM355.459 207.933c-.003.787-.009 1.574-.012 2.358-.61-.79-.661-1.577.012-2.358zM355.447 165.125c.003.793.006 1.583.012 2.376-.664-.79-.631-1.58-.012-2.376zM355.456 159.772v2.362c-.647-.787-.641-1.575 0-2.362z" fill="#C8D9FA"/>
    <path d="M147.847 73.327v-2.032c.659.676.653 1.353 0 2.032zM146.062 71.3c0 .587-.002 1.17-.005 1.757-.587-.586-.638-1.173.005-1.757z" fill="#B7CEF9"/>
    <path d="M148.272 214.792c.063.754-.071 1.314-1.08 1.308-1.14-.003-1.102-.728-1.093-1.503.009-.703-.074-1.421.994-1.436 1.197-.018 1.206.757 1.179 1.631zM146.108 188.1c-.057-.725.021-1.317 1.06-1.32 1.137 0 1.122.697 1.119 1.49-.003.767-.081 1.35-1.101 1.368-1.186.021-1.093-.733-1.075-1.541l-.003.003zM146.118 204.029c-.087-.832.071-1.356 1.059-1.377 1.141-.027 1.108.668 1.108 1.449 0 .766-.102 1.335-1.096 1.35-1.137.018-1.134-.677-1.071-1.422zM148.274 198.6c-.006.79.117 1.508-.961 1.535-.879.024-1.281-.281-1.218-1.179.051-.713-.17-1.527 1.018-1.527.931 0 1.221.443 1.158 1.171h.003zM206.249 226.126c-.784.018-1.55.132-1.527-1.048.021-1.095.755-.96 1.44-.966.698-.006 1.416-.102 1.428.984.009 1.039-.617 1.084-1.338 1.03h-.003zM200.777 226.121c-.829.057-1.466.021-1.446-1.023.024-1.212.88-.943 1.581-.982.691-.039 1.266.009 1.281.967.018 1.167-.727 1.089-1.416 1.038zM173.944 226.127c-.772.033-1.52.105-1.487-1.06.03-1.095.775-.939 1.452-.954.712-.015 1.403-.072 1.406.999.003 1.048-.64 1.063-1.374 1.015h.003zM178.966 224.132c1.072-.039 1.742-.069 1.736 1.002-.006 1.216-.847.958-1.556 1.006-.793.054-1.344-.081-1.311-1.092.039-1.123.814-.895 1.131-.913v-.003zM184.674 226.13c-.763.039-1.499.087-1.463-1.065.033-1.102.787-.928 1.46-.946.713-.018 1.404-.066 1.404 1.002 0 1.051-.655 1.051-1.398 1.009h-.003zM189.969 226.131c-.74.042-1.395.051-1.386-1.015.009-1.221.856-.969 1.562-.996.674-.027 1.284-.03 1.308.949.03 1.17-.718 1.095-1.484 1.062zM195.435 226.132c-.661-.026-1.431.183-1.467-.927-.033-1.009.533-1.141 1.317-1.096.71.042 1.548-.197 1.548 1.012 0 1.053-.665 1.041-1.398 1.008v.003zM211.649 226.104c-.991.09-1.589 0-1.559-1.029.024-.838.479-.934 1.152-.973.934-.057 1.371.314 1.425 1.251.06 1.054-.746.65-1.018.754v-.003zM147.858 221.069c-.871.222-1.559.087-1.802-.922.246-.476-.104-1.26.698-1.436 1.278-.282 1.529.401 1.32 1.472-.219.261-.228.569-.216.886zM147.841 210.533c-.94.213-1.619.171-1.634-1.107-.015-1.275.568-1.532 1.646-1.248l-.012 2.355zM147.847 194.72c-.985.237-1.614.12-1.644-1.158-.03-1.344.731-1.296 1.641-1.185 0 .781 0 1.559.003 2.34v.003z" fill="#C8D9FA"/>
    <path d="m147.84 210.532.012-2.356c.641.79.701 1.574-.012 2.356zM147.847 194.721c0-.781 0-1.56-.003-2.341.704.778.671 1.56.003 2.341zM147.858 221.069c-.009-.314 0-.625.216-.886a.563.563 0 0 1 .221.059c-.015.344-.009.701-.44.823l.003.004zM147.324 226.125c-.886.126-1.26-.248-1.245-1.155.011-.764.194-1.216 1.074-1.198.97.021 1.467.425 1.473 1.416.009.952-.617.982-1.305.934l.003.003zM157.446 226.142c-.443.042-.943-.135-.928-1.045.018-1.215.895-.925 1.587-.966.718-.045 1.278.095 1.245 1.017-.042 1.177-.895.937-1.901.991l-.003.003zM168.482 226.119c-.716.078-1.251-.081-1.212-1.081.044-1.122.832-.865 1.475-.906.719-.048 1.233.089 1.227 1.014-.009 1.081-.715.979-1.49.973zM163.252 224.133c.727-.033 1.371-.024 1.35 1.027-.018.961-.602.979-1.281.961-.68-.018-1.416.128-1.44-.958-.021-1.045.629-1.063 1.368-1.033l.003.003zM152.423 224.129c.674.021 1.413-.132 1.428.963.012 1.045-.629 1.036-1.362 1.039-.736 0-1.377-.003-1.359-1.042.018-.957.614-.972 1.293-.957v-.003z" fill="#C8D9FA"/>
    <path d="M314.343 280.329c1.969-.231 3.987-.228 5.791-1.227 2.814 3.211 6.262 5.375 10.455 6.3-2.604 1.844-5.528 2.23-8.608 1.877-1.912-.219-3.822-.455-5.735-.683.186-2.337-.724-4.343-1.903-6.264v-.003z" fill="#E7A496"/>
    <path d="M316.245 286.602c1.913.227 3.822.464 5.735.682 3.08.353 6.004-.033 8.608-1.877 1.257-.081 2.478.144 3.694.422 1.143.264 1.122.847.341 1.512-.446.38-.967.7-1.497.958-1.41.676-2.93 1.044-4.475 1.044-3.139 0-6.231.267-9.332.799-2.631.449-3.619-.838-3.071-3.543l-.003.003z" fill="#2F3B62"/>
    <path d="M320.443 261.705h-1.491c-2.029-.009-2.089-.072-2.089-2.101 0-2.008.066-2.074 2.107-2.08 1.242-.003 2.484.018 3.726 0 .94-.015 1.374.422 1.341 1.356-.015.446-.024.895.003 1.341.069 1.089-.446 1.544-1.514 1.49-.695-.036-1.392-.006-2.086-.006h.003z" fill="#BACBE4"/>
    <path d="M370.512 227.639c.128-.65.26-1.299.389-1.951l.302.035-.305 1.793c-.129.039-.258.081-.386.12v.003z" fill="#578CEE"/>
    <path d="M138.352 149.558c-6.513-3.436-9.797-9.815-8.734-16.971.958-6.444 6.1-12.042 12.427-13.179 6.771-1.218 12.748.458 16.669 6.36 3.741 5.631 3.972 11.802.383 17.633-3.634 5.899-9.198 8.249-16.079 7.468-.183-.766-.32-1.548-.557-2.296-.44-1.395-1.155-1.646-2.298-.76-.659.509-1.21 1.158-1.811 1.742v.003z" fill="#F7F9FC"/>
    <path d="M138.352 149.555c.599-.587 1.153-1.233 1.811-1.742 1.143-.883 1.859-.635 2.299.76.236.748.374 1.53.556 2.296.15 1.856-.329 3.52-1.505 4.974-1.308-.476-2.565-1.11-3.981-1.227-.105-1.748.21-3.43.823-5.061h-.003z" fill="#E7A496"/>
    <path d="M271.651 252.681h-11.605c.117-.306.33-.464.662-.515 5.714-.871 10.967-3.065 16.121-5.558.395-.192.841-.288 1.26-.428-1.628 2.679-3.96 4.663-6.438 6.501z" fill="#2C2C6C"/>
    <path d="M271.651 252.679c2.479-1.841 4.81-3.822 6.439-6.501.832-.371.823.054.625.661-.64 1.964-1.275 3.93-1.915 5.897l-5.152-.054.003-.003z" fill="#2C2C6C"/>
    <path fill-rule="evenodd" clip-rule="evenodd" d="m25.901 179.966-.287 1.489v-.015c-1.775-1.61-5.002-2.52-6.912-2.071l-.044.01c-.69.164-1.417.337-1.452 1.184-.039.946.655 1.356 1.485 1.607 1.255.381 2.535.333 3.809.284.266-.01.532-.02.797-.026 2.31-.054 2.44.033 2.179 2.358-.014.128-.048.254-.081.38a1.891 1.891 0 0 0-.087.497c.021 1.491-.041 2.814-2.194 2.278-.298-.073-.682.141-1.045.344-.11.062-.219.123-.322.174-1.712.844-2.2 2.505-2.65 4.142-.897 3.275-.248 6.178 2.245 7.878.298.203.589.417.88.631.989.726 1.982 1.456 3.23 1.752.67.158.856.724.976 1.359.47 2.493.94 4.986 1.496 7.458.25 1.111.564 2.207.878 3.302.165.578.331 1.156.487 1.736.075.278.165.634-.194.775-.345.138-.56-.159-.7-.413-.084-.151-.142-.317-.2-.482-.057-.165-.115-.331-.199-.482-1.077-1.933-2.358-3.711-4.412-4.69-1.643-.781-3.232.326-3.16 2.089.071 1.76 4.522 5.292 6.258 4.966a.926.926 0 0 0 .285-.09c1.053-.581 1.763-.075 2.45.703a5.88 5.88 0 0 1 1.402 2.931c.231 1.338.516 2.666.8 3.993.33 1.54.661 3.08.909 4.639.203 1.278-.15 1.856-1.227 2.278-1.736.682-2.964 1.96-4 3.469-.514.748-.655 1.49-.43 2.394.65 2.616 2.464 4.42 4.265 6.211l.087.087c1.014 1.011 1.76 2.02 1.975 3.516.112.783.346 1.555.58 2.325.302.999.603 1.994.635 3.003.153 4.771.21 9.554-.227 14.322-.063.668-.153 1.186-.979 1.192-.706.006-1.263-.108-1.425-.961-.115-.61-.312-1.204-.509-1.796l-.113-.344c-1.38-4.209-3.331-8.1-6.477-11.29a11.88 11.88 0 0 1-.398-.434c-.642-.722-1.375-1.546-2.224-1.003-.962.614-.485 1.745-.077 2.714.062.146.122.289.176.426 1.553 3.993 3.6 7.746 5.74 11.445.593 1.021.372 1.273-.724 1.261a621.578 621.578 0 0 0-7.603-.013l-1.52.004c-1.913.003-1.978.11-1.556 1.957.438 1.912.88 3.823 1.321 5.735 1.44 6.233 2.88 12.467 4.207 18.725.323 1.529.913 2.092 2.329 2.272l.008.001c5.283.667 10.56 1.333 15.888.594.659-.091 1.32-.159 1.983-.227 1.314-.135 2.628-.27 3.92-.587.634-.155 1.038-.386 1.197-1.11 1.01-4.596 2.034-9.188 3.057-13.78.88-3.95 1.76-7.899 2.633-11.85.374-1.7.317-1.73-1.482-1.73l-3.052-.005c-4.068-.008-8.136-.016-12.204.023-1.176.012-1.7-.399-1.517-1.56.14-.883.184-1.772.227-2.66.029-.599.058-1.198.117-1.794.272-2.711 3.79-4.714 6.315-3.654 1.293.539 2.607.94 3.987 1.191 4.903.898 10.742-2.49 12.377-7.228.604-1.751.107-2.97-1.479-3.9-1.741-1.022-3.628-1.039-5.547-1.058l-.25-.002c-4.41-.048-7.477 2.017-9.465 5.84-.171.329-.335.665-.499 1-.912 1.87-1.822 3.734-4.068 4.501a.407.407 0 0 0-.149.116c-.026.026-.051.053-.079.076-.067.055-.131.123-.196.191-.19.201-.385.406-.66.314-.394-.131-.369-.492-.346-.824.006-.076.01-.15.01-.22-.003-1.387-.002-2.773 0-4.16.003-2.599.006-5.198-.029-7.798-.012-1.017.416-1.413 1.329-1.604 1.562-.329 3.104-.718 4.517-1.518 2.538-1.433 3.442-3.837 2.283-6.555-1.577-3.702-4.023-6.285-8.443-6.085-.89.039-1.335-.293-1.5-1.239-.844-4.855-1.838-9.676-3.394-14.364-.27-.817-.258-1.691-.018-2.511l.067-.232c.567-1.954 1.14-3.926 3.947-3.563.356.045.787-.174 1.122-.371 2.49-1.479 4.562-3.377 5.768-6.073.856-1.916-.162-3.526-2.269-3.637-3.415-.177-7.833 3.622-8.15 7.022a9.292 9.292 0 0 1-.03.262c-.048.384-.1.799.063 1.064.732 1.191.224 2.119-.286 3.049-.142.26-.284.519-.4.785-.101.23-.221.476-.517.443-.27-.03-.315-.254-.357-.462-.007-.037-.015-.074-.024-.11-.107-.447-.21-.896-.314-1.345-.187-.811-.375-1.623-.587-2.429-.805-3.047-1.28-6.034 1.237-8.605.153-.158.249-.376.343-.59.029-.066.057-.131.088-.194.913-1.886 1.55-3.793.44-5.834-.219-.401-.407-.883-.117-1.278a11.98 11.98 0 0 1 3.011-2.865c.565-.376 1.02-.169 1.475.038.203.093.407.185.62.226.383.075.802.096 1.189.036 2.391-.365 4.208-1.766 5.77-3.466.826-.898.294-2.206-.829-2.452-2.682-.589-6.615 1.506-7.57 4.011-.098.264-.284.551-.511.695-1.069.664-1.967 1.52-2.859 2.391-.317.308-.7.59-1.197.479-.82-.186-2.814-2.796-2.855-3.676-.116-2.402.202-4.768.52-7.132l.156-1.179c.234-1.823 2.101-3.332 4.017-3.389.638-.019 1.276-.014 1.915-.009.657.005 1.315.01 1.973-.012.994-.03 2.065-.269 2.098-1.445.036-1.195-1.033-1.461-2.023-1.515-1.659-.09-3.266.29-4.858.692-.623.158-1.06.538-1.09 1.251-.02.512-.086 1.14-.727 1.095-.57-.039-.525-.467-.484-.862.013-.121.026-.239.02-.341-.123-2.239-.916-4.074-3.044-5.082-1.18-.56-2.346-.563-3.217.601-.668.895-.354 2.422.553 3.382.973 1.033 2.236 1.279 3.538 1.32.982.03 1.395.401 1.212 1.368-.24 1.285-.488 2.571-.75 3.929zm8.45 70.172c-.644-1.257-.868-2.131-.593-3.448l.002.002c-.274 1.316-.047 2.186.591 3.44v.006z" fill="#C8D9FA"/>
    <path d="M233.309 211.939c.617-1.921 1.943-3.406 2.99-5.244 1.009 1.26.743 2.589.829 3.748.336 4.379 2.925 6.695 6.75 8.207 2.251.892 4.57 1.691 6.615 3.05-.779.275-1.545.61-2.398.557-1.113-.976-2.463-1.467-3.867-1.796-2.748-.65-5.507-1.236-8.258-1.865-.667-.153-1.383-.219-1.904-.757-.054-1.994-.461-3.939-.757-5.9z" fill="#B0492F"/>
    <path d="M248.092 222.261c.856.054 1.619-.284 2.398-.556 2.762-.683 5.348-.219 7.791 1.197-.228.826-.416 1.67-1.042 2.316-.853-.751-1.757-1.254-2.891-.559-1.946.521-3.856 1.242-5.93 1.074-.562-1.113-.239-2.31-.326-3.469v-.003z" fill="#E7A496"/>
    <path d="M233.31 211.941c.293 1.961.701 3.909.757 5.9-1.131.275-2.119-.311-3.166-.536-.458-.099-.656-.458-.413-.913.832-1.55 1.484-3.217 2.822-4.451z" fill="#C8D9FA"/>
    <path d="M248.419 225.731c2.071.167 3.981-.551 5.929-1.075.315.707.823 1.332.856 2.149-2.382.234-4.765.129-7.15.057.009-.416.027-.826.368-1.134l-.003.003z" fill="#B0492F"/>
    <path d="M255.205 226.804c-.033-.817-.542-1.443-.856-2.149 1.134-.695 2.038-.192 2.891.559-.156 1.201-.584 2.051-2.035 1.59z" fill="#DB6142"/>
    <path d="M252.269 139.701c-.3.066-.596.132-.895.201.248-3.266.425-6.54.775-9.797.248-2.326-.599-3.143-2.823-2.466-.326.098-.718.194-1.023.104-1-.302-1.527.084-1.997.958-.455.844-1.254 1.027-2.197.68-.449-.165-.9-.982-1.397-.309-.494.668-.859 1.509-.506 2.383.293.733.694 1.428 1.065 2.131 1.075 2.017 2.17 4.026 3.23 6.052.183.353.611.85 0 1.146-.464.222-.691-.26-.874-.607a6028.543 6028.543 0 0 1-5.929-11.209c-.159-.303-.327-.614-.174-.937.353-.177.491.036.676.203.393.356.509 1.413 1.174.967.598-.401.886-1.335.422-2.155-.539-.952-.665-1.969-.608-3.029.018-.344-.021-.757.392-.883.467-.144.793.186.934.557.213.55.329 1.14.443 1.721.057.287.039.598.018.895-.081 1.107.557 1.766 1.431 2.242.383.209.826.122 1.074-.243.551-.805.913-1.646.359-2.634-.49-.877-.811-1.82-.745-2.852.033-.494-.012-1.087.623-1.206.682-.129.931.425 1.149.945.359.856.305 1.757.299 2.652-.003.65.156 1.18.803 1.461.431.188.865.284 1.263-.048.383-.317.239-.697.11-1.092-.23-.707-.514-1.416-.601-2.147-.105-.874.105-1.888 1.104-1.978.895-.081 1.078.907 1.171 1.64.092.737.053 1.491.056 2.236 0 .572.051 1.245.68 1.338.805.12.404-.718.616-1.092.141-.249.225-.533.527-.776.515 5.02-.245 9.979-.619 14.951l-.006-.003zM372.343 227.31c-.036-.093-.096-.177-.09-.255.009-.093-.045-.302.176-.206.045.021.057.17.042.254-.012.072-.08.132-.128.207z" fill="#FBFCFD"/>
    <path d="M43.114 72.273c-.015-2.697 2.12-4.876 4.774-4.879 2.535 0 4.774 2.197 4.81 4.73.036 2.628-2.176 4.858-4.813 4.852-2.643-.01-4.756-2.09-4.77-4.703z" fill="#fff"/>
    <defs>
        <linearGradient id="cxvhxjmvka" x1="254" y1="169.5" x2="254.301" y2="311.905" gradientUnits="userSpaceOnUse">
            <stop stop-color="#F7F9FC"/>
            <stop offset="1" stop-color="#fff"/>
        </linearGradient>
    </defs>
</svg>
