<svg width="56" height="56" viewBox="0 0 56 56" fill="none" xmlns="http://www.w3.org/2000/svg">
    <circle cx="28" cy="28" r="28" fill="#DEEBFF"/>
    <path d="m30.019 18.095 2.053 4.107c.28.571 1.027 1.12 1.657 1.225l3.721.618c2.38.397 2.94 2.123 1.225 3.827l-2.893 2.893c-.49.49-.758 1.435-.607 2.112l.829 3.581c.653 2.835-.852 3.932-3.36 2.45l-3.489-2.065c-.63-.373-1.668-.373-2.31 0l-3.488 2.065c-2.497 1.482-4.013.374-3.36-2.45l.828-3.581c.152-.677-.116-1.622-.606-2.112l-2.894-2.893c-1.703-1.704-1.155-3.43 1.225-3.827l3.722-.618c.618-.105 1.365-.654 1.645-1.225l2.053-4.107c1.12-2.228 2.94-2.228 4.049 0z" stroke="#0049B0" stroke-width="1.6" stroke-linecap="round" stroke-linejoin="round"/>
</svg>
