<svg width="72" height="64" viewBox="0 0 72 64" fill="none" xmlns="http://www.w3.org/2000/svg">
    <circle cx="32" cy="32" r="32" fill="#3C4249"/>
    <path d="M25.087 44.32c-1.727 0-3.05-.49-3.968-1.472-.917-.981-1.375-2.368-1.375-4.16V26.912c0-1.792.458-3.179 1.375-4.16.918-.981 2.24-1.472 3.968-1.472 1.729 0 3.051.49 3.968 1.472.918.981 1.377 2.368 1.377 4.16v11.776c0 1.792-.46 3.179-1.377 4.16-.917.981-2.24 1.472-3.968 1.472zm0-3.2c1.216 0 1.825-.736 1.825-2.208V26.688c0-1.472-.608-2.208-1.825-2.208-1.215 0-1.823.736-1.823 2.208v12.224c0 1.472.608 2.208 1.823 2.208zm7.661.448c0-1.6.256-2.965.768-4.096.512-1.152 1.43-2.421 2.752-3.808 1.301-1.387 2.197-2.57 2.688-3.552a6.556 6.556 0 0 0 .768-3.072c0-.96-.16-1.621-.48-1.984-.299-.384-.747-.576-1.344-.576-1.216 0-1.824.736-1.824 2.208v2.4h-3.328v-2.176c0-1.813.448-3.2 1.344-4.16.896-.981 2.197-1.472 3.904-1.472 1.707 0 3.008.49 3.904 1.472.896.96 1.344 2.347 1.344 4.16 0 1.365-.33 2.699-.992 4-.64 1.301-1.76 2.795-3.36 4.48-1.045 1.11-1.75 2.016-2.112 2.72a4.635 4.635 0 0 0-.544 2.208v.48h6.688V44H32.748v-2.432z" fill="#FBFCFD"/>
    <path d="m72 32-9-8v16l9-8z" fill="#3C4249"/>
</svg>
