<svg width="72" height="64" viewBox="0 0 72 64" fill="none" xmlns="http://www.w3.org/2000/svg">
    <circle cx="40" cy="32" r="32" fill="#3C4249"/>
    <path d="M33.087 44.32c-1.728 0-3.05-.49-3.968-1.472-.917-.981-1.375-2.368-1.375-4.16V26.912c0-1.792.458-3.179 1.375-4.16.918-.981 2.24-1.472 3.968-1.472 1.728 0 3.051.49 3.968 1.472.918.981 1.377 2.368 1.377 4.16v11.776c0 1.792-.46 3.179-1.377 4.16-.917.981-2.24 1.472-3.968 1.472zm0-3.2c1.216 0 1.824-.736 1.824-2.208V26.688c0-1.472-.608-2.208-1.824-2.208-1.216 0-1.824.736-1.824 2.208v12.224c0 1.472.608 2.208 1.824 2.208zm12.717 3.2c-1.728 0-3.04-.48-3.936-1.44-.875-.96-1.312-2.336-1.312-4.128v-1.824h3.328v1.984c0 1.472.608 2.208 1.824 2.208.597 0 1.045-.181 1.344-.544.32-.384.48-1.045.48-1.984v-1.824c0-1.024-.181-1.75-.544-2.176-.363-.448-.95-.672-1.76-.672h-1.184v-3.2h1.28c.704 0 1.227-.181 1.568-.544.363-.363.544-.97.544-1.824V26.72c0-.768-.16-1.333-.48-1.696-.32-.363-.747-.544-1.28-.544-1.13 0-1.696.693-1.696 2.08v1.472h-3.328v-1.184c0-1.792.437-3.168 1.312-4.128.896-.96 2.176-1.44 3.84-1.44 1.685 0 2.965.48 3.84 1.44.875.939 1.312 2.304 1.312 4.096v.8c0 1.216-.203 2.197-.608 2.944-.405.725-1.035 1.248-1.888 1.568v.064c.917.341 1.579.896 1.984 1.664.405.768.608 1.75.608 2.944v1.984c0 1.792-.448 3.168-1.344 4.128-.875.939-2.176 1.408-3.904 1.408z" fill="#FBFCFD"/>
    <path d="m0 32 9-8v16l-9-8z" fill="#3C4249"/>
</svg>
