<svg width="72" height="64" viewBox="0 0 72 64" fill="none" xmlns="http://www.w3.org/2000/svg">
    <circle cx="40" cy="32" r="32" fill="#3C4249"/>
    <path d="m0 32 9-8v16l-9-8z" fill="#3C4249"/>
    <path d="M33.087 44.32c-1.728 0-3.05-.49-3.968-1.472-.917-.981-1.375-2.368-1.375-4.16V26.912c0-1.792.458-3.179 1.375-4.16.918-.981 2.24-1.472 3.968-1.472 1.728 0 3.051.49 3.968 1.472.918.981 1.377 2.368 1.377 4.16v11.776c0 1.792-.46 3.179-1.377 4.16-.917.981-2.24 1.472-3.968 1.472zm0-3.2c1.216 0 1.824-.736 1.824-2.208V26.688c0-1.472-.608-2.208-1.824-2.208-1.216 0-1.824.736-1.824 2.208v12.224c0 1.472.608 2.208 1.824 2.208zM45.74 26.912h-3.68v-2.496c1.003 0 1.803-.085 2.4-.256.619-.17 1.11-.448 1.472-.832.363-.405.683-.981.96-1.728h2.368V44h-3.52V26.912z" fill="#FBFCFD"/>
</svg>
