<svg width="256" height="152" viewBox="0 0 256 152" fill="none" xmlns="http://www.w3.org/2000/svg">
    <rect width="256" height="152" rx="16" fill="#DEEBFF"/>
    <circle cx="187" cy="68" r="4" fill="#fff"/>
    <circle cx="147" cy="23" r="4" fill="#fff"/>
    <circle cx="69" cy="85" r="4" fill="#fff"/>
    <path d="M155.012 45.984a2 2 0 0 0-2-2h-1.752c-2.908 0-4.58 1.892-5.548 3.78-.66 1.292-1.136 2.868-1.532 4.236H103a4 4 0 0 0-3.848 5.088l5.984 21.1A8 8 0 0 0 112.832 84h20.316a7.999 7.999 0 0 0 7.72-5.892l2.568-9.42c.015-.042.028-.085.04-.128l4.124-13.988.4-1.348c.4-1.384.752-2.608 1.28-3.636.636-1.24 1.22-1.6 1.984-1.6h1.752a2 2 0 0 0 2-2l-.004-.004zM133 100a6.002 6.002 0 0 1-6-6 6 6 0 1 1 6 6zm-20 0a6.002 6.002 0 0 1-6-6 6 6 0 1 1 6 6z" fill="#0066EA"/>
    <circle cx="123.5" cy="48.5" r="11.5" fill="#fff"/>
    <path fill-rule="evenodd" clip-rule="evenodd" d="M123 64a16.001 16.001 0 0 0 11.314-27.314A16.007 16.007 0 0 0 123 32a16.002 16.002 0 0 0-16 16 16.002 16.002 0 0 0 16 16zm8.476-20.196a1.77 1.77 0 0 0 .241-1.987 1.763 1.763 0 0 0-1.06-.884 1.78 1.78 0 0 0-1.911.596l-6.397 7.675c-.617.74-.963 1.15-1.239 1.4l-.01.011-.013-.009c-.299-.226-.681-.602-1.36-1.283l-2.581-2.58a1.78 1.78 0 0 0-2.492.022 1.776 1.776 0 0 0-.022 2.492l2.58 2.58.072.072c.582.582 1.138 1.14 1.659 1.533.581.44 1.344.853 2.32.81.978-.044 1.7-.526 2.24-1.016.48-.44.987-1.046 1.511-1.677l.066-.078 6.396-7.677z" fill="#45D93F"/>
    <path d="M107 117h40M99 129h56" stroke="#ABC6F6" stroke-width="6" stroke-linecap="round"/>
</svg>
