<svg width="176" height="152" viewBox="0 0 176 152" fill="none" xmlns="http://www.w3.org/2000/svg">
    <rect width="176" height="152" rx="16" fill="#DEEBFF"/>
    <circle cx="148" cy="68" r="4" fill="#fff"/>
    <circle cx="108" cy="23" r="4" fill="#fff"/>
    <circle cx="30" cy="85" r="4" fill="#fff"/>
    <path d="M116.012 45.984a2 2 0 0 0-2-2h-1.752c-2.908 0-4.58 1.892-5.548 3.78-.66 1.292-1.136 2.868-1.532 4.236H64a4.001 4.001 0 0 0-3.848 5.088l5.984 21.1A8 8 0 0 0 73.832 84h20.316a8 8 0 0 0 7.72-5.892l2.568-9.42c.015-.042.028-.085.04-.128l4.124-13.988.4-1.348c.4-1.384.752-2.608 1.28-3.636.636-1.24 1.22-1.6 1.984-1.6h1.752a2 2 0 0 0 2-2l-.004-.004zM94 100a6 6 0 1 1-.001-12A6 6 0 0 1 94 100zm-20 0a6 6 0 1 1-.001-12A6 6 0 0 1 74 100z" fill="#0066EA"/>
    <circle cx="84.5" cy="48.5" r="11.5" fill="#fff"/>
    <path fill-rule="evenodd" clip-rule="evenodd" d="M84 64a16.001 16.001 0 1 0 0-32.002A16.001 16.001 0 0 0 84 64zm8.476-20.196a1.776 1.776 0 0 0-.819-2.87 1.78 1.78 0 0 0-1.911.595l-6.397 7.675c-.617.74-.963 1.15-1.239 1.4l-.01.011-.013-.009c-.299-.226-.68-.602-1.36-1.283l-2.581-2.58a1.778 1.778 0 0 0-2.514 2.514l2.58 2.58.072.072c.582.582 1.138 1.14 1.66 1.533.58.44 1.343.853 2.32.81.977-.044 1.699-.526 2.24-1.016.48-.44.986-1.046 1.51-1.677l.066-.078 6.396-7.677z" fill="#45D93F"/>
    <path d="M68 117h40M60 129h56" stroke="#ABC6F6" stroke-width="6" stroke-linecap="round"/>
</svg>
