<svg width="32" height="32" viewBox="0 0 32 32" fill="none" xmlns="http://www.w3.org/2000/svg">
<g clip-path="url(#clip0_8870_44084)">
<path d="M26.3528 10.4461L19.4195 3.51273C19.219 3.3122 18.948 3.2002 18.6654 3.2002H7.46536C6.2867 3.2002 5.33203 4.15486 5.33203 5.33353V27.7335C5.33203 28.9122 6.2867 29.8669 7.46536 29.8669H24.532C25.7107 29.8669 26.6654 28.9122 26.6654 27.7335V11.2002C26.6654 10.9175 26.5534 10.6466 26.3528 10.4461ZM19.1987 11.7335C18.6099 11.7335 18.132 11.2557 18.132 10.6669V5.23113L24.6344 11.7335H19.1987Z" fill="#6554C0"/>
<path d="M9.67755 17.6H11.6215C12.2775 17.6 12.7695 17.776 13.0975 18.128C13.4255 18.48 13.5895 18.996 13.5895 19.676V20.504C13.5895 21.184 13.4255 21.7 13.0975 22.052C12.7695 22.404 12.2775 22.58 11.6215 22.58H10.9975V26H9.67755V17.6ZM11.6215 21.38C11.8375 21.38 11.9975 21.32 12.1015 21.2C12.2135 21.08 12.2695 20.876 12.2695 20.588V19.592C12.2695 19.304 12.2135 19.1 12.1015 18.98C11.9975 18.86 11.8375 18.8 11.6215 18.8H10.9975V21.38H11.6215ZM14.3065 17.6H16.3225C16.9785 17.6 17.4705 17.776 17.7985 18.128C18.1265 18.48 18.2905 18.996 18.2905 19.676V23.924C18.2905 24.604 18.1265 25.12 17.7985 25.472C17.4705 25.824 16.9785 26 16.3225 26H14.3065V17.6ZM16.2985 24.8C16.5145 24.8 16.6785 24.736 16.7905 24.608C16.9105 24.48 16.9705 24.272 16.9705 23.984V19.616C16.9705 19.328 16.9105 19.12 16.7905 18.992C16.6785 18.864 16.5145 18.8 16.2985 18.8H15.6265V24.8H16.2985ZM19.1815 17.6H22.6735V18.8H20.5015V21.14H22.2055V22.34H20.5015V26H19.1815V17.6Z" fill="white"/>
</g>
<defs>
<clipPath id="clip0_8870_44084">
<rect width="32" height="32" fill="white"/>
</clipPath>
</defs>
</svg>
