<svg width="24" height="24" viewBox="0 0 24 24" fill="none" xmlns="http://www.w3.org/2000/svg">
    <g clip-path="url(#2hylsvloka)">
        <path d="M21.414 4.185C15.4 2.449 12.076 0 12.076 0S8.597 2.42 2.583 4.156c-.02.02-2.257 17.477 9.333 19.83l.15-.03h.01v-.004c11.586-2.353 9.357-19.743 9.338-19.767z" fill="#EBEFF4"/>
        <path d="M19.575 5.524C14.778 4.14 12 2.207 12 2.207s0 .386.005 1.056H12V2.207S9.382 4.111 4.584 5.495c-.02.02-1.863 13.34 7.469 16.156l.049.014s-.005-.01-.005-.028c9.332-2.811 7.498-16.094 7.478-16.113z" fill="#36B27E"/>
        <path d="m9.275 11.474.594.52a.59.59 0 0 0 .841-.067l3.985-4.778a.593.593 0 0 1 .818-.087l.934.719a.578.578 0 0 1 .093.829l-5.669 6.836a.593.593 0 0 1-.876.039l-2.34-2.367a.577.577 0 0 1-.005-.81l.774-.8a.619.619 0 0 1 .851-.034z" fill="#fff"/>
    </g>
    <defs>
        <clipPath id="2hylsvloka">
            <path fill="#fff" transform="translate(2.4)" d="M0 0h19.2v24H0z"/>
        </clipPath>
    </defs>
</svg>
