<svg width="4" height="16" viewBox="0 0 4 16" fill="none" xmlns="http://www.w3.org/2000/svg">
<path d="M2.75 8C2.75 7.51675 2.35825 7.125 1.875 7.125C1.39175 7.125 1 7.51675 1 8C1 8.48325 1.39175 8.875 1.875 8.875C2.35825 8.875 2.75 8.48325 2.75 8Z" stroke="#6B7280" stroke-width="2" stroke-linecap="round" stroke-linejoin="round"/>
<path d="M2.75 1.875C2.75 1.39175 2.35825 1 1.875 1C1.39175 1 1 1.39175 1 1.875C1 2.35825 1.39175 2.75 1.875 2.75C2.35825 2.75 2.75 2.35825 2.75 1.875Z" stroke="#6B7280" stroke-width="2" stroke-linecap="round" stroke-linejoin="round"/>
<path d="M2.75 14.125C2.75 13.6418 2.35825 13.25 1.875 13.25C1.39175 13.25 1 13.6418 1 14.125C1 14.6082 1.39175 15 1.875 15C2.35825 15 2.75 14.6082 2.75 14.125Z" stroke="#6B7280" stroke-width="2" stroke-linecap="round" stroke-linejoin="round"/>
</svg>
