<svg width="16" height="16" viewBox="0 0 16 16" fill="none" xmlns="http://www.w3.org/2000/svg">
<path d="M8 15C11.866 15 15 11.866 15 8C15 4.13401 11.866 1 8 1C4.13401 1 1 4.13401 1 8C1 11.866 4.13401 15 8 15Z" stroke="#6B7280" stroke-width="1.4" stroke-linecap="round" stroke-linejoin="round"/>
<path d="M5.19973 1.7002H5.89973C4.53473 5.7882 4.53473 10.2122 5.89973 14.3002H5.19973" stroke="#6B7280" stroke-width="1.4" stroke-linecap="round" stroke-linejoin="round"/>
<path d="M10.0996 1.7002C11.4646 5.7882 11.4646 10.2122 10.0996 14.3002" stroke="#6B7280" stroke-width="1.4" stroke-linecap="round" stroke-linejoin="round"/>
<path d="M1.7002 10.7996V10.0996C5.7882 11.4646 10.2122 11.4646 14.3002 10.0996V10.7996" stroke="#6B7280" stroke-width="1.4" stroke-linecap="round" stroke-linejoin="round"/>
<path d="M1.7002 5.89973C5.7882 4.53473 10.2122 4.53473 14.3002 5.89973" stroke="#6B7280" stroke-width="1.4" stroke-linecap="round" stroke-linejoin="round"/>
</svg>
