<svg width="24" height="24" viewBox="0 0 24 24" fill="none" xmlns="http://www.w3.org/2000/svg">
<g clip-path="url(#clip0_245_71744)">
<rect width="24" height="24" rx="12" fill="#1A1A62"/>
<path d="M8.99458 15.4408C8.99458 16.3795 8.99458 17.2673 8.99458 18.155C8.99458 18.4249 8.99262 18.6943 8.99556 18.9642C8.99703 19.0829 8.99458 19.1639 8.84049 19.0721C8.18145 18.6801 7.52045 18.2914 6.85552 17.9086C6.74216 17.8434 6.7559 17.7541 6.7559 17.6584C6.7559 16.9473 6.7559 16.2363 6.7559 15.5252C6.7559 13.0981 6.75933 10.6705 6.75001 8.24335C6.74903 8.03234 6.81969 7.92879 6.99586 7.8277C8.65647 6.8703 10.3136 5.90505 11.9674 4.9344C12.0994 4.85686 12.1887 4.8549 12.3173 4.93047C13.9931 5.91192 15.6704 6.88944 17.3516 7.86156C17.4885 7.94057 17.5445 8.02056 17.544 8.18397C17.5376 10.0801 17.5371 11.9763 17.544 13.8719C17.5449 14.0619 17.4802 14.158 17.3192 14.2523C15.663 15.219 14.0108 16.1926 12.3619 17.1721C12.2015 17.2673 12.0891 17.2712 11.9262 17.173C10.9693 16.5969 10.0035 16.0346 8.99507 15.4403L8.99458 15.4408ZM9.02599 9.24884C9.01372 9.27779 8.99065 9.30625 8.99016 9.33521C8.9882 10.4712 8.98918 11.6073 8.98575 12.7438C8.98575 12.8503 9.03187 12.9037 9.11824 12.9528C10.1036 13.5162 11.087 14.083 12.0709 14.6488C12.1774 14.7464 12.252 14.6439 12.329 14.6007C12.5842 14.4574 12.834 14.3048 13.0877 14.158C13.7644 13.7669 14.4401 13.3748 15.1193 12.9882C15.2542 12.9116 15.3077 12.8189 15.3068 12.6574C15.2984 11.5901 15.3023 10.5223 15.3004 9.45445C15.3004 9.38428 15.3249 9.30576 15.2582 9.24786C15.1993 9.20664 15.1433 9.16002 15.0815 9.1242C14.2556 8.64623 13.4175 8.18839 12.6088 7.68343C12.2682 7.47095 12.0199 7.47046 11.6788 7.68441C10.8103 8.2301 9.91272 8.72965 9.02697 9.24786L9.02599 9.24884Z" fill="white"/>
<path d="M15.2582 9.24805C15.3249 9.30595 15.3004 9.38398 15.3004 9.45415C15.3023 10.522 15.2984 11.5893 15.3068 12.6571C15.3082 12.8186 15.2542 12.9108 15.1193 12.9879C14.4401 13.3745 13.7639 13.7666 13.0877 14.1577C12.8345 14.3045 12.5842 14.4571 12.329 14.6004C12.252 14.6436 12.1779 14.7461 12.0709 14.6485C12.1514 14.566 12.1171 14.463 12.1171 14.3687C12.1195 13.2509 12.1195 12.133 12.12 11.0151C13.1657 10.4263 14.212 9.83741 15.2577 9.24805H15.2582Z" fill="#A12F4C"/>
<path d="M12.1205 11.0156C12.1205 12.1335 12.1205 13.2514 12.1175 14.3692C12.1175 14.4635 12.1514 14.5665 12.0714 14.6489C11.0875 14.0831 10.1041 13.5164 9.11871 12.953C9.03234 12.9034 8.98572 12.8504 8.98621 12.744C8.98964 11.6079 8.98866 10.4719 8.99063 9.33539C8.99063 9.30644 9.01369 9.27798 9.02645 9.24902C9.05295 9.26669 9.07896 9.28583 9.10693 9.30202C10.1114 9.87371 11.1159 10.4444 12.121 11.0156H12.1205Z" fill="#C32058"/>
</g>
<defs>
<clipPath id="clip0_245_71744">
<rect width="24" height="24" fill="white"/>
</clipPath>
</defs>
</svg>
