<?xml version="1.0" encoding="UTF-8"?>
<svg xmlns="http://www.w3.org/2000/svg" xmlns:xlink="http://www.w3.org/1999/xlink" width="20px" height="20px" viewBox="0 0 20 20" version="1.1">
<g id="surface1">
<path style=" stroke:none;fill-rule:nonzero;fill:rgb(10.196078%,10.196078%,38.431373%);fill-opacity:1;" d="M 10 0 C 15.523438 0 20 4.476562 20 10 C 20 15.523438 15.523438 20 10 20 C 4.476562 20 0 15.523438 0 10 C 0 4.476562 4.476562 0 10 0 Z M 10 0 "/>
<path style=" stroke:none;fill-rule:nonzero;fill:rgb(100%,100%,100%);fill-opacity:1;" d="M 7.496094 12.867188 C 7.496094 13.648438 7.496094 14.390625 7.496094 15.128906 C 7.496094 15.355469 7.492188 15.578125 7.496094 15.804688 C 7.496094 15.902344 7.496094 15.96875 7.367188 15.894531 C 6.816406 15.566406 6.265625 15.242188 5.714844 14.925781 C 5.617188 14.871094 5.628906 14.796875 5.628906 14.714844 C 5.628906 14.121094 5.628906 13.53125 5.628906 12.9375 C 5.628906 10.914062 5.632812 8.890625 5.625 6.871094 C 5.625 6.695312 5.683594 6.605469 5.828125 6.523438 C 7.214844 5.726562 8.59375 4.921875 9.972656 4.113281 C 10.082031 4.046875 10.15625 4.046875 10.265625 4.109375 C 11.660156 4.925781 13.058594 5.742188 14.460938 6.550781 C 14.574219 6.617188 14.621094 6.683594 14.621094 6.820312 C 14.613281 8.398438 14.613281 9.980469 14.621094 11.558594 C 14.621094 11.71875 14.566406 11.796875 14.433594 11.875 C 13.050781 12.683594 11.675781 13.492188 10.300781 14.308594 C 10.167969 14.390625 10.074219 14.394531 9.9375 14.3125 C 9.140625 13.832031 8.335938 13.363281 7.496094 12.867188 Z M 7.523438 7.707031 C 7.511719 7.730469 7.492188 7.753906 7.492188 7.78125 C 7.488281 8.726562 7.492188 9.671875 7.488281 10.621094 C 7.488281 10.707031 7.527344 10.753906 7.597656 10.792969 C 8.417969 11.261719 9.238281 11.734375 10.058594 12.207031 C 10.148438 12.289062 10.210938 12.203125 10.273438 12.167969 C 10.488281 12.046875 10.695312 11.921875 10.90625 11.796875 C 11.46875 11.472656 12.035156 11.144531 12.597656 10.824219 C 12.710938 10.757812 12.757812 10.683594 12.753906 10.546875 C 12.75 9.660156 12.75 8.769531 12.75 7.878906 C 12.75 7.820312 12.769531 7.753906 12.714844 7.707031 C 12.667969 7.671875 12.621094 7.632812 12.566406 7.601562 C 11.878906 7.207031 11.179688 6.824219 10.507812 6.402344 C 10.222656 6.226562 10.015625 6.226562 9.730469 6.402344 C 9.007812 6.859375 8.261719 7.273438 7.523438 7.707031 Z M 7.523438 7.707031 "/>
<path style=" stroke:none;fill-rule:nonzero;fill:rgb(63.137255%,18.431373%,29.803922%);fill-opacity:1;" d="M 12.714844 7.707031 C 12.769531 7.753906 12.75 7.820312 12.75 7.878906 C 12.75 8.769531 12.75 9.65625 12.753906 10.546875 C 12.757812 10.683594 12.710938 10.757812 12.597656 10.824219 C 12.035156 11.144531 11.46875 11.472656 10.90625 11.796875 C 10.695312 11.921875 10.488281 12.046875 10.273438 12.167969 C 10.210938 12.203125 10.148438 12.289062 10.058594 12.207031 C 10.125 12.136719 10.097656 12.050781 10.097656 11.972656 C 10.097656 11.042969 10.097656 10.109375 10.101562 9.179688 C 10.972656 8.6875 11.84375 8.199219 12.714844 7.707031 Z M 12.714844 7.707031 "/>
<path style=" stroke:none;fill-rule:nonzero;fill:rgb(76.470588%,12.54902%,34.509804%);fill-opacity:1;" d="M 10.101562 9.179688 C 10.101562 10.109375 10.101562 11.042969 10.097656 11.972656 C 10.097656 12.054688 10.125 12.140625 10.058594 12.207031 C 9.238281 11.734375 8.421875 11.261719 7.597656 10.792969 C 7.527344 10.753906 7.488281 10.707031 7.488281 10.621094 C 7.492188 9.671875 7.492188 8.726562 7.492188 7.78125 C 7.492188 7.753906 7.511719 7.730469 7.523438 7.707031 C 7.542969 7.722656 7.566406 7.738281 7.589844 7.75 C 8.425781 8.226562 9.261719 8.703125 10.101562 9.179688 Z M 10.101562 9.179688 "/>
</g>
</svg>
