<svg xmlns="http://www.w3.org/2000/svg" xmlns:xlink="http://www.w3.org/1999/xlink" width="56" height="56" viewBox="0 0 56 56">
    <defs>
        <path id="398u84awda" d="M0 0H56V56H0z"/>
    </defs>
    <g fill="none" fill-rule="evenodd">
        <g>
            <g>
                <g transform="translate(-288 -2094) translate(256 1814) translate(32 280)">
                    <mask id="n8mgrwvbwb" fill="#fff">
                        <use xlink:href="#398u84awda"/>
                    </mask>
                    <use fill="#F4F5F7" xlink:href="#398u84awda"/>
                    <path fill="#C1C7D0" fill-rule="nonzero" d="M20.737 16C18.132 16 16 18.132 16 20.737v11.368c0 2.605 2.132 4.737 4.737 4.737h11.368c2.605 0 4.737-2.132 4.737-4.737V20.737c0-2.605-2.132-4.737-4.737-4.737H20.737zm0 1.895h11.368c1.581 0 2.842 1.26 2.842 2.842v11.368c0 .44-.106.851-.28 1.221l-6.494-6.492c-.48-.48-1.116-.72-1.752-.72-.636 0-1.273.24-1.753.72l-6.492 6.492c-.175-.37-.281-.78-.281-1.22v-11.37c0-1.58 1.26-2.841 2.842-2.841zm17.368 2.219v12.623c0 2.96-2.408 5.368-5.368 5.368H20.114c.865 1.148 2.235 1.895 3.78 1.895h8.843C36.742 40 40 36.742 40 32.737v-8.842c0-1.545-.747-2.916-1.895-3.781zm-7.894.939c-.873 0-1.58.707-1.58 1.579s.707 1.579 1.58 1.579c.872 0 1.578-.707 1.578-1.58 0-.871-.706-1.578-1.578-1.578zm-3.79 6.945c.148 0 .294.058.412.176l6.493 6.492c-.37.175-.78.281-1.22.281h-11.37c-.44 0-.85-.106-1.22-.28l6.492-6.493c.117-.118.266-.176.413-.176z" mask="url(#n8mgrwvbwb)" opacity=".718"/>
                </g>
            </g>
        </g>
    </g>
</svg>
