<svg width="508" height="272" viewBox="0 0 508 272" fill="none" xmlns="http://www.w3.org/2000/svg">
    <path d="M507.798 248.705H128.086v.19h379.712v-.19zM308.069 214.834H161.432a4.333 4.333 0 0 1-4.328-4.336V4.368a4.338 4.338 0 0 1 4.328-4.299h146.637a4.34 4.34 0 0 1 4.337 4.337v206.092a4.336 4.336 0 0 1-4.337 4.336zM161.432.221a4.147 4.147 0 0 0-4.139 4.147v206.13a4.146 4.146 0 0 0 4.139 4.146h146.637a4.154 4.154 0 0 0 4.147-4.146V4.368A4.155 4.155 0 0 0 308.069.22H161.432zM472.34 214.834H325.696a4.345 4.345 0 0 1-4.337-4.336V4.368a4.343 4.343 0 0 1 4.337-4.299H472.34a4.334 4.334 0 0 1 4.321 4.299v206.13a4.333 4.333 0 0 1-4.321 4.336zM325.696.221a4.154 4.154 0 0 0-4.147 4.147v206.13a4.155 4.155 0 0 0 4.147 4.146H472.34a4.154 4.154 0 0 0 4.147-4.146V4.368A4.155 4.155 0 0 0 472.34.22H325.696zM280.306 255.935h-19.745v.189h19.745v-.189zM209.011 253.876h-41.085v.19h41.085v-.19zM259.801 262.989h-19.989v.19h19.989v-.19zM353.681 261.714h-29.489v.19h29.489v-.19zM368.558 261.714h-8.119v.19h8.119v-.19zM469.758 258.509h-41.434v.19h41.434v-.19z" fill="#EBEBEB"/>
    <path d="M415.149 94.237h40.249a3.503 3.503 0 0 1 3.501 3.501v150.966h-47.213V97.746a3.5 3.5 0 0 1 3.463-3.508z" fill="url(#m8i3hpug5a)"/>
    <path d="M425.264 103.366h-7.594v16.905h7.594v-16.905zM439.108 103.366h-7.594v16.905h7.594v-16.905zM452.953 103.366h-7.595v16.905h7.595v-16.905zM425.264 130.061h-7.594v16.904h7.594v-16.904zM439.108 130.061h-7.594v16.904h7.594v-16.904zM452.953 130.061h-7.595v16.904h7.595v-16.904zM425.264 156.754h-7.594v16.905h7.594v-16.905zM439.108 156.754h-7.594v16.905h7.594v-16.905zM452.953 156.754h-7.595v16.905h7.595v-16.905zM425.264 183.439h-7.594v16.905h7.594v-16.905zM439.108 183.439h-7.594v16.905h7.594v-16.905zM452.953 183.439h-7.595v16.905h7.595v-16.905zM425.264 210.134h-7.594v16.905h7.594v-16.905zM439.108 210.134h-7.594v16.905h7.594v-16.905zM452.953 210.134h-7.595v16.905h7.595v-16.905z" fill="#DEE6F3"/>
    <path d="M466.975 135.414h29.52a2.563 2.563 0 0 1 2.568 2.568v110.722h-34.627V137.987a2.563 2.563 0 0 1 2.539-2.573z" fill="url(#apl18z9h6b)"/>
    <path d="M474.394 142.109h-5.57v12.399h5.57v-12.399zM484.547 142.109h-5.569v12.399h5.569v-12.399zM494.702 142.109h-5.57v12.399h5.57v-12.399zM474.394 161.688h-5.57v12.398h5.57v-12.398zM484.547 161.688h-5.569v12.398h5.569v-12.398zM494.702 161.688h-5.57v12.398h5.57v-12.398zM474.394 181.266h-5.57v12.398h5.57v-12.398zM484.547 181.266h-5.569v12.398h5.569v-12.398zM494.702 181.266h-5.57v12.398h5.57v-12.398zM474.394 200.837h-5.57v12.398h5.57v-12.398zM484.547 200.837h-5.569v12.398h5.569v-12.398zM494.702 200.837h-5.57v12.398h5.57v-12.398zM474.394 220.416h-5.57v12.398h5.57v-12.398zM484.547 220.416h-5.569v12.398h5.569v-12.398zM494.702 220.416h-5.57v12.398h5.57v-12.398z" fill="#DEE6F3"/>
    <path d="M231.71 134.355h29.52a2.565 2.565 0 0 1 1.815.753 2.55 2.55 0 0 1 .752 1.815v110.722H229.17V136.929a2.566 2.566 0 0 1 2.54-2.574z" fill="url(#k3it9kt6fc)"/>
    <path d="M239.128 141.051h-5.569v12.398h5.569v-12.398zM249.282 141.051h-5.57v12.398h5.57v-12.398zM259.436 141.051h-5.57v12.398h5.57v-12.398zM239.128 160.629h-5.569v12.398h5.569v-12.398zM249.282 160.629h-5.57v12.398h5.57v-12.398zM259.436 160.629h-5.57v12.398h5.57v-12.398zM239.128 180.207h-5.569v12.398h5.569v-12.398zM249.282 180.207h-5.57v12.398h5.57v-12.398zM259.436 180.207h-5.57v12.398h5.57v-12.398zM239.128 199.778h-5.569v12.399h5.569v-12.399zM249.282 199.778h-5.57v12.399h5.57v-12.399zM259.436 199.778h-5.57v12.399h5.57v-12.399zM239.128 219.357h-5.569v12.399h5.569v-12.399zM249.282 219.357h-5.57v12.399h5.57v-12.399zM259.436 219.357h-5.57v12.399h5.57v-12.399z" fill="#DEE6F3"/>
    <path d="M298.701 133.22h29.52a2.572 2.572 0 0 1 1.816.752 2.563 2.563 0 0 1 .752 1.815V246.51h-34.628V135.793a2.57 2.57 0 0 1 2.54-2.573z" fill="#F5F5F5"/>
    <path d="M306.12 139.915h-5.57v12.398h5.57v-12.398zM316.273 139.915h-5.57v12.398h5.57v-12.398zM326.427 139.915h-5.57v12.398h5.57v-12.398zM306.12 159.493h-5.57v12.399h5.57v-12.399zM316.273 159.493h-5.57v12.399h5.57v-12.399zM326.427 159.493h-5.57v12.399h5.57v-12.399zM306.12 179.071h-5.57v12.399h5.57v-12.399zM316.273 179.071h-5.57v12.399h5.57v-12.399zM326.427 179.071h-5.57v12.399h5.57v-12.399zM306.12 198.643h-5.57v12.398h5.57v-12.398zM316.273 198.643h-5.57v12.398h5.57v-12.398zM326.427 198.643h-5.57v12.398h5.57v-12.398zM306.12 218.222h-5.57v12.398h5.57v-12.398zM316.273 218.222h-5.57v12.398h5.57v-12.398zM326.427 218.222h-5.57v12.398h5.57v-12.398z" fill="#EBEBEB"/>
    <path d="M174.668 56.893h49.981a4.342 4.342 0 0 1 3.074 1.273 4.35 4.35 0 0 1 1.273 3.074v187.464h-58.628V61.249a4.35 4.35 0 0 1 4.3-4.357z" fill="url(#a2r2y6kw9d)"/>
    <path d="M187.229 68.228h-9.43V89.22h9.43V68.228zM204.42 68.228h-9.431V89.22h9.431V68.228zM221.612 68.228h-9.43V89.22h9.43V68.228zM187.229 101.376h-9.43v20.992h9.43v-20.992zM204.42 101.376h-9.431v20.992h9.431v-20.992zM221.612 101.376h-9.43v20.992h9.43v-20.992zM187.229 134.523h-9.43v20.992h9.43v-20.992zM204.42 134.523h-9.431v20.992h9.431v-20.992zM221.612 134.523h-9.43v20.992h9.43v-20.992zM187.229 167.66h-9.43v20.992h9.43V167.66zM204.42 167.66h-9.431v20.992h9.431V167.66zM221.612 167.66h-9.43v20.992h9.43V167.66zM187.229 200.81h-9.43v20.991h9.43V200.81zM204.42 200.81h-9.431v20.991h9.431V200.81zM221.612 200.81h-9.43v20.991h9.43V200.81z" fill="#DEE6F3"/>
    <path d="M322.947 51.034h65.379a5.007 5.007 0 0 1 5.004 5.005v192.666h-75.388V56.039a5.007 5.007 0 0 1 5.005-5.005z" fill="url(#chjimed3me)"/>
    <path d="M333.921 62.714H324.2V84.35h9.721V62.714zM387.072 62.714h-9.72V84.35h9.72V62.714zM351.638 62.714h-9.721V84.35h9.721V62.714zM369.355 62.714h-9.72V84.35h9.72V62.714zM333.921 96.873H324.2v21.636h9.721V96.873zM387.072 96.873h-9.72v21.636h9.72V96.873zM351.638 96.873h-9.721v21.636h9.721V96.873zM369.355 96.873h-9.72v21.636h9.72V96.873zM333.921 131.032H324.2v21.636h9.721v-21.636zM387.072 131.032h-9.72v21.636h9.72v-21.636zM351.638 131.032h-9.721v21.636h9.721v-21.636zM369.355 131.032h-9.72v21.636h9.72v-21.636zM333.921 165.191H324.2v21.636h9.721v-21.636zM387.072 165.191h-9.72v21.636h9.72v-21.636zM351.638 165.191h-9.721v21.636h9.721v-21.636zM369.355 165.191h-9.72v21.636h9.72v-21.636zM333.921 199.342H324.2v21.636h9.721v-21.636zM387.072 199.342h-9.72v21.636h9.72v-21.636zM351.638 199.342h-9.721v21.636h9.721v-21.636zM369.355 199.342h-9.72v21.636h9.72v-21.636z" fill="#DEE6F3"/>
    <path d="M411.686 135.414h-18.348v113.291h18.348V135.414z" fill="url(#n97g44fx5f)"/>
    <path d="M68.662 78.8h56.197a4.306 4.306 0 0 1 4.306 4.306v165.6H64.379V83.098a4.306 4.306 0 0 1 4.283-4.298z" fill="url(#izktwh2f3g)"/>
    <path d="M78.093 88.839h-8.354v18.598h8.354V88.839zM123.78 88.839h-8.353v18.598h8.353V88.839zM93.32 88.839h-8.353v18.598h8.353V88.839zM108.554 88.839H100.2v18.598h8.354V88.839zM78.093 118.198h-8.354v18.599h8.354v-18.599zM123.78 118.198h-8.353v18.599h8.353v-18.599zM93.32 118.198h-8.353v18.599h8.353v-18.599zM108.554 118.198H100.2v18.599h8.354v-18.599zM78.093 147.557h-8.354v18.598h8.354v-18.598zM123.78 147.557h-8.353v18.598h8.353v-18.598zM93.32 147.557h-8.353v18.598h8.353v-18.598zM108.554 147.557H100.2v18.598h8.354v-18.598zM78.093 176.916h-8.354v18.598h8.354v-18.598zM123.78 176.916h-8.353v18.598h8.353v-18.598zM93.32 176.916h-8.353v18.598h8.353v-18.598zM108.554 176.916H100.2v18.598h8.354v-18.598zM78.093 206.275h-8.354v18.599h8.354v-18.599zM123.78 206.275h-8.353v18.599h8.353v-18.599zM93.32 206.275h-8.353v18.599h8.353v-18.599zM108.554 206.275H100.2v18.599h8.354v-18.599z" fill="#DEE6F3"/>
    <path d="M170.698 121.828h-41.533v126.877h41.533V121.828z" fill="url(#jiez2mzrmh)"/>
    <path d="M64.356 248.704H28.01v-52.969l36.346-12.296v65.265z" fill="url(#3od1w9z11i)"/>
    <path d="M463.87 25.542c-1.252-8.979-8.77-12.32-17.748-12.32-8.979 0-17.122 6.891-17.122 12.32C429 20.63 423.988 11 412.086 11c-11.902 0-20.968 8.775-20.254 12.663-5.46-2.62-32.348 3.948-20.463 11.337H484.96s-7.01-12.473-21.09-9.458zM255.896 39l-120.404.056s4.678-5.68 11.984-3.888c-3.44-4.382.449-14.589 11.962-16.64 11.513-2.05 13.223 1.425 13.367 7.006 2.886-13.358 13.086-18.569 25.327-15.243 12.242 3.327 12.355 17.768 12.355 17.768s7.425-9.53 19.539-6.512c10.202 2.543 14.269 11.871 14.269 11.871s17.668-.099 11.601 5.582zM84.08 65.865 0 65.904s3.267-3.967 8.369-2.716c-2.403-3.06.313-10.187 8.353-11.62 8.04-1.43 9.234.995 9.335 4.893 2.015-9.328 9.137-12.967 17.686-10.645 8.55 2.323 8.628 12.408 8.628 12.408s5.185-6.655 13.644-4.547c7.125 1.775 9.965 8.29 9.965 8.29s12.338-.07 8.1 3.898z" fill="#F5F9FF"/>
    <path d="M167.64 236.223a13.714 13.714 0 0 0 0 27.42h2.744v-27.42h-2.744zM267.531 236.223a13.709 13.709 0 0 0-12.937 8.394 13.708 13.708 0 0 0 7.599 18.069c1.698.671 3.513.997 5.338.957h2.738v-27.42h-2.738zM222.269 263.637c7.57 0 13.707-6.137 13.707-13.707 0-7.57-6.137-13.707-13.707-13.707-7.571 0-13.707 6.137-13.707 13.707 0 7.57 6.136 13.707 13.707 13.707zM122.37 263.637c7.57 0 13.707-6.137 13.707-13.707 0-7.57-6.137-13.707-13.707-13.707-7.57 0-13.707 6.137-13.707 13.707 0 7.57 6.137 13.707 13.707 13.707z" fill="#263238"/>
    <path d="M237.156 177.26h-52.013v66.086h52.013V177.26z" fill="#0052CC"/>
    <path d="m289.659 193.694-.488.415 2.07 2.431.488-.416-2.07-2.43zM281.22 183.775l-.488.415 6.45 7.568.488-.415-6.45-7.568z" fill="#407BFF"/>
    <path d="M237.156 243.339h64.599v-28.677a8.936 8.936 0 0 0-2.141-5.808l-20.099-23.619a22.695 22.695 0 0 0-17.278-7.975h-25.081v66.079z" fill="#4697FF"/>
    <path d="M247.74 211.938V187.64a3.976 3.976 0 0 1 1.169-2.818 3.984 3.984 0 0 1 2.819-1.164h6.187a22.375 22.375 0 0 1 17.028 7.86l15.201 17.836a3.964 3.964 0 0 1-.217 5.382 3.984 3.984 0 0 1-2.816 1.17h-35.383a3.986 3.986 0 0 1-3.988-3.968zM301.755 235.53h-7.975a2.48 2.48 0 0 1-2.134-1.222 2.479 2.479 0 0 1-.027-2.458l1.346-2.411a2.472 2.472 0 0 1 2.161-1.282h6.629v7.373z" fill="#fff"/>
    <path d="M225.674 166.155H99.958v77.184h125.716v-77.184z" fill="#FF5C31"/>
    <path opacity=".5" d="M155.394 231.574H134v4.648h21.394v-4.648z" fill="#CF4521"/>
    <path opacity=".5" d="M105.831 231.574h-5.873v4.648h5.873v-4.648z" fill="#407BFF"/>
    <path d="M143.387 166.155H99.958v77.184h43.429v-77.184z" fill="#FF8E5E"/>
    <path opacity=".5" d="M119.471 166.155h-.699v77.184h.699v-77.184z" fill="#CF4521"/>
    <path d="M302.383 243.339H99.329c-.58 0-1.052.471-1.052 1.051v3.251c0 .58.471 1.051 1.052 1.051h203.054c.58 0 1.051-.471 1.051-1.051v-3.251c0-.58-.471-1.051-1.051-1.051z" fill="#263238"/>
    <path d="M270.282 263.637c7.57 0 13.707-6.137 13.707-13.707 0-7.57-6.137-13.707-13.707-13.707-7.57 0-13.707 6.137-13.707 13.707 0 7.57 6.137 13.707 13.707 13.707z" fill="#263238"/>
    <path d="M270.282 258.751a8.821 8.821 0 0 0 8.821-8.822 8.821 8.821 0 1 0-17.643 0 8.822 8.822 0 0 0 8.822 8.822z" fill="#fff"/>
    <path d="M170.384 263.637c7.57 0 13.707-6.137 13.707-13.707 0-7.57-6.137-13.707-13.707-13.707-7.57 0-13.707 6.137-13.707 13.707 0 7.57 6.137 13.707 13.707 13.707z" fill="#263238"/>
    <path d="M170.384 258.751a8.822 8.822 0 1 0 0-17.645 8.822 8.822 0 0 0 0 17.645z" fill="#fff"/>
    <path d="m298.358 266.104-5.248-.08-1.426-12.17 5.242.087 1.432 12.163z" fill="#407BFF"/>
    <path d="m292.973 265.42 5.718.086a.41.41 0 0 1 .407.365l.5 4.68a.852.852 0 0 1-.864.92c-2.056-.068-5.026-.235-7.619-.272-3.032-.049-2.735.074-6.292 0-2.148-.031-2.47-2.223-1.568-2.402 4.198-.833 4.618-.877 8.409-3.007a2.625 2.625 0 0 1 1.309-.37z" fill="#263238"/>
    <path d="M287.849 109.267a123.452 123.452 0 0 1-5.6 10.589c-1.025 1.716-2.081 3.426-3.223 5.106-.556.839-1.155 1.673-1.747 2.507a38.637 38.637 0 0 1-1.921 2.469l-.506.618a9.788 9.788 0 0 1-.827.901c-.194.191-.4.368-.618.531a5.571 5.571 0 0 1-.753.488 6.05 6.05 0 0 1-1.852.661 6.302 6.302 0 0 1-3.495-.42 8.918 8.918 0 0 1-2.105-1.285 14.723 14.723 0 0 1-2.556-2.722 31.002 31.002 0 0 1-1.803-2.729 50.028 50.028 0 0 1-2.748-5.526 57.67 57.67 0 0 1-2.081-5.699 2.164 2.164 0 0 1 2.681-2.681c.498.146.928.466 1.209.903l.037.055a102.6 102.6 0 0 0 6.335 9.262 24.294 24.294 0 0 0 1.704 1.938 9.646 9.646 0 0 0 1.599 1.352c.223.13.402.192.414.167.012-.025-.222-.142-.617-.099a2.035 2.035 0 0 0-.741.284c-.031 0-.062.044.117-.203l.383-.55a109.554 109.554 0 0 0 5.699-9.545c1.803-3.31 3.575-6.743 5.26-10.071v-.061a4.323 4.323 0 0 1 7.774 3.785l-.019-.025z" fill="#4697FF"/>
    <path d="m260.108 114.508-1.408-5.841-5.489 2.365s.488 4.637 4.322 5.211l2.575-1.735z" fill="#263238"/>
    <path d="M259.818 113.069s1.784 2.297 2.223 2.927c-.618.617-4.662 2.661-4.983 2.47-.512-1.464-1.235-3.396-1.235-3.396l3.995-2.001zM254.594 104.95l-2.019 1.938a1.246 1.246 0 0 0-.329.574c-.055.217-.05.446.014.661l.951 2.883 5.489-2.364-2.253-3.489a1.243 1.243 0 0 0-.88-.524 1.243 1.243 0 0 0-.973.321z" fill="#263238"/>
    <path d="M257.706 111.773c-.191-1.186.994-4.903 1.988-5.434.994-.531.426 2.032.556 2.896.358 2.371.481 4.631-.735 4.507-1.216-.123-1.5.093-1.809-1.969z" fill="#263238"/>
    <path opacity=".2" d="m291.684 253.861.734 6.273 5.248.081-.734-6.273-5.248-.081z" fill="#000"/>
    <path d="M283.606 102.258c9.978-1.234 19.634.099 24.895 1.118a4.073 4.073 0 0 1 3.216 3.237c.101.53.094 1.075-.018 1.604-3.915 18.708-3.303 37.527-3.631 41.528l-28.055-.451c-1.921-22.937-.711-37.546.03-43.504a4.086 4.086 0 0 1 3.563-3.532z" fill="#4697FF"/>
    <path d="M301.328 89.033c-.89 3.773-1.902 10.725.691 13.479-2.161 1.914-4.976 4.099-9.539 3.92-4.563-.179-3.649-3.241-2.383-4.803 4.322-.704 4.322-3.878 3.704-6.903l7.527-5.693z" fill="#FFB573"/>
    <path opacity=".2" d="m298.252 91.355-4.47 3.395c.159.703.256 1.417.29 2.137 1.643-.112 3.952-1.735 4.193-3.427.124-.697.12-1.41-.013-2.105z" fill="#000"/>
    <path d="M302.599 83.31c-.66 5.155-.778 8.211-3.575 10.675-4.198 3.704-10.44.858-11.342-4.402-.809-4.742.402-12.349 5.613-14.065a7.166 7.166 0 0 1 9.304 7.791z" fill="#FFB573"/>
    <path d="M302.901 87.786c-2.037 1.234-4.365.617-4.556-.68-.192-1.296 1.321-3.537 1.889-4.63-.16-1.852-1.469-2.396-1.235-3.705-1.525.142-9.842.519-9.644-1.358.198-1.877 3.495-3.81 7.409-3.322 3.915.488 6.477 2.192 6.106 4.575 2.186-.352 3.193 3.347.031 9.12z" fill="#263238"/>
    <path d="M304.723 88.576a4.908 4.908 0 0 1-3.087 2.174c-1.692.364-2.47-1.173-1.908-2.717.487-1.395 1.957-3.26 3.624-2.933a2.24 2.24 0 0 1 1.623 1.369 2.236 2.236 0 0 1-.252 2.107z" fill="#FFB573"/>
    <path d="M296.295 201.356c-.21-26.376 5.625-51.709 5.625-51.709l-21.869-.352s2.513 38.095 3.389 54.056c.908 16.59 6.903 55.568 6.903 55.568l8.879.13s-1.692-36.873-2.927-57.693z" fill="#254884"/>
    <path opacity=".2" d="M297.148 164.162c-6.236 8.533-3.433 24.586-.877 35.934a244.048 244.048 0 0 1 3.18-37.348l-2.303 1.414z" fill="#000"/>
    <path d="m289.157 255.46.574 3.618 9.818.167.555-3.421-10.947-.364zM295.679 84.174c0 .42-.272.747-.55.722-.277-.025-.475-.377-.444-.797.031-.42.271-.747.549-.728.278.018.494.377.445.803zM290.238 83.562c0 .426-.271.747-.549.729-.278-.019-.475-.383-.445-.803.031-.42.272-.747.55-.728.278.018.475.382.444.802z" fill="#263238"/>
    <path d="M291.355 83.902a14.831 14.831 0 0 1-2.253 3.458 2.46 2.46 0 0 0 1.994.53l.259-3.988z" fill="#ED893E"/>
    <path d="M292.813 89.385a3.427 3.427 0 0 0 2.47-1.235.124.124 0 0 0-.025-.173.124.124 0 0 0-.173.025 3.297 3.297 0 0 1-2.809 1.099.13.13 0 0 0-.109.025.127.127 0 0 0-.049.101.128.128 0 0 0 .1.126.132.132 0 0 0 .058 0c.178.023.358.033.537.032zM296.568 82.759a.218.218 0 0 0 .117-.037.249.249 0 0 0 .068-.346 2.474 2.474 0 0 0-1.951-1.173.246.246 0 0 0-.247.247.25.25 0 0 0 .253.253 1.987 1.987 0 0 1 1.531.945.246.246 0 0 0 .229.111zM287.899 81.606a.24.24 0 0 0 .216-.08 1.944 1.944 0 0 1 1.642-.717.254.254 0 0 0 .278-.216.264.264 0 0 0-.006-.097.242.242 0 0 0-.21-.18 2.468 2.468 0 0 0-2.081.882.247.247 0 0 0 .031.346.217.217 0 0 0 .13.062z" fill="#263238"/>
    <path d="m326.155 266.104-5.255-.08-2.161-12.17 5.255.087 2.161 12.163z" fill="#407BFF"/>
    <path d="m320.616 265.42 5.717.086a.424.424 0 0 1 .42.364l.661 4.68a.82.82 0 0 1-.203.651.818.818 0 0 1-.625.269c-2.062-.068-2.71-.234-5.303-.271-3.038-.05-1.63.074-5.193 0-2.149-.031-2.569-2.211-1.655-2.402 2.89-.618 3.612-1.772 4.884-3.007a1.787 1.787 0 0 1 1.297-.37z" fill="#263238"/>
    <path d="M321.708 265.968c-.907.031-1.395 0-1.63-.413-.234-.414-1.055-1.618-.994-2.069.062-.451 3.748-.821 4.112-.092.365.728.365 2.525-1.488 2.574zM292.776 265.969c-.568.031-.87 0-1.006-.414a8.341 8.341 0 0 1-.581-2.068c.044-.457 2.359-.821 2.575-.093.216.729.167 2.526-.988 2.575z" fill="#263238"/>
    <path opacity=".2" d="m318.739 253.861 1.118 6.273 5.254.081-1.117-6.273-5.255-.081z" fill="#000"/>
    <path d="M317.171 198.237c-2.47-23.758-5.372-43.22-9.089-48.492l-18.578-.297s10.836 37.268 15.01 52.975c4.322 16.331 12.848 54.914 12.848 54.914l8.459.118s-3.501-40.658-8.65-59.218z" fill="#254884"/>
    <path d="m316.3 255.46.685 3.618 9.496.167.42-3.421-10.601-.364z" fill="#263238"/>
    <path d="M295.782 110.248c-.056-1.321-1.574-3.087-2.562-3.809 7.316-2.019 8.687-4.674 8.687-4.674a5.937 5.937 0 0 1 1.5.617c.432 4.1-4.643 6.921-7.625 7.866zM291.466 106.333a8.298 8.298 0 0 0-3.834 3.643c-3.044-5.434 1.235-8.57 1.235-8.57.474-.134.97-.168 1.457-.099-.821 1.815.124 4.205 1.142 5.026z" fill="#fff"/>
    <path d="m334.902 112.613-46.477 7.187 5.208 33.681 46.477-7.186-5.208-33.682z" fill="#407BFF"/>
    <path opacity=".9" d="m334.902 112.613-46.477 7.187 5.208 33.681 46.477-7.186-5.208-33.682z" fill="#fff"/>
    <path opacity=".2" d="m334.907 112.611-24.23 3.746 5.208 33.682 24.23-3.747-5.208-33.681z" fill="#407BFF"/>
    <path opacity=".3" d="m301.029 142.849-5.834.902.88 5.687 5.833-.902-.879-5.687zM299.939 135.793l-5.834.902.88 5.687 5.833-.902-.879-5.687z" fill="#407BFF"/>
    <path opacity=".5" d="m303.407 117.486-8.225 1.272.438 2.837 8.226-1.272-.439-2.837zM329.134 113.502l-5.779.894.439 2.837 5.779-.894-.439-2.837z" fill="#407BFF"/>
    <path d="M310.021 104.012a82.378 82.378 0 0 1 10.28 5.853 48.65 48.65 0 0 1 4.939 3.704 25.752 25.752 0 0 1 2.42 2.39c.432.5.83 1.028 1.192 1.58a9.15 9.15 0 0 1 1.093 2.266c.177.544.28 1.109.309 1.68.008.098.008.198 0 .296v.636l-.031.852-.074.797c-.05.531-.105 1.062-.192 1.562-.086.5-.142 1.019-.241 1.506-.327 1.995-.808 3.89-1.29 5.779a92.744 92.744 0 0 1-3.705 11.009 2.154 2.154 0 0 1-4.136-1.068v-.049c.438-3.705.975-7.447 1.364-11.114.216-1.852.383-3.661.494-5.433.037-.445.037-.871.062-1.309.025-.439 0-.859 0-1.272v-1.674a2.942 2.942 0 0 0 0 .297c0 .068-.068-.068-.216-.235a6.314 6.314 0 0 0-.618-.617 17.983 17.983 0 0 0-1.722-1.482c-1.309-.994-2.779-1.97-4.291-2.902-3.032-1.852-6.292-3.63-9.472-5.316h-.043a4.323 4.323 0 0 1 3.884-7.718l-.006-.018z" fill="#4697FF"/>
    <path d="m321.036 141.866-3.149 4.273 5.976 2.185s2.384-4.217.346-5.84l-3.173-.618z" fill="#263238"/>
    <path d="m318.677 151.598 2.223.413a1.852 1.852 0 0 0 2.062-1.185l.902-2.47-5.958-2.216-.68 3.278a1.853 1.853 0 0 0 1.451 2.18zM320.517 143.053s.111-2.909.185-3.668c.87-.056 5.279.963 5.39 1.321-.543 1.457-1.235 3.396-1.235 3.396l-4.34-1.049z" fill="#263238"/>
    <path d="M305.44 82.402c-2.982-.334-15.232-3.316-16.368-4.495-.08-2.278 1.235-4.581 2.044-5.1 2.253-1.482 7.211-1.537 8.786-1.093 1.574.445 5.884 2.637 6.6 4.748.556 1.673-1.062 5.94-1.062 5.94z" fill="#407BFF"/>
    <path d="M293.072 77.197c-3.76-.587-7.335-.327-8.601 1.574-1.414 2.124 3.242-1.03 6.02.328 4.649 2.284 3.544 2.642 10.589 2.47-3.624-1.84-3.649-3.693-8.008-4.372z" fill="#407BFF"/>
    <path opacity=".6" d="M293.072 77.197c-3.76-.587-7.335-.327-8.601 1.574-1.414 2.124 3.242-1.03 6.02.328 4.649 2.284 3.544 2.642 10.589 2.47-3.624-1.84-3.649-3.693-8.008-4.372z" fill="#fff"/>
    <path d="M301.457 86.038a.352.352 0 0 0 .087-.481.348.348 0 0 0-.482-.08 24.6 24.6 0 0 0-3.587 3.018c-1.346-1.401-5.131-2.877-7.113-2.846-1.414 0-2.352-.068-3.408.976-.902.882-.155 5.556.413 6.878a5.288 5.288 0 0 0 3.526 2.945c2.087.377 6.545.617 6.73-2.433.039-.684.128-1.365.265-2.037.296.05.596.077.896.08a4.018 4.018 0 0 0 2.506-.809.334.334 0 0 0 .123-.362.339.339 0 0 0-.061-.12.342.342 0 0 0-.366-.122.35.35 0 0 0-.122.06 3.696 3.696 0 0 1-2.827.618c.197-.901.296-1.482-.142-2.235a23.438 23.438 0 0 1 3.562-3.05z" fill="#407BFF"/>
    <path opacity=".6" d="M301.457 86.038a.352.352 0 0 0 .087-.481.348.348 0 0 0-.482-.08 24.6 24.6 0 0 0-3.587 3.018c-1.346-1.401-5.131-2.877-7.113-2.846-1.414 0-2.352-.068-3.408.976-.902.882-.155 5.556.413 6.878a5.288 5.288 0 0 0 3.526 2.945c2.087.377 6.545.617 6.73-2.433.039-.684.128-1.365.265-2.037.296.05.596.077.896.08a4.018 4.018 0 0 0 2.506-.809.334.334 0 0 0 .123-.362.339.339 0 0 0-.061-.12.342.342 0 0 0-.366-.122.35.35 0 0 0-.122.06 3.696 3.696 0 0 1-2.827.618c.197-.901.296-1.482-.142-2.235a23.438 23.438 0 0 1 3.562-3.05z" fill="#fff"/>
    <defs>
        <linearGradient id="m8i3hpug5a" x1="435.292" y1="94.237" x2="435.292" y2="248.704" gradientUnits="userSpaceOnUse">
            <stop stop-color="#ECF2FD"/>
            <stop offset="1" stop-color="#ECF2FD" stop-opacity="0"/>
        </linearGradient>
        <linearGradient id="apl18z9h6b" x1="481.749" y1="135.414" x2="481.749" y2="248.704" gradientUnits="userSpaceOnUse">
            <stop stop-color="#ECF2FD"/>
            <stop offset="1" stop-color="#ECF2FD" stop-opacity="0"/>
        </linearGradient>
        <linearGradient id="k3it9kt6fc" x1="246.484" y1="134.355" x2="246.484" y2="247.645" gradientUnits="userSpaceOnUse">
            <stop stop-color="#ECF2FD"/>
            <stop offset="1" stop-color="#ECF2FD" stop-opacity="0"/>
        </linearGradient>
        <linearGradient id="a2r2y6kw9d" x1="199.682" y1="56.893" x2="199.682" y2="248.704" gradientUnits="userSpaceOnUse">
            <stop stop-color="#ECF2FD"/>
            <stop offset="1" stop-color="#ECF2FD" stop-opacity="0"/>
        </linearGradient>
        <linearGradient id="chjimed3me" x1="355.636" y1="51.034" x2="355.636" y2="248.705" gradientUnits="userSpaceOnUse">
            <stop stop-color="#ECF2FD"/>
            <stop offset="1" stop-color="#ECF2FD" stop-opacity="0"/>
        </linearGradient>
        <linearGradient id="n97g44fx5f" x1="402.512" y1="135.414" x2="402.512" y2="248.705" gradientUnits="userSpaceOnUse">
            <stop stop-color="#ECF2FD"/>
            <stop offset="1" stop-color="#ECF2FD" stop-opacity="0"/>
        </linearGradient>
        <linearGradient id="izktwh2f3g" x1="96.772" y1="78.8" x2="96.772" y2="248.706" gradientUnits="userSpaceOnUse">
            <stop stop-color="#ECF2FD"/>
            <stop offset="1" stop-color="#ECF2FD" stop-opacity="0"/>
        </linearGradient>
        <linearGradient id="jiez2mzrmh" x1="149.931" y1="121.828" x2="149.931" y2="248.705" gradientUnits="userSpaceOnUse">
            <stop stop-color="#ECF2FD"/>
            <stop offset="1" stop-color="#ECF2FD" stop-opacity="0"/>
        </linearGradient>
        <linearGradient id="3od1w9z11i" x1="46.183" y1="183.439" x2="46.183" y2="248.704" gradientUnits="userSpaceOnUse">
            <stop stop-color="#ECF2FD"/>
            <stop offset="1" stop-color="#ECF2FD" stop-opacity="0"/>
        </linearGradient>
    </defs>
</svg>
