<svg width="38" height="38" viewBox="0 0 38 38" fill="none" xmlns="http://www.w3.org/2000/svg">
    <g clip-path="url(#kwwiy3r7ba)">
        <path d="M9.502 0a2.382 2.382 0 0 0-2.375 2.376v33.257a2.383 2.383 0 0 0 2.375 2.375h23.756a2.383 2.383 0 0 0 2.375-2.375V9.502L26.131 0H9.502z" fill="#E2E5E7"/>
        <path d="M28.506 9.502h7.127L26.13 0v7.127a2.382 2.382 0 0 0 2.375 2.375z" fill="#B0B7BD"/>
        <path d="M35.633 16.627 28.506 9.5h7.127v7.127z" fill="#CAD1D8"/>
        <path d="M30.882 30.882c0 .653-.534 1.187-1.188 1.187H3.564a1.191 1.191 0 0 1-1.188-1.187V19.004c0-.653.534-1.188 1.188-1.188h26.13c.654 0 1.188.535 1.188 1.188v11.878z" fill="#F15642"/>
        <path d="M7.553 22.503c0-.313.247-.655.645-.655h2.194c1.235 0 2.347.826 2.347 2.41 0 1.502-1.112 2.338-2.348 2.338H8.806v1.255c0 .418-.266.654-.608.654a.64.64 0 0 1-.645-.654v-5.348zm1.253.54v2.367h1.586c.636 0 1.14-.562 1.14-1.151 0-.664-.504-1.215-1.14-1.215H8.806zM14.598 28.505c-.313 0-.655-.17-.655-.587v-5.395c0-.341.342-.59.655-.59h2.175c4.34 0 4.245 6.572.086 6.572h-2.26zm.6-5.412v4.254h1.575c2.565 0 2.679-4.254 0-4.254h-1.576zM22.558 23.17v1.51h2.422c.342 0 .684.342.684.673 0 .314-.342.57-.684.57h-2.422v1.995c0 .332-.236.587-.57.587-.417 0-.673-.255-.673-.587v-5.395c0-.341.257-.59.674-.59h3.334c.418 0 .665.249.665.59a.656.656 0 0 1-.665.646h-2.765v.001z" fill="#fff"/>
        <path d="M29.694 32.07H7.127v1.188h22.567c.654 0 1.188-.534 1.188-1.187v-1.188c0 .653-.534 1.188-1.188 1.188z" fill="#CAD1D8"/>
    </g>
    <defs>
        <clipPath id="kwwiy3r7ba">
            <path fill="#fff" d="M0 0h38.008v38.008H0z"/>
        </clipPath>
    </defs>
</svg>
