<svg width="34" height="39" viewBox="0 0 34 39" fill="none" xmlns="http://www.w3.org/2000/svg">
    <path d="M7.178 0a2.4 2.4 0 0 0-2.392 2.393v33.499a2.4 2.4 0 0 0 2.392 2.393h23.928a2.4 2.4 0 0 0 2.393-2.393V9.572L23.928 0H7.178z" fill="#E2E5E7"/>
    <path d="M26.32 9.571H33.5L23.928 0v7.178a2.4 2.4 0 0 0 2.392 2.393z" fill="#B0B7BD"/>
    <path d="m33.5 16.753-7.18-7.179h7.18v7.179z" fill="#CAD1D8"/>
    <path d="M28.713 31.106a1.2 1.2 0 0 1-1.196 1.196H1.197A1.2 1.2 0 0 1 0 31.106V19.142a1.2 1.2 0 0 1 1.196-1.197h26.321a1.2 1.2 0 0 1 1.196 1.197v11.964z" fill="#50BEE8"/>
    <path d="M4.53 28.714c-.316 0-.66-.173-.66-.593v-5.433c0-.344.344-.593.66-.593h2.19c4.372 0 4.275 6.62.085 6.62H4.53zm.603-5.453v4.286H6.72c2.583 0 2.697-4.286 0-4.286H5.133zm9.523 5.55c-1.77.076-3.607-1.102-3.607-3.445 0-2.354 1.836-3.51 3.607-3.51 1.674.084 3.424 1.242 3.424 3.51s-1.75 3.444-3.424 3.444zM14.55 23.1c-1.071 0-2.238.756-2.238 2.267 0 1.503 1.168 2.268 2.239 2.268 1.1 0 2.276-.765 2.276-2.268 0-1.512-1.176-2.267-2.277-2.267zm4.656 2.256c0-1.846 1.158-3.434 3.358-3.434.833 0 1.493.25 2.19.852.259.238.288.66.03.927a.65.65 0 0 1-.881-.028c-.391-.412-.793-.525-1.339-.525-1.473 0-2.18 1.043-2.18 2.21 0 1.186.698 2.276 2.18 2.276.546 0 1.053-.221 1.493-.613.296-.23.707-.116.88.115.153.21.228.565-.106.899-.67.623-1.473.748-2.268.748-2.314 0-3.357-1.58-3.357-3.427z" fill="#fff"/>
    <path d="M27.517 32.306H4.786v1.196h22.731a1.2 1.2 0 0 0 1.197-1.196v-1.197a1.2 1.2 0 0 1-1.197 1.197z" fill="#CAD1D8"/>
</svg>
