<svg width="16" height="15" viewBox="0 0 16 15" fill="none" xmlns="http://www.w3.org/2000/svg">
<path d="M3.7998 4.9V1H12.1998V4.9" stroke="#4B5563" stroke-width="1.2" stroke-linecap="round" stroke-linejoin="round"/>
<path d="M3.8 11.2H2.4C2.0287 11.2 1.6726 11.0525 1.41005 10.7899C1.1475 10.5274 1 10.1713 1 9.8V6.3C1 5.9287 1.1475 5.5726 1.41005 5.31005C1.6726 5.0475 2.0287 4.9 2.4 4.9H13.6C13.9713 4.9 14.3274 5.0475 14.5899 5.31005C14.8525 5.5726 15 5.9287 15 6.3V9.8C15 10.1713 14.8525 10.5274 14.5899 10.7899C14.3274 11.0525 13.9713 11.2 13.6 11.2H12.2" stroke="#4B5563" stroke-width="1.2" stroke-linecap="round" stroke-linejoin="round"/>
<path d="M12.1998 8.4H3.7998V14H12.1998V8.4Z" stroke="#4B5563" stroke-width="1.2" stroke-linecap="round" stroke-linejoin="round"/>
</svg>
