<svg width="32" height="32" viewBox="0 0 32 32" fill="none" xmlns="http://www.w3.org/2000/svg">
    <path d="M16 32a16 16 0 1 1 0-32v32zM16 32a16 16 0 1 0 0-32v32z" fill="#E12626"/>
    <path d="M18.232 10.06c-.674-.684-1.409-1.2-2.203-1.541A6.359 6.359 0 0 0 13.48 8c-1.967 0-3.636.752-5.015 2.25-1.376 1.502-2.063 3.427-2.065 5.775 0 2.266.71 4.163 2.13 5.684C9.951 23.236 11.636 24 13.583 24A6.176 6.176 0 0 0 16 23.534c.745-.313 1.487-.822 2.226-1.534v1.611h3.805V8.4h-3.8v1.661zm-1.008 9.188c-.782.837-1.767 1.25-2.954 1.253-1.15-.001-2.12-.426-2.905-1.278-.787-.85-1.18-1.935-1.18-3.25 0-1.311.388-2.382 1.16-3.219.774-.837 1.744-1.25 2.914-1.25 1.198 0 2.189.41 2.97 1.23.782.825 1.036 1.762 1.033 3.088 0 1.356-.253 2.591-1.038 3.426z" fill="#fff"/>
</svg>
