<svg width="32" height="32" viewBox="0 0 32 32" fill="none" xmlns="http://www.w3.org/2000/svg">
    <path d="M16 32a16 16 0 1 1 0-32v32z" fill="#00A656"/>
    <path d="M16 32a16 16 0 1 0 0-32v32z" fill="#0074B8"/>
    <g clip-path="url(#1ftczxj8fa)">
        <path d="M9.333 12.374 10.654 8h6.727c1.562 0 2.643.345 3.483 1.151.841.806 1.202 1.842 1.202 3.223 0 .921-.24 1.612-.6 2.187-.361.576-.962.921-1.683 1.151.961.23 1.682.69 2.163 1.266.48.576.72 1.497.72 2.533 0 1.496-.48 2.647-1.321 3.338-.84.806-2.162 1.151-3.844 1.151h-6.847V12.374H9.333zm6.126-.575V14.1h.72c.361 0 .722-.115.962-.346.24-.23.36-.46.36-.805 0-.346-.12-.691-.36-.806-.24-.23-.6-.345-.961-.345h-.72zm0 5.755v2.532h.841c.48 0 .84-.115 1.081-.345.36-.23.48-.575.48-.92 0-.461-.12-.692-.36-.922-.36-.23-.72-.345-1.201-.345h-.84z" fill="#fff"/>
    </g>
    <defs>
        <clipPath id="1ftczxj8fa">
            <path fill="#fff" transform="translate(9.333 8)" d="M0 0h13.333v16H0z"/>
        </clipPath>
    </defs>
</svg>
