<svg width="24" height="24" viewBox="0 0 24 24" fill="none" xmlns="http://www.w3.org/2000/svg">
    <path d="M15 12.85v3.3C15 18.9 13.9 20 11.15 20h-3.3C5.1 20 4 18.9 4 16.15v-3.3C4 10.1 5.1 9 7.85 9h3.3C13.9 9 15 10.1 15 12.85z" stroke="#374151" stroke-width="1.4" stroke-linecap="round" stroke-linejoin="round"/>
    <path d="M20 7.85v3.3C20 13.9 18.9 15 16.15 15h-.864v-2.436c0-2.75-1.1-3.85-3.85-3.85H9V7.85C9 5.1 10.1 4 12.85 4h3.3C18.9 4 20 5.1 20 7.85z" stroke="#374151" stroke-width="1.4" stroke-linecap="round" stroke-linejoin="round"/>
</svg>
