<svg width="32" height="32" viewBox="0 0 32 32" fill="none" xmlns="http://www.w3.org/2000/svg">
    <circle cx="16" cy="16" r="16" fill="#FFC900"/>
    <path d="M3.2 19.023h7.355l-.427.598H3.2v-.598zm0-1.112h8.189l-.448.6H3.2v-.6zm0-1.112h9.024l-.45.6H3.2v-.6zm7.933 2.822 3.89-5.195h4.833c.536 0 .536.192.257.555-.256.342-.705.963-.984 1.326-.128.192-.384.512.43.512h6.455c-.534.728-2.288 2.824-5.408 2.824-2.525-.022-9.474-.022-9.474-.022z" fill="#F00000"/>
    <path d="m13.87 11.2-1.945 2.586h10.561c.536 0 .536.192.256.557-.256.341-.704.96-.982 1.325-.128.171-.384.512.427.512h4.32l1.283-1.709c.79-1.048.064-3.251-2.758-3.251-2.544-.02-11.162-.02-11.162-.02z" fill="#F00000"/>
</svg>
