<svg width="32" height="32" viewBox="0 0 32 32" fill="none" xmlns="http://www.w3.org/2000/svg">
    <circle cx="16" cy="16" r="16" fill="#2A75C9"/>
    <path d="M12.124 17.959h7.681c1.55 0 2.471-.897 3.01-1.795.45-.766.674-1.663.674-2.539v-3.502c0-.766-.45-1.27-.943-1.598A3.508 3.508 0 0 0 20.704 8h-9.928c-.83 0-1.325.482-1.617.963-.247.438-.36.92-.36 1.4v11.383c0 1.203 1.146 1.838 1.798 2.1.27.11.539.154.808.154h12.017v-2.955H12.573c-.539 0-.472-.46-.472-.46V17.96h.023zm.022-6.85h7.75s.426.021.426.415v1.51c0 .504-.157.985-.494 1.357-.202.22-.45.394-.764.394H12.17v-3.677h-.023z" fill="#fff"/>
</svg>
