<svg width="540" height="360" viewBox="0 0 540 360" fill="none" xmlns="http://www.w3.org/2000/svg">
    <path d="M0 0h540v360H0V0z" fill="#fff"/>
    <path opacity=".25" d="M360.577 251.926a56.3 56.3 0 0 1-7.79 15.054c-9.616 13.206-23.036 22.12-36.97 27.783a212.64 212.64 0 0 1-12.07 4.49 177.902 177.902 0 0 1-12.504 3.716c-13.791 3.533-28.153 5.23-40.74 2.845-17.682-3.346-33.161-15.723-43.847-31.97a106.858 106.858 0 0 1-6.692-11.787c1.592-10.14 5.515-20.029 9.371-29.57l-15.144-.997c4.43-3.87 10.262-4.338 15.664-4.216 39.544.882 75.158 24.268 114.05 30.82 8.359 1.407 17.054 2.01 25.358-.708 3.937-1.286 7.655-3.271 11.314-5.46z" fill="#DEE6F3"/>
    <path opacity=".25" d="M360.577 251.925a56.211 56.211 0 0 1-7.792 15.055c-9.615 13.205-23.034 22.12-36.97 27.783a212.245 212.245 0 0 1-12.067 4.49l-.648.215-.425.14c-.275.092-.55.182-.825.27-.26.086-.523.17-.786.255-.172.055-.346.115-.515.164-.476.15-.952.3-1.428.446-.063.02-.126.04-.188.058a199.609 199.609 0 0 1-2.941.877c-.395.115-.79.23-1.184.335l-.3.085c-.433.115-.866.239-1.3.356a6.801 6.801 0 0 0-.204.056c-.068.02-.115.03-.174.046-.332.089-.663.175-.998.263l-.59.151c-.447.115-.895.228-1.344.338l-.547.134c-.631.155-1.263.302-1.896.448-.137.03-.274.063-.413.093-.338.079-.677.154-1.015.23l-.472.104-.635.135c-.285.06-.57.115-.856.176-.192.04-.385.077-.577.115l-.468.094a148.698 148.698 0 0 1-1.79.336c-.209.038-.415.075-.623.115l-.588.103-.13.022-.043.007-.636.106-.38.062c-.204.034-.408.065-.611.096-.28.045-.558.086-.836.127l-.71.104c-.294.042-.584.083-.876.12-.13.02-.261.035-.393.052a39.12 39.12 0 0 1-.523.068l-.742.09-.633.073c-.203.025-.408.047-.612.067l-.51.053c-.086.01-.172.019-.256.026-.085.007-.156.016-.231.023h-.019c-.045 0-.089.01-.131.011-.255.027-.508.05-.76.07l-.513.045c-.04 0-.077.007-.115.009-.21.018-.42.035-.628.05-.209.015-.435.033-.653.047l-.599.04-.115.007-.506.028c-.189.013-.378.022-.567.03l-.673.031h-.1l-.155.007h-.203c-.057 0-.116 0-.169.007h-.028c-.058 0-.116 0-.172.006l-.296.009h-.203c-.47.011-.94.022-1.406.025h-1.687c-.188 0-.352 0-.526-.007h-.186c-.113 0-.223-.002-.333-.007l-.218-.005c-.26 0-.518-.015-.774-.026h-.05l-.212-.009h-.115c-.08 0-.162 0-.241-.01h-.052c-.088 0-.176-.008-.263-.013l-.605-.032-.241-.017c-.066 0-.133-.005-.199-.011-.147-.008-.297-.02-.444-.03a42.862 42.862 0 0 1-.714-.055c-.04 0-.08 0-.115-.01l-.347-.03a.69.69 0 0 1-.115-.011c-.091 0-.182-.014-.272-.024l-.536-.052c-.083-.007-.165-.018-.248-.027a1.114 1.114 0 0 1-.101-.011l-.386-.042-.15-.018-.476-.058a29.173 29.173 0 0 1-.808-.105l-.326-.045-.243-.036a17.225 17.225 0 0 1-.387-.059 2.733 2.733 0 0 1-.135-.02l-.169-.027a45 45 0 0 1-.673-.11c-.346-.059-.681-.115-1.022-.183-17.683-3.346-33.16-15.724-43.846-31.97-.288-.44-.573-.88-.854-1.326-.142-.22-.28-.444-.419-.666a42.74 42.74 0 0 1-.26-.42l-.105-.17a83.895 83.895 0 0 1-1.075-1.79l-.144-.247-.048-.08c-.026-.045-.051-.09-.079-.135-.105-.183-.212-.366-.317-.552l-.065-.115c-.064-.116-.127-.222-.187-.331l-.24-.425a21.4 21.4 0 0 1-.184-.331l-.231-.416a8.178 8.178 0 0 1-.11-.202l-.089-.16c-.115-.208-.23-.416-.338-.628a37.287 37.287 0 0 1-.278-.521l-.13-.245c-.044-.08-.085-.165-.13-.247l-.255-.494-.04-.077-.062-.115c-.043-.082-.084-.164-.126-.247-.06-.116-.115-.23-.175-.346a149.465 149.465 0 0 1-1.073-2.172c-.213-.44-.42-.884-.627-1.326l-.237-.514c-.246-.535-.488-1.071-.726-1.609-.095-.21-.188-.423-.28-.633-.006-.014-.013-.028-.018-.043-.095-.214-.187-.431-.28-.646l-.256-.605c-.116-.26-.22-.52-.328-.782-.178-.427-.353-.857-.527-1.286-.16-.398-.317-.797-.474-1.196l-.23-.592c-.146-.379-.291-.759-.435-1.14-3.128-8.314-5.505-17.077-7.27-26.017-.099-.491-.191-.983-.285-1.474-.021-.116-.045-.231-.065-.346a204.085 204.085 0 0 1-1.531-9.399c-.039-.27-.074-.544-.115-.818a49.015 49.015 0 0 1-.069-.517l-.23-1.846c-2.993-24.537-1.35-50.633 9.142-72.923a79.019 79.019 0 0 1 7.443-12.624 83.884 83.884 0 0 1 2.387-3.148 82.266 82.266 0 0 1 3.389-3.985c.295-.328.593-.651.894-.97.226-.244.454-.485.682-.725.17-.175.338-.346.507-.524l.17-.17.345-.347.54-.54a97.642 97.642 0 0 1 2.105-2.02 90.683 90.683 0 0 1 4.932-4.242c10.865-8.685 23.466-14.627 35.901-17.769 8.712-2.203 17.052-3 24.933-2.251.295.028.59.057.886.089l.318.038c2.37.27 4.722.69 7.039 1.259l.442.115 1.298.346c10.76 3.029 20.483 9.37 28.9 19.414a83.084 83.084 0 0 1 4.546 5.972c13.946 20.12 24.02 45.716 32.624 69.565 2.174 6.027 4.182 12.435 5.74 19.03.085.346.168.705.246 1.058.034.138.065.278.096.418a126.714 126.714 0 0 1 1.873 10.166c.093.671.183 1.345.264 2.02.017.142.036.285.052.428.062.522.12 1.044.172 1.566 1.121 10.868.523 21.84-2.962 32.077z" fill="#DEE6F3"/>
    <path opacity=".8" d="M291.242 302.971c-.447.115-.895.228-1.344.338l-.547.134a137.208 137.208 0 0 1-2.309.541c-.338.078-.677.153-1.015.23l-.472.103-.635.135c-.285.06-.57.116-.856.177-.192.04-.386.08-.577.115l-.468.094c-.424.082-.847.162-1.27.24-.172.033-.346.064-.52.096l-.623.115-.588.103-.13.022c-.013 0-.028 0-.043.006l-.636.107-.38.062-.611.096c-.28.045-.558.086-.836.127l-.71.103a55.76 55.76 0 0 1-.876.122l-.393.05c-.174.025-.346.047-.523.068l-.742.092-.633.072c-.203.025-.408.046-.612.067l-.51.053c-.083.01-.17.019-.256.026-.087.007-.156.016-.231.023h-.019l-.263.025c-.21.02-.42.04-.629.057l-.512.044c-.038 0-.077.006-.115.009-.21.018-.42.034-.628.05-.209.014-.435.033-.653.047l-.599.04-.115.007-.506.028c-.189.012-.378.022-.567.03l-.673.03h-.1l-.155.008h-.203c-.057 0-.116 0-.169.007h-.028c-.058 0-.116 0-.172.005l-.296.01h-.203c-.47.011-.94.022-1.406.025h-1.687c-.188 0-.352 0-.526-.007h-.186c-.113 0-.223-.002-.333-.007l-.218-.006c-.26 0-.518-.015-.774-.025h-.05l-.212-.01h-.115c-.08 0-.162 0-.241-.01a.115.115 0 0 1-.037 0h-.015c-.088 0-.176-.008-.263-.012l-.605-.033c-.08 0-.16-.009-.241-.016-.08-.007-.133-.005-.199-.011-.147-.008-.297-.02-.444-.03a34.301 34.301 0 0 1-.714-.056c-.04 0-.08 0-.115-.009l-.347-.03c-.04 0-.08-.006-.115-.011-.091 0-.182-.014-.272-.025-.18-.016-.358-.033-.536-.052-.083-.006-.165-.017-.248-.026a.844.844 0 0 1-.101-.012l-.386-.041-.15-.019c-.16-.016-.318-.035-.476-.057a29.173 29.173 0 0 1-.808-.105l-.326-.045-.243-.036c-.129-.019-.258-.038-.387-.059l-.135-.02c-.045-.009-.116-.017-.169-.027a39.267 39.267 0 0 1-.673-.11c-.346-.059-.681-.115-1.022-.183-17.683-3.346-33.16-15.724-43.846-31.971-.288-.439-.573-.88-.854-1.325-.142-.22-.28-.444-.419-.667l-.26-.418-.105-.171a83.968 83.968 0 0 1-1.075-1.791c-.065-.115-.128-.217-.192-.327-.026-.045-.051-.09-.079-.135-.105-.182-.212-.365-.317-.551l-.065-.115c-.064-.116-.127-.222-.187-.332l-.24-.424c-.062-.11-.124-.22-.184-.331l-.231-.416a8.178 8.178 0 0 1-.11-.202l-.024-.04c-.02-.04-.044-.08-.065-.115-.115-.208-.23-.417-.338-.628a32.495 32.495 0 0 1-.278-.522c-.044-.083-.086-.164-.13-.244-.044-.081-.085-.165-.13-.247l-.255-.494-.04-.077-.062-.116c-.043-.082-.084-.164-.126-.247-.06-.115-.115-.23-.175-.346a130.838 130.838 0 0 1-1.073-2.171c-.213-.441-.42-.884-.627-1.326l-.237-.515c-.246-.534-.488-1.07-.726-1.608-.095-.211-.188-.424-.28-.634l-.018-.042c-.095-.215-.187-.432-.28-.647l-.256-.604c-.116-.26-.22-.52-.328-.782a144.566 144.566 0 0 1-1.001-2.482l-.23-.592-.435-1.14c-3.128-8.315-5.505-17.077-7.27-26.017-.099-.492-.191-.983-.285-1.475-.021-.115-.045-.23-.065-.346a203.494 203.494 0 0 1-1.531-9.398 55.585 55.585 0 0 1 7.861.008c.115 0 .23.014.335.023.273.02.547.044.82.07h.069c.133.012.266.026.4.042.403.04.808.084 1.21.133l.163.02.365.049c.37.048.738.103 1.107.158 10.804 1.662 21.115 6.494 29.588 14.077.363.325.723.654 1.078.99 12.183 11.423 20.149 27.692 29.629 42.286 4.064 6.262 8.407 12.216 13.48 17.35 5.735 5.807 12.168 10.345 19.05 13.976z" fill="#DEE6F3"/>
    <path d="M303.747 299.254c-17.292 5.82-36.777 9.68-53.245 6.562-17.681-3.346-33.16-15.723-43.846-31.97-4.615-7.015-8.38-14.709-11.432-22.83 26.664 2.77 52.488 12.368 75.091 27.948 9.403 6.479 18.346 14.024 28.645 18.49 1.573.68 3.168 1.28 4.787 1.8z" fill="#DAE2ED"/>
    <path d="m337.295 97.643-29.721 26.34a1.785 1.785 0 0 0-.597 1.67l6.074 32.2.942 4.991c.29 1.542-1.488 2.717-3.01 1.989l-.527-.25-.301-.145c.11-.289.305-.668.38-.908.208-.656.078-1.49-.197-2.104a3.575 3.575 0 0 0-.655-.99.978.978 0 0 0-.288-.219c-.018-.01-.038-.016-.057-.025a1.046 1.046 0 0 0-1.35.473 45.035 45.035 0 0 0-1.102 2.21l-32.64-15.6a2.25 2.25 0 0 0-1.93 0l-31.106 14.866c-.332-1.02-.857-2.015-1.294-2.892-.45-.906-.469-1.75-.608-2.688l-.04-.248c-.076-.436-.318-.505-.776-.535h-.062a1.693 1.693 0 0 0-1.154.321c-.285.25-.508.565-.65.916a4.204 4.204 0 0 0-.197.544 4.46 4.46 0 0 0-.166 1.645v.044c.102.923.9 1.87.957 2.791v.045c.01.146.002.293-.024.436l-.014.418v.793c0 .127 0 .219.007.276v.053l-.029.015-1.593.76a2.217 2.217 0 0 1-2.27-.203 1.777 1.777 0 0 1-.74-1.785l.807-4.28 6.22-32.913a1.782 1.782 0 0 0-.596-1.67l-29.72-26.342c-1.232-1.09-.552-2.992 1.153-3.216l41.077-5.423a2.072 2.072 0 0 0 1.564-1.03l18.366-33.839c.762-1.403 2.96-1.403 3.722 0l18.369 33.838c.326.573.906.956 1.561 1.031l27.305 3.604 13.758 1.82c1.703.223 2.383 2.127 1.152 3.216z" fill="#FFC150"/>
    <path d="m273.282 61.945-16.369 28.826c-.86 1.512-2.507 2.52-4.37 2.676l-35.54 2.95 37.55 1.596c2.385.101 4.567-1.213 5.396-3.25l13.333-32.798z" fill="#FED267"/>
    <path d="M237.194 162.935v.794c0 .127 0 .22.008.276v.053l-.029.016-1.593.76a2.216 2.216 0 0 1-2.27-.204 1.773 1.773 0 0 1-.74-1.785l.807-4.278a253.46 253.46 0 0 0 3.056-1.008 4.503 4.503 0 0 0-.165 1.645v.043c.103.923.9 1.869.958 2.79v.046c.01.146.002.292-.025.436 0 .149-.004.29-.007.416z" fill="#FCBD11"/>
    <path d="m337.295 97.641-29.721 26.34a1.785 1.785 0 0 0-.597 1.67l6.074 32.2.942 4.991c.29 1.542-1.488 2.717-3.01 1.989l-.527-.25-.301-.145c.11-.289.305-.668.38-.908.208-.656.078-1.49-.197-2.104a3.575 3.575 0 0 0-.655-.99.978.978 0 0 0-.288-.219c-.018-.01-.038-.016-.057-.025a1.046 1.046 0 0 0-1.35.473 45.035 45.035 0 0 0-1.102 2.21l-32.64-15.6a2.25 2.25 0 0 0-1.93 0l-31.106 14.866c-.332-1.02-.857-2.015-1.294-2.892-.45-.906-.469-1.75-.608-2.688 30.83-10.903 62.172-29.84 83.077-63.953l13.758 1.82c1.703.222 2.383 2.126 1.152 3.215z" fill="#FFB03A"/>
    <path d="m182.232 144.431 12.633 7.483a.741.741 0 0 0 .682.035l13.326-6.166a.733.733 0 0 1 1.024.826l-3.21 14.327a.729.729 0 0 0 .177.66l9.982 10.768a.734.734 0 0 1-.47 1.23l-14.62 1.373a.736.736 0 0 0-.576.372l-7.154 12.822a.732.732 0 0 1-1.314-.067l-5.824-13.48a.733.733 0 0 0-.531-.427l-14.403-2.84a.732.732 0 0 1-.346-1.269l11.02-9.704a.736.736 0 0 0 .243-.638l-1.743-14.581a.736.736 0 0 1 1.104-.724z" fill="#FFC150"/>
    <path d="m183.346 147.34 1.27 12.559a1.94 1.94 0 0 1-.728 1.716l-9.905 7.828 11.467-6.734a1.938 1.938 0 0 0 .909-2.1l-3.013-13.269z" fill="#FED267"/>
    <path d="m192.044 186.543.67 1.551a.735.735 0 0 0 1.314.067l7.154-12.822a.74.74 0 0 1 .577-.372l14.62-1.373a.734.734 0 0 0 .469-1.23l-9.982-10.768a.732.732 0 0 1-.178-.66l3.212-14.327a.735.735 0 0 0-1.025-.826l-4.463 2.065c1.117 16.133-4.919 28.945-12.368 38.695z" fill="#FFB03A"/>
    <path d="m358.763 139.27-2.63 13.798a.698.698 0 0 0 .19.625l9.875 9.99a.703.703 0 0 1-.41 1.19l-13.936 1.763a.704.704 0 0 0-.536.374l-6.449 12.48a.701.701 0 0 1-1.26-.023l-5.982-12.71a.702.702 0 0 0-.522-.393l-13.861-2.277a.7.7 0 0 1-.368-1.204l10.24-9.619a.704.704 0 0 0 .213-.617l-2.119-13.887a.7.7 0 0 1 .294-.685.701.701 0 0 1 .745-.036l12.304 6.769a.704.704 0 0 0 .654.012l12.553-6.307a.704.704 0 0 1 1.006.756l-.001.001z" fill="#FFC150"/>
    <path d="m356.506 141.214-10.888 5.224a1.851 1.851 0 0 1-1.78-.097l-10.261-6.372 9.783 8.133c.622.516 1.506.57 2.187.135l10.959-7.023z" fill="#FED267"/>
    <path d="m324.053 161.778-1.178 1.107a.702.702 0 0 0 .367 1.205l13.861 2.276a.701.701 0 0 1 .522.394l5.982 12.71a.704.704 0 0 0 1.26.022l6.45-12.48a.698.698 0 0 1 .535-.374l13.936-1.763a.7.7 0 0 0 .41-1.189l-3.306-3.346c-14.156 6.247-27.647 4.975-38.839 1.438z" fill="#FFB03A"/>
    <path d="m361.777 184.855.031 7.855c0 .13.064.25.17.322l6.489 4.429a.393.393 0 0 1-.098.692l-7.46 2.457a.39.39 0 0 0-.256.262l-2.205 7.539a.393.393 0 0 1-.692.122l-4.641-6.337a.393.393 0 0 0-.329-.16l-7.852.23a.39.39 0 0 1-.358-.208.39.39 0 0 1 .028-.413l4.593-6.373a.392.392 0 0 0 .051-.361l-2.646-7.396a.395.395 0 0 1 .489-.507l7.48 2.399a.397.397 0 0 0 .36-.063l6.216-4.803a.394.394 0 0 1 .63.314z" fill="#FFC150"/>
    <path d="m360.747 186.16-5.424 4.03a1.029 1.029 0 0 1-.987.138l-6.313-2.401 6.239 3.419c.396.217.888.152 1.215-.16l5.27-5.026z" fill="#FED267"/>
    <path d="m345.13 200.914-.528.732a.392.392 0 0 0 .33.622l7.852-.23a.388.388 0 0 1 .329.16l4.64 6.336a.396.396 0 0 0 .382.155.395.395 0 0 0 .31-.27l2.206-7.54a.393.393 0 0 1 .255-.262l7.46-2.456a.393.393 0 0 0 .099-.693l-2.173-1.484c-7.1 4.932-14.64 5.675-21.162 4.93z" fill="#FFB03A"/>
    <path d="m188.03 211.182.028 7.064c0 .116.058.226.155.29l5.835 3.982a.354.354 0 0 1-.089.627l-6.71 2.21a.353.353 0 0 0-.23.236l-1.984 6.78a.354.354 0 0 1-.624.109l-4.174-5.7a.36.36 0 0 0-.296-.144l-7.06.21a.353.353 0 0 1-.298-.56l4.13-5.731a.352.352 0 0 0 .046-.326l-2.378-6.654a.352.352 0 0 1 .439-.455l6.728 2.157c.11.035.232.014.324-.057l5.59-4.319a.355.355 0 0 1 .372-.037c.12.06.197.183.197.318h-.001z" fill="#FFC150"/>
    <path d="m187.104 212.359-4.872 3.626a.935.935 0 0 1-.889.123l-5.677-2.16 5.61 3.075a.935.935 0 0 0 1.093-.143l4.735-4.521z" fill="#FED267"/>
    <path d="m173.06 225.627-.476.66a.352.352 0 0 0 .298.559l7.06-.209a.352.352 0 0 1 .296.145l4.174 5.699c.08.108.214.163.346.14a.356.356 0 0 0 .279-.249l1.983-6.78c.033-.112.12-.2.23-.236l6.712-2.21a.352.352 0 0 0 .088-.626l-1.957-1.329c-6.386 4.438-13.168 5.107-19.033 4.436z" fill="#FFB03A"/>
    <path d="m310.456 164.58.526.25c1.524.729 3.302-.446 3.01-1.987l-.02-.116-.824-4.364-.254-1.345c-.064-.34-.346-.917.124-.892.87.045 1.52 1.213 2.024 1.782.807.923 1.424 1.961 2.254 2.875 1.084 1.192.764 2.84.736 4.315-.03 1.574-.126 3.272-1.195 4.528-.31.362-.205 2.587-.104 4.024.051.717.104 1.239.104 1.239a55.338 55.338 0 0 1-3.61.854c-.838.173-1.685.298-2.538.376-1.299.107-1.073-.531-1.2-1.627v-.034c-.072-.577-.265-1.136-.42-1.7a7.16 7.16 0 0 1-.125-.5 5.56 5.56 0 0 0-1.692-2.955c-.748-.685-1.528-1.077-1.5-2.221.032-1.422.517-2.842 1.14-4.212.346-.754.727-1.493 1.102-2.21a1.046 1.046 0 0 1 1.35-.472c.018.009.04.016.057.025a.937.937 0 0 1 .288.22c.272.29.493.625.655.99.275.613.405 1.447.197 2.103-.075.24-.27.62-.38.908" fill="#FED1BC"/>
    <path opacity=".4" d="M310.088 166.43c.04.026.08.05.123.071.846.45 1.887.385 2.801.09a3.838 3.838 0 0 0 1.433-.785c.67-.618 1-1.55 1-2.46 0-.91-.302-1.802-.738-2.601-.585-1.076-1.45-2.058-1.646-3.268v.032c-.284.441-.347 1.002-.554 1.482-.318.719-.462 1.5-.717 2.244-.3.871-.753 1.68-1.204 2.483-.37.657-1.082 1.819-.654 2.593.159.286.484.354.747.527.364.248.686.553.954.903.425.535.758 1.136 1.154 1.695.1.14.22.29.389.316.17.026.324-.072.461-.166.487-.33.99-.677 1.288-1.184.275-.469.346-1.025.407-1.565.116-.954.231-1.908.34-2.863.097-.84-.253-1.421-.485-2.201-.068-.23-.044-.297-.23-.452" fill="#FFAE9B"/>
    <path opacity=".6" d="M310.194 165.923c.699.244 1.373.556 2.013.93.33.18.639.394.923.64.283.248.515.549.685.885l-.016.009a6.056 6.056 0 0 0-.793-.751c-.28-.231-.57-.45-.874-.655a10.862 10.862 0 0 0-.949-.558c-.323-.174-.653-.34-.992-.483l.002-.018.001.001z" fill="#FFAE9B"/>
    <path d="M237.194 162.933v.793c0 .127 0 .22.008.276v.053l-.029.016-1.593.76a2.218 2.218 0 0 1-2.27-.203 1.776 1.776 0 0 1-.74-1.785l.61-3.242.196-1.038a253.46 253.46 0 0 0 3.056-1.008 4.503 4.503 0 0 0-.165 1.645v.043c.103.923.9 1.869.958 2.79v.046c.01.146.002.292-.025.436.002.15-.003.292-.006.418z" fill="#FCBD11"/>
    <path d="M241.449 164.778s-1.254 4.128-2.057 4.455c-.803.326 0 5.1 0 5.1-1.132-.243-2.261-.495-3.396-.742-1.718-.38-3.438-.754-5.163-1.099.539-1.17 1.067-3.206.52-4.384-.882-1.893-1.931-4.013-.686-6.068a6.444 6.444 0 0 1 1.256-1.425c.403-.358.821-.696 1.256-1.014l-.61 3.242a1.774 1.774 0 0 0 .74 1.785c.661.481 1.534.56 2.27.203l1.593-.76h.03v-.07c0-.056 0-.149-.008-.276v-.794c0-.129.008-.267.013-.416.027-.144.036-.29.025-.436v-.046c-.058-.923-.855-1.873-.958-2.791v-.043a4.503 4.503 0 0 1 .364-2.19c.142-.352.364-.666.65-.916a1.69 1.69 0 0 1 1.153-.321h.061c.462.031.7.098.777.534.015.083.027.166.04.248.139.938.158 1.783.608 2.689.439.877.963 1.872 1.296 2.892.27.882.413 1.78.226 2.642v.001z" fill="#FED1BC"/>
    <path opacity=".4" d="M238.029 163.348a3.152 3.152 0 0 1-.746 2.645c-.295.338-.676.59-1.103.727a3.39 3.39 0 0 1-1.17.092c-1.3-.074-2.733-.495-3.366-1.635-.462-.825-.385-1.865-.03-2.74.355-.874.961-1.622 1.558-2.354l.993-1.219c.257-.317.552-.655.956-.72.879-.142 1.127 1.773 1.442 2.328.532.933 1.266 1.792 1.466 2.876z" fill="#FFAE9B"/>
    <path d="M239.827 172.311a15.876 15.876 0 0 1-.335 1.377c-1.628-1.37-3.995-1.92-6.06-2.021-1.14-.057-2.321.023-3.414.373a3.813 3.813 0 0 0-.362.132c.07-.512.181-1.018.333-1.512a1.49 1.49 0 0 1 .056-.163.633.633 0 0 1 .115-.2c.133-.12.3-.195.477-.217 1.31-.274 2.67-.094 3.99.138 1.518.267 3.027.604 4.517 1.007.479.125.778.6.683 1.086z" fill="#DEE6F3"/>
    <path d="M239.676 173.002c-.055.23-.115.462-.184.685-1.628-1.37-3.995-1.92-6.06-2.021-1.14-.057-2.321.023-3.414.373a3.813 3.813 0 0 0-.362.132c.07-.512.181-1.018.333-1.512a1.49 1.49 0 0 1 .056-.163c1.29.174 2.61.193 3.911.3 1.192.098 2.396.28 3.515.716.887.347 1.734.812 2.205 1.49z" fill="#AEB9D7"/>
    <path d="M284.023 280.045s.646 1.163 1.203 2.171l.008.014c4.225-.865 8.239-1.037 12.598-1.07 1.804-.013 9.975-2.068 10.279 1.3v1.988c0 .097.005.193 0 .295l-.006.154v.323l-.005.162-.001.534c-.003.24-.013.495-.013.76-.008.2-.008.407-.008.62l-.008.214-.001.216v.282c0 .09.007.164 0 .27l-.006.162v.185c-.004.184-.011.373-.011.564l-.028 1.437-.043 2.121c-.03 1.554-.066 3.249-.104 5.062-1.36.492-2.738.974-4.13 1.442l-.646.216-.426.141-.412.136-.413.134-.786.254c-.172.055-.346.115-.515.164a195.394 195.394 0 0 1-4.557 1.381c-.395.115-.79.23-1.184.336l-.299.084-.65.177-.652.18a5.093 5.093 0 0 0-.203.055c-.068.02-.115.03-.174.046l-.498.132-.5.131-.59.151-.671.171-.673.167-.547.134-.947.227-.948.22c-.138.032-.275.064-.414.094-.338.079-.677.154-1.015.231l-.472.103-.634.135-.857.176-.289.059-.288.057-.468.093-.635.122-.634.118c-.173.034-.346.065-.522.096-.207.038-.414.075-.622.115l-.588.103-.13.022-.043.007-.636.106-.38.062-.306.049-.305.047c-.28.045-.557.087-.836.127l-.71.104-.439.062-.437.059c-.13.018-.26.035-.392.05a28.78 28.78 0 0 1-.524.069l-.742.09-.632.074-.306.034-.307.033-.509.053-.13.013-.127.012c-.085.007-.156.016-.231.023h-.019l-.066.005-.065.007c-.255.026-.508.05-.76.07l-.513.044-.058.004-.057.005c-.21.019-.419.035-.628.05-.209.015-.435.033-.653.047l-.599.04-.115.007-.506.028-.283.017-.284.013-.673.031h-.1l-.155.007h-.288l-.082.007h-.118l-.085.006-.296.009h-.203l-.704.016-.702.01h-1.868a9.757 9.757 0 0 1-.345-.008h-.186l-.167-.001-.165-.005-.218-.006-.389-.009-.386-.017h-.05l-.212-.009h-.115l-.121-.001-.12-.01a.115.115 0 0 1-.037 0h-.015l-.132-.004-.131-.008-.605-.032-.24-.016-.1-.004-.1-.008c-.147-.008-.297-.02-.444-.03a43.704 43.704 0 0 1-.714-.055c-.04 0-.08 0-.115-.01l-.346-.03-.06-.003-.056-.008c-.09 0-.182-.014-.272-.024-.18-.016-.358-.034-.535-.052-.084-.007-.165-.018-.249-.027a1.154 1.154 0 0 1-.101-.011l-.385-.042-.152-.018-.475-.058-.406-.05-.073-.01-.01-.287-.081-2.212c-.006-.135-.013-.27-.013-.403l-.029-.746c-.004-.163-.016-.326-.016-.487-.012-.377-.026-.748-.039-1.115-.006-.164-.016-.325-.016-.486-.01-.344-.023-.684-.034-1.02-.015-.392-.026-.78-.039-1.164-.006-.14-.014-.282-.014-.422l-.018-.571-.029-.948c-.026-.77-.048-1.517-.071-2.229a6.747 6.747 0 0 1-.007-.318c-.006-.047-.006-.092-.006-.137-.002-.102-.01-.203-.01-.307-.03-1.016-.055-1.968-.078-2.845l-.015-.502c-.001-.14-.01-.273-.01-.41l-.004-.1V289c-.012-.419-.022-.814-.03-1.185l-.006-.208-.003-.2v-.572l-.006-.186v-.419c-.01-.267-.01-.507-.01-.729-.001-.91.612-1.7 1.48-1.931l.155-.035 15.497-2.567 11.608-1.925a1.996 1.996 0 0 1 2.077 1.003l.001-.001z" fill="#3E3E89"/>
    <path d="M261.604 306.9h-.118l-.167-.001-.165-.005-.03-.002c.012-2.602.038-5.205.082-7.808.15 2.605.28 5.21.398 7.816zm20.355-22.986.788.008 1.234.011 1.921.019 2.37.023h.146l19.718.194c0 .177 0 .369-.008.576 0 .103 0 .206-.006.312v.165c0 .115 0 .222-.006.337-.005.115 0 .23 0 .36 0 .241-.008.494-.014.76 0 .199-.008.405-.011.619 0 .14 0 .282-.01.429v.14l-.005.142v.27c0 .108 0 .215-.007.326v.02c0 .184-.008.372-.012.564l-.033 1.438c-2.083.768-4.18 1.52-6.301 2.2-.25.077-.497.147-.744.209-1.32.32-2.613.398-3.949.726-3.078.758-6.091 2.23-7.846 4.59-1.288 1.739-1.967 3.72-2.55 5.722l-.1.023-.507.115-.472.103-.634.135-.857.176-.289.059-.288.057-.468.093-.415.08c-.11-2.591-.207-5.023-.291-7.249l-.012-.304-.011-.3c0-.182-.014-.36-.02-.538l-.115-3.275c-.014-.401-.027-.79-.038-1.169a376.429 376.429 0 0 1-.16-6c0-.23-.009-.44-.01-.635-.01-.808-.006-1.325.012-1.531z" fill="#30306E"/>
    <path opacity=".5" d="M290.121 293.23s-.692 1.137-3.28 2.698c-4.23 2.552-13.519 6.231-33.109 7.915a1614.24 1614.24 0 0 1-.24-7.083c-.248-7.748-.346-12.779-.264-12.941l17.147-2.842 17.077 5.756 1.385 3.379.669 1.634.615 1.484z" fill="#30306E"/>
    <path d="M252.357 294.575c.025.145.05.298.076.462-.028-.155-.057-.31-.083-.462a61.196 61.196 0 0 1-.26-1.571c.026.115.119.69.267 1.571z" fill="#fff"/>
    <path d="M318.244 211.467a63.466 63.466 0 0 1-1.552 2.932c-2.967 5.296-6.577 10.458-8.48 16.051-.433 1.27-1.01 2.344-1.56 3.361-1.038 1.926-1.987 3.66-1.66 6.201.146.86.316 1.717.496 2.573.41 1.97.872 3.932 1.201 5.917 1.467 8.894 1.885 18.017 2.341 27.061.127 2.487.255 4.962.409 7.434.071 1.154.308 2.58 0 3.718a.455.455 0 0 1-.03.072c-.216.394-.827.835-1.703 1.283-1.244.641-3.021 1.298-4.945 1.868-2.46.729-6.404 2.213-9 1.643a3.207 3.207 0 0 1-1.29-.623c-1.455-1.132-2.262-3.426-2.57-5.084-.15-.855-.235-1.72-.255-2.588-.035-1.141.008-2.287.033-3.428a114.302 114.302 0 0 0-4.432-34.087c-.421-1.464-1.172-2.98-1.334-4.469-.18-1.665.353-3.675.567-5.334.218-1.698.452-3.391.629-5.094.3-2.874.295-5.77.165-8.654a90.532 90.532 0 0 0-.06-1.163c-.088-1.593-.127-3.243-.313-4.847a21.91 21.91 0 0 0-.242-1.584c-.048-.249-.323-1.117-.647-2.02-.42-1.177-.935-2.423-1.153-2.423.51.016 1.018.053 1.526.115a18.217 18.217 0 0 1 3.831.866l.195.066c2.711.96 4.328 1.112 6.22-.14.194-.126.39-.268.59-.426.101-.08.203-.163.307-.25.31-.262.632-.559.97-.896 1.666-1.652 3.468-3.077 5.183-4.68.2-.184.397-.371.593-.563 1.402-1.364 3.216-2.578 3.828-4.391.849-2.515.782-5.575.929-8.182.183-3.291.248-6.597.107-9.889-.032-.703-.094-1.376-.149-2.013-.196-2.262-.31-4.05 1.379-4.933.55-.288 1.291-.48 2.282-.56 2.29-.188 5.444-.274 7.742-1.145.209-.077.409-.162.6-.255.124-.058.243-.116.358-.185.916-.51 2.297 9.593 2.392 10.385 1.092 9.26.749 19.76-3.498 28.36z" fill="#4E4E98"/>
    <path d="m281.595 207.768-12.105-.846-3.509 1.457 6.473 6.243 8.217-.593 2.813.83-.663-4.426-1.226-2.665z" fill="#AEB9D7"/>
    <path d="m292.44 222.889-3.183-5.308-2.26-3.767c-.162-.274-.328-.546-.492-.82-.108-.18-.213-.363-.318-.554a7.789 7.789 0 0 0-.628-1.015 6.062 6.062 0 0 0-1.196-1.105l-.063-.046c-.56-.412-1.154-.8-1.651-1.262-.07.215-.127.435-.177.655-.145.613-.242 1.237-.393 1.846a9.301 9.301 0 0 1-.116.427c-.02.064-.039.125-.062.187a5.46 5.46 0 0 1-.293.703l-.074.14a2.34 2.34 0 0 1-.078.135c-.028.045-.054.09-.084.133-.03.043-.047.076-.075.116a1.969 1.969 0 0 1-.115.152c-.043.05-.061.078-.095.115-.033.037-.068.079-.105.116l-.069.072a1.65 1.65 0 0 1-.101.094l-.031.027a2.095 2.095 0 0 1-.129.104h-.008l-.157.116c-.054.04-.103.064-.156.092a3.474 3.474 0 0 1-.162.08h-.01c-.807.358-1.747.232-2.616.06a32.407 32.407 0 0 1-1.102-.245l-.439-.107-.355-.091c-.53-.137-1.058-.279-1.588-.416l-.536-.138c-.076-.021-.156-.04-.23-.06a17.853 17.853 0 0 0-.444-.106 15.25 15.25 0 0 0-.504-.116l-.105-.023c-.123-.028-.246-.053-.368-.078a30.898 30.898 0 0 0-.65-.124l-.086-.014-.22-.035a4.964 4.964 0 0 0-.24-.036 7.327 7.327 0 0 0-.42-.056c-.097-.009-.2-.024-.299-.033a12.004 12.004 0 0 0-.992-.061c-1.564-.036-3.167.23-4.55.97l-.148.084a3.077 3.077 0 0 0-.468.337c-.02.016-.038.035-.057.055h-.007c-.873.807-1.08 1.937-1.71 3.072l-.441.792a813.185 813.185 0 0 1-3.252 5.769l2.263 1.807 21.494 17.155 1.672 1.335.862.693 1.796-4.39 6.347-15.532.336-.818c-.23-.358-.446-.722-.662-1.083z" fill="#fff"/>
    <path opacity=".25" d="m292.44 222.889-3.183-5.308-2.26-3.767c-.162-.274-.328-.546-.492-.82-.108-.18-.213-.363-.318-.554a7.789 7.789 0 0 0-.628-1.015 6.062 6.062 0 0 0-1.196-1.105l-.063-.046c-.56-.412-1.154-.8-1.651-1.262-.07.215-.127.435-.177.655-.145.613-.242 1.237-.393 1.846a9.301 9.301 0 0 1-.116.427c-.02.064-.039.125-.062.187a5.46 5.46 0 0 1-.293.703l-.074.14a2.34 2.34 0 0 1-.078.135c-.028.045-.054.09-.084.133-.03.043-.047.076-.075.116a1.969 1.969 0 0 1-.115.152c-.043.05-.061.078-.095.115-.033.037-.068.079-.105.116l-.069.072a1.65 1.65 0 0 1-.101.094l-.031.027a2.095 2.095 0 0 1-.129.104h-.008l-.157.116c-.054.04-.103.064-.156.092a3.474 3.474 0 0 1-.162.08h-.01c-.807.358-1.747.232-2.616.06a32.407 32.407 0 0 1-1.102-.245l-.439-.107-.355-.091c-.53-.137-1.058-.279-1.588-.416l-.536-.138c-.076-.021-.156-.04-.23-.06a17.853 17.853 0 0 0-.444-.106 15.25 15.25 0 0 0-.504-.116l-.105-.023c-.123-.028-.246-.053-.368-.078a30.898 30.898 0 0 0-.65-.124l-.086-.014-.22-.035a4.964 4.964 0 0 0-.24-.036 7.327 7.327 0 0 0-.42-.056c-.097-.009-.2-.024-.299-.033a12.004 12.004 0 0 0-.992-.061c-1.564-.036-3.167.23-4.55.97l-.148.084a3.077 3.077 0 0 0-.468.337c-.02.016-.038.035-.057.055h-.007c-.873.807-1.08 1.937-1.71 3.072l-.441.792a813.185 813.185 0 0 1-3.252 5.769l2.263 1.807 21.494 17.155 1.672 1.335.862.693 1.796-4.39 6.347-15.532.336-.818c-.23-.358-.446-.722-.662-1.083zm-26.732-6.417h.01c.516.205 10.824 7.154 15.64 7.136l-.019-.798-.134-6.073c.026.346 3.55 3.873 3.55 3.873s-.041 11.359-1.031 11.946c.054-.032-3.658-5.183-3.972-5.558-2.168-2.593-5.643-4.224-8.393-6.13a95.054 95.054 0 0 1-3.641-2.62c-.677-.52-1.517-1.06-2.017-1.769v-.009l.007.002z" fill="#AEB9D7"/>
    <path d="M286.1 194.809c.057 3.346-2.443 6.449-5.384 8.006a14.073 14.073 0 0 1-.717.347c-.29.128-.588.24-.892.334a9.9 9.9 0 0 1-1.744.38c-.41.053-.823.084-1.237.094-3.252.094-6.864-1.015-9.188-2.916 0 0-.08.05-.224.129-.059.032-.13.07-.21.115l-.123.064a.759.759 0 0 0-.077.035c-1.233.596-3.988 1.616-5.686-.177-1.02-1.072-1.57-2.031-1.707-2.858a2.1 2.1 0 0 1 .31-1.568c.226-.33.518-.609.858-.819a2.116 2.116 0 0 1 .307-.169c.836-.38 1.624-.125 2.174.194l.049.029c.184.11.358.237.521.377.116.1.187.175.206.194l-.047-.075c.049.042.097.086.146.135l.161.015 1.677.161-.06-.063-.045-.049a2.156 2.156 0 0 1-.09-.097l-.116-.127-.085-.1-.2-.23a4.04 4.04 0 0 0-.167-.208c-.038-.051-.078-.102-.115-.156a27.927 27.927 0 0 1-.255-.335c-.043-.06-.087-.115-.13-.186-.044-.07-.092-.129-.138-.193-.091-.135-.186-.275-.28-.423-.048-.072-.091-.146-.14-.221a13.88 13.88 0 0 1-.42-.725c-.046-.083-.093-.167-.137-.255a12.435 12.435 0 0 1-1.03-2.64 6.664 6.664 0 0 1-.088-.377 7.244 7.244 0 0 1-.138-.767c-.008-.055-.013-.116-.02-.163a3.273 3.273 0 0 1-.017-.134c-.008-.073-.013-.147-.02-.222-.005-.075-.01-.129-.012-.193-.002-.065-.01-.152-.011-.231v-.502c0-.07 0-.166.01-.248.01-.082.01-.166.017-.25l.025-.247c.008-.084.023-.168.034-.252.012-.084.027-.168.04-.253.009-.05.019-.105.03-.157 0 0 0-.023.01-.064 0-.016.009-.033.012-.053.009-.04.017-.087.03-.143.001-.013.004-.025.007-.037 0-.025.01-.049.017-.076.005-.028.005-.022.008-.033.002-.01 0-.026.008-.04l.011-.046a.257.257 0 0 0 .008-.04.452.452 0 0 0 .016-.073.213.213 0 0 0 .015-.049c0-.01.006-.026.009-.038l.009-.045.02-.08.014-.055.025-.089c.003-.018.008-.035.013-.053l.006-.03a.074.074 0 0 0 .008-.029 1.35 1.35 0 0 1 .041-.138c.009-.028.008-.029.01-.045.002-.016.006-.019.01-.028l.043-.144c.008-.025.014-.052.024-.079.022-.072.044-.145.07-.221v-.02l.033-.093c0-.013.008-.027.013-.037.017-.05.036-.103.052-.154.01-.021.016-.042.024-.064a.118.118 0 0 0 .01-.03c.014-.032.025-.065.036-.097.012-.032.027-.065.04-.097v-.008c.013-.036.028-.073.042-.105l.048-.115a.067.067 0 0 1 .009-.021c.015-.033.026-.065.041-.097.032-.07.066-.14.096-.208l.047-.091.058-.115a.86.86 0 0 1 .067-.116c.138-.25.305-.482.498-.692.054-.055.116-.107.168-.156.028-.022.056-.045.085-.064a.308.308 0 0 1 .052-.037l.073-.049c.032-.017.063-.036.096-.05h.009a.552.552 0 0 1 .099-.044c.044-.015.087-.033.129-.052a.68.68 0 0 0 .157-.09l.02-.015a.082.082 0 0 1 .02-.017l.021-.032c.01-.017.015-.038.01-.059l-.01-.02a.005.005 0 0 0 0-.007.076.076 0 0 1-.013-.017l-.011-.013a.065.065 0 0 1-.02-.017l-.016-.01h-.014a.135.135 0 0 0-.034-.017.205.205 0 0 0-.038-.016l-.022-.01a.527.527 0 0 0-.072-.027h-.014c-.03-.01-.064-.022-.098-.03l-.059-.015a4.054 4.054 0 0 0-.289-.063l-.08-.016-.076-.011c-.043-.007-.087-.015-.132-.021h-.07l-.07-.01a.037.037 0 0 1-.021 0l-.116-.013h-.15l-.058-.008-.006.002c-.002 0-.004 0-.006-.002h-.285l-.067-.007h-.061a.034.034 0 0 1-.02 0h-.026l-.125-.01h-.202c-.042 0-.08-.007-.11-.009H261.719l-1.772.98 1.28-2.567c1.219-.145 2.436-.285 3.652-.43 2.59-.303 5.181-.608 7.773-.915 2.134-.252 4.598-.912 6.749-.793.662.037.668-.205 1.038.258l.067.087c.16.214.26.565.335.963.012.066.024.135.034.202.035.208.062.423.089.636.037.414.1.826.186 1.233.3 1.106.767 2.064 1.275 3 .115.216.239.433.36.646.355.634.719 1.27 1.049 1.948a26.427 26.427 0 0 1 1.537 3.846c.008.024.013.05.021.074.067.218.127.436.184.653.25.91.418 1.842.503 2.783.01.123.017.246.02.37a.631.631 0 0 1 .001-.077z" fill="#FED1BC"/>
    <path d="M264.244 182.437a1.039 1.039 0 0 1-.285.141c-1.49.547-2.152 4.307-2.152 4.307-1.06 5.271 3.454 9.905 3.56 10.01l-1.84-.175c-.047-.049-.097-.093-.144-.135l-5.615-9.232 2.27-4.549 1.771-.98s3.012.171 2.436.612l-.001.001z" fill="#FED1BC"/>
    <path d="M292.587 290.655c-.079.486-.28.45-.6.718-.231.187-.668.275-.964.402l-.094.028c-.116.036-.231.072-.36.106-.777.214-1.564.428-2.353.606-1.247.28-2.502.545-3.76.73-7.338 1.082-14.606.53-22.03.438-3.354-.042-7.027.203-10.36-.718-1.077-.297-2.038-.818-2.965-1.465-.651-.456-1.242-1.103-1.762-1.72-.007-.011-.017-.017-.025-.027-.417-.66-.777-1.064-1.047-1.865-.469-1.385-.711-2.59-.643-4.195.284-6.637 1.145-13.385 1.798-20.047.07-.71.15-1.395.21-2.133.436-5.372 1.23-10.239 1.065-15.84-.09-3.055-1.6-7.133-3.528-9.791a6.08 6.08 0 0 0-.705-.816c-1.712-1.654-3.59-3.122-5.298-4.772-.692-.673-1.385-1.372-2.064-2.052a166.688 166.688 0 0 1-2.476-2.5l-.291-.3c-2.448-2.55-4.846-5.004-7.248-7.603-2.908-3.138-4.8-3.908-5.244-8.646-.302-3.25.176-6.83.648-10.253.128-.943.258-1.875.371-2.783.089-.714.22-1.418.301-2.094.211-1.756.555-3.486.923-5.192 1.08-5.068 2.562-10.147 4.154-15.02.346-1.056.52-1.46 1.438-1.967.114-.057.236-.095.362-.116 1.12-.281 2.278-.37 3.427-.263 2.206.212 4.229.808 6.035 2.193.1.07.189.155.262.254 2.238 2.801.954 12.591.723 16.18-.211 3.248-.973 10.454-1.005 13.236 0 .237 0 .444.008.612.07 1.348.427 2.691 1.5 3.584 1.3 1.08 3.116 1.656 4.564 2.524 1.643.982 3.158 2.12 4.674 3.269.5.377 1.003.756 1.51 1.133.59.436 1.29.902 2.02 1.14.13.044.263.08.398.108.149.03.301.039.453.028.106 0 .208-.013.31-.027h.022a2.9 2.9 0 0 0 .717-.174c.193-.074.38-.157.562-.245.332-.161.655-.346.975-.527h.006c.346-.204.7-.414 1.056-.61a4.17 4.17 0 0 1 .267-.136c1.537-.718 3.108-1.333 4.755-1.715.163-.04.325-.074.488-.107.39-.07.783-.114 1.178-.133-.68 2.746-.493 4.508 1.63 6.577 1.594 1.553 3.858 2.612 5.769 3.772 3.305 2.009 6.115 4.31 8.62 7.229.193.222.338.423.511.648.096.135.194.265.298.396l.01.01a30.04 30.04 0 0 1 1.183 1.734c.19.302.365.597.538.9.173.304.346.61.506.924.116.218.23.44.336.662.015.03.032.059.047.091.41.872.784 1.705 1.122 2.623a35.91 35.91 0 0 1 1.257 4.202c.163.687.302 1.415.424 2.136.25 1.457.483 2.949.718 4.414v.02c.129.808.253 1.615.376 2.423.07.462.142.923.21 1.385.173 1.177.343 2.353.51 3.53.06.43.115.857.18 1.284.14 1.011.274 2.02.408 3.033.04.298.076.597.116.894.06.439.115.871.166 1.311.047.367.09.708.136 1.085.065.53.125.988.19 1.545.115.977.208 1.674.323 2.769.244 2.338.563 5.358.769 7.666.115 1.28.174 2.192.23 3.28.182 3.212.305 6.622.774 9.625.174 1.075.429 1.513.285 2.395z" fill="#4E4E98"/>
    <path d="M263.814 212.207c-.018.028-.035.058-.055.088l-1.42 2.342c-.607 1.001-1.268 2.055-2.318 2.576-1.17.577-2.286.692-3.393-.115-.398-.29-.724-.661-1.1-.979a3.131 3.131 0 0 0-.584-.4c.245-.028.486-.086.716-.174.193-.074.38-.157.562-.245.114-.04.225-.088.331-.145.22-.116.433-.248.644-.382h.006c.356-.225.712-.462 1.086-.656.086-.043.175-.087.264-.129 1.365-.632 3.1-1.33 4.73-1.676.18-.04.356-.075.531-.105z" fill="#47478E"/>
    <path d="M263.717 213.962c.13-.51.506-1.18.808-1.86l.072.056c-.241.692-.417 1.403-.355 2.217.007.107.019.21.033.314-.397-.295-.603-.544-.558-.727z" fill="#5A5AAD"/>
    <path d="M281.978 237.772c.013.23.025.462.036.692-4.124-4.41-12.892-8.622-14.538-9.371-.559-.254-1.296-1.212-2.065-2.502-.022-.29-.048-.567-.086-.842a7.305 7.305 0 0 0-.693-2.297c-.576-1.186-1.314-2.308-1.106-3.693.084-.577.324-1.112.446-1.678.186-.859.332-1.767.455-2.694.346 1.27 1.154 2.37 2.124 3.282 1.684 1.589 3.808 2.61 5.808 3.775 3.473 2.021 6.348 4.435 8.625 7.243.602 2.623.848 5.352.994 8.085z" fill="#3A3A7B"/>
    <path d="M281.955 211.937c-.311 1.001-.862 1.961-1.803 2.383-.808.358-1.748.231-2.618.06-2.539-.515-5.013-1.426-7.594-1.682a13.008 13.008 0 0 0-.992-.061l-2.897-2.115c2.43-4.477.17-11.819.17-11.819.319-.779 8.671 1.566 12.085 2.56.88.257 1.431.424 1.431.424l.02.13.282 1.905.505 3.394a18.313 18.313 0 0 0 1.411 4.821z" fill="#FED1BC"/>
    <path opacity=".4" d="M281.955 211.938c-.311 1.001-.862 1.961-1.803 2.383-.814.358-1.748.231-2.618.062-2.539-.517-5.012-1.428-7.594-1.684a13.576 13.576 0 0 0-.992-.061l-2.897-2.115c1.521-2.804 1.203-6.732.753-9.277.143-.078.224-.13.224-.13 2.323 1.902 5.936 3.01 9.188 2.918.073.009.145.014.216.016.343 0 .686-.038 1.02-.115a9.889 9.889 0 0 0 1.745-.379c.214-.07.468-.23.693-.158-.384.657-1.641 1.006-2.347 1.154-1.82.388-3.712.338-5.544.05a2.02 2.02 0 0 0-2.292 1.592l-.346 1.73a2.231 2.231 0 0 0 1.241 2.46c2.955 1.38 9.045 4.154 9.567 3.808.685-.447 1.138-3.916 1.14-3.923.187.575.402 1.126.646 1.669zm-16.695-11.946a.644.644 0 0 1-.24.5c-.718.603-1.738.75-2.639.594-1.13-.198-3.01-1.354-2.26-2.716.08-.158.182-.305.301-.435.223-.231.728-.434 1.05-.374.346.065.713.059 1.07.092.848.078 1.571.526 2.132 1.137.257.279.595.771.586 1.202z" fill="#FFAE9B"/>
    <path d="M279.907 222.515s-13.05-4.536-15.415-7.637c-.396-.518-.833-.662-.78-.874.194-.772.692-1.856 1.16-2.902.487-1.096.945-2.152.986-2.77 0 0 9.516 6.24 14.308 5.871l-.259 8.312z" fill="#fff"/>
    <path d="M284.407 235.042c-.269 1.97-.52 3.938-.629 5.92a8.44 8.44 0 0 0-1.29-1.971 11.523 11.523 0 0 0-.474-.532c-.012-.23-.023-.462-.036-.692-.146-2.74-.392-5.463-.997-8.091.176.214.346.43.511.65.096.134.195.266.298.394l.01.013a27.802 27.802 0 0 1 2.607 4.309z" fill="#30306E"/>
    <path d="M281.492 230.331c-.164-.22-.335-.438-.51-.65a9.703 9.703 0 0 0-.073-.294c.171.329.366.644.583.944zm9.827 61.15.692-.122c-.31.17-.639.305-.979.404l-.093.03a4.192 4.192 0 0 1-1.002-1c-1.038-1.673-1.173-4.005-1.438-5.915-.327-2.343-.915-4.64-1.407-6.954a267.527 267.527 0 0 1-3.65-21.547c-.364-2.885-.279-5.754-.826-8.582-.724-3.752.109-7.817-3.097-10.642-1.005-.889-2.229-1.484-3.38-2.175-2.613-1.563-4.916-3.636-7.654-4.969-.851-.415-1.754-.766-2.455-1.4a3.85 3.85 0 0 1-1.08-1.668c-.116-.353-.158-.79.106-1.045a.58.58 0 0 1 .273-.15c.038.272.067.551.087.84.767 1.29 1.506 2.249 2.063 2.502 1.645.75 10.412 4.962 14.538 9.372 0-.057-.006-.115-.01-.172-.003-.057 0-.115-.008-.173 0-.115-.012-.23-.018-.346.033.098.062.198.088.297.091.328.232.64.418.924v.005c.373.598.875 1.143 1.207 1.797.01.017.018.034.025.052l.06.115c-.041.664-.06 1.322-.063 1.986-.003.69.032 1.38.105 2.066.126 1.135.346 2.257.658 3.356.338 1.23.403 2.527.488 3.82.022.357.047.712.08 1.065.028.333.063.663.116.993.528 3.615 1.071 7.23 1.63 10.846l2.149 14.375c.127.712.255 1.427.386 2.137l.056.296v.037c.004.025.01.05.017.075.038.22.08.44.122.657.043.218.079.413.116.62.02.868.106 1.733.256 2.588.334 1.815 1.059 3.885 2.553 5.071-.443.183-.802.414-1.129.534z" fill="#47478E"/>
    <path d="M264.63 223.446c.539 1.106.703 2.044.782 3.14-1.926-3.23-4.066-8.539-4.181-10.124-.16-2.226 3.144-4.482 3.144-4.482l.155.116c-.447.989-.88 1.897-.474 2.966.39 1.028.148 1.922-.086 3.007-.122.567-.362 1.106-.446 1.68-.208 1.388.528 2.511 1.106 3.697z" fill="#30306E"/>
    <path d="M264.244 182.436a1.039 1.039 0 0 1-.285.141c-.566.208-1.011.878-1.347 1.63a13.35 13.35 0 0 0-.805 2.676c-.012.052-.021.106-.03.158-.94 5.205 3.484 9.748 3.59 9.852-.424-.042-.876.008-1.288-.044-.453-.055-.846-.4-1.232-.625-.874-.51-1.76-.787-2.678-.192-.34.21-.633.49-.86.82-.26-.3-.505-.613-.732-.939-.488-.64-.952-1.3-1.408-1.961-.455-.663-.862-1.298-1.34-1.925l-.03-.038c-.484-.629-.966-1.28-1.219-2.041a5.803 5.803 0 0 1-.238-1.245c-.03-.304-.1-.603-.21-.889-.2-.461-.402-.93-.603-1.4l6.51-3.602 1.771-.98s1.682.095 2.293.328c.204.07.286.164.141.276z" fill="#824A46"/>
    <path opacity=".5" d="M264.244 182.437a1.039 1.039 0 0 1-.285.141c-.566.208-1.011.878-1.347 1.63a2.348 2.348 0 0 0-.05.115c-.403.148-.766.279-1.007.397-.82.399-1.642.8-2.399 1.308a10.075 10.075 0 0 0-1.925 1.674c-.606.683-1.129 1.464-1.35 2.35a5.014 5.014 0 0 0-.052 1.975l-.03-.038c-.484-.63-.966-1.281-1.219-2.041a5.803 5.803 0 0 1-.238-1.245c-.03-.305-.1-.603-.21-.889-.2-.461-.402-.931-.603-1.4l6.51-3.602 1.771-.98s1.682.095 2.293.328c.204.072.286.165.141.277z" fill="#6D3E3C"/>
    <path d="M255.188 179.629c-.577.503-.97 1.21-1.246 1.951-.276.74-.456 1.531-.7 2.308-.12.388-.266.768-.439 1.136a7.197 7.197 0 0 1-.62 1.046 6.97 6.97 0 0 1-1.731 1.682 6.916 6.916 0 0 0 2.234-2.78c.156-.368.286-.746.39-1.132.214-.77.362-1.565.623-2.34.26-.776.635-1.539 1.258-2.121l.231.25zm17.486-11.427a8.82 8.82 0 0 0-5.211-.243 8.98 8.98 0 0 0-2.444 1.021 9.475 9.475 0 0 0-2.03 1.716c-1.204 1.321-2.146 2.868-3.328 4.229a10.901 10.901 0 0 1-1.998 1.809 6.03 6.03 0 0 1-2.48 1.006 6.017 6.017 0 0 0 2.456-1.038 10.786 10.786 0 0 0 1.962-1.832c1.153-1.37 2.068-2.93 3.266-4.287a9.662 9.662 0 0 1 2.045-1.783 9.251 9.251 0 0 1 7.885-.923l-.123.325zm-4.783 13.084c-.78.355-1.586.653-2.41.893-.822.245-1.664.401-2.494.577-.83.175-1.656.375-2.423.737-.767.362-1.47.877-1.933 1.597.438-.735 1.137-1.285 1.895-1.674s1.595-.624 2.423-.827c.828-.204 1.656-.384 2.457-.651a17.321 17.321 0 0 0 2.337-.958l.148.306zm-14.622 5.854c.007.652.014 1.302.07 1.946.05.643.174 1.278.371 1.892.204.613.526 1.181.946 1.672.422.499.974.87 1.595 1.07a3.52 3.52 0 0 1-1.658-1.012 5.075 5.075 0 0 1-1.039-1.672 8.314 8.314 0 0 1-.461-1.922 24.147 24.147 0 0 1-.158-1.962l.334-.012zm26.968-14.059a2.288 2.288 0 0 0-.115-1.106 3.754 3.754 0 0 0-.544-1.018 6.014 6.014 0 0 0-1.732-1.574 8.032 8.032 0 0 0-2.192-.908 12.389 12.389 0 0 0-2.369-.353c.804.013 1.604.103 2.39.27a8.17 8.17 0 0 1 2.261.843c.716.396 1.347.93 1.857 1.57.26.323.469.684.62 1.071.158.4.216.831.168 1.258l-.344-.053z" fill="#AD695E"/>
    <path d="M280.927 179.409c-2.505 2.928-9.425 2.69-9.425 2.69-2.865-.039-5.262.087-7.257.337-.86.109-1.646.24-2.361.391-.725.15-1.44.343-2.142.577-4.703 1.57-5.24 4.27-4.751 6.4.174.728.45 1.427.817 2.078.1.178.195.338.284.476l.024.04c.06.094.115.177.168.25.012.02.023.038.037.057.037.052.075.116.116.176l.008.011.046.07c-.145-.215-.659-.411-.88-.568a9.73 9.73 0 0 1-.861-.679 6.53 6.53 0 0 1-1.167-1.337 5.41 5.41 0 0 1-.825-2.842c-.024-1.066.18-2.127.39-3.168.469-2.34.774-4.544 2.423-6.414 1.143-1.293 2.573-2.287 4.06-3.159a51.86 51.86 0 0 1 1.313-.735c.438-.237.768-.84 1.068-1.202l.218-.262a29.617 29.617 0 0 1 1.796-1.994 10.091 10.091 0 0 1 7.359-2.915c2.453.056 4.912.766 6.8 2.381.293.252.569.522.828.808 1.038 1.144 1.804 2.515 2.358 3.954.792 2.045.463 3.52-.444 4.579z" fill="#AD695E"/>
    <path d="M285.158 220.201c-.09.3-.17.451-.23.403l-4.278-6.313a.439.439 0 0 1 .199-.537c1.421-.854.822-6.078.822-6.078.943 1.136 3.976 2.638 4.417 3.982 0 .012.007.024.012.037.347 1.217-.46 6.922-.942 8.506z" fill="#fff"/>
    <path d="M284.48 248.369c.08.29.143.577.196.877v.034l4.102-8.954c.668-1.457 1.252-2.926 1.846-4.397.181-.454.363-.91.55-1.364 1.002-2.442.923-4.836 1.475-7.385.208-.976.178-2.054.01-3.149-.288-1.867-.972-3.784-1.547-5.334-.894-2.406-1.81-4.81-2.613-7.248a.6.6 0 0 0-.386-.385 21.35 21.35 0 0 0-1.217-.346c-.83-.208-1.672-.36-2.522-.452-.188.437-.307.774-.296.923.006.09-.022.563-.077 1.312.322.871.59 1.705.64 1.946.1.503.178 1.011.237 1.528.182 1.549.217 3.139.302 4.674.019.374.04.748.057 1.122.122 2.784.115 5.578-.19 8.348-.18 1.643-.418 3.277-.64 4.914-.361 2.625-.684 5.252-.692 7.905a19.297 19.297 0 0 0 .765 5.431z" fill="#3A3A7B"/>
    <path d="M279.907 222.514s-13.05-4.536-15.415-7.637c-.396-.518-.833-.662-.78-.874.194-.772.692-1.856 1.16-2.902.487-1.096.945-2.152.986-2.77 0 0 9.516 6.24 14.308 5.871l-.259 8.312zm5.251-2.313c-.09.3-.17.451-.23.403l-4.278-6.313a.439.439 0 0 1 .199-.537c1.421-.854.822-6.078.822-6.078.943 1.136 3.976 2.638 4.417 3.982 0 .012.007.024.012.037.347 1.217-.46 6.922-.942 8.506z" fill="#fff"/>
    <path opacity=".8" d="M286.317 211.678a.737.737 0 0 0-.094 0c-.23-.416-.5-.82-.761-1.217l.855 1.217z" fill="#373777"/>
    <path d="M286.947 215.517c-.277 2.18-.958 4.283-1.636 6.373a2.587 2.587 0 0 1-.073-.109c-.017-.374-.037-.748-.057-1.12-.008-.154-.017-.306-.023-.462.481-1.584 1.29-7.289.945-8.506a.9.9 0 0 1 .116-.017c.372.617.627 1.298.753 2.009a6.731 6.731 0 0 1-.025 1.832zm6.361 9.649c-.031 1.551.088 3.13-.142 4.672-.374 2.52-1.6 4.814-2.488 7.17a127.793 127.793 0 0 1-5.95 13.345l-.053-1.106.006.034 4.103-8.954c.874-1.909 1.603-3.837 2.392-5.761 1.001-2.442.923-4.835 1.473-7.385.209-.975.179-2.054.01-3.15-.287-1.867-.971-3.783-1.546-5.334-.929-2.5-1.883-4.999-2.708-7.537.802 1.77 1.563 3.559 2.285 5.369 1.067 2.655 2.674 5.7 2.618 8.637z" fill="#47478E"/>
    <path opacity=".4" d="M280.927 179.41c.05.267.087.557.122.838-1.488 1.281-3.95 2.2-4.95 2.486-2.148.61-4.358.974-6.588 1.087-.63.04-1.26.033-1.889-.02-.756-.073-1.589-.346-2.339-.182-.653.147-1.301.56-1.811.983a5.525 5.525 0 0 0-1.694 2.441 13.202 13.202 0 0 1 .836-2.836c.336-.75.782-1.421 1.347-1.629.102-.032.198-.08.286-.14 1.995-.251 4.393-.377 7.258-.338-.005 0 6.918.238 9.422-2.69z" fill="#FFAE9B"/>
    <path opacity=".8" d="M271.636 176.491c-.646-.051-1.29-.14-1.925-.266-.066-.017-.13-.037-.19-.052a21.338 21.338 0 0 1-2.192-.704 15.325 15.325 0 0 0-6.858-.986c.371-.2.737-.561 1.038-.78l.276-.199c1.106.077 2.199.284 3.256.619 2.392.729 4.128 1.925 6.595 2.368z" fill="#824A46"/>
    <path d="M286.935 210.738c.147.04.698.2 1.49.489-.007-.02-.014-.04-.02-.062-.485-.16-.975-.303-1.47-.427z" fill="#4E4E98"/>
    <g opacity=".76" fill="#AD695E">
        <path d="M265.127 199.443a.083.083 0 0 1-.088-.028c-.712-.882-1.467-1.445-2.245-1.672a2.836 2.836 0 0 0-2.51.48.087.087 0 0 1-.142-.046.092.092 0 0 1 .027-.082 2.954 2.954 0 0 1 2.671-.516c.808.236 1.595.818 2.33 1.73a.084.084 0 0 1-.013.116.065.065 0 0 1-.03.018z"/>
        <path d="M261.692 200.067a.088.088 0 0 1-.105-.062c0-.02-.468-1.893 1.026-2.46a.084.084 0 0 1 .115.093.085.085 0 0 1-.054.067c-1.353.513-.923 2.24-.923 2.257a.087.087 0 0 1-.059.105z"/>
    </g>
    <path d="m246.324 287.967-.009-.012a.321.321 0 0 1-.056-.094c-.462-1.166-.693-2.539-.63-4.138.255-6.723 1.134-13.396 1.786-20.086.072-.713.138-1.427.202-2.143.461-5.221 1.182-10.488 1.114-15.742-.037-2.866-1.542-7.4-3.454-9.952a7.95 7.95 0 0 0-.68-.807c-1.58-1.627-3.472-3.092-5.098-4.731a621.645 621.645 0 0 0-1.988-1.99.362.362 0 0 1 .462-.557c3.131 2.127 7.045 4.78 9.99 6.322a8.174 8.174 0 0 1 4.352 6.31c.735 6.486 1.012 18.789-3.947 34.198 0 0-2.329 6.175-1.4 13.138a.36.36 0 0 1-.644.284zm60.368-39.462c1.467 8.894 1.886 18.018 2.342 27.061-.673-5.1-1.371-10.208-2.647-15.189-.78-3.046-1.775-6.034-2.5-9.096a53.306 53.306 0 0 1-1.422-13.224c.07-3.909 1.856-7.031 4.154-10.202.873-1.205 1.827-2.355 2.603-3.625.963-1.578 1.487-2.872 2.73-4.317l4.316-5.018.424-.493c-2.967 5.296-6.577 10.459-8.48 16.051-.433 1.27-1.01 2.344-1.56 3.362-1.038 1.925-1.987 3.658-1.66 6.2.146.861.316 1.717.496 2.573.41 1.97.871 3.933 1.204 5.917z" fill="#47478E"/>
    <path d="M249.491 255.985a132.392 132.392 0 0 1-2.077 7.654c.072-.713.138-1.427.202-2.143.461-5.221 1.182-10.488 1.114-15.742-.037-2.866-1.543-7.4-3.454-9.952 1.93.598 4.212 2.437 5.412 4.275.434.662.725 1.325.808 1.93.676 4.696-.935 9.465-2.005 13.978zm55.5-15.968c.146.861.316 1.717.496 2.573l-.41-.858c-.555-1.154-1.12-2.357-1.168-3.641-.025-.378.03-.757.16-1.112.202-.503.607-.89.985-1.278a18.244 18.244 0 0 0 1.597-1.889c-1.043 1.93-1.987 3.663-1.66 6.205z" fill="#3A3A7B"/>
    <path d="M249.126 291.505a9.1 9.1 0 0 1-1.77-1.731l-.022-.029c-.053-.23-.104-.467-.149-.701.661.836 1.314 1.66 1.94 2.46l.001.001zm45.495-80.431c-.462.4-.887.788-1.162 1.324a5.344 5.344 0 0 1-1.098 1.466 1.925 1.925 0 0 1-.787.508c-.427.116-.891-.038-1.25-.296-.878-.631-1.215-1.9-1.955-2.694a.763.763 0 0 1-.163-.231l.195.067c2.715.955 4.33 1.106 6.22-.144zm.418-.056.15-.196a.343.343 0 0 1-.15.196zm15-12.952c-.068.598-.154 1.205-.41 1.748-.705 1.493-2.445 2.11-3.96 2.77a22.05 22.05 0 0 0-4.003 2.243c.2-.185.397-.372.593-.563 1.402-1.364 3.216-2.578 3.828-4.392.849-2.514.782-5.574.929-8.182.183-3.29.248-6.596.107-9.888-.032-.703-.094-1.377-.149-2.014.397-.07.826.1 1.284.62 1.564 1.779 1.65 6.128 1.867 8.376.3 3.088.27 6.2-.086 9.282zm-75.413 27.669-.291-.3c-2.448-2.55-4.846-5.004-7.248-7.602-2.908-3.139-4.8-3.908-5.244-8.646-.302-3.25.176-6.83.648-10.253l1.302 7.985a19.887 19.887 0 0 0 3.373 8.245l7.46 10.571z" fill="#47478E"/>
    <path d="M318.382 173.144c-2.298.871-5.453.958-7.742 1.145-.991.08-1.731.272-2.283.56a3.08 3.08 0 0 1 .116-1.335c.032-.1.07-.196.115-.29.546-1.078 1.81-1.333 2.885-1.605.161-.042.765-.188 1.547-.359 1.962-.426 5.062-.993 5.104-.384.05.748.132 1.5.251 2.235l.007.033z" fill="#DEE6F3"/>
    <path d="M288.337 253.567a1.869 1.869 0 0 0-.614-.122.956.956 0 0 0-.659.301 1.846 1.846 0 0 0-.544 1.725c.151.63.667 1.106 1.307 1.206.627.078 1.292-.317 1.486-.923.1-.375.084-.772-.046-1.138a1.565 1.565 0 0 0-.93-1.049zm.996 6.803a1.906 1.906 0 0 0-.615-.122.956.956 0 0 0-.659.301 1.846 1.846 0 0 0-.545 1.725 1.6 1.6 0 0 0 1.309 1.206c.626.079 1.292-.317 1.485-.923a1.93 1.93 0 0 0-.045-1.138 1.57 1.57 0 0 0-.93-1.049z" fill="#3A3A7B"/>
    <path d="M318.382 173.146c-2.298.871-5.453.958-7.742 1.145-.991.08-1.731.272-2.283.56a3.08 3.08 0 0 1 .116-1.335c2.328.017 7.968.011 9.904-.403l.005.033z" fill="#AEB9D7"/>
    <path d="M282.231 196.332c.19.864-.179 1.71-.827 2.265a2.707 2.707 0 0 1-.313.23c-.973.62-2.345.552-3.368.085a3.863 3.863 0 0 1-1.134-.846c-.516-.554-.85-1.26-.409-1.87a.696.696 0 0 1 .376-.257c.746-.224 1.5.127 2.228.238.487.08.982.086 1.47.02.493-.073.923-.282 1.392-.415.374-.105.503.208.585.55z" fill="#8E554F"/>
    <path d="M281.366 198.478c.011.039.021.08.032.115a2.421 2.421 0 0 1-.313.23c-.973.62-2.344.552-3.368.085a3.858 3.858 0 0 1-1.134-.846 3.064 3.064 0 0 1 1.517-.992c1.446-.425 2.908.204 3.266 1.408z" fill="#F98282"/>
    <path opacity=".4" d="M274.455 196.255a1.896 1.896 0 1 1-3.635 1.077 1.896 1.896 0 0 1 3.635-1.077zm11.577-2.526c.017.142.03.284.038.425a1.897 1.897 0 1 1-.818-3.697c.372 1.06.633 2.157.78 3.272z" fill="#FFAE9B"/>
    <path d="m279.501 190.268.577 1.312a1.76 1.76 0 0 1-.354 1.936l-.478.486.817-.542a1.426 1.426 0 0 0 .364-2.029l-.867-1.195a.034.034 0 0 0-.046-.013c-.016.009-.022.03-.013.045z" fill="#FFAE9B"/>
    <path d="M268.464 190.465a7.513 7.513 0 0 1 2.297-2.468 6.2 6.2 0 0 1 2.403-.956c.329-.055 1.025-.266 1.1.247.068.455-.535.626-.867.71-.55.144-1.118.29-1.661.47a7.984 7.984 0 0 0-3.273 1.997h.001zm14.962-5.988c.066.06.112.137.134.223-.662.13-1.296.24-1.927.507-.437.187-.869.408-1.289.625-.252.13-.72.357-.945 0-.252-.396.297-.647.53-.797a4.72 4.72 0 0 1 2.025-.713c.342-.03 1.139-.15 1.472.155z" fill="#AD695E"/>
    <path opacity=".48" d="M272.402 191.306c.22.744.854 1.21 1.417 1.038a.91.91 0 0 0 .554-.492 1.563 1.563 0 0 0 .135-.788 1.893 1.893 0 0 0-.07-.366 1.617 1.617 0 0 0-.63-.892.407.407 0 0 0-.053-.031.933.933 0 0 0-.622-.138.887.887 0 0 0-.116.026c-.56.166-.835.902-.615 1.643zm8.567-2.858c.221.743.84 1.215 1.384 1.053a.9.9 0 0 0 .577-.59 1.74 1.74 0 0 0 .01-1.046 1.689 1.689 0 0 0-.578-.87l-.013-.01a.895.895 0 0 0-.792-.175c-.548.16-.809.896-.588 1.638z" fill="#fff"/>
    <path d="M281.317 188.346c.19.64.724 1.047 1.19.907a.717.717 0 0 0 .416-.346 1.15 1.15 0 0 0 .051-.18 1.73 1.73 0 0 0-.042-.866 1.69 1.69 0 0 0-.576-.87.72.72 0 0 0-.538-.062c-.466.143-.691.776-.5 1.417h-.001zm-8.471 2.833c.19.64.723 1.046 1.19.908a.705.705 0 0 0 .337-.23 1.555 1.555 0 0 0 .135-.788 1.917 1.917 0 0 0-.07-.367 1.624 1.624 0 0 0-.63-.895.407.407 0 0 0-.053-.031.686.686 0 0 0-.406-.008c-.464.137-.695.771-.503 1.411z" fill="#AD695E"/>
    <path d="M245.556 210.074c1.643.982 3.158 2.12 4.674 3.269a37.876 37.876 0 0 0-7.128-3.143c-1.283-.413-2.603-.766-3.763-1.45-.472-.276-.942-.651-1.06-1.187-.1-.448.072-.908.23-1.338.359-.944.681-1.9.967-2.87 0 .237 0 .443.008.612.07 1.348.427 2.69 1.5 3.584 1.308 1.079 3.12 1.655 4.572 2.523z" fill="#47478E"/>
</svg>
