<svg width="32" height="32" viewBox="0 0 32 32" fill="none" xmlns="http://www.w3.org/2000/svg">
    <circle cx="16" cy="16" r="16" fill="#F15A28"/>
    <path d="m24.635 15.247-5.923-2.15-3.403-1.21-5.923-2.22c-.945-.336-1.512.27-1.323 1.278l2.583 13.781c.063.27.19.471.378.605.19.135.378.27.63.27s.441-.068.63-.202c.19-.135.316-.337.378-.605l.253-.874 1.008-3.16 1.764-5.513c.252-.873.945-1.008 1.512-.336l3.592 4.37.126.202c.126.134.252.269.441.336.19.067.378.067.567.067.19-.067.378-.134.567-.336l2.521-2.353c.756-.74.567-1.613-.378-1.95z" fill="#fff"/>
</svg>
