<svg width="32" height="32" viewBox="0 0 32 32" fill="none" xmlns="http://www.w3.org/2000/svg">
    <path d="M16 32a16 16 0 1 1 0-32v32z" fill="#0A0A0C"/>
    <path d="M16 32a16 16 0 1 0 0-32v32z" fill="#F36B00"/>
    <path d="M17.454 11.2h3.303l1.073 2.593 1.92-2.594h3.453l-4.223 4.942 2.093 4.658h-3.28l-1.11-2.521-1.988 2.52h-3.371l4.125-4.978-1.995-4.62zm-10.523 0H8.83l2.223 4.62L6.767 20.8H4.8l4.125-4.978-1.994-4.622zm3.507 0h1.9l2.224 4.62-4.287 4.979H8.308l4.125-4.979-1.994-4.62zm3.509 0h1.899l2.223 4.62-4.286 4.979h-1.968l4.127-4.979-1.995-4.62z" fill="#fff"/>
</svg>
