<svg width="24" height="24" viewBox="0 0 24 24" fill="none" xmlns="http://www.w3.org/2000/svg">
<path d="M14.5883 2.34084C9.25637 0.912155 3.76952 4.07999 2.34084 9.4119C0.912155 14.7438 4.07999 20.2307 9.4119 21.6594C14.7438 23.088 20.2307 19.9202 21.6594 14.5883C22.1702 12.6818 22.0897 10.7523 21.539 9M13.5532 6.20425C10.356 5.34756 7.0614 7.24968 6.20471 10.4469C5.34802 13.6441 7.25013 16.9387 10.4473 17.7954C13.6446 18.6521 16.9391 16.7499 17.7958 13.5527C17.992 12.8206 18.0469 12.0794 17.9685 11.3671" stroke="#4B5563" stroke-width="1.5" stroke-miterlimit="10" stroke-linecap="round" stroke-linejoin="round"/>
<path d="M12 11.4978L15.4414 8.5952M15.4414 8.5952L18.4837 8.59126L22.4696 5.02349L19.2784 5.01718L19.6358 2L15.8134 5.36557L15.4414 8.5952Z" stroke="#4B5563" stroke-width="1.5" stroke-linecap="round" stroke-linejoin="round"/>
</svg>
