<svg width="22" height="22" viewBox="0 0 22 22" fill="none" xmlns="http://www.w3.org/2000/svg">
<path d="M2.90576 6.81934L10.9999 11.5035L19.0391 6.84681" stroke="#4B5563" stroke-width="1.4" stroke-linecap="round" stroke-linejoin="round"/>
<path d="M10.9999 19.8083V11.4941" stroke="#4B5563" stroke-width="1.4" stroke-linecap="round" stroke-linejoin="round"/>
<path d="M19.8091 8.40551V13.5939C19.8091 13.6397 19.8091 13.6763 19.8 13.7222C19.1583 13.163 18.3333 12.833 17.4166 12.833C16.5549 12.833 15.7574 13.1355 15.1249 13.6397C14.2816 14.3089 13.7499 15.3447 13.7499 16.4997C13.7499 17.1872 13.9424 17.838 14.2816 18.388C14.3641 18.5347 14.4649 18.6722 14.5749 18.8005L12.8975 19.7264C11.8525 20.313 10.1474 20.313 9.10244 19.7264L4.20745 17.013C3.09828 16.3989 2.1908 14.8589 2.1908 13.5939V8.40551C2.1908 7.14051 3.09828 5.60053 4.20745 4.98636L9.10244 2.27301C10.1474 1.68634 11.8525 1.68634 12.8975 2.27301L17.7925 4.98636C18.9016 5.60053 19.8091 7.14051 19.8091 8.40551Z" stroke="#4B5563" stroke-width="1.4" stroke-linecap="round" stroke-linejoin="round"/>
<path d="M21.0833 16.4997C21.0833 17.1872 20.8908 17.838 20.5517 18.388C20.3592 18.718 20.1117 19.0113 19.8275 19.2497C19.1858 19.8272 18.3425 20.1663 17.4167 20.1663C16.0783 20.1663 14.9142 19.4513 14.2817 18.388C13.9425 17.838 13.75 17.1872 13.75 16.4997C13.75 15.3447 14.2817 14.3088 15.125 13.6397C15.7575 13.1355 16.555 12.833 17.4167 12.833C19.4425 12.833 21.0833 14.4738 21.0833 16.4997Z" stroke="#4B5563" stroke-width="1.4" stroke-miterlimit="10" stroke-linecap="round" stroke-linejoin="round"/>
<path d="M15.7321 13.437L19.2676 19.5607" stroke="#4B5563" stroke-width="1.4" stroke-miterlimit="10" stroke-linecap="round" stroke-linejoin="round"/>
</svg>
