<svg width="24" height="24" viewBox="0 0 24 24" fill="none" xmlns="http://www.w3.org/2000/svg">
<path d="M14.75 2.83301V11.9997C14.75 13.008 13.925 13.833 12.9167 13.833H2.83337V7.98467C3.50254 8.78217 4.52923 9.27717 5.6659 9.24967C6.59173 9.23134 7.42588 8.87384 8.04921 8.27801C8.33338 8.03968 8.57173 7.73717 8.75506 7.40717C9.08506 6.848 9.26837 6.18798 9.25004 5.50048C9.22254 4.42798 8.74589 3.48384 8.00339 2.83301H14.75Z" stroke="#4B5563" stroke-width="1.4" stroke-linecap="round" stroke-linejoin="round"/>
<path d="M21.1667 13.833V16.583C21.1667 18.1047 19.9384 19.333 18.4167 19.333H17.5C17.5 18.3247 16.675 17.4997 15.6667 17.4997C14.6584 17.4997 13.8334 18.3247 13.8334 19.333H10.1667C10.1667 18.3247 9.34171 17.4997 8.33337 17.4997C7.32504 17.4997 6.50004 18.3247 6.50004 19.333H5.58337C4.06171 19.333 2.83337 18.1047 2.83337 16.583V13.833H12.9167C13.925 13.833 14.75 13.008 14.75 11.9997V5.58301H16.4367C17.0967 5.58301 17.7017 5.94052 18.0317 6.50885L19.5992 9.24967H18.4167C17.9125 9.24967 17.5 9.66217 17.5 10.1663V12.9163C17.5 13.4205 17.9125 13.833 18.4167 13.833H21.1667Z" stroke="#4B5563" stroke-width="1.4" stroke-linecap="round" stroke-linejoin="round"/>
<path d="M8.33333 21.1667C9.34585 21.1667 10.1667 20.3459 10.1667 19.3333C10.1667 18.3208 9.34585 17.5 8.33333 17.5C7.32081 17.5 6.5 18.3208 6.5 19.3333C6.5 20.3459 7.32081 21.1667 8.33333 21.1667Z" stroke="#4B5563" stroke-width="1.4" stroke-linecap="round" stroke-linejoin="round"/>
<path d="M15.6667 21.1667C16.6792 21.1667 17.5 20.3459 17.5 19.3333C17.5 18.3208 16.6792 17.5 15.6667 17.5C14.6542 17.5 13.8334 18.3208 13.8334 19.3333C13.8334 20.3459 14.6542 21.1667 15.6667 21.1667Z" stroke="#4B5563" stroke-width="1.4" stroke-linecap="round" stroke-linejoin="round"/>
<path d="M21.1667 12V13.8333H18.4167C17.9125 13.8333 17.5 13.4208 17.5 12.9167V10.1667C17.5 9.6625 17.9125 9.25 18.4167 9.25H19.5991L21.1667 12Z" stroke="#4B5563" stroke-width="1.4" stroke-linecap="round" stroke-linejoin="round"/>
<path d="M9.25003 5.50085C9.26837 6.18835 9.08505 6.84836 8.75505 7.40753C8.57172 7.73753 8.33337 8.04004 8.0492 8.27837C7.42587 8.87421 6.59173 9.23171 5.66589 9.25004C4.52923 9.27754 3.50254 8.78253 2.83337 7.98503C2.70504 7.84753 2.59504 7.69171 2.49421 7.53588C2.13671 6.99504 1.93504 6.3534 1.9167 5.6659C1.8892 4.5109 2.40253 3.4567 3.22753 2.7692C3.85086 2.25587 4.63918 1.93504 5.50084 1.91671C6.46334 1.89837 7.34338 2.24671 8.00338 2.83337C8.74588 3.48421 9.22253 4.42835 9.25003 5.50085Z" stroke="#4B5563" stroke-width="1.4" stroke-miterlimit="10" stroke-linecap="round" stroke-linejoin="round"/>
<path d="M4.15332 5.61039L5.07916 6.49036L6.99496 4.63867" stroke="#4B5563" stroke-width="1.4" stroke-linecap="round" stroke-linejoin="round"/>
</svg>
