<svg width="24" height="24" viewBox="0 0 24 24" fill="none" xmlns="http://www.w3.org/2000/svg">
<path d="M9.25004 21.1663H14.75C19.3334 21.1663 21.1667 19.333 21.1667 14.7497V9.24967C21.1667 4.66634 19.3334 2.83301 14.75 2.83301H9.25004C4.66671 2.83301 2.83337 4.66634 2.83337 9.24967V14.7497C2.83337 19.333 4.66671 21.1663 9.25004 21.1663Z" stroke="#4B5563" stroke-width="1.4" stroke-linecap="round" stroke-linejoin="round"/>
<path d="M17.0417 11.9997C17.0417 14.7863 14.7867 17.0413 12 17.0413C9.21337 17.0413 7.51753 14.2363 7.51753 14.2363M7.51753 14.2363H9.79087M7.51753 14.2363V16.7572M6.95837 11.9997C6.95837 9.21301 9.19504 6.95801 12 6.95801C15.3642 6.95801 17.0417 9.76301 17.0417 9.76301M17.0417 9.76301V7.24217M17.0417 9.76301H14.805" stroke="#4B5563" stroke-width="1.4" stroke-linecap="round" stroke-linejoin="round"/>
</svg>
