<svg width="16" height="16" viewBox="0 0 16 16" fill="none" xmlns="http://www.w3.org/2000/svg">
    <path d="M16 8A8 8 0 1 1-.002 7.998 8 8 0 0 1 16 8z" fill="#EE596B"/>
    <path d="M10.56 5.12H5.44a.642.642 0 0 1-.64-.64c0-.352.288-.64.64-.64h5.12c.352 0 .64.288.64.64 0 .352-.288.64-.64.64zm0 2.24H5.44a.642.642 0 0 1-.64-.64c0-.352.288-.64.64-.64h5.12c.352 0 .64.288.64.64 0 .352-.288.64-.64.64z" fill="#fff"/>
    <path d="M9.6 13.12a.636.636 0 0 1-.414-.152l-4.16-3.52A.64.64 0 0 1 5.44 8.32h1.28c.882 0 1.6-.718 1.6-1.6 0-.882-.718-1.6-1.6-1.6h-.96a.64.64 0 0 1 0-1.28h.96A2.883 2.883 0 0 1 9.6 6.72a2.885 2.885 0 0 1-2.45 2.848l2.863 2.423A.64.64 0 0 1 9.6 13.12z" fill="#fff"/>
</svg>
