<svg width="32" height="32" viewBox="0 0 32 32" fill="none" xmlns="http://www.w3.org/2000/svg">
    <path d="M32 16c0 8.835-7.165 16-16 16S0 24.835 0 16 7.165 0 16 0s16 7.165 16 16z" fill="url(#7jscl47y0a)"/>
    <path d="M21.12 10.24H10.88c-.704 0-1.28-.576-1.28-1.28 0-.704.576-1.28 1.28-1.28h10.24c.704 0 1.28.576 1.28 1.28 0 .704-.576 1.28-1.28 1.28zm0 4.48H10.88c-.704 0-1.28-.576-1.28-1.28 0-.704.576-1.28 1.28-1.28h10.24c.704 0 1.28.576 1.28 1.28 0 .704-.576 1.28-1.28 1.28z" fill="#fff"/>
    <path d="M19.2 26.24c-.293 0-.586-.1-.827-.303l-8.32-7.04a1.279 1.279 0 0 1 .827-2.257h2.56c1.764 0 3.2-1.436 3.2-3.2 0-1.764-1.436-3.2-3.2-3.2h-1.92a1.28 1.28 0 0 1 0-2.56h1.92a5.767 5.767 0 0 1 5.76 5.76 5.77 5.77 0 0 1-4.901 5.696l5.728 4.847a1.28 1.28 0 0 1-.828 2.257z" fill="#fff"/>
    <defs>
        <linearGradient id="7jscl47y0a" x1="16" y1="32" x2="16" y2="0" gradientUnits="userSpaceOnUse">
            <stop stop-color="#FF9757"/>
            <stop offset="1" stop-color="#FFB65B"/>
        </linearGradient>
    </defs>
</svg>
