<svg width="20" height="20" viewBox="0 0 20 20" fill="none" xmlns="http://www.w3.org/2000/svg">
    <path d="M12.543 4.167a4.167 4.167 0 0 1 3.292 3.291M12.543.833A7.5 7.5 0 0 1 19.17 7.45m-.834 6.65v2.5a1.666 1.666 0 0 1-1.817 1.667 16.492 16.492 0 0 1-7.191-2.559 16.251 16.251 0 0 1-5-5 16.492 16.492 0 0 1-2.559-7.225 1.667 1.667 0 0 1 1.659-1.816h2.5A1.667 1.667 0 0 1 7.593 3.1c.106.8.302 1.586.584 2.342A1.667 1.667 0 0 1 7.802 7.2L6.743 8.258a13.334 13.334 0 0 0 5 5l1.059-1.058a1.667 1.667 0 0 1 1.758-.375c.756.282 1.542.478 2.342.583a1.667 1.667 0 0 1 1.433 1.692z" stroke="#3C4249" stroke-width="1.2" stroke-linecap="round" stroke-linejoin="round"/>
</svg>
