<svg width="20" height="20" viewBox="0 0 20 20" fill="none" xmlns="http://www.w3.org/2000/svg">
    <path d="M16.085 2H3.947L2.292 5.862c-.51.977-.248 1.927 0 2.207 2.74 2.414 4.495-.21 4.966-1.655 0 1.324.678 2.504 2.207 2.758 2.648.442 3.126-1.655 3.31-2.758 0 1.765 1.471 2.575 2.207 2.758 2.648.442 3.31-1.655 3.31-2.758L16.085 2z" stroke="#3C4249" stroke-width="1.2" stroke-linejoin="round"/>
    <path d="M16.637 9.172v7.212c0 .893-.659 1.616-1.471 1.616h-10.3c-.812 0-1.47-.723-1.47-1.616V9.172" stroke="#3C4249" stroke-width="1.2" stroke-linecap="round" stroke-linejoin="round"/>
    <path d="M7.81 18v-2.759c0-.892.658-1.615 1.47-1.615h1.472c.813 0 1.471.723 1.471 1.615V18" stroke="#3C4249" stroke-width="1.2" stroke-linecap="round" stroke-linejoin="round"/>
</svg>
