<svg width="85" height="24" viewBox="0 0 85 24" fill="none" xmlns="http://www.w3.org/2000/svg">
    <g clip-path="url(#x3aewi2qfa)">
        <path d="M18.246 4.546a.229.229 0 0 0-.207-.193c-.086-.007-1.766-.033-1.766-.033s-1.406-1.365-1.544-1.503c-.14-.14-.41-.097-.516-.066l-.706.219a4.951 4.951 0 0 0-.338-.83c-.5-.955-1.233-1.46-2.119-1.462h-.003c-.061 0-.122.006-.184.011a2.705 2.705 0 0 0-.08-.092c-.385-.413-.88-.614-1.473-.596C8.167.034 7.028.86 6.105 2.327 5.455 3.359 4.96 4.656 4.82 5.66l-2.251.697c-.663.208-.684.229-.77.853C1.733 7.683 0 21.093 0 21.093l14.534 2.514 6.298-1.566s-2.57-17.376-2.586-17.495zm-5.466-1.35-1.128.348c-.009-.579-.077-1.384-.347-2.08.867.164 1.294 1.146 1.475 1.731zm-1.889.584-2.426.751c.234-.898.68-1.792 1.225-2.378.203-.218.488-.46.824-.6.317.66.385 1.595.377 2.227zM9.333.762c.269-.006.495.053.688.18a3.31 3.31 0 0 0-.888.692c-.726.78-1.283 1.989-1.505 3.156l-1.993.617C6.029 3.57 7.568.813 9.333.762z" fill="#95BF47"/>
        <path d="M18.04 4.354c-.086-.007-1.766-.033-1.766-.033s-1.406-1.365-1.545-1.504a.344.344 0 0 0-.195-.09v20.879l6.3-1.565-2.587-17.495a.23.23 0 0 0-.207-.192z" fill="#5E8E3E"/>
        <path d="m11.043 7.592-.732 2.737s-.816-.371-1.783-.31c-1.419.09-1.434.984-1.42 1.209.078 1.224 3.298 1.491 3.479 4.358.142 2.256-1.197 3.799-3.126 3.92-2.315.147-3.59-1.219-3.59-1.219l.491-2.086s1.283.968 2.31.903c.67-.043.91-.588.886-.974-.1-1.597-2.723-1.502-2.888-4.126-.14-2.208 1.31-4.445 4.51-4.647 1.232-.079 1.863.235 1.863.235z" fill="#fff"/>
        <path d="M29.127 13.323c-.724-.393-1.096-.724-1.096-1.18 0-.579.517-.95 1.324-.95.94 0 1.78.392 1.78.392l.661-2.028s-.608-.476-2.4-.476c-2.493 0-4.22 1.428-4.22 3.435 0 1.138.806 2.007 1.882 2.627.87.497 1.18.849 1.18 1.366 0 .538-.434.972-1.241.972-1.203 0-2.338-.62-2.338-.62l-.704 2.027s1.05.704 2.814.704c2.566 0 4.408-1.262 4.408-3.538 0-1.22-.932-2.09-2.05-2.73zM39.35 9.06c-1.263 0-2.256.601-3.021 1.511l-.042-.02 1.097-5.732h-2.856l-2.772 14.587h2.855l.952-4.986c.372-1.883 1.344-3.041 2.255-3.041.641 0 .89.434.89 1.055 0 .393-.041.87-.124 1.262l-1.076 5.71h2.856l1.117-5.896c.124-.621.207-1.366.207-1.862 0-1.615-.85-2.587-2.339-2.587zM48.143 9.06c-3.435 0-5.71 3.105-5.71 6.56 0 2.214 1.365 3.993 3.93 3.993 3.373 0 5.65-3.02 5.65-6.56 0-2.047-1.201-3.992-3.87-3.992zm-1.407 8.36c-.973 0-1.387-.827-1.387-1.862 0-1.634.849-4.303 2.4-4.303 1.015 0 1.345.869 1.345 1.717 0 1.758-.847 4.448-2.358 4.448zM59.316 9.06c-1.927 0-3.021 1.697-3.021 1.697h-.041l.166-1.53h-2.525a61.069 61.069 0 0 1-.579 3.786L51.33 23.462h2.855l.786-4.221h.063s.585.372 1.675.372c3.352 0 5.545-3.435 5.545-6.911 0-1.924-.848-3.641-2.938-3.641zm-2.731 8.401c-.741 0-1.18-.413-1.18-.413l.476-2.67c.331-1.779 1.262-2.959 2.255-2.959.87 0 1.138.807 1.138 1.573 0 1.842-1.096 4.47-2.69 4.47zM66.33 4.964a1.63 1.63 0 0 0-1.634 1.655c0 .848.538 1.428 1.345 1.428h.041c.89 0 1.656-.6 1.676-1.655 0-.828-.558-1.428-1.427-1.428zM62.337 19.406h2.855L67.138 9.29H64.26l-1.924 10.117zM74.4 9.268h-1.986l.103-.476c.166-.973.745-1.842 1.697-1.842.508 0 .91.145.91.145l.559-2.234s-.497-.249-1.552-.249c-1.014 0-2.027.29-2.793.952-.973.828-1.428 2.027-1.656 3.228l-.082.476h-1.325l-.413 2.152h1.324l-1.51 7.987h2.855l1.51-7.987h1.966l.393-2.152zM81.27 9.289s-1.786 4.497-2.587 6.952h-.042c-.054-.79-.703-6.952-.703-6.952h-3l1.718 9.29c.041.206.02.33-.063.476-.331.64-.89 1.262-1.552 1.717-.538.393-1.138.641-1.613.807L74.214 24c.58-.124 1.779-.6 2.793-1.552 1.304-1.22 2.503-3.104 3.745-5.67l3.497-7.49h-2.98z" fill="#000"/>
    </g>
    <defs>
        <clipPath id="x3aewi2qfa">
            <path fill="#fff" d="M0 0h84.59v24H0z"/>
        </clipPath>
    </defs>
</svg>
