<svg width="17" height="16" viewBox="0 0 17 16" fill="none" xmlns="http://www.w3.org/2000/svg">
<path fill-rule="evenodd" clip-rule="evenodd" d="M8.19992 16C6.0782 16 4.04338 15.1571 2.5431 13.6569ZM2.5431 13.6569C1.04281 12.1566 0.199951 10.1217 0.199951 8ZM0.199951 8C0.199951 5.87827 1.04281 3.84344 2.5431 2.34315ZM2.5431 2.34315C4.04339 0.842855 6.07822 0 8.19995 0ZM8.19995 16C10.3217 16 12.3565 15.1571 13.8568 13.6569ZM13.8568 13.6569C15.3571 12.1566 16.1999 10.1217 16.1999 8ZM16.1999 8C16.1999 5.87827 15.3571 3.84344 13.8568 2.34315ZM13.8568 2.34315C12.3565 0.842855 10.3217 0 8.19995 0Z" fill="#012F5A"/>
<path d="M7.18385 4.54296V6.67897H9.11564L9.61589 7.17462V8.83233L9.15026 9.29368H7.18385L5 11.4578V13.6004H7.18385L9.35721 11.447V9.48215L9.76293 9.08054H11.72V6.91832H9.78861L9.52953 6.66201V6.5275L11.5337 4.5418V2.40039H9.38093L7.18385 4.54296Z" fill="#F09D00"/>
</svg>
