<svg width="20" height="20" viewBox="0 0 20 20" fill="none" xmlns="http://www.w3.org/2000/svg">
<path fill-rule="evenodd" clip-rule="evenodd" d="M2.9 17.1C4.8 18.9 7.3 20 10 20C12.7 20 15.2 18.9 17.1 17.1C19 15.2 20 12.7 20 10C20 7.3 18.9 4.8 17.1 2.9C15.2 1.1 12.7 0 10 0C7.3 0 4.8 1.1 2.9 2.9C1.1 4.8 0 7.3 0 10C0 12.7 1.1 15.2 2.9 17.1Z" fill="#012F5A"/>
<path d="M8.7 5.7V8.4H11.1L11.8 9V11L11.2 11.6H8.7L6 14.3V17H8.7L11.4 14.3V11.8L11.9 11.3H14.3V8.6H12L11.7 8.3V8.2L14.2 5.7V3H11.5L8.7 5.7Z" fill="#F09D00"/>
</svg>
