<svg width="14" height="13" viewBox="0 0 14 13" fill="none" xmlns="http://www.w3.org/2000/svg">
<path d="M12.0747 1.92531C11.7815 1.63196 11.4333 1.39925 11.0502 1.24049C10.667 1.08172 10.2563 1 9.84153 1C9.42676 1 9.01606 1.08172 8.63289 1.24049C8.24972 1.39925 7.90158 1.63196 7.60837 1.92531L6.99985 2.53383L6.39132 1.92531C5.79905 1.33304 4.99576 1.00031 4.15816 1.00031C3.32057 1.00031 2.51728 1.33304 1.92501 1.92531C1.33273 2.51758 1 3.32087 1 4.15847C1 4.99607 1.33273 5.79936 1.92501 6.39163L2.53353 7.00015L6.99985 11.4665L11.4662 7.00015L12.0747 6.39163C12.368 6.09842 12.6007 5.75028 12.7595 5.36711C12.9183 4.98394 13 4.57324 13 4.15847C13 3.74371 12.9183 3.33301 12.7595 2.94984C12.6007 2.56666 12.368 2.21853 12.0747 1.92531V1.92531Z" stroke="#4B5563" stroke-width="1.4" stroke-linecap="round" stroke-linejoin="round"/>
</svg>
