<svg width="30" height="30" viewBox="0 0 30 30" fill="none" xmlns="http://www.w3.org/2000/svg">
    <path d="M14.855 19.585a1.707 1.707 0 1 0 0 3.415 1.707 1.707 0 0 0 0-3.415zm0 0V17.61m-3.687-.059a1.707 1.707 0 1 0-2.92 1.769 1.707 1.707 0 0 0 2.92-1.769zm0 0 1.836-1.159m5.541 1.16-1.915-1.16m-1.77-4.976a1.707 1.707 0 1 0 0-3.415 1.707 1.707 0 0 0 0 3.415zm0 0v2.238m3.687-.203a1.707 1.707 0 1 0 2.921-1.768 1.707 1.707 0 0 0-2.92 1.768zm0 0-1.985 1.159m-5.392-1.16 1.915 1.16m3.679 1.05a1.951 1.951 0 1 1-3.902 0 1.951 1.951 0 0 1 3.902 0zm4.127 1.317a1.707 1.707 0 1 0-1.769 2.92 1.707 1.707 0 0 0 1.77-2.92zM8.824 14.024a1.707 1.707 0 1 0 1.769-2.92 1.707 1.707 0 0 0-1.769 2.92z" stroke="#3C4249" stroke-width="1.2" stroke-miterlimit="10"/>
</svg>
