<svg xmlns="http://www.w3.org/2000/svg" width="199" height="33" viewBox="0 0 199 33">
    <g fill="none" fill-rule="evenodd">
        <g fill-rule="nonzero">
            <g>
                <path fill="#281143" d="M72.152 19.397c-.034-.198-.034-.365-.034-.563 0-1.624.53-2.914 1.622-3.843.994-.893 2.286-1.357 3.61-1.357 1.723 0 2.95.629 3.61 1.954l-8.808 3.81zm12.617-2.352c.032-1.822-.762-3.543-2.187-4.702-1.423-1.193-3.245-1.822-5.397-1.822-1.357 0-2.715.298-3.908.927-1.258.663-2.35 1.624-3.113 2.848-.862 1.324-1.291 2.882-1.259 4.472 0 2.45.796 4.404 2.418 5.895 1.557 1.457 3.643 2.284 5.795 2.25 2.584 0 4.803-.992 6.69-2.947l-1.954-2.185c-1.06 1.358-2.682 2.12-4.404 2.088-1.789 0-3.18-.631-4.238-1.89l11.557-4.868v-.066zM65.064 11.55c-.928.63-1.689 1.489-2.219 2.451v-3.212h-3.312V26.65h3.344V19.86c0-1.822.431-3.245 1.26-4.338.828-1.092 2.053-1.622 3.708-1.622h.167v-3.346c-1.06.032-2.088.363-2.95.992l.002.002zm31.692 7.054c-.463-.331-.992-.597-1.522-.828-.465-.2-.961-.398-1.457-.53-.497-.166-1.06-.299-1.69-.464-.53-.131-1.026-.298-1.523-.496-.497-.167-.795-.63-.795-1.16-.033-.53.265-1.06.762-1.291.596-.298 1.259-.431 1.92-.431 1.524 0 2.981.43 4.24 1.292l1.258-2.485c-1.523-1.058-3.345-1.622-5.199-1.622-1.854 0-3.312.431-4.471 1.358-1.126.828-1.755 2.153-1.69 3.543 0 2.088 1.656 3.577 4.935 4.472.067.033.199.065.365.099 2.086.628 3.146 1.358 3.146 2.152 0 .53-.232 1.027-.63 1.325-.53.365-1.158.564-1.787.53-1.723 0-3.511-.696-5.365-2.087l-1.624 2.617c.993.762 2.12 1.358 3.313 1.755 1.159.397 2.384.595 3.608.629 1.723 0 3.114-.464 4.24-1.358 1.093-.893 1.689-2.219 1.655-3.642-.099-1.591-.627-2.683-1.689-3.378zM52.512 16.25c-.694.762-2.052 1.126-4.007 1.126h-4.073V9.032h3.577c1.887 0 3.312.298 4.24.894.893.597 1.357 1.623 1.357 3.046-.034 1.392-.397 2.517-1.094 3.28zm2.485-8.61c-1.457-1.193-3.777-1.822-6.923-1.822h-7.183v20.864h3.543v-6.16h3.708c3.08 0 5.332-.596 6.823-1.755 1.489-1.193 2.253-3.013 2.253-5.562-.034-2.518-.763-4.372-2.22-5.565zM106.162 24c-.628.034-1.258-.199-1.689-.661-.397-.497-.628-1.16-.596-1.822V13.47h4.206v-2.683h-4.206V5.819h-3.344v15.664c0 1.69.496 2.981 1.522 4.008.961.96 2.287 1.49 3.644 1.49 1.424 0 2.716-.53 3.875-1.59l-1.358-2.35c-.63.628-1.325.959-2.054.959zm15.333-1.523c-.861.961-2.086 1.49-3.345 1.457-1.292 0-2.516-.496-3.445-1.425-.993-.959-1.455-2.218-1.455-3.708-.034-1.39.462-2.782 1.423-3.808.861-.96 2.12-1.524 3.445-1.524 1.29-.033 2.516.53 3.377 1.524.927.992 1.358 2.284 1.358 3.808.033 1.358-.463 2.682-1.358 3.676zm1.325-8.941c-1.357-1.987-3.08-2.981-5.167-2.981-2.02-.032-4.006.762-5.431 2.219-1.523 1.489-2.285 3.445-2.285 5.895 0 2.45.762 4.471 2.253 5.994 1.357 1.457 3.279 2.284 5.265 2.252 1.027 0 2.053-.265 2.98-.73.96-.496 1.822-1.19 2.418-2.086v2.616h3.344V10.853h-3.377v2.683z" transform="translate(-437 -776) translate(437 776)"/>
                <path fill="#DF1668" d="M175.674 22.477c-2.02 1.955-5.2 1.955-7.22 0-.96-.992-1.423-2.219-1.423-3.741 0-1.524.464-2.783 1.423-3.743 2.02-1.954 5.2-1.954 7.22 0 .961.992 1.424 2.219 1.424 3.743 0 1.522-.463 2.78-1.424 3.741zm-3.576-11.92c-2.386 0-4.405.793-5.994 2.383-3.18 3.212-3.18 8.412 0 11.624 1.59 1.59 3.576 2.385 5.994 2.385 2.417 0 4.37-.796 5.994-2.385 3.18-3.212 3.18-8.412 0-11.624-1.623-1.591-3.61-2.384-5.994-2.384zm21.757 11.92c-.893.927-2.151 1.424-3.443 1.424-1.292.033-2.484-.497-3.345-1.457-.927-.993-1.358-2.22-1.358-3.708 0-1.49.431-2.783 1.358-3.777.861-.96 2.086-1.523 3.378-1.523 1.324 0 2.55.53 3.444 1.523.96 1.026 1.49 2.418 1.423 3.81 0 1.523-.496 2.781-1.457 3.708zm2.55-9.703c-1.456-1.457-3.41-2.251-5.463-2.22-2.12 0-3.843.993-5.167 3.015V10.82h-3.344V32.48h3.344v-8.18c1.59 1.755 3.378 2.616 5.399 2.616 2.02 0 3.741-.762 5.265-2.286 1.523-1.522 2.252-3.51 2.252-5.994 0-2.483-.795-4.404-2.285-5.861zm-40.468-2.22c-1.093 0-2.185.299-3.112.828-.929.53-1.69 1.326-2.153 2.287v-9.14h-3.345v22.12h3.345v-8.576c0-1.49.43-2.616 1.292-3.345.827-.762 1.92-1.159 3.013-1.159 2.417 0 3.643 1.457 3.643 4.405v8.71h3.345v-9.77c0-2.054-.564-3.676-1.656-4.77-1.093-1.06-2.583-1.59-4.372-1.59zm-12.617 6.062c-1.094-.928-2.684-1.657-4.835-2.187-2.154-.53-3.545-.993-4.206-1.457-.63-.43-.993-1.159-.993-1.92-.035-.761.33-1.49.993-1.888.76-.43 1.622-.662 2.517-.628 1.06 0 2.118.165 3.112.528.927.298 1.788.762 2.517 1.358l1.887-2.648c-.992-.828-2.151-1.457-3.41-1.854-1.292-.432-2.617-.663-3.975-.63-2.053 0-3.807.529-5.199 1.555-1.39 1.028-2.087 2.55-2.087 4.472 0 1.921.63 3.344 1.855 4.305.63.496 1.358.927 2.12 1.193 1.126.397 2.318.76 3.51.992 1.524.365 2.583.796 3.246 1.227.63.43.96 1.124.96 1.887.033.76-.364 1.49-.993 1.92-.663.464-1.557.73-2.716.73-2.252 0-4.438-.929-6.557-2.75l-2.22 2.65c2.518 2.252 5.431 3.377 8.678 3.377 2.251 0 4.04-.562 5.397-1.689 1.326-1.06 2.088-2.715 2.054-4.438-.033-1.82-.595-3.112-1.655-4.106v.001z" transform="translate(-437 -776) translate(437 776)"/>
                <path fill="#B2DEEB" d="M10.488 24.893c.265-.099.53-.232.795-.297.298-.1.596-.232.894-.298.397-.1.762-.234 1.159-.298.53-.1 1.06-.2 1.59-.266-.298.96-.63 1.888-.993 2.815.032.166.032.365.032.53 1.489-.298 2.981-.298 4.47 0 0-.165 0-.365.034-.53-.365-.927-.695-1.888-.993-2.815.53.066 1.06.165 1.588.265.399.067.796.2 1.16.299l.894.298.794.297c1.888.828 3.545 2.054 4.903 3.61 6.788-5.86 7.518-16.094 1.689-22.884-5.83-6.787-16.095-7.517-22.885-1.69-6.787 5.83-7.517 16.096-1.69 22.886.53.595 1.094 1.159 1.69 1.689 1.358-1.524 3.015-2.75 4.869-3.61z" transform="translate(-437 -776) translate(437 776)"/>
                <path fill="#5C5A58" d="M11.58 27.84c.762-.33 1.59-.596 2.417-.761 0-.165 0-.365-.032-.53.365-.927.695-1.888.993-2.815-.53.066-1.06.165-1.589.265-.398.067-.795.198-1.159.299l-.895.298 1.193.264-.928 2.98zm-2.781 1.756c.033-.298.065-.63.065-.927 0-.167.133-.332.298-.332h.331l1.028-3.445c-1.889.83-3.544 2.054-4.902 3.61.762.663 1.59 1.226 2.451 1.723.232-.232.463-.43.729-.63zm13.113-4.703l1.027 3.444h.299c.165 0 .331.132.331.298v.034c0 .297.032.627.066.927.264.232.496.464.729.662.86-.496 1.689-1.093 2.45-1.722-1.325-1.556-3.014-2.781-4.902-3.643zm-1.953-.032l1.16-.265c-.299-.1-.596-.234-.894-.298-.399-.1-.762-.234-1.16-.3-.53-.099-1.06-.198-1.59-.264.299.96.63 1.888.994 2.815-.033.166-.033.365-.033.53.828.165 1.622.397 2.418.762l-.895-2.981v.001z" transform="translate(-437 -776) translate(437 776)"/>
                <path fill="#010101" d="M16.184 28.339h2.285c-.033-.431-.066-.83-.066-1.259-1.49-.299-2.981-.299-4.472 0 0 .43 0 .828-.065 1.259h2.318zm-8.114 1.92c.199.099.397.233.562.299.067-.332.1-.63.133-.994-.264.232-.496.464-.695.694z" transform="translate(-437 -776) translate(437 776)"/>
                <path fill="#010101" d="M11.416 28.339h2.515c.034-.431.068-.828.068-1.259-.828.165-1.624.397-2.418.762l-.166.497h.001zm12.219 1.257c.034.331.066.662.131.994.2-.1.399-.199.564-.298-.199-.266-.43-.496-.695-.696zm-2.616-1.257l-.133-.497c-.762-.331-1.59-.597-2.417-.762 0 .43 0 .828.065 1.259h2.485z" transform="translate(-437 -776) translate(437 776)"/>
                <path fill="#B29975" d="M11.415 28.337l.131-.496.895-2.981-1.16-.264-.793.297L9.46 28.34h1.955v-.002zm9.404-.498l.133.498h1.955l-1.028-3.445c-.264-.098-.53-.23-.794-.296l-1.16.264.894 2.98z" transform="translate(-437 -776) translate(437 776)"/>
                <path fill="#C9B79E" d="M16.184 29H9.527l-.034.034c-.032.627-.131 1.258-.264 1.887 2.186 1.026 4.537 1.556 6.955 1.556V29z" transform="translate(-437 -776) translate(437 776)"/>
                <path fill="#B29975" d="M22.905 29h-6.657v3.445c2.42 0 4.803-.531 6.956-1.557-.132-.628-.233-1.259-.265-1.888-.032.034-.032 0-.032 0h-.002z" transform="translate(-437 -776) translate(437 776)"/>
                <path fill="#967C64" d="M23.635 29.596c-.034-.298-.067-.628-.067-.927 0-.165-.132-.332-.298-.332H9.096c-.165 0-.331.132-.331.298v.034c0 .297-.032.629-.066.927-.033.297-.099.662-.131.992.197.101.396.2.628.3.131-.63.232-1.259.265-1.888v-.034h13.346V29c.032.628.1 1.258.265 1.888.198-.1.43-.199.629-.298 0-.332-.032-.663-.066-.993v-.001z" transform="translate(-437 -776) translate(437 776)"/>
                <path fill="#5C5A58" d="M20.853 26.02c-.066-.067-.1-.132-.132-.198.032.066.066.165.132.198z" transform="translate(-437 -776) translate(437 776)"/>
                <path fill="#B29975" d="M21.218 26.384c-.133-.1-.266-.232-.365-.365.099.133.232.266.365.365z" transform="translate(-437 -776) translate(437 776)"/>
                <path fill="#C8C6C7" d="M27.013 12.64c-.133-.2-.266-.366-.43-.53l-.2-.2c-.033-.031-.066-.065-.098-.065l-.101-.099v1.489l.597 2.651c0 .032 0 .032.034.066l.397.43h.397v-.099c0-1.226-.199-2.417-.564-3.576-.032-.034-.032-.034-.032-.068z" transform="translate(-437 -776) translate(437 776)"/>
                <path fill="#727170" d="M26.813 16.117c0 .065.034.131.034.232v.298c0 .065-.034.131-.034.198l.399-.43-.399-.431c-.032 0 0 .1 0 .133z" transform="translate(-437 -776) translate(437 776)"/>
                <path fill="#010101" d="M26.813 16.613c0-.098.034-.131.034-.23v-.298c0-.067-.034-.133-.034-.199 0-.067 0-.033-.032-.067-.034-.131-.067-.23-.133-.331l-.033-.033c-.033-.033-.033-.067-.066-.067l-.1-.099-.033-.032c-.032-.034-.066-.034-.1-.034h.034c-.033 0-.067-.033-.099-.033-.033 0-.067 0-.1.033h-.033c-.033 0-.065.034-.065.034s-.034 0-.034.032l-.1.1c-.033.033-.033.066-.065.066l-.034.033c-.067.1-.13.198-.13.331v.034c-.036.065-.036.13-.036.198v.067c0 .066-.032.132-.032.23v.034c0 .628.264 1.126.628 1.126.067 0 .1-.034.166-.066 0 0 .034 0 .034-.033.033 0 .065-.032.065-.066l.034-.034.066-.065c.033-.034.033-.067.067-.1.032-.033.032-.033.032-.067 0-.032.033-.065.067-.099 0 0 0-.032.032-.032.034-.067.034-.1.067-.166-.099 0-.067-.066-.067-.165v-.002zm-.595-.363c-.132 0-.265-.199-.265-.431 0-.23.1-.43.265-.43.166 0 .265.2.265.43 0 .234-.133.43-.265.43z" transform="translate(-437 -776) translate(437 776)"/>
                <path fill="#FFF" d="M26.184 16.251c.146 0 .266-.193.266-.43 0-.239-.119-.431-.266-.431-.146 0-.264.192-.264.43s.118.431.264.431z" transform="translate(-437 -776) translate(437 776)"/>
                <path fill="#9C9B9B" d="M25.62 15.886c.034-.131.068-.232.133-.331l.034-.032c.033-.034.033-.068.067-.068l.1-.099.031-.033c.034-.032.068-.032.1-.032h.033c.034 0 .066-.034.1-.034.033 0 .067 0 .099.034h.033c.034 0 .066.033.1.033 0 0 .033 0 .033.032l.1.1c.032.033.032.067.065.067l.034.032c.065.099.099.198.131.331l-.595-2.65-.596 2.65h-.002z" transform="translate(-437 -776) translate(437 776)"/>
                <path fill="#010101" d="M18.502 16.35v-.166c0-.034 0-.1-.033-.131 0-.068-.034-.101-.034-.135-.032-.065-.032-.099-.066-.131-.033-.034-.065-.1-.065-.133-.068-.131-.167-.264-.266-.365-.131-.131-.298-.23-.463-.298-.1-.033-.166-.065-.266-.065-.099-.034-.198-.034-.264-.034-.099 0-.198 0-.265.034l-.265.065c-.099.034-.198.067-.265.133-.1.066-.132.1-.232.165-.1.1-.199.234-.265.365-.033.034-.033.066-.067.1-.032.033-.032.065-.066.099v.033c0 .032-.032.1-.032.1v.032c0 .033 0 .067-.033.1v.199c0 .1 0 .198.033.298.032.099.066.198.066.264.066.166.165.331.298.464.1.1.232.199.365.264.032.034.1.067.131.067.034.033.1.033.1.066h.033c.034 0 .1.034.1.034h.033c.032 0 .066 0 .1.033h.198c.198 0 .397-.033.595-.1.1-.033.199-.066.266-.132.165-.1.298-.266.43-.43.066-.068.1-.167.132-.266.067-.165.1-.365.067-.53v.001zm-1.49-.166c-.332 0-.596-.266-.596-.596 0-.331.264-.597.596-.597.331 0 .595.266.595.597-.032.33-.298.596-.595.596z" transform="translate(-437 -776) translate(437 776)"/>
                <path fill="#FFF" d="M17.012 16.184c.33 0 .595-.267.595-.596 0-.33-.265-.595-.595-.595-.33 0-.596.265-.596.595 0 .329.266.596.596.596z" transform="translate(-437 -776) translate(437 776)"/>
                <path fill="#C8C6C7" d="M15.952 15.29l1.06-3.211v-.764c-.596-.131-1.193-.198-1.822-.198-.199 0-.397 0-.628.033h-.1c-1.06.1-2.087.365-3.081.795-.828.364-1.588.86-2.285 1.456-.198.167-.365.332-.53.497l-.065.067c-.167.166-.298.331-.465.496l-.099.101c-.131.165-.298.364-.463.562 0 .034-.033.034-.033.067-.132.199-.266.364-.397.562-.034.034-.067.1-.1.1-.099.166-.198.33-.265.464h4.77l4.503-1.026z" transform="translate(-437 -776) translate(437 776)"/>
                <path fill="#E9E4E3" d="M19.993 14.926c0-.1.032-.265.032-.365 0-.165.033-.33.033-.497v-.496c0-.332-.033-.663-.033-1.026h-.032c-.067-.034-.232-.1-.365-.199-.034-.034-.066-.034-.1-.067 0 0-.032-.032-.065-.032-.034 0-.034-.034-.067-.034-.231-.1-.431-.232-.662-.298-.563-.198-1.127-.397-1.689-.53v.763l1.027 3.211c.099.1.198.232.264.365.033.066.067.1.067.132.033.067.033.099.066.132.033.034.033.1.033.132 0 .033 0 .1.034.134v.165h1.29c.067-.464.133-.96.199-1.423v-.067h-.032z" transform="translate(-437 -776) translate(437 776)"/>
                <path fill="#F8B232" d="M18.534 20.952l.828-.828c.166-.165.3-.298.43-.463 1.06-1.159 1.855-2.252 2.319-3.643 0-.034.034-.1.034-.132v-.033c0-.068.033-.1.033-.167v-.131c-.133-.597-.331-1.227-.563-1.789l-.1-.099c-.099-.1-.264-.233-.365-.331-.365-.332-.76-.597-1.159-.862.034.332.034.663.034 1.027v.496c0 .167 0 .331-.034.496 0 .101-.032.266-.032.365v.034c-.033.464-.1.96-.198 1.423l-.1.796c-.299 1.258-.96 2.417-1.49 3.61-.133.298-.266.628-.399.96 0 .033-.032.066-.032.099l.43-.43c.1-.166.265-.265.366-.398h-.002z" transform="translate(-437 -776) translate(437 776)"/>
                <path fill="#9C9B9B" d="M15.952 15.255c.066-.065.131-.13.232-.164.066-.066.165-.066.264-.132.1-.033.167-.067.264-.067.101-.034.167-.034.266-.034.1 0 .199 0 .264.034l.266.066c.165.067.331.166.464.297l-1.027-3.211-.993 3.211z" transform="translate(-437 -776) translate(437 776)"/>
                <path fill="#727170" d="M15.588 16.978c-.033-.098-.067-.197-.1-.263-.033-.1-.033-.2-.033-.299v-.198c0-.034 0-.066.033-.1v-.033c0-.032.033-.1.033-.1v-.032c0-.033.034-.067.067-.099.032-.067.032-.1.066-.1.066-.132.165-.265.264-.364l-4.404 1.093 4.404 1.06c-.165-.234-.264-.398-.33-.563v-.002z" transform="translate(-437 -776) translate(437 776)"/>
                <path fill="#E9E4E3" d="M25.556 16.117v-.066c0-.066.032-.1.032-.198v-.034l.597-2.65v-1.522c-.43-.365-.96-.596-1.524-.63-.662.034-1.29.332-1.754.795-.497.53-.927 1.127-1.227 1.756-.032.032-.032.066-.065.1.099.098.198.164.265.263.23.199.43.397.628.63l.266.265.298.298c.132.131.265.264.398.43l.165.166c.131.166.298.331.43.496l.066.067h1.358v-.033c.034 0 .034-.066.067-.132v-.001z" transform="translate(-437 -776) translate(437 776)"/>
                <path fill="#5C5A58" d="M5.95 18.038c.066-.264.165-.463.265-.661l.1-.167.265-.496.099-.199c.033-.033.033-.067.066-.099.099-.166.2-.331.265-.464.034-.034.066-.1.066-.1.133-.198.233-.397.398-.563 0-.032.033-.032.033-.066.131-.198.265-.365.43-.563l.1-.1c.13-.164.297-.33.464-.496l.099-.099c.165-.165.365-.331.53-.496.728-2.485 3.013-4.206 5.597-4.24 1.06 0 2.118.298 3.013.895.927.562 1.69 1.39 2.186 2.384v.034c0 .032.033.065.033.099.43.232.828.53 1.16.861.099.098.263.23.364.33l.098.1c0-.033.034-.066.034-.1.365-2.35 1.39-4.04 2.616-4.04.927 0 1.722.961 2.252 2.418v.032l.43.497c0 .033 0 .067.033.067l-.032-.066c-1.558-4.636-5.895-7.75-10.797-7.75-6.193-.066-11.292 5.033-11.292 11.327 0 1.191.198 2.384.562 3.543l.266-.993c.099-.331.198-.597.297-.829z" transform="translate(-437 -776) translate(437 776)"/>
                <path fill="#FFF" d="M27.178 16.382l-.397.431c-.034.066-.034.1-.067.165 0 0 0 .034-.032.034-.034.032-.034.099-.067.099s-.033.032-.033.066c0 .033-.033.067-.067.067l-.099.1-.032.031c-.034.034-.067.034-.067.067 0 .032-.032 0-.032.032-.067.034-.101.068-.167.068-.365 0-.627-.497-.627-1.127h-1.326c.264.265.463.563.728.86l.663.829.032.033c.232.264.431.53.63.794.033.034.033.068.067.1.23.265.429.597.627.861.365-1.126.564-2.318.597-3.51h-.33z" transform="translate(-437 -776) translate(437 776)"/>
                <path fill="#010101" d="M14.495 11.117h.1c.198 0 .43-.034.628-.034.596 0 1.227.067 1.822.199v-.034c.596.133 1.16.3 1.69.532.23.097.462.198.66.297 0 0 .034.032.068.032.032 0 .032 0 .065.034.034.034.066.034.1.066.131.1.298.166.365.198h.032c0-.032-.032-.065-.032-.099v-.032c-.53-.927-1.292-1.69-2.187-2.253-.894-.563-1.953-.861-3.013-.861-2.584.034-4.869 1.756-5.597 4.24.696-.596 1.457-1.093 2.286-1.457.927-.465 1.953-.73 3.013-.828zm8.445.828c.463-.497 1.092-.763 1.755-.795.563.034 1.093.232 1.523.628.067.035.067.1.1.1.032.034.066.067.1.067l.198.198v-.032c-.496-1.49-1.325-2.418-2.252-2.418-1.227 0-2.253 1.69-2.617 4.04.298-.695.695-1.29 1.193-1.788z" transform="translate(-437 -776) translate(437 776)"/>
                <path fill="#FFF" d="M12.143 26.847c.1.035.199.1.298.1 1.193.431 2.483.663 3.743.63 1.457 0 2.88-.298 4.238-.795l.198-.099c.1-.067.234-.1.332-.133.1-.033.198-.099.266-.132h-.1c-.398.065-.795.065-1.192 0-2.35-.332-2.849-1.457-2.783-2.617-.165-.099-.33-.198-.496-.33-1.06-.795-2.02-1.69-2.88-2.716 1.06.762 2.25 1.391 3.477 1.887.065.034.1.034.131.066.1-.331.232-.628.298-.927 0-.034.034-.066.034-.1.099-.33.232-.628.397-.96.53-1.193 1.159-2.35 1.49-3.61l.132-.695h-1.192c0 .199-.033.397-.099.597-.034.098-.066.165-.131.263-.101.166-.266.3-.432.432-.066.066-.165.1-.265.131-.198.068-.397.101-.595.101h-.199c-.033 0-.067 0-.1-.033h-.033c-.033 0-.099-.034-.099-.034h-.034c-.033-.032-.099-.032-.099-.066l-.131-.065c-.133-.068-.266-.167-.365-.266l-4.372-1.06H6.745c-.033.034-.033.067-.066.1-.034.065-.1.13-.1.198l-.265.496-.1.167c-.065.232-.198.43-.264.629v.033c-.099.233-.198.497-.265.761-.1.331-.199.663-.265.994.762 2.285 2.186 4.272 4.14 5.664.066.033.1.098.166.098.33.232.662.43.992.63.464.297.96.496 1.425.662v-.001z" transform="translate(-437 -776) translate(437 776)"/>
                <path fill="#A32553" d="M20.025 23.337c-.034.132-.034.232-.034.365 0 .199 0 .397.034.596.033.131.066.264.1.365.065.165.098.33.164.463.067.13.133.297.234.43.032.032.065.1.097.1.034 0 .068.099.1.164.067.068.1.133.133.199.099.133.232.266.365.365v.034h.065c.53-.068 1.026-.2 1.524-.399.265-.1.497-.199.76-.298.1-.033.134-.066.234-.1 2.615-1.257 4.768-3.509 4.768-3.509-3.245 1.656-6.424 1.557-8.544 1.225z" transform="translate(-437 -776) translate(437 776)"/>
                <path fill="#DF1668" d="M26.285 18.966c-.2-.265-.431-.53-.63-.795l-.033-.032-.663-.828c-.232-.266-.464-.564-.728-.861l-.066-.068c-.133-.164-.298-.33-.464-.496l-.165-.165c-.133-.133-.266-.266-.399-.43l-.298-.298-.264-.266-.629-.628c-.067-.1-.199-.166-.266-.265.234.595.43 1.19.564 1.82.033.166.065.298.1.464.263 2.12-.398 3.511-1.49 5.365-.067.132-.166.264-.266.397-.233.365-.398.762-.496 1.16-.034.099-.067.265-.1.364 2.119.33 5.332.431 8.61-1.192 0 0-.63-.96-1.622-2.253-.233-.264-.431-.595-.63-.861 0-.1-.033-.132-.067-.132h.002z" transform="translate(-437 -776) translate(437 776)"/>
                <path fill="#010101" d="M21.218 26.384c-.132-.1-.266-.232-.365-.365-.066-.066-.1-.131-.132-.199-.033-.065-.1-.099-.1-.165 0-.065-.066-.099-.066-.099-.1-.131-.165-.264-.232-.43-.066-.165-.132-.298-.165-.463-.034-.101-.066-.234-.1-.365-.033-.199-.033-.397-.033-.596 0-.1.033-.233.033-.365 0-.131.034-.232.1-.365.099-.429.264-.827.496-1.157.1-.133.166-.266.234-.399 1.092-1.854 1.753-3.212 1.489-5.365-.034-.131-.068-.298-.1-.463-.033.1-.033.199-.067.265v.033c0 .066-.032.1-.032.132-.464 1.39-1.258 2.484-2.318 3.643-.132.165-.298.298-.43.465-.266.297-.53.562-.829.827l-.365.365-.43.43c-.132.297-.23.597-.298.926-.066-.032-.1-.032-.131-.065-1.227-.464-2.386-1.094-3.48-1.888.83 1.026 1.79 1.953 2.883 2.715.166.132.33.233.496.332-.1 1.159.43 2.285 2.782 2.616.397.1.795.1 1.16 0 0 .034 0 .034 0 0z" transform="translate(-437 -776) translate(437 776)"/>
            </g>
        </g>
    </g>
</svg>
