<svg width="40" height="40" xmlns="http://www.w3.org/2000/svg">
    <g fill="none" fill-rule="evenodd">
        <path d="M0 39.999V0h39.999v39.999z"/>
        <path d="M17.406 3.319c-.794 0-1.474.561-1.627 1.341l-.554 2.846a13.155 13.155 0 0 0-3.723 2.139l-2.73-.94a1.66 1.66 0 0 0-1.976.742l-2.505 4.336a1.663 1.663 0 0 0 .347 2.084l2.187 1.902a13.204 13.204 0 0 0-.188 2.143c0 .655.062 1.357.188 2.145l-2.187 1.902a1.663 1.663 0 0 0-.347 2.084l2.505 4.336a1.659 1.659 0 0 0 1.977.74l2.729-.94c1.1.902 2.351 1.624 3.723 2.142 0 0 .08.868.493 2.527.411 1.66 1.73 1.66 1.73 1.66h.713l2.79-9.256a3.317 3.317 0 0 1 3.177-2.363h12.069l.019-.035-3.218-2.8c.128-.782.188-1.482.188-2.142 0-.66-.06-1.363-.188-2.146l2.187-1.902a1.663 1.663 0 0 0 .347-2.084l-2.505-4.336a1.659 1.659 0 0 0-1.977-.74l-2.729.94a13.193 13.193 0 0 0-3.723-2.142l-.554-2.842a1.655 1.655 0 0 0-1.627-1.341h-5.01zm2.506 11.615a4.978 4.978 0 1 1 0 9.955 4.978 4.978 0 0 1 0-9.955zm3.892 13.274-2.233 8.296h1.747l.427-1.659h2.269l.431 1.66h1.763l-2.246-8.297h-2.158zm6.063 0v8.296h1.66v-3.318h.83a2.49 2.49 0 0 0 0-4.978h-2.49zm6.637 0v8.296h1.66v-8.296h-1.66zm-4.977 1.66h.83a.83.83 0 0 1 0 1.659h-.83v-1.66zm-6.65.586.71 2.732h-1.414l.703-2.732z" fill="#0065FF" fill-rule="nonzero"/>
    </g>
</svg>
