<svg width="180" height="56" viewBox="0 0 180 56" fill="none" xmlns="http://www.w3.org/2000/svg">
    <path fill-rule="evenodd" clip-rule="evenodd" d="M103.482 42.536c-6.507 4.806-15.942 7.37-24.064 7.37-11.389 0-21.64-4.22-29.398-11.237-.609-.553-.063-1.305.668-.875 8.371 4.879 18.721 7.814 29.413 7.814 7.21 0 15.143-1.494 22.436-4.596 1.102-.468 2.023.722.945 1.524z" fill="#F90"/>
    <path fill-rule="evenodd" clip-rule="evenodd" d="M106.189 39.435c-.83-1.065-5.5-.503-7.596-.255-.64.08-.737-.477-.162-.878 3.721-2.623 9.824-1.865 10.536-.987.713.884-.185 7.013-3.681 9.94-.536.448-1.048.21-.809-.387.785-1.963 2.545-6.363 1.711-7.433" fill="#F90"/>
    <path fill-rule="evenodd" clip-rule="evenodd" d="M98.74 19.787v-2.55a.63.63 0 0 1 .642-.645h11.394c.366 0 .658.264.658.646v2.182c-.005.366-.312.845-.858 1.602l-5.904 8.444c2.194-.053 4.51.274 6.499 1.398.448.253.571.625.605.99v2.72c0 .372-.41.807-.839.582-3.506-1.84-8.161-2.041-12.037.02-.395.215-.81-.215-.81-.587v-2.583c0-.415.005-1.123.42-1.753l6.84-9.826h-5.953c-.365 0-.658-.26-.658-.64zM57.176 35.694H53.71a.655.655 0 0 1-.62-.591V17.28c0-.357.298-.64.669-.64h3.232a.653.653 0 0 1 .628.596v2.33h.064c.843-2.252 2.428-3.302 4.564-3.302 2.17 0 3.525 1.05 4.5 3.302.838-2.252 2.744-3.302 4.787-3.302 1.453 0 3.042.601 4.013 1.95 1.096 1.498.872 3.676.872 5.586l-.004 11.248a.654.654 0 0 1-.668.645h-3.462a.659.659 0 0 1-.623-.645v-9.446c0-.752.068-2.627-.098-3.34-.259-1.197-1.033-1.534-2.038-1.534-.838 0-1.716.561-2.072 1.46-.356.899-.322 2.404-.322 3.414v9.446a.654.654 0 0 1-.667.645h-3.462a.654.654 0 0 1-.624-.645l-.005-9.446c0-1.987.327-4.913-2.136-4.913-2.49 0-2.392 2.852-2.392 4.913v9.446a.655.655 0 0 1-.669.645zm64.066-19.429c5.143 0 7.927 4.425 7.927 10.051 0 5.436-3.075 9.749-7.927 9.749-5.05 0-7.8-4.425-7.8-9.94 0-5.547 2.783-9.86 7.8-9.86zm.03 3.639c-2.554 0-2.716 3.487-2.716 5.66 0 2.179-.033 6.828 2.686 6.828 2.686 0 2.813-3.75 2.813-6.037 0-1.504-.063-3.301-.517-4.727-.39-1.241-1.165-1.724-2.266-1.724zm14.567 15.79h-3.451a.66.66 0 0 1-.625-.645l-.005-17.827a.656.656 0 0 1 .668-.58h3.213c.302.014.552.219.619.498v2.725h.063c.971-2.437 2.331-3.6 4.725-3.6 1.555 0 3.071.56 4.047 2.099.906 1.428.906 3.826.906 5.55v11.218c-.039.313-.327.562-.668.562h-3.476c-.316-.023-.58-.258-.614-.56V25.45c0-1.948.224-4.8-2.17-4.8-.843 0-1.619.565-2.003 1.425-.488 1.09-.552 2.174-.552 3.375v9.598a.667.667 0 0 1-.677.646v-.002zM89.656 27.18c0 1.353.034 2.482-.648 3.683-.551.976-1.429 1.577-2.398 1.577-1.332 0-2.112-1.016-2.112-2.516 0-2.96 2.648-3.497 5.158-3.497v.753zm3.496 8.464a.724.724 0 0 1-.82.082c-1.15-.957-1.36-1.401-1.988-2.314-1.901 1.944-3.252 2.525-5.714 2.525-2.92 0-5.188-1.803-5.188-5.412 0-2.817 1.522-4.737 3.696-5.675 1.882-.83 4.51-.977 6.518-1.206v-.449c0-.826.064-1.802-.424-2.516-.419-.64-1.228-.904-1.945-.904-1.322 0-2.496.68-2.784 2.086-.059.313-.288.62-.605.635l-3.359-.361c-.282-.064-.6-.293-.516-.728.77-4.083 4.456-5.314 7.751-5.314 1.687 0 3.89.45 5.222 1.73 1.687 1.577 1.526 3.681 1.526 5.972v5.412c0 1.626.672 2.34 1.306 3.218.22.313.268.689-.014.923-.707.591-1.965 1.69-2.658 2.305l-.004-.009zm-48.938-8.464c0 1.353.034 2.482-.649 3.683-.55.976-1.423 1.577-2.399 1.577-1.33 0-2.106-1.016-2.106-2.516 0-2.96 2.648-3.497 5.154-3.497v.753zm3.496 8.464a.724.724 0 0 1-.82.082c-1.15-.957-1.355-1.401-1.989-2.314-1.901 1.944-3.247 2.525-5.713 2.525-2.916 0-5.188-1.802-5.188-5.41 0-2.819 1.526-4.738 3.695-5.676 1.882-.83 4.51-.977 6.52-1.206v-.45c0-.825.062-1.801-.42-2.515-.425-.64-1.234-.904-1.946-.904-1.32 0-2.501.68-2.789 2.086-.058.313-.287.62-.6.635l-3.363-.361c-.282-.064-.595-.293-.517-.728.776-4.084 4.457-5.315 7.752-5.315 1.687 0 3.89.45 5.222 1.73 1.686 1.577 1.525 3.681 1.525 5.972v5.412c0 1.626.673 2.34 1.307 3.218.224.313.273.689-.01.923-.707.591-1.965 1.69-2.657 2.305l-.01-.009" fill="#000"/>
</svg>
