<svg xmlns="http://www.w3.org/2000/svg" width="199" height="40" viewBox="0 0 199 40">
    <defs>
        <linearGradient id="bj36a8z82a" x1="50.001%" x2="50.001%" y1="79.107%" y2="66.449%">
            <stop offset="0%" stop-color="#04B6F0"/>
            <stop offset="100%" stop-color="#3ECAF0"/>
        </linearGradient>
    </defs>
    <g fill="none" fill-rule="evenodd">
        <g fill="url(#bj36a8z82a)" fill-rule="nonzero" transform="translate(-437 -596)">
            <g>
                <path d="M19.715 20.386c0 3.004-.883 5.535-2.656 7.583-1.85 2.146-4.253 3.223-7.197 3.223-2.95 0-5.345-1.08-7.197-3.223C.89 25.919 0 23.389 0 20.386c0-3.014.889-5.544 2.665-7.586 1.87-2.127 4.274-3.189 7.197-3.189 2.944 0 5.348 1.064 7.197 3.189 1.773 2.042 2.656 4.572 2.656 7.586zm-5.859 0c0-1.36-.32-2.51-.964-3.437-.723-1.056-1.731-1.581-3.029-1.581-1.297 0-2.305.522-3.028 1.58-.652.93-.973 2.077-.973 3.437 0 1.352.324 2.518.973 3.473.723 1.055 1.731 1.58 3.028 1.58 1.298 0 2.306-.525 3.029-1.58.64-.958.964-2.12.964-3.472zm27.045 0c0 2.806-.798 5.26-2.404 7.355-1.717 2.296-3.932 3.45-6.622 3.45-1.902 0-3.512-.56-4.831-1.666 0 .254.03.872.086 1.857.056.99.084 1.8.084 2.436 0 3.523-1.037 5.282-3.113 5.282-.847 0-1.54-.307-2.095-.908-.547-.609-.82-1.338-.82-2.203V13.076c0-.838.282-1.56.84-2.169.561-.603 1.256-.906 2.084-.906 1.248 0 2.158.63 2.732 1.884 1.226-1.516 2.902-2.277 5.027-2.277 2.699 0 4.906 1.133 6.631 3.409 1.597 2.108 2.401 4.562 2.401 7.369zm-5.859 0c0-1.36-.33-2.51-.973-3.437-.723-1.056-1.731-1.581-3.028-1.581s-2.306.522-3.028 1.58c-.644.93-.965 2.077-.965 3.437 0 1.352.32 2.518.965 3.473.722 1.055 1.73 1.58 3.028 1.58 1.297 0 2.305-.525 3.028-1.58.644-.958.973-2.12.973-3.472zm27.18-.64c0 .99-.23 1.672-.695 2.057-.462.374-1.183.566-2.157.566H48.793c0 1.134.525 2.004 1.576 2.613.85.474 1.885.717 3.113.717.952 0 2.095-.32 3.433-.951 1.34-.638 2.2-.95 2.57-.95.681 0 1.257.25 1.732.761.469.503.708 1.113.708 1.813 0 1.624-1.2 2.884-3.595 3.791-1.829.68-3.686 1.029-5.586 1.029-3.057 0-5.521-1.029-7.409-3.077-1.887-2.046-2.83-4.62-2.83-7.732 0-2.963.98-5.493 2.943-7.606 1.955-2.11 4.387-3.169 7.289-3.169 2.698 0 4.953 1 6.763 2.999 1.813 2 2.723 4.38 2.723 7.14zm-5.859-1.488c-.028-.907-.44-1.728-1.242-2.475-.798-.744-1.648-1.111-2.544-1.111-.926 0-1.788.367-2.587 1.113-.8.745-1.2 1.566-1.2 2.473h7.573zm25.545 9.432c0 .866-.273 1.593-.82 2.206-.554.603-1.246.907-2.095.907-2.047 0-3.07-1.645-3.07-4.927 0-.63.042-1.624.126-2.993.09-1.36.134-2.36.134-2.991 0-3.48-1.115-5.226-3.337-5.226-2.22 0-3.33 1.742-3.33 5.226 0 .63.035 1.63.1 2.991.069 1.37.105 2.36.105 2.993 0 3.282-1.008 4.927-3.028 4.927-.848 0-1.54-.307-2.087-.907-.555-.61-.829-1.34-.829-2.206V13.07c0-.859.274-1.588.829-2.176.546-.595 1.246-.893 2.095-.893 1.402 0 2.375.63 2.922 1.884.947-1.516 2.622-2.277 5.018-2.277 2.221 0 3.989.596 5.286 1.78 1.324 1.268 1.981 3.015 1.981 5.23V27.69zm18.384-.628c0 1.338-.86 2.401-2.584 3.183-1.366.63-2.85.952-4.352.95-2.95 0-5.348-1.08-7.198-3.225-1.773-2.046-2.665-4.58-2.665-7.583 0-3.012.904-5.556 2.72-7.64 1.815-2.09 4.19-3.13 7.143-3.13 1.705 0 3.17.255 4.39.76 1.7.68 2.548 1.744 2.548 3.188 0 .73-.222 1.373-.67 1.934-.45.553-1.025.838-1.725.838-.478 0-1.165-.164-2.062-.48-.896-.329-1.61-.484-2.136-.484-1.395 0-2.481.504-3.259 1.507-.72.907-1.084 2.07-1.084 3.51 0 1.352.32 2.502.976 3.43.718 1.084 1.738 1.624 3.032 1.624.578 0 1.36-.17 2.362-.519 1.003-.338 1.726-.515 2.173-.515.653 0 1.213.282 1.69.838.465.55.702 1.153.702 1.814h-.001zm21.3.628c0 .866-.274 1.593-.82 2.206-.552.603-1.252.907-2.104.907-1.276 0-2.186-.631-2.733-1.888-1.225 1.517-2.901 2.277-5.027 2.277-2.716 0-4.945-1.157-6.673-3.451-1.57-2.099-2.362-4.55-2.362-7.355 0-2.807.792-5.26 2.362-7.363 1.754-2.277 3.975-3.409 6.673-3.409 2.124 0 3.8.76 5.027 2.276.547-1.256 1.457-1.884 2.733-1.884.828 0 1.524.304 2.084.907.56.61.84 1.325.84 2.163V27.69zm-5.86-7.304c0-1.36-.32-2.51-.967-3.437-.75-1.056-1.76-1.581-3.028-1.581-1.298 0-2.306.522-3.029 1.58-.649.93-.971 2.077-.971 3.437 0 1.352.31 2.518.935 3.473.743 1.055 1.767 1.58 3.065 1.58 1.295 0 2.305-.525 3.028-1.58.648-.958.969-2.12.969-3.472h-.002zm20.81-7.707c0 1.269-.61 2.14-1.828 2.614-1.128.383-2.25.772-3.373 1.175-1.228.708-1.837 2.028-1.837 3.942v7.277c0 .867-.281 1.593-.824 2.206-.555.603-1.256.907-2.105.907-.854 0-1.554-.307-2.102-.907-.553-.61-.827-1.34-.827-2.206V13.07c0-.859.274-1.588.82-2.176.555-.595 1.254-.893 2.104-.893 1.402 0 2.375.63 2.922 1.884 1.254-1.516 2.6-2.277 4.052-2.277.825 0 1.533.305 2.122.907.582.613.876 1.334.876 2.164zm15.286.27c0 1.319-.511 2.147-1.525 2.505-.499.177-1.544.267-3.134.267v11.972c0 .866-.282 1.593-.825 2.206-.554.602-1.255.905-2.105.905-.825 0-1.528-.305-2.09-.907-.56-.608-.84-1.338-.84-2.205V15.72c-1.203 0-2.08-.157-2.633-.46-.756-.426-1.13-1.2-1.13-2.31 0-1.112.384-1.871 1.164-2.275.525-.299 1.396-.454 2.6-.454v-2.54c0-2.982.975-4.47 2.93-4.47 1.947 0 2.929 1.49 2.929 4.47v2.54c1.59 0 2.635.092 3.134.268 1.014.355 1.525 1.179 1.525 2.46zM198.9 9.352c-.017-1.82-3.34-2.646-11.946-2.646-20.19 0-25.315-.874-30.795-6.706 2.306 3.501 3.57 10.073 24.909 9.746 22.266-.346 8.683 5.806 4.73 12.757 7.129-6.433 13.08-10.675 13.102-13.127v-.024zm-28.375 18.676c0 1.69-1.377 3.085-3.049 3.085-1.69 0-3.053-1.383-3.053-3.085 0-1.694 1.377-3.089 3.053-3.089h.003c1.683.003 3.046 1.385 3.046 3.09zm13.905 0c0 1.69-1.378 3.085-3.048 3.085-1.689 0-3.055-1.383-3.055-3.085 0-1.694 1.377-3.089 3.052-3.089h.003c1.684.003 3.048 1.385 3.048 3.09z" transform="translate(437 596)"/>
            </g>
        </g>
    </g>
</svg>
