<svg width="180" height="56" viewBox="0 0 180 56" fill="none" xmlns="http://www.w3.org/2000/svg">
<path fill-rule="evenodd" clip-rule="evenodd" d="M88.9639 38.2198C82.2236 43.167 72.4524 45.806 64.0406 45.806C52.2446 45.806 41.6262 41.4625 33.5924 34.2385C32.9614 33.6698 33.5265 32.8954 34.284 33.3381C42.9541 38.3606 53.6735 41.382 64.7471 41.382C72.2151 41.382 80.4309 39.8438 87.9849 36.6509C89.1256 36.1688 90.08 37.3946 88.9639 38.2198Z" fill="#FF9900"/>
<path fill-rule="evenodd" clip-rule="evenodd" d="M91.7671 35.0277C90.9076 33.9313 86.0708 34.5097 83.8993 34.7652C83.2375 34.8465 83.1365 34.2734 83.7323 33.8613C87.5858 31.161 93.9069 31.9407 94.6442 32.8454C95.3824 33.7554 94.4526 40.0642 90.832 43.0768C90.2766 43.5388 89.7467 43.2929 89.9937 42.6795C90.8065 40.6583 92.63 36.1284 91.7662 35.0277" fill="#FF9900"/>
<path fill-rule="evenodd" clip-rule="evenodd" d="M84.0515 14.801V12.176C84.0515 11.7796 84.3538 11.5127 84.7176 11.5127H96.518C96.8968 11.5127 97.1999 11.784 97.1999 12.1769V14.4239C97.1947 14.8001 96.8765 15.2936 96.3106 16.0732L90.196 24.7655C92.4685 24.7104 94.8668 25.0472 96.9275 26.204C97.3915 26.4647 97.5181 26.8471 97.5532 27.2242V30.0242C97.5532 30.4066 97.1288 30.8537 96.685 30.6227C93.0538 28.7275 88.2319 28.521 84.2176 30.6429C83.809 30.8642 83.3792 30.4215 83.3792 30.0391V27.38C83.3792 26.953 83.3845 26.2241 83.8134 25.5749L90.8982 15.4599H84.7326C84.3547 15.4599 84.0506 15.193 84.0506 14.801H84.0515ZM41.005 31.1757H37.4142C37.0706 31.1512 36.7982 30.894 36.7727 30.5676V12.2215C36.7727 11.854 37.0803 11.5635 37.4643 11.5635H40.8125C41.1605 11.5784 41.4382 11.8444 41.4628 12.176V14.5744H41.5287C42.4022 12.2565 44.0438 11.1759 46.2557 11.1759C48.5028 11.1759 49.9062 12.2565 50.9159 14.5744C51.7842 12.2565 53.7588 11.1759 55.8741 11.1759C57.3794 11.1759 59.0254 11.7945 60.0307 13.1822C61.1661 14.7257 60.9341 16.9675 60.9341 18.9336L60.9297 30.5125C60.9297 30.88 60.6222 31.1757 60.2381 31.1757H56.6527C56.2941 31.1512 56.0068 30.8642 56.0068 30.5125V20.7886C56.0068 20.0142 56.0771 18.084 55.9057 17.3499C55.6377 16.1179 54.8353 15.7714 53.7948 15.7714C52.9266 15.7714 52.0179 16.3489 51.6488 17.2746C51.2798 18.1995 51.3158 19.7482 51.3158 20.7886V30.5125C51.3158 30.88 51.0082 31.1757 50.6242 31.1757H47.0387C46.6758 31.1512 46.3928 30.8642 46.3928 30.5125L46.3875 20.7886C46.3875 18.7429 46.7259 15.7311 44.1756 15.7311C41.5955 15.7311 41.6975 18.6667 41.6975 20.7886V30.5125C41.6975 30.88 41.389 31.1757 41.005 31.1757V31.1757ZM107.359 11.1759C112.686 11.1759 115.569 15.7311 115.569 21.5227C115.569 27.1184 112.384 31.5581 107.359 31.5581C102.128 31.5581 99.28 27.0029 99.28 21.3267C99.28 15.6156 102.162 11.1767 107.359 11.1767V11.1759ZM107.389 14.9217C104.744 14.9217 104.577 18.511 104.577 20.7492C104.577 22.991 104.542 27.7772 107.359 27.7772C110.141 27.7772 110.273 23.9159 110.273 21.563C110.273 20.0142 110.207 18.1645 109.737 16.6962C109.333 15.4187 108.53 14.9217 107.389 14.9217V14.9217ZM122.477 31.1757H118.902C118.544 31.1512 118.256 30.8642 118.256 30.5125L118.25 12.1611C118.281 11.8242 118.579 11.5635 118.942 11.5635H122.27C122.583 11.5784 122.841 11.7892 122.912 12.0762V14.8815H122.977C123.982 12.3729 125.391 11.175 127.87 11.175C129.48 11.175 131.051 11.7525 132.061 13.3362C133 14.8062 133 17.2755 133 19.05V30.5982C132.96 30.9202 132.662 31.1766 132.308 31.1766H128.708C128.38 31.1521 128.107 30.9106 128.072 30.5991V20.632C128.072 18.6265 128.304 15.69 125.825 15.69C124.951 15.69 124.148 16.2727 123.75 17.1582C123.245 18.2791 123.179 19.3956 123.179 20.632V30.5125C123.174 30.88 122.861 31.1775 122.477 31.1775V31.1757ZM74.6441 22.4126C74.6441 23.8056 74.6792 24.9676 73.9727 26.204C73.4015 27.2094 72.4928 27.8271 71.4884 27.8271C70.1095 27.8271 69.3019 26.7815 69.3019 25.238C69.3019 22.1912 72.0438 21.6382 74.6441 21.6382V22.4126V22.4126ZM78.2647 31.1259C78.0274 31.3367 77.6838 31.3516 77.4158 31.2107C76.2242 30.2255 76.0071 29.7679 75.3559 28.8281C73.3874 30.8292 71.9884 31.4269 69.4382 31.4269C66.4134 31.4269 64.0652 29.5719 64.0652 25.8566C64.0652 22.956 65.6409 20.9802 67.8932 20.0142C69.8424 19.1602 72.564 19.0089 74.6441 18.7726V18.3106C74.6441 17.4601 74.71 16.4556 74.2047 15.7206C73.7706 15.0626 72.9322 14.7905 72.1896 14.7905C70.8214 14.7905 69.6051 15.4905 69.3072 16.9377C69.2457 17.2597 69.0084 17.5765 68.6806 17.5914L65.2015 17.2195C64.9089 17.1539 64.5802 16.9176 64.6663 16.4705C65.4652 12.267 69.2817 11 72.6949 11C74.442 11 76.7242 11.4629 78.103 12.7797C79.85 14.4037 79.6831 16.5702 79.6831 18.9284V24.4995C79.6831 26.1734 80.3799 26.9075 81.0364 27.8122C81.264 28.1342 81.3141 28.521 81.0215 28.7625C80.2894 29.3706 78.9862 30.502 78.2691 31.1355L78.2647 31.1259V31.1259ZM27.5788 22.4126C27.5788 23.8056 27.614 24.9676 26.9066 26.204C26.3362 27.2094 25.4328 27.8271 24.4222 27.8271C23.0443 27.8271 22.2411 26.7815 22.2411 25.238C22.2411 22.1912 24.9829 21.6382 27.5788 21.6382V22.4126V22.4126ZM31.1995 31.1259C30.9622 31.3367 30.6186 31.3516 30.3505 31.2107C29.1589 30.2255 28.9471 29.7679 28.2907 28.8281C26.3213 30.8292 24.9275 31.4269 22.3729 31.4269C19.3534 31.4277 17 29.5727 17 25.8575C17 22.9569 18.5801 20.9811 20.8271 20.0151C22.7763 19.1611 25.4979 19.0097 27.5788 18.7735V18.3115C27.5788 17.461 27.6439 16.4565 27.1438 15.7215C26.7045 15.0635 25.867 14.7914 25.1297 14.7914C23.7614 14.7914 22.539 15.4914 22.2411 16.9386C22.1805 17.2606 21.9432 17.5774 21.6198 17.5922L18.1363 17.2204C17.8436 17.1547 17.5202 16.9185 17.6002 16.4714C18.4043 12.267 22.2165 11 25.6297 11C27.3767 11 29.6589 11.4629 31.0378 12.7797C32.7848 14.4037 32.6178 16.5702 32.6178 18.9284V24.4995C32.6178 26.1734 33.3147 26.9075 33.9712 27.8122C34.2032 28.1342 34.2541 28.521 33.9606 28.7625C33.2286 29.3706 31.9262 30.502 31.2091 31.1355L31.1986 31.1259" fill="black"/>
<path d="M136.938 30.7244C136.679 30.7244 136.457 30.6335 136.273 30.4517C136.088 30.2699 135.997 30.0483 136 29.7869C135.997 29.5313 136.088 29.3125 136.273 29.1307C136.457 28.9489 136.679 28.858 136.938 28.858C137.188 28.858 137.405 28.9489 137.59 29.1307C137.777 29.3125 137.872 29.5313 137.875 29.7869C137.872 29.9602 137.827 30.1179 137.739 30.2599C137.653 30.402 137.54 30.5156 137.398 30.6009C137.259 30.6832 137.105 30.7244 136.938 30.7244Z" fill="black"/>
<path d="M142.323 30.7585C141.669 30.7585 141.108 30.6151 140.64 30.3281C140.174 30.0412 139.814 29.6449 139.561 29.1392C139.311 28.6307 139.186 28.0455 139.186 27.3835C139.186 26.7187 139.314 26.1321 139.57 25.6236C139.826 25.1122 140.186 24.7145 140.652 24.4304C141.121 24.1435 141.675 24 142.314 24C142.846 24 143.316 24.098 143.725 24.294C144.137 24.4872 144.465 24.7614 144.709 25.1165C144.954 25.4687 145.093 25.8807 145.127 26.3523H143.652C143.593 26.0369 143.451 25.7741 143.226 25.5639C143.005 25.3509 142.708 25.2443 142.336 25.2443C142.02 25.2443 141.743 25.3295 141.505 25.5C141.266 25.6676 141.08 25.9091 140.946 26.2244C140.816 26.5398 140.75 26.9176 140.75 27.358C140.75 27.804 140.816 28.1875 140.946 28.5085C141.077 28.8267 141.26 29.0724 141.496 29.2457C141.735 29.4162 142.015 29.5014 142.336 29.5014C142.563 29.5014 142.766 29.4588 142.945 29.3736C143.127 29.2855 143.279 29.1591 143.401 28.9943C143.523 28.8295 143.607 28.6293 143.652 28.3935H145.127C145.09 28.8565 144.954 29.267 144.718 29.625C144.482 29.9801 144.161 30.2585 143.755 30.4602C143.348 30.6591 142.871 30.7585 142.323 30.7585Z" fill="black"/>
<path d="M149.249 30.7585C148.609 30.7585 148.055 30.6179 147.587 30.3366C147.118 30.0554 146.754 29.6619 146.496 29.1562C146.24 28.6506 146.112 28.0597 146.112 27.3835C146.112 26.7074 146.24 26.1151 146.496 25.6065C146.754 25.098 147.118 24.7031 147.587 24.4219C148.055 24.1406 148.609 24 149.249 24C149.888 24 150.442 24.1406 150.911 24.4219C151.379 24.7031 151.742 25.098 151.997 25.6065C152.256 26.1151 152.385 26.7074 152.385 27.3835C152.385 28.0597 152.256 28.6506 151.997 29.1562C151.742 29.6619 151.379 30.0554 150.911 30.3366C150.442 30.6179 149.888 30.7585 149.249 30.7585ZM149.257 29.5227C149.604 29.5227 149.894 29.4276 150.126 29.2372C150.359 29.044 150.533 28.7855 150.646 28.4616C150.763 28.1378 150.821 27.777 150.821 27.3793C150.821 26.9787 150.763 26.6165 150.646 26.2926C150.533 25.9659 150.359 25.706 150.126 25.5128C149.894 25.3196 149.604 25.223 149.257 25.223C148.902 25.223 148.607 25.3196 148.371 25.5128C148.138 25.706 147.963 25.9659 147.847 26.2926C147.733 26.6165 147.676 26.9787 147.676 27.3793C147.676 27.777 147.733 28.1378 147.847 28.4616C147.963 28.7855 148.138 29.044 148.371 29.2372C148.607 29.4276 148.902 29.5227 149.257 29.5227Z" fill="black"/>
<path d="M153.694 30.6307V24.0852H155.169V25.1974H155.245C155.382 24.8224 155.608 24.5298 155.923 24.3196C156.238 24.1065 156.615 24 157.052 24C157.495 24 157.869 24.108 158.173 24.3239C158.48 24.5369 158.696 24.8281 158.821 25.1974H158.889C159.034 24.8338 159.278 24.544 159.622 24.3281C159.968 24.1094 160.379 24 160.853 24C161.456 24 161.947 24.1903 162.328 24.571C162.709 24.9517 162.899 25.5071 162.899 26.2372V30.6307H161.352V26.4759C161.352 26.0696 161.244 25.7727 161.028 25.5852C160.812 25.3949 160.548 25.2997 160.236 25.2997C159.863 25.2997 159.572 25.4162 159.362 25.6491C159.155 25.8793 159.051 26.179 159.051 26.5483V30.6307H157.538V26.4119C157.538 26.0739 157.436 25.804 157.231 25.6023C157.03 25.4006 156.765 25.2997 156.439 25.2997C156.217 25.2997 156.015 25.3565 155.834 25.4702C155.652 25.581 155.507 25.7386 155.399 25.9432C155.291 26.1449 155.237 26.3807 155.237 26.6506V30.6307H153.694Z" fill="black"/>
</svg>
