<svg width="12" height="12" viewBox="0 0 12 12" fill="none" xmlns="http://www.w3.org/2000/svg">
    <path d="M7.874 4.91 3.092 2.413M10.265 6.291v2.126a1.064 1.064 0 0 1-.531.92l-3.72 2.02a1.064 1.064 0 0 1-1.063 0l-3.72-2.02a1.063 1.063 0 0 1-.53-.92V4.166a1.063 1.063 0 0 1 .53-.92l3.72-2.125a1.063 1.063 0 0 1 1.063 0l.93.531" stroke="#656F7D" stroke-width=".957" stroke-linecap="round" stroke-linejoin="round"/>
    <path d="m.844 3.613 4.639 2.684 2.32-1.342M5.482 11.5V6.29" stroke="#656F7D" stroke-width=".957" stroke-linecap="round" stroke-linejoin="round"/>
    <path d="M9.699.5h.177c.877.049 1.573.597 1.776 1.403.08.317.053.633-.03.946-.126.477-.36.907-.638 1.319a8.908 8.908 0 0 1-1.16 1.38c-.03.03-.045.028-.073 0-.565-.56-1.065-1.165-1.447-1.851a3.408 3.408 0 0 1-.406-1.101C7.732 1.584 8.445.708 9.421.532c.092-.017.184-.028.278-.032zM8.612 2.269c-.004.605.52 1.104 1.165 1.108.65.005 1.178-.484 1.183-1.095.005-.61-.514-1.106-1.16-1.11-.654-.005-1.184.484-1.188 1.097z" fill="#656F7D"/>
</svg>
