<svg width="12" height="12" viewBox="0 0 12 12" fill="none" xmlns="http://www.w3.org/2000/svg">
<g clip-path="url(#clip0_7443_89888)">
<path d="M8.97952 3.56233C8.97952 4.95086 6.86787 7.93818 6.19175 8.85909C6.08885 8.99924 5.88347 8.99924 5.78057 8.85909C5.10445 7.93818 2.9928 4.95086 2.9928 3.56233C2.9928 1.90914 4.33297 0.56897 5.98616 0.56897C7.63935 0.56897 8.97952 1.90914 8.97952 3.56233Z" stroke="#656F7D" stroke-width="0.878902" stroke-linejoin="round"/>
<circle cx="5.98611" cy="3.56228" r="1.40115" stroke="#656F7D" stroke-width="0.878902" stroke-linejoin="round"/>
<path d="M3.757 5.91882L2.27206 6.35557C2.18543 6.38105 2.11787 6.44908 2.09299 6.53588L0.860744 10.8351C0.798216 11.0532 1.02217 11.2432 1.22721 11.1459L3.07109 10.2713C3.14244 10.2374 3.22521 10.2373 3.29662 10.271L5.90478 11.5019C5.97639 11.5357 6.05941 11.5355 6.13088 11.5014L8.70773 10.2715C8.77896 10.2375 8.86167 10.2372 8.93314 10.2707L10.819 11.1539C11.0227 11.2493 11.2446 11.0624 11.1852 10.8455L10.0077 6.54653C9.98237 6.45396 9.90872 6.38248 9.81543 6.3599L7.99229 5.91882" stroke="#656F7D" stroke-width="0.878902" stroke-linejoin="round"/>
</g>
<defs>
<clipPath id="clip0_7443_89888">
<rect width="12" height="12" fill="white"/>
</clipPath>
</defs>
</svg>
