<svg width="12" height="12" viewBox="0 0 12 12" fill="none" xmlns="http://www.w3.org/2000/svg">
<path d="M5 6C5 6.38833 5.3148 6.70313 5.70312 6.70313C6.09145 6.70313 6.40625 6.38833 6.40625 6C6.40625 5.61167 6.09145 5.29687 5.70312 5.29687C5.3148 5.29687 5 5.61167 5 6Z" fill="#575F6C" stroke="#575F6C" stroke-width="1.2" stroke-linecap="round" stroke-linejoin="round"/>
<path d="M5 10.2969C5 10.6852 5.3148 11 5.70312 11C6.09145 11 6.40625 10.6852 6.40625 10.2969C6.40625 9.90855 6.09145 9.59375 5.70312 9.59375C5.3148 9.59375 5 9.90855 5 10.2969Z" fill="#575F6C" stroke="#575F6C" stroke-width="1.2" stroke-linecap="round" stroke-linejoin="round"/>
<path d="M5 1.70313C5 2.09145 5.3148 2.40625 5.70312 2.40625C6.09145 2.40625 6.40625 2.09145 6.40625 1.70313C6.40625 1.3148 6.09145 1 5.70312 1C5.3148 1 5 1.3148 5 1.70313Z" fill="#575F6C" stroke="#575F6C" stroke-width="1.2" stroke-linecap="round" stroke-linejoin="round"/>
</svg>
