<svg width="14" height="14" viewBox="0 0 14 14" fill="none" xmlns="http://www.w3.org/2000/svg">
    <path d="M1.581 6.53v2.706c0 2.707 1.085 3.792 3.792 3.792H8.62c2.707 0 3.792-1.085 3.792-3.792V6.53" stroke="#3C4249" stroke-linecap="round" stroke-linejoin="round"/>
    <path d="M7 7c1.104 0 1.917-.898 1.809-2.001L8.411.972H5.596L5.192 5C5.084 6.102 5.898 7 7.001 7z" stroke="#3C4249" stroke-linecap="round" stroke-linejoin="round"/>
    <path d="M10.804 7c1.217 0 2.11-.989 1.989-2.2l-.169-1.658c-.217-1.567-.82-2.17-2.399-2.17H8.387l.422 4.226C8.91 6.192 9.809 7 10.804 7zM3.167 7c.995 0 1.893-.808 1.99-1.802l.132-1.333.29-2.893h-1.84c-1.579 0-2.181.603-2.398 2.17L1.178 4.8C1.058 6.01 1.949 7 3.168 7zM7 10.014c-1.007 0-1.507.5-1.507 1.507v1.507h3.014V11.52c0-1.007-.5-1.507-1.507-1.507z" stroke="#3C4249" stroke-linecap="round" stroke-linejoin="round"/>
</svg>
