<svg width="12" height="13" viewBox="0 0 12 13" fill="none" xmlns="http://www.w3.org/2000/svg">
    <path d="M8.149 1v1.192M3.383 1v1.192M10.532 5V3.383c0-.987-.8-1.787-1.787-1.787H2.787C1.8 1.596 1 2.396 1 3.383v4.766c0 .987.8 1.787 1.787 1.787h.894" stroke="#656F7D" stroke-linecap="round" stroke-linejoin="round"/>
    <path d="M9.368 10.42a2.085 2.085 0 1 1 0-4.17 2.085 2.085 0 0 1 0 4.17" stroke="#656F7D" stroke-linecap="round" stroke-linejoin="round"/>
    <path d="M7.48 7.452a2.08 2.08 0 0 0 .101 4.16 2.08 2.08 0 0 0 1.88-1.197" stroke="#656F7D" stroke-linecap="round" stroke-linejoin="round"/>
</svg>
