<svg width="12" height="12" viewBox="0 0 12 12" fill="none" xmlns="http://www.w3.org/2000/svg">
<path d="M8 1.5H0.5V8H8V1.5Z" stroke="#656F7D" stroke-miterlimit="10" stroke-linecap="round"/>
<path d="M8 4H10L11.5 5.5V8H8V4Z" stroke="#656F7D" stroke-miterlimit="10" stroke-linecap="round"/>
<path d="M2.75 10.5C3.44036 10.5 4 9.94036 4 9.25C4 8.55964 3.44036 8 2.75 8C2.05964 8 1.5 8.55964 1.5 9.25C1.5 9.94036 2.05964 10.5 2.75 10.5Z" stroke="#656F7D" stroke-miterlimit="10" stroke-linecap="round"/>
<path d="M9.25 10.5C9.94036 10.5 10.5 9.94036 10.5 9.25C10.5 8.55964 9.94036 8 9.25 8C8.55964 8 8 8.55964 8 9.25C8 9.94036 8.55964 10.5 9.25 10.5Z" stroke="#656F7D" stroke-miterlimit="10" stroke-linecap="round"/>
</svg>
