<svg width="12" height="12" viewBox="0 0 12 12" fill="none" xmlns="http://www.w3.org/2000/svg">
<g clip-path="url(#clip0_6297_124699)">
<path d="M6 8C7.10457 8 8 7.10457 8 6C8 4.89543 7.10457 4 6 4C4.89543 4 4 4.89543 4 6C4 7.10457 4.89543 8 6 8Z" stroke="#656F7D" stroke-linecap="round" stroke-linejoin="round"/>
<path d="M8.00001 3.99999V6.49999C8.00001 6.89782 8.15804 7.27935 8.43935 7.56066C8.72065 7.84196 9.10218 7.99999 9.50001 7.99999C9.89783 7.99999 10.2794 7.84196 10.5607 7.56066C10.842 7.27935 11 6.89782 11 6.49999V5.99999C10.9999 4.87151 10.6181 3.77623 9.91664 2.89226C9.21516 2.00829 8.23528 1.38761 7.13632 1.13114C6.03737 0.87468 4.88397 0.997516 3.86368 1.47968C2.84339 1.96184 2.0162 2.77497 1.51663 3.78686C1.01706 4.79874 0.874488 5.94986 1.11209 7.05305C1.34969 8.15624 1.95349 9.14661 2.82532 9.86313C3.69715 10.5796 4.78572 10.9802 5.91404 10.9996C7.04236 11.019 8.14406 10.6561 9.04001 9.97" stroke="#656F7D" stroke-linecap="round" stroke-linejoin="round"/>
</g>
<defs>
<clipPath id="clip0_6297_124699">
<rect width="12" height="12" fill="white"/>
</clipPath>
</defs>
</svg>
