<svg width="12" height="12" viewBox="0 0 12 12" fill="none" xmlns="http://www.w3.org/2000/svg">
<g clip-path="url(#clip0_6297_124702)">
<path d="M11 8.45999V9.95999C11.0005 10.0992 10.972 10.2371 10.9162 10.3647C10.8604 10.4923 10.7786 10.6068 10.676 10.7009C10.5734 10.7951 10.4523 10.8667 10.3203 10.9113C10.1884 10.956 10.0487 10.9725 9.90997 10.96C8.37138 10.7928 6.89347 10.2671 5.59497 9.42499C4.38688 8.65732 3.36263 7.63307 2.59497 6.42499C1.74996 5.12059 1.22409 3.63548 1.05997 2.08999C1.04747 1.95172 1.0639 1.81237 1.10822 1.6808C1.15253 1.54923 1.22375 1.42833 1.31735 1.3258C1.41095 1.22326 1.52487 1.14134 1.65186 1.08525C1.77886 1.02915 1.91614 1.00012 2.05497 0.999987H3.55497C3.79762 0.997599 4.03286 1.08353 4.21685 1.24175C4.40083 1.39998 4.52101 1.61971 4.55497 1.85999C4.61828 2.34002 4.73569 2.81135 4.90497 3.26499C4.97224 3.44395 4.9868 3.63844 4.94692 3.82543C4.90704 4.01241 4.8144 4.18404 4.67997 4.31999L4.04497 4.95499C4.75674 6.20676 5.79319 7.24321 7.04497 7.95499L7.67997 7.31999C7.81591 7.18556 7.98754 7.09291 8.17453 7.05303C8.36151 7.01316 8.556 7.02772 8.73497 7.09499C9.1886 7.26426 9.65993 7.38168 10.14 7.44499C10.3828 7.47925 10.6047 7.60159 10.7632 7.78873C10.9218 7.97588 11.0061 8.21478 11 8.45999Z" stroke="#656F7D" stroke-linecap="round" stroke-linejoin="round"/>
</g>
<defs>
<clipPath id="clip0_6297_124702">
<rect width="12" height="12" fill="white"/>
</clipPath>
</defs>
</svg>
