<svg width="13" height="12" viewBox="0 0 13 12" fill="none" xmlns="http://www.w3.org/2000/svg">
    <path d="m10.807 10.5.298-.578c.143-.278.217-.584.217-.894V5.75A.761.761 0 0 0 10.55 5v0a.761.761 0 0 0-.772.75v2" stroke="#656F7D" stroke-linecap="round" stroke-linejoin="round"/>
    <path d="M7.205 10.5V9.043c0-.216.072-.427.206-.6l.863-1.118a.85.85 0 0 1 1.26-.087v0a.795.795 0 0 1 .077 1.06L9.07 9M1.544 10.5l-.298-.578a1.953 1.953 0 0 1-.217-.894V5.75c0-.414.346-.75.772-.75v0c.427 0 .772.336.772.75v2" stroke="#656F7D" stroke-linecap="round" stroke-linejoin="round"/>
    <path d="M5.146 10.5V9.043a.981.981 0 0 0-.205-.6l-.864-1.118a.85.85 0 0 0-1.26-.087v0a.795.795 0 0 0-.077 1.06L3.282 9M6.142 1v.837M6.142 5.163V6M3.916 2.25l.746.413M7.634 4.337l.733.413M3.916 4.75l.746-.413M7.634 2.663l.733-.413M6.141 1.833c.948 0 1.716.747 1.716 1.667s-.768 1.667-1.716 1.667c-.947 0-1.715-.747-1.715-1.667s.768-1.667 1.715-1.667" stroke="#656F7D" stroke-linecap="round" stroke-linejoin="round"/>
</svg>
