<svg width="12" height="12" viewBox="0 0 12 12" fill="none" xmlns="http://www.w3.org/2000/svg">
<path d="M6 1.5H1.5C1.22386 1.5 1 1.72386 1 2V7.94937C1 8.22551 1.22386 8.44937 1.5 8.44937H4.65882C4.71209 8.44937 4.76439 8.46355 4.81035 8.49045L7.99803 10.356C8.07962 10.4037 8.17578 10.3221 8.1419 10.2338L7.61318 8.85691C7.53774 8.66043 7.68278 8.44937 7.89324 8.44937H10.5C10.7761 8.44937 11 8.22551 11 7.94937V5" stroke="#656F7D" stroke-linecap="round"/>
<path d="M9.78226 1.20877C9.9161 1.07503 10.0976 0.999933 10.2868 1C10.476 1.00007 10.6575 1.07529 10.7912 1.20913C10.925 1.34296 11.0001 1.52444 11 1.71364C10.9999 1.90285 10.9247 2.08427 10.7909 2.21801L7.38718 5.62144L6 6L6.37858 4.61291L9.78226 1.20877Z" fill="#656F7D" stroke="#656F7D" stroke-width="0.833333" stroke-linecap="round" stroke-linejoin="round"/>
</svg>
