<svg width="12" height="12" viewBox="0 0 12 12" fill="none" xmlns="http://www.w3.org/2000/svg">
<path d="M3.09131 2.41309L5.48261 3.66141" stroke="#656F7D" stroke-width="0.956522" stroke-linecap="round" stroke-linejoin="round"/>
<path d="M6.01396 1.12066C5.85239 1.02738 5.66912 0.978271 5.48256 0.978271C5.296 0.978271 5.11273 1.02738 4.95116 1.12066L1.23135 3.24626C1.06995 3.33945 0.935883 3.47345 0.842612 3.6348C0.749341 3.79616 0.700142 3.97921 0.699951 4.16559V8.41679C0.700142 8.60317 0.749341 8.78622 0.842612 8.94758C0.935883 9.10894 1.06995 9.24293 1.23135 9.33612L4.95116 11.3576C5.11273 11.4509 5.296 11.5 5.48256 11.5C5.66912 11.5 5.85239 11.4509 6.01396 11.3576L9.73377 9.33612C9.89517 9.24293 10.0292 9.10894 10.1225 8.94758C10.2158 8.78622 10.265 8.60317 10.2652 8.41679V7.35399" stroke="#656F7D" stroke-width="0.956522" stroke-linecap="round" stroke-linejoin="round"/>
<path d="M0.843384 3.61328L5.48251 6.29686L6.06241 5.96141" stroke="#656F7D" stroke-width="0.956522" stroke-linecap="round" stroke-linejoin="round"/>
<path d="M5.48254 11.5001V6.29126" stroke="#656F7D" stroke-width="0.956522" stroke-linecap="round" stroke-linejoin="round"/>
<path d="M8.78132 6.28433L7.78931 5.29231L8.78132 4.30029" stroke="#656F7D" stroke-linecap="round" stroke-linejoin="round"/>
<path d="M7.98864 5.27934C8.70502 5.39876 9.47739 5.54173 10.1079 5.18122C10.1844 5.13745 10.2585 5.08872 10.3295 5.03522C10.6939 4.7607 10.9592 4.37518 11.0855 3.93676C11.2117 3.49833 11.1921 3.03075 11.0295 2.60446C10.8669 2.17817 10.5702 1.81626 10.184 1.57328C9.79788 1.33029 9.34321 1.21938 8.88854 1.25727C8.43387 1.29515 8.00383 1.47978 7.66321 1.78332C7.48461 1.94248 7.33566 2.12983 7.22144 2.33652" stroke="#656F7D" stroke-linecap="round" stroke-linejoin="round"/>
</svg>
