<svg width="12" height="12" viewBox="0 0 12 12" fill="none" xmlns="http://www.w3.org/2000/svg">
<path d="M2.11011 5.44501V10.445" stroke="#656F7D" stroke-linecap="round" stroke-linejoin="round"/>
<path d="M9.88989 5.44501V10.445" stroke="#656F7D" stroke-linecap="round" stroke-linejoin="round"/>
<path d="M7.11092 10.4445V8.22251C7.11092 7.60901 6.61342 7.11151 5.99992 7.11151C5.38642 7.11151 4.88892 7.60901 4.88892 8.22251V10.4445" stroke="#656F7D" stroke-linecap="round" stroke-linejoin="round"/>
<path d="M1 10.445H11" stroke="#656F7D" stroke-linecap="round" stroke-linejoin="round"/>
<path fill-rule="evenodd" clip-rule="evenodd" d="M2.15054 5.44448C1.30154 5.43848 0.748037 4.59798 1.11604 3.87348L1.97354 2.18498C2.16904 1.79998 2.58004 1.55548 3.03104 1.55548H8.96904C9.42004 1.55548 9.83104 1.79998 10.0265 2.18498L10.8845 3.87348C11.2525 4.59798 10.699 5.43848 9.85004 5.44448C9.14154 5.44448 8.56704 4.96048 8.56704 4.36298V4.33898C8.56704 4.94948 7.99254 5.44448 7.28404 5.44448C6.57554 5.44448 6.00104 4.94948 6.00104 4.33898C6.00104 4.94948 5.42654 5.44448 4.71804 5.44448C4.00954 5.44448 3.43504 4.94948 3.43504 4.33898V4.36298C3.43354 4.96048 2.85904 5.44448 2.15054 5.44448Z" stroke="#656F7D" stroke-linecap="round" stroke-linejoin="round"/>
</svg>
