<svg width="56" height="56" viewBox="0 0 56 56" fill="none" xmlns="http://www.w3.org/2000/svg">
    <path d="m32.036 8.19 4.107 8.214c.56 1.143 2.053 2.24 3.313 2.45L46.9 20.09c4.76.794 5.88 4.247 2.45 7.654l-5.787 5.786c-.98.98-1.517 2.87-1.213 4.224l1.657 7.163c1.306 5.67-1.704 7.863-6.72 4.9l-6.977-4.13c-1.26-.747-3.337-.747-4.62 0l-6.977 4.13c-4.993 2.963-8.027.746-6.72-4.9l1.657-7.163c.303-1.354-.234-3.244-1.213-4.224L6.65 27.743c-3.407-3.406-2.31-6.86 2.45-7.653l7.443-1.236c1.237-.21 2.73-1.307 3.29-2.45L23.94 8.19c2.24-4.457 5.88-4.457 8.096 0z" fill="#FD9B09" stroke="#FD9B09" stroke-width="1.2" stroke-linecap="round" stroke-linejoin="round"/>
</svg>
