<svg width="16" height="16" viewBox="0 0 16 16" fill="none" xmlns="http://www.w3.org/2000/svg">
<path d="M7.53846 13.6399C7.32242 13.6399 7.11018 13.583 6.92308 13.475L2.61538 11.0135C2.42847 10.9055 2.27322 10.7504 2.16521 10.5635C2.0572 10.3766 2.00022 10.1647 2 9.94884V5.02576C2.00022 4.80993 2.0572 4.59795 2.16521 4.41109C2.27322 4.22423 2.42847 4.06906 2.61538 3.96115L6.92308 1.49961C7.11018 1.39159 7.32242 1.33472 7.53846 1.33472C7.75451 1.33472 7.96675 1.39159 8.15385 1.49961L12.4615 3.96115C12.6485 4.06906 12.8037 4.22423 12.9117 4.41109C13.0197 4.59795 13.0767 4.80993 13.0769 5.02576V5.87191" stroke="#1D252B" stroke-linecap="round" stroke-linejoin="round"/>
<path d="M14.6332 10.5666C14.6332 11.7754 12.7667 13.6895 12.2171 14.227C12.1324 14.3099 12.0008 14.3099 11.9161 14.227C11.3664 13.6895 9.5 11.7754 9.5 10.5666C9.5 9.1491 10.6491 8 12.0666 8C13.4841 8 14.6332 9.1491 14.6332 10.5666Z" stroke="#1D252B" stroke-linejoin="round"/>
<circle cx="12.0723" cy="10.5723" r="0.857427" stroke="#1D252B" stroke-linejoin="round"/>
<path d="M2.16626 4.38574L7.53857 7.49343L12.9109 4.38574" stroke="#1D252B" stroke-linecap="round" stroke-linejoin="round"/>
<path d="M7.53845 13.6904V7.4873" stroke="#1D252B" stroke-linecap="round" stroke-linejoin="round"/>
</svg>
