<svg width="13" height="14" viewBox="0 0 13 14" fill="none" xmlns="http://www.w3.org/2000/svg">
    <path d="m10.66 2.611-1.126-.084-.83-.824.83.826s1.078.077 1.127.082a.135.135 0 0 1 .123.114l1.527 10.34L7.985 14 0 12.506s1.025-7.925 1.064-8.205c.05-.37.063-.382.455-.504l1.263-.392C3.054 2.257 3.916 0 5.722 0c.236 0 .509.126.728.419l.066-.003c.776 0 1.216.66 1.466 1.379l.419-.129a.472.472 0 0 1 .189-.014l2.07.96zM6.517 5.003s-.36-.21-1.09-.21c-1.895 0-2.833 1.265-2.833 2.573 0 1.554 1.55 1.596 1.55 2.541a.536.536 0 0 1-.56.54c-.608 0-1.327-.617-1.327-.617l-.367 1.213s.7.853 2.072.853c1.141 0 1.988-.86 1.988-2.196 0-1.698-1.89-1.975-1.89-2.7 0-.134.043-.66.883-.66.575 0 1.04.25 1.04.25l.534-1.587zm1.025-3.074C7.37 1.407 7.103.952 6.704.903c.1.284.16.644.16 1.09v.146l.677-.21zM6.208.991c-.44.19-.943.69-1.212 1.727l1.396-.432v-.078c0-.539-.073-.938-.182-1.218L6.208.99zM5.672.483c-1.297 0-2.026 1.703-2.333 2.747l1.104-.342C4.704 1.52 5.325.833 5.903.561a.407.407 0 0 0-.231-.078z" fill="#fff"/>
</svg>
