<svg width="30" height="30" viewBox="0 0 30 30" fill="none" xmlns="http://www.w3.org/2000/svg">
    <path d="M15.066 7.25v14.714c-1.256 0-2.458.226-3.57.64m3.57-.64c1.255 0 2.458.226 3.57.64M20.822 8.93c-1.907-.268-3.83-.401-5.757-.4-1.954 0-3.877.136-5.758.4m11.515 0c.862.122 1.715.27 2.56.444m-2.56-.444 2.235 9.148c.104.426-.09.878-.502 1.026-.556.2-1.142.301-1.733.3-.59.001-1.176-.1-1.732-.3-.412-.149-.607-.6-.504-1.026l2.236-9.148zm-11.514 0c-.861.122-1.714.27-2.559.443m2.56-.443 2.234 9.148c.104.426-.09.878-.503 1.026-.555.2-1.141.301-1.732.3-.59.001-1.176-.1-1.732-.3-.413-.149-.607-.6-.503-1.026L9.309 8.93z" stroke="#3C4249" stroke-width="1.2" stroke-miterlimit="10" stroke-linecap="round"/>
</svg>
