<svg width="16" height="16" viewBox="0 0 16 16" fill="none" xmlns="http://www.w3.org/2000/svg">
    <path d="M8.75 2.313h-7a.45.45 0 0 0-.438.437v10.5c0 .246.192.438.438.438h6.016c.328.519.738.957 1.23 1.312H1.75C.766 15 0 14.234 0 13.25V2.75C0 1.793.766 1 1.75 1h7c.957 0 1.75.793 1.75 1.75v3.691a4.12 4.12 0 0 0-1.313.602V2.75a.47.47 0 0 0-.437-.438zM2.625 5.155c0-.355.273-.656.656-.656H7.22c.355 0 .656.3.656.656 0 .383-.3.657-.656.657H3.28a.632.632 0 0 1-.656-.657zm.656 1.969H7.22c.355 0 .656.3.656.656 0 .383-.3.657-.656.657H3.28a.632.632 0 0 1-.656-.657c0-.355.273-.656.656-.656zm0 2.625h1.313c.355 0 .656.3.656.656 0 .383-.3.656-.656.656H3.28a.632.632 0 0 1-.656-.656c0-.355.273-.656.656-.656zm8.531-2.625c1.395 0 2.68.766 3.391 1.969a3.9 3.9 0 0 1 0 3.937A3.905 3.905 0 0 1 11.813 15a3.916 3.916 0 0 1-3.418-1.969 3.901 3.901 0 0 1 0-3.937 3.973 3.973 0 0 1 3.418-1.969zm0 2.625a.648.648 0 0 0 .657-.656c0-.356-.301-.656-.656-.656-.383 0-.657.3-.657.656 0 .383.274.656.656.656zm-.874 1.313c0 .246.19.437.437.437v1.313a.45.45 0 0 0-.438.437c0 .246.192.438.438.438h.875a.45.45 0 0 0 .438-.438.47.47 0 0 0-.438-.438v-1.75a.47.47 0 0 0-.438-.437h-.437a.45.45 0 0 0-.438.438z" fill="#0052CC"/>
</svg>
