<svg width="32" height="32" viewBox="0 0 32 32" fill="none" xmlns="http://www.w3.org/2000/svg">
    <g clip-path="url(#j3n5qcpdea)">
        <path fill="#fff" d="M8 9.333h17.333v17.333H8z"/>
        <path d="M25.435 6.57a13.236 13.236 0 0 0-9.421-3.903c-7.341 0-13.316 5.972-13.319 13.313a13.283 13.283 0 0 0 1.778 6.656l-1.807 6.697 6.977-1.649a13.307 13.307 0 0 0 6.364 1.621h.006c7.34 0 13.314-5.973 13.318-13.313a13.23 13.23 0 0 0-3.896-9.421zM22.53 20.74c-.277.777-1.636 1.526-2.247 1.581-.61.056-1.182.276-3.993-.832-3.383-1.333-5.519-4.801-5.684-5.023-.167-.222-1.359-1.804-1.359-3.44 0-1.638.86-2.444 1.166-2.776.305-.333.665-.416.888-.416.221 0 .444 0 .637.008.237.01.5.022.75.575.295.659.942 2.304 1.025 2.47.082.167.138.362.028.583-.111.222-.167.36-.332.555-.167.195-.35.433-.499.583-.167.165-.34.346-.147.678.195.334.862 1.423 1.851 2.304 1.272 1.134 2.343 1.484 2.676 1.652.333.167.527.14.721-.084.195-.22.832-.97 1.054-1.304.221-.333.444-.277.749-.166.305.11 1.941.916 2.273 1.082.334.167.555.25.638.388.082.138.082.804-.195 1.582z" fill="#1BD741"/>
    </g>
    <defs>
        <clipPath id="j3n5qcpdea">
            <path fill="#fff" d="M0 0h32v32H0z"/>
        </clipPath>
    </defs>
</svg>
