<svg width="20" height="20" viewBox="0 0 20 20" fill="none" xmlns="http://www.w3.org/2000/svg">
<path d="M6.25 11.875V13.75M8.75 10V13.75M11.25 8.125V13.75M13.75 6.25V13.75M5 16.875H15C15.4973 16.875 15.9742 16.6775 16.3258 16.3258C16.6775 15.9742 16.875 15.4973 16.875 15V5C16.875 4.50272 16.6775 4.02581 16.3258 3.67417C15.9742 3.32254 15.4973 3.125 15 3.125H5C4.50272 3.125 4.02581 3.32254 3.67417 3.67417C3.32254 4.02581 3.125 4.50272 3.125 5V15C3.125 15.4973 3.32254 15.9742 3.67417 16.3258C4.02581 16.6775 4.50272 16.875 5 16.875Z" stroke="#3C4249" stroke-width="1.2" stroke-linecap="round" stroke-linejoin="round"/>
</svg>
