<svg width="48" height="48" viewBox="0 0 48 48" fill="none" xmlns="http://www.w3.org/2000/svg">
    <g clip-path="url(#sm62u88s4a)">
        <path d="M1.688 23.797a22.182 22.182 0 0 0 2.99 11.148L1.5 46.5l11.878-3.1a22.476 22.476 0 0 0 10.707 2.713h.01c12.348 0 22.4-10.003 22.405-22.298.002-5.958-2.326-11.56-6.557-15.775-4.23-4.215-9.855-6.537-15.85-6.54-12.35 0-22.4 10.003-22.405 22.297" fill="#fff"/>
        <path d="M.2 23.784a23.662 23.662 0 0 0 3.19 11.891L0 48l12.67-3.307a23.972 23.972 0 0 0 11.42 2.895h.01c13.172 0 23.894-10.671 23.9-23.785.002-6.355-2.482-12.332-6.994-16.828C36.494 2.48 30.494.003 24.101 0 10.927 0 .206 10.67.2 23.784zm7.546 11.27-.473-.748a19.652 19.652 0 0 1-3.037-10.52c.004-10.9 8.915-19.769 19.872-19.769 5.306.002 10.293 2.062 14.044 5.798 3.75 3.736 5.814 8.704 5.813 13.987-.005 10.9-8.916 19.769-19.865 19.769h-.007a19.908 19.908 0 0 1-10.11-2.756l-.726-.428-7.519 1.962 2.008-7.295z" fill="url(#lwi8lvet2b)"/>
        <path fill-rule="evenodd" clip-rule="evenodd" d="M25.905 30.095h5.238a3.143 3.143 0 0 0 3.143-3.143v-8.38a3.143 3.143 0 0 0-3.143-3.143H18.57a3.143 3.143 0 0 0-3.143 3.142v8.381a3.143 3.143 0 0 0 3.143 3.143h2.096v4.19l5.238-4.19" fill="#fff"/>
        <path fill-rule="evenodd" clip-rule="evenodd" d="M25.905 30.095h5.238a3.143 3.143 0 0 0 3.143-3.143v-8.38a3.143 3.143 0 0 0-3.143-3.143H18.57a3.143 3.143 0 0 0-3.143 3.142v8.381a3.143 3.143 0 0 0 3.143 3.143h2.096v4.19l5.238-4.19" fill="url(#609r0vudzc)"/>
        <path d="M19.428 20.572h10.286M19.428 24.572h6.858" stroke="#fff" stroke-width="1.5" stroke-linecap="round"/>
    </g>
    <defs>
        <linearGradient id="lwi8lvet2b" x1="2400" y1="4800" x2="2400" y2="0" gradientUnits="userSpaceOnUse">
            <stop stop-color="#1FAF38"/>
            <stop offset="1" stop-color="#60D669"/>
        </linearGradient>
        <linearGradient id="609r0vudzc" x1="958.286" y1="1901.14" x2="958.286" y2="15.428" gradientUnits="userSpaceOnUse">
            <stop stop-color="#1FAF38"/>
            <stop offset="1" stop-color="#60D669"/>
        </linearGradient>
        <clipPath id="sm62u88s4a">
            <path fill="#fff" d="M0 0h48v48H0z"/>
        </clipPath>
    </defs>
</svg>
