<svg width="32" height="32" viewBox="0 0 32 32" fill="none" xmlns="http://www.w3.org/2000/svg">
    <g clip-path="url(#c2gumqxwla)">
        <path fill="#fff" d="M5.333 10.667h21.333v10.667H5.333z"/>
        <path d="M26.667 4H5.333A2.663 2.663 0 0 0 2.68 6.667l-.012 20.778c0 1.188 1.436 1.784 2.276.944L8 25.333h18.667c1.466 0 2.666-1.2 2.666-2.666v-16C29.333 5.2 28.133 4 26.667 4zM12 14.667a1.334 1.334 0 1 1-2.668-.001 1.334 1.334 0 0 1 2.668 0zm5.333 0a1.334 1.334 0 1 1-2.667-.001 1.334 1.334 0 0 1 2.667 0zm5.334 0a1.334 1.334 0 1 1-2.668-.001 1.334 1.334 0 0 1 2.668 0z" fill="#4C9AFF"/>
    </g>
    <defs>
        <clipPath id="c2gumqxwla">
            <path fill="#fff" d="M0 0h32v32H0z"/>
        </clipPath>
    </defs>
</svg>
