<svg width="32" height="32" viewBox="0 0 32 32" fill="none" xmlns="http://www.w3.org/2000/svg">
<g clip-path="url(#clip0_8858_143125)">
<path d="M26.3528 10.4461L19.4195 3.51273C19.219 3.3122 18.948 3.2002 18.6654 3.2002H7.46536C6.2867 3.2002 5.33203 4.15486 5.33203 5.33353V27.7335C5.33203 28.9122 6.2867 29.8669 7.46536 29.8669H24.532C25.7107 29.8669 26.6654 28.9122 26.6654 27.7335V11.2002C26.6654 10.9175 26.5534 10.6466 26.3528 10.4461ZM19.1987 11.7335C18.6099 11.7335 18.132 11.2557 18.132 10.6669V5.23113L24.6344 11.7335H19.1987Z" fill="#00B6BF"/>
<path d="M10.9224 21.704L9.47044 17.6H10.8624L11.7504 20.312H11.7744L12.6864 17.6H13.9344L12.4824 21.704L14.0064 26H12.6144L11.6544 23.072H11.6304L10.6464 26H9.39844L10.9224 21.704Z" fill="white"/>
<path d="M14.6334 17.6H15.9534V24.8H18.1254V26H14.6334V17.6Z" fill="white"/>
<path d="M20.4744 26.12C19.8344 26.12 19.3504 25.94 19.0224 25.58C18.6944 25.212 18.5304 24.688 18.5304 24.008V23.528H19.7784V24.104C19.7784 24.648 20.0064 24.92 20.4624 24.92C20.6864 24.92 20.8544 24.856 20.9664 24.728C21.0864 24.592 21.1464 24.376 21.1464 24.08C21.1464 23.728 21.0664 23.42 20.9064 23.156C20.7464 22.884 20.4504 22.56 20.0184 22.184C19.4744 21.704 19.0944 21.272 18.8784 20.888C18.6624 20.496 18.5544 20.056 18.5544 19.568C18.5544 18.904 18.7224 18.392 19.0584 18.032C19.3944 17.664 19.8824 17.48 20.5224 17.48C21.1544 17.48 21.6304 17.664 21.9504 18.032C22.2784 18.392 22.4424 18.912 22.4424 19.592V19.94H21.1944V19.508C21.1944 19.22 21.1384 19.012 21.0264 18.884C20.9144 18.748 20.7504 18.68 20.5344 18.68C20.0944 18.68 19.8744 18.948 19.8744 19.484C19.8744 19.788 19.9544 20.072 20.1144 20.336C20.2824 20.6 20.5824 20.92 21.0144 21.296C21.5664 21.776 21.9464 22.212 22.1544 22.604C22.3624 22.996 22.4664 23.456 22.4664 23.984C22.4664 24.672 22.2944 25.2 21.9504 25.568C21.6144 25.936 21.1224 26.12 20.4744 26.12Z" fill="white"/>
</g>
<defs>
<clipPath id="clip0_8858_143125">
<rect width="32" height="32" fill="white"/>
</clipPath>
</defs>
</svg>
