<svg width="17" height="16" viewBox="0 0 17 16" fill="none" xmlns="http://www.w3.org/2000/svg">
<path d="M8.19995 16C6.07822 16 4.04339 15.1571 2.5431 13.6569C1.04281 12.1566 0.199952 10.1217 0.199952 8C0.199952 5.87827 1.04281 3.84344 2.5431 2.34315C4.04339 0.842855 6.07822 -1.22062e-07 8.19995 -3.49691e-07L8.19995 8L8.19995 16Z" fill="#0A0A0C"/>
<path d="M8.19995 16C10.3217 16 12.3565 15.1571 13.8568 13.6569C15.3571 12.1566 16.2 10.1217 16.2 8C16.2 5.87827 15.3571 3.84344 13.8568 2.34315C12.3565 0.842855 10.3217 -1.22062e-07 8.19995 -3.49691e-07L8.19995 8L8.19995 16Z" fill="#F36B00"/>
<path d="M8.92732 5.59961H10.5787L11.1149 6.89634L12.0748 5.59961H13.8016L11.6901 8.07054L12.7366 10.3996H11.0963L10.5419 9.13889L9.54746 10.3992H7.86193L9.92475 7.91012L8.92732 5.59961ZM3.66536 5.59961H4.61489L5.7267 7.91012L3.58367 10.3992H2.59998L4.6628 7.91049L3.66536 5.59961ZM5.41922 5.59961H6.36912L7.48093 7.91012L5.33753 10.3992H4.35384L6.41666 7.91012L5.4196 5.59961H5.41922ZM7.17346 5.59961H8.12298L9.23479 7.91012L7.09176 10.3992H6.1077L8.17089 7.91012L7.17346 5.59961Z" fill="white"/>
</svg>
