<svg width="36" height="36" viewBox="0 0 36 36" fill="none" xmlns="http://www.w3.org/2000/svg">
    <path d="M16 32a16 16 0 1 1 0-32v32z" fill="#0A0A0C"/>
    <path d="M16 32a16 16 0 1 0 0-32v32z" fill="#F36B00"/>
    <path d="M17.455 11.2h3.303l1.072 2.593 1.92-2.594h3.453l-4.222 4.942 2.092 4.658h-3.28l-1.109-2.521-1.989 2.52h-3.37l4.125-4.978-1.995-4.62zm-10.524 0h1.9l2.223 4.62L6.768 20.8H4.8l4.126-4.978-1.995-4.622zm3.508 0h1.9l2.223 4.62-4.287 4.979H8.308l4.126-4.979-1.994-4.62h-.001zm3.508 0h1.9l2.223 4.62-4.286 4.979h-1.968l4.126-4.979-1.995-4.62z" fill="#fff"/>
    <circle cx="28" cy="28" r="6.857" fill="#2872FF" stroke="#fff" stroke-width="1.714"/>
    <path d="M32.286 30.03v-.902l-3.61-2.255V24.39a.676.676 0 1 0-1.353 0v2.482l-3.609 2.255v.903l3.61-1.128v2.481l-.903.677v.676l1.58-.45 1.578.45v-.676l-.902-.677v-2.481l3.609 1.128z" fill="#fff"/>
</svg>
