<svg width="67" height="24" viewBox="0 0 67 24" fill="none" xmlns="http://www.w3.org/2000/svg">
<path d="M9.39704 2.87793C9.23415 3.0168 0 13.3421 0 13.3421H4.08353L13.2488 2.87793H9.39704Z" fill="#212736"/>
<path d="M5.77716 2.87793C5.94004 3.0168 11.833 13.3421 11.833 13.3421H7.74949L1.92542 2.87793H5.77716Z" fill="#212736"/>
<path d="M16.4584 0H19.7067L17.3251 13.3417H13.9839L16.4584 0Z" fill="#212736"/>
<path d="M13.7364 2.87711L11.2765 5.73068H20.3488L20.14 7.12249L22.2512 4.31486L21.1141 1.53125L20.8124 2.87711H13.7364Z" fill="url(#paint0_linear_233_63819)"/>
<path d="M22.1353 2.87735L22.6918 4.32763L20.9982 6.67062L19.8612 13.3415H23.2483L24.1066 7.8891C24.1066 7.8891 24.803 4.82672 27.3548 6.40437C27.4477 6.35843 29.3272 3.52679 29.3272 3.52679C29.3272 3.52679 27.0531 1.02092 24.6871 4.32763C24.7101 4.40907 24.9659 2.87735 24.9659 2.87735H22.1353Z" fill="#212736"/>
<path d="M53.134 2.70304C50.5122 2.29792 49.1121 4.42374 49.0964 4.4394C49.0505 3.7743 48.5086 3.27939 48.4929 3.27939C46.0403 1.57435 44.022 3.50492 43.4645 4.13243L43.6827 2.90873H40.3102L38.578 13.3426H41.8262L43.0698 6.35326C43.3538 5.17655 44.4564 5.08258 44.4449 5.08258C45.9181 4.9197 45.7793 6.56731 45.7793 6.56731L44.5148 13.3426H47.9719C47.9719 13.3426 48.9116 7.99461 49.0975 6.8346C49.2833 5.67459 50.1875 5.2914 50.2 5.26843C51.9636 4.47908 51.8821 6.61429 51.8821 6.61429L50.6292 13.3426H54.1092C54.1092 13.3426 54.9445 8.46969 55.3162 5.59315C55.595 2.80849 53.158 2.73958 53.1351 2.70513L53.134 2.70304Z" fill="#212736"/>
<path d="M38.8568 8.94099C39.0332 8.16104 39.075 7.47923 39.0291 6.88931C38.8902 5.09238 37.8346 3.51577 36.1034 3.01668C33.3104 2.21167 31.3245 3.10334 30.0841 4.08794C28.7842 5.11953 27.927 6.62306 27.7098 8.26858C27.6064 9.04958 27.6722 9.72617 27.832 10.3036C28.2475 11.8123 29.443 12.9807 30.9393 13.4411C36.1567 15.0459 38.579 10.6429 38.579 10.6429C38.579 10.6429 35.6868 9.83893 35.6712 9.85355C34.4642 11.3383 33.3814 11.1838 33.3512 11.1838C30.8296 11.3383 31.0311 8.94099 31.0311 8.94099H38.8578H38.8568ZM33.8523 5.10491C35.8946 5.37221 35.6158 7.12319 35.6158 7.12319H31.4394C31.8372 4.89191 33.8638 5.09343 33.8523 5.10491Z" fill="#212736"/>
<path d="M66.7795 8.94099C66.956 8.16104 66.9977 7.47923 66.9518 6.88931C66.8129 5.09238 65.7573 3.51577 64.0262 3.01668C61.2332 2.21167 59.2473 3.10334 58.0069 4.08794C56.7069 5.11953 55.8497 6.62306 55.6325 8.26858C55.5292 9.04958 55.5949 9.72617 55.7547 10.3036C56.1703 11.8123 57.3658 12.9807 58.862 13.4411C64.0794 15.0459 66.5018 10.6429 66.5018 10.6429C66.5018 10.6429 63.6096 9.83893 63.5939 9.85355C62.3869 11.3383 61.3042 11.1838 61.2739 11.1838C58.7524 11.3383 58.9539 8.94099 58.9539 8.94099H66.7806H66.7795ZM61.7751 5.10491C63.8174 5.37221 63.5386 7.12319 63.5386 7.12319H59.3621C59.7599 4.89191 61.7866 5.09343 61.7751 5.10491Z" fill="#212736"/>
<path d="M4.83431 23.0378C4.73512 23.2299 4.59416 23.3907 4.40935 23.5191C4.22454 23.6475 4.00319 23.7436 3.74425 23.8083C3.48531 23.872 3.19818 23.9044 2.88286 23.9044H0.538818V18.2881H2.82021C3.39656 18.2881 3.84866 18.4196 4.17756 18.6817C4.50541 18.9438 4.67038 19.2967 4.67038 19.7405V19.7561C4.67038 19.9169 4.65054 20.0579 4.61087 20.1811C4.57119 20.3043 4.51794 20.4149 4.45112 20.5141C4.38429 20.6133 4.30807 20.7 4.22037 20.7752C4.13266 20.8503 4.03869 20.914 3.93741 20.9673C4.26213 21.0905 4.51794 21.2575 4.70379 21.4685C4.88965 21.6794 4.98362 21.9728 4.98362 22.3466V22.3622C4.98362 22.6191 4.93454 22.8436 4.83535 23.0357L4.83431 23.0378ZM3.44981 19.9493C3.44981 19.7624 3.37986 19.6193 3.24099 19.5201C3.10212 19.421 2.90165 19.3719 2.63958 19.3719H1.74059V20.559H2.55918C2.83169 20.559 3.04887 20.5121 3.20862 20.4191C3.36941 20.3252 3.44877 20.1748 3.44877 19.966V19.9503L3.44981 19.9493ZM3.76305 22.1952C3.76305 22.0083 3.691 21.86 3.54691 21.7504C3.40283 21.6407 3.16999 21.5854 2.8484 21.5854H1.74164V22.8206H2.88912C3.16164 22.8206 3.37568 22.7715 3.53125 22.6723C3.68683 22.5731 3.76409 22.4196 3.76409 22.2108V22.1952H3.76305Z" fill="#212736"/>
<path d="M11.0154 21.6345V23.8731H9.78026V21.6586L7.62207 18.2568H9.06608L10.4057 20.5111L11.7693 18.2568H13.1736L11.0154 21.6345Z" fill="#212736"/>
<path d="M19.6075 23.919V22.9803L22.3358 19.3865H19.7036V18.3037H23.9239V19.2424L21.1956 22.8362H24.0221V23.919H19.6075Z" fill="#212736"/>
<path d="M32.9336 22.2228C32.7843 22.5736 32.5765 22.8806 32.3123 23.1458C32.0471 23.411 31.7318 23.6188 31.3653 23.7712C30.9988 23.9237 30.5989 23.9999 30.1656 23.9999C29.7323 23.9999 29.3335 23.9237 28.9701 23.7712C28.6068 23.6188 28.2925 23.4131 28.0273 23.1531C27.7621 22.8942 27.5564 22.5893 27.4092 22.2385C27.2619 21.8887 27.1888 21.5128 27.1888 21.1108V21.0952C27.1888 20.6942 27.264 20.3183 27.4133 19.9675C27.5626 19.6177 27.7704 19.3097 28.0356 19.0445C28.3008 18.7793 28.6161 18.5715 28.9826 18.4191C29.3491 18.2667 29.749 18.1904 30.1823 18.1904C30.6156 18.1904 31.0134 18.2667 31.3778 18.4191C31.7422 18.5715 32.0555 18.7772 32.3207 19.0372C32.5859 19.2961 32.7916 19.601 32.9388 19.9519C33.086 20.3027 33.1591 20.6775 33.1591 21.0795V21.0952C33.1591 21.4961 33.0839 21.872 32.9346 22.2228H32.9336ZM31.8665 21.0952C31.8665 20.854 31.8247 20.6274 31.7422 20.4133C31.6597 20.1993 31.5418 20.0124 31.3893 19.8516C31.2369 19.6908 31.0562 19.5645 30.8474 19.4705C30.6386 19.3765 30.412 19.3306 30.1656 19.3306C29.9192 19.3306 29.6853 19.3765 29.4796 19.4674C29.2739 19.5582 29.0975 19.6835 28.9503 19.8443C28.803 20.0051 28.6882 20.191 28.6057 20.4019C28.5232 20.6128 28.4815 20.8393 28.4815 21.0795V21.0952C28.4815 21.3363 28.5232 21.5629 28.6057 21.777C28.6882 21.991 28.8062 22.1779 28.9586 22.3387C29.1111 22.4995 29.2906 22.6258 29.4963 22.7198C29.702 22.8138 29.9307 22.8597 30.1823 22.8597C30.434 22.8597 30.6553 22.8148 30.8641 22.7229C31.073 22.6321 31.2505 22.5068 31.3977 22.346C31.5449 22.1852 31.6597 21.9994 31.7422 21.7884C31.8247 21.5775 31.8665 21.351 31.8665 21.1108V21.0952Z" fill="#212736"/>
<path d="M49.5955 23.904L49.0818 22.6448H46.7075L46.1938 23.904H44.9346L47.3413 18.248H48.4804L50.8871 23.904H49.5955ZM47.8946 19.7317L47.1481 21.5527H48.6401L47.8936 19.7317H47.8946Z" fill="#212736"/>
<path d="M56.2005 19.4272V23.9033H54.9653V19.4272H53.2561V18.2881H57.9097V19.4272H56.2005Z" fill="#212736"/>
<path d="M66.5341 22.2228C66.3848 22.5736 66.1771 22.8806 65.9129 23.1458C65.6477 23.411 65.3324 23.6188 64.9659 23.7712C64.5994 23.9237 64.1995 23.9999 63.7662 23.9999C63.3329 23.9999 62.934 23.9237 62.5707 23.7712C62.2073 23.6188 61.8931 23.4131 61.6278 23.1531C61.3626 22.8942 61.157 22.5893 61.0097 22.2385C60.8625 21.8887 60.7894 21.5128 60.7894 21.1108V21.0952C60.7894 20.6942 60.8646 20.3183 61.0139 19.9675C61.1632 19.6177 61.371 19.3097 61.6362 19.0445C61.9014 18.7793 62.2167 18.5715 62.5832 18.4191C62.9497 18.2667 63.3496 18.1904 63.7829 18.1904C64.2162 18.1904 64.614 18.2667 64.9784 18.4191C65.3428 18.5715 65.656 18.7772 65.9213 19.0372C66.1865 19.2961 66.3922 19.601 66.5394 19.9519C66.6866 20.3027 66.7597 20.6775 66.7597 21.0795V21.0952C66.7597 21.4961 66.6845 21.872 66.5352 22.2228H66.5341ZM65.4671 21.0952C65.4671 20.854 65.4253 20.6274 65.3428 20.4133C65.2603 20.1993 65.1423 20.0124 64.9899 19.8516C64.8375 19.6908 64.6568 19.5645 64.448 19.4705C64.2392 19.3765 64.0126 19.3306 63.7662 19.3306C63.5198 19.3306 63.2859 19.3765 63.0802 19.4674C62.8745 19.5582 62.6981 19.6835 62.5509 19.8443C62.4036 20.0051 62.2888 20.191 62.2063 20.4019C62.1238 20.6128 62.082 20.8393 62.082 21.0795V21.0952C62.082 21.3363 62.1238 21.5629 62.2063 21.777C62.2888 21.991 62.4068 22.1779 62.5592 22.3387C62.7116 22.4995 62.8912 22.6258 63.0969 22.7198C63.3026 22.8138 63.5313 22.8597 63.7829 22.8597C64.0345 22.8597 64.2559 22.8148 64.4647 22.7229C64.6735 22.6321 64.851 22.5068 64.9983 22.346C65.1455 22.1852 65.2603 21.9994 65.3428 21.7884C65.4253 21.5775 65.4671 21.351 65.4671 21.1108V21.0952Z" fill="#212736"/>
<path d="M40.708 18.376L39.2316 20.6626L37.7562 18.376H36.424V23.9035H37.6435V20.6428L38.9434 22.5211H39.5041L40.8207 20.6428V23.9035H42.0402V18.376H40.708Z" fill="#212736"/>
<defs>
<linearGradient id="paint0_linear_233_63819" x1="11.2765" y1="4.32635" x2="22.2512" y2="4.32635" gradientUnits="userSpaceOnUse">
<stop stop-color="#FAAA5E"/>
<stop offset="1" stop-color="#F15C34"/>
</linearGradient>
</defs>
</svg>
