<svg width="82" height="24" viewBox="0 0 82 24" fill="none" xmlns="http://www.w3.org/2000/svg">
    <path d="M81.257 8.027a2.723 2.723 0 0 0 .698-2.005c-.07-.977-.738-2.113-2.403-2.113H50.566c.07-.27.14-.519.21-.768.23-.888.12-1.635-.33-2.234C49.999.32 49.31.01 48.404.01H46.638c-.638 0-1.187.14-1.625.409A2.473 2.473 0 0 0 43.696.01C43.258 0 42.89 0 42.54 0c-.37 0-.708 0-1.037.01-1.177.03-2.104.658-2.483 1.675-.28.748-.469 1.446-.588 2.124-1.416 0-2.832 0-4.228.01.07-.27.13-.529.19-.778.08-.319.309-1.296-.35-2.154C33.388.04 32.39.02 32.06.01 31.791 0 31.502 0 31.163 0h-.938c-1.854.01-2.572 1.177-2.841 2.154l-.08.289c-.13.449-.249.907-.379 1.376H22.23l.21-.818c.249-1.017-.06-1.705-.37-2.104C21.76.5 21.173.02 20.126.01H18.35c-1.575 0-2.542.738-2.961 2.253l-.12.41c-.11.378-.219.757-.319 1.146-1.127 0-2.353-.01-3.759-.01H5.607c-.239 0-.498.01-.787.06-1.276.249-2.204 1.535-2.064 2.861.05.44.22.908.548 1.287-.14.199-.259.408-.339.648-.279.807-.09 1.595.13 2.263.02.06.04.12.06.17-.898.468-1.805 1.176-2.453 2.293-.798 1.356-.918 2.842-.35 4.068a3.83 3.83 0 0 0 1.237 1.496c-.08.279-.1.618-.01 1.027.09.718.18 1.386.28 2.044.09 1.386 1.116 1.775 1.425 1.864.11.03.22.05.33.06v.01h1.884c.09.01.17.02.26.02.079 0 .169-.01.258-.02h9.622a3.09 3.09 0 0 0 .868 0h2.482c.08.01.16.02.24.02.07 0 .15 0 .23-.02h16.95c.07.01.15.01.229.01.07 0 .14 0 .22-.01h3.03c.16.03.32.04.49.04.169 0 .338-.01.498-.04H50.726c.06.01.13.01.2.01s.139 0 .199-.01h.947c.08.01.16.01.23.01.08 0 .159 0 .239-.01h6.45c1.427 0 3.44-.498 4.936-2.861.758-1.207 1.516-2.413 2.274-3.63.528 1.107 1.545 1.904 2.881 2.243a6.07 6.07 0 0 0 1.516.19h.02c1.097 0 2.104-.18 3.041-.529.349.17.748.26 1.197.26h.15c.169-.01.348-.01.577-.01h1.098c1.395-.01 2.382-.728 2.781-2.024.15-.499.3-1.027.469-1.725.12-.489.259-.977.409-1.496.289-.997.588-2.034.757-3.14.16-1.048 0-1.995-.448-2.763.229-.1.428-.259.608-.448z" fill="#fff"/>
    <path d="M44.863 5.651c.28-.987.548-1.974.837-2.961.19-.678.45-.868 1.137-.868h1.745c.658 0 .828.23.658.878-.22.817-.439 1.635-.668 2.453-.05.179-.11.349-.09.568h31.1c.349.01.758-.06.797.449.04.518-.339.927-.827.937-.967.01-1.925 0-2.892 0-.768 0-1.535.04-2.293-.01-.479-.03-.658.16-.718.578-.03.16-.06.32-.11.549l1.127-.06c1.067-.05 2.124-.04 3.16.24 1.307.358 1.935 1.265 1.726 2.611-.24 1.526-.768 2.982-1.137 4.477-.14.549-.28 1.097-.449 1.636-.17.548-.478.757-1.076.757-.579 0-1.167-.02-1.745.01-.469.02-.758-.14-.778-.707-1.107.707-2.293.987-3.54.977-.369 0-.728-.05-1.087-.14-1.994-.498-2.522-2.493-1.086-4.178.917-1.087 2.173-1.535 3.5-1.844a16.553 16.553 0 0 1 3.36-.41c.339-.01.508-.119.538-.478.03-.379-.09-.618-.459-.698-.967-.2-1.914-.05-2.861.15-.34.07-.668.2-.997.299-.479.13-.728 0-.868-.469-.09-.299-.24-.598-.19-.917.06-.399.35-.608.728-.738.21-.07.519-.05.609-.29.15-.388.269-.787.319-1.196.03-.259-.25-.14-.389-.14-2.094-.01-4.188-.01-6.282-.01-.777 0-1.565.01-2.343 0-.24 0-.359.04-.339.33.16 2.084.27 4.178.34 6.262 0 .03.029.05.079.15.478-.868.927-1.696 1.386-2.533.359-.668.708-1.346 1.087-2.015.279-.498.698-.787 1.296-.777h1.844c.639 0 .788.259.46.807-.958 1.556-1.935 3.091-2.902 4.637-1.307 2.084-2.613 4.158-3.919 6.242-.867 1.376-2.064 2.123-3.73 2.014-.318-.02-.627 0-.946-.02-.42-.02-.608-.26-.519-.658.11-.489.24-.967.39-1.436.109-.359.378-.578.757-.638.13-.02.26-.04.399-.05 1.037-.14 1.525-.638 1.485-1.685-.05-1.077-.19-2.144-.309-3.22-.259-2.264-.548-4.518-.797-6.771-.05-.459-.16-.638-.678-.628-1.865.04-3.72.03-5.584.01-.469-.01-.758.08-.798.598-.01.16-.14.31-.11.439.669 0 1.337-.01 1.995 0 .668.01 1.326.03 1.974.18 1.725.398 2.393 1.435 1.964 3.16-.419 1.675-.887 3.33-1.336 4.996-.06.209-.09.418-.15.628-.139.498-.498.787-1.017.787-.667.01-1.326 0-1.994 0-.279 0-.518-.09-.558-.379-.05-.379-.22-.229-.389-.13-.838.49-1.745.709-2.702.779-.588.04-1.167.01-1.725-.16-1.526-.449-2.134-1.725-1.526-3.19.519-1.237 1.516-1.945 2.712-2.394 1.476-.558 3.022-.738 4.587-.807.37-.02.648-.05.668-.519.02-.449-.21-.628-.608-.688-1.197-.17-2.343.03-3.48.389-.668.21-.927.15-1.087-.27-.379-1.016-.259-1.465.439-1.744.23-.09.558-.06.658-.3.16-.378.24-.787.35-1.186.049-.19-.11-.16-.22-.16-.828 0-1.665.01-2.493-.01-.31-.01-.29.24-.339.4-.489 1.794-.967 3.58-1.446 5.374-.369 1.356-.728 2.722-1.097 4.078-.199.738-.478.937-1.246.937H42.45c-.588-.01-.788-.249-.638-.817.558-2.084 1.127-4.158 1.685-6.242.339-1.266.668-2.533.997-3.8.16-.498.31-.956.369-1.425zm30.55 7.827a6.103 6.103 0 0 0-2.412.32c-.399.129-.768.328-1.007.687-.399.579-.14 1.147.558 1.217.28.03.569.01.838-.02 1.146-.12 1.585-.489 1.854-1.596.05-.169.1-.348.17-.608zm-22.025 0c-.478-.01-.997.11-1.505.25-.49.13-.938.339-1.237.767-.389.549-.15 1.117.509 1.207.777.1 1.495-.09 2.193-.449.519-.27.409-.798.559-1.206.219-.599.189-.609-.519-.569z" fill="#2B2628"/>
    <path d="M42.001 4.915h-1.047c-.418 0-.628-.2-.568-.619.1-.668.3-1.326.528-1.964.14-.369.49-.498.848-.508.698-.02 1.396-.02 2.084 0 .399.01.608.269.518.658-.14.598-.289 1.196-.478 1.774-.13.4-.439.659-.898.659h-.987z" fill="#F0742F"/>
    <path d="M7.213 19.662c-.28.459-.599.908-.968 1.466-.08-.519-.14-.907-.219-1.296-.03-.16.07-.39-.2-.449-.259-.05-.388.1-.518.29-.309.458-.628.907-.997 1.455-.07-.558-.15-.997-.18-1.446-.02-.28-.159-.329-.388-.309-.3.02-.18.22-.17.359.09.708.18 1.416.29 2.124.02.12-.01.309.129.349.18.05.23-.16.31-.27.388-.548.777-1.106 1.235-1.764l.29 1.814c.02.1.01.22.13.24.089.02.139-.07.189-.14.588-.877 1.176-1.755 1.775-2.652-.35-.12-.539-.04-.708.23zM13.963 19.784c-.24.219-.499.608-.738.608-.29 0-.339-.499-.528-.758a.076.076 0 0 1-.02-.04c-.07-.2-.22-.21-.4-.21-.209 0-.229.15-.268.29-.19.718-.39 1.436-.569 2.164-.03.12-.17.309.07.368.19.04.379.03.439-.249.12-.528.279-1.047.438-1.625.07.05.1.07.12.09.2.239.22.698.509.738.279.03.468-.37.707-.559.06-.05.12-.14.21-.1.12.06.08.17.05.26-.1.389-.21.768-.3 1.146-.03.11-.129.28.1.31.15.01.35.07.41-.16.219-.867.448-1.745.667-2.622-.458-.05-.458-.05-.897.349zM17.064 19.356a2.01 2.01 0 0 0-1.955 1.475c-.18.668.18 1.237.858 1.376.917.18 1.974-.458 2.223-1.356.23-.867-.229-1.485-1.126-1.495zm-.698 2.422c-.459-.02-.778-.328-.748-.747.03-.628.658-1.217 1.286-1.217.519 0 .788.27.778.748-.02.668-.638 1.236-1.316 1.216zM23.465 19.384c-.399-.01-.797.01-1.196-.01-.25-.01-.35.1-.41.32-.129.528-.278 1.056-.408 1.585-.23.917-.23.917.698.917.22 0 .429-.01.648 0 .18.01.29-.05.29-.25.01-.229-.16-.159-.28-.169-.13-.01-.27 0-.399 0-.578 0-.628-.07-.409-.608.07-.18.18-.21.35-.21.249.01.498 0 .747 0 .16 0 .24-.08.26-.239.02-.23-.15-.17-.27-.17-.15-.01-.299.02-.448-.01-.14-.03-.43.15-.39-.169.03-.23-.04-.608.41-.598.269.01.528 0 .797 0 .21.01.26-.14.26-.29.02-.159-.15-.099-.25-.099zM9.875 19.383c-.399-.01-.798.01-1.197-.01-.229-.01-.319.08-.369.29-.13.547-.289 1.086-.428 1.634-.24.898-.24.898.668.898h.698c.15 0 .259-.03.269-.21.02-.21-.12-.2-.25-.2h-.448c-.568 0-.558 0-.399-.547.06-.23.18-.29.389-.27.22.02.429-.01.648.01.21.01.33-.08.32-.279-.01-.22-.19-.12-.31-.13-.2-.01-.399 0-.598-.01-.07 0-.16.03-.2-.08-.1-.258.16-.667.43-.677.248-.01.498-.01.747 0 .19.01.26-.08.29-.26.029-.249-.16-.16-.26-.16zM21.351 19.324c-.907.21-.987 1.276-1.675 1.775-.08-.509-.17-.977-.23-1.456-.039-.289-.229-.279-.438-.259-.27.03-.14.23-.12.34.12.737.26 1.465.39 2.203.02.11.01.259.139.299.13.03.2-.1.26-.19.597-.857 1.196-1.705 1.794-2.562-.04-.06-.08-.1-.12-.15z" fill="#363535"/>
    <path d="M29.527 13.519c-.568-.23-1.116-.499-1.685-.738-.349-.14-.787-.429-1.056-.32-.33.13-.26.689-.39 1.058-.02.05-.03.09-.05.14-.298 1.116-.617 2.233-.887 3.36-.16.658.03.857.688.857h1.795c.558-.01.878-.26 1.037-.808.28-.987.529-1.984.818-2.971.08-.29.03-.459-.27-.578zM32.469 15.453c-.18.648-.35 1.217-.479 1.795-.09.389.11.608.499.628.429.02.857.01 1.286.01.27 0 .31-.13.22-.349-.31-.798-.788-1.476-1.526-2.084z" fill="#F0742F"/>
    <path d="M43.866 5.622c-3.74 0-7.478 0-11.218.01-.438 0-.598-.07-.448-.548.249-.808.458-1.626.658-2.453.15-.618 0-.798-.618-.818-.599-.01-1.197-.01-1.795 0-.658 0-.947.22-1.117.838-.24.847-.479 1.695-.678 2.552-.08.32-.21.43-.528.43-2.513-.01-5.016-.01-7.528 0-.42 0-.47-.14-.37-.51.25-.847.47-1.694.679-2.552.13-.528-.06-.758-.599-.768-.578-.01-1.166 0-1.744 0-.758 0-1.037.2-1.247.948-.22.787-.458 1.565-.618 2.363-.09.418-.27.518-.668.508-3.36-.01-6.71-.01-10.07 0-.2 0-.4-.01-.599.03-.359.07-.658.528-.618.917.05.44.369.44.708.43.269-.01.528 0 .797.01.12 0 .22.019.24.179.06.508-.439 1.356-.908 1.525-.787.28-.917.648-.578 1.675.17.529.379.579 1.167.34 1.116-.35 2.263-.52 3.44-.37.398.05.618.28.588.708-.03.429-.29.479-.648.499-1.366.07-2.722.2-4.028.608-1.247.389-2.384.957-3.072 2.144-1.017 1.755-.299 3.38 1.696 3.729 1.346.24 2.642.04 3.858-.618.25-.13.489-.33.609.14.06.229.289.288.528.288.668 0 1.326.01 1.994 0 .479-.01.818-.259.957-.718.11-.349.2-.697.29-1.056.398-1.476.817-2.942 1.196-4.418.499-1.964-.15-2.99-2.114-3.4-.967-.199-1.944-.16-2.931-.11-.938.05-.957.24-.658-.807.07-.26.18-.359.438-.359.33.01.668 0 .997 0 2.114 0 4.218.01 6.332-.01.419 0 .538.11.399.519-.13.359-.19.738-.31 1.096-.119.34 0 .4.31.39.927-.02 1.864-.02 2.792-.01.259 0 .379-.09.438-.35.09-.438.25-.857.35-1.296.06-.26.189-.349.448-.349 2.563.01 5.115.01 7.678 0 .309 0 .379.12.299.399-.18.658-.35 1.316-.549 1.964-.09.29-.04.41.28.469 1.037.21 2.084.429 3.11.698 1.865.498 3.68 1.127 5.385 2.044.309.17.498.2.558-.24.04-.338.17-.677.23-1.016.249-1.576-.35-2.673-1.715-3.042-.758-.209-1.546-.179-2.314.01-.678.17-1.256.549-1.944.988.19-.708.369-1.277.489-1.855.07-.32.199-.429.528-.429 2.323.01 4.656.02 6.98 0 .408 0 .508.1.398.519-.438 1.545-.757 3.13-1.276 4.656-.339 1.007-.19 1.635.698 2.214.738.478 1.207 1.246 1.665 2.074.08-.25.13-.4.18-.559.698-2.562 1.396-5.125 2.084-7.687.349-1.277.339-1.277 1.665-1.187.16-.449.299-.907.369-1.386-.33.03-.658.01-.997.01zm-34.43 8.396c-.14.418-.06.947-.558 1.216-.708.389-1.446.608-2.244.479-.638-.1-.847-.648-.488-1.197.239-.369.588-.578.997-.708.598-.19 1.216-.359 1.814-.339.629-.02.659-.01.48.549z" fill="#F0742F"/>
    <path d="M25.51 12.004c-.52-.13-1.028-.29-1.546-.41-.708-.159-1.416-.288-2.234-.458.28.379.439.678.499 1.027.21 1.326-.967 2.971-2.293 3.2-1.366.23-2.184-.647-1.915-2.003.2-.957.728-1.655 1.546-2.164.269-.08.528-.16.937-.28-.738-.119-1.326-.268-1.945-.229-.09-.01-.189-.03-.279-.04l-.299-.01c-.758-.129-1.515-.149-2.273-.219-.34-.03-.459.1-.539.419-.548 2.084-1.116 4.168-1.675 6.252-.14.538.04.788.608.798.579.01 1.167-.01 1.745.01.499.02.878-.15 1.107-.609.08-.16.13-.25.31-.08 1.006 1.018 2.253 1.127 3.559.828 2.543-.588 4.706-3.021 5.045-5.584.01-.289-.11-.389-.359-.448zM24.682 8.95c0-.03-.01-.039-.04-.049-.578-.578-1.316-.738-2.084-.758-1.037-.03-2.004.2-2.862.828 1.775.11 3.54.24 5.365.438-.11-.259-.22-.388-.38-.458zM49.589 19.423c-.319-.22-.548.15-.788.339-.01.01-.03.02-.04.03-.708.648-.717.658-1.236-.16-.11-.17-.21-.279-.429-.259-.269.02-.249.22-.299.389-.17.618-.349 1.246-.498 1.875-.04.179-.28.428.04.548.339.12.388-.16.458-.419.14-.458.2-.947.459-1.456.14.24.27.4.339.579.14.369.309.269.538.09.21-.18.34-.46.648-.509l.01.01c.07.449-.199.828-.249 1.256-.02.16-.21.36.08.439.28.08.369-.11.429-.339.14-.558.319-1.117.448-1.685.06-.24.32-.578.09-.728zM30.535 19.382c-.14-.01-.31-.05-.38.15-.039.11-.089.22-.099.329-.03.578-.279.867-.808.718-.807 0-.807 0-.638-.688.01-.03.02-.07.02-.1-.01-.14.19-.339-.09-.409-.229-.05-.368.04-.428.29-.19.757-.38 1.505-.598 2.253-.06.23.04.26.209.26.379.01.369-.32.399-.53.06-.548.329-.747.847-.647.06.01.13 0 .2 0 .578 0 .588.01.428.588-.01.05-.04.09-.05.14-.02.15-.229.348.08.438.23.06.37-.05.43-.289.189-.738.388-1.476.578-2.204.04-.12.12-.279-.1-.299zM39 19.671c-.03-.23-.13-.319-.369-.29-.24-.049-.339.12-.459.3-.468.708-.947 1.396-1.405 2.104-.07.11-.33.24-.1.389.14.09.379.07.468-.14.23-.538.678-.528 1.157-.508.28.01.499.03.499.378 0 .25.15.31.359.29.259-.02.219-.2.189-.36-.1-.727-.23-1.445-.339-2.163zm-1.037 1.456c-.14-.05-.12-.13-.07-.23.17-.269.29-.578.549-.797.14.17.16.349.18.518.069.469-.22.678-.659.509zM55.791 19.404c-.08-.05-1.625-.04-1.675.03-.06.1-.09.21-.12.32l-.419 1.585c-.229.877-.229.877.698.847h.649c.17 0 .309-.04.309-.24 0-.199-.17-.169-.3-.169-.169 0-.328-.01-.498.01-.369.04-.419-.12-.33-.438.07-.26.19-.41.48-.38.209.02.428 0 .648 0 .14 0 .209-.08.219-.219.01-.17-.11-.18-.23-.19-.149-.01-.298-.02-.448 0-.379.04-.459-.099-.339-.458.08-.24.2-.309.429-.299.249.01.498 0 .748 0 .14 0 .199-.1.229-.22.02-.07.03-.129-.05-.179zM27.623 19.553c0-.21-.17-.17-.289-.17-.319-.01-.628 0-.947 0h-.947c-.18 0-.35.01-.36.24-.01.259.2.15.33.18.03.01.07 0 .1 0 .418-.04.528.109.388.518-.16.468-.269.957-.389 1.445-.04.15-.189.37.12.44.25.049.349-.1.409-.33.08-.359.18-.708.27-1.057.139-.568.179-1.236 1.076-1.027.14.03.24-.08.24-.24zM44.833 19.382c-.329-.01-.668 0-.997 0h-.848c-.17 0-.408-.06-.408.22-.01.319.259.2.398.19.47-.04.489.179.39.538-.15.508-.27 1.027-.4 1.535-.04.15-.12.3.12.34.19.029.31-.01.37-.23.089-.39.228-.758.318-1.147.14-.578.19-1.216 1.067-1.037.16.03.24-.1.24-.25.01-.179-.14-.159-.25-.159zM36.099 21.785c-.23-.01-.47-.01-.698 0-.28.01-.34-.1-.26-.358.15-.519.29-1.047.42-1.586.039-.15.209-.369-.07-.449-.29-.09-.4.09-.46.36-.11.518-.259 1.026-.398 1.535-.25.917-.25.917.718.917h.748c.179 0 .279-.11.269-.279-.01-.18-.16-.14-.27-.14zM50.816 19.393c-.15-.02-.35-.06-.41.16l-.627 2.353c-.05.19.01.29.229.27.25.029.29-.14.339-.33.18-.708.369-1.406.548-2.114.02-.12.19-.299-.08-.339zM32.928 19.383c-.4-.01-.788 0-1.187 0-.19 0-.339.02-.32.259-.218.768-.428 1.525-.647 2.293-.06.21.03.28.21.28.468 0 .926-.02 1.395-.03.14 0 .21-.09.22-.22.02-.18-.11-.18-.23-.18-.15 0-.299.02-.448-.01-.18-.04-.5.16-.49-.209.01-.29.06-.618.5-.588.179.01.368 0 .548 0 .15 0 .329.01.339-.2.02-.279-.22-.18-.36-.209-.248-.07-.577.16-.747-.19.01-.04.01-.08.02-.12.1-.109.11-.238.12-.378.349-.15.718-.06 1.077-.08.179-.01.289-.08.289-.259 0-.22-.18-.16-.29-.16zM41.872 19.403c-.27-.07-.549-.1-.818.02l-.04.02c-.03.01-.06.01-.1.02-.04.03-.08.06-.12.08-.189.04-.338.12-.378.329-.02.01-.03.03-.02.05-.18.229-.25.468-.01.707 0 .02 0 .03.02.04.03.04.07.08.1.12.04.03.08.06.11.09.07.04.139.08.209.13.2.129.508.219.359.548-.13.299-.42.269-.688.219a1.06 1.06 0 0 1-.27-.12c-.13-.06-.249-.2-.338.05-.06.18-.04.3.14.409.547.3 1.345.1 1.654-.439.29-.498.17-.767-.528-1.196-.03-.02-.06-.03-.09-.05-.28-.17-.309-.369-.06-.588 0-.03 0-.06.01-.08-.01.03-.01.05-.01.08.04-.02.08-.04.12-.05.06 0 .12-.01.19-.01.139.04.288.07.428.11.13.04.28.179.359-.06.07-.23-.02-.38-.23-.43zM52.77 21.806c-.37-.11-.778.11-1.117-.14l.06-.308c.15-.509.3-1.008.429-1.526.04-.15.17-.379-.1-.449-.24-.07-.349.07-.409.31-.18.757-.379 1.505-.568 2.253-.12.409.15.249.329.23h.967c.11.059.21.069.32 0 .159.039.238-.04.268-.19.02-.13-.02-.22-.18-.18z" fill="#F0742F"/>
    <path d="M40.406 17.877s-.31-8.067-24.947-8.156c.04.09 19.852-.13 23.401 8.156h1.546z" fill="#252324"/>
    <path d="M36.816 17.877S34.952 9.72 15.458 9.72c.04.09 16.313.22 19.763 8.156h1.595z" fill="#252324"/>
</svg>
