<svg width="149" height="25" viewBox="0 0 149 25" fill="none" xmlns="http://www.w3.org/2000/svg">
<g clip-path="url(#clip0_8828_87726)">
<path fill-rule="evenodd" clip-rule="evenodd" d="M40.3332 19.7489C36.5555 22.5217 31.0791 24.0007 26.3646 24.0007C19.7534 24.0007 13.8021 21.5664 9.29945 17.5176C8.94581 17.1988 9.26251 16.7648 9.68707 17.0129C14.5464 19.8279 20.5542 21.5212 26.7606 21.5212C30.9461 21.5212 35.5507 20.6591 39.7845 18.8696C40.4238 18.5994 40.9587 19.2865 40.3332 19.7489Z" fill="#16B0E6"/>
<path fill-rule="evenodd" clip-rule="evenodd" d="M41.9044 17.9606C41.4227 17.3461 38.7118 17.6702 37.4947 17.8134C37.1239 17.859 37.0672 17.5378 37.4012 17.3069C39.5609 15.7935 43.1037 16.2304 43.5169 16.7375C43.9306 17.2475 43.4095 20.7833 41.3803 22.4718C41.069 22.7307 40.772 22.5929 40.9104 22.2492C41.366 21.1163 42.388 18.5775 41.9039 17.9606" fill="#16B0E6"/>
<path fill-rule="evenodd" clip-rule="evenodd" d="M37.5799 6.62446V5.15325C37.5799 4.93109 37.7494 4.78152 37.9533 4.78152H44.5669C44.7792 4.78152 44.9492 4.93354 44.9492 5.15374V6.4131C44.9462 6.62397 44.7679 6.90056 44.4507 7.33751L41.0237 12.2092C42.2974 12.1783 43.6415 12.3671 44.7965 13.0154C45.0565 13.1616 45.1274 13.3759 45.1471 13.5872V15.1565C45.1471 15.3708 44.9093 15.6214 44.6605 15.492C42.6254 14.4298 39.9229 14.314 37.673 15.5033C37.444 15.6273 37.2032 15.3792 37.2032 15.1649V13.6745C37.2032 13.4352 37.2061 13.0267 37.4465 12.6628L41.4172 6.99374H37.9616C37.7499 6.99374 37.5794 6.84416 37.5794 6.62446H37.5799ZM13.4539 15.8019H11.4414C11.2489 15.7882 11.0962 15.644 11.0819 15.4611V5.17875C11.0819 4.97278 11.2543 4.80996 11.4695 4.80996H13.346C13.5411 4.8183 13.6967 4.96738 13.7105 5.15325V6.49745H13.7475C14.237 5.19836 15.1571 4.59271 16.3968 4.59271C17.6562 4.59271 18.4427 5.19836 19.0087 6.49745C19.4953 5.19836 20.602 4.59271 21.7875 4.59271C22.6312 4.59271 23.5537 4.93943 24.1172 5.71721C24.7535 6.58229 24.6235 7.83871 24.6235 8.94065L24.621 15.4302C24.621 15.6362 24.4486 15.8019 24.2334 15.8019H22.2239C22.0229 15.7882 21.8619 15.6273 21.8619 15.4302V9.98031C21.8619 9.5463 21.9013 8.46447 21.8052 8.05301C21.655 7.36252 21.2053 7.16832 20.6222 7.16832C20.1356 7.16832 19.6263 7.49199 19.4194 8.01084C19.2126 8.5292 19.2328 9.39722 19.2328 9.98031V15.4302C19.2328 15.6362 19.0604 15.8019 18.8451 15.8019H16.8356C16.6322 15.7882 16.4736 15.6273 16.4736 15.4302L16.4707 9.98031C16.4707 8.83374 16.6603 7.14576 15.231 7.14576C13.7849 7.14576 13.842 8.79108 13.842 9.98031V15.4302C13.842 15.6362 13.6691 15.8019 13.4539 15.8019V15.8019ZM50.6428 4.59271C53.6285 4.59271 55.2445 7.14576 55.2445 10.3918C55.2445 13.5279 53.4591 16.0162 50.6428 16.0162C47.7113 16.0162 46.115 13.4632 46.115 10.2819C46.115 7.08103 47.7305 4.5932 50.6428 4.5932V4.59271ZM50.66 6.69214C49.1775 6.69214 49.0839 8.70378 49.0839 9.95824C49.0839 11.2147 49.0642 13.8972 50.6428 13.8972C52.2021 13.8972 52.276 11.733 52.276 10.4143C52.276 9.5463 52.2391 8.50958 51.9756 7.68668C51.7495 6.97069 51.2993 6.69214 50.66 6.69214V6.69214ZM59.1162 15.8019H57.1126C56.9117 15.7882 56.7501 15.6273 56.7501 15.4302L56.7472 5.14491C56.7644 4.9561 56.9314 4.80996 57.1348 4.80996H59C59.1754 4.8183 59.3202 4.93649 59.3596 5.09734V6.66958H59.396C59.9595 5.26359 60.749 4.59222 62.1384 4.59222C63.0412 4.59222 63.9214 4.91589 64.4878 5.80352C65.0138 6.62741 65.0138 8.01133 65.0138 9.00587V15.4782C64.9911 15.6587 64.8242 15.8024 64.6262 15.8024H62.6083C62.4246 15.7887 62.2714 15.6533 62.2517 15.4787V9.89253C62.2517 8.76852 62.3817 7.12272 60.9923 7.12272C60.5027 7.12272 60.0525 7.44933 59.8294 7.94562C59.5462 8.57383 59.5093 9.19958 59.5093 9.89253V15.4302C59.5068 15.6362 59.331 15.8029 59.1162 15.8029V15.8019ZM32.3074 10.8905C32.3074 11.6712 32.3271 12.3225 31.9311 13.0154C31.611 13.5789 31.1017 13.9251 30.5387 13.9251C29.766 13.9251 29.3133 13.3391 29.3133 12.474C29.3133 10.7664 30.85 10.4565 32.3074 10.4565V10.8905V10.8905ZM34.3366 15.774C34.2037 15.8921 34.0111 15.9005 33.8609 15.8215C33.193 15.2693 33.0713 15.0129 32.7064 14.4862C31.6031 15.6077 30.819 15.9427 29.3897 15.9427C27.6944 15.9427 26.3784 14.903 26.3784 12.8207C26.3784 11.195 27.2615 10.0877 28.5238 9.5463C29.6162 9.06766 31.1416 8.98282 32.3074 8.85041V8.59148C32.3074 8.11481 32.3444 7.55182 32.0612 7.13988C31.8178 6.77109 31.348 6.61858 30.9318 6.61858C30.1649 6.61858 29.4833 7.0109 29.3163 7.82203C29.2818 8.0025 29.1488 8.18003 28.9651 8.18837L27.0152 7.97994C26.8512 7.94316 26.667 7.81075 26.7152 7.56016C27.163 5.20425 29.302 4.49414 31.215 4.49414C32.1941 4.49414 33.4732 4.75357 34.246 5.49163C35.2252 6.40182 35.1316 7.61606 35.1316 8.93771V12.0601C35.1316 12.9983 35.5222 13.4097 35.8901 13.9168C36.0176 14.0973 36.0457 14.314 35.8817 14.4494C35.4714 14.7902 34.741 15.4243 34.3391 15.7794L34.3366 15.774V15.774ZM5.92906 10.8905C5.92906 11.6712 5.94876 12.3225 5.55228 13.0154C5.23262 13.5789 4.72631 13.9251 4.1599 13.9251C3.38761 13.9251 2.93744 13.3391 2.93744 12.474C2.93744 10.7664 4.47413 10.4565 5.92906 10.4565V10.8905V10.8905ZM7.95828 15.774C7.8253 15.8921 7.63272 15.9005 7.4825 15.8215C6.81463 15.2693 6.69593 15.0129 6.32801 14.4862C5.22425 15.6077 4.4431 15.9427 3.01132 15.9427C1.31899 15.9432 0 14.9035 0 12.8212C0 11.1955 0.885567 10.0882 2.14496 9.54679C3.23739 9.06815 4.76275 8.98331 5.92906 8.8509V8.59197C5.92906 8.1153 5.96551 7.55231 5.68526 7.14037C5.43899 6.77158 4.96961 6.61907 4.55638 6.61907C3.78952 6.61907 3.10441 7.01139 2.93744 7.82252C2.90346 8.00299 2.77047 8.18052 2.58922 8.18886L0.63684 7.98043C0.472828 7.94365 0.291577 7.81124 0.336397 7.56065C0.787061 5.20425 2.92365 4.49414 4.83663 4.49414C5.81578 4.49414 7.09488 4.75357 7.86765 5.49163C8.8468 6.40182 8.75322 7.61606 8.75322 8.93771V12.0601C8.75322 12.9983 9.1438 13.4097 9.51171 13.9168C9.64174 14.0973 9.67031 14.314 9.5058 14.4494C9.09553 14.7902 8.3656 15.4243 7.9637 15.7794L7.95779 15.774" fill="#384852"/>
<path d="M115.075 4.48314C114.269 4.573 113.582 4.93243 112.898 5.3315C112.594 5.50857 112.277 5.86535 112.047 5.1465C111.838 4.48843 111.14 4.72364 110.662 4.77914C110.067 4.84786 110.316 5.40021 110.313 5.74114C110.297 10.0912 110.324 14.4387 110.284 18.7888C110.276 19.5896 110.49 19.8618 111.304 19.8565C112.113 19.8512 112.382 19.5685 112.353 18.7703C112.303 17.4119 112.34 16.0508 112.34 14.5259C112.787 14.7664 113.046 14.9118 113.31 15.0492C116.132 16.5081 119.132 15.2263 119.967 12.1949C120.094 11.7324 120.171 11.2567 120.255 10.7837C120.919 7.08634 118.463 4.10786 115.075 4.48314ZM117.795 12.4962C117.087 14.2458 113.614 14.6607 112.485 13.1807C112.277 12.9085 112.34 12.5993 112.335 12.3007C112.324 11.5104 112.332 10.7229 112.332 9.93268C112.332 9.49396 112.332 9.05525 112.332 8.61654C112.332 6.70313 112.578 6.38599 114.312 6.0477C115.963 5.72792 117.324 6.29085 117.816 7.62019C118.411 9.22968 118.44 10.8973 117.795 12.4962Z" fill="#384852"/>
<path d="M90.6554 7.5983C90.5762 5.6981 89.4688 4.81803 87.5898 4.73346C86.0622 4.66475 84.8148 5.37832 83.3216 6.12624C83.3216 4.32382 83.2925 2.70376 83.3348 1.08635C83.3533 0.31464 83.1445 -0.007786 82.3014 0.000142508C81.5007 0.00542818 81.3553 0.330497 81.3579 1.02556C81.3764 5.60296 81.3738 10.1777 81.3606 14.7551C81.3579 15.4132 81.4293 15.8202 82.2724 15.8149C83.0652 15.8096 83.3586 15.5929 83.3401 14.771C83.2925 12.6593 83.3718 10.5451 83.3031 8.43608C83.274 7.53223 83.5859 7.05388 84.421 6.78695C85.0421 6.58874 85.6367 6.32181 86.308 6.29538C87.9994 6.23195 88.6363 6.81073 88.6469 8.49951C88.6601 10.6561 88.6707 12.8126 88.6416 14.9692C88.631 15.7515 89.0697 15.8043 89.6591 15.7937C90.2247 15.7858 90.7109 15.7858 90.7004 14.9877C90.6687 12.5272 90.7585 10.0588 90.6554 7.5983Z" fill="#384852"/>
<path d="M100.709 5.33816C100.17 5.68173 99.9718 5.74516 99.726 5.08974C99.4935 4.4766 98.8856 4.74352 98.4522 4.79374C97.9501 4.85188 98.1192 5.33816 98.1192 5.6553C98.1086 10.053 98.1245 14.4507 98.0981 18.8483C98.0928 19.5593 98.2513 19.8658 99.0389 19.8553C99.7842 19.8473 100.043 19.6227 100.017 18.8721C99.9665 17.4714 100.004 16.0681 100.004 14.4375C100.585 14.7678 100.942 15.0004 101.325 15.1827C103.796 16.3509 106.338 15.3862 107.456 12.894C108.017 11.6413 107.99 10.3331 107.911 9.02228C107.668 4.95495 104.15 3.14725 100.709 5.33816ZM105.498 12.6218C104.734 14.3132 101.148 14.6304 100.202 13.0632C100.128 12.939 100.072 12.8121 100.033 12.68V9.11742C100.033 9.08835 100.033 9.05663 100.033 9.02756V7.34936C100.292 6.64901 101.008 6.31337 101.861 6.08609C103.482 5.65266 104.909 6.13101 105.482 7.40486C106.254 9.12006 106.272 10.9093 105.498 12.6218Z" fill="#384852"/>
<path d="M136.686 7.53005C136.641 5.82277 135.513 4.83171 133.829 4.73921C132.405 4.65993 131.162 5.12771 129.973 5.82806C129.614 6.03949 129.228 6.30377 129.112 5.62985C128.971 4.8 128.348 5.05635 127.883 5.07485C127.166 5.10656 127.428 5.71177 127.42 6.0897C127.391 7.49569 127.407 8.90432 127.407 10.313C127.407 11.7639 127.423 13.2174 127.399 14.6683C127.388 15.3476 127.394 15.8338 128.337 15.8233C129.22 15.8127 129.341 15.4242 129.331 14.7001C129.302 12.5435 129.349 10.387 129.304 8.23304C129.289 7.54855 129.54 7.15476 130.137 6.92484C130.827 6.66055 131.498 6.34606 132.259 6.30377C134.009 6.20863 134.611 6.7002 134.654 8.43654C134.704 10.5905 134.696 12.747 134.672 14.9036C134.664 15.7281 135.111 15.8021 135.769 15.8101C136.424 15.818 136.731 15.6356 136.72 14.9221C136.689 12.4563 136.749 9.99053 136.686 7.53005Z" fill="#384852"/>
<path d="M76.9579 9.79492C76.0329 9.40378 75.0815 9.07607 74.175 8.64529C73.5883 8.36779 73.1972 7.87358 73.3134 7.15737C73.4271 6.45702 73.9081 6.12931 74.5635 5.98395C75.5387 5.76724 76.4901 5.93374 77.4336 6.15838C77.801 6.24559 78.2291 6.54952 78.3745 5.92845C78.4934 5.4131 78.3454 4.96118 77.7666 4.78675C77.0081 4.55682 76.2364 4.39825 75.3722 4.46432C75.1714 4.46432 74.9071 4.44846 74.6428 4.46696C72.9567 4.58325 71.7938 5.51353 71.5084 6.9618C71.2388 8.33343 71.9603 9.52271 73.5672 10.2468C74.36 10.6036 75.2031 10.8547 76.0091 11.1877C76.7386 11.489 77.3464 11.9171 77.2116 12.8474C77.0742 13.8041 76.3712 14.1345 75.5387 14.2402C74.4789 14.375 73.4403 14.1503 72.4069 13.9389C72.0317 13.8623 71.5427 13.4077 71.3842 14.1794C71.2705 14.7317 71.5084 15.107 72.0581 15.2815C73.5909 15.7677 75.1344 16.0294 76.7148 15.5114C78.1155 15.0515 79.0008 13.96 79.0458 12.6465C79.096 11.3172 78.4538 10.4266 76.9579 9.79492Z" fill="#384852"/>
<path d="M94.4269 5.03486C93.7927 5.05601 93.3355 5.05865 93.3434 5.90964C93.3777 8.89869 93.3751 11.8851 93.3434 14.8741C93.3355 15.6829 93.7239 15.8018 94.4005 15.8071C95.1114 15.8124 95.4497 15.6089 95.4286 14.8345C95.3889 13.3413 95.418 11.8455 95.418 10.3523C95.418 8.90133 95.3863 7.45042 95.4312 6.00214C95.4576 5.23836 95.1564 5.01108 94.4269 5.03486Z" fill="#384852"/>
<path d="M123.652 5.03711C122.967 5.03711 122.597 5.14811 122.629 5.95946C122.684 7.40509 122.645 8.85337 122.645 10.299C122.645 11.7896 122.666 13.2801 122.634 14.7707C122.621 15.442 122.727 15.8305 123.551 15.8067C124.259 15.7882 124.577 15.6322 124.569 14.8579C124.537 11.8768 124.534 8.89301 124.571 5.91189C124.579 5.19304 124.31 5.03975 123.652 5.03711Z" fill="#384852"/>
<path d="M94.3423 0.158634C93.5706 0.214133 93.1028 0.613202 93.1425 1.40605C93.1821 2.18569 93.7318 2.60854 94.4454 2.57683C95.159 2.54512 95.706 2.03769 95.6743 1.30034C95.6426 0.565631 95.1272 0.142777 94.3423 0.158634Z" fill="#384852"/>
<path d="M123.72 0.172767C122.991 0.133125 122.409 0.326052 122.409 1.24312C122.283 2.05182 122.779 2.49846 123.48 2.56718C124.172 2.63325 124.748 2.28704 124.817 1.47304C124.886 0.682835 124.526 0.215053 123.72 0.172767Z" fill="#384852"/>
<path d="M148.653 15.6016C148.65 14.851 148.65 14.1005 148.647 13.3525V7.18944H148.634C148.632 6.55252 148.632 5.91559 148.629 5.27867C148.114 4.91131 147.276 4.84524 147.12 5.26281C146.716 6.35695 146.319 5.65659 145.899 5.41081C143.251 3.86211 140.449 4.87167 139.398 7.75765C138.898 9.124 138.911 10.5538 139.186 11.9228C139.746 14.711 142.109 16.0826 144.638 15.3505C144.638 15.3505 144.646 15.3479 144.657 15.3426C144.889 15.2739 145.122 15.1893 145.354 15.0836C145.843 14.9012 146.433 14.6713 146.615 14.5709C147.019 17.6577 145.851 18.9712 142.794 18.8126C142.059 18.7756 141.287 18.6884 140.616 18.4215C139.701 18.0594 139.905 18.6779 139.878 19.1086C139.847 19.6028 140.209 19.7535 140.552 19.9068C140.552 19.9068 140.56 19.9094 140.571 19.9147C140.621 19.9385 140.671 19.9596 140.722 19.9834C140.867 20.0548 141.02 20.1023 141.179 20.1367C141.517 20.2451 141.974 20.364 142.508 20.438C142.942 20.4988 143.428 20.5278 143.938 20.4961C144.659 20.4512 145.428 20.2847 146.184 19.9041C146.182 19.9041 146.182 19.9041 146.179 19.9041C147.63 19.1958 148.383 17.8797 148.653 15.6016ZM146.655 12.3271C146.462 13.3525 145.883 13.7727 144.596 13.9762C143.013 14.2247 141.71 13.4926 141.269 12.0575C140.872 10.7652 140.877 9.45171 141.29 8.16465C141.588 7.22908 142.188 6.51552 143.193 6.35695C144.398 6.16666 145.701 6.25123 146.496 7.20265C146.562 7.28194 146.612 7.36387 146.655 7.44844V12.3271Z" fill="#384852"/>
</g>
<defs>
<clipPath id="clip0_8828_87726">
<rect width="148.653" height="24.0014" fill="white"/>
</clipPath>
</defs>
</svg>
