<svg width="89" height="24" viewBox="0 0 89 24" fill="none" xmlns="http://www.w3.org/2000/svg">
<g clip-path="url(#clip0_1_86383)">
<path d="M17.8119 8.9903C17.1747 7.39422 16.1085 6.22602 14.4503 5.66977C13.3068 5.28643 12.1251 5.29463 10.9422 5.40424C9.00443 5.58361 7.69028 6.59295 6.98984 8.40884C6.82278 8.842 6.72021 9.2951 6.58305 9.79332C6.49571 9.63389 6.51857 9.51666 6.51799 9.40646C6.51564 8.45866 6.51682 7.51145 6.51682 6.56365C6.51682 5.16685 6.52561 3.77006 6.51388 2.37327C6.50216 0.971792 5.51978 0.00581923 4.12357 0.00113005C3.49815 -0.00121454 2.87332 0.0005439 2.2479 0.00230234C1.65413 0.00406079 1.13832 0.207454 0.715707 0.624206C0.189346 1.14236 0.00119242 1.7924 0.00119242 2.51336C0.00177857 8.13042 0.00119242 13.7469 0.00177857 19.3639C0.00177857 20.1259 -0.00349676 20.8879 0.00412316 21.6499C0.0170184 22.8803 0.842315 23.8128 2.05916 23.8984C2.89501 23.9576 3.73906 23.9564 4.57666 23.8896C5.27477 23.8339 5.79996 23.4734 6.17157 22.8826C6.41834 22.4905 6.51975 22.0614 6.51799 21.6019C6.51506 20.9811 6.5174 20.361 6.5174 19.7403C6.54202 19.7373 6.56664 19.7344 6.59067 19.7309C6.71552 20.0462 6.82923 20.3663 6.96639 20.6763C7.61877 22.1569 8.63515 23.2612 10.2236 23.7401C11.23 24.0438 12.2658 24.0379 13.3015 23.9406C15.0992 23.7712 16.4696 22.9207 17.3699 21.3451C18.0938 20.0785 18.3617 18.6846 18.4561 17.2521C18.5534 15.7697 18.5071 14.2832 18.4942 12.7997C18.4813 11.4967 18.3002 10.2136 17.8119 8.9903ZM12.2511 15.7269C12.0219 16.881 11.3672 17.49 10.2054 17.6635C9.86607 17.7139 9.5261 17.7345 9.18379 17.7263C8.78169 17.7403 8.38546 17.6999 7.99215 17.6149C7.06838 17.4156 6.48692 16.8588 6.28411 15.9391C6.0901 15.061 6.09362 14.1765 6.30873 13.2985C6.5344 12.3788 7.12934 11.8343 8.03963 11.6356C8.82155 11.465 9.61109 11.4668 10.3936 11.635C11.4035 11.8525 12.0219 12.4779 12.2329 13.4866C12.3883 14.2299 12.3994 14.9813 12.2511 15.7269Z" fill="#1E51F5"/>
<path d="M38.3395 13.2983C38.3472 12.6811 38.278 12.0697 38.152 11.4666C37.6919 9.27085 36.5647 7.54874 34.57 6.44444C33.3772 5.78444 32.0871 5.44858 30.7401 5.39113C29.0356 5.31845 27.3223 5.23346 25.6406 5.65255C22.8142 6.35769 20.9298 8.06221 20.118 10.8915C19.7627 12.1289 19.7733 13.3991 19.7962 14.6704C19.8085 15.4993 19.7616 16.3298 19.8659 17.1575C20.2539 20.2336 22.0182 22.5688 25.0557 23.5225C26.8153 24.0746 28.6218 24.0002 30.4265 23.9632C31.0021 23.9515 31.5742 23.8777 32.1393 23.7622C35.6814 23.0359 37.9029 20.5999 38.278 17.0168C38.4081 15.7794 38.3243 14.538 38.3395 13.2983ZM32.066 15.9371C31.8151 16.9623 31.1469 17.5373 30.1294 17.7202C29.4436 17.8433 28.7525 17.8397 28.0632 17.7278C26.9694 17.549 26.3089 16.9541 26.0627 15.8744C25.8733 15.0456 25.8851 14.2074 26.0791 13.3797C26.3047 12.4185 26.9267 11.847 27.8821 11.6383C28.6745 11.4654 29.4723 11.4707 30.2642 11.6377C31.3052 11.8575 31.9476 12.565 32.1211 13.6412C32.1774 13.9893 32.2002 14.3387 32.1938 14.6587C32.1973 15.1101 32.1662 15.5262 32.066 15.9371Z" fill="#1E51F5"/>
<path d="M88.108 14.6781C88.0869 13.8786 88.125 13.0797 88.0483 12.279C87.7347 9.0071 85.6966 6.54528 82.4963 5.71822C80.3093 5.15318 78.0685 5.16783 75.8699 5.56758C72.6115 6.16018 70.4738 8.08157 69.788 11.3781C69.3636 13.4173 69.4035 15.5116 69.7165 17.5578C70.193 20.6779 72.0288 22.703 75.0756 23.5934C76.7538 24.0834 78.477 23.9984 80.1939 23.9627C80.8679 23.9486 81.5362 23.8601 82.1921 23.6995C85.1398 22.9774 87.0688 21.2002 87.8408 18.2296C88.1444 17.0614 88.1221 15.8697 88.108 14.6781ZM81.8867 15.6962C81.6886 16.8134 81.0737 17.484 79.9664 17.7038C79.1658 17.8626 78.3569 17.8615 77.5574 17.6669C76.6231 17.4394 76.0516 16.8462 75.8388 15.9131C75.6454 15.0632 75.6495 14.2074 75.8493 13.3616C76.0709 12.4255 76.6828 11.8616 77.6095 11.6454C78.3399 11.4748 79.0825 11.4648 79.8187 11.5967C81.1382 11.8329 81.8286 12.6201 81.9365 13.9759C81.9552 14.2092 81.9629 14.4436 81.9746 14.6628C81.9511 15.0175 81.947 15.358 81.8867 15.6962Z" fill="#1E51F5"/>
<path d="M67.7638 17.9385C67.3517 17.7105 66.9022 17.6308 66.4391 17.6279C65.4919 17.622 64.5441 17.6208 63.5963 17.6285C62.6561 17.6355 61.7253 17.7211 60.825 18.0177C60.757 18.0399 60.6761 18.098 60.6233 17.9831C60.6732 17.9391 60.7218 17.8916 60.7746 17.8489C62.9849 16.0494 65.1924 14.247 67.4074 12.4539C68.2439 11.7769 68.7989 10.9499 68.8365 9.84852C68.8617 9.09766 68.8921 8.34153 68.8353 7.59419C68.7386 6.32049 67.8394 5.43306 66.6472 5.42896C62.8765 5.41431 59.1058 5.41431 55.3351 5.42896C54.1165 5.43365 53.2039 6.29822 53.1318 7.49513C53.0908 8.17624 53.1165 8.86203 53.1294 9.54548C53.1365 9.92237 53.2543 10.2758 53.4612 10.5935C53.9125 11.2863 54.5907 11.5642 55.3814 11.5841C56.27 11.6064 57.1592 11.5941 58.0478 11.5935C58.7717 11.5929 59.4909 11.5401 60.2013 11.3918C60.4053 11.3491 60.5987 11.2482 60.8478 11.3227C60.7886 11.3719 60.7288 11.42 60.6708 11.4704C58.6246 13.2523 56.5819 15.0389 54.5297 16.8137C53.7425 17.4948 53.1382 18.2785 53.0726 19.3547C53.0286 20.085 53.0456 20.8189 53.0491 21.5516C53.055 22.9396 54.0227 23.9002 55.4148 23.902C57.6615 23.9049 59.9082 23.9026 62.1549 23.9026C63.6397 23.9026 65.1244 23.909 66.6091 23.9002C67.833 23.8926 68.7304 23.1107 68.8312 21.8968C68.8939 21.1407 68.874 20.3728 68.8329 19.6132C68.7948 18.8729 68.4226 18.3031 67.7638 17.9385Z" fill="#1E51F5"/>
<path d="M50.6392 5.46125C50.3274 5.41084 50.0155 5.42256 49.7037 5.43018C48.5097 5.45949 47.566 5.91199 47.0355 7.04209C46.8187 7.50397 46.6932 7.99458 46.5889 8.49105C46.4998 8.91424 46.4037 9.33627 46.3105 9.7583C46.2841 9.75244 46.2583 9.74657 46.2319 9.74071C46.2319 9.1065 46.2366 8.47229 46.2308 7.83808C46.2185 6.55324 45.3556 5.55737 44.0837 5.44835C43.3276 5.38387 42.5615 5.42783 41.8001 5.44014C41.5885 5.44366 41.3769 5.49993 41.1746 5.58199C40.2438 5.9583 39.7263 6.76542 39.7251 7.87383C39.7216 10.5988 39.7239 13.3244 39.7239 16.0494C39.7239 17.9052 39.7403 19.7615 39.7187 21.6172C39.7058 22.7051 40.5275 23.9613 42.0017 23.9056C42.6652 23.8804 43.3299 23.905 43.994 23.8997C44.1787 23.898 44.3674 23.8909 44.5462 23.8499C45.5461 23.6189 46.2267 22.7216 46.2296 21.6278C46.2343 19.6841 46.2302 17.7399 46.2319 15.7962C46.2325 15.1321 46.2196 14.4668 46.2483 13.8039C46.3093 12.4147 47.0338 11.7031 48.4147 11.6205C49.0103 11.5847 49.6058 11.5988 50.2013 11.5912C51.2072 11.5789 52.0477 10.8456 52.0987 9.84739C52.1468 8.90252 52.1386 7.95237 52.0975 7.00692C52.0606 6.16814 51.4768 5.59723 50.6392 5.46125Z" fill="#1E51F5"/>
</g>
<defs>
<clipPath id="clip0_1_86383">
<rect width="88.115" height="24" fill="white"/>
</clipPath>
</defs>
</svg>
