<svg width="148" height="24" viewBox="0 0 148 24" fill="none" xmlns="http://www.w3.org/2000/svg">
<g clip-path="url(#clip0_6964_74502)">
<path d="M147.196 16.6642C145.981 13.081 144.776 9.49157 143.554 5.91141C143.398 5.45005 143.321 4.76108 142.653 4.8472C141.414 5.00714 140.094 5.04405 139.556 6.60037C138.839 8.6765 137.984 10.7065 137.218 12.7703C136.966 13.447 136.683 13.9791 135.831 13.8991C134.77 13.8007 134.755 14.3697 135.093 15.1294C135.373 15.763 135.92 16.3259 135.487 17.1163C134.629 18.6757 136.096 18.7157 136.877 19.1771C137.972 19.8261 138.2 18.9433 138.4 18.2205C138.704 17.1194 139.304 16.6119 140.488 16.7995C141.088 16.8949 141.715 16.818 142.327 16.8088C142.798 16.8026 143.032 17.0241 143.231 17.4608C144.167 19.5185 144.182 19.5093 146.261 18.8172C146.793 18.6388 147.331 18.4789 147.867 18.3097C147.867 18.2082 147.867 18.1036 147.867 18.0021C147.384 17.6823 147.356 17.1379 147.196 16.6642ZM141.924 13.9729C141.429 14.1605 140.756 14.2374 140.31 13.9083C139.854 13.5731 140.316 13.081 140.433 12.678C140.66 11.906 140.946 11.1525 141.205 10.3897C141.3 10.4143 141.395 10.4389 141.488 10.4666C141.663 11.2447 141.884 12.0168 141.998 12.8041C142.057 13.1855 142.555 13.733 141.924 13.9729Z" fill="#E4722B"/>
<path d="M114.621 8.35255C116.673 8.36485 116.67 8.36485 116.54 10.4102C116.497 11.0746 116.525 11.7482 116.417 12.3971C116.165 13.9073 116.368 15.4667 115.919 16.9492C115.688 17.7151 114.673 18.5117 115.126 19.1146C115.593 19.7389 116.75 19.3053 117.605 19.3237C118.164 19.336 118.73 19.293 119.287 19.213C121.917 18.8377 124.38 18.0657 126.257 16.048C128.425 13.7166 128.825 9.69664 127.136 7.54978C124.11 3.70203 117.417 4.06496 114.621 8.35255ZM121.043 16.3525C120.237 16.5525 119.776 16.4787 119.884 15.4514C120.117 13.2184 120.296 10.9762 120.474 8.73701C120.579 7.42675 121.415 7.69434 122.098 8.05727C123.655 8.88772 123.922 10.3979 123.941 11.3791C123.885 14.3595 122.846 15.9066 121.043 16.3525Z" fill="#E4722B"/>
<path d="M112.573 4.95759C110.998 4.72691 109.762 5.77266 109.758 7.38435C109.755 9.12215 109.758 10.863 109.758 12.8869C109.411 12.5116 109.325 12.4501 109.276 12.364C108.156 10.3524 107.043 8.33783 105.926 6.32322C104.988 4.62541 104.988 4.62541 103.244 5.64041C102.98 5.79419 102.715 5.95413 102.444 6.09869C102.001 6.3386 101.86 6.67693 102.168 7.10138C102.921 8.12868 102.589 9.27593 102.512 10.374C102.327 13.0775 102.078 15.778 101.86 18.4816C101.829 18.8692 101.663 19.3367 102.251 19.4782C103.232 19.7181 105.019 18.4017 105.096 17.3897C105.2 16.0272 105.308 14.6616 105.412 13.299C105.517 13.2775 105.619 13.2559 105.723 13.2375C106.889 15.0368 108.051 16.8361 109.22 18.6293C109.408 18.9184 109.519 19.3213 109.921 19.3859C110.61 19.4997 112.708 17.685 112.73 16.9407C112.837 13.2067 112.926 9.47278 113.025 5.73883C113.046 5.37589 113.108 5.03449 112.573 4.95759Z" fill="#E4722B"/>
<path d="M131.91 5.37355C130.704 5.60731 130.27 6.09635 130.215 7.36971C130.064 10.8361 129.723 14.2963 129.455 17.7596C129.348 19.6973 129.348 19.6973 131.187 19.1836C131.384 19.1283 131.578 19.036 131.778 19.0206C133.054 18.9191 133.392 18.2055 133.451 16.9814C133.611 13.7703 133.934 10.5654 134.186 7.3574C134.416 4.46313 134.518 4.8722 131.91 5.37355Z" fill="#E4722B"/>
<path d="M97.9076 5.4132C97.7077 5.46241 97.5139 5.53008 97.3109 5.55776C96.585 5.65311 96.2928 6.03758 96.2467 6.78498C96.0006 10.7158 95.7084 14.6435 95.4316 18.5712C95.407 18.9219 95.3086 19.2971 95.7576 19.4816C96.708 19.8753 99.2824 18.399 99.3747 17.3717C99.6761 14.0099 99.9529 10.6481 100.144 8.4059C100.297 4.83804 100.297 4.83804 97.9076 5.4132Z" fill="#E4722B"/>
<path d="M30.6001 8.32745C31.126 8.53968 31.5228 8.40127 31.9165 8.29977C32.3871 8.17674 32.6055 8.34591 32.5686 8.82265C32.3533 11.5754 32.5563 14.402 31.7473 17.0503C30.9999 19.5016 30.8092 19.4463 33.4359 19.3417C34.0511 19.3171 34.6693 19.2955 35.2752 19.2094C37.8588 18.8373 40.2795 18.0683 42.1341 16.0998C44.3333 13.7684 44.7577 9.7915 43.0845 7.5862C40.1349 3.70461 33.2452 4.06448 30.6001 8.32745ZM38.1664 15.8046C37.5267 16.2352 36.73 16.715 36.0411 16.3275C35.4967 16.023 35.9673 15.1925 35.8842 14.602C36.0534 12.7227 36.2656 10.8465 36.3763 8.96721C36.4594 7.5862 37.1637 7.64771 38.1111 8.07524C38.2495 8.13676 38.3756 8.22903 38.4955 8.3213C40.504 9.91453 40.3164 14.3651 38.1664 15.8046Z" fill="#B75427"/>
<path d="M66.1957 10.6267C67.9366 9.15339 69.2438 7.27719 70.7202 5.54247C66.9831 4.49057 64.9685 6.64051 63.1784 9.2795C63.1169 8.50133 63.1784 7.89234 63.2153 7.28642C63.3691 4.79814 63.3784 4.85966 60.9332 5.35485C59.7459 5.59476 59.2753 6.03767 59.2261 7.34178C59.0908 11.0204 58.7525 14.6928 58.5033 18.3683C58.4787 18.7466 58.2357 19.2111 58.7401 19.4602C59.5029 19.8385 62.1973 18.1991 62.2988 17.3256C62.4249 16.2214 62.268 15.0803 62.8032 13.6932C63.9997 15.2126 65.0116 16.4798 66.0081 17.7624C67.5029 19.6816 68.1765 19.7493 70.1142 18.2484C70.6156 17.8577 70.5971 17.6486 70.1727 17.1965C68.8132 15.7355 67.5737 14.1607 66.1681 12.7489C65.3468 11.9216 65.2361 11.4417 66.1957 10.6267Z" fill="#B75427"/>
<path d="M89.9463 17.6921C88.5838 13.6783 87.2274 9.66443 85.8556 5.65366C85.7264 5.27535 85.6003 4.89703 85.0805 4.81706C84.0132 4.65405 82.4353 5.49988 82.0017 6.57638C81.1866 8.6156 80.3869 10.661 79.6303 12.7217C79.3596 13.4599 79.0613 13.9951 78.1416 13.8997C76.9759 13.7798 77.2035 14.4534 77.4988 15.1331C77.7756 15.7636 78.3354 16.3234 77.874 17.1139C76.9605 18.6702 78.4676 18.6825 79.2181 19.1592C80.27 19.8267 80.6022 19.0208 80.7837 18.2734C81.0789 17.0493 81.7618 16.5941 82.9828 16.8063C83.3796 16.874 83.801 16.8463 84.207 16.8001C85.0343 16.7079 85.6126 16.9263 85.7325 17.852C85.9448 19.4914 86.8152 19.6883 88.1531 18.9839C88.5991 18.7502 89.1251 18.6702 89.6018 18.4949C89.8264 18.4118 90.1001 18.3288 90.054 18.0151C90.0109 17.8828 89.9801 17.7875 89.9463 17.6921ZM84.2931 13.9674C83.8041 14.1335 83.1059 14.1458 82.6814 13.9059C82.2631 13.666 82.6999 13.1031 82.826 12.7002C83.0813 11.8851 83.3704 11.0793 83.7671 9.91049C84.044 11.11 84.2716 11.9374 84.4161 12.7802C84.4807 13.1769 84.8929 13.7644 84.2931 13.9674Z" fill="#B75427"/>
<path d="M53.1359 5.84126C52.9544 5.30608 52.7945 4.72169 52.0501 4.82934C50.6076 4.83857 49.6295 5.4814 49.0974 6.82857C48.3254 8.77859 47.5749 10.7409 46.846 12.7094C46.5784 13.4383 46.2708 14.0012 45.345 13.9028C44.3762 13.8013 44.3516 14.3241 44.6622 15.0377C44.9575 15.7144 45.5357 16.3172 45.0713 17.1661C44.1855 18.784 45.7818 18.7163 46.5138 19.1777C47.6334 19.8789 47.8333 18.8701 48.0117 18.1904C48.3162 17.0339 48.9652 16.6217 50.1186 16.8032C50.6169 16.8832 51.1428 16.8309 51.6534 16.8001C52.2962 16.7632 52.6438 16.9662 52.8867 17.6398C53.5849 19.5775 53.628 19.5591 55.5934 18.9008C55.9809 18.7717 56.3716 18.6394 56.7622 18.5225C57.2666 18.3718 57.3097 18.1227 57.1343 17.6213C55.781 13.7028 54.4677 9.76898 53.1359 5.84126ZM51.4965 13.995C50.9952 14.0289 50.4723 14.0719 49.9863 13.9704C49.5742 13.8843 49.7495 13.4906 49.8418 13.2169C50.1616 12.2757 50.4969 11.3407 50.9706 9.99043C51.2935 11.4053 51.5242 12.4141 51.758 13.423C51.8225 13.6875 51.8471 13.9704 51.4965 13.995Z" fill="#B75427"/>
<path d="M73.931 5.46213C73.0206 5.68051 72.6976 6.09881 72.6423 7.00923C72.4116 10.7862 72.1133 14.5602 71.8549 18.3372C71.8303 18.7186 71.6488 19.1892 72.0825 19.4568C72.7961 19.8966 75.7149 18.4448 75.7857 17.599C76.0594 14.3879 76.3024 11.1738 76.5546 7.96271C76.5546 7.80892 76.5485 7.65514 76.5546 7.50135C76.6715 4.76087 76.6838 4.80085 73.931 5.46213Z" fill="#B75427"/>
<path d="M0 0.0246059C0.984237 -0.0307574 16.9842 0.0246059 16.9842 0.0246059C16.9842 0.0246059 25.7747 1.33487 26.4298 12.0938C26.4298 12.0384 26.7589 22.1976 16.163 23.9969C16.0523 23.9416 3.33103 23.9969 3.33103 23.9969V3.30027L0 0.0246059Z" fill="#E4722B"/>
<path d="M6.98145 15.958L10.2171 11.4551H17.0976L20.2933 15.958L17.2206 14.8107L17.3036 19.6027C17.3036 19.6027 16.3194 21.7311 9.93108 22.7553C9.93108 22.7154 9.93108 14.8907 9.93108 14.8907L6.98145 15.958Z" fill="white"/>
<path d="M9.65771 5.93986C9.65771 3.87911 11.3801 2.20898 13.5085 2.20898C15.637 2.20898 17.3594 3.87911 17.3594 5.93986C17.3594 8.0006 15.0649 7.72071 13.5085 9.67073C11.3801 9.67073 9.65771 8.0006 9.65771 5.93986Z" fill="white"/>
<path d="M16.8458 6.99658C16.8458 6.99658 17.5809 7.80242 18.2791 7.79012C18.6205 7.78397 18.8973 7.50715 18.928 7.16882C18.968 6.6767 18.845 5.84625 17.6178 5.64018C15.7016 5.06501 16.8458 6.99658 16.8458 6.99658Z" fill="#B75427"/>
<path d="M13.6005 10.8454C15.5082 10.8454 17.0546 9.34583 17.0546 7.49597C17.0546 5.6461 15.5082 4.14648 13.6005 4.14648C11.6929 4.14648 10.1465 5.6461 10.1465 7.49597C10.1465 9.34583 11.6929 10.8454 13.6005 10.8454Z" fill="white"/>
<path d="M16.6055 5.04335L18.2572 5.5693C18.4325 5.62466 18.4325 5.88918 18.2603 5.94761L16.6086 6.49202C16.4887 6.53201 16.3687 6.43666 16.3687 6.3044V5.23097C16.3656 5.09871 16.4856 5.00644 16.6055 5.04335Z" fill="white"/>
<path d="M26.1623 9.88867C25.1811 11.8356 19.6079 22.0501 3.33105 24.0002C3.33105 24.0002 16.0554 23.9448 16.163 24.0002C26.759 22.1947 26.4299 12.0386 26.4299 12.094C26.3837 11.3066 26.2915 10.5746 26.1623 9.88867Z" fill="#B75427"/>
<path d="M9.91604 7.35574C9.87914 7.35574 9.85145 7.32806 9.84838 7.29115C9.8453 7.25424 9.87298 7.22041 9.90989 7.21733C9.9222 7.21733 11.2079 7.09123 13.3209 5.80864L13.3393 5.79941C13.3486 5.79326 13.3609 5.78711 13.3732 5.77788C14.1114 5.30422 16.0306 4.25847 17.9068 4.73828C17.9437 4.74751 17.9653 4.78442 17.956 4.82133C17.9468 4.85824 17.9099 4.87977 17.873 4.87054C16.0521 4.40303 14.1729 5.43033 13.4501 5.89476C13.4193 5.91322 13.4009 5.92552 13.3886 5.93167C11.2448 7.23271 9.97448 7.35266 9.9222 7.35882C9.91912 7.35574 9.91912 7.35574 9.91604 7.35574Z" fill="#E4722B"/>
<path d="M14.4346 7.96114C14.4284 7.96114 14.4223 7.96114 14.4192 7.96114C13.1766 7.94269 12.3369 7.55822 11.9248 6.82312C11.4972 6.06649 11.528 4.96537 12.0109 3.55053C12.3677 2.50478 12.8567 1.6651 12.8598 1.65895C12.8782 1.62512 12.9213 1.61589 12.9551 1.63434C12.989 1.6528 12.9982 1.69586 12.9797 1.72969C12.9613 1.76353 11.0728 5.02996 12.0447 6.75853C12.4323 7.44749 13.2319 7.80736 14.4223 7.82581C14.4376 7.82581 15.5295 7.93961 16.8152 6.45711C16.8398 6.42942 16.8644 6.40789 16.8644 6.40789C16.8921 6.4325 16.9167 6.57091 16.9167 6.57091C15.6526 8.02573 14.5791 7.96114 14.4346 7.96114Z" fill="#E4722B"/>
</g>
<defs>
<clipPath id="clip0_6964_74502">
<rect width="147.866" height="24" fill="white"/>
</clipPath>
</defs>
</svg>
