<svg width="105" height="24" viewBox="0 0 105 24" fill="none" xmlns="http://www.w3.org/2000/svg">
<g clip-path="url(#clip0_221_56821)">
<path fill-rule="evenodd" clip-rule="evenodd" d="M86.5525 2.16083e-06H96.5614L94.8933 7.96491H73.044C75.8241 -0.0327466 86.5525 2.16083e-06 86.5525 2.16083e-06ZM52.3908 2.16083e-06H61.7105C70.2069 0.57661 71.6702 6.40044 71.9105 7.96491H50.7168L52.3908 2.16083e-06ZM27.3823 2.16083e-06H51.4333L49.7104 7.96491H25.7779C26.2149 5.83845 27.1781 1.13407 27.3823 2.16083e-06ZM3.37588 7.96491L5.05263 2.16083e-06H14.2355C22.9001 0.107604 24.4583 6.12939 24.7323 7.96491H3.37588ZM71.8121 15.8597H93.2397L91.5789 23.7895C91.5789 23.7895 87.5247 23.7895 81.1251 23.7915C79.3166 23.7327 73.2009 23.0007 71.8121 15.8598V15.8597ZM48.8917 15.8597L70.9117 15.8772C70.0454 17.9411 66.7128 23.626 58.3339 23.8038L57.4915 23.8045H57.4911C57.1222 23.7962 56.8058 23.7972 56.5314 23.8053C53.4955 23.8077 50.3927 23.8108 47.2807 23.8142L48.8914 15.8597H48.8917ZM31.6987 15.8597H40.2428L38.6044 23.825C35.6852 23.8291 32.8055 23.8338 30.0155 23.8389C30.2108 22.8127 31.2224 18.0808 31.6987 15.8597ZM0 24L1.71374 15.8597H23.7753C22.9237 18.0329 19.7911 23.6756 10.1884 23.8943C9.85702 23.8958 9.5345 23.8972 9.21623 23.8987C9.20248 23.8985 9.18918 23.8987 9.17544 23.8984C8.77339 23.8918 8.42105 23.8939 8.11491 23.9039C3.08523 23.9297 0.000146199 23.9613 0.000146199 23.9999L0 24Z" fill="#162E53"/>
<path fill-rule="evenodd" clip-rule="evenodd" d="M95.6411 8.03502L104.134 7.96484L102.378 15.8596L93.7889 15.841L95.6411 8.03502Z" fill="#E30016"/>
</g>
<defs>
<clipPath id="clip0_221_56821">
<rect width="104.134" height="24" fill="white"/>
</clipPath>
</defs>
</svg>
