<svg width="120" height="27" fill="none" xmlns="http://www.w3.org/2000/svg">
    <path fill-rule="evenodd" clip-rule="evenodd" d="M0 0h86.3a19.87 19.87 0 0 1 6.26 4.3A10 10 0 0 1 94.89 8a7.67 7.67 0 0 1-.12 4.5 17.161 17.161 0 0 1-3.3 5.74 65.907 65.907 0 0 1-9.32 8.74h4.92a13.13 13.13 0 0 0 1.18-.82 61.44 61.44 0 0 0 9.41-7.76 20.27 20.27 0 0 0 3.27-4.53A10.347 10.347 0 0 0 102.16 9a6.943 6.943 0 0 1 .18 3.78 12.826 12.826 0 0 1-2.64 5c-2.9 3.59-6.66 6.33-10.3 9.1h30.17V27H0V0z" fill="#FCFCFC"/>
    <path fill-rule="evenodd" clip-rule="evenodd" d="M86.3 0H92c.276.189.58.334.9.43.463.165.917.355 1.36.57l.28.08.09.1.36.1.11.12h.23l.41.2.06.09.28.05.07.11c.83.407 1.623.885 2.37 1.43a7.458 7.458 0 0 1 2.73 3.52v-.14a7.847 7.847 0 0 1 .31 3.43 12.47 12.47 0 0 1-2.18 5 33.489 33.489 0 0 1-6.66 6.74c-1.89 1.51-3.88 2.88-5.9 4.2-.281.199-.575.38-.88.54l-.12.12-.2.05-.07.23h-3.41a65.907 65.907 0 0 0 9.32-8.74 17.16 17.16 0 0 0 3.3-5.74A7.75 7.75 0 0 0 94.89 8a10 10 0 0 0-2.33-3.7A19.87 19.87 0 0 0 86.3 0" fill="#D82B23"/>
    <path fill-rule="evenodd" clip-rule="evenodd" d="M92 0h27.57v26.93H89.4c3.64-2.77 7.4-5.51 10.3-9.1a12.826 12.826 0 0 0 2.64-5 6.943 6.943 0 0 0-.18-3.83 10.342 10.342 0 0 1-1.23 4.8 20.27 20.27 0 0 1-3.27 4.53 61.44 61.44 0 0 1-9.41 7.76 13.13 13.13 0 0 1-1.18.82c-.5.05-1 0-1.51 0l.07-.23.21-.05.12-.12c.3-.16.58-.35.87-.54 2-1.32 4-2.69 5.9-4.2a33.227 33.227 0 0 0 6.66-6.74 12.26 12.26 0 0 0 2.18-5 7.847 7.847 0 0 0-.31-3.43v.18a7.459 7.459 0 0 0-2.73-3.52 15.87 15.87 0 0 0-2.37-1.43l-.07-.11-.28-.05-.06-.09-.41-.2h-.23L95 1.27l-.37-.09-.09-.1-.28-.08A13.472 13.472 0 0 0 92.9.43 3.25 3.25 0 0 1 92 0zM73.53 1.3a3.28 3.28 0 0 1 2.14-.22c.37.07.77.42.62.83a1.67 1.67 0 0 0-.07.8l.47.73-.3.2c.061.17.098.349.11.53 0 .15.14.32 0 .47-.28.33-.82.14-1.09.46a2.55 2.55 0 0 1 1.14 1.22c.41.93.56 1.95.91 2.9l2.9-1a.93.93 0 0 1 1.15-.46.83.83 0 0 1 .49 1.18.69.69 0 0 1-.79.28.94.94 0 0 0-.71.14c-1 .56-1.93 1.11-2.89 1.68a1.22 1.22 0 0 1-1.11.15 1.42 1.42 0 0 1-.62-.68L75 8.87c-.28.8-.58 1.58-.85 2.38a.64.64 0 0 0 .27.73c.78.65 1.8 1 2.52 1.69a2.53 2.53 0 0 1 .51 1.67c.1 1.39.2 2.78.31 4.17h-.35l.09.37c.47.16.88.48 1.35.65.204.041.405.098.6.17.16.21 0 .53-.25.61a5.511 5.511 0 0 1-1.66-.16c-.472.051-.946.078-1.42.08a.44.44 0 0 1-.31-.56c.08-.34.24-.72 0-1h-.24c-.09-.39-.2-.78-.26-1.17-.16-.85-.11-1.73-.29-2.57 0-.29-.34-.43-.57-.54a14.906 14.906 0 0 1-2.25-.86 21.77 21.77 0 0 1-3.07 3.15 7.699 7.699 0 0 1-1.79 1c-.631.293-1.242.627-1.83 1l-.51-.32c-.905.411-1.767.914-2.57 1.5-.27.24-.44.68-.86.69-.42.01-.47-.34-.42-.6a1.25 1.25 0 0 1 .56-.9 4.19 4.19 0 0 0 .88-1.48c.3-.53 1-.59 1.52-.67v-.37c.417-.24.856-.441 1.31-.6a1.36 1.36 0 0 0-.26-.45c.31-.09.63-.14 1-.2a4.463 4.463 0 0 0-.43-.33 2.69 2.69 0 0 1 1.19-.17 1.18 1.18 0 0 0-.68-.35 2.06 2.06 0 0 1 1.18-.16c-.07-.34-.44-.37-.71-.42a2.83 2.83 0 0 1 1.21-.29 1.829 1.829 0 0 0-.72-.26 1.39 1.39 0 0 1 1.02-.3 1.46 1.46 0 0 0-.66-.29 1.84 1.84 0 0 1 1.1-.29 1.44 1.44 0 0 0-.64-.19l.16-.27a9.829 9.829 0 0 1-2.71-1.5 1.26 1.26 0 0 1-.47-1.22 2 2 0 0 0 .79.67 22.7 22.7 0 0 0 3.8 1.45 4.06 4.06 0 0 0 2.29-.14A2.13 2.13 0 0 0 73 10.78a2.31 2.31 0 0 0-.09-1.64 3.16 3.16 0 0 0-1.73-.88c-.14-.06-.34 0-.43-.19l.4.07v-.26a8.218 8.218 0 0 1-.86 0c-.14 0-.18-.2-.26-.3h1.12v-.26h-1.1L70 7h1.17v-.23H70v-.39h1.26v-.24c-.52.03-1.04.03-1.56 0-.73.07-1.47 0-2.2 0 .037-.116.08-.229.13-.34h3.63v-.25h-3.59a2 2 0 0 1 1.67-.88l4.06-.27a.5.5 0 0 0-.05-.4 2.48 2.48 0 0 1-.57-1.34 1.36 1.36 0 0 1 .75-1.33" fill="#07287F"/>
    <path fill-rule="evenodd" clip-rule="evenodd" d="M67.21 6.77c0-.13.07-.26.11-.39h1.77l-.18.39h-1.7zm0 .38a8 8 0 0 1 1.1 0c.19 0 .44-.06.58.11a5.24 5.24 0 0 0 2.19 1.34 3.07 3.07 0 0 1 1.44.59 1.57 1.57 0 0 1 .19 1.5 1.79 1.79 0 0 1-.86 1.21 3.15 3.15 0 0 1-2 .19 15.619 15.619 0 0 1-4.21-1.57 1 1 0 0 1-.39-1.29 4.68 4.68 0 0 1 1.93-2.08" fill="#07287F"/>
    <path fill-rule="evenodd" clip-rule="evenodd" d="M67.25 7.84c.306.086.597.22.86.4.19.2 0 .46-.13.65-.222.398-.487.77-.79 1.11-.4.11-.77-.17-1.13-.28.4-.64.8-1.27 1.19-1.92" fill="#FCFCFC"/>
    <path fill-rule="evenodd" clip-rule="evenodd" d="m67.53 8.35.12.08c-.18.35-.4.68-.61 1a.59.59 0 0 1-.3.24c.22-.46.53-.88.79-1.33" fill="#07287F"/>
    <path fill-rule="evenodd" clip-rule="evenodd" d="M68.38 8.75c.07-.13.15-.26.23-.39l1 .4-.23.39-.23-.15c-.34.5-.62 1-1 1.52-.16 0-.33-.11-.49-.16l1-1.54-.28-.1v.03zm1.53.09c.306.088.596.223.86.4.16.15 0 .36 0 .52-.25.39-.48.8-.76 1.17a.38.38 0 0 1-.43.13c-.28-.08-.554-.181-.82-.3l1.2-1.92" fill="#FCFCFC"/>
    <path fill-rule="evenodd" clip-rule="evenodd" d="M69.86 9.9c.1-.21.247-.396.43-.54a1.931 1.931 0 0 1-.35.72 2 2 0 0 1-.51.65 3 3 0 0 1 .43-.83" fill="#07287F"/>
    <path fill-rule="evenodd" clip-rule="evenodd" d="M71.15 9.7a.7.7 0 0 1 1.06.13c.1.31-.16.58-.3.83l-.47-.18c.126-.195.236-.399.33-.61-.23 0-.31.23-.42.38a5.747 5.747 0 0 0-.57 1c.24-.06.33-.3.45-.48l.49.18c-.16.24-.32.55-.63.62a.65.65 0 0 1-.8-.38 1.5 1.5 0 0 1 .29-.69c.17-.294.36-.575.57-.84" fill="#FCFCFC"/>
    <path fill-rule="evenodd" clip-rule="evenodd" d="M20.09 10c.5-.06 1-.27 1.47-.31h9.36c-.34 1-.7 2-1 3h-2.67l-3 8.43h-4.12L20 21a3.542 3.542 0 0 1-1-.18 5.788 5.788 0 0 0-1.81-.15v-.13a6.413 6.413 0 0 0 1.85-.16c.401-.142.825-.21 1.25-.2l.08-.26a3.463 3.463 0 0 1-1.06-.17 6.716 6.716 0 0 0-1.85-.17.34.34 0 0 1 .26-.12c.53.03 1.061-.01 1.58-.12a3.559 3.559 0 0 1 1.37-.23l.1-.21a4.642 4.642 0 0 1-1.12-.23c-.545-.1-1.096-.16-1.65-.18a.47.47 0 0 1 .27-.1c.498.02.998-.01 1.49-.09a6.645 6.645 0 0 1 1.4-.26l.1-.2a10.624 10.624 0 0 1-1.12-.23 8.263 8.263 0 0 0-1.65-.1l.06-.13a6.255 6.255 0 0 0 1.78-.15 3.327 3.327 0 0 1 1.21-.18c0-.09.06-.19.1-.28-.453-.073-.9-.177-1.34-.31-.45-.05-.91 0-1.37 0l.05-.14H20v-.1.12a16.98 16.98 0 0 1 1.86-.37l.11-.15a3.004 3.004 0 0 1-.84-.2 9.823 9.823 0 0 0-1.88-.2.998.998 0 0 1 .55-.09 3.85 3.85 0 0 0 1.31-.13 4.257 4.257 0 0 1 1.13-.2l.1-.18a9.88 9.88 0 0 0-1.47-.37c-.39 0-.78 0-1.16-.07l.11-.1a6.104 6.104 0 0 0 1.76-.28c.345-.132.71-.207 1.08-.22l.09-.23a5.617 5.617 0 0 1-1.14-.29c-.49-.08-1 0-1.49-.1a.46.46 0 0 1 .3-.09 5.694 5.694 0 0 0 1.7-.18c.32-.14.68-.13 1-.24-.9-.08-1.8 0-2.7-.08a6.621 6.621 0 0 0-1.23-.35h-1.26c.29-.2.68-.07 1-.12a9.33 9.33 0 0 0 1.64-.32l.1-.28c-.25-.08-.49-.17-.74-.24a14.703 14.703 0 0 0-1.48-.1l-.1-.08c.48-.05 1 0 1.47-.06s.74-.22 1.12-.28l.11-.31a5.635 5.635 0 0 0-1-.25c-.44 0-.88 0-1.32-.08.08-.05.15-.13.26-.11h1.07l.03.01zM4.73 10c.763-.05 1.521-.154 2.27-.31h5.77a5.999 5.999 0 0 1 2.31.36c.74.28 1.38.775 1.84 1.42.269.469.43.991.47 1.53a10.66 10.66 0 0 1-.93 4.11A6.35 6.35 0 0 1 14 19.93a8.41 8.41 0 0 1-4.33 1.12H3.1c-.477.001-.95-.08-1.4-.24a10.4 10.4 0 0 0-1.61-.11L0 20.6a8.876 8.876 0 0 0 1.86-.15c.367-.13.751-.204 1.14-.22 0-.06.06-.19.09-.26a3.442 3.442 0 0 1-1.06-.21 10.608 10.608 0 0 0-1.69-.14v-.09a8.093 8.093 0 0 0 1.77-.15c.388-.14.797-.218 1.21-.23l.09-.2a6.74 6.74 0 0 1-1-.22 9.433 9.433 0 0 0-1.76-.15c.09-.14.26-.1.4-.11.435.023.871-.003 1.3-.08.438-.13.886-.22 1.34-.27l.08-.21c-.35-.06-.69-.13-1-.22a8.543 8.543 0 0 0-1.6-.1v-.14a8.564 8.564 0 0 0 1.52-.07 4.058 4.058 0 0 1 1.38-.25l.1-.28c-.4-.07-.793-.167-1.18-.29-.49-.03-.98-.03-1.47 0l.06-.12a7.604 7.604 0 0 0 1.72-.15c.394-.142.804-.24 1.22-.29l.09-.15a6.074 6.074 0 0 1-1.11-.3c-.51-.07-1 0-1.53-.08l.14-.1a6.505 6.505 0 0 0 1.65-.13c.36-.135.737-.216 1.12-.24l.12-.15c-.41-.08-.79-.28-1.19-.35-.4-.07-.91 0-1.37-.07l.05-.12c.6.033 1.2-.032 1.78-.19.33-.124.678-.199 1.03-.22l.07-.23a6.14 6.14 0 0 1-1.12-.29c-.5-.08-1 0-1.49-.09l.14-.08c.62.01 1.238-.06 1.84-.21a4.6 4.6 0 0 1 .91-.2l.11-.18a7.659 7.659 0 0 1-.91-.24 10.38 10.38 0 0 0-1.68-.14c.11-.12.27-.1.42-.11A4.45 4.45 0 0 0 5 12a3.765 3.765 0 0 1 1-.21l.09-.24c-.456-.135-.92-.242-1.39-.32-.39 0-.78 0-1.17-.06.29-.18.66-.06 1-.1a14.523 14.523 0 0 0 1.86-.34l.08-.23c-.34-.07-.66-.19-1-.28-.51-.07-1 0-1.53-.1.2-.2.5-.08.75-.1l.04-.02zM33 10c.79.07 1.51-.33 2.29-.33h6a5 5 0 0 1 2.86.76c.517.294.93.741 1.18 1.28a3 3 0 0 1 .32 1.29 9.17 9.17 0 0 1-.45 2.8 7.662 7.662 0 0 1-1.31 2.69 6.38 6.38 0 0 1-3.06 2.12c-1.01.34-2.074.5-3.14.47h-5.34a7.124 7.124 0 0 1-2.21-.18 5.8 5.8 0 0 0-1.81-.16.589.589 0 0 1 0-.13h1.36a7.768 7.768 0 0 1 1.58-.32l.09-.26a4.006 4.006 0 0 1-1-.2 8.397 8.397 0 0 0-1.74-.14.28.28 0 0 1 .23-.12 6.333 6.333 0 0 0 1.51-.1 3.997 3.997 0 0 1 1.33-.25l.08-.21c-.46 0-.89-.22-1.34-.3-.45-.08-.94 0-1.41-.07l.14-.09a9.203 9.203 0 0 0 1.58-.11 7.62 7.62 0 0 1 1.33-.26l.07-.21c-.35-.07-.7-.14-1-.23a12.914 12.914 0 0 0-1.65-.11l.13-.1a7.382 7.382 0 0 0 1.69-.15 2.997 2.997 0 0 1 1.15-.19l.12-.28a8.9 8.9 0 0 0-1.83-.33c-.28-.05-.63.1-.85-.13a8.46 8.46 0 0 0 1.81-.15c.339-.136.69-.236 1.05-.3l.13-.15a7.76 7.76 0 0 1-1.17-.31c-.43-.05-.86 0-1.29-.05a.401.401 0 0 1-.21-.09c.596 0 1.191-.047 1.78-.14.373-.14.763-.228 1.16-.26l.06-.2a9.906 9.906 0 0 0-1.4-.36h-1.05v-.15h.86c.66 0 1.24-.41 1.91-.38l.07-.23a4.508 4.508 0 0 1-1-.24c-.54-.19-1.14 0-1.67-.19a8.638 8.638 0 0 1 1.25-.08c.59 0 1.1-.35 1.69-.33l.07-.2a10.983 10.983 0 0 0-1.49-.33 6.702 6.702 0 0 1-1.1-.07.549.549 0 0 1 .31-.08 5.315 5.315 0 0 0 1.65-.16c.323-.11.66-.173 1-.19l.08-.24a10.566 10.566 0 0 0-1.4-.33h-1.14v-.14c.602.04 1.206.006 1.8-.1.328-.1.662-.18 1-.24l.1-.22c-.36-.06-.69-.2-1-.28-.31-.08-1 0-1.5-.11.23-.18.54-.07.8-.1L33 10zm20.57.05c1.89-.336 3.817-.42 5.73-.25a3.84 3.84 0 0 1 2.44 1.2 3.86 3.86 0 0 1 .65 3h-3.88a1.63 1.63 0 0 0-.23-1.08 1.87 1.87 0 0 0-1.56-.64 3.76 3.76 0 0 0-3.17 1.67 7.638 7.638 0 0 0-1 2.33 2.58 2.58 0 0 0 0 1.6 1.49 1.49 0 0 0 1.21.76 3.79 3.79 0 0 0 2.4-.46 5.182 5.182 0 0 0 1.4-1.4h3.88a15.374 15.374 0 0 1-1.24 1.75 8 8 0 0 1-5 2.64 14.417 14.417 0 0 1-3.41 0 8.406 8.406 0 0 0-1.3-.17c-.6 0-1.15-.29-1.75-.3h-1.26a.21.21 0 0 1 .21-.13 7.546 7.546 0 0 0 1.84-.13c-.18-.14-.34-.32-.53-.47-.19-.15-.41 0-.61 0a12.217 12.217 0 0 0-1.58-.3 2.793 2.793 0 0 1-1-.08c.58-.16 1.2 0 1.77-.17.31-.09.61-.18.92-.24l-.12-.23a3.28 3.28 0 0 1-1.12-.17 7.726 7.726 0 0 0-1.86-.18c.18-.19.48-.09.71-.12.702-.01 1.4-.12 2.07-.33v-.21a6.259 6.259 0 0 1-1.29-.24 12.914 12.914 0 0 0-1.65-.11.27.27 0 0 1 .23-.11 5.71 5.71 0 0 0 1.65-.16c.342-.115.7-.175 1.06-.18l.08-.27a6.287 6.287 0 0 1-1.42-.29c-.5-.08-1 0-1.5-.06v-.13a6.112 6.112 0 0 0 1.91-.17 5.163 5.163 0 0 1 1.1-.19l.11-.14a4.508 4.508 0 0 1-1-.24c-.6-.22-1.25 0-1.86-.19.53-.17 1.12 0 1.66-.13A4.998 4.998 0 0 1 48.8 15c.037-.068.07-.138.1-.21-.39-.09-.75-.26-1.14-.33-.39-.07-1 0-1.51-.09l.13-.1c.615.02 1.23-.04 1.83-.18.37-.143.763-.217 1.16-.22.05-.08.1-.17.16-.25a15.178 15.178 0 0 0-1.53-.34h-1.23c.06 0 .1-.12.18-.11.655.027 1.31-.03 1.95-.17a3.408 3.408 0 0 1 1.23-.19l.2-.23a5.506 5.506 0 0 0-1.33-.31h-1.3v-.11a9.258 9.258 0 0 0 2.3-.22 5.504 5.504 0 0 1 1.14-.17l.56-.42a13.772 13.772 0 0 0-2.94-.22l.16-.09h1.9c.63 0 1.06-.2 1.6-.26a7.548 7.548 0 0 0 1.49-.52c-1-.06-2.07 0-3.11-.09a.4.4 0 0 1 .3-.17h2.45" fill="#07287F"/>
    <path fill-rule="evenodd" clip-rule="evenodd" d="M9.94 12.57a7.149 7.149 0 0 1 3.22.4 8.794 8.794 0 0 1-1.23.29c-.47 0-.94 0-1.4.05l-.16.1c.58.06 1.16 0 1.72.09.474.166.969.264 1.47.29v.22c-.36.02-.714.098-1.05.23a6.103 6.103 0 0 1-1.71.18l-.14.1c.611.008 1.22.071 1.82.19.272.116.558.197.85.24l-.07.2c-.42.003-.835.078-1.23.22-.59.088-1.184.142-1.78.16.54.2 1.14 0 1.69.18.336.151.694.249 1.06.29l-.12.18c-.426 0-.848.07-1.25.21a7.393 7.393 0 0 1-1.76.14v.13h1a8.2 8.2 0 0 1 1.47.32l-.29.29a3.188 3.188 0 0 0-1.26.18 7.102 7.102 0 0 1-1.73.16l-.06.08a6.798 6.798 0 0 1 2 .2 6.29 6.29 0 0 1-1.67.18H7.94c.68-1.84 1.35-3.69 2-5.53v.03zm28.26-.03a7.269 7.269 0 0 1 3.21.37c-.869.29-1.786.41-2.7.35v.13h1.12c.69 0 1.31.37 2 .34v.22c-.342.014-.68.082-1 .2a5.132 5.132 0 0 1-1.83.2l-.06.12c.61-.01 1.217.058 1.81.2.261.102.533.176.81.22v.2a3.788 3.788 0 0 0-1.2.21c-.59.11-1.19.16-1.79.15.12.15.32.1.48.11.451-.034.905.013 1.34.14.287.106.586.177.89.21l-.15.15c-.39.021-.776.089-1.15.2a5.003 5.003 0 0 1-1.64.16.26.26 0 0 0-.26.13c.47 0 .94 0 1.41.05s.76.21 1.15.29l-.28.29a3.529 3.529 0 0 0-.86.06 4.382 4.382 0 0 1-1.07.25c-.36-.02-.72-.02-1.08 0l-.11.1a6.457 6.457 0 0 1 2 .21 7.412 7.412 0 0 1-1.69.18h-1.36l2-5.52" fill="#FCFCFC"/>
    <path fill-rule="evenodd" clip-rule="evenodd" d="M42.9 23.55h.68c-.39.88-.82 1.74-1.23 2.6h-.7c.41-.88.82-1.76 1.25-2.62v.02zm1.83-.02c.226-.015.454-.015.68 0-.07.15-.13.31-.2.47h-.72c.064-.164.144-.322.24-.47zm10.59 0H56a1.723 1.723 0 0 1-.19.44 2.393 2.393 0 0 1-.71 0l.21-.47.01.03zm16.99-.03H73c-.38.88-.81 1.74-1.23 2.61h-.67c.35-.9.81-1.75 1.22-2.62l-.01.01zm-37.99 2.6c.42-.87.81-1.76 1.26-2.61a8.908 8.908 0 0 1 2.13.13.57.57 0 0 1 .41.69 2.23 2.23 0 0 1-2 1.77c-.61.05-1.21 0-1.82 0l.02.02zm30.98-2.63h.79c-.05.65-.1 1.3-.17 1.95.59-.64 1.14-1.31 1.72-1.95h.75c-.75.91-1.61 1.72-2.4 2.6h-.71a25.44 25.44 0 0 1 0-2.62" fill="#D82B23"/>
    <path fill-rule="evenodd" clip-rule="evenodd" d="M36 24c.41 0 .94-.15 1.26.2a1.28 1.28 0 0 1-.36 1c-.41.48-1.11.43-1.68.44.23-.58.52-1.12.78-1.68" fill="#FCFCFC"/>
    <path fill-rule="evenodd" clip-rule="evenodd" d="M38.83 24.89a2 2 0 0 1 2-.65.58.58 0 0 1 .39.34 1.19 1.19 0 0 1-.17.78h-1.79v.36c.168.055.344.075.52.06.18 0 .33-.16.52-.19s.38 0 .58 0a2 2 0 0 1-1.45.66.91.91 0 0 1-.89-.4 1.138 1.138 0 0 1 .27-1l.02.04zm7.05-.69h.78c0 .46-.07.92-.11 1.37.4-.45.81-.9 1.19-1.37h.74c-.61.65-1.22 1.29-1.85 1.92h-.72v-1.93l-.03.01zm2.84.99a1.88 1.88 0 0 1 2.5-.85.92.92 0 0 1-.07 1h-1.82a.868.868 0 0 0 .09.36.83.83 0 0 0 .72 0 1.6 1.6 0 0 1 .87-.1 2.111 2.111 0 0 1-1.65.65.83.83 0 0 1-.68-.33.77.77 0 0 1 0-.69l.04-.04zm4.38-.63a1.48 1.48 0 0 1 1-.36l-.24.51A1.18 1.18 0 0 0 53 25c-.21.373-.4.757-.57 1.15h-.73c.29-.65.61-1.28.91-1.92h.66c-.053.1-.1.204-.14.31l-.03.02zm4.32-.13a1.7 1.7 0 0 1 1.39-.16c.2.09.16.36.1.53-.2.45-.44.89-.63 1.35h-.7c.238-.481.442-.98.61-1.49a.94.94 0 0 0-.95.22c-.233.407-.44.828-.62 1.26h-.71c.29-.65.6-1.29.9-1.93h.69l-.08.2v.02zm2.16.98a1.75 1.75 0 0 1 2-1.21c.15 0 .25.13.37.22l.1-.19h.67c-.29.63-.59 1.25-.9 1.88a1.31 1.31 0 0 1-.91.74 2.64 2.64 0 0 1-1.15.07.73.73 0 0 1-.58-.35l.09-.23h.7l.13.18c.256.039.518.011.76-.08a2 2 0 0 0 .39-.51 1.6 1.6 0 0 1-1.38.14.54.54 0 0 1-.24-.65l-.05-.01zm8.79-.57a1.72 1.72 0 0 1 1.73-.65c.23 0 .57.07.61.35-.1.57-.61 1-.57 1.63h-.72v-.2a1.511 1.511 0 0 1-1.36.18c-.21-.09-.19-.36-.09-.53a1.1 1.1 0 0 1 .92-.56c.37-.034.734-.104 1.09-.21a1.628 1.628 0 0 0 0-.2.83.83 0 0 0-.83.09c-.21.19-.51.09-.77.1h-.01zm5.47-.6h.67c-.17.51-.48 1-.62 1.47a.82.82 0 0 0 1-.31c.2-.38.37-.78.56-1.17h.7l-.91 1.93h-.68l.06-.2a1.53 1.53 0 0 1-1.45.12c-.17-.17-.06-.41 0-.6.2-.42.4-.84.61-1.25l.06.01zm2.68 1.34a1.8 1.8 0 0 1 2.67-1.16 1.07 1.07 0 0 1-.15.93h-1.76v.37c.243.086.507.086.75 0a1.51 1.51 0 0 1 .89-.12 2.001 2.001 0 0 1-1.77.63c-.32 0-.67-.27-.62-.63l-.01-.02zm-32.13-1.33h.7c-.28.65-.61 1.28-.9 1.93h-.71c.29-.65.61-1.28.91-1.92v-.01zm9.7 1.93c.31-.65.61-1.29.93-1.93h.69c-.3.64-.61 1.28-.91 1.93h-.71z" fill="#D82B23"/>
    <path fill-rule="evenodd" clip-rule="evenodd" d="M39.47 25a.8.8 0 0 1 1.08-.28l-.07.29c-.333.02-.667.02-1 0l-.01-.01zm10.06.01a.86.86 0 0 1 1-.34c.16 0 .19.24.08.33a6.006 6.006 0 0 1-1 0l-.08.01zm10.86.58a.91.91 0 0 1 1.25-.88.83.83 0 0 1-1.25.88zM77.46 25a.79.79 0 0 1 1-.33c.15 0 .06.22.08.34h-1.05l-.03-.01zm-8.69.45a6.739 6.739 0 0 1 1-.21.93.93 0 0 1-1.15.56.29.29 0 0 1 .18-.35" fill="#FCFCFC"/>
</svg>
