<svg xmlns="http://www.w3.org/2000/svg" width="76" height="24" viewBox="0 0 76 24">
    <g fill="none" fill-rule="evenodd">
        <g fill-rule="nonzero">
            <g>
                <g>
                    <path fill="#FF5900" d="M62.754 8.784L65.861 12.209 68.853 8.784 75.241 8.784 68.998 15.805 75.327 22.882 68.681 22.882 65.602 19.431 62.552 22.882 56.135 22.882 62.408 15.834 56.135 8.784zM56.135 8.784L56.135 13.547 49.03 13.547 49.03 17.919 56.135 17.919 56.135 22.882 43.808 22.882 43.808.674 56.135.674 56.135 5.624 49.03 5.624 49.03 8.784z" transform="translate(-588 -274) translate(588 262) translate(0 12)"/>
                    <path fill="#2A007C" d="M38.61.674v9.089h-.058c-1.152-1.323-2.59-1.784-4.258-1.784-3.419 0-5.994 2.325-6.897 5.397-1.032-3.385-3.691-5.46-7.634-5.46-3.2 0-5.73 1.437-7.048 3.778v-2.91H6.097v-3.16h7.222V.674H.199v22.208h5.898v-9.335h5.88c-.175.686-.27 1.42-.27 2.196 0 4.632 3.54 7.883 8.056 7.883 3.799 0 6.302-1.783 7.625-5.033h-5.055c-.684.977-1.203 1.266-2.57 1.266-1.585 0-2.952-1.382-2.952-3.021h10.294c.447 3.679 3.313 6.852 7.246 6.852 1.697 0 3.25-.835 4.2-2.243h.058v1.438h5.2V.675h-5.2zm-21.634 12.94c.328-1.412 1.423-2.333 2.789-2.333 1.503 0 2.541.893 2.815 2.332h-5.604zm18.477 5.888c-1.917 0-3.108-1.787-3.108-3.652 0-1.993 1.036-3.91 3.108-3.91 2.149 0 3.004 1.917 3.004 3.91 0 1.89-.906 3.652-3.004 3.652z" transform="translate(-588 -274) translate(588 262) translate(0 12)"/>
                </g>
            </g>
        </g>
    </g>
</svg>
