<svg width="70" height="24" viewBox="0 0 70 24" fill="none" xmlns="http://www.w3.org/2000/svg">
<g clip-path="url(#clip0_1_86692)">
<path d="M7.88653 5.33076C16.4928 5.33017 25.099 5.33076 33.7054 5.33057C34.8026 5.33215 35.9 5.32719 36.9969 5.33295L37.022 5.33772C36.1824 5.93258 35.3458 6.53202 34.5124 7.13543C33.2734 8.03578 32.0304 8.93076 30.7859 9.82316C30.1612 10.2653 29.5352 10.7052 28.9049 11.1394C28.6108 11.3345 28.3184 11.5323 28.0247 11.7281C26.7042 12.5957 25.3463 13.4168 23.9011 14.0613C23.1261 14.4043 22.3151 14.6878 21.4708 14.7936C20.9941 14.8485 20.5019 14.8681 20.0359 14.7337C19.6854 14.6338 19.3616 14.451 19.0826 14.2182C18.8198 14.0045 18.6059 13.7406 18.3763 13.4937C17.8434 12.8893 17.3107 12.2839 16.7456 11.7091C15.7656 10.7279 14.6591 9.87341 13.4628 9.17248C13.4084 9.14031 13.3534 9.09979 13.2872 9.10078C12.457 9.07397 11.6268 9.11548 10.7985 9.16871C10.9292 9.21876 11.0674 9.24538 11.1997 9.29106C11.9151 9.52305 12.5847 9.8752 13.227 10.2621C13.8078 10.617 14.3665 11.0071 14.9048 11.4233C15.3306 11.7408 15.7263 12.0966 16.1154 12.4575C16.4949 12.8203 16.8622 13.1973 17.1937 13.6051C17.641 14.1513 18.0859 14.7213 18.6851 15.1108C19.052 15.3599 19.4725 15.5248 19.9055 15.6157C20.3025 15.7059 20.7126 15.7059 21.1174 15.687C21.6082 15.6509 22.0935 15.5522 22.5638 15.408C23.2641 15.1931 23.9382 14.9005 24.5941 14.5756C25.9527 13.8871 27.2349 13.0589 28.4789 12.1832C30.4025 10.8437 32.2718 9.4285 34.1374 8.00996C35.3238 7.11656 36.4966 6.20489 37.6979 5.33136C38.4671 5.32937 39.2364 5.33076 40.0058 5.33096L39.9844 5.34983C39.6044 5.5987 39.23 5.85631 38.8568 6.11551C36.3433 7.84609 33.9005 9.67638 31.4131 11.4439C30.8113 11.8781 30.199 12.2972 29.5882 12.7185C28.3337 13.5759 27.053 14.3986 25.7137 15.1182C24.9979 15.5065 24.26 15.8567 23.4965 16.1411C22.6556 16.4519 21.7747 16.6819 20.8753 16.7171C20.0965 16.7508 19.3072 16.6049 18.6025 16.269C17.9107 15.9268 17.3621 15.3597 16.895 14.7565C16.6667 14.4737 16.4649 14.1704 16.2242 13.8977C15.8605 13.4756 15.4709 13.0756 15.0579 12.7014C14.0255 11.7565 12.8469 10.9843 11.6152 10.3253C10.8597 9.92565 10.0789 9.57012 9.26932 9.29404C9.1867 9.26782 9.0997 9.29285 9.01549 9.29384C8.67982 9.32145 8.34256 9.33833 8.00868 9.38401C7.96598 9.38957 7.92307 9.39176 7.88037 9.39454C7.88593 8.23996 7.88117 7.08538 7.88275 5.931C7.88494 5.73098 7.87819 5.53058 7.88653 5.33076Z" fill="#B02925"/>
<path d="M38.6588 6.85373C39.3089 6.37764 39.9602 5.90254 40.6238 5.44531C40.624 5.91942 40.6242 6.39333 40.6238 6.86744C40.6083 6.88035 40.5922 6.89246 40.5767 6.90418C38.0193 8.62721 35.5677 10.4996 33.0681 12.3041C32.4486 12.7605 31.8164 13.1993 31.1889 13.6446C30.0051 14.479 28.8059 15.2927 27.5659 16.0415C26.886 16.4501 26.1972 16.8443 25.4885 17.2005C24.7338 17.5774 23.9631 17.9284 23.1577 18.1836C22.2655 18.4679 21.3379 18.6711 20.3981 18.6772C19.6072 18.6955 18.8131 18.5574 18.0758 18.2706C17.3629 17.9862 16.7075 17.5604 16.1535 17.0297C15.8882 16.7764 15.6645 16.4844 15.4365 16.1982C15.2274 15.9309 15.0345 15.6502 14.8081 15.3966C14.05 14.4962 13.1518 13.7187 12.178 13.0598C10.91 12.2002 9.49598 11.5809 8.05201 11.0826C7.99381 11.0639 7.93383 11.048 7.88159 11.0154C7.88378 10.7304 7.88278 10.4454 7.88179 10.1604C8.50149 10.3304 9.10807 10.5471 9.70612 10.7818C10.5173 11.104 11.3078 11.4774 12.0751 11.8935C13.5405 12.7031 14.8649 13.7761 15.9287 15.0713C16.1504 15.3511 16.373 15.6304 16.603 15.9035C17.0618 16.4161 17.6112 16.8519 18.2289 17.1576C18.6115 17.3363 19.0131 17.4777 19.4276 17.562C19.9359 17.6676 20.458 17.6984 20.976 17.6668C21.4716 17.6388 21.9608 17.5449 22.4417 17.4249C23.2489 17.2183 24.0269 16.9103 24.7768 16.5496C26.1986 15.8661 27.5327 15.0174 28.8355 14.1316C30.0419 13.2773 31.24 12.4107 32.4224 11.5231L32.4466 11.5632C32.444 11.5485 32.441 11.5338 32.4384 11.5195C32.6907 11.3193 32.9543 11.1336 33.2089 10.9368C34.4491 10.0056 35.6855 9.06994 36.9271 8.14099C37.5051 7.71296 38.0773 7.27699 38.6588 6.85373Z" fill="#B02925"/>
<path d="M37.0733 10.333C38.2446 9.44759 39.4289 8.57942 40.6246 7.72754C40.6231 13.1517 40.624 18.576 40.6242 24.0003C29.711 24.0009 18.798 24.0001 7.88483 24.0007C7.87867 20.1769 7.88662 16.353 7.88086 12.5294C7.99824 12.5461 8.10729 12.5953 8.2207 12.6279C9.55761 13.0851 10.8455 13.6993 12.0128 14.4983C12.4384 14.7939 12.846 15.1162 13.2269 15.4676C13.5417 15.7413 13.8319 16.0422 14.108 16.3546C14.2899 16.5455 14.4397 16.7634 14.6085 16.9654C14.795 17.189 14.9714 17.4214 15.1714 17.6337C15.6815 18.1805 16.2744 18.6531 16.9312 19.0122C17.6182 19.387 18.3728 19.635 19.1464 19.7506C19.645 19.8329 20.1526 19.842 20.6565 19.8172C21.1455 19.7908 21.6324 19.726 22.1116 19.6243C22.8702 19.4634 23.6043 19.2052 24.3213 18.9131C25.4576 18.425 26.5518 17.8417 27.6007 17.1876C28.2645 16.7799 28.9102 16.3441 29.5539 15.9057C30.1716 15.4865 30.776 15.0479 31.3801 14.6093C31.9507 14.1879 32.5247 13.771 33.091 13.3433C34.4231 12.3463 35.7451 11.3357 37.0733 10.333Z" fill="#B02925"/>
<path d="M50.4577 16.8214C50.7476 16.813 51.037 16.7896 51.3272 16.7861C51.3252 17.7936 51.3263 18.8011 51.3263 19.8089C51.3263 19.9142 51.3342 20.0417 51.4299 20.1082C51.5229 20.1692 51.6414 20.1441 51.7467 20.1505C51.7475 20.2088 51.7481 20.2672 51.749 20.3264C51.497 20.3281 51.2453 20.3267 50.9935 20.3279C50.9681 20.1797 50.9565 20.03 50.9311 19.8822C50.8188 20.0758 50.6595 20.2581 50.4393 20.327C50.2287 20.3891 49.9886 20.3675 49.8008 20.2503C49.5753 20.1114 49.4143 19.8775 49.3501 19.622C49.283 19.3694 49.2813 19.1004 49.3388 18.8458C49.4038 18.5684 49.5759 18.3134 49.82 18.1641C50.0645 18.0144 50.3953 17.9932 50.6406 18.1524C50.7663 18.2274 50.855 18.3473 50.9355 18.4669C50.9299 18.048 50.9361 17.6288 50.9326 17.2103C50.9349 17.1274 50.8728 17.0542 50.7969 17.0291C50.6881 16.9903 50.5709 16.9991 50.458 16.9979C50.4574 16.9387 50.4574 16.8798 50.4577 16.8214ZM50.1558 18.2647C49.9994 18.3181 49.8801 18.4549 49.834 18.6121C49.757 18.8656 49.7544 19.1354 49.7728 19.3979C49.7941 19.6103 49.82 19.848 49.9843 20.0035C50.1211 20.1587 50.3678 20.1881 50.5452 20.0884C50.7053 19.995 50.8203 19.8329 50.8745 19.6575C50.9384 19.4417 50.9428 19.213 50.9282 18.9902C50.9043 18.7437 50.8115 18.4852 50.6067 18.3327C50.4804 18.2329 50.3057 18.221 50.1558 18.2647Z" fill="#B02925"/>
<path d="M44.8847 16.9983C44.8844 16.9388 44.8847 16.8799 44.8855 16.8213C45.4234 16.823 45.9613 16.8216 46.4992 16.8222C46.4986 16.8805 46.4992 16.9394 46.4998 16.9986C46.3428 17.0016 46.1821 16.9849 46.0293 17.0263C45.9409 17.0561 45.9488 17.1669 45.9412 17.2422C45.9406 18.1263 45.9397 19.0107 45.9415 19.8948C45.9482 19.9783 45.9377 20.1011 46.0401 20.1302C46.1897 20.1696 46.3478 20.1407 46.5009 20.1527C46.4998 20.2108 46.4992 20.2694 46.4998 20.3283C45.961 20.326 45.4223 20.3292 44.8838 20.3266C44.8844 20.267 44.8855 20.2084 44.8873 20.1501C45.0384 20.1463 45.1921 20.162 45.3415 20.1326C45.4491 20.1127 45.438 19.9806 45.445 19.8969C45.4465 19.0119 45.4468 18.1269 45.4447 17.2419C45.4406 17.169 45.4482 17.0631 45.3642 17.0328C45.2102 16.9782 45.0442 17.0048 44.8847 16.9983Z" fill="#B02925"/>
<path d="M56.5362 17.0001C56.5333 16.9388 56.5365 16.8779 56.5476 16.8184C57.1482 16.828 57.7491 16.8175 58.35 16.8233C58.5973 16.837 58.8552 16.8782 59.0652 17.0193C59.2708 17.1538 59.4205 17.374 59.4546 17.6191C59.4951 17.8895 59.4441 18.1981 59.2358 18.3915C58.9861 18.614 58.6533 18.7342 58.3208 18.7435C58.0787 18.7505 57.8366 18.7444 57.5948 18.7476C57.5971 19.1604 57.5884 19.5734 57.5991 19.9858C57.5942 20.078 57.6817 20.1401 57.7666 20.1469C57.9159 20.1544 58.0661 20.1489 58.2161 20.1498C58.2167 20.2087 58.2172 20.2676 58.2187 20.3271C57.6581 20.3283 57.0977 20.3268 56.5371 20.3277C56.533 20.2676 56.5353 20.2078 56.5444 20.1492C56.685 20.1477 56.8265 20.1576 56.967 20.1434C57.0423 20.1349 57.0931 20.0579 57.0881 19.9853C57.0884 19.0606 57.089 18.1356 57.0878 17.211C57.0936 17.1363 57.0645 17.0503 56.9869 17.0266C56.8405 16.9843 56.6859 17.0015 56.5362 17.0001ZM57.626 17.0689C57.5802 17.1366 57.5994 17.2226 57.5948 17.2997C57.5945 17.7244 57.5936 18.1493 57.5951 18.5743C57.8281 18.5703 58.0624 18.5843 58.2951 18.5598C58.492 18.537 58.7032 18.4591 58.8085 18.28C58.9296 18.0633 58.9328 17.8034 58.9103 17.5628C58.8913 17.3583 58.777 17.155 58.5859 17.0675C58.3643 16.97 58.1166 16.9811 57.88 16.9832C57.7917 16.9893 57.6832 16.9902 57.626 17.0689Z" fill="#B02925"/>
<path d="M63.9081 17.1878C63.9574 17.1811 64.0067 17.1753 64.058 17.1709C64.0912 17.4725 64.0644 17.7791 64.0723 18.083C64.3115 18.0854 64.5507 18.0813 64.7901 18.0854C64.7887 18.1583 64.7878 18.2312 64.7863 18.3047C64.5489 18.3021 64.3118 18.3047 64.0746 18.3035C64.0711 18.786 64.0726 19.2687 64.074 19.7512C64.0714 19.8831 64.1306 20.0304 64.2598 20.0837C64.3917 20.1459 64.5562 20.0907 64.642 19.9776C64.756 19.8349 64.7776 19.645 64.7884 19.4688C64.8426 19.4688 64.8972 19.4691 64.9526 19.4709C64.9287 19.7005 64.9054 19.9551 64.74 20.1327C64.5189 20.3886 64.0837 20.4116 63.8322 20.1896C63.7048 20.0712 63.6689 19.8892 63.6753 19.7223C63.6753 19.2492 63.6765 18.7764 63.6747 18.3032C63.5464 18.3038 63.4183 18.3035 63.2906 18.3038C63.2897 18.2484 63.2897 18.1939 63.29 18.1393C63.4411 18.1058 63.593 18.0407 63.6902 17.9147C63.8503 17.7091 63.897 17.4419 63.9081 17.1878Z" fill="#B02925"/>
<path d="M60.0514 18.0412C60.3273 17.9835 60.631 18.0301 60.8632 18.1961C61.1163 18.3691 61.2791 18.657 61.3194 18.9592C61.3765 19.3559 61.2984 19.8074 60.9898 20.0877C60.7608 20.2983 60.4367 20.4051 60.1275 20.3616C59.8784 20.3342 59.6515 20.1919 59.4966 19.9982C59.323 19.7923 59.2472 19.5201 59.2379 19.255C59.2268 19.0029 59.2755 18.7445 59.4038 18.5251C59.5462 18.2889 59.7784 18.0999 60.0514 18.0412ZM60.1999 18.1926C59.9916 18.2203 59.8338 18.3965 59.7614 18.5844C59.6687 18.8448 59.6666 19.1272 59.6812 19.4005C59.7002 19.6371 59.7506 19.8941 59.9324 20.0629C60.1287 20.2654 60.4942 20.2435 60.6727 20.0277C60.8632 19.8185 60.8824 19.5207 60.8985 19.2523C60.8999 18.963 60.8973 18.6433 60.7173 18.4009C60.6027 18.2384 60.3938 18.1614 60.1999 18.1926Z" fill="#B02925"/>
<path d="M61.7071 18.2946C61.8976 18.0548 62.2444 17.9936 62.5279 18.0752C62.6385 18.1012 62.7327 18.1665 62.8328 18.2179C62.9127 18.1569 62.9655 18.0181 63.088 18.0639C63.1046 18.3255 63.1271 18.5872 63.146 18.8491C63.0921 18.8488 63.0393 18.8488 62.9868 18.8491C62.9401 18.703 62.8786 18.5586 62.7785 18.4407C62.591 18.2161 62.2424 18.1522 61.9834 18.2815C61.8136 18.3652 61.7197 18.6026 61.8416 18.7633C61.9796 18.9276 62.2112 18.9471 62.4084 18.9862C62.6397 19.0352 62.8984 19.0518 63.0851 19.2143C63.2102 19.3283 63.2992 19.4899 63.3082 19.6612C63.3146 19.8668 63.186 20.0488 63.0349 20.1763C62.8576 20.3347 62.6073 20.384 62.376 20.3665C62.1832 20.3522 62.0052 20.2653 61.8498 20.1553C61.7981 20.2125 61.7506 20.2731 61.6978 20.3288C61.6619 20.3735 61.5977 20.3446 61.5496 20.3513C61.54 20.057 61.5146 19.7635 61.5059 19.4695C61.5554 19.4689 61.6059 19.4686 61.657 19.4689C61.7348 19.6469 61.8022 19.8365 61.9402 19.9791C62.0831 20.1407 62.3086 20.2028 62.5186 20.1926C62.6642 20.1847 62.8211 20.1433 62.9188 20.0275C63.0244 19.9076 63.039 19.7014 62.92 19.5859C62.8538 19.5115 62.7514 19.4923 62.6604 19.4681C62.4291 19.4161 62.1943 19.3776 61.9682 19.3053C61.8075 19.254 61.6596 19.1419 61.5942 18.983C61.4898 18.7578 61.549 18.4801 61.7071 18.2946Z" fill="#B02925"/>
<path d="M46.6426 18.1071C46.8891 18.0969 47.1349 18.0745 47.3814 18.0654C47.4135 18.2247 47.4269 18.3863 47.4506 18.547C47.5795 18.3361 47.7755 18.1544 48.0223 18.0981C48.2524 18.0444 48.524 18.0549 48.7107 18.2165C48.8839 18.3735 48.9531 18.6167 48.9563 18.8448C48.9633 19.215 48.9545 19.5857 48.9609 19.9562C48.9601 20.0204 48.9816 20.0985 49.0479 20.1251C49.143 20.1618 49.248 20.1458 49.3483 20.1513C49.3492 20.2097 49.3498 20.268 49.3512 20.3269C48.9606 20.3284 48.5701 20.3293 48.1795 20.3266C48.1801 20.2674 48.1812 20.2088 48.183 20.1504C48.2982 20.1414 48.4388 20.1732 48.5292 20.081C48.5774 20.0329 48.5651 19.9579 48.5701 19.8967C48.568 19.5749 48.5721 19.2532 48.5674 18.9318C48.5639 18.7509 48.5243 18.5511 48.3787 18.4295C48.2078 18.2921 47.9508 18.3049 47.7703 18.4172C47.5667 18.5482 47.459 18.7932 47.4511 19.0301C47.4427 19.3185 47.4494 19.6073 47.4468 19.8958C47.4462 19.9772 47.4517 20.079 47.5328 20.1239C47.6297 20.1592 47.7364 20.1478 47.8385 20.1513C47.8382 20.2097 47.8388 20.2686 47.8397 20.3278C47.4476 20.3275 47.0556 20.3287 46.6636 20.3272C46.6644 20.268 46.6659 20.2097 46.668 20.1516C46.798 20.1458 47.0121 20.1805 47.0506 20.0107C47.0591 19.5452 47.0515 19.0794 47.0542 18.6135C47.0556 18.519 47.0544 18.4108 46.9801 18.3414C46.8937 18.2466 46.7552 18.2687 46.6411 18.2585C46.6414 18.2078 46.6414 18.157 46.6426 18.1071Z" fill="#B02925"/>
<path d="M54.0146 18.0699C54.2649 18.0241 54.5347 18.0255 54.7719 18.1276C54.967 18.2078 55.1158 18.4009 55.1216 18.615C55.1271 19.0322 55.121 19.4496 55.1239 19.8667C55.1254 19.9667 55.1443 20.0884 55.2403 20.1432C55.3342 20.1774 55.4299 20.1313 55.5154 20.0936C55.537 20.133 55.5609 20.1721 55.5787 20.2147C55.4346 20.4069 55.1254 20.455 54.9332 20.3072C54.8416 20.2287 54.7911 20.1158 54.7447 20.0076C54.5968 20.1295 54.4647 20.2812 54.2774 20.343C54.0394 20.4157 53.7743 20.4157 53.5421 20.3232C53.3321 20.2363 53.1982 20 53.2472 19.7754C53.2845 19.5517 53.4697 19.3912 53.6593 19.2886C53.9878 19.1133 54.3585 19.0386 54.7249 18.9919C54.7115 18.7979 54.7751 18.5728 54.6394 18.4091C54.4411 18.1609 54.0397 18.165 53.7994 18.3479C53.7048 18.4117 53.7929 18.5121 53.8323 18.5815C53.8942 18.6658 53.8924 18.7909 53.8221 18.8703C53.7031 19.005 53.4485 18.963 53.3805 18.7959C53.3289 18.6786 53.3525 18.5404 53.4225 18.4362C53.5558 18.2361 53.7804 18.1101 54.0146 18.0699ZM53.9195 19.3869C53.7104 19.5094 53.636 19.7903 53.7212 20.0102C53.7693 20.1327 53.8988 20.2141 54.0307 20.2074C54.3092 20.2167 54.5653 20.0222 54.6698 19.7701C54.7497 19.5724 54.7217 19.3536 54.7223 19.1459C54.4484 19.1978 54.1628 19.2422 53.9195 19.3869Z" fill="#B02925"/>
<path d="M52.5811 17.1483C52.7645 17.106 52.9503 17.3047 52.887 17.4847C52.8503 17.6203 52.6942 17.7052 52.5604 17.6655C52.4475 17.6308 52.3538 17.5179 52.3675 17.3966C52.3699 17.2787 52.4664 17.1705 52.5811 17.1483Z" fill="#B02925"/>
<path d="M51.8501 18.1055C52.143 18.1002 52.4362 18.0929 52.729 18.0801C52.7334 18.7303 52.7226 19.3813 52.7343 20.0315C52.7844 20.2097 53.0169 20.133 53.1537 20.1499C53.1534 20.2083 53.1537 20.2669 53.154 20.3261C52.7343 20.3279 52.3145 20.3264 51.8948 20.3276C51.8939 20.2686 51.8933 20.21 51.8933 20.1517C52.0208 20.1353 52.1742 20.1864 52.2824 20.0989C52.3484 20.0187 52.325 19.904 52.3311 19.8081C52.3282 19.3892 52.3311 18.9706 52.33 18.552C52.3303 18.4727 52.3049 18.3864 52.2352 18.3417C52.1229 18.2633 51.9773 18.2883 51.849 18.2831C51.8487 18.2233 51.849 18.1641 51.8501 18.1055Z" fill="#B02925"/>
<path d="M49.9421 0.00253655C49.9842 0.00710483 50.0369 -0.0119628 50.074 0.0138579C50.0428 0.0249807 50.0085 0.0251793 49.9773 0.0273641C49.9791 0.0355076 49.9829 0.0517944 49.9848 0.0599379C49.9451 0.0674855 49.8943 0.0573558 49.873 0.0998606C49.8416 0.106812 49.8112 0.113565 49.7811 0.119921L49.7838 0.139585C49.7511 0.145543 49.7113 0.144749 49.6945 0.17911C49.6649 0.187452 49.6265 0.182685 49.6168 0.218238C49.5816 0.224793 49.5485 0.235518 49.5227 0.25975C49.4859 0.268887 49.4494 0.276633 49.4134 0.283585C49.4098 0.326288 49.3659 0.31735 49.3365 0.323507C49.3246 0.352903 49.2905 0.353499 49.2666 0.363827L49.2682 0.38071C49.2362 0.38647 49.2051 0.393025 49.1745 0.400175C49.155 0.431954 49.1161 0.431954 49.0847 0.439899L49.0909 0.458967C49.0577 0.465322 49.0213 0.46711 48.9991 0.494917C48.9135 0.534442 48.8225 0.567215 48.7443 0.618062C48.7218 0.626006 48.7006 0.633753 48.6799 0.641896C48.6491 0.662553 48.6138 0.673675 48.5842 0.694531C48.5558 0.706646 48.5238 0.712009 48.5027 0.735248C48.4729 0.742398 48.44 0.744781 48.4251 0.774972C48.3681 0.794039 48.3113 0.816086 48.2638 0.853626C48.237 0.865543 48.2018 0.866933 48.1897 0.896528C48.1591 0.904075 48.117 0.896726 48.1079 0.935457C48.0815 0.939628 48.0521 0.939827 48.0467 0.972202C48.0145 0.97975 47.9835 0.987099 47.9528 0.99405L47.9579 1.0157C47.9269 1.02444 47.8785 1.01193 47.8715 1.05304C47.7837 1.0729 47.7148 1.13547 47.6292 1.1601C47.6171 1.18969 47.5801 1.18552 47.5567 1.19644L47.5617 1.21273C47.4763 1.23597 47.4089 1.29953 47.3217 1.3184L47.3237 1.3327C47.2729 1.34839 47.2308 1.38315 47.1793 1.39526L47.1843 1.41215C47.1585 1.4187 47.1334 1.42585 47.1092 1.4336C47.0913 1.45982 47.0608 1.46756 47.0335 1.47769C46.9831 1.51344 46.9273 1.54343 46.8667 1.55635L46.8679 1.56906C46.8446 1.57561 46.8274 1.58872 46.8164 1.60838C46.7867 1.61673 46.7553 1.62249 46.7348 1.64672C46.7104 1.65566 46.6867 1.66459 46.6633 1.67313L46.6673 1.69081C46.6361 1.69796 46.6055 1.70571 46.5759 1.71405C46.5648 1.73987 46.5388 1.74742 46.5159 1.75616C46.4933 1.77662 46.4655 1.78754 46.4381 1.79747C46.3747 1.84574 46.2994 1.87732 46.2291 1.91426L46.2307 1.92955C46.2055 1.9365 46.1811 1.94385 46.1574 1.9512C46.1374 1.97762 46.1056 1.98537 46.0762 1.99351C46.0714 2.02549 46.0412 2.02549 46.0168 2.03065C45.9956 2.05329 45.9664 2.06382 45.9385 2.07296C45.9149 2.09103 45.8917 2.10891 45.8686 2.12658C45.8448 2.13671 45.822 2.14764 45.8019 2.16254C45.7608 2.18597 45.7181 2.20603 45.6786 2.23106C45.6585 2.2539 45.6281 2.26085 45.6019 2.27138C45.5818 2.29005 45.5568 2.30018 45.5324 2.30932L45.5328 2.32342C45.5077 2.33474 45.4726 2.33394 45.4642 2.36572C45.4511 2.36731 45.4253 2.37069 45.4122 2.37228C45.4122 2.37983 45.4124 2.39492 45.4124 2.40267C45.38 2.41161 45.3304 2.40247 45.3296 2.44775C45.3175 2.44875 45.2934 2.45093 45.2813 2.45193C45.246 2.50714 45.1673 2.5125 45.1167 2.55084C45.1097 2.55898 45.096 2.57487 45.089 2.58282C45.0783 2.58361 45.0569 2.585 45.0461 2.5858C45.0378 2.61897 45.005 2.62095 44.979 2.6287C44.9717 2.63664 44.9572 2.65253 44.9498 2.66048C44.9391 2.66187 44.9178 2.66465 44.9073 2.66604C44.8801 2.70934 44.8283 2.72483 44.7863 2.74827C44.7643 2.76992 44.7349 2.77945 44.7071 2.78839C44.699 2.81759 44.6684 2.81917 44.6453 2.82712C44.6072 2.86406 44.5621 2.89207 44.5125 2.90975C44.496 2.92424 44.4785 2.93676 44.4602 2.94748L44.4598 2.9592C44.4112 2.97172 44.3716 3.0029 44.3295 3.02753C44.3037 3.04818 44.2739 3.0605 44.2423 3.06546C44.2427 3.07301 44.2435 3.08811 44.2437 3.09565C44.2308 3.09744 44.205 3.10122 44.1921 3.103C44.1426 3.15623 44.0721 3.1904 44.0087 3.22615C43.9653 3.25872 43.9071 3.27362 43.8765 3.32049C43.8636 3.32168 43.8379 3.32407 43.825 3.32526C43.8246 3.3332 43.824 3.3489 43.8238 3.35684C43.7901 3.36022 43.7597 3.37094 43.7396 3.39875C43.7239 3.41047 43.7088 3.42199 43.6939 3.43371C43.6655 3.44225 43.6353 3.44781 43.6163 3.47184C43.5966 3.48634 43.5775 3.50064 43.5591 3.51494C43.538 3.52408 43.517 3.53341 43.4975 3.54315C43.4584 3.58446 43.4081 3.61644 43.3507 3.622C43.3505 3.62974 43.3503 3.64524 43.3501 3.65298C43.3394 3.65318 43.3179 3.65378 43.3072 3.65398L43.3078 3.67324C43.2838 3.68516 43.2488 3.68715 43.2417 3.71853C43.2325 3.71873 43.2145 3.71932 43.2053 3.71972C43.2061 3.72786 43.2073 3.74455 43.2079 3.75269C43.1795 3.75865 43.1513 3.76501 43.1243 3.77196C43.1018 3.82578 43.0325 3.82499 43.0006 3.87027C42.9725 3.8812 42.9445 3.89272 42.9259 3.91635C42.9012 3.9245 42.877 3.93244 42.8536 3.93999C42.8538 3.94793 42.8542 3.96382 42.8544 3.97157C42.8411 3.97256 42.8142 3.97475 42.8009 3.97574C42.759 4.0395 42.6695 4.04963 42.6232 4.1112C42.6138 4.11418 42.5956 4.11994 42.5862 4.12292C42.5568 4.14258 42.5272 4.16225 42.5034 4.18787C42.4506 4.20217 42.4031 4.22978 42.3668 4.2703C42.3411 4.27625 42.3137 4.28003 42.3095 4.31002C42.2825 4.31638 42.2539 4.32094 42.2464 4.35193C42.2382 4.35272 42.2216 4.35451 42.2132 4.35531C42.2138 4.36325 42.2148 4.37934 42.2154 4.38728C42.1842 4.39404 42.1534 4.40317 42.1246 4.4141C42.1066 4.43078 42.0867 4.44449 42.067 4.45799C42.0482 4.48322 42.0172 4.49017 41.99 4.4997C41.9673 4.53526 41.9326 4.5575 41.8948 4.57299L41.901 4.59008C41.874 4.59683 41.8398 4.59405 41.8313 4.62603C41.7822 4.64033 41.7522 4.68859 41.6992 4.69197L41.7 4.70746C41.6754 4.71203 41.6589 4.72573 41.6509 4.74838C41.6422 4.74877 41.6245 4.74977 41.6156 4.75036C41.6166 4.7597 41.6185 4.77857 41.6195 4.7881C41.5963 4.78949 41.5735 4.79128 41.5512 4.79307C41.5443 4.80121 41.5304 4.81769 41.5236 4.82604C41.4593 4.86179 41.405 4.91542 41.3335 4.93687C41.3125 4.95872 41.2924 4.98096 41.2731 5.0038C41.2622 5.0046 41.2402 5.00658 41.2293 5.00738C41.2245 5.03657 41.1973 5.04372 41.1744 5.05286C41.1583 5.07252 41.1353 5.08325 41.1143 5.09437C41.1017 5.10907 41.0882 5.12218 41.0733 5.1335C41.0519 5.14562 41.0316 5.15833 41.0118 5.17124C40.9869 5.18852 40.9625 5.2056 40.9387 5.22328C40.9057 5.2493 40.8717 5.27412 40.8334 5.29101C40.7937 5.31961 40.7561 5.35059 40.7186 5.38138C40.6827 5.39647 40.6525 5.41991 40.6237 5.44494C39.9601 5.90216 39.3088 6.37726 38.6587 6.85336C38.0771 7.27662 37.5049 7.71259 36.9269 8.14062C35.6854 9.06956 34.4489 10.0053 33.2088 10.9364C32.9541 11.1332 32.6906 11.3189 32.4383 11.5192C32.4409 11.5335 32.4439 11.5481 32.4465 11.5628L32.4222 11.5227C31.2398 12.4104 30.0418 13.2769 28.8353 14.1312C27.5326 15.0171 26.1984 15.8658 24.7767 16.5492C24.0267 16.9099 23.2487 17.218 22.4415 17.4245C21.9607 17.5445 21.4715 17.6385 20.9759 17.6665C20.4579 17.698 19.9357 17.6673 19.4275 17.5616C19.013 17.4774 18.6113 17.336 18.2288 17.1572C17.6111 16.8515 17.0617 16.4157 16.6029 15.9031C16.3729 15.63 16.1502 15.3507 15.9286 15.0709C14.8648 13.7757 13.5404 12.7027 12.0749 11.8932C11.3077 11.477 10.5172 11.1036 9.70599 10.7815C9.10794 10.5467 8.50135 10.33 7.88166 10.16C7.87371 10.1584 7.85782 10.155 7.84988 10.1534L7.85465 10.1346C7.7887 10.1302 7.72356 10.1189 7.65841 10.1101L7.66079 10.0897C7.61153 10.0797 7.55691 10.0835 7.51421 10.0539C7.45403 10.0398 7.39265 10.0343 7.33148 10.0283C7.31261 9.98501 7.26216 10.0011 7.22522 9.99514C7.17596 9.94389 7.08797 9.96574 7.02243 9.95144L7.0256 9.93058C6.9837 9.92463 6.94159 9.91926 6.89928 9.91748C6.89888 9.91152 6.89809 9.8994 6.89769 9.89344C6.84923 9.88431 6.77951 9.91191 6.75032 9.85988C6.6522 9.85471 6.55507 9.83783 6.45715 9.83127C6.40174 9.77387 6.30421 9.82313 6.24165 9.77526C6.17253 9.76573 6.10301 9.76076 6.03389 9.75163C5.96 9.71568 5.8744 9.72501 5.79614 9.70515C5.86526 9.69065 5.93498 9.67854 6.00569 9.67377L6.00688 9.6547C6.07501 9.65053 6.14293 9.64278 6.21106 9.63901L6.20629 9.61756C6.31236 9.61915 6.41663 9.59591 6.5225 9.59511V9.57466C6.60334 9.57505 6.68278 9.55857 6.76342 9.55599L6.76005 9.53454C6.8532 9.53632 6.94516 9.51726 7.03832 9.51527L7.03931 9.49501C7.12611 9.49322 7.21211 9.47813 7.2991 9.47713L7.29831 9.45687C7.37955 9.46005 7.45919 9.43979 7.54043 9.44138L7.53685 9.41874C7.6596 9.4245 7.78096 9.39987 7.90351 9.40027C7.93906 9.40007 7.97402 9.39292 8.00858 9.38537C8.34246 9.33969 8.67972 9.32281 9.01538 9.2952C9.0996 9.2942 9.1866 9.26918 9.26922 9.2954C10.0788 9.57148 10.8596 9.92701 11.6151 10.3266C12.8468 10.9857 14.0254 11.7579 15.0578 12.7027C15.4708 13.0769 15.8604 13.477 16.2241 13.899C16.4648 14.1717 16.6666 14.475 16.8949 14.7579C17.362 15.3611 17.9106 15.9281 18.6024 16.2704C19.3071 16.6062 20.0964 16.7522 20.8752 16.7184C21.7746 16.6833 22.6555 16.4533 23.4964 16.1424C24.2599 15.858 24.9978 15.5078 25.7136 15.1195C27.0529 14.3999 28.3336 13.5773 29.5881 12.7198C30.1989 12.2985 30.8112 11.8794 31.413 11.4453C33.9004 9.67774 36.3432 7.84745 38.8567 6.11687C39.2299 5.85767 39.6043 5.60006 39.9843 5.35119C39.9982 5.34305 40.0099 5.33212 40.0197 5.31862C40.0433 5.30868 40.0651 5.29419 40.0838 5.27551C40.0933 5.27254 40.1122 5.26678 40.1217 5.26399C40.1696 5.21037 40.2397 5.18038 40.3001 5.14184C40.319 5.12774 40.3382 5.11384 40.3587 5.10033C40.3954 5.06955 40.436 5.04392 40.4797 5.02327C40.5112 4.99864 40.5472 4.97977 40.5802 4.95633C40.5891 4.95335 40.6068 4.94759 40.6157 4.94481C40.6391 4.9033 40.6858 4.88642 40.7166 4.85166C40.7259 4.84928 40.7448 4.84431 40.7542 4.84173C40.7826 4.82028 40.8125 4.79982 40.836 4.77181C40.8469 4.77042 40.8688 4.76744 40.8797 4.76605C40.8866 4.75612 40.9003 4.73606 40.9071 4.72593C40.9381 4.7156 40.9816 4.7156 40.9925 4.67648C41.0052 4.67469 41.031 4.67131 41.0439 4.66952C41.0435 4.66118 41.0431 4.6447 41.0429 4.63655C41.0553 4.63437 41.0801 4.63 41.0926 4.62781C41.1061 4.60656 41.1282 4.59504 41.15 4.58273C41.1699 4.56843 41.1915 4.5581 41.215 4.54817C41.2221 4.51917 41.2493 4.51599 41.2749 4.51023C41.2843 4.48401 41.3095 4.47686 41.3337 4.46812C41.352 4.45342 41.3709 4.43873 41.3899 4.42363C41.409 4.40913 41.4305 4.3992 41.4531 4.38887C41.4662 4.36126 41.4968 4.35828 41.5234 4.34994C41.5296 4.341 41.5417 4.32353 41.5476 4.31459C41.5608 4.31419 41.5868 4.3134 41.5999 4.313C41.5997 4.30426 41.5991 4.28658 41.5987 4.27784C41.6122 4.27685 41.639 4.27447 41.6525 4.27328C41.6555 4.23951 41.6847 4.23593 41.7123 4.23077C41.7173 4.19998 41.7451 4.1972 41.7713 4.19204C41.7784 4.16304 41.8104 4.16165 41.8331 4.15073C41.865 4.08677 41.9528 4.10008 41.9852 4.04069C41.9981 4.0389 42.0237 4.03533 42.0364 4.03354C42.0362 4.0256 42.0358 4.00971 42.0355 4.00176C42.0488 3.99997 42.0752 3.9962 42.0885 3.99441C42.1131 3.94972 42.1663 3.93622 42.2075 3.91079C42.2265 3.89669 42.2468 3.88338 42.2678 3.87047C42.3386 3.8381 42.3934 3.77633 42.4698 3.75607C42.478 3.73342 42.4943 3.72012 42.5187 3.71595L42.5169 3.70125C42.5473 3.6945 42.5779 3.68476 42.6043 3.66609C42.6176 3.65159 42.6311 3.63709 42.6448 3.6224C42.6627 3.61803 42.6816 3.61366 42.701 3.60929C42.7412 3.5648 42.8051 3.54891 42.8407 3.50044C42.8544 3.49945 42.8816 3.49746 42.8951 3.49647C42.8941 3.48773 42.8921 3.47025 42.8911 3.46151C42.9294 3.45297 42.9682 3.44364 43.0077 3.4349C43.0077 3.42894 43.0079 3.41682 43.0081 3.41086C43.0508 3.37055 43.1295 3.37928 43.1559 3.32367C43.1668 3.32208 43.1884 3.3191 43.1994 3.31751C43.2079 3.27461 43.2717 3.29269 43.2752 3.24541C43.287 3.24402 43.3104 3.24124 43.3221 3.24005C43.3243 3.19854 43.3676 3.2047 43.3982 3.19655C43.4139 3.17828 43.4304 3.1606 43.4478 3.14312C43.4961 3.12922 43.5382 3.10082 43.5775 3.06964C43.6061 3.01442 43.6898 3.03686 43.7132 2.98482C43.7364 2.97787 43.7662 2.97787 43.7742 2.94848C43.826 2.93279 43.8796 2.91173 43.915 2.86823C43.9533 2.8593 43.9899 2.84281 44.0163 2.81183C44.0268 2.81024 44.0479 2.80706 44.0584 2.80527C44.0745 2.7868 44.0932 2.76992 44.1174 2.76098C44.147 2.72483 44.2159 2.74151 44.2276 2.68967C44.2415 2.68848 44.2693 2.6859 44.2832 2.68471L44.2769 2.66107C44.2894 2.6577 44.3144 2.65094 44.3269 2.64737L44.3214 2.62751C44.3534 2.62234 44.3869 2.61579 44.409 2.58877C44.4316 2.58063 44.4584 2.57547 44.4707 2.55044C44.5345 2.52681 44.6006 2.49999 44.6509 2.45212C44.6632 2.45093 44.6878 2.44855 44.7003 2.44736C44.7001 2.43941 44.6996 2.42332 44.6994 2.41538C44.7123 2.41319 44.7381 2.40902 44.751 2.40704C44.7768 2.38857 44.8046 2.37208 44.8293 2.35063C44.8547 2.33911 44.8938 2.34209 44.9047 2.30971C44.9339 2.30097 44.9683 2.2968 44.9858 2.26721C44.9989 2.26502 45.0249 2.26045 45.038 2.25807C45.0376 2.25112 45.0366 2.23702 45.0362 2.23007C45.0924 2.22192 45.152 2.19868 45.1868 2.15102C45.1999 2.14982 45.2263 2.14744 45.2396 2.14625C45.2394 2.1381 45.2388 2.12182 45.2384 2.11367C45.3069 2.11765 45.3542 2.06561 45.4162 2.04714L45.4128 2.02926C45.4404 2.0231 45.4684 2.01635 45.497 2.0098L45.4918 1.99033C45.5232 1.98477 45.556 1.97762 45.5802 1.95378C45.6271 1.92697 45.6797 1.9091 45.7219 1.87374C45.7475 1.86421 45.7741 1.85527 45.8015 1.84593C45.8194 1.82428 45.8462 1.81594 45.8728 1.80839L45.87 1.79111C45.8972 1.78476 45.9248 1.77801 45.9532 1.77145L45.9513 1.75437C45.982 1.74662 46.0148 1.73888 46.0365 1.71246C46.0639 1.70412 46.0917 1.69617 46.1205 1.68803C46.1286 1.65526 46.1606 1.65506 46.1888 1.6499L46.1852 1.63003C46.2069 1.62447 46.2289 1.61911 46.2518 1.61355L46.2488 1.59547C46.2847 1.58773 46.3203 1.57819 46.3566 1.56767C46.3694 1.53887 46.3993 1.53628 46.4272 1.53013L46.425 1.51106C46.4522 1.5053 46.4798 1.49894 46.5082 1.49299L46.5046 1.47431C46.5594 1.46001 46.618 1.44432 46.6562 1.39844C46.7118 1.38851 46.7628 1.36329 46.8101 1.3321L46.8067 1.3178C46.8395 1.31085 46.8731 1.3035 46.9068 1.29615L46.9052 1.27828C46.9654 1.26596 47.0167 1.23001 47.0747 1.20995C47.0981 1.19148 47.1265 1.17996 47.1559 1.17142C47.2073 1.13686 47.2665 1.1164 47.3241 1.09376L47.3199 1.07628C47.3503 1.06774 47.3994 1.08085 47.4087 1.03973C47.4435 1.03119 47.4882 1.03497 47.5088 0.998221C47.5364 0.990872 47.5645 0.983921 47.5933 0.976572C47.6175 0.948963 47.6546 0.944197 47.6886 0.933272C47.7098 0.908246 47.7422 0.90189 47.7728 0.892357C47.8 0.868721 47.8342 0.858194 47.8707 0.85581C47.9108 0.806354 47.9816 0.797416 48.0394 0.77815L48.0362 0.760075C48.0693 0.753124 48.1031 0.745973 48.1375 0.738823L48.1339 0.717769C48.1675 0.711612 48.2014 0.705057 48.2362 0.6989L48.2332 0.679038C48.2652 0.672881 48.3023 0.671689 48.3242 0.641896C48.3889 0.629184 48.4463 0.594227 48.5103 0.576749C48.5369 0.553113 48.5709 0.544175 48.6054 0.535435C48.6297 0.518354 48.6569 0.506636 48.6855 0.496506C48.7232 0.472274 48.7683 0.466514 48.8124 0.460357L48.811 0.442084C48.8412 0.435132 48.8716 0.427386 48.903 0.419441C48.929 0.387662 48.9719 0.387265 49.0096 0.379121L49.006 0.361841C49.0738 0.344363 49.1369 0.312385 49.2058 0.296892C49.2392 0.272263 49.2797 0.26412 49.3207 0.257565C49.3473 0.243463 49.3777 0.232142 49.3963 0.205924C49.4396 0.198972 49.4835 0.191623 49.5276 0.18348L49.5262 0.164412C49.5979 0.158454 49.6579 0.112771 49.7294 0.103634L49.7227 0.0819848C49.7568 0.0803958 49.7908 0.0786082 49.8263 0.0770193C49.8259 0.0686772 49.8252 0.0523903 49.8246 0.0440482C49.8655 0.0422607 49.9064 0.0402745 49.9485 0.0388841C49.9469 0.0297476 49.9437 0.0114745 49.9421 0.00253655Z" fill="#FEE801"/>
<path d="M53.362 0.562632C53.4742 0.55568 53.5757 0.497683 53.6897 0.496094C53.6879 0.544359 53.6393 0.552105 53.6059 0.570775C53.5717 0.588651 53.534 0.596794 53.4972 0.601363C53.4986 0.607321 53.5016 0.619437 53.503 0.625594C53.4742 0.63056 53.4462 0.635525 53.4188 0.640292L53.42 0.659757C53.3912 0.665517 53.3636 0.671873 53.3364 0.67803L53.3405 0.695707C53.3094 0.704049 53.2637 0.697296 53.2529 0.735034C53.2084 0.743178 53.1646 0.751718 53.1211 0.76006L53.126 0.77595C53.0934 0.786477 53.0629 0.798791 53.0355 0.81766C53.0106 0.821434 52.9866 0.824811 52.9634 0.828187C52.9638 0.835536 52.9645 0.850234 52.9651 0.857782C52.924 0.860165 52.8803 0.859172 52.8553 0.896314C52.8209 0.904656 52.787 0.912601 52.7538 0.920744C52.7391 0.956695 52.7002 0.951928 52.6698 0.957092C52.6509 0.996816 52.5995 0.988871 52.5645 0.998604L52.5703 1.01926C52.5407 1.02502 52.5121 1.03078 52.4839 1.03614L52.4871 1.0566C52.4426 1.06713 52.3981 1.07527 52.3534 1.07567C52.3695 1.08183 52.3864 1.08778 52.4036 1.09394C52.3729 1.10348 52.3254 1.09196 52.3192 1.13327C52.2469 1.14002 52.1877 1.1861 52.1174 1.19981C52.0966 1.22602 52.0626 1.22801 52.0334 1.23476C52.0151 1.26992 51.9701 1.26734 51.9383 1.27846C51.9248 1.31679 51.8789 1.30627 51.8481 1.31461L51.8519 1.33368C51.8245 1.34083 51.7895 1.33745 51.78 1.36943C51.7466 1.38135 51.6912 1.36843 51.6862 1.41471C51.6596 1.41591 51.6338 1.4173 51.6086 1.41849C51.6092 1.42663 51.6103 1.44272 51.6107 1.45086C51.5295 1.4459 51.4683 1.50528 51.3913 1.51442L51.3954 1.53627C51.366 1.54123 51.3369 1.5462 51.3088 1.55117L51.3152 1.57143C51.2866 1.57699 51.258 1.58314 51.2308 1.5891L51.2342 1.61055C51.2014 1.6185 51.1569 1.60996 51.1452 1.64928C51.1104 1.65981 51.0534 1.64452 51.0498 1.69358C51.0353 1.69358 51.0061 1.69378 50.9914 1.69397C50.992 1.70271 50.9934 1.72039 50.994 1.72913C50.9599 1.73131 50.9253 1.7337 50.8925 1.73628C50.8933 1.74462 50.8951 1.7617 50.8959 1.77024C50.8798 1.77064 50.8478 1.77163 50.8318 1.77203C50.8326 1.78077 50.8337 1.79805 50.8345 1.80659C50.7924 1.81493 50.7309 1.79924 50.7092 1.84512C50.677 1.85307 50.6459 1.86101 50.6149 1.86896L50.6198 1.88942C50.5881 1.89597 50.5567 1.90352 50.5267 1.91186C50.5058 1.94265 50.4701 1.94642 50.4371 1.9488C50.4371 1.95417 50.4373 1.96529 50.4375 1.97065C50.4055 1.978 50.3644 1.97105 50.3513 2.00819C50.3261 2.01475 50.3006 2.0207 50.2768 2.02666L50.2802 2.04871C50.2558 2.05089 50.2319 2.05308 50.2089 2.05566C50.1948 2.11267 50.1128 2.0795 50.0939 2.13054C50.0828 2.13074 50.0605 2.13134 50.0494 2.13153C50.043 2.14087 50.0303 2.15934 50.024 2.16848C49.9958 2.17146 49.9684 2.17444 49.9415 2.17742C49.9415 2.18476 49.9413 2.19966 49.9411 2.20701C49.926 2.208 49.8957 2.20979 49.8804 2.21078C49.8806 2.21913 49.881 2.23541 49.8812 2.24356C49.8394 2.24753 49.7987 2.25448 49.7592 2.26421L49.7636 2.28408C49.7032 2.30096 49.6446 2.32499 49.5951 2.36313C49.5665 2.37425 49.5306 2.37544 49.5163 2.40643C49.5032 2.40821 49.4768 2.41139 49.4635 2.41318C49.4643 2.42092 49.4654 2.43622 49.466 2.44396C49.4277 2.45112 49.3715 2.43523 49.358 2.48329C49.3238 2.49163 49.2901 2.50017 49.2573 2.50891C49.2404 2.5391 49.2064 2.54347 49.1769 2.54824C49.1258 2.59015 49.064 2.61557 49.0013 2.63226C48.9866 2.65053 48.9681 2.66185 48.9459 2.66662L48.9506 2.68251C48.8831 2.69284 48.8291 2.7407 48.7609 2.74825C48.7474 2.78639 48.7043 2.78142 48.673 2.78857C48.6732 2.79552 48.6737 2.80963 48.6739 2.81658C48.6598 2.81876 48.6318 2.82333 48.6177 2.82551C48.5929 2.85312 48.558 2.86226 48.5232 2.86643C48.5137 2.9 48.4767 2.89622 48.4513 2.90437L48.4553 2.92363C48.4273 2.93059 48.3998 2.93774 48.3732 2.94489L48.376 2.96316C48.348 2.96932 48.3107 2.96415 48.3073 3.00129C48.2779 3.00805 48.2497 3.015 48.2219 3.02255C48.2034 3.06009 48.1583 3.05631 48.1244 3.06545C48.1144 3.10199 48.0757 3.09961 48.0467 3.10736C48.037 3.13497 48.0094 3.13874 47.9857 3.1447C47.9698 3.17807 47.9331 3.17727 47.9027 3.18303C47.894 3.21223 47.8634 3.21561 47.8399 3.22554C47.8127 3.23964 47.7845 3.25215 47.7571 3.26387L47.7601 3.28234C47.7442 3.28353 47.7124 3.28631 47.6967 3.28751C47.6969 3.29505 47.6971 3.30975 47.6973 3.3171C47.6648 3.32365 47.6244 3.32048 47.6095 3.35643C47.5791 3.36397 47.5474 3.37013 47.5301 3.39794C47.5164 3.39933 47.4894 3.40211 47.4759 3.4035C47.4773 3.41244 47.48 3.43031 47.4814 3.43945C47.4469 3.44203 47.4125 3.44481 47.3795 3.44759C47.3797 3.45455 47.3801 3.46845 47.3803 3.4754C47.3474 3.48057 47.3166 3.49089 47.2927 3.51393C47.2685 3.52307 47.2411 3.52784 47.2324 3.55485C47.2024 3.56279 47.1668 3.5614 47.1521 3.59298C47.1237 3.60431 47.0929 3.61046 47.0737 3.63489C47.0445 3.64363 47.0137 3.64939 46.9946 3.67442C46.9676 3.68475 46.941 3.69547 46.9185 3.71295C46.8719 3.74016 46.8256 3.76976 46.7725 3.78207C46.7658 3.81623 46.7304 3.81186 46.7046 3.81762L46.707 3.83411C46.6542 3.85437 46.6047 3.88138 46.5568 3.91018C46.5352 3.9223 46.5114 3.93143 46.4973 3.95189C46.4456 3.96957 46.3914 3.98983 46.3584 4.03551C46.3346 4.0373 46.3118 4.03889 46.2895 4.04048C46.2899 4.04922 46.2909 4.06689 46.2915 4.07563C46.2589 4.08358 46.2164 4.07861 46.2019 4.11536C46.1767 4.12271 46.1525 4.12966 46.1286 4.13661L46.1312 4.1525C46.1052 4.16183 46.078 4.16938 46.0615 4.19242C46.0394 4.20056 46.0182 4.20831 45.9979 4.21685C45.931 4.26432 45.8585 4.30683 45.7828 4.339C45.7673 4.35489 45.7501 4.3678 45.731 4.37773L45.7318 4.39164C45.7012 4.40018 45.6549 4.39084 45.6498 4.43176C45.6025 4.44467 45.5626 4.47327 45.5204 4.49591C45.4928 4.51101 45.4668 4.52809 45.4442 4.54875C45.4162 4.55729 45.389 4.56563 45.3623 4.57417C45.3534 4.60078 45.3288 4.60933 45.3055 4.61667C45.2837 4.63872 45.2549 4.65024 45.2259 4.656C45.2132 4.6711 45.1997 4.685 45.1852 4.69771C45.1611 4.71499 45.1333 4.72532 45.1065 4.73466C45.091 4.7563 45.0674 4.76544 45.0442 4.77339C45.0303 4.80497 44.9935 4.80377 44.9665 4.81351C44.9538 4.83277 44.9361 4.84608 44.9139 4.85303L44.918 4.86674C44.8928 4.87448 44.8684 4.88263 44.8445 4.89037C44.8191 4.90845 44.7941 4.92672 44.7701 4.94559C44.7319 4.96267 44.6958 4.98353 44.658 5.00001C44.658 5.00597 44.6576 5.01789 44.6576 5.02365C44.5981 5.02603 44.5621 5.0741 44.5103 5.09336C44.4799 5.13448 44.427 5.14759 44.3901 5.18096C44.3688 5.19307 44.3414 5.19843 44.3315 5.22306C44.3065 5.22942 44.2797 5.2326 44.2729 5.2606C44.2187 5.27311 44.1742 5.30489 44.1353 5.34263C44.086 5.35375 44.0499 5.38812 44.0141 5.42069C43.9899 5.42844 43.9649 5.43499 43.9543 5.46041C43.9257 5.46915 43.8965 5.47769 43.8773 5.50113C43.8554 5.51265 43.8344 5.52417 43.8149 5.53768C43.7946 5.55138 43.7748 5.56469 43.7557 5.57839C43.7341 5.59051 43.7076 5.59726 43.6965 5.6211C43.6711 5.62686 43.6453 5.63103 43.6391 5.65943C43.6149 5.66837 43.5887 5.67453 43.5783 5.70055C43.5495 5.70929 43.5205 5.71822 43.5013 5.74186C43.4852 5.7498 43.4699 5.75795 43.4552 5.76589C43.4361 5.78218 43.4159 5.79588 43.3948 5.8078C43.3694 5.82389 43.3454 5.84157 43.3227 5.86044C43.3064 5.86878 43.2907 5.87732 43.2756 5.88606C43.2522 5.90413 43.226 5.91784 43.1988 5.92697C43.1751 5.95339 43.1461 5.97385 43.1175 5.99351C43.1078 5.99589 43.0881 6.00066 43.0784 6.00305C43.0715 6.03264 43.0433 6.03761 43.0196 6.04515C42.994 6.0815 42.9525 6.10037 42.9177 6.12559C42.8865 6.14824 42.8424 6.15598 42.8258 6.19372C42.8168 6.19452 42.7989 6.19591 42.7902 6.1965L42.7932 6.21815C42.7745 6.2253 42.7562 6.23225 42.7388 6.2394C42.7151 6.25927 42.6917 6.27953 42.6663 6.29601C42.6452 6.30852 42.6252 6.32223 42.6063 6.33673C42.591 6.34507 42.5761 6.35341 42.5618 6.36215C42.5425 6.37705 42.5225 6.39036 42.5026 6.40327C42.4778 6.42094 42.4533 6.43882 42.4277 6.45411C42.4112 6.46484 42.3967 6.47755 42.3842 6.49205C42.3419 6.5139 42.2941 6.53177 42.2674 6.57328C42.2444 6.58341 42.2222 6.59434 42.2079 6.61519C42.1844 6.62334 42.1574 6.62671 42.1532 6.65492C42.1282 6.66127 42.1042 6.66962 42.0879 6.69007C42.0732 6.70298 42.0593 6.71649 42.0464 6.73079C42.0204 6.73735 41.9943 6.7439 41.9888 6.77409C41.9777 6.77628 41.9556 6.78064 41.9445 6.78283C41.9369 6.80905 41.9127 6.81799 41.8905 6.82653C41.8611 6.84559 41.8293 6.86407 41.8118 6.89525C41.8025 6.89525 41.7836 6.89525 41.7743 6.89525C41.7751 6.90419 41.7766 6.92206 41.7774 6.9312C41.7447 6.93934 41.6998 6.93199 41.6906 6.9739C41.6819 6.97509 41.6646 6.97748 41.6559 6.97887C41.6571 6.98761 41.6595 7.00528 41.6607 7.01402C41.6448 7.01502 41.6134 7.0168 41.5977 7.0176C41.5985 7.02674 41.5999 7.04501 41.6007 7.05415C41.5852 7.05474 41.5542 7.05633 41.5387 7.05712C41.5389 7.06606 41.5391 7.08414 41.5393 7.09307C41.527 7.09466 41.5022 7.09764 41.4898 7.09923C41.4769 7.11552 41.4644 7.13181 41.4525 7.14809C41.4424 7.14988 41.4219 7.15365 41.4118 7.15544C41.3842 7.1902 41.3447 7.21106 41.3095 7.23628C41.2871 7.2627 41.2535 7.26945 41.2219 7.27442C41.2223 7.28157 41.2231 7.29567 41.2235 7.30262C41.1303 7.34493 41.0582 7.42239 40.9702 7.47383C40.9502 7.49071 40.9295 7.5072 40.9174 7.53064C40.9041 7.53183 40.8777 7.53441 40.8644 7.5358C40.8648 7.54355 40.8658 7.55924 40.8662 7.56698C40.8388 7.57314 40.8056 7.57294 40.7986 7.60611C40.7752 7.61485 40.7516 7.62319 40.7385 7.64544C40.7184 7.65894 40.6987 7.67225 40.6799 7.68616C40.661 7.69986 40.6429 7.71416 40.6247 7.72747C39.429 8.57935 38.2446 9.44752 37.0733 10.333C35.7451 11.3356 34.4231 12.3462 33.091 13.3433C32.5247 13.7709 31.9507 14.1878 31.3801 14.6093C30.7761 15.0478 30.1716 15.4864 29.5539 15.9057C28.9102 16.344 28.2645 16.7798 27.6007 17.1876C26.5518 17.8416 25.4576 18.425 24.3213 18.913C23.6043 19.2051 22.8702 19.4634 22.1116 19.6242C21.6324 19.7259 21.1455 19.7907 20.6565 19.8171C20.1526 19.8419 19.645 19.8328 19.1464 19.7506C18.3728 19.635 17.6182 19.3869 16.9312 19.0121C16.2744 18.653 15.6815 18.1805 15.1714 17.6337C14.9714 17.4213 14.795 17.189 14.6085 16.9653C14.4397 16.7633 14.29 16.5454 14.108 16.3545C13.8319 16.0421 13.5417 15.7412 13.2269 15.4675C12.846 15.1162 12.4384 14.7938 12.0128 14.4982C10.8455 13.6992 9.55762 13.0851 8.2207 12.6278C8.10729 12.5953 7.99825 12.546 7.88086 12.5293C7.8465 12.4987 7.80003 12.4983 7.75693 12.4952C7.75712 12.4898 7.75752 12.4787 7.75772 12.4733C7.71422 12.4664 7.67092 12.46 7.62762 12.4532C7.62306 12.4475 7.61372 12.436 7.60915 12.4302C7.52096 12.408 7.43516 12.3742 7.343 12.3722C7.3428 12.3651 7.34221 12.3506 7.34201 12.3434C7.3005 12.3414 7.25938 12.3396 7.21807 12.3384C7.21866 12.3321 7.22005 12.3194 7.22085 12.313C7.18629 12.3083 7.15213 12.3041 7.11757 12.3001L7.12094 12.2791C7.06751 12.2727 7.01448 12.2642 6.96125 12.2568L6.96443 12.236C6.91021 12.2294 6.85598 12.2228 6.80176 12.2187L6.80514 12.1972C6.75767 12.1903 6.71039 12.1831 6.66292 12.1776L6.66749 12.1567C6.60155 12.1464 6.53541 12.1384 6.46887 12.1353C6.46887 12.1279 6.46847 12.1134 6.46847 12.1061C6.42796 12.1031 6.38783 12.1001 6.34751 12.0975L6.3501 12.0767C6.31097 12.0705 6.26429 12.0765 6.23549 12.0439C6.16677 12.0348 6.09825 12.0248 6.02952 12.0169L6.0331 11.9972C5.98742 11.992 5.94193 11.9865 5.89684 11.9785C5.83229 11.9255 5.7298 11.97 5.66783 11.917C5.62315 11.9068 5.57726 11.9025 5.53158 11.9001L5.53377 11.8794C5.47418 11.8729 5.41459 11.8645 5.35501 11.858L5.3566 11.8385C5.31012 11.8351 5.26404 11.8308 5.21816 11.8236C5.14725 11.7726 5.04298 11.8129 4.97008 11.7624C4.91189 11.7531 4.85329 11.7462 4.7945 11.7422L4.79728 11.7219C4.71048 11.7217 4.62567 11.7007 4.53907 11.7003L4.54384 11.6794C4.48207 11.6693 4.4197 11.6623 4.35694 11.6635C4.35754 11.6578 4.35893 11.6461 4.35952 11.6401C4.29259 11.6355 4.22605 11.627 4.15892 11.623L4.1617 11.6026C4.06219 11.6002 3.96387 11.5813 3.86416 11.5807L3.86873 11.5591C3.80517 11.5539 3.73705 11.5581 3.67945 11.5261C3.60715 11.5199 3.53525 11.511 3.46295 11.5072L3.46116 11.4878C3.33583 11.4878 3.21229 11.4619 3.08716 11.4631L3.09054 11.4403C2.98308 11.4407 2.87702 11.4155 2.76937 11.4234C2.77036 11.4172 2.77254 11.4053 2.77354 11.3994C2.66648 11.396 2.56022 11.3801 2.45296 11.3829L2.45614 11.3594C2.35524 11.362 2.25573 11.3396 2.15464 11.3453L2.15404 11.3251C2.03566 11.3261 1.91848 11.3042 1.8001 11.3086C1.7997 11.3024 1.79871 11.2901 1.79831 11.284C1.59174 11.2923 1.38657 11.2568 1.18 11.2661L1.18159 11.2419C0.99926 11.2462 0.817522 11.2246 0.63499 11.228C0.595663 11.2254 0.550973 11.2343 0.517406 11.2077C0.371222 11.2057 0.224838 11.2003 0.0786537 11.2021C0.05184 11.1986 0.0111227 11.2101 0 11.1759C0.0139034 11.138 0.0581958 11.1509 0.0895779 11.1445L0.0865985 11.1269C0.163663 11.1161 0.230996 11.072 0.309054 11.0665L0.307067 11.047C0.341627 11.0418 0.375989 11.0361 0.410549 11.0307L0.407371 11.0099C0.448485 11.0041 0.4896 10.997 0.530515 10.9898L0.528132 10.9703C0.614135 10.9707 0.684446 10.9129 0.769655 10.909L0.763895 10.8879C0.798057 10.8853 0.832021 10.8824 0.865985 10.88C0.865787 10.8726 0.865191 10.8581 0.864794 10.851C0.912661 10.8484 0.960132 10.8416 1.00701 10.8315L1.00403 10.8116C1.05706 10.8043 1.10969 10.795 1.16272 10.788L1.15994 10.7656C1.19411 10.7618 1.22847 10.7574 1.26283 10.7538C1.26283 10.7481 1.26263 10.7368 1.26263 10.7312C1.3097 10.7252 1.35658 10.7179 1.40365 10.7111L1.39948 10.6903C1.43762 10.6855 1.47595 10.68 1.51329 10.67C1.57268 10.6335 1.64617 10.6361 1.7131 10.6253L1.71191 10.6095C1.73773 10.6079 1.7566 10.5961 1.76852 10.5747C1.84757 10.5691 1.92523 10.5532 2.00408 10.5445C2.01977 10.5119 2.0585 10.5171 2.0883 10.5089C2.14689 10.4756 2.217 10.4792 2.28096 10.4645C2.32207 10.4241 2.38285 10.4355 2.43509 10.4313L2.43052 10.4088C2.47243 10.4045 2.51434 10.3995 2.55644 10.3949L2.55347 10.3749C2.61722 10.3685 2.68078 10.3596 2.74414 10.3505C2.79221 10.306 2.86828 10.3232 2.92866 10.3099L2.92707 10.2901C2.9809 10.2782 3.04724 10.2927 3.09014 10.2519C3.15588 10.2347 3.23354 10.2501 3.29174 10.211C3.33027 10.2043 3.3692 10.1997 3.40833 10.1965C3.40734 10.1908 3.40555 10.1792 3.40455 10.1735C3.46692 10.1719 3.52869 10.1639 3.59046 10.1556L3.5849 10.1353C3.63694 10.1338 3.68957 10.1318 3.73983 10.1165C3.7581 10.0932 3.78908 10.0984 3.81471 10.0944C3.88124 10.0889 3.94719 10.0777 4.01372 10.0722C4.06 10.015 4.14044 10.0559 4.20321 10.0499L4.204 10.0704C4.30172 10.0736 4.39805 10.0946 4.49617 10.0962C4.49597 10.102 4.49578 10.1139 4.49558 10.1199C4.5496 10.1264 4.60402 10.1312 4.65845 10.1332L4.65626 10.1542C4.70453 10.1586 4.75279 10.1645 4.80125 10.1701L4.79669 10.1904C4.86362 10.1937 4.93016 10.2029 4.9969 10.2112L4.99372 10.2329C5.04198 10.2339 5.09005 10.2356 5.13831 10.2378C5.13811 10.2452 5.13792 10.2595 5.13792 10.2668C5.22273 10.2746 5.30694 10.2897 5.39235 10.2929L5.38937 10.3137C5.44836 10.3234 5.50755 10.3318 5.56713 10.3361C5.56733 10.3417 5.56733 10.353 5.56733 10.3586C5.59633 10.362 5.62553 10.365 5.65473 10.3679L5.65195 10.3884C5.72464 10.3939 5.79654 10.4057 5.86904 10.4132L5.86467 10.4343C5.91273 10.4396 5.9606 10.446 6.00867 10.4514L6.00549 10.4726C6.06527 10.4811 6.12526 10.4891 6.18564 10.4939C6.18504 10.5012 6.18405 10.5163 6.18345 10.5238C6.23708 10.5268 6.29071 10.5298 6.34454 10.5322C6.34414 10.5401 6.34334 10.556 6.34295 10.5642C6.38366 10.5662 6.42458 10.5685 6.46549 10.5705L6.46033 10.5946C6.47701 10.5948 6.51058 10.5952 6.52727 10.5952C6.52707 10.6029 6.52687 10.618 6.52667 10.6255C6.60552 10.6277 6.68219 10.6478 6.76065 10.6531L6.75747 10.6754C6.79898 10.6829 6.84109 10.6877 6.88339 10.6901L6.87882 10.7117C6.9255 10.7191 6.97237 10.7264 7.01945 10.7324L7.01548 10.754C7.04467 10.7582 7.07367 10.7628 7.10287 10.7674L7.10088 10.7868C7.16365 10.7944 7.22601 10.8047 7.28878 10.813C7.30586 10.8673 7.37438 10.8418 7.41728 10.8512C7.41669 10.8591 7.4155 10.8748 7.4149 10.8828C7.44926 10.8841 7.48402 10.8861 7.51878 10.8875C7.51779 10.8939 7.5156 10.9068 7.51461 10.9131C7.56148 10.9193 7.60856 10.9255 7.65563 10.9308C7.65523 10.938 7.65424 10.9523 7.65384 10.9594C7.69396 10.9626 7.73448 10.9662 7.775 10.9694C7.7746 10.9763 7.77421 10.9904 7.77381 10.9976C7.80976 11.0023 7.84571 11.0081 7.88146 11.0152C7.9337 11.0478 7.99368 11.0637 8.05188 11.0824C9.49585 11.5807 10.9098 12.2 12.1778 13.0596C13.1517 13.7185 14.0498 14.4961 14.808 15.3964C15.0344 15.65 15.2272 15.9307 15.4364 16.198C15.6644 16.4842 15.8881 16.7762 16.1534 17.0295C16.7074 17.5602 17.3628 17.986 18.0757 18.2704C18.8129 18.5573 19.607 18.6953 20.3979 18.677C21.3378 18.6709 22.2654 18.4677 23.1576 18.1834C23.963 17.9282 24.7336 17.5773 25.4884 17.2003C26.1971 16.8441 26.8859 16.4499 27.5657 16.0413C28.8057 15.2925 30.005 14.4788 31.1888 13.6444C31.8162 13.1991 32.4484 12.7603 33.0679 12.3039C35.5676 10.4994 38.0191 8.62702 40.5766 6.90399C40.5921 6.89227 40.6082 6.88015 40.6237 6.86724C40.631 6.86049 40.6459 6.84679 40.6535 6.84003C40.6791 6.83328 40.711 6.83149 40.716 6.79832C40.7246 6.79733 40.7416 6.79554 40.7502 6.79455C40.75 6.78621 40.7496 6.76952 40.7494 6.76118C40.7812 6.75304 40.8272 6.75999 40.834 6.71609C40.8431 6.71589 40.8616 6.7155 40.8709 6.7153C40.8701 6.70696 40.8684 6.69047 40.8676 6.68213C40.9001 6.67458 40.9335 6.66664 40.9673 6.65889L40.9647 6.64062C41.004 6.61877 41.0479 6.59851 41.0737 6.55938C41.0868 6.55759 41.1131 6.55422 41.1262 6.55263C41.1258 6.54389 41.125 6.52641 41.1248 6.51787C41.1359 6.51708 41.1581 6.51568 41.1695 6.51489C41.1683 6.50734 41.1663 6.49225 41.1653 6.4845C41.1961 6.47795 41.2273 6.46921 41.258 6.45888C41.2803 6.43842 41.3035 6.41896 41.3272 6.39949C41.351 6.39115 41.3754 6.38241 41.4005 6.37427C41.4003 6.36652 41.3999 6.35143 41.3997 6.34388C41.4148 6.34249 41.4451 6.33971 41.4604 6.33832C41.4598 6.33117 41.4591 6.31667 41.4585 6.30952C41.4966 6.30336 41.5276 6.28012 41.5572 6.25609C41.6027 6.22769 41.6485 6.19928 41.6926 6.1679C41.7121 6.15598 41.7373 6.14923 41.749 6.12639C41.79 6.10295 41.839 6.08329 41.8656 6.04197C41.8924 6.03999 41.923 6.03979 41.9252 6.00424C41.9487 5.99709 41.9727 5.99013 41.9975 5.98358C42.0142 5.96392 42.0309 5.94386 42.047 5.9232C42.0603 5.92201 42.0869 5.91982 42.1002 5.91883C42.0998 5.91009 42.0992 5.89261 42.099 5.88387C42.1121 5.88328 42.1381 5.88248 42.1512 5.88209C42.158 5.87354 42.1717 5.85627 42.1785 5.84753C42.2275 5.83104 42.2664 5.7939 42.3169 5.7798L42.3139 5.75974C42.3248 5.75934 42.3469 5.75854 42.3578 5.75815C42.3578 5.7498 42.358 5.73332 42.3582 5.72498C42.3729 5.72359 42.4027 5.7212 42.4174 5.71981C42.417 5.71167 42.4162 5.69538 42.4156 5.68744C42.445 5.67771 42.4941 5.68863 42.4986 5.64652C42.5243 5.64116 42.5507 5.63302 42.5628 5.6062C42.586 5.59846 42.6107 5.59111 42.6355 5.58396L42.6333 5.56807C42.6675 5.53927 42.7217 5.53192 42.7421 5.48882C42.7707 5.48127 42.8119 5.48743 42.8194 5.44909C42.8891 5.4193 42.9527 5.37501 43.0212 5.34124C43.0411 5.31165 43.0738 5.3047 43.1082 5.3033C43.1082 5.29536 43.1082 5.27987 43.1084 5.27212C43.1191 5.27153 43.1406 5.27014 43.1513 5.26954L43.1495 5.25127C43.1722 5.24054 43.1946 5.22783 43.2161 5.21313C43.259 5.18811 43.3011 5.1601 43.3489 5.14401L43.3467 5.12395C43.3579 5.12415 43.3803 5.12435 43.3916 5.12435C43.3908 5.11541 43.389 5.09753 43.3883 5.0886C43.4041 5.088 43.4357 5.08681 43.4516 5.08621C43.4512 5.07767 43.4504 5.06039 43.45 5.05165C43.4818 5.04391 43.5336 5.05761 43.5358 5.01054C43.5495 5.00935 43.5769 5.00696 43.5906 5.00577C43.5904 4.99763 43.5897 4.98134 43.5895 4.9734C43.6197 4.96545 43.6651 4.97479 43.6741 4.93447C43.7672 4.88839 43.858 4.83734 43.9496 4.78789L43.944 4.77259C43.9716 4.76782 44.0076 4.76981 44.0105 4.73207C44.0407 4.72373 44.0884 4.73207 44.0876 4.68718C44.0973 4.68818 44.117 4.68977 44.1269 4.69076C44.1265 4.68202 44.1257 4.66454 44.1253 4.656C44.1579 4.64825 44.1911 4.63991 44.2248 4.63197L44.2225 4.61469C44.258 4.58807 44.3083 4.57675 44.3313 4.53564C44.3585 4.5265 44.4006 4.53325 44.4074 4.49571C44.4759 4.4685 44.5363 4.42322 44.6038 4.39223L44.6002 4.37197C44.6112 4.37158 44.6332 4.37098 44.6441 4.37058C44.6435 4.36244 44.6421 4.34615 44.6416 4.33801C44.6733 4.33086 44.722 4.34158 44.7274 4.2965C44.7564 4.28955 44.7973 4.29531 44.807 4.25757C44.835 4.25002 44.8628 4.2389 44.8861 4.21983C44.9081 4.2093 44.9329 4.20076 44.9484 4.17911C44.9685 4.17057 44.9887 4.16243 45.0102 4.15409C45.0493 4.11337 45.1165 4.10801 45.1451 4.05676C45.1586 4.05557 45.1854 4.05359 45.1987 4.05259C45.1983 4.04365 45.1973 4.02598 45.1969 4.01704C45.2126 4.01624 45.2438 4.01446 45.2593 4.01346C45.2587 4.00492 45.2577 3.98784 45.2571 3.9793C45.2932 3.97016 45.355 3.98923 45.3594 3.9366C45.385 3.93263 45.4162 3.93402 45.4239 3.90085C45.4579 3.8929 45.4948 3.88694 45.5208 3.86013C45.5612 3.8351 45.6035 3.81226 45.649 3.79637C45.6609 3.76141 45.7032 3.76916 45.7324 3.75883C45.7324 3.75426 45.732 3.74513 45.7318 3.74056C45.7558 3.73023 45.7876 3.72805 45.8019 3.70123C45.8251 3.69349 45.848 3.68634 45.8728 3.67938L45.8718 3.66131C45.8956 3.65257 45.9336 3.65615 45.9383 3.62099C45.9687 3.61324 45.9999 3.6057 46.0317 3.59894L46.0279 3.57749C46.0609 3.56895 46.0941 3.56101 46.1282 3.55425C46.128 3.5471 46.1274 3.5326 46.127 3.52525C46.1503 3.52247 46.1741 3.51949 46.1989 3.51632C46.2065 3.49149 46.2238 3.47858 46.2512 3.47798L46.2462 3.4605C46.2746 3.45435 46.3034 3.44819 46.333 3.44203L46.326 3.42277C46.359 3.41979 46.389 3.40608 46.4127 3.38185C46.4268 3.37967 46.455 3.3749 46.4691 3.37271C46.4689 3.36517 46.4683 3.35047 46.4681 3.34312C46.4992 3.33557 46.5499 3.34868 46.5535 3.3032C46.5813 3.29446 46.6262 3.30459 46.6361 3.26605C46.6649 3.25811 46.7038 3.26109 46.7159 3.22554C46.7445 3.217 46.7884 3.22434 46.793 3.18383C46.8166 3.18065 46.8411 3.17747 46.8663 3.17469C46.8661 3.16714 46.8657 3.15244 46.8655 3.1451C46.8951 3.13497 46.9461 3.14768 46.9505 3.10438C46.9871 3.101 47.0264 3.09782 47.0518 3.06624C47.0752 3.0587 47.1035 3.05472 47.1132 3.02652C47.1491 3.01778 47.1863 3.00944 47.2238 3.00229L47.2196 2.98322C47.2496 2.97567 47.2794 2.96753 47.3106 2.95939C47.3265 2.92443 47.3664 2.92661 47.399 2.91906L47.397 2.90516C47.4437 2.87358 47.4957 2.85372 47.5511 2.842C47.5662 2.81042 47.6046 2.8134 47.6332 2.80188C47.6874 2.76374 47.7585 2.75282 47.808 2.70833C47.8338 2.69522 47.8799 2.70336 47.8862 2.66523C47.9099 2.66304 47.9343 2.66106 47.9597 2.65907C47.9591 2.65093 47.9577 2.63464 47.9569 2.6263C47.9837 2.62431 48.0111 2.62213 48.0392 2.62014C48.0388 2.612 48.038 2.59591 48.0374 2.58777C48.0707 2.58499 48.1035 2.58181 48.1381 2.57883C48.1373 2.57049 48.1357 2.554 48.1349 2.54566C48.1619 2.54427 48.1897 2.54308 48.2181 2.54188C48.2177 2.53374 48.2169 2.51765 48.2165 2.50971C48.2954 2.50931 48.3605 2.46681 48.4322 2.44317L48.4308 2.42688C48.4892 2.40742 48.5554 2.39371 48.6016 2.34962C48.6289 2.33969 48.668 2.34465 48.6829 2.31228C48.7206 2.30553 48.7582 2.29301 48.7907 2.27077C48.8164 2.26243 48.8535 2.26382 48.8549 2.22667C48.8869 2.22548 48.9184 2.22449 48.952 2.2235C48.9514 2.21535 48.95 2.19907 48.9492 2.19112C48.9836 2.18516 49.0186 2.17841 49.0539 2.17166L49.0483 2.1504C49.1135 2.1506 49.1651 2.10532 49.2289 2.09757C49.2293 2.09161 49.2301 2.07969 49.2305 2.07374C49.2613 2.0652 49.3058 2.07254 49.3183 2.03401C49.3483 2.03004 49.3781 2.02627 49.4098 2.02289C49.4092 2.01554 49.4078 2.00064 49.4073 1.9931C49.4869 1.99409 49.5546 1.95397 49.6269 1.92874L49.6255 1.91246C49.6549 1.90272 49.706 1.91583 49.7123 1.87194C49.7425 1.86836 49.7727 1.86499 49.8049 1.86161C49.8043 1.85426 49.8033 1.83976 49.8027 1.83241C49.8406 1.82685 49.8935 1.83797 49.9123 1.79328C49.9435 1.78673 49.9759 1.78018 50.0085 1.77422L50.0021 1.75316C50.0462 1.74879 50.0947 1.7472 50.1286 1.71324C50.1545 1.70053 50.2005 1.71066 50.2101 1.67411C50.2434 1.66458 50.2981 1.68166 50.3088 1.63598C50.3433 1.62903 50.3785 1.62168 50.4141 1.61373C50.4274 1.57719 50.4719 1.59208 50.5013 1.58136C50.5013 1.5752 50.5014 1.56288 50.5016 1.55653C50.5469 1.54878 50.5926 1.53984 50.6389 1.5321L50.6347 1.51184C50.6661 1.50588 50.6977 1.49913 50.7303 1.49218C50.7543 1.46814 50.7859 1.45742 50.82 1.45325L50.8173 1.43597C50.8665 1.42623 50.9164 1.4169 50.967 1.40995C50.9742 1.36486 51.0242 1.38115 51.0574 1.37499L51.0526 1.35255C51.0999 1.33527 51.1726 1.35374 51.2002 1.3015C51.2276 1.29832 51.2568 1.29554 51.2862 1.29276C51.289 1.24509 51.3416 1.26197 51.3748 1.25522L51.3698 1.23198C51.4091 1.22503 51.4491 1.21828 51.4898 1.21232L51.4878 1.19127C51.522 1.18531 51.5563 1.17955 51.5919 1.17438L51.5879 1.15293C51.6223 1.14757 51.6572 1.14181 51.693 1.13704C51.693 1.13128 51.6934 1.11996 51.6934 1.1144C51.7261 1.10924 51.7603 1.10367 51.7945 1.09851L51.7911 1.07706C51.8243 1.07368 51.8568 1.07031 51.8916 1.06693C51.8916 1.05998 51.8918 1.04647 51.8918 1.03972C51.9367 1.03356 51.9818 1.02681 52.0277 1.01986C52.0278 1.0141 52.0284 1.00277 52.0288 0.997015C52.0682 0.99046 52.1083 0.98331 52.1488 0.976755L52.1458 0.957886C52.1812 0.952126 52.2167 0.94577 52.2531 0.939613L52.2459 0.91856C52.2956 0.912005 52.3454 0.904259 52.3957 0.894924C52.4187 0.846262 52.4789 0.862747 52.5228 0.855001L52.5222 0.835139C52.5532 0.828187 52.5846 0.821037 52.6166 0.813489C52.6535 0.785682 52.701 0.784292 52.7459 0.778334L52.7413 0.758273C52.7878 0.750924 52.8344 0.743376 52.8819 0.736623L52.8783 0.715768C52.9121 0.7112 52.9459 0.706036 52.981 0.701467C52.981 0.695509 52.981 0.683989 52.9812 0.678229C53.0213 0.672667 53.0623 0.666311 53.1036 0.660154L53.0992 0.639299C53.1914 0.64347 53.2704 0.587459 53.3614 0.583884C53.3614 0.578521 53.3618 0.567994 53.362 0.562632Z" fill="#FEE801"/>
<path d="M44.0957 0.818233C44.1355 0.782879 44.1954 0.699061 44.2493 0.766989C44.2103 0.791022 44.1702 0.810884 44.1285 0.826575C44.1257 0.862526 44.0898 0.861731 44.0634 0.866697C44.0636 0.875039 44.0641 0.891524 44.0645 0.899668C44.0487 0.899866 44.0171 0.899866 44.0012 0.899866C44.0022 0.908407 44.0044 0.92529 44.0056 0.933831C43.9785 0.941179 43.9476 0.942173 43.9358 0.971171C43.914 0.983287 43.8935 0.995403 43.8749 1.0103C43.853 1.02202 43.8304 1.03254 43.8173 1.054C43.7998 1.06194 43.7827 1.06989 43.7662 1.07783C43.7058 1.12451 43.6371 1.15907 43.5805 1.21031C43.5591 1.22262 43.5386 1.23534 43.5193 1.24904C43.4776 1.27248 43.4375 1.2983 43.4021 1.33008C43.3642 1.34954 43.3287 1.37179 43.2949 1.39662C43.2707 1.41469 43.2464 1.43237 43.2228 1.44965C43.2033 1.46236 43.1851 1.47507 43.1672 1.48818C43.1306 1.51539 43.0933 1.54161 43.05 1.55551L43.052 1.56902C42.9916 1.59941 42.9408 1.64529 42.8814 1.67687C42.8629 1.69673 42.8375 1.70607 42.8138 1.7152L42.8134 1.72653C42.7912 1.73467 42.7749 1.74897 42.7644 1.76923C42.7544 1.77121 42.7346 1.77519 42.7247 1.77717C42.698 1.80081 42.672 1.82484 42.6468 1.84927C42.6218 1.85702 42.5971 1.86476 42.5733 1.87251C42.5737 1.88125 42.5747 1.89913 42.5753 1.90806C42.5622 1.90866 42.536 1.90985 42.5229 1.91065C42.507 1.93071 42.4907 1.94977 42.4738 1.96825C42.4496 1.97738 42.4267 1.98831 42.4077 2.00479C42.388 2.0187 42.3687 2.032 42.3497 2.04472C42.2885 2.08305 42.2299 2.12496 42.1707 2.16587C42.154 2.17441 42.1379 2.18315 42.1224 2.19189C42.1032 2.2056 42.0843 2.2195 42.0664 2.2336C42.0476 2.25029 42.0287 2.26677 42.0108 2.28326C41.9659 2.30193 41.9278 2.33152 41.8922 2.3635C41.8702 2.37423 41.8489 2.38535 41.8324 2.40283C41.8138 2.41653 41.7957 2.43024 41.7782 2.44414C41.7603 2.45169 41.7431 2.45924 41.7266 2.46678C41.7077 2.49658 41.6732 2.50313 41.6424 2.51028C41.6426 2.51862 41.6432 2.53551 41.6436 2.54385C41.633 2.54405 41.612 2.54425 41.6015 2.54444C41.6017 2.55398 41.6017 2.57265 41.6017 2.58218C41.5883 2.58278 41.5615 2.58437 41.5482 2.58516C41.5448 2.62171 41.5097 2.62171 41.4823 2.62826C41.4825 2.63601 41.4831 2.6511 41.4835 2.65865C41.4682 2.66024 41.4378 2.66362 41.4225 2.66521C41.4229 2.67375 41.4235 2.69083 41.4237 2.69957C41.4112 2.70135 41.3863 2.70533 41.374 2.70731C41.3454 2.74823 41.3015 2.77246 41.2622 2.80066C41.2507 2.80563 41.2277 2.81536 41.2159 2.82033C41.1987 2.84257 41.1782 2.86184 41.1567 2.87952C41.1244 2.89104 41.0962 2.90951 41.0727 2.93374C41.0628 2.93672 41.0429 2.94268 41.033 2.94566C41.0264 2.97386 40.999 2.97922 40.9764 2.98757C40.9637 3.00306 40.9504 3.01716 40.9361 3.03027C40.9037 3.05291 40.853 3.05589 40.8401 3.0986C40.8318 3.09899 40.8151 3.09979 40.8068 3.10018L40.808 3.11826C40.7684 3.13911 40.7333 3.16633 40.7001 3.19552C40.6793 3.20903 40.659 3.22253 40.6391 3.23604C40.6175 3.24875 40.5968 3.26146 40.5776 3.27636C40.5639 3.28887 40.5506 3.30159 40.538 3.3143C40.5136 3.32284 40.4874 3.32939 40.4798 3.3576C40.4703 3.35998 40.4508 3.36455 40.4413 3.36673C40.3855 3.41996 40.316 3.45472 40.257 3.50319C40.2347 3.52225 40.2077 3.53377 40.1815 3.5443C40.1456 3.59932 40.0758 3.61541 40.0403 3.67062C40.0155 3.67877 39.9894 3.68552 39.9821 3.71392C39.9726 3.7165 39.9535 3.72187 39.9438 3.72465C39.9247 3.7465 39.8993 3.76119 39.8719 3.76795C39.8719 3.7741 39.8717 3.78642 39.8717 3.79258C39.8202 3.80251 39.7769 3.83151 39.7444 3.87123C39.7207 3.88017 39.6975 3.8899 39.685 3.91254C39.6675 3.92128 39.6506 3.92982 39.6341 3.93836C39.6278 3.94571 39.6152 3.96021 39.6091 3.96756C39.5789 3.98285 39.5505 4.00053 39.5237 4.02C39.4885 4.05376 39.4488 4.08276 39.4027 4.09865C39.3995 4.13103 39.3717 4.1352 39.3459 4.13897C39.3032 4.19061 39.2464 4.22815 39.1876 4.25834C39.1713 4.27761 39.1489 4.28833 39.1278 4.29926C39.0998 4.3213 39.069 4.34037 39.049 4.37016C39.0387 4.37096 39.0182 4.37255 39.0079 4.37334C39.0017 4.4077 38.9687 4.41168 38.9427 4.42042C38.9423 4.42816 38.9415 4.44346 38.9411 4.4512C38.9328 4.4516 38.9165 4.45259 38.9082 4.45299C38.9028 4.48378 38.8754 4.48993 38.8502 4.49609C38.8255 4.53283 38.784 4.5517 38.7491 4.57613C38.73 4.59103 38.7097 4.60354 38.6901 4.61586C38.673 4.6379 38.6464 4.64645 38.6221 4.65538C38.6059 4.67246 38.59 4.68955 38.5747 4.70702C38.534 4.7247 38.4905 4.74496 38.4744 4.78965C38.4611 4.79045 38.4346 4.79243 38.4213 4.79323C38.4217 4.80157 38.4225 4.81785 38.4231 4.826C38.3673 4.82957 38.3395 4.88618 38.2855 4.89373C38.2853 4.90167 38.2851 4.91736 38.2849 4.92531C38.2704 4.9265 38.2412 4.92869 38.2267 4.92988C38.2263 4.93842 38.2255 4.9553 38.2249 4.96384C38.2144 4.96424 38.1933 4.96503 38.1828 4.96543L38.1874 4.99205C38.1782 4.99264 38.1602 4.99344 38.151 4.99403C38.1439 5.01886 38.1274 5.03316 38.1014 5.03654C38.1018 5.04408 38.1026 5.05918 38.1029 5.06653C38.0881 5.06732 38.0585 5.06871 38.0436 5.06931C38.0432 5.07725 38.0422 5.09354 38.0416 5.10148C37.9997 5.10685 37.9729 5.13922 37.9389 5.15928C37.8823 5.19702 37.8239 5.23257 37.775 5.27985C37.7663 5.28263 37.749 5.28819 37.7403 5.29117C37.7297 5.3015 37.7087 5.32235 37.698 5.33268C36.4967 6.20621 35.3239 7.11788 34.1375 8.01128C32.2718 9.42982 30.4026 10.845 28.479 12.1845C27.235 13.0602 25.9527 13.8885 24.5942 14.5769C23.9383 14.9018 23.2642 15.1944 22.5639 15.4093C22.0935 15.5535 21.6083 15.6522 21.1175 15.6884C20.7127 15.7072 20.3026 15.7072 19.9055 15.6171C19.4725 15.5261 19.0521 15.3612 18.6852 15.1122C18.086 14.7227 17.6411 14.1526 17.1938 13.6064C16.8623 13.1986 16.495 12.8217 16.1155 12.4588C15.7264 12.0979 15.3307 11.7422 14.9049 11.4246C14.3666 11.0085 13.8079 10.6184 13.2271 10.2634C12.5848 9.87652 11.9152 9.52437 11.1998 9.29238C11.0675 9.2467 10.9293 9.22008 10.7986 9.17003C11.6268 9.1168 12.4571 9.07529 13.2873 9.1021C13.3534 9.10111 13.4085 9.14162 13.4629 9.1738C14.6592 9.87473 15.7657 10.7292 16.7457 11.7104C17.3108 12.2852 17.8435 12.8906 18.3764 13.495C18.606 13.7419 18.8199 14.0058 19.0826 14.2196C19.3617 14.4523 19.6855 14.6351 20.036 14.735C20.502 14.8694 20.9942 14.8498 21.4709 14.795C22.3152 14.6891 23.1262 14.4057 23.9012 14.0626C25.3463 13.4181 26.7043 12.597 28.0247 11.7295C28.3185 11.5336 28.6109 11.3358 28.905 11.1407C29.5353 10.7066 30.1613 10.2666 30.786 9.82448C32.0305 8.93208 33.2735 8.0371 34.5125 7.13675C35.3459 6.53334 36.1825 5.9339 37.0221 5.33904L36.997 5.33427L36.9845 5.33188C37.0175 5.32056 37.0729 5.33645 37.0814 5.28819C37.0906 5.28739 37.1085 5.28561 37.1174 5.28481C37.1164 5.27667 37.1142 5.26058 37.113 5.25264C37.1575 5.25025 37.197 5.23158 37.2233 5.19444C37.2354 5.19225 37.2594 5.18808 37.2715 5.1859C37.2709 5.17756 37.2697 5.16087 37.2691 5.15253C37.2824 5.15094 37.3089 5.14737 37.3222 5.14558C37.3261 5.1142 37.3547 5.10903 37.3814 5.10188C37.3921 5.0846 37.4034 5.06732 37.4149 5.04984C37.4366 5.0419 37.4586 5.03356 37.4813 5.02521C37.4894 4.9978 37.5152 4.99145 37.5397 4.98331C37.5657 4.94775 37.6116 4.93584 37.6423 4.90445C37.6622 4.89154 37.6827 4.87883 37.7035 4.86592C37.7212 4.84824 37.7419 4.83355 37.7661 4.82481L37.7673 4.81229C37.7925 4.80892 37.8084 4.79481 37.8149 4.77019C37.8281 4.7688 37.8539 4.76601 37.8668 4.76462C37.867 4.75728 37.8674 4.74218 37.8676 4.73483C37.8918 4.72411 37.9288 4.72609 37.9363 4.69253C37.945 4.69133 37.9623 4.68875 37.9709 4.68736C37.9697 4.67902 37.9669 4.66234 37.9655 4.65379C37.9993 4.65042 38.0448 4.65121 38.0525 4.60732C38.0614 4.60811 38.0795 4.6093 38.0884 4.6099C38.0883 4.60136 38.0879 4.58388 38.0875 4.57534C38.1172 4.5668 38.1472 4.55786 38.178 4.54892C38.1808 4.51873 38.2072 4.51317 38.2326 4.50602C38.246 4.49212 38.2597 4.47841 38.2744 4.46511C38.3049 4.45041 38.3345 4.43134 38.3556 4.40353C38.3667 4.40016 38.3888 4.3936 38.3999 4.39022C38.4174 4.37592 38.4352 4.36162 38.4543 4.34772C38.4807 4.32528 38.5075 4.30303 38.5349 4.28098C38.5443 4.2784 38.5632 4.27344 38.5725 4.27105C38.5812 4.24384 38.6067 4.23709 38.6313 4.22914C38.644 4.21484 38.6579 4.20134 38.6728 4.18863C38.6929 4.17154 38.7175 4.16161 38.7429 4.15287L38.7407 4.13798C38.7745 4.12546 38.8088 4.11096 38.8331 4.08236C38.8422 4.07978 38.8609 4.07482 38.87 4.07243C38.8796 4.05475 38.8931 4.04045 38.9103 4.02953C38.9302 4.01642 38.9507 4.00351 38.9719 3.9912C38.9977 3.97451 39.0218 3.95505 39.0458 3.93499C39.0545 3.9336 39.072 3.93082 39.0808 3.92943C39.0806 3.92208 39.08 3.90738 39.0796 3.90003C39.1104 3.89328 39.1417 3.88374 39.165 3.85991C39.1785 3.84998 39.1924 3.84024 39.2071 3.83031C39.225 3.81065 39.2496 3.80032 39.2746 3.79099L39.2732 3.77291C39.2845 3.77192 39.3076 3.76993 39.3189 3.76894C39.3183 3.7604 39.3171 3.74332 39.3165 3.73458C39.328 3.73577 39.3511 3.73776 39.3626 3.73895C39.3618 3.72941 39.3602 3.71015 39.3594 3.70061C39.3747 3.69903 39.4053 3.69585 39.4206 3.69406C39.4202 3.68572 39.4196 3.66903 39.4192 3.66069C39.4349 3.6595 39.4663 3.65692 39.482 3.65573C39.4812 3.64778 39.4794 3.63169 39.4784 3.62355C39.5155 3.61799 39.5549 3.61064 39.5801 3.57926C39.5946 3.57131 39.6097 3.56337 39.6252 3.55542C39.6363 3.5298 39.6621 3.52384 39.6864 3.5159C39.7108 3.49623 39.7354 3.47677 39.7608 3.4577C39.7698 3.45671 39.7873 3.45512 39.796 3.45432C39.7952 3.44559 39.7936 3.4285 39.7928 3.41976C39.8049 3.41818 39.8292 3.415 39.8413 3.41341C39.8677 3.38322 39.9032 3.36356 39.9382 3.34389C39.9579 3.33098 39.9783 3.31827 39.9988 3.30516C40.0363 3.27199 40.0788 3.24478 40.1289 3.23485C40.1291 3.2275 40.1293 3.2126 40.1293 3.20525C40.1376 3.20426 40.1543 3.20228 40.1626 3.20128C40.1853 3.17963 40.2097 3.15898 40.2355 3.14011C40.257 3.13375 40.2792 3.1266 40.3017 3.11905C40.3114 3.09343 40.3362 3.08588 40.3603 3.07714C40.3889 3.04437 40.4264 3.02093 40.4644 2.99968C40.4886 2.9826 40.5128 2.96552 40.538 2.94864C40.5585 2.93533 40.5831 2.9254 40.5972 2.90315C40.6066 2.90156 40.6254 2.89819 40.6348 2.8964C40.6608 2.87217 40.6912 2.8531 40.7184 2.82946C40.7412 2.82033 40.768 2.81318 40.7742 2.78438C40.7833 2.78438 40.8018 2.78398 40.8109 2.78378C40.8105 2.77504 40.8096 2.75756 40.8092 2.74882C40.8465 2.74068 40.9073 2.75518 40.9114 2.70036C40.9186 2.70076 40.9331 2.70155 40.9402 2.70195C40.9462 2.65925 40.9982 2.66481 41.0175 2.63144C41.0441 2.62151 41.0777 2.61833 41.0934 2.58973C41.1506 2.5647 41.2016 2.52915 41.2543 2.49539C41.2783 2.48863 41.3047 2.48188 41.3091 2.45169C41.3224 2.4503 41.349 2.44712 41.3621 2.44553C41.3621 2.43699 41.3621 2.41951 41.3621 2.41077C41.3752 2.40958 41.4016 2.4072 41.4149 2.40601C41.4189 2.37164 41.4523 2.37065 41.4799 2.3633L41.4801 2.3498C41.5238 2.32616 41.5659 2.29974 41.6066 2.27075C41.6412 2.24691 41.6765 2.22347 41.7151 2.205C41.7393 2.18812 41.7633 2.17024 41.7872 2.15137C41.8583 2.12198 41.9187 2.07312 41.9836 2.0324C42.0549 2.00082 42.1193 1.95613 42.1848 1.91382C42.2021 1.90032 42.2206 1.88701 42.239 1.8735C42.2615 1.86496 42.2847 1.85662 42.3085 1.84808C42.3369 1.81531 42.3743 1.79187 42.4166 1.78055C42.4166 1.77419 42.4162 1.76168 42.4162 1.75552C42.5217 1.73546 42.5999 1.65383 42.6957 1.61053L42.6953 1.59623C42.7211 1.58908 42.7481 1.58094 42.764 1.55631C42.792 1.54638 42.8212 1.53704 42.851 1.5283V1.51758C42.8683 1.50506 42.8853 1.49195 42.9024 1.47805C42.9235 1.46832 42.9451 1.45898 42.968 1.44985C43.0007 1.4284 43.0331 1.40575 43.0645 1.38112C43.0744 1.37954 43.0945 1.37656 43.1046 1.37517C43.1219 1.34974 43.1477 1.33246 43.1731 1.31498C43.1843 1.3122 43.2065 1.30664 43.2176 1.30386C43.243 1.28241 43.2715 1.26513 43.302 1.25043C43.3287 1.23554 43.3531 1.21686 43.3757 1.19561C43.4033 1.18767 43.4315 1.18012 43.4605 1.17237C43.485 1.12888 43.5384 1.11736 43.5783 1.09134C43.6004 1.07088 43.6294 1.06214 43.658 1.05201C43.6689 1.02639 43.6953 1.02063 43.7195 1.01109C43.7646 0.982294 43.8206 0.965411 43.8532 0.920126C43.8792 0.907414 43.9188 0.910195 43.9329 0.878415C43.9599 0.868882 43.9944 0.868087 44.0133 0.841671C44.0228 0.835911 44.0419 0.824192 44.0514 0.818432C44.0626 0.818432 44.0846 0.818233 44.0957 0.818233Z" fill="#FEE801"/>
<path d="M54.735 8.29395H55.153C55.2543 8.3319 55.3614 8.35565 55.4566 8.4085C55.6629 8.51886 55.8396 8.68953 55.9451 8.89931C56.0943 9.20362 56.1127 9.55613 56.0706 9.88745C57.4857 9.88862 58.9011 9.88745 60.3163 9.88792C60.3165 9.95963 60.3167 10.0311 60.3167 10.1028C60.0422 10.1031 59.7677 10.1047 59.4932 10.1024C59.4895 11.1915 59.4923 12.2805 59.492 13.3695C59.4844 13.4756 59.5244 13.606 59.6406 13.6335C59.7498 13.6493 59.8611 13.6382 59.9714 13.6405C59.9745 13.7108 59.9752 13.7813 59.974 13.8519C59.4993 13.8519 59.0245 13.8505 58.55 13.8528C58.5467 13.7813 58.5486 13.7096 58.5563 13.6386C58.6627 13.6384 58.7703 13.6493 58.8762 13.6328C58.971 13.6158 59.0164 13.5166 59.0306 13.4309C59.0534 13.2749 59.041 13.1171 59.0385 12.9604C58.7747 13.1872 58.4534 13.3504 58.1116 13.4191C57.8631 13.4719 57.5949 13.4221 57.3835 13.2812C57.1137 13.1138 56.9372 12.8409 56.7937 12.565C56.6848 12.3511 56.5411 12.1436 56.3281 12.0223C56.3546 11.9424 56.387 11.8642 56.4261 11.7895C56.7528 12.0821 57.2683 12.0889 57.6373 11.8728C57.814 11.7685 57.8855 11.5583 57.9106 11.3652C57.9363 11.1152 57.9479 10.8551 57.8664 10.6134C57.8033 10.4388 57.6929 10.2709 57.526 10.1811C57.4128 10.1187 57.2818 10.1014 57.1544 10.1031C56.7842 10.104 56.414 10.1024 56.044 10.1045C56.0422 11.2013 56.0431 12.2982 56.0438 13.3951C56.0377 13.4978 56.0908 13.6156 56.2014 13.6354C56.3076 13.6482 56.4149 13.6391 56.5216 13.6407C56.522 13.7113 56.522 13.7816 56.522 13.8521C56.0477 13.8496 55.5735 13.8547 55.0992 13.85C55.0994 13.7802 55.0999 13.7106 55.1006 13.6409C55.2175 13.6356 55.3385 13.6572 55.4526 13.6249C55.5683 13.5748 55.5895 13.4328 55.5912 13.3206C55.5919 12.2484 55.5937 11.1759 55.5914 10.1035C55.1905 10.1031 54.7895 10.1045 54.3886 10.1026C54.3751 10.4772 54.386 10.8523 54.3825 11.2272C54.3835 11.9413 54.3807 12.6554 54.3837 13.3695C54.3802 13.4719 54.4105 13.5986 54.522 13.6316C54.6338 13.6551 54.7495 13.6372 54.8631 13.6426C54.8643 13.7129 54.865 13.783 54.865 13.8533C54.3904 13.8535 53.9159 13.8549 53.4412 13.8526C53.4416 13.7825 53.4426 13.7127 53.444 13.6428C53.5506 13.6393 53.6582 13.6514 53.7639 13.6354C53.8731 13.616 53.9173 13.4971 53.9278 13.4C53.9401 13.243 53.9311 13.0854 53.9341 12.928C53.9297 12.6277 53.9536 12.3222 53.8819 12.0272C53.8514 11.8819 53.7723 11.7483 53.6638 11.6479C53.4284 11.4344 53.0249 11.3778 52.7746 11.5964C52.5532 11.7867 52.4814 12.0898 52.4624 12.3692C52.4489 12.6554 52.4468 12.9483 52.5255 13.2263C52.5725 13.413 52.6866 13.5795 52.8433 13.6912C52.7751 13.7464 52.7054 13.7997 52.6358 13.8528C52.4957 13.7781 52.3667 13.6805 52.2656 13.5574C52.0495 13.3078 51.9545 12.973 51.9529 12.647C51.9448 12.3117 52.0298 11.9632 52.2472 11.7008C52.46 11.4272 52.8007 11.2577 53.149 11.2656C53.4361 11.2572 53.7157 11.369 53.9336 11.5527C53.9339 11.2197 53.9343 10.8868 53.9339 10.5538C53.9325 10.4151 53.9094 10.2579 53.7965 10.1634C53.7353 10.1079 53.6477 10.1026 53.5692 10.1028C52.7755 10.1047 51.9818 10.1014 51.1878 10.1049C51.4537 10.2961 51.6039 10.6085 51.6554 10.9254C51.7203 11.3401 51.6763 11.8002 51.4081 12.1394C51.189 12.433 50.8295 12.5988 50.4672 12.6128C50.5159 12.7729 50.613 12.9112 50.6933 13.0565C50.8234 13.2624 50.9997 13.4631 51.2391 13.538C51.4565 13.6037 51.6819 13.5022 51.8449 13.3599C51.8779 13.406 51.9105 13.4528 51.9417 13.5008C51.8728 13.5683 51.803 13.6358 51.7212 13.6877C51.5045 13.833 51.2214 13.8761 50.9718 13.7997C50.7638 13.7399 50.5932 13.5962 50.4479 13.4412C50.2705 13.2409 50.1743 12.9872 50.0279 12.7664C49.9219 12.6216 49.7997 12.487 49.6551 12.3799C49.67 12.2877 49.7045 12.2009 49.7466 12.1182C49.9727 12.3471 50.327 12.4265 50.6353 12.3494C50.8183 12.3073 51.0174 12.2277 51.1054 12.0486C51.2463 11.7671 51.2409 11.4416 51.2328 11.1347C51.2148 10.8491 51.1652 10.5382 50.9608 10.3222C50.8321 10.1785 50.6395 10.1033 50.4484 10.104C50.0805 10.1026 49.7126 10.104 49.3447 10.104C49.3443 11.1925 49.3443 12.281 49.3445 13.3695C49.3396 13.4691 49.3706 13.5907 49.4749 13.6281C49.5885 13.6547 49.707 13.6375 49.8227 13.6393C49.8253 13.7092 49.8269 13.7792 49.8288 13.8491C49.354 13.8554 48.8791 13.8496 48.4043 13.8526C48.4039 13.7818 48.4041 13.711 48.4055 13.6402C48.5186 13.6372 48.6344 13.6531 48.7459 13.6281C48.876 13.5797 48.8914 13.4184 48.8949 13.2991C48.8956 12.3909 48.8947 11.4826 48.8954 10.5745C48.893 10.4609 48.8828 10.3422 48.8246 10.2418C48.7789 10.1573 48.6846 10.1019 48.5885 10.1038C48.3119 10.1017 48.0353 10.107 47.7587 10.1014C47.7522 11.1906 47.7575 12.28 47.7561 13.3695C47.7498 13.471 47.7838 13.5934 47.8909 13.6288C48.0031 13.6531 48.1198 13.6365 48.2339 13.6395C48.2385 13.7101 48.2402 13.7809 48.2367 13.8514C47.7612 13.85 47.2858 13.8554 46.8106 13.8486C46.811 13.7783 46.8136 13.708 46.8211 13.6384C46.9277 13.6389 47.0355 13.6493 47.1414 13.6328C47.2257 13.6153 47.2746 13.5315 47.2907 13.4528C47.3105 13.3485 47.3037 13.2416 47.3049 13.1362C47.3028 12.7962 47.3065 12.4563 47.3049 12.1164C47.0471 12.1201 46.7894 12.1154 46.5316 12.1187C46.5316 12.3029 46.5319 12.4868 46.5321 12.671C46.5316 12.8423 46.524 13.0174 46.4662 13.1806C46.4045 13.355 46.2394 13.4777 46.0625 13.5168C45.8548 13.5636 45.6308 13.5739 45.4287 13.498C45.1789 13.4056 44.9661 13.1932 44.9086 12.9287C44.8778 12.7781 44.8792 12.6195 44.9172 12.4703C44.9922 12.1834 45.2506 11.9632 45.5393 11.9112C45.7419 11.8779 45.9482 11.9054 46.1524 11.8938C46.1361 11.7496 46.1328 11.6046 46.1244 11.46C45.9456 11.511 45.7577 11.5382 45.5724 11.515C45.3274 11.4803 45.0993 11.3287 44.9807 11.1105C44.8343 10.8237 44.8492 10.4418 45.0566 10.1873C45.2278 9.97756 45.5002 9.85695 45.7707 9.86743C45.9768 9.87278 46.2033 9.90817 46.3533 10.0632C46.4958 10.2011 46.5244 10.4102 46.5275 10.599C46.5323 11.0307 46.5302 11.4626 46.5309 11.8945C46.7885 11.9003 47.0462 11.8954 47.3037 11.8987C47.3056 11.4656 47.3039 11.0323 47.3046 10.5992C47.3067 10.4493 47.2951 10.2786 47.1778 10.1699C47.0637 10.0684 46.8998 10.1026 46.7603 10.097C46.761 10.0279 46.7617 9.95847 46.7621 9.88931C49.1058 9.88373 51.4498 9.88955 53.7935 9.88768C53.7592 9.58361 53.7685 9.26556 53.8812 8.97731C54.0228 8.62247 54.3583 8.35588 54.735 8.29395ZM54.5474 8.61432C54.372 8.76869 54.2922 9.00059 54.2619 9.22621C54.2347 9.44577 54.2258 9.66929 54.254 9.88908C54.705 9.88652 55.1558 9.88838 55.6068 9.88815C55.6354 9.58314 55.6338 9.26835 55.5476 8.97242C55.488 8.77079 55.346 8.58173 55.1434 8.50932C54.9448 8.43784 54.7048 8.46764 54.5474 8.61432ZM45.5968 10.0123C45.4986 10.0388 45.4147 10.1103 45.371 10.202C45.3186 10.3112 45.3018 10.4334 45.2948 10.5534C45.2872 10.752 45.2911 10.9559 45.3577 11.1457C45.4005 11.2544 45.4902 11.352 45.6066 11.3806C45.7069 11.399 45.8206 11.3853 45.8995 11.3154C46.0751 11.1818 46.1247 10.9478 46.1314 10.7389C46.1389 10.5163 46.1032 10.2679 45.9377 10.1045C45.8515 10.0139 45.7165 9.98268 45.5968 10.0123ZM58.1262 10.3061C58.3058 10.5575 58.3735 10.877 58.3535 11.1822C58.3318 11.463 58.1905 11.7278 57.981 11.9138C57.7556 12.1278 57.4433 12.2188 57.1397 12.2391C57.2361 12.47 57.3283 12.7192 57.5246 12.8859C57.6836 13.0123 57.8785 13.1145 58.0869 13.1075C58.4273 13.1094 58.7491 12.9494 59.0066 12.7364C59.0541 12.7082 59.0357 12.6468 59.0431 12.6011C59.0438 11.9415 59.0431 11.2819 59.0434 10.6223C59.0406 10.4998 59.0413 10.3706 58.9821 10.2595C58.9391 10.1666 58.8403 10.1003 58.737 10.1035C58.4655 10.1033 58.1942 10.1014 57.923 10.1061C57.9886 10.175 58.072 10.226 58.1262 10.3061ZM45.5691 12.0519C45.414 12.1119 45.3393 12.2807 45.3156 12.4351C45.2851 12.6644 45.2764 12.9029 45.3372 13.1282C45.3645 13.2381 45.4385 13.3376 45.5407 13.3881C45.679 13.4556 45.856 13.4142 45.9561 13.2994C46.1039 13.1378 46.1386 12.9068 46.1326 12.6956C46.1279 12.4912 46.0848 12.2656 45.9235 12.1245C45.8317 12.0353 45.6883 12.0044 45.5691 12.0519Z" fill="#B02925"/>
<path d="M61.3766 9.88823C64.1275 9.88707 66.8786 9.88823 69.6298 9.88777C69.6303 9.95925 69.6303 10.031 69.63 10.1027C69.0445 10.1034 68.4591 10.1038 67.8735 10.1024C67.8689 10.3951 67.8712 10.688 67.8726 10.9807C68.2619 10.6857 68.8605 10.6992 69.223 11.0331C69.5178 11.2855 69.6473 11.6859 69.6291 12.0661C69.6303 12.4219 69.4929 12.7858 69.2167 13.0182C68.9332 13.2792 68.5017 13.3362 68.1462 13.2042C68.1813 13.1458 68.2172 13.0876 68.2533 13.0296C68.399 13.1041 68.5753 13.1158 68.728 13.0552C68.8924 12.9854 69.0128 12.8352 69.0726 12.6694C69.1632 12.4249 69.1702 12.1602 69.1644 11.9025C69.159 11.6987 69.1294 11.4918 69.0447 11.3048C68.9557 11.1197 68.7781 10.9611 68.5651 10.9523C68.3972 10.9374 68.2219 10.9963 68.1066 11.1211C67.9366 11.2966 67.8866 11.5514 67.8724 11.7867C67.8703 12.322 67.871 12.8571 67.8719 13.3921C67.8647 13.4955 67.9208 13.6124 68.0305 13.6336C68.1362 13.6436 68.243 13.6352 68.3494 13.6366C68.3501 13.7074 68.3497 13.7782 68.3485 13.8489C67.8749 13.8473 67.4016 13.8496 66.928 13.8476C66.9275 13.7779 66.9273 13.7081 66.9278 13.6385C67.0384 13.6331 67.1513 13.6485 67.261 13.6268C67.3459 13.6056 67.392 13.5186 67.4067 13.4382C67.4309 13.3074 67.4132 13.1735 67.4209 13.0415C67.1983 13.1972 66.9278 13.2913 66.654 13.2671C66.2775 13.251 65.9427 12.9947 65.7773 12.6645C65.6414 12.394 65.6179 12.081 65.6539 11.7844C65.697 11.4496 65.8777 11.1297 66.162 10.9423C66.5366 10.6908 67.0675 10.7194 67.4209 10.997C67.4142 10.8033 67.4286 10.6088 67.4107 10.4158C67.3941 10.2738 67.3036 10.1083 67.1436 10.1036C66.5035 10.1031 65.8635 10.1024 65.2237 10.1041C65.2244 11.2 65.2227 12.2957 65.2244 13.3917C65.2204 13.4913 65.266 13.6119 65.3743 13.6347C65.4837 13.6487 65.5946 13.6373 65.7047 13.6413C65.7052 13.7116 65.7052 13.7821 65.7031 13.8527C65.2295 13.8501 64.7559 13.8513 64.2823 13.8522C64.2812 13.7817 64.2814 13.7113 64.2849 13.641C64.4174 13.6259 64.5734 13.6797 64.6872 13.59C64.7932 13.475 64.7722 13.3044 64.7755 13.16C64.7755 12.1414 64.7766 11.1227 64.7764 10.1038C64.4912 10.102 64.2062 10.1031 63.921 10.1038C63.9196 10.5907 63.9212 11.0775 63.92 11.5646C63.771 11.5658 63.6222 11.5656 63.4737 11.5653C63.4616 11.4014 63.5047 11.2207 63.4094 11.0743C63.3079 10.8859 63.0893 10.7956 62.8835 10.7926C62.7135 10.7811 62.5331 10.8177 62.4024 10.9327C62.2227 11.0889 62.1866 11.3737 62.3 11.5788C62.3629 11.7034 62.489 11.7902 62.6264 11.8114C62.9943 11.862 63.3708 11.8214 63.7368 11.8901C63.931 11.9355 64.0996 12.0661 64.2074 12.2322C64.3678 12.4878 64.3743 12.8205 64.2625 13.0962C64.0758 13.5349 63.6148 13.8333 63.1417 13.8513C62.7433 13.8937 62.3358 13.76 62.0306 13.503C61.5491 13.1239 61.2874 12.5316 61.1929 11.9379C61.256 11.9348 61.3188 11.932 61.3822 11.9295C61.4292 12.2682 61.5475 12.5993 61.7477 12.8783C61.9463 13.1581 62.2206 13.3989 62.5566 13.4932C62.8371 13.5675 63.1524 13.5737 63.4148 13.4345C63.6132 13.339 63.7629 13.1572 63.8353 12.9507C63.8916 12.7786 63.8786 12.5905 63.8323 12.418C63.7743 12.2273 63.5873 12.1062 63.3959 12.0836C63.0632 12.0403 62.7212 12.1057 62.3924 12.0228C62.2136 11.9774 62.0322 11.9006 61.9105 11.7567C61.7654 11.5877 61.7431 11.3337 61.8306 11.1327C61.9147 10.9413 62.1042 10.8233 62.2925 10.7511C62.6742 10.6207 63.1072 10.6393 63.4718 10.8151C63.4665 10.6393 63.4923 10.4549 63.4262 10.2875C63.3855 10.1809 63.2816 10.0975 63.1643 10.1031C62.568 10.1024 61.9715 10.1043 61.3752 10.1024C61.3749 10.031 61.3754 9.95971 61.3766 9.88823ZM66.5483 10.9863C66.3625 11.0603 66.2365 11.237 66.1776 11.4226C66.0935 11.6904 66.0949 11.9758 66.1108 12.2533C66.1324 12.4887 66.1811 12.7407 66.3494 12.9188C66.5294 13.1237 66.8696 13.1488 67.0824 12.9809C67.2498 12.8548 67.3313 12.6482 67.3685 12.4478C67.4183 12.1595 67.4177 11.8634 67.3725 11.5746C67.3385 11.3707 67.2481 11.1625 67.0712 11.0438C66.9203 10.9416 66.7178 10.9241 66.5483 10.9863Z" fill="#B02925"/>
</g>
<defs>
<clipPath id="clip0_1_86692">
<rect width="69.6308" height="24.0003" fill="white"/>
</clipPath>
</defs>
</svg>
