<svg width="20" height="20" viewBox="0 0 20 20" fill="none" xmlns="http://www.w3.org/2000/svg">
<g clip-path="url(#clip0_4583_53663)">
<rect width="20" height="20" rx="10" fill="url(#paint0_linear_4583_53663)"/>
<path fill-rule="evenodd" clip-rule="evenodd" d="M6.45784 7.5776C6.81858 7.44861 7.13029 7.21227 7.35031 6.90095C7.57032 6.58963 7.68789 6.21853 7.68692 5.83844C7.68692 4.81961 6.8614 3.99414 5.84346 3.99414C4.82553 3.99414 4.00001 4.81995 4.00001 5.83811C3.99897 6.21825 4.11651 6.58943 4.33653 6.90082C4.55655 7.2122 4.86829 7.44859 5.22909 7.5776V12.7056C4.86829 12.8346 4.55655 13.071 4.33653 13.3823C4.11651 13.6937 3.99897 14.0649 4.00001 14.445C4.00001 15.4632 4.82553 16.289 5.84346 16.289C6.64623 16.289 7.32921 15.776 7.58185 15.0596H12.7073C12.9603 15.776 13.6433 16.2893 14.4457 16.2893C15.464 16.2893 16.2892 15.4635 16.2892 14.445C16.2892 13.4262 15.464 12.6008 14.4457 12.6008C13.6433 12.6008 12.9603 13.1138 12.7073 13.8302H7.58185C7.49066 13.5717 7.34245 13.3367 7.148 13.1422C6.95355 12.9477 6.71777 12.7986 6.45784 12.7059V7.57727V7.5776Z" fill="url(#paint1_linear_4583_53663)"/>
</g>
<defs>
<linearGradient id="paint0_linear_4583_53663" x1="10.8476" y1="-5.4848" x2="-4.5004" y2="8.6886" gradientUnits="userSpaceOnUse">
<stop stop-color="#369EFD"/>
<stop offset="1" stop-color="#405DFE"/>
</linearGradient>
<linearGradient id="paint1_linear_4583_53663" x1="9.49559" y1="0.502056" x2="-0.624714" y2="10.8768" gradientUnits="userSpaceOnUse">
<stop stop-color="#FAF8F7"/>
<stop offset="1" stop-color="#F6F6F9"/>
</linearGradient>
<clipPath id="clip0_4583_53663">
<rect width="20" height="20" fill="white"/>
</clipPath>
</defs>
</svg>
