<svg width="44" height="24" viewBox="0 0 44 24" fill="none" xmlns="http://www.w3.org/2000/svg">
<g clip-path="url(#clip0_245_71533)">
<path d="M3.67292 17.9934C3.67292 19.5296 3.67292 20.9822 3.67292 22.4348C3.67292 22.8764 3.6697 23.3173 3.67452 23.7589C3.67693 23.9533 3.67292 24.0858 3.42078 23.9356C2.34235 23.294 1.26072 22.658 0.17266 22.0317C-0.0128314 21.9249 0.00965242 21.7787 0.00965242 21.6222C0.00965242 20.4586 0.00965242 19.2951 0.00965242 18.1315C0.00965242 14.1599 0.0152734 10.1875 1.64821e-05 6.2159C-0.00158951 5.87061 0.114042 5.70118 0.402317 5.53576C3.11965 3.96912 5.83137 2.38962 8.53746 0.801299C8.75347 0.674425 8.89961 0.671214 9.11 0.794875C11.8522 2.40087 14.5969 4.00043 17.3479 5.59117C17.572 5.72045 17.6635 5.85134 17.6627 6.11873C17.6523 9.22151 17.6515 12.3243 17.6627 15.4263C17.6643 15.737 17.5583 15.8944 17.2949 16.0486C14.5848 17.6305 11.8811 19.2236 9.18307 20.8264C8.92049 20.9822 8.7366 20.9886 8.47001 20.828C6.90417 19.8853 5.32387 18.9651 3.67372 17.9926L3.67292 17.9934ZM3.72431 7.86123C3.70423 7.90861 3.66649 7.95518 3.66569 8.00256C3.66248 9.86149 3.66408 11.7204 3.65846 13.5802C3.65846 13.7544 3.73394 13.8419 3.87527 13.9222C5.48769 14.8441 7.09689 15.7715 8.70689 16.6974C8.88114 16.8572 9.0032 16.6894 9.12927 16.6187C9.54683 16.3842 9.95555 16.1345 10.3707 15.8944C11.478 15.2544 12.5838 14.6128 13.6951 13.9801C13.9159 13.8548 14.0034 13.703 14.0018 13.4388C13.9882 11.6923 13.9946 9.94501 13.9914 8.19769C13.9914 8.08286 14.0316 7.95438 13.9223 7.85963C13.826 7.79218 13.7344 7.71589 13.6333 7.65727C12.2818 6.87515 10.9103 6.12596 9.58698 5.29968C9.0297 4.95198 8.62338 4.95118 8.0653 5.30128C6.644 6.19422 5.17532 7.01166 3.72591 7.85963L3.72431 7.86123Z" fill="#1A1A62"/>
<path d="M19.5103 5.75297C20.5607 5.75297 21.611 5.761 22.6613 5.74735C22.9303 5.74414 23.0259 5.80276 23.0251 6.09585C23.0146 9.26447 23.0154 12.4323 23.0251 15.6009C23.0259 15.8828 22.944 15.9631 22.6645 15.9582C21.6752 15.9422 20.6859 15.9462 19.6966 15.955C19.4606 15.9574 19.3425 15.9309 19.3433 15.6378C19.3546 12.3897 19.3506 9.14081 19.3506 5.89189C19.3506 4.72996 19.353 3.56883 19.3473 2.40689C19.3465 2.20695 19.3771 2.06482 19.5754 1.94999C20.6394 1.3357 21.6945 0.706953 22.7488 0.0774044C22.9343 -0.0334089 23.0235 -0.0550898 23.0218 0.21552C23.0146 1.27146 23.0146 2.3274 23.0259 3.38334C23.0283 3.5889 22.9062 3.66037 22.7673 3.74227C21.7901 4.31802 20.812 4.89457 19.8348 5.47112C19.7207 5.53857 19.6083 5.60924 19.4959 5.6783C19.5007 5.70319 19.5055 5.72728 19.5103 5.75217V5.75297Z" fill="#1A1A62"/>
<path d="M13.9224 7.85938C14.0316 7.95413 13.9914 8.08181 13.9914 8.19663C13.9946 9.94395 13.9882 11.6905 14.0019 13.4378C14.0043 13.702 13.9159 13.8529 13.6951 13.979C12.5838 14.6118 11.4772 15.2534 10.3707 15.8933C9.95637 16.1334 9.54684 16.3832 9.12928 16.6176C9.00321 16.6883 8.88196 16.8561 8.70691 16.6963C8.8386 16.5614 8.78239 16.3928 8.78239 16.2386C8.78641 14.4094 8.78641 12.5802 8.78721 10.751C10.4984 9.78737 12.2104 8.82377 13.9216 7.85938H13.9224Z" fill="#A12F4C"/>
<path d="M8.78798 10.7521C8.78798 12.5813 8.78798 14.4106 8.78316 16.2398C8.78316 16.394 8.83856 16.5626 8.70768 16.6975C7.09767 15.7716 5.48847 14.8442 3.87606 13.9223C3.73473 13.8412 3.65844 13.7545 3.65925 13.5803C3.66487 11.7213 3.66326 9.86239 3.66647 8.00266C3.66647 7.95528 3.70421 7.9087 3.72509 7.86133C3.76845 7.89024 3.81101 7.92155 3.85678 7.94805C5.50051 8.88354 7.14425 9.81742 8.78878 10.7521H8.78798Z" fill="#C32058"/>
<path d="M43.7729 10.5739C42.8824 9.0522 42.0031 7.5241 41.1294 5.99279C41.0154 5.79285 40.8853 5.71977 40.6541 5.72379C39.7844 5.73744 38.9148 5.72941 38.0451 5.72861C37.1618 5.72861 36.2793 5.73342 35.396 5.72459C35.1752 5.72218 35.0379 5.77679 34.9191 5.98637C34.0502 7.52009 33.1693 9.04658 32.2796 10.5683C32.1656 10.7642 32.1471 10.9039 32.2668 11.1079C33.1581 12.6287 34.0382 14.156 34.9118 15.6866C35.0251 15.8849 35.1535 15.9588 35.3832 15.9572C37.1361 15.9475 38.8883 15.9467 40.6412 15.9572C40.8869 15.9588 41.0242 15.8785 41.1447 15.6665C42.0095 14.1464 42.884 12.632 43.7641 11.1199C43.8765 10.9264 43.8917 10.7778 43.7721 10.5731L43.7729 10.5739ZM38.9083 12.322H37.1474L36.3026 10.8413L37.1474 9.36055H38.8722L39.7523 10.8597L38.9075 12.3228L38.9083 12.322Z" fill="#1A1A62"/>
<path d="M31.1474 12.512C31.1185 12.4614 31.0839 12.402 31.0462 12.3418H29.2933L28.4485 10.8611L29.2933 9.38033H31.0181C31.3072 8.83911 31.7994 8.03692 32.1053 7.50454C32.4346 6.9328 32.7638 6.36187 33.1115 5.75882C33.0047 5.74357 32.9541 5.72992 32.9043 5.72992C31.0992 5.72992 29.2932 5.73714 27.4881 5.72269C27.2304 5.72028 27.1388 5.85037 27.036 6.02943C26.1576 7.55673 25.2791 9.08403 24.391 10.6057C24.2906 10.7775 24.2858 10.9036 24.3861 11.0763C25.2871 12.622 26.1816 14.171 27.069 15.724C27.1685 15.8974 27.2793 15.9593 27.4777 15.9553C28.1193 15.9424 28.7617 15.9512 29.4033 15.9512C30.6174 15.9512 31.8307 15.9512 33.1267 15.9512C32.4354 14.754 31.7833 13.6378 31.1474 12.512Z" fill="#1A1A62"/>
<path d="M26.2772 18.8934C26.258 18.2639 25.8492 17.8824 25.1017 17.8447C24.8005 17.8294 24.4978 17.8319 24.1959 17.8335V17.8311H23.2435V21.0752H24.1959V20.4641C24.1959 20.4528 24.1959 20.4424 24.1967 20.4312C24.1967 20.4047 24.1999 20.3774 24.1959 20.3517V20.2015C24.2224 20.0883 24.3244 20.0529 24.4882 20.0586C24.8078 20.0706 25.1282 20.077 25.4437 19.9943C26.0235 19.8418 26.2957 19.4892 26.2772 18.8934ZM24.9362 19.3367H24.1959V18.5578H24.9362C25.0864 18.5578 25.2157 18.6437 25.2807 18.7682C25.2839 18.7738 25.288 18.7794 25.2904 18.7858C25.3128 18.8348 25.3265 18.8894 25.3265 18.9472C25.3265 19.1624 25.1522 19.3367 24.937 19.3367H24.9362Z" fill="#1A1A62"/>
<path d="M32.8819 18.5895V17.8315H31.4959C31.4959 17.8315 31.4959 17.8299 31.4967 17.8291C31.414 17.8299 31.3313 17.8307 31.2486 17.8315H30.9635V17.8299H29.9694V21.0596H30.2995C30.3476 21.0596 30.3958 21.0596 30.444 21.0596H32.335C32.3784 21.0612 32.4202 21.0612 32.4587 21.0596H32.8803V20.3015H30.9619V19.7836H32.6964V19.0256H30.9619V18.5903H32.8803L32.8819 18.5895Z" fill="#1A1A62"/>
<path d="M29.0042 19.7419C29.0042 19.7419 29.3825 19.6825 29.5527 19.3308C29.5567 19.326 29.5599 19.3211 29.5639 19.3163C29.5631 19.3139 29.5631 19.3115 29.5623 19.3083C29.6097 19.2015 29.6394 19.0706 29.6338 18.906C29.6458 18.8851 29.7823 17.8187 28.2478 17.8292L27.4729 17.8316L27.4906 17.8468C27.485 17.8468 27.4794 17.8468 27.4729 17.8468V17.8316H26.8763C26.8651 17.8316 26.853 17.8316 26.8418 17.8308C26.8097 17.8292 26.7799 17.83 26.7534 17.8316H26.5198V21.0757H27.4721V20.0535H28.1651L28.6887 21.0757H29.841L29.0026 19.7419H29.0042ZM28.6445 18.7269C28.6477 18.7325 28.6517 18.7382 28.6541 18.7446C28.6766 18.7936 28.6903 18.8482 28.6903 18.906C28.6903 19.1212 28.516 19.2954 28.3008 19.2954H27.5605V18.5165H28.3008C28.451 18.5165 28.5803 18.6025 28.6453 18.7269H28.6445Z" fill="#1A1A62"/>
<path d="M19.2045 21.0751C19.2045 21.0751 20.3198 21.1032 20.3375 21.0751C20.3552 21.047 21.1493 20.1011 21.1493 20.1011L21.9523 21.088H23.1303L21.7476 19.3366L22.9609 17.831L21.8279 17.8174L21.1855 18.6661L20.4804 17.8174L19.3233 17.8326L20.5158 19.3366L19.2045 21.0751Z" fill="#1A1A62"/>
<path d="M40.6886 21.0897H39.8607L40.638 19.4629L39.8607 17.8408H40.6886L41.4659 19.4629L40.6886 21.0897Z" fill="#C32058"/>
<path d="M41.9381 21.0897H41.1102L41.8875 19.4629L41.1102 17.8408H41.9381L42.7154 19.4629L41.9381 21.0897Z" fill="#C32058"/>
<path d="M43.1514 21.0897H42.3235L43.1008 19.4629L42.3235 17.8408H43.1514L43.9287 19.4629L43.1514 21.0897Z" fill="#C32058"/>
<path d="M36.228 19.9218C36.228 19.9218 36.228 19.9202 36.228 19.9194C36.1926 19.6841 36.0875 19.5307 36.0875 19.5307L36.0858 19.5323C36.077 19.5171 36.0674 19.5026 36.0577 19.4889C36.0521 19.4801 36.0489 19.4753 36.0489 19.4753C35.8409 19.1838 35.5157 19.1734 35.1977 19.1067C34.8854 19.0417 34.5674 19.0015 34.2534 18.9437C34.1281 18.9212 34.0141 18.8602 34.0278 18.7133C34.039 18.5944 34.141 18.5454 34.2526 18.5173C34.398 18.4812 34.5377 18.4587 34.6734 18.4659C34.6894 18.4659 34.7055 18.4683 34.7216 18.4699C34.728 18.4699 34.7344 18.4707 34.7416 18.4724C35.0925 18.5254 35.3543 18.8602 35.3543 18.8602C35.3543 18.8602 35.706 18.8144 36.2063 18.686C36.0947 17.8966 35.1993 17.8002 35.1969 17.8002L35.1945 17.8019C35.0114 17.7649 34.8243 17.7481 34.6356 17.7424C33.3525 17.6324 33.1356 18.2531 33.0995 18.4981C33.0979 18.4981 33.0963 18.4981 33.0939 18.4972C33.0256 19.2625 33.2987 19.5893 34.1145 19.7387C34.4293 19.7965 34.7473 19.8399 35.062 19.9001C35.1664 19.9202 35.2708 19.9667 35.2845 20.0976C35.2981 20.2269 35.2098 20.2887 35.1102 20.3385C34.8508 20.4694 34.4405 20.4212 34.1611 20.2534C34.1482 20.2438 34.1378 20.2381 34.1322 20.2349C34.1298 20.2333 34.1265 20.2309 34.1241 20.2293L33.9531 20.0454L32.9742 19.9683C32.9742 19.9683 33.0859 20.6758 33.762 21.0259C33.8832 21.0917 34.0125 21.1367 34.145 21.1656C34.1466 21.1656 34.1474 21.1656 34.149 21.1664C34.8284 21.3125 35.5655 21.0347 35.5655 21.0347C36.2481 20.7488 36.3035 20.2735 36.2288 19.9234L36.228 19.9218Z" fill="#1A1A62"/>
<path d="M39.582 19.9218C39.582 19.9218 39.582 19.9202 39.582 19.9194C39.5467 19.6841 39.4415 19.5307 39.4415 19.5307L39.4399 19.5323C39.4311 19.5171 39.4214 19.5026 39.4118 19.4889C39.4062 19.4801 39.403 19.4753 39.403 19.4753C39.195 19.1838 38.8698 19.1734 38.5518 19.1067C38.2394 19.0417 37.9214 19.0015 37.6075 18.9437C37.4822 18.9212 37.3682 18.8602 37.3818 18.7133C37.3931 18.5944 37.4951 18.5454 37.6067 18.5173C37.752 18.4812 37.8917 18.4587 38.0274 18.4659C38.0435 18.4659 38.0596 18.4683 38.0756 18.4699C38.082 18.4699 38.0885 18.4707 38.0957 18.4724C38.4466 18.5254 38.7084 18.8602 38.7084 18.8602C38.7084 18.8602 39.0601 18.8144 39.5604 18.686C39.4487 17.8966 38.5534 17.8002 38.551 17.8002L38.5486 17.8019C38.3655 17.7649 38.1784 17.7481 37.9897 17.7424C36.7065 17.6324 36.4897 18.2531 36.4536 18.4981C36.452 18.4981 36.4504 18.4981 36.448 18.4972C36.3797 19.2625 36.6527 19.5893 37.4686 19.7387C37.7833 19.7965 38.1013 19.8399 38.4161 19.9001C38.5205 19.9202 38.6249 19.9667 38.6385 20.0976C38.6522 20.2269 38.5638 20.2887 38.4643 20.3385C38.2049 20.4694 37.7946 20.4212 37.5151 20.2534C37.5023 20.2438 37.4918 20.2381 37.4862 20.2349C37.4838 20.2333 37.4806 20.2309 37.4782 20.2293L37.3072 20.0454L36.3283 19.9683C36.3283 19.9683 36.4399 20.6758 37.116 21.0259C37.2373 21.0917 37.3666 21.1367 37.4991 21.1656C37.5007 21.1656 37.5015 21.1656 37.5031 21.1664C38.1824 21.3125 38.9196 21.0347 38.9196 21.0347C39.6021 20.7488 39.6575 20.2735 39.5828 19.9234L39.582 19.9218Z" fill="#1A1A62"/>
</g>
<defs>
<clipPath id="clip0_245_71533">
<rect width="43.9287" height="24" fill="white"/>
</clipPath>
</defs>
</svg>
