<svg width="147" height="24" viewBox="0 0 147 24" fill="none" xmlns="http://www.w3.org/2000/svg">
<g clip-path="url(#clip0_1_86471)">
<path d="M56.444 11.8836C57.1184 11.8836 57.7409 11.7961 58.3121 11.6248C58.8831 11.4526 59.3744 11.2073 59.7886 10.8889C60.2036 10.5706 60.529 10.1837 60.7621 9.72837C60.9968 9.27297 61.112 8.75085 61.112 8.16829V8.116C61.112 6.99869 60.7059 6.12667 59.8928 5.49631C59.0797 4.86868 57.9394 4.55577 56.4704 4.55577H50.8668V11.8845H56.443L56.444 11.8836ZM46.9668 1.23633H56.772C58.1833 1.23633 59.4387 1.43833 60.5345 1.83511C61.6313 2.2391 62.5376 2.79731 63.2547 3.5097C63.8211 4.07421 64.2517 4.73433 64.5572 5.49271C64.8625 6.2484 65.0149 7.08164 65.0149 7.99064V8.05648C65.0149 9.00875 64.8625 9.85912 64.5572 10.6058C64.2517 11.3515 63.8266 12.0008 63.271 12.5554C62.7162 13.1073 62.0619 13.5609 61.3013 13.9189C60.5401 14.276 59.7169 14.5294 58.826 14.68L65.8415 23.9665H61.0275L54.409 15.1372H50.8697V23.9665H46.9685V1.23813L46.9668 1.23633Z" fill="#0446DB"/>
<path d="M75.7184 5.09954H68.7003V1.23633H86.6188V5.09954H79.6014V23.9647H75.7184V5.09954Z" fill="#0446DB"/>
<path d="M91.4808 1.23633H107.995V5.09954H95.3638V10.6689H106.526V14.5321H95.3638V20.1006H108.158V23.9647H91.4808V1.23633Z" fill="#0446DB"/>
<path d="M8.2917 12.549C9.02316 12.549 9.68938 12.4534 10.293 12.2695C10.8958 12.0828 11.4142 11.8177 11.8466 11.4696C12.2826 11.1224 12.6125 10.7121 12.8427 10.2396C13.072 9.76525 13.1862 9.23411 13.1862 8.64164V8.59203C13.1862 7.32324 12.7485 6.36374 11.8738 5.71355C10.9982 5.06248 9.8371 4.73783 8.39322 4.73783H3.88391V12.5499H8.2917V12.549ZM0 1.27051H8.53461C9.81626 1.27051 10.981 1.43914 12.036 1.7737C13.0893 2.10736 13.9902 2.58619 14.7398 3.20302C15.4894 3.82074 16.0668 4.57192 16.4665 5.45927C16.868 6.3484 17.0683 7.35209 17.0683 8.48021V8.54605C17.0683 9.77968 16.8299 10.8537 16.3532 11.7762C15.8755 12.6951 15.2283 13.4679 14.4153 14.0974C13.6005 14.725 12.6506 15.1957 11.5656 15.5096C10.4797 15.8234 9.32952 15.9803 8.11223 15.9803H3.88391V23.9998H0.000906588V1.27141L0 1.27051Z" fill="#0446DB"/>
<path d="M142.913 8.5617C141.509 9.95853 139.224 9.95853 137.801 8.5617C136.398 7.16485 136.398 4.88875 137.801 3.47116C139.205 2.05357 141.489 2.07431 142.913 3.47116C144.335 4.86802 144.335 7.14409 142.913 8.5617ZM136.088 1.7632C133.727 4.11412 133.727 7.91332 136.088 10.2462L140.359 14.4954L144.63 10.2462C146.991 7.89618 146.991 4.0961 144.63 1.7632C142.27 -0.587733 138.447 -0.587733 136.087 1.7632" fill="#0446DB"/>
<path d="M122.824 11.8143C123.498 11.8143 124.121 11.7268 124.692 11.5555C125.263 11.3832 125.754 11.1379 126.168 10.8196C126.584 10.5013 126.909 10.1144 127.142 9.65901C127.377 9.20364 127.492 8.68149 127.492 8.09896V8.04664C127.492 6.92934 127.086 6.05732 126.273 5.42698C125.46 4.79935 124.319 4.48644 122.85 4.48644H117.247V11.8152H122.823L122.824 11.8143ZM113.347 1.16699H123.152C124.563 1.16699 125.818 1.36899 126.914 1.76577C128.011 2.16977 128.918 2.72797 129.634 3.44037C130.201 4.00488 130.631 4.66498 130.937 5.42338C131.242 6.17907 131.395 7.01231 131.395 7.92131V7.98712C131.395 8.93939 131.242 9.78979 130.937 10.5365C130.631 11.2822 130.206 11.9315 129.651 12.4861C129.096 13.038 128.442 13.4916 127.681 13.8496C126.92 14.2067 126.097 14.4601 125.206 14.6107L132.221 23.8972H127.408L120.789 15.0679H117.249V23.8972H113.348V1.16879L113.347 1.16699Z" fill="#0446DB"/>
<path d="M31.4473 0.995117C25.0727 0.995117 19.9044 6.13615 19.9044 12.4793C19.9044 18.8223 25.0717 23.9634 31.4473 23.9634C37.823 23.9634 42.9902 18.8223 42.9902 12.4793C42.9902 6.13615 37.823 0.995117 31.4473 0.995117ZM31.4473 20.0911C27.2216 20.0911 23.7965 16.6833 23.7965 12.4793C23.7965 8.27516 27.2216 4.86736 31.4473 4.86736C35.673 4.86736 39.0983 8.27516 39.0983 12.4793C39.0983 16.6833 35.673 20.0911 31.4473 20.0911Z" fill="#0446DB"/>
</g>
<defs>
<clipPath id="clip0_1_86471">
<rect width="146.401" height="23.9996" fill="white"/>
</clipPath>
</defs>
</svg>
