<svg width="117" height="24" viewBox="0 0 117 24" fill="none" xmlns="http://www.w3.org/2000/svg">
<g clip-path="url(#clip0_215_62903)">
<path d="M96.6804 18.2146C97.1436 18.0918 97.6047 17.9649 98.0421 17.7641C98.092 17.7414 98.1534 17.7434 98.2093 17.7339C98.4887 18.0007 98.7665 17.9604 99.0656 17.754C99.2996 17.5924 99.5408 17.4409 99.7572 17.2562C100.422 16.6873 100.887 16.0022 100.963 15.1056C101.032 14.2916 100.733 13.5738 100.316 12.9068C99.4884 11.5863 98.3321 10.6138 96.983 9.86067C95.4607 9.01092 93.8287 8.4451 92.1433 8.02325C91.957 7.97643 91.888 7.89538 91.8931 7.69956C91.9062 7.18961 91.8966 6.67866 91.8981 6.16821C91.8991 5.82187 91.9001 5.82187 92.2369 5.82187C97.1692 5.82187 102.101 5.82288 107.033 5.82338C108.675 5.82338 110.316 5.8259 111.957 5.81935C112.167 5.81835 112.254 5.86466 112.241 6.09824C112.22 6.49039 112.239 6.88455 112.239 7.27771C112.238 11.839 112.244 16.4004 112.232 20.9612C112.228 22.3385 111.246 23.2809 109.871 23.2809C106.873 23.2809 103.876 23.2809 100.878 23.2809C98.6502 23.2809 96.4227 23.2874 94.1956 23.2748C92.9094 23.2678 91.9313 22.3184 91.9021 21.0644C91.885 20.3199 91.9036 19.5748 91.8951 18.8298C91.8926 18.6315 91.949 18.5942 92.1428 18.6335C93.0071 18.8076 93.8815 18.8776 94.7645 18.854C95.2165 18.8419 95.6661 18.8097 96.1156 18.7593C96.5626 18.7095 96.7267 18.5645 96.6814 18.2151L96.6804 18.2146ZM111.483 9.26112C111.5 7.67892 110.211 6.37158 108.612 6.35246C106.979 6.33282 105.707 7.59234 105.679 9.17252C105.646 10.9707 107.024 12.1129 108.513 12.1421C110.161 12.1743 111.467 10.8972 111.484 9.26112H111.483Z" fill="url(#paint0_linear_215_62903)"/>
<path d="M87.1834 15.1886C86.8427 14.0529 88.4611 13.8636 89.3129 13.9109L86.0477 12.0652L85.054 10.5036L85.1959 8.80003L86.6156 7.94824L90.8745 8.23217L97.2629 10.5036L100.244 13.3429L100.528 15.4724L99.1085 17.4599C98.2094 17.7911 96.3827 18.4536 96.2692 18.4536H93.2879L90.7325 17.8858L88.4611 16.892C88.1772 16.7501 87.5241 16.2107 87.1834 15.1886Z" fill="white"/>
<path d="M96.6799 18.2146C96.7252 18.564 96.5616 18.709 96.1141 18.7588C95.6645 18.8092 95.215 18.8414 94.7629 18.8535C93.8805 18.8771 93.0061 18.8077 92.1412 18.633C91.9474 18.5937 91.891 18.631 91.8935 18.8293C91.9021 19.5738 91.883 20.3194 91.9006 21.0639C91.9298 22.3179 92.9079 23.2673 94.1941 23.2743C96.4216 23.2869 98.6487 23.2799 100.876 23.2804C103.874 23.2809 106.872 23.2804 109.87 23.2804C111.245 23.2804 112.226 22.338 112.23 20.9607C112.242 16.3994 112.237 11.838 112.238 7.27722C112.238 6.88406 112.218 6.4899 112.24 6.09774C112.252 5.86417 112.166 5.81836 111.956 5.81886C110.315 5.8254 108.673 5.82289 107.032 5.82289C102.1 5.82289 97.1677 5.82188 92.2353 5.82138C91.8986 5.82138 91.8976 5.82138 91.8966 6.16772C91.8956 6.67817 91.9051 7.18912 91.8915 7.69907C91.8865 7.89439 91.9555 7.97594 92.1417 8.02276C93.8271 8.44461 95.4591 9.00993 96.9814 9.86018C98.3305 10.6133 99.4874 11.5858 100.314 12.9063C100.732 13.5733 101.03 14.2906 100.961 15.1051C100.885 16.0022 100.42 16.6873 99.7557 17.2557C99.5397 17.4404 99.2981 17.5919 99.064 17.7535C98.765 17.9599 98.4871 18.0002 98.2077 17.7334C98.1106 17.313 98.1423 17.2406 98.5098 17.0226C98.9064 16.788 99.2865 16.5303 99.582 16.1703C100.178 15.4449 100.219 14.5227 99.6787 13.602C98.9593 12.3762 97.9288 11.4625 96.7156 10.7522C94.846 9.65781 92.7971 9.05876 90.6889 8.63942C89.7113 8.44511 88.7226 8.3394 87.7244 8.35299C87.2809 8.35903 86.8404 8.41843 86.4155 8.55133C85.4631 8.84884 85.1525 9.49017 85.4973 10.4341C85.7958 11.2526 86.4165 11.7993 87.1011 12.276C88.3108 13.1187 89.6504 13.6493 91.1148 13.8411C91.9142 13.9458 92.7171 13.9493 93.5165 13.827C93.8538 13.7751 94.039 13.8431 94.1624 14.0737C94.3194 14.3666 94.2122 14.6093 93.886 14.6677C93.2341 14.7835 92.5746 14.8313 91.9142 14.8066C90.6783 14.7603 89.4727 14.5484 88.3481 14.0122C87.222 13.4756 86.1427 12.862 85.3181 11.8924C84.7075 11.1741 84.4039 10.349 84.5046 9.39755C84.5947 8.54579 85.1404 8.0731 85.8879 7.78565C86.4064 7.58631 86.9511 7.50425 87.5044 7.4821C88.6119 7.4378 89.7118 7.5118 90.7991 7.73129C90.9985 7.77156 91.0664 7.74085 91.0574 7.51583C91.0367 7.023 91.0408 6.52815 91.0544 6.03482C91.0594 5.85108 91.0272 5.77657 90.8273 5.80879C90.6537 5.83648 90.4775 5.80124 90.3093 5.74838C89.7289 5.56615 89.4702 5.04211 89.6539 4.41034C89.9655 3.3396 90.2801 2.26987 90.5993 1.20165C90.8243 0.446045 91.4334 -0.000976562 92.2197 -0.000976562C98.7761 -0.000976562 105.332 -0.000976562 111.888 -0.000976562C112.715 -0.000976562 113.318 0.459133 113.546 1.25149C113.863 2.35495 114.201 3.45236 114.502 4.56035C114.668 5.1735 114.254 5.71365 113.626 5.79369C113.447 5.81634 113.194 5.72875 113.108 5.86014C113.019 5.99656 113.098 6.23316 113.073 6.42194C113.038 6.68068 113.158 6.79093 113.368 6.9344C114.076 7.42119 114.753 7.95429 115.441 8.47028C115.568 8.56542 115.693 8.66107 115.818 8.75923C116.577 9.36281 116.563 10.3158 115.786 10.9067C115.254 11.311 114.722 11.7147 114.187 12.1149C113.854 12.3641 113.553 12.6596 113.159 12.8197C113.027 12.8735 113.079 12.9908 113.079 13.082C113.076 15.6513 113.075 18.2202 113.079 20.7895C113.079 21.2351 113.042 21.672 112.883 22.0924C112.421 23.3166 111.277 24.1075 109.968 24.1075C104.701 24.1075 99.4345 24.1075 94.1679 24.1075C92.4176 24.1075 91.0292 22.6959 91.0473 20.9446C91.0554 20.1583 91.0448 19.3715 91.0559 18.5846C91.0584 18.4145 90.993 18.3642 90.8434 18.3173C89.8386 18.0027 88.8636 17.6166 87.9962 17.008C87.4616 16.6335 87.012 16.1819 86.8454 15.5159C86.7956 15.3166 86.8046 15.1172 86.8142 14.9174C86.8283 14.6365 86.9662 14.4955 87.2048 14.5C87.4711 14.5051 87.7103 14.6964 87.6836 14.9415C87.6252 15.4771 87.9328 15.8079 88.2967 16.0998C89.1238 16.7633 90.0873 17.1535 91.0956 17.4444C92.3547 17.8074 93.6368 18.0138 94.9512 17.9634C95.3096 17.9499 95.668 17.9086 96.025 17.8688C96.3924 17.828 96.4891 17.8733 96.6799 18.2146ZM102.034 4.96358V4.96559C103.633 4.96559 105.232 4.96559 106.83 4.96559C108.982 4.96559 111.133 4.96761 113.285 4.9671C113.689 4.9671 113.743 4.89008 113.627 4.50095C113.334 3.50774 113.042 2.51453 112.746 1.52232C112.603 1.04358 112.329 0.84625 111.83 0.84625C109.361 0.847257 106.891 0.84776 104.422 0.84776C100.37 0.84776 96.3189 0.84776 92.2671 0.84776C91.8835 0.84776 91.5361 1.03503 91.4636 1.31894C91.4229 1.47852 91.3584 1.62652 91.3121 1.78157C91.0388 2.69374 90.7699 3.60741 90.5026 4.52159C90.3894 4.90871 90.4312 4.96308 90.8344 4.96358C94.5676 4.96358 98.3013 4.96358 102.035 4.96358H102.034ZM113.092 11.8859C113.863 11.3009 114.599 10.7527 115.322 10.1874C115.624 9.95129 115.602 9.66485 115.283 9.41718C114.828 9.06329 114.365 8.71795 113.906 8.3696C113.644 8.17126 113.381 7.97493 113.092 7.75797V11.8854V11.8859Z" fill="#282525"/>
<path d="M111.483 9.26141C111.466 10.8975 110.16 12.1746 108.512 12.1424C107.023 12.1132 105.646 10.9705 105.678 9.17282C105.706 7.59263 106.978 6.33362 108.611 6.35275C110.21 6.37188 111.499 7.67922 111.483 9.26141H111.483ZM108.589 8.17306C107.984 8.16802 107.514 8.63518 107.508 9.24581C107.503 9.83529 107.98 10.3332 108.554 10.3347C109.172 10.3362 109.665 9.85946 109.671 9.25386C109.677 8.66337 109.192 8.17809 108.589 8.17306Z" fill="#FEFEFE"/>
<path d="M102.035 4.96401C98.3015 4.96401 94.5677 4.96401 90.8345 4.96401C90.4313 4.96401 90.3895 4.90964 90.5028 4.52202C90.7706 3.60784 91.0394 2.69467 91.3122 1.782C91.3585 1.62695 91.4235 1.47895 91.4638 1.31937C91.5362 1.03495 91.8836 0.84819 92.2672 0.84819C96.3186 0.84819 100.37 0.84819 104.422 0.84819C106.891 0.84819 109.361 0.847183 111.83 0.84668C112.329 0.84668 112.603 1.04401 112.746 1.52275C113.043 2.51496 113.334 3.50867 113.628 4.50138C113.743 4.89051 113.688 4.96753 113.285 4.96753C111.133 4.96804 108.982 4.96653 106.831 4.96602C105.232 4.96602 103.633 4.96602 102.034 4.96602V4.96401H102.035Z" fill="url(#paint1_linear_215_62903)"/>
<path d="M113.093 11.8872V7.75977C113.381 7.97673 113.645 8.17306 113.907 8.3714C114.367 8.71975 114.829 9.06459 115.284 9.41898C115.602 9.66665 115.624 9.95309 115.323 10.1892C114.599 10.7545 113.863 11.3027 113.093 11.8877V11.8872Z" fill="#FEFEFE"/>
<path d="M108.589 8.17289C109.191 8.17742 109.677 8.66321 109.671 9.2537C109.665 9.85929 109.172 10.3365 108.554 10.3345C107.98 10.333 107.502 9.83513 107.508 9.24564C107.514 8.63502 107.984 8.16786 108.589 8.17289ZM108.988 8.54893C108.783 8.54239 108.584 8.73016 108.575 8.94008C108.566 9.15352 108.743 9.34733 108.956 9.35538C109.184 9.36394 109.366 9.20436 109.377 8.98589C109.388 8.75533 109.211 8.55648 108.988 8.54944V8.54893Z" fill="#282525"/>
<path d="M108.988 8.5495C109.212 8.55706 109.39 8.75611 109.378 8.98641C109.367 9.20511 109.185 9.36486 108.957 9.35629C108.745 9.34823 108.567 9.15422 108.576 8.94055C108.585 8.73041 108.783 8.54244 108.988 8.54899V8.5495Z" fill="#FEFEFE"/>
<path d="M18.6719 20.5381H19.5935C20.6366 20.5381 21.3868 21.1654 21.3868 22.2085C21.3868 23.2515 20.6366 23.8788 19.5935 23.8788H18.6719V20.5381ZM19.5892 23.5087C20.3751 23.5087 21.0024 23.0801 21.0024 22.2085C21.0024 21.3368 20.3751 20.9082 19.5892 20.9082H19.0562V23.5087H19.5892Z" fill="#31302F"/>
<path d="M22.0171 20.5381H23.9861V20.9082H22.4015V21.9513H23.7246V22.3213H22.4015V23.5087H23.9861V23.8788H22.0171V20.5381Z" fill="#31302F"/>
<path d="M24.6077 20.5381H24.992V23.5087H26.6538V23.8788H24.6077V20.5381Z" fill="#31302F"/>
<path d="M27.1367 20.5381H27.5211V23.8788H27.1367V20.5381Z" fill="#31302F"/>
<path d="M31.1274 20.5381L29.7585 23.8788H29.3656L27.9924 20.5381H28.4082L29.5599 23.3687L30.7116 20.5381H31.1274Z" fill="#31302F"/>
<path d="M31.5962 20.5381H33.5652V20.9082H31.9806V21.9513H33.3037V22.3213H31.9806V23.5087H33.5652V23.8788H31.5962V20.5381Z" fill="#31302F"/>
<path d="M36.1429 23.8808L35.2856 22.4133H34.5726V23.8808H34.1882V20.54H35.3671C36.1972 20.54 36.5187 20.9187 36.5187 21.4745C36.5187 21.9489 36.2887 22.2961 35.7057 22.3862L36.5859 23.8808H36.1429ZM34.5712 22.0475H35.3928C35.9172 22.0475 36.1329 21.826 36.1329 21.4788C36.1329 21.1316 35.9158 20.9101 35.3928 20.9101H34.5712V22.0475Z" fill="#31302F"/>
<path d="M37.1775 20.5381H37.5619V23.8788H37.1775V20.5381Z" fill="#31302F"/>
<path d="M41.3082 20.5381V23.8788H40.8924L38.8062 21.0153V23.8788H38.4219V20.5381H38.9234L40.9281 23.283V20.5381H41.3068H41.3082Z" fill="#31302F"/>
<path d="M41.9353 22.2184C41.9353 21.2611 42.6898 20.4795 43.6785 20.4795C44.1929 20.4795 44.6445 20.6924 44.9602 21.0253L44.7216 21.2911C44.4559 20.9839 44.0801 20.8353 43.6914 20.8353C42.8969 20.8353 42.3225 21.4726 42.3225 22.217C42.3225 22.9615 42.8784 23.5802 43.6857 23.5802C44.3944 23.5802 44.8602 23.1158 44.8602 22.3928V22.3742H43.6099V22.0041H45.2489V22.2656C45.2489 23.2187 44.6888 23.936 43.6828 23.936C42.6769 23.936 41.9353 23.1815 41.9353 22.2156V22.2184Z" fill="#31302F"/>
<path d="M45.5249 23.6627C45.5249 23.5268 45.6336 23.4238 45.7695 23.4238C45.9054 23.4238 46.0141 23.5282 46.0141 23.6627C46.0141 23.8072 45.9054 23.9073 45.7695 23.9073C45.6336 23.9073 45.5249 23.8072 45.5249 23.6627Z" fill="#31302F"/>
<path d="M48.3642 20.9082H47.2483V20.5381H49.8531V20.9082H48.7472V23.8788H48.3628V20.9082H48.3642Z" fill="#31302F"/>
<path d="M49.9346 22.2127C49.9346 21.2597 50.689 20.4795 51.6778 20.4795C52.6666 20.4795 53.4253 21.2611 53.4253 22.2127C53.4253 23.1644 52.6537 23.9374 51.6778 23.9374C50.7019 23.9374 49.9346 23.1787 49.9346 22.2127ZM53.0367 22.217C53.0367 21.4769 52.4594 20.8353 51.6778 20.8353C50.8962 20.8353 50.3232 21.4769 50.3232 22.217C50.3232 22.9572 50.9105 23.5802 51.6778 23.5802C52.4451 23.5802 53.0367 22.9572 53.0367 22.217Z" fill="#31302F"/>
<path d="M55.8459 20.9082H54.73V20.5381H57.3348V20.9082H56.2289V23.8788H55.8445V20.9082H55.8459Z" fill="#31302F"/>
<path d="M60.5142 20.5381V23.8788H60.1298V22.3113H58.2022V23.8788H57.8179V20.5381H58.2022V21.9427H60.1298V20.5381H60.5142Z" fill="#31302F"/>
<path d="M61.3713 20.5381H63.3403V20.9082H61.7557V21.9513H63.0789V22.3213H61.7557V23.5087H63.3403V23.8788H61.3713V20.5381Z" fill="#31302F"/>
<path d="M65.1677 20.5381H66.1336C66.9867 20.5381 67.3896 20.9668 67.3896 21.5997C67.3896 22.2327 66.9881 22.6614 66.1336 22.6614H65.5506V23.8802H65.1663V20.5395L65.1677 20.5381ZM66.1336 22.2899C66.7252 22.2899 67.0052 22.0241 67.0052 21.5997C67.0052 21.1754 66.7252 20.9096 66.1336 20.9096H65.5506V22.2913H66.1336V22.2899Z" fill="#31302F"/>
<path d="M67.7097 22.2127C67.7097 21.2597 68.4642 20.4795 69.453 20.4795C70.4417 20.4795 71.2005 21.2611 71.2005 22.2127C71.2005 23.1644 70.4289 23.9374 69.453 23.9374C68.477 23.9374 67.7097 23.1787 67.7097 22.2127ZM70.8118 22.217C70.8118 21.4769 70.2346 20.8353 69.453 20.8353C68.6714 20.8353 68.0984 21.4769 68.0984 22.217C68.0984 22.9572 68.6856 23.5802 69.453 23.5802C70.2203 23.5802 70.8118 22.9572 70.8118 22.217Z" fill="#31302F"/>
<path d="M71.8223 20.5381H72.2066V23.8788H71.8223V20.5381Z" fill="#31302F"/>
<path d="M75.953 20.5381V23.8788H75.5372L73.451 21.0153V23.8788H73.0667V20.5381H73.5682L75.5729 23.283V20.5381H75.9516H75.953Z" fill="#31302F"/>
<path d="M77.5561 20.9082H76.4402V20.5381H79.045V20.9082H77.9391V23.8788H77.5547V20.9082H77.5561Z" fill="#31302F"/>
<path d="M79.0137 23.6627C79.0137 23.5268 79.1224 23.4238 79.2583 23.4238C79.3942 23.4238 79.5029 23.5282 79.5029 23.6627C79.5029 23.8072 79.3942 23.9073 79.2583 23.9073C79.1224 23.9073 79.0137 23.8072 79.0137 23.6627Z" fill="#31302F"/>
<path d="M45.3013 3.09085C44.8361 3.08794 44.6684 3.27606 44.5692 3.66106C44.3242 4.60751 44.0763 5.55396 43.8138 6.4975C43.3749 8.08123 42.9242 9.66206 42.4372 11.396C42.3278 11.1029 42.268 10.9745 42.2315 10.8404C41.6628 8.74477 41.0999 6.64916 40.5297 4.55501C40.1286 3.08356 40.1228 3.09523 38.5638 3.10106C38.1497 3.10252 37.9441 3.17106 37.8245 3.64939C37.177 6.23791 36.4682 8.81331 35.777 11.4048C35.5962 11.2545 35.5728 11.0664 35.5218 10.8798C34.8583 8.46477 34.1816 6.05417 33.521 3.63918C33.4495 3.37523 33.4495 3.10544 33.0718 3.10981C32.4564 3.11565 31.8424 3.11127 31.1672 3.11127C32.1516 6.53833 33.1083 9.85893 34.0605 13.1795C34.5797 14.9879 34.5768 14.9747 36.4012 14.9179C36.7672 14.9062 36.9028 14.7764 36.9859 14.4468C37.3637 12.9433 37.7574 11.4441 38.1511 9.94497C38.4326 8.86873 38.7228 7.79394 39.0086 6.7177C39.6795 8.90373 40.2307 11.0708 40.7878 13.2364C41.2267 14.9397 41.2311 14.9193 43.0132 14.9193C43.4828 14.9193 43.6053 14.7487 43.7234 14.3301C44.6363 11.1 45.5813 7.87853 46.5205 4.65563C46.9798 3.07773 46.9827 3.10106 45.2998 3.09231L45.3013 3.09085Z" fill="#31302F"/>
<path d="M29.1009 13.0514C29.1286 13.0062 29.1606 12.9654 29.1942 12.9246C29.2073 12.8648 29.2379 12.7977 29.2948 12.7175C30.2311 11.3787 30.4513 9.87084 30.3229 8.26669C30.0706 5.15317 27.6746 2.90443 24.494 2.90297C23.7896 2.87381 23.0649 3.02547 22.3634 3.29818C19.7807 4.29713 18.4274 6.89003 18.7511 9.8898C19.1784 13.8389 22.833 16.0337 26.5473 14.7723C26.6421 14.7402 26.7311 14.7139 26.8186 14.6891C26.8259 14.6746 26.8405 14.6614 26.8609 14.6541C27.1175 14.5754 27.3188 14.3887 27.5463 14.2502L28.0115 14.7489L28.7654 15.5568L28.7829 15.5393L30.1231 14.1671L27.3582 11.1965L26.158 9.9073L26.0369 10.0254L24.9519 11.0856L24.7653 11.2679L25.0467 11.5698L26.0267 12.6198C26.0136 12.6169 26.0019 12.6125 25.9903 12.6081C26.015 12.6344 26.0398 12.6606 26.0646 12.6883C23.8917 13.7616 21.2522 12.2742 20.9955 9.88834C20.8322 8.36293 20.9911 6.8842 22.2584 5.80358C23.3376 4.88338 24.6048 4.69234 25.9086 5.24504C27.2794 5.82545 27.9444 6.97607 28.0975 8.39648C28.1923 9.2773 28.1442 10.1669 27.7446 11.004C27.6177 11.2694 27.5215 11.335 27.3596 11.1979L29.0994 13.066C29.0994 13.066 29.1023 13.0573 29.1052 13.0529L29.1009 13.0514Z" fill="#31302F"/>
<path d="M58.1182 13.0102C58.1415 12.9752 58.1648 12.9402 58.1954 12.9096C58.2013 12.9037 58.2071 12.9008 58.2129 12.8979C58.2421 12.8571 58.2713 12.8148 58.2975 12.771C58.3019 12.7637 58.3077 12.7593 58.3121 12.7535C58.3252 12.7302 58.3369 12.7068 58.3559 12.6821C59.1827 11.495 59.419 10.1548 59.4059 8.72854C59.3709 4.77211 55.7192 2.02901 51.8926 3.11983C49.2618 3.86941 47.7247 6.13127 47.7466 9.21562C47.7757 13.3106 51.3559 16.0697 55.2788 14.8593C55.499 14.7922 55.7046 14.7354 55.8971 14.696C55.9044 14.6931 55.9103 14.6902 55.9176 14.6872C55.9365 14.68 55.954 14.6712 55.973 14.6639C56.1771 14.5429 56.3667 14.3927 56.565 14.2614L56.1013 13.7641L57.0798 14.8127L57.7127 15.4908L57.7725 15.5549L59.0544 14.241L59.1288 14.1637L58.9917 14.0164L57.1163 12.0025L58.0846 13.0437C58.0948 13.0321 58.1065 13.0204 58.1167 13.0087L58.1182 13.0102ZM56.7925 10.9685C56.724 11.1377 56.6628 11.2325 56.5855 11.2529C56.5753 11.2821 56.5621 11.3083 56.5403 11.336C56.5315 11.3462 56.5228 11.3521 56.5125 11.355L55.6638 10.4435L55.1636 9.90687L55.1301 9.94041L53.7767 11.2616L53.7694 11.2675L54.4942 12.0433C54.5467 12.1031 54.5978 12.1629 54.6488 12.2241C54.678 12.2591 54.7159 12.2927 54.7567 12.3248L54.9901 12.5741L55.1403 12.736C55.0965 12.7652 55.0484 12.7885 54.9988 12.8046C54.9901 12.8075 54.9828 12.8089 54.974 12.8118C54.9448 12.825 54.9128 12.8352 54.8807 12.8425C54.7436 12.9504 54.5219 12.9679 54.3469 13C52.4263 13.35 50.7915 12.3802 50.182 10.5077C49.7634 9.22 49.8655 7.95271 50.5247 6.76126C51.2145 5.51148 52.6319 4.77211 53.889 4.96169C55.5355 5.20961 56.7371 6.3296 57.0638 7.87251C57.2884 8.93854 57.198 9.96228 56.7925 10.9685Z" fill="#31302F"/>
<path d="M68.0507 12.8633C66.7178 12.8866 65.3849 12.8546 64.052 12.8823C63.6057 12.891 63.4512 12.7685 63.4789 12.3164C63.5168 11.6937 63.5109 11.0652 63.4789 10.441C63.4599 10.0517 63.6072 9.94666 63.9776 9.95686C64.8016 9.97874 65.6255 9.96416 66.4495 9.96416C67.8422 9.96416 67.8203 9.96416 67.8451 8.57729C67.8538 8.09459 67.7649 7.88021 67.2253 7.93125C66.6974 7.9823 66.1593 7.96479 65.627 7.93709C64.9343 7.90063 64.0301 8.25063 63.6087 7.78834C63.1989 7.33917 63.543 6.45251 63.4803 5.76273C63.4409 5.32815 63.5707 5.17065 64.033 5.18523C65.0495 5.21877 66.0688 5.19544 67.0868 5.19544C68.5611 5.19544 68.5422 5.19544 68.5509 3.71378C68.5538 3.2515 68.443 3.08962 67.953 3.09691C65.9172 3.12171 63.8814 3.12025 61.8455 3.09691C61.4051 3.09254 61.2666 3.20046 61.2724 3.65399C61.3001 5.43461 61.2841 7.21522 61.2841 8.99583C61.2841 10.7283 61.3176 12.4623 61.2666 14.1933C61.2476 14.8233 61.4503 14.9327 62.0307 14.9181C63.702 14.8772 65.3747 14.9035 67.0474 14.9035C68.6151 14.9035 68.5976 14.9035 68.5801 13.3737C68.5757 12.9566 68.4488 12.856 68.0478 12.8618L68.0507 12.8633Z" fill="#31302F"/>
<path d="M79.5541 14.796L78.0578 12.0208L77.2602 10.5421L77.021 10.1002L77.126 10.2942C77.2324 10.2548 77.336 10.2067 77.4308 10.1439C77.4993 10.0754 77.5897 10.0054 77.7093 9.93103C79.0422 9.09396 79.5497 7.53793 79.172 5.88127C78.8614 4.52066 77.597 3.42108 76.1227 3.179C74.625 2.93254 73.1243 3.20087 71.6281 3.09733C71.0827 3.05942 70.9325 3.2315 70.9369 3.77545C70.9631 6.95022 70.95 10.125 70.95 13.2998C70.95 14.955 70.95 14.9418 72.6329 14.9127C73.0354 14.9054 73.1812 14.8106 73.1696 14.3906C73.1404 13.3814 73.1943 12.3693 73.1462 11.3602C73.12 10.806 73.3066 10.7171 73.8331 10.6792C73.9891 10.6675 74.1306 10.6689 74.2633 10.6821H74.9648L74.8627 10.4881L75.9506 12.5531L76.111 12.8593L76.8577 14.2768L77.196 14.9185L77.9179 14.9214L79.0218 14.9272L79.6285 14.9302L79.5555 14.7945L79.5541 14.796ZM73.1593 7.01876V6.94731C73.1593 5.67565 73.906 5.09815 75.3993 5.21482C76.1941 5.27753 76.8679 5.83752 76.9918 6.53897C77.142 7.39064 76.7045 8.2073 75.9258 8.52375C75.586 8.66229 75.2302 8.67979 74.8656 8.67833C73.1593 8.67396 73.1593 8.67833 73.1593 7.01876Z" fill="#31302F"/>
<path d="M15.0102 12.1641H2.50948C1.53896 12.1641 0.752197 12.9508 0.752197 13.9213C0.752197 14.8919 1.53896 15.6786 2.50948 15.6786H15.0102C15.9807 15.6786 16.7675 14.8919 16.7675 13.9213C16.7675 12.9508 15.9807 12.1641 15.0102 12.1641Z" fill="#1B944E"/>
<path d="M15.0118 7.80469H7.82954C6.85903 7.80469 6.07227 8.59145 6.07227 9.56197C6.07227 10.5325 6.85903 11.3192 7.82954 11.3192H15.0118C15.9823 11.3192 16.7691 10.5325 16.7691 9.56197C16.7691 8.59145 15.9823 7.80469 15.0118 7.80469Z" fill="white"/>
<path d="M15.0103 3.45801H11.2202C10.2497 3.45801 9.46289 4.24477 9.46289 5.21529C9.46289 6.18581 10.2497 6.97257 11.2202 6.97257H15.0103C15.9809 6.97257 16.7676 6.18581 16.7676 5.21529C16.7676 4.24477 15.9809 3.45801 15.0103 3.45801Z" fill="#F8A342"/>
</g>
<defs>
<linearGradient id="paint0_linear_215_62903" x1="118.558" y1="3.12228" x2="91.8681" y2="23.2813" gradientUnits="userSpaceOnUse">
<stop stop-color="#ED1D24"/>
<stop offset="1" stop-color="#FF822D"/>
</linearGradient>
<linearGradient id="paint1_linear_215_62903" x1="120.891" y1="0.210233" x2="117.557" y2="12.3933" gradientUnits="userSpaceOnUse">
<stop stop-color="#ED1D24"/>
<stop offset="1" stop-color="#FF822D"/>
</linearGradient>
<clipPath id="clip0_215_62903">
<rect width="116.16" height="24" fill="white" transform="translate(0.599854)"/>
</clipPath>
</defs>
</svg>
