<svg width="160" height="24" viewBox="0 0 160 24" fill="none" xmlns="http://www.w3.org/2000/svg">
<g clip-path="url(#clip0_8812_85530)">
<path d="M16.5411 10.7897C18.4865 15.3564 18.4397 20.1391 16.7783 23.7014C13.0579 22.4319 9.57806 19.1502 7.63267 14.5836C5.68729 10.0169 5.73295 5.23414 7.39549 1.67188C11.1159 2.94244 14.5957 6.22298 16.5411 10.7897Z" fill="url(#paint0_linear_8812_85530)" fill-opacity="0.9"/>
<path d="M10.9135 11.926C10.8662 16.8896 12.7418 21.2895 15.6413 23.9433C18.5914 21.3454 20.5484 16.9809 20.5957 12.0173C20.643 7.05374 18.7674 2.65389 15.8679 0C12.9182 2.59902 10.9608 6.96248 10.9135 11.926Z" fill="url(#paint1_linear_8812_85530)" fill-opacity="0.9"/>
<path d="M15.2016 10.7897C13.2562 15.3564 13.303 20.1391 14.9644 23.7014C18.6848 22.4319 22.1646 19.1502 24.11 14.5836C26.0554 10.0169 26.0086 5.23414 24.3472 1.67188C20.6268 2.94244 17.147 6.22298 15.2016 10.7897Z" fill="url(#paint2_linear_8812_85530)" fill-opacity="0.9"/>
<path d="M20.0968 11.8311C16.8018 15.5437 15.3263 20.0925 15.7706 23.9989C19.7015 23.9766 24.0444 21.9711 27.3383 18.2596C30.6322 14.5481 32.1087 9.99815 31.6644 6.0918C27.7347 6.11407 23.3918 8.11958 20.0968 11.8311Z" fill="url(#paint3_linear_8812_85530)" fill-opacity="0.9"/>
<path d="M11.6459 11.8311C14.9409 15.5437 16.4164 20.0925 15.9721 23.9989C12.0412 23.9766 7.69837 21.9711 4.40448 18.2596C1.11058 14.5481 -0.367111 9.99815 0.0771974 6.0918C4.00805 6.11407 8.35092 8.11958 11.6459 11.8311Z" fill="url(#paint4_linear_8812_85530)" fill-opacity="0.9"/>
<path d="M25.0999 17.5573C26.0132 17.5573 26.7535 16.8169 26.7535 15.9036C26.7535 14.9904 26.0132 14.25 25.0999 14.25C24.1866 14.25 23.4463 14.9904 23.4463 15.9036C23.4463 16.8169 24.1866 17.5573 25.0999 17.5573Z" fill="#00AA4F"/>
<path d="M22.4218 13.8359C22.4218 13.8359 22.0755 21.5072 26.4796 18.2735C26.4963 18.2735 28.3894 17.0051 29.4283 15.4049C29.4283 15.4049 25.2091 22.8947 17.5879 23.8746C17.6213 23.8668 21.4152 19.7422 22.4218 13.8359Z" fill="#00AA4F"/>
<path d="M6.53449 17.5573C7.44776 17.5573 8.18812 16.8169 8.18812 15.9036C8.18812 14.9904 7.44776 14.25 6.53449 14.25C5.62121 14.25 4.88086 14.9904 4.88086 15.9036C4.88086 16.8169 5.62121 17.5573 6.53449 17.5573Z" fill="#00AA4F"/>
<path d="M9.21307 13.8359C9.21307 13.8359 9.55938 21.5072 5.15527 18.2735C5.13857 18.2735 3.33015 16.965 2.29009 15.3648C2.27339 15.3481 6.42472 22.8947 14.047 23.8746C14.0147 23.8668 10.2197 19.7422 9.21307 13.8359Z" fill="#00AA4F"/>
<path d="M20.5076 14.4689C19.8395 16.7595 17.8496 18.4231 15.5846 18.4231C13.3174 18.4231 11.3965 16.7662 10.7295 14.4734C11.5981 18.9554 13.5245 22.5333 15.7249 23.9987C17.8006 22.2504 19.6246 18.7472 20.5076 14.4689C20.5321 14.4678 20.4842 14.4734 20.5076 14.4689Z" fill="#00AA4F"/>
<path d="M16.0803 17.6824C16.9691 17.4725 17.5194 16.5819 17.3096 15.6931C17.0997 14.8043 16.2091 14.2539 15.3203 14.4637C14.4315 14.6736 13.8811 15.5643 14.0909 16.4531C14.3008 17.3419 15.1915 17.8922 16.0803 17.6824Z" fill="#00AA4F"/>
<path d="M39.1978 19.6218V15.8042C39.1978 15.3107 39.1639 14.9986 39.0962 14.868C39.0285 14.7325 38.8446 14.6237 38.5447 14.5414C38.1093 14.4156 37.8916 14.1979 37.8916 13.8882C37.8916 13.6705 37.9835 13.5036 38.1674 13.3875C38.3512 13.2713 38.6173 13.2133 38.9656 13.2133C39.0817 13.2133 39.3695 13.2205 39.8291 13.235H40.2645C41.0676 13.2302 41.5369 13.2254 41.6723 13.2205C41.8126 13.2108 42.3061 13.1673 43.1527 13.0899C43.4333 13.0609 43.6897 13.0463 43.9219 13.0463C44.7153 13.0463 45.4216 13.2084 46.0408 13.5326C47.1197 14.0939 47.6591 14.9841 47.6591 16.2034C47.6591 17.1905 47.2817 17.9815 46.527 18.5767C45.8159 19.1331 44.9548 19.4113 43.9437 19.4113C43.6873 19.4113 43.3728 19.3944 43.0003 19.3605C42.8019 19.346 42.6786 19.3387 42.6302 19.3387C42.4899 19.3387 42.4198 19.4185 42.4198 19.5782V19.6218L42.4706 20.812C42.4802 21.0443 42.5214 21.2184 42.5939 21.3346C42.6713 21.4458 42.8261 21.562 43.0583 21.6829C43.3728 21.8523 43.53 22.0361 43.53 22.2345C43.53 22.5393 43.2978 22.774 42.8334 22.9385C42.369 23.103 41.711 23.1853 40.8596 23.1853C39.0696 23.1853 38.1746 22.878 38.1746 22.2635C38.1746 22.1184 38.2133 22.0071 38.2907 21.9297C38.3681 21.8523 38.5495 21.741 38.835 21.5958C39.0091 21.5039 39.1107 21.3757 39.1397 21.2112C39.1688 21.0467 39.1881 20.5169 39.1978 19.6218ZM42.4706 14.8825V17.3501C42.4706 17.5388 42.5117 17.6525 42.5939 17.6912C42.7342 17.759 42.9108 17.7928 43.1237 17.7928C43.4429 17.7928 43.7114 17.7033 43.9291 17.5243C44.2436 17.2679 44.4008 16.8372 44.4008 16.2324C44.4008 15.6034 44.217 15.1486 43.8493 14.868C43.6171 14.689 43.3365 14.5995 43.0075 14.5995C42.6496 14.5995 42.4706 14.6938 42.4706 14.8825Z" fill="#FF2D16"/>
<path d="M55.7357 18.0831L53.8563 21.741C53.566 22.3071 53.3193 22.7014 53.1161 22.924C52.9129 23.1417 52.6952 23.2506 52.463 23.2506C52.2356 23.2506 52.0518 23.1683 51.9115 23.0038C51.6164 22.6748 51.3575 22.3022 51.135 21.8861L49.0741 17.9743C48.9628 17.7614 48.854 17.609 48.7476 17.517C48.646 17.4203 48.5033 17.3477 48.3194 17.2993C47.9518 17.1929 47.7679 16.9945 47.7679 16.7042C47.7679 16.409 47.9953 16.1937 48.45 16.0583C48.9048 15.9228 49.6232 15.855 50.6053 15.855C51.4277 15.855 52.0324 15.9155 52.4194 16.0365C52.8113 16.1526 53.0072 16.334 53.0072 16.5808C53.0072 16.755 52.9153 16.9219 52.7315 17.0816C52.6154 17.188 52.5404 17.2679 52.5065 17.3211C52.4727 17.3743 52.4557 17.442 52.4557 17.5243C52.4557 17.6888 52.5622 17.9622 52.775 18.3444C52.9879 18.717 53.1862 18.9033 53.3701 18.9033C53.491 18.9033 53.5902 18.8573 53.6676 18.7654C53.745 18.6734 53.8853 18.4363 54.0885 18.0541C54.2384 17.7735 54.3134 17.5606 54.3134 17.4154C54.3134 17.2993 54.236 17.1614 54.0812 17.0018C53.9167 16.8276 53.8345 16.6655 53.8345 16.5155C53.8345 16.2832 53.9869 16.1163 54.2917 16.0147C54.6013 15.9131 55.1068 15.8623 55.8083 15.8623C56.7952 15.8623 57.2887 16.0752 57.2887 16.501C57.2887 16.7477 57.1121 16.9268 56.7589 17.038C56.4832 17.1251 56.2945 17.2195 56.1929 17.3211C56.0961 17.4227 55.9438 17.6767 55.7357 18.0831Z" fill="#FF2D16"/>
<path d="M61.7878 17.713V20.1661C61.7878 20.4564 61.8579 20.6935 61.9982 20.8773C62.1434 21.0612 62.3272 21.1531 62.5497 21.1531C62.7384 21.1531 62.9876 21.066 63.2972 20.8918C63.3697 20.8483 63.4423 20.8265 63.5149 20.8265C63.631 20.8265 63.7374 20.8967 63.8342 21.037C63.9309 21.1773 63.9793 21.3297 63.9793 21.4942C63.9793 21.7942 63.8148 22.0821 63.4858 22.3579C62.7989 22.9433 61.9668 23.2361 60.9896 23.2361C60.2155 23.2361 59.5939 23.0183 59.1246 22.5829C58.6553 22.1426 58.4207 21.5644 58.4207 20.8483V17.4953C58.4207 17.384 58.4062 17.3162 58.3772 17.2921C58.353 17.263 58.2852 17.2485 58.174 17.2485H57.4265C57.2862 17.2485 57.1967 17.2267 57.158 17.1832C57.1193 17.1348 57.1 17.0259 57.1 16.8566V16.5373C57.1048 16.3921 57.1605 16.2857 57.2669 16.2179L60.5904 14.1277C60.6727 14.0842 60.7743 14.0624 60.8952 14.0624H61.483C61.604 14.0624 61.6838 14.0914 61.7225 14.1495C61.766 14.2027 61.7878 14.3116 61.7878 14.4761V15.4559C61.7878 15.601 61.8096 15.6954 61.8531 15.7389C61.9015 15.7825 62.0006 15.8042 62.1506 15.8042H63.4931C63.6721 15.8042 63.7882 15.8381 63.8414 15.9058C63.8946 15.9687 63.9212 16.1066 63.9212 16.3195V16.7477C63.9212 16.98 63.8874 17.1421 63.8197 17.234C63.7519 17.3211 63.6286 17.3646 63.4496 17.3646H62.1361C62.0006 17.3646 61.9087 17.3888 61.8604 17.4372C61.812 17.4856 61.7878 17.5775 61.7878 17.713Z" fill="#FF2D16"/>
<path d="M66.3159 19.8105C66.7755 19.8105 67.1746 19.9701 67.5133 20.2895C67.8568 20.6136 68.0285 21.0322 68.0285 21.545C68.0285 22.024 67.8568 22.428 67.5133 22.7571C67.1746 23.0764 66.7755 23.2361 66.3159 23.2361C65.8564 23.2361 65.4572 23.0764 65.1186 22.7571C64.7751 22.428 64.6034 22.0168 64.6034 21.5233C64.6034 21.0201 64.7751 20.6088 65.1186 20.2895C65.4572 19.975 65.8564 19.8153 66.3159 19.8105Z" fill="#FF2D16"/>
<path d="M77.2082 16.305V19.6363C77.2082 20.3862 77.2735 20.8701 77.4041 21.0878C77.5638 21.3442 77.9 21.4725 78.4128 21.4725C78.9643 21.4725 79.3997 21.3515 79.719 21.1096C80.0383 20.8677 80.2608 20.4903 80.3866 19.9774C80.4592 19.6629 80.6237 19.5056 80.8801 19.5056C81.1365 19.5056 81.3445 19.6218 81.5041 19.854C81.6686 20.0814 81.7509 20.379 81.7509 20.7467C81.7509 21.3467 81.5283 21.9877 81.0832 22.67C80.943 22.8877 80.8196 23.0353 80.7132 23.1127C80.6067 23.1949 80.4785 23.2361 80.3286 23.2361L78.7176 23.0401H73.6452C73.3114 23.0401 73.0767 23.0014 72.9413 22.924C72.7429 22.8127 72.6438 22.6458 72.6438 22.4232C72.6438 22.2877 72.6752 22.1885 72.7381 22.1256C72.8058 22.0579 72.9655 21.9636 73.217 21.8426C73.4928 21.712 73.6694 21.5281 73.7468 21.291C73.8097 21.0926 73.8411 20.5144 73.8411 19.5564C73.8411 19.1113 73.829 18.4702 73.8048 17.6332C73.7806 16.83 73.7661 16.2252 73.7613 15.8188C73.7613 15.4317 73.7298 15.168 73.6669 15.0277C73.6089 14.8825 73.4831 14.7785 73.2896 14.7156C72.9703 14.6043 72.7671 14.5148 72.68 14.4471C72.5252 14.3261 72.4478 14.1882 72.4478 14.0334C72.4478 13.6802 72.7405 13.4116 73.3259 13.2278C73.8242 13.0681 74.4918 12.9883 75.3287 12.9883C76.2672 12.9883 76.9687 13.0367 77.4331 13.1334C78.033 13.2641 78.333 13.5253 78.333 13.9173C78.333 14.0769 78.2919 14.1955 78.2096 14.2729C78.1322 14.3503 77.9387 14.4543 77.6291 14.585C77.4452 14.6672 77.3291 14.8075 77.2808 15.0059C77.2324 15.2043 77.2082 15.6373 77.2082 16.305Z" fill="#FF2D16"/>
<path d="M86.2427 17.713V20.1661C86.2427 20.4564 86.3129 20.6935 86.4532 20.8773C86.5983 21.0612 86.7821 21.1531 87.0047 21.1531C87.1934 21.1531 87.4425 21.066 87.7521 20.8918C87.8247 20.8483 87.8973 20.8265 87.9698 20.8265C88.0859 20.8265 88.1924 20.8967 88.2891 21.037C88.3859 21.1773 88.4342 21.3297 88.4342 21.4942C88.4342 21.7942 88.2698 22.0821 87.9408 22.3579C87.2538 22.9433 86.4217 23.2361 85.4445 23.2361C84.6705 23.2361 84.0488 23.0183 83.5795 22.5829C83.1103 22.1426 82.8756 21.5644 82.8756 20.8483V17.4953C82.8756 17.384 82.8611 17.3162 82.8321 17.2921C82.8079 17.263 82.7402 17.2485 82.6289 17.2485H81.8815C81.7412 17.2485 81.6517 17.2267 81.613 17.1832C81.5743 17.1348 81.5549 17.0259 81.5549 16.8566V16.5373C81.5598 16.3921 81.6154 16.2857 81.7218 16.2179L85.0454 14.1277C85.1276 14.0842 85.2292 14.0624 85.3502 14.0624H85.938C86.0589 14.0624 86.1387 14.0914 86.1774 14.1495C86.221 14.2027 86.2427 14.3116 86.2427 14.4761V15.4559C86.2427 15.601 86.2645 15.6954 86.308 15.7389C86.3564 15.7825 86.4556 15.8042 86.6056 15.8042H87.9481C88.127 15.8042 88.2432 15.8381 88.2964 15.9058C88.3496 15.9687 88.3762 16.1066 88.3762 16.3195V16.7477C88.3762 16.98 88.3423 17.1421 88.2746 17.234C88.2069 17.3211 88.0835 17.3646 87.9045 17.3646H86.5911C86.4556 17.3646 86.3637 17.3888 86.3153 17.4372C86.2669 17.4856 86.2427 17.5775 86.2427 17.713Z" fill="#FF2D16"/>
<path d="M97.2946 13.714V20.3403C97.2946 20.7177 97.3091 20.9596 97.3382 21.066C97.372 21.1725 97.4615 21.2765 97.6067 21.3781C97.7808 21.4991 97.8969 21.6055 97.955 21.6974C98.0179 21.7894 98.0493 21.9007 98.0493 22.0313C98.0493 22.4184 97.6599 22.7135 96.881 22.9167C96.1795 23.0957 95.478 23.1853 94.7766 23.1853C94.6218 23.1853 94.5202 23.1611 94.4718 23.1127C94.4282 23.0691 94.3992 22.9603 94.3847 22.7861C94.3605 22.5393 94.2734 22.4159 94.1235 22.4159C94.0412 22.4159 93.913 22.4885 93.7389 22.6337C93.2454 23.0353 92.6963 23.2361 92.0916 23.2361C91.3417 23.2361 90.6669 22.9578 90.067 22.4014C89.7138 22.0676 89.4284 21.6829 89.2107 21.2475C88.9204 20.6814 88.7753 20.108 88.7753 19.5274C88.7753 18.8452 88.964 18.1872 89.3413 17.5533C89.6896 16.9679 90.1638 16.5179 90.7636 16.2034C91.2668 15.9421 91.7626 15.8115 92.2513 15.8115C92.8124 15.8115 93.3156 15.9373 93.7606 16.1889C93.8332 16.2276 93.8913 16.247 93.9348 16.247C94.0896 16.247 94.167 16.0389 94.167 15.6228C94.167 15.4438 94.1235 15.3083 94.0364 15.2164C93.9541 15.1196 93.8042 15.0374 93.5865 14.9696C93.2817 14.8728 93.1293 14.7035 93.1293 14.4616C93.1293 14.1084 93.48 13.8326 94.1815 13.6342C95.42 13.2907 96.2497 13.1189 96.6706 13.1189C97.0866 13.1189 97.2946 13.3173 97.2946 13.714ZM93.3543 17.3646C93.0398 17.3646 92.7907 17.5316 92.6068 17.8654C92.3601 18.3105 92.2367 18.896 92.2367 19.6218C92.2367 20.2798 92.3553 20.7757 92.5923 21.1096C92.7616 21.3515 92.9914 21.4725 93.2817 21.4725C93.5962 21.4725 93.8235 21.291 93.9638 20.9281C94.109 20.5604 94.1815 19.9701 94.1815 19.1573C94.1815 18.4122 94.0969 17.9162 93.9275 17.6695C93.7969 17.4759 93.6058 17.3743 93.3543 17.3646Z" fill="#FF2D16"/>
<path d="M100.437 19.8105C100.896 19.8105 101.295 19.9701 101.634 20.2895C101.978 20.6136 102.149 21.0322 102.149 21.545C102.149 22.024 101.978 22.428 101.634 22.7571C101.295 23.0764 100.896 23.2361 100.437 23.2361C99.9772 23.2361 99.5781 23.0764 99.2394 22.7571C98.8959 22.428 98.7242 22.0168 98.7242 21.5233C98.7242 21.0201 98.8959 20.6088 99.2394 20.2895C99.5781 19.975 99.9772 19.8153 100.437 19.8105Z" fill="#FF2D16"/>
<path d="M42.2574 0.0410156C42.7545 0.0410156 43.4062 0.164107 44.2122 0.410289C44.3088 0.439251 44.386 0.453732 44.4439 0.453732C44.4922 0.453732 44.637 0.410289 44.8783 0.323401C44.9555 0.294438 45.0376 0.279957 45.1245 0.279957C45.4479 0.279957 45.7881 0.535793 46.1453 1.04747C46.5073 1.55914 46.6883 2.04667 46.6883 2.51008C46.6883 2.78039 46.6063 3.00968 46.4422 3.19794C46.2829 3.38137 46.0874 3.47308 45.8557 3.47308C45.6627 3.47308 45.5058 3.43447 45.3851 3.35723C45.2644 3.28 44.999 3.05071 44.5887 2.66937C44.0095 2.12874 43.4399 1.85842 42.88 1.85842C42.6097 1.85842 42.3925 1.92358 42.2284 2.05392C42.0691 2.18425 41.9895 2.35561 41.9895 2.568C41.9895 2.98796 42.3587 3.30413 43.0972 3.51653C44.0964 3.81098 44.7359 4.02578 45.0159 4.16094C46.2467 4.7595 46.8621 5.64045 46.8621 6.80378C46.8621 7.83195 46.4422 8.67187 45.6023 9.32352C44.7432 9.98966 43.6209 10.3227 42.2357 10.3227C41.6178 10.3227 40.9662 10.2503 40.2808 10.1055C39.5954 9.95587 39.1007 9.7821 38.7966 9.58419C38.5649 9.42972 38.355 9.09424 38.1667 8.57774C37.9833 8.05641 37.8916 7.54957 37.8916 7.0572C37.8916 6.82067 37.9399 6.64207 38.0364 6.52139C38.1571 6.36693 38.3091 6.28969 38.4925 6.28969C38.6759 6.28969 38.8521 6.38382 39.0211 6.57208C39.1224 6.67827 39.3613 7.01859 39.7378 7.59301C39.9164 7.86333 40.1988 8.08779 40.5849 8.26639C40.9759 8.44499 41.3789 8.53429 41.794 8.53429C42.1512 8.53429 42.4408 8.46913 42.6628 8.3388C42.8849 8.20364 42.9959 8.03228 42.9959 7.82471C42.9959 7.63163 42.909 7.46509 42.7352 7.32511C42.5615 7.18512 42.2791 7.05479 41.8881 6.93411C41.1979 6.71689 40.6718 6.51898 40.3098 6.34038C39.9478 6.15695 39.6099 5.92766 39.2962 5.65252C38.5336 4.97672 38.1522 4.20921 38.1522 3.34999C38.1522 2.92521 38.2512 2.51249 38.4491 2.11184C38.647 1.70636 38.9269 1.3564 39.2889 1.06195C40.0998 0.381326 41.0893 0.0410156 42.2574 0.0410156Z" fill="#FF2D16"/>
<path d="M51.5754 2.90831C52.4153 2.90831 53.1272 3.1207 53.7112 3.54549C54.0202 3.77236 54.2349 4.03303 54.3556 4.32748C54.4811 4.6171 54.5439 5.01775 54.5439 5.52943L54.5294 6.60828C54.5294 7.35648 54.5825 7.84161 54.6887 8.06365C54.7418 8.16985 54.7924 8.23743 54.8407 8.26639C54.889 8.29535 54.9903 8.3219 55.1448 8.34604C55.2992 8.37017 55.3765 8.47154 55.3765 8.65014C55.3765 8.88184 55.2823 9.1232 55.0941 9.37421C54.9107 9.62522 54.6718 9.8352 54.3773 10.0041C54.0153 10.2165 53.6364 10.3227 53.2406 10.3227C52.7338 10.3227 52.3332 10.149 52.0388 9.80141C51.9374 9.6759 51.8433 9.61315 51.7564 9.61315C51.6599 9.61315 51.532 9.67349 51.3727 9.79417C50.89 10.1465 50.3422 10.3227 49.7292 10.3227C49.0969 10.3227 48.5852 10.1876 48.1943 9.91726C47.9385 9.73865 47.7357 9.50695 47.5861 9.22216C47.4365 8.93253 47.3617 8.63084 47.3617 8.31707C47.3617 7.81506 47.5644 7.37096 47.9698 6.9848C48.6021 6.37658 49.5482 6.07006 50.808 6.06523C51.0879 6.06523 51.2641 6.03868 51.3365 5.98559C51.4089 5.92766 51.4451 5.79733 51.4451 5.59459C51.4451 5.08292 51.392 4.71365 51.2858 4.48677C51.1796 4.25507 51.0059 4.13922 50.7645 4.13922C50.6197 4.13922 50.4894 4.18267 50.3736 4.26955C50.2625 4.35644 50.1226 4.51574 49.9536 4.74744C49.524 5.36048 49.0752 5.667 48.607 5.667C48.3705 5.667 48.1774 5.597 48.0278 5.45702C47.8781 5.31703 47.8033 5.1336 47.8033 4.90673C47.8033 4.67503 47.895 4.44333 48.0784 4.21163C48.2667 3.97993 48.5201 3.77719 48.8386 3.60341C49.7123 3.14001 50.6245 2.90831 51.5754 2.90831ZM51.0903 7.10065C50.8779 7.10065 50.6921 7.18753 50.5328 7.36131C50.3784 7.53508 50.3011 7.74265 50.3011 7.984C50.3011 8.21571 50.3567 8.40396 50.4677 8.54878C50.5787 8.68876 50.7259 8.75875 50.9093 8.75875C51.2955 8.75875 51.4885 8.43292 51.4885 7.78127C51.4885 7.51578 51.4596 7.33717 51.4016 7.24546C51.3486 7.15374 51.2448 7.10547 51.0903 7.10065Z" fill="#FF2D16"/>
<path d="M64.6366 5.58735L64.7379 8.13606C64.7476 8.32914 64.7765 8.47154 64.8248 8.56326C64.8779 8.65497 65.0275 8.83116 65.2737 9.09182C65.3461 9.16906 65.3823 9.27767 65.3823 9.41765C65.3823 9.73624 65.1916 9.95829 64.8103 10.0838C64.429 10.2093 63.7484 10.272 62.7686 10.272C62.1025 10.272 61.6319 10.2141 61.3568 10.0983C61.072 9.9776 60.9296 9.7821 60.9296 9.51178C60.9296 9.41524 60.9441 9.34525 60.9731 9.3018C61.002 9.25353 61.0986 9.14009 61.2627 8.96149C61.4557 8.75875 61.5523 8.08296 61.5523 6.93411C61.5523 6.26797 61.4751 5.77561 61.3206 5.45702C61.1951 5.20118 60.9634 5.07326 60.6255 5.07326C60.3022 5.07326 60.0801 5.17705 59.9595 5.38461C59.8388 5.59218 59.7785 5.96869 59.7785 6.51415V7.9478C59.7785 8.2326 59.7953 8.4281 59.8291 8.53429C59.8677 8.64049 59.9884 8.84564 60.1911 9.14975C60.2442 9.23664 60.2708 9.33559 60.2708 9.44662C60.2708 9.73141 60.0729 9.94139 59.6771 10.0766C59.2813 10.2117 58.6635 10.2793 57.8236 10.2793C56.4818 10.2793 55.8109 10.0017 55.8109 9.44662C55.8109 9.33076 55.8302 9.24388 55.8688 9.18595C55.9122 9.1232 56.0112 9.03631 56.1656 8.92529C56.2911 8.83357 56.3708 8.72979 56.4046 8.61394C56.4383 8.49326 56.4697 8.20122 56.4987 7.73782C56.5325 7.18753 56.5494 6.6107 56.5494 6.00731C56.5494 5.67424 56.5228 5.45702 56.4697 5.35565C56.4215 5.24945 56.2767 5.12154 56.0353 4.9719C55.8278 4.84156 55.724 4.68227 55.724 4.49401C55.724 4.30093 55.8085 4.14405 55.9774 4.02337C56.1463 3.89787 56.4939 3.74099 57.02 3.55273C57.4833 3.38861 57.9298 3.25104 58.3594 3.14001C58.789 3.02416 59.0834 2.96624 59.2427 2.96624C59.3875 2.96624 59.5082 3.01933 59.6047 3.12553C59.7061 3.23173 59.7567 3.35723 59.7567 3.50204C59.7567 3.51653 59.7543 3.57686 59.7495 3.68306C59.7447 3.72168 59.7423 3.75547 59.7423 3.78443C59.7423 4.01613 59.8388 4.13198 60.0319 4.13198C60.1477 4.13198 60.2708 4.04027 60.4011 3.85684C60.8162 3.25828 61.4195 2.959 62.2111 2.959C62.8193 2.959 63.3406 3.11829 63.775 3.43688C64.0791 3.66375 64.2915 3.93166 64.4121 4.24059C64.5328 4.5447 64.6076 4.99362 64.6366 5.58735Z" fill="#FF2D16"/>
<path d="M73.0858 5.18187L71.2106 8.83116C70.921 9.39593 70.6748 9.78934 70.4721 10.0114C70.2694 10.2286 70.0522 10.3372 69.8205 10.3372C69.5936 10.3372 69.4102 10.2552 69.2702 10.091C68.9758 9.76279 68.7176 9.3911 68.4955 8.97597L66.4394 5.07326C66.3283 4.86087 66.2197 4.70882 66.1135 4.6171C66.0122 4.52056 65.8698 4.44816 65.6864 4.39988C65.3196 4.29369 65.1361 4.09578 65.1361 3.80615C65.1361 3.5117 65.363 3.29689 65.8167 3.16173C66.2704 3.02658 66.9872 2.959 67.967 2.959C68.7876 2.959 69.3909 3.01933 69.777 3.14001C70.168 3.25586 70.3635 3.43688 70.3635 3.68306C70.3635 3.85684 70.2718 4.02337 70.0884 4.18267C69.9725 4.28886 69.8977 4.36851 69.8639 4.42161C69.8301 4.4747 69.8132 4.54228 69.8132 4.62434C69.8132 4.78847 69.9194 5.0612 70.1318 5.44254C70.3442 5.81422 70.5421 6.00007 70.7255 6.00007C70.8462 6.00007 70.9451 5.95421 71.0223 5.8625C71.0996 5.77078 71.2395 5.53425 71.4423 5.15291C71.5919 4.87294 71.6667 4.66055 71.6667 4.51574C71.6667 4.39988 71.5895 4.26231 71.435 4.10302C71.2709 3.92924 71.1889 3.76753 71.1889 3.61789C71.1889 3.38619 71.3409 3.21966 71.645 3.11829C71.9539 3.01692 72.4583 2.96624 73.1582 2.96624C74.1428 2.96624 74.6352 3.17863 74.6352 3.60341C74.6352 3.8496 74.459 4.0282 74.1066 4.13922C73.8315 4.22611 73.6433 4.32024 73.5419 4.42161C73.4454 4.52298 73.2933 4.7764 73.0858 5.18187Z" fill="#FF2D16"/>
<path d="M81.0354 6.88343H77.6326C77.4829 6.88343 77.4081 6.94859 77.4081 7.07892C77.4081 7.39269 77.5771 7.68955 77.9149 7.96952C78.2576 8.24467 78.6245 8.38224 79.0154 8.38224C79.2471 8.38224 79.5029 8.3388 79.7829 8.25191C80.0677 8.16019 80.3018 8.04917 80.4852 7.91884C80.6493 7.80299 80.7796 7.74506 80.8761 7.74506C81.0016 7.74506 81.1247 7.8223 81.2454 7.97676C81.366 8.13123 81.4264 8.29053 81.4264 8.45465C81.4264 8.8022 81.2092 9.13768 80.7748 9.4611C80.0073 10.0355 79.1216 10.3227 78.1177 10.3227C77.104 10.3227 76.2545 10.0283 75.5691 9.43937C75.2361 9.14975 74.961 8.79978 74.7438 8.38948C74.459 7.84402 74.3166 7.26959 74.3166 6.66621C74.3166 5.85525 74.5628 5.12636 75.0551 4.47953C75.4798 3.91959 76.0204 3.50204 76.6769 3.2269C77.1692 3.01933 77.7026 2.91555 78.2769 2.91555C79.194 2.91555 79.9735 3.17622 80.6155 3.69754C80.9389 3.95821 81.1995 4.26714 81.3974 4.62434C81.6243 5.02982 81.7377 5.42564 81.7377 5.81181C81.7377 6.12557 81.6725 6.38382 81.5422 6.58656C81.4119 6.78447 81.243 6.88343 81.0354 6.88343ZM77.8208 5.52943H78.5521C78.861 5.52943 79.0154 5.38703 79.0154 5.10223C79.0154 4.84156 78.9406 4.62917 78.791 4.46505C78.6414 4.30093 78.4459 4.21887 78.2045 4.21887C77.9342 4.21887 77.7219 4.32506 77.5674 4.53746C77.4226 4.73537 77.3502 4.93569 77.3502 5.13843C77.3502 5.28324 77.384 5.38461 77.4516 5.44254C77.524 5.50046 77.647 5.52943 77.8208 5.52943Z" fill="#FF2D16"/>
<path d="M88.8982 6.88343H85.4953C85.3457 6.88343 85.2709 6.94859 85.2709 7.07892C85.2709 7.39269 85.4398 7.68955 85.7777 7.96952C86.1204 8.24467 86.4872 8.38224 86.8782 8.38224C87.1099 8.38224 87.3657 8.3388 87.6456 8.25191C87.9304 8.16019 88.1645 8.04917 88.3479 7.91884C88.512 7.80299 88.6424 7.74506 88.7389 7.74506C88.8644 7.74506 88.9875 7.8223 89.1081 7.97676C89.2288 8.13123 89.2891 8.29053 89.2891 8.45465C89.2891 8.8022 89.0719 9.13768 88.6375 9.4611C87.8701 10.0355 86.9844 10.3227 85.9804 10.3227C84.9668 10.3227 84.1173 10.0283 83.4319 9.43937C83.0988 9.14975 82.8237 8.79978 82.6065 8.38948C82.3217 7.84402 82.1794 7.26959 82.1794 6.66621C82.1794 5.85525 82.4255 5.12636 82.9178 4.47953C83.3426 3.91959 83.8832 3.50204 84.5396 3.2269C85.032 3.01933 85.5653 2.91555 86.1397 2.91555C87.0568 2.91555 87.8363 3.17622 88.4782 3.69754C88.8016 3.95821 89.0623 4.26714 89.2602 4.62434C89.487 5.02982 89.6005 5.42564 89.6005 5.81181C89.6005 6.12557 89.5353 6.38382 89.405 6.58656C89.2747 6.78447 89.1057 6.88343 88.8982 6.88343ZM85.6836 5.52943H86.4148C86.7237 5.52943 86.8782 5.38703 86.8782 5.10223C86.8782 4.84156 86.8034 4.62917 86.6537 4.46505C86.5041 4.30093 86.3086 4.21887 86.0673 4.21887C85.797 4.21887 85.5846 4.32506 85.4302 4.53746C85.2854 4.73537 85.213 4.93569 85.213 5.13843C85.213 5.28324 85.2467 5.38461 85.3143 5.44254C85.3867 5.50046 85.5098 5.52943 85.6836 5.52943Z" fill="#FF2D16"/>
<path d="M98.4479 3.40792V6.73137C98.4479 7.47957 98.513 7.96228 98.6434 8.1795C98.8026 8.43534 99.1381 8.56326 99.6497 8.56326C100.2 8.56326 100.634 8.44258 100.953 8.20122C101.272 7.95987 101.494 7.58336 101.619 7.07168C101.691 6.75792 101.856 6.60104 102.111 6.60104C102.367 6.60104 102.575 6.71689 102.734 6.94859C102.898 7.17547 102.98 7.47233 102.98 7.83919C102.98 8.43775 102.758 9.07734 102.314 9.75796C102.174 9.97518 102.051 10.1224 101.945 10.1996C101.839 10.2817 101.711 10.3227 101.561 10.3227L99.9538 10.1272H94.893C94.5599 10.1272 94.3258 10.0886 94.1907 10.0114C93.9928 9.90036 93.8939 9.73383 93.8939 9.51178C93.8939 9.37662 93.9252 9.27767 93.988 9.21491C94.0555 9.14734 94.2148 9.05321 94.4658 8.93253C94.7409 8.8022 94.9171 8.61877 94.9943 8.38224C95.0571 8.18433 95.0885 7.60749 95.0885 6.65173C95.0885 6.20763 95.0764 5.56804 95.0523 4.73295C95.0281 3.93166 95.0137 3.32827 95.0088 2.92279C95.0088 2.53663 94.9775 2.27355 94.9147 2.13356C94.8568 1.98875 94.7313 1.88497 94.5382 1.82221C94.2197 1.71119 94.0169 1.62189 93.9301 1.55431C93.7756 1.43363 93.6984 1.29606 93.6984 1.14159C93.6984 0.789216 93.9904 0.521312 94.5744 0.337882C95.0716 0.178588 95.7377 0.0989408 96.5727 0.0989408C97.5091 0.0989408 98.209 0.147212 98.6723 0.243754C99.2708 0.374085 99.5701 0.634749 99.5701 1.02574C99.5701 1.18504 99.5291 1.3033 99.447 1.38054C99.3698 1.45777 99.1767 1.56155 98.8678 1.69188C98.6844 1.77394 98.5685 1.91393 98.5203 2.11184C98.472 2.30975 98.4479 2.74178 98.4479 3.40792Z" fill="#FF2D16"/>
<path d="M107.643 2.90831C108.526 2.90831 109.301 3.1376 109.967 3.59617C110.445 3.92442 110.828 4.35161 111.118 4.87777C111.417 5.42806 111.567 6.00248 111.567 6.60104C111.567 7.64852 111.087 8.53912 110.126 9.27284C109.209 9.97277 108.159 10.3227 106.977 10.3227C105.823 10.3227 104.889 9.99449 104.175 9.33801C103.48 8.70083 103.132 7.87057 103.132 6.84722C103.132 5.70803 103.557 4.7764 104.406 4.05233C105.295 3.28965 106.373 2.90831 107.643 2.90831ZM107.064 4.5809C106.851 4.5809 106.68 4.66055 106.55 4.81984C106.424 4.97431 106.361 5.18187 106.361 5.44254C106.361 5.73216 106.414 6.12799 106.521 6.63C106.632 7.12719 106.762 7.56887 106.912 7.95504C107.061 8.35086 107.305 8.54878 107.643 8.54878C108.072 8.54878 108.287 8.27604 108.287 7.73058C108.287 7.32511 108.232 6.86412 108.121 6.34762C108.014 5.83112 107.884 5.41116 107.73 5.08775C107.57 4.7595 107.348 4.59056 107.064 4.5809Z" fill="#FF2D16"/>
<path d="M119.792 2.52456C119.912 2.52456 120.019 2.59455 120.11 2.73454C120.202 2.86969 120.248 3.02899 120.248 3.21242C120.248 3.41033 120.185 3.63479 120.06 3.8858C119.939 4.13681 119.792 4.33713 119.618 4.48677C119.507 4.58331 119.451 4.66055 119.451 4.71847C119.451 4.73295 119.456 4.79088 119.466 4.89225C119.48 4.99362 119.488 5.08533 119.488 5.16739C119.488 5.74182 119.295 6.22453 118.908 6.61552C118.561 6.96307 118.112 7.23339 117.562 7.42647C117.016 7.61956 116.415 7.7161 115.759 7.7161C115.6 7.7161 115.443 7.70645 115.288 7.68714C115.163 7.67266 115.066 7.66542 114.999 7.66542C114.743 7.66542 114.615 7.79333 114.615 8.04917C114.615 8.21329 114.697 8.34362 114.861 8.44017C115.03 8.53188 115.257 8.57774 115.542 8.57774C115.735 8.57774 116.02 8.55119 116.396 8.49809C117.188 8.38707 117.772 8.33156 118.148 8.33156C118.718 8.33156 119.159 8.42568 119.473 8.61394C119.724 8.75875 119.922 8.96149 120.067 9.22216C120.216 9.48282 120.291 9.76279 120.291 10.0621C120.291 10.5496 120.113 11.0227 119.756 11.4812C119.331 12.0219 118.706 12.4225 117.88 12.6832C117.234 12.8859 116.485 12.9873 115.636 12.9873C114.564 12.9873 113.696 12.8232 113.029 12.4949C112.721 12.3405 112.474 12.1377 112.291 11.8867C112.108 11.6357 112.016 11.375 112.016 11.1047C112.016 10.9165 112.067 10.7427 112.168 10.5834C112.274 10.4241 112.407 10.3107 112.566 10.2431C112.711 10.1852 112.783 10.1224 112.783 10.0548C112.783 10.0017 112.723 9.9245 112.602 9.82313C112.216 9.49971 112.023 9.16423 112.023 8.81668C112.023 8.58498 112.115 8.34604 112.298 8.09985C112.486 7.85367 112.718 7.663 112.993 7.52784C113.109 7.46992 113.167 7.41199 113.167 7.35407C113.167 7.28649 113.095 7.18512 112.95 7.04996C112.453 6.59139 112.204 6.05558 112.204 5.44254C112.204 5.11912 112.291 4.81019 112.465 4.51574C112.643 4.22128 112.889 3.97027 113.203 3.76271C113.98 3.25586 114.842 3.00244 115.788 3.00244C116.164 3.00244 116.584 3.05071 117.048 3.14725C117.487 3.23414 117.789 3.27758 117.953 3.27758C118.479 3.27758 119.003 3.07002 119.524 2.65489C119.64 2.568 119.729 2.52456 119.792 2.52456ZM115.86 4.02337C115.619 4.02337 115.424 4.11509 115.274 4.29852C115.129 4.48195 115.057 4.72571 115.057 5.02982C115.057 5.55115 115.136 5.96869 115.296 6.28245C115.455 6.59621 115.665 6.75309 115.926 6.75309C116.181 6.75309 116.384 6.65655 116.534 6.46347C116.683 6.26556 116.758 6.00248 116.758 5.67424C116.758 5.15774 116.678 4.75709 116.519 4.47229C116.365 4.18267 116.145 4.03303 115.86 4.02337ZM114.282 10.6124C114.161 10.6124 114.101 10.6824 114.101 10.8223C114.101 11.1071 114.255 11.3364 114.564 11.5102C114.873 11.6888 115.274 11.7781 115.766 11.7781C116.239 11.7781 116.608 11.7154 116.874 11.5898C117.144 11.4643 117.279 11.2882 117.279 11.0613C117.279 10.9406 117.229 10.8368 117.127 10.7499C117.026 10.6679 116.901 10.6268 116.751 10.6268C116.674 10.6268 116.563 10.6365 116.418 10.6558C116.148 10.6992 115.846 10.721 115.513 10.721C115.267 10.721 115.03 10.7089 114.803 10.6848C114.634 10.6703 114.497 10.651 114.391 10.6268C114.342 10.6172 114.306 10.6124 114.282 10.6124Z" fill="#FF2D16"/>
<path d="M124.693 3.41516V7.62197C124.693 7.95504 124.722 8.19881 124.78 8.35328C124.843 8.50774 124.966 8.65014 125.149 8.78048C125.299 8.88667 125.398 8.97839 125.446 9.05562C125.499 9.12803 125.526 9.22216 125.526 9.33801C125.526 9.9607 124.737 10.272 123.158 10.272C122.309 10.272 121.636 10.2045 121.138 10.0693C120.969 10.021 120.832 9.93657 120.726 9.81589C120.624 9.69521 120.574 9.55764 120.574 9.40317C120.574 9.27284 120.6 9.17147 120.653 9.09906C120.706 9.02666 120.842 8.91081 121.059 8.75151C121.208 8.64049 121.315 8.45947 121.377 8.20846C121.44 7.95746 121.471 7.58336 121.471 7.08616C121.471 6.92687 121.459 6.63 121.435 6.19556C121.416 5.7563 121.401 5.50046 121.392 5.42806C121.363 5.23015 121.228 5.07809 120.986 4.9719C120.687 4.84156 120.537 4.64848 120.537 4.39264C120.537 4.08854 120.733 3.86166 121.124 3.71202C121.664 3.50446 122.244 3.32827 122.862 3.18346C123.479 3.03864 123.957 2.96624 124.295 2.96624C124.561 2.96624 124.693 3.11588 124.693 3.41516ZM123.26 0.243754C123.68 0.243754 124.013 0.323401 124.259 0.482695C124.505 0.637162 124.628 0.847141 124.628 1.11263C124.628 1.48432 124.442 1.77877 124.071 1.99599C123.482 2.33871 122.77 2.51008 121.935 2.51008C121.582 2.51008 121.302 2.4425 121.095 2.30734C120.815 2.13356 120.675 1.89221 120.675 1.58327C120.675 1.16814 120.972 0.842314 121.566 0.605786C122.169 0.364431 122.734 0.243754 123.26 0.243754Z" fill="#FF2D16"/>
<path d="M128.849 2.91555C129.09 2.91555 129.484 2.96865 130.029 3.07485C130.14 3.09415 130.232 3.10381 130.304 3.10381C130.386 3.10381 130.546 3.06037 130.782 2.97348C130.893 2.93003 130.987 2.90831 131.065 2.90831C131.287 2.90831 131.511 3.05071 131.738 3.33551C131.921 3.56238 132.071 3.81098 132.187 4.0813C132.303 4.35161 132.361 4.58573 132.361 4.78364C132.361 4.97672 132.293 5.13843 132.158 5.26876C132.023 5.39427 131.854 5.45702 131.651 5.45702C131.482 5.45702 131.33 5.41599 131.195 5.33393C131.065 5.25187 130.852 5.07085 130.558 4.79088C130.249 4.4916 129.993 4.34196 129.79 4.34196C129.655 4.34196 129.537 4.39264 129.436 4.49401C129.339 4.59056 129.291 4.70641 129.291 4.84156C129.291 5.07809 129.518 5.30014 129.971 5.5077C130.787 5.87456 131.412 6.27521 131.847 6.70965C132.213 7.07651 132.397 7.52543 132.397 8.05641C132.397 8.72738 132.102 9.28732 131.513 9.73624C131.007 10.1272 130.386 10.3227 129.653 10.3227C129.465 10.3227 129.122 10.2914 128.625 10.2286C128.156 10.1755 127.893 10.149 127.835 10.149C127.773 10.149 127.7 10.1562 127.618 10.1707C127.478 10.19 127.377 10.1996 127.314 10.1996C127.087 10.1996 126.909 10.1417 126.778 10.0259C126.581 9.84726 126.397 9.56729 126.228 9.18595C126.059 8.79978 125.975 8.46913 125.975 8.19398C125.975 7.74989 126.149 7.52784 126.496 7.52784C126.631 7.52784 126.754 7.5737 126.865 7.66542C126.981 7.7523 127.22 7.98883 127.582 8.375C127.78 8.58739 127.944 8.73462 128.074 8.81668C128.205 8.89391 128.345 8.93253 128.494 8.93253C128.654 8.93253 128.782 8.8915 128.878 8.80944C128.975 8.72255 129.023 8.60911 129.023 8.46913C129.023 8.25191 128.837 8.054 128.465 7.87539C127.688 7.49405 127.126 7.10065 126.778 6.69517C126.436 6.28969 126.264 5.82146 126.264 5.29048C126.264 4.71606 126.441 4.22128 126.793 3.80615C127.295 3.21242 127.98 2.91555 128.849 2.91555Z" fill="#FF2D16"/>
<path d="M137.363 4.8126V7.25994C137.363 7.54957 137.433 7.78609 137.573 7.96952C137.718 8.15295 137.902 8.24467 138.124 8.24467C138.312 8.24467 138.561 8.15778 138.869 7.984C138.942 7.94056 139.014 7.91884 139.087 7.91884C139.202 7.91884 139.309 7.98883 139.405 8.12882C139.502 8.2688 139.55 8.42086 139.55 8.58498C139.55 8.88426 139.386 9.17147 139.058 9.44662C138.372 10.0307 137.542 10.3227 136.567 10.3227C135.795 10.3227 135.175 10.1055 134.706 9.67108C134.238 9.23181 134.004 8.65497 134.004 7.94056V4.59538C134.004 4.48436 133.99 4.41678 133.961 4.39264C133.936 4.36368 133.869 4.3492 133.758 4.3492H133.012C132.872 4.3492 132.783 4.32748 132.744 4.28403C132.706 4.23576 132.686 4.12715 132.686 3.95821V3.63962C132.691 3.4948 132.747 3.38861 132.853 3.32103L136.169 1.23572C136.251 1.19228 136.352 1.17056 136.473 1.17056H137.059C137.18 1.17056 137.26 1.19952 137.298 1.25744C137.342 1.31054 137.363 1.41915 137.363 1.58327V2.56076C137.363 2.70557 137.385 2.7997 137.429 2.84315C137.477 2.88659 137.576 2.90831 137.725 2.90831H139.065C139.243 2.90831 139.359 2.9421 139.412 3.00968C139.466 3.07243 139.492 3.21001 139.492 3.4224V3.8496C139.492 4.0813 139.458 4.243 139.391 4.33472C139.323 4.42161 139.2 4.46505 139.021 4.46505H137.711C137.576 4.46505 137.484 4.48919 137.436 4.53746C137.388 4.58573 137.363 4.67744 137.363 4.8126Z" fill="#FF2D16"/>
<path d="M143.952 3.41516V7.62197C143.952 7.95504 143.981 8.19881 144.039 8.35328C144.102 8.50774 144.225 8.65014 144.408 8.78048C144.558 8.88667 144.657 8.97839 144.705 9.05562C144.758 9.12803 144.785 9.22216 144.785 9.33801C144.785 9.9607 143.995 10.272 142.417 10.272C141.568 10.272 140.894 10.2045 140.397 10.0693C140.228 10.021 140.091 9.93657 139.984 9.81589C139.883 9.69521 139.832 9.55764 139.832 9.40317C139.832 9.27284 139.859 9.17147 139.912 9.09906C139.965 9.02666 140.1 8.91081 140.317 8.75151C140.467 8.64049 140.573 8.45947 140.636 8.20846C140.699 7.95746 140.73 7.58336 140.73 7.08616C140.73 6.92687 140.718 6.63 140.694 6.19556C140.675 5.7563 140.66 5.50046 140.65 5.42806C140.622 5.23015 140.486 5.07809 140.245 4.9719C139.946 4.84156 139.796 4.64848 139.796 4.39264C139.796 4.08854 139.992 3.86166 140.383 3.71202C140.923 3.50446 141.502 3.32827 142.12 3.18346C142.738 3.03864 143.216 2.96624 143.554 2.96624C143.819 2.96624 143.952 3.11588 143.952 3.41516ZM142.518 0.243754C142.938 0.243754 143.271 0.323401 143.518 0.482695C143.764 0.637162 143.887 0.847141 143.887 1.11263C143.887 1.48432 143.701 1.77877 143.329 1.99599C142.74 2.33871 142.029 2.51008 141.193 2.51008C140.841 2.51008 140.561 2.4425 140.354 2.30734C140.074 2.13356 139.934 1.89221 139.934 1.58327C139.934 1.16814 140.231 0.842314 140.824 0.605786C141.428 0.364431 141.992 0.243754 142.518 0.243754Z" fill="#FF2D16"/>
<path d="M149.339 2.91555C150.198 2.91555 150.956 3.13036 151.612 3.55997C152.235 3.97027 152.546 4.47953 152.546 5.08775C152.546 5.5077 152.401 5.84801 152.112 6.10868C151.841 6.35486 151.515 6.47795 151.134 6.47795C150.734 6.47795 150.432 6.33314 150.229 6.04351C150.166 5.9518 150.075 5.71768 149.954 5.34117C149.824 4.93569 149.575 4.73295 149.208 4.73295C148.943 4.73295 148.718 4.8488 148.535 5.08051C148.356 5.31221 148.267 5.597 148.267 5.9349C148.267 6.51415 148.475 7.02824 148.89 7.47716C149.228 7.83919 149.652 8.02021 150.164 8.02021C150.405 8.02021 150.608 8.0009 150.772 7.96228C150.936 7.91884 151.151 7.83436 151.417 7.70886C151.484 7.67507 151.559 7.65818 151.641 7.65818C151.805 7.65818 151.95 7.73541 152.075 7.88988C152.201 8.04434 152.264 8.22536 152.264 8.43292C152.264 8.65014 152.174 8.87943 151.996 9.12079C151.817 9.35731 151.583 9.56488 151.293 9.74348C150.666 10.1296 149.925 10.3227 149.071 10.3227C148.076 10.3227 147.229 10.0331 146.529 9.45386C145.632 8.72014 145.183 7.78609 145.183 6.65173C145.183 5.5608 145.6 4.65813 146.435 3.94372C147.232 3.25828 148.2 2.91555 149.339 2.91555Z" fill="#FF2D16"/>
<path d="M155.913 2.91555C156.154 2.91555 156.547 2.96865 157.093 3.07485C157.204 3.09415 157.295 3.10381 157.368 3.10381C157.45 3.10381 157.609 3.06037 157.846 2.97348C157.957 2.93003 158.051 2.90831 158.128 2.90831C158.35 2.90831 158.575 3.05071 158.801 3.33551C158.985 3.56238 159.134 3.81098 159.25 4.0813C159.366 4.35161 159.424 4.58573 159.424 4.78364C159.424 4.97672 159.357 5.13843 159.221 5.26876C159.086 5.39427 158.917 5.45702 158.715 5.45702C158.546 5.45702 158.394 5.41599 158.258 5.33393C158.128 5.25187 157.916 5.07085 157.621 4.79088C157.312 4.4916 157.057 4.34196 156.854 4.34196C156.719 4.34196 156.6 4.39264 156.499 4.49401C156.403 4.59056 156.354 4.70641 156.354 4.84156C156.354 5.07809 156.581 5.30014 157.035 5.5077C157.851 5.87456 158.476 6.27521 158.91 6.70965C159.277 7.07651 159.46 7.52543 159.46 8.05641C159.46 8.72738 159.166 9.28732 158.577 9.73624C158.07 10.1272 157.45 10.3227 156.716 10.3227C156.528 10.3227 156.185 10.2914 155.688 10.2286C155.22 10.1755 154.957 10.149 154.899 10.149C154.836 10.149 154.764 10.1562 154.682 10.1707C154.542 10.19 154.44 10.1996 154.378 10.1996C154.151 10.1996 153.972 10.1417 153.842 10.0259C153.644 9.84726 153.461 9.56729 153.292 9.18595C153.123 8.79978 153.038 8.46913 153.038 8.19398C153.038 7.74989 153.212 7.52784 153.56 7.52784C153.695 7.52784 153.818 7.5737 153.929 7.66542C154.045 7.7523 154.284 7.98883 154.646 8.375C154.844 8.58739 155.008 8.73462 155.138 8.81668C155.268 8.89391 155.408 8.93253 155.558 8.93253C155.717 8.93253 155.845 8.8915 155.942 8.80944C156.038 8.72255 156.086 8.60911 156.086 8.46913C156.086 8.25191 155.901 8.054 155.529 7.87539C154.752 7.49405 154.189 7.10065 153.842 6.69517C153.499 6.28969 153.328 5.82146 153.328 5.29048C153.328 4.71606 153.504 4.22128 153.856 3.80615C154.358 3.21242 155.044 2.91555 155.913 2.91555Z" fill="#FF2D16"/>
</g>
<defs>
<linearGradient id="paint0_linear_8812_85530" x1="7.57216" y1="2.0042" x2="15.5898" y2="24.1083" gradientUnits="userSpaceOnUse">
<stop stop-color="#FE1C1C"/>
<stop offset="1" stop-color="white"/>
</linearGradient>
<linearGradient id="paint1_linear_8812_85530" x1="15.7546" y1="0" x2="15.7546" y2="23.9433" gradientUnits="userSpaceOnUse">
<stop stop-color="#FE1C1C"/>
<stop offset="1" stop-color="white"/>
</linearGradient>
<linearGradient id="paint2_linear_8812_85530" x1="24.387" y1="2.11556" x2="14.9217" y2="24.0526" gradientUnits="userSpaceOnUse">
<stop stop-color="#FE1C1C"/>
<stop offset="1" stop-color="white"/>
</linearGradient>
<linearGradient id="paint3_linear_8812_85530" x1="31.7364" y1="7.73908" x2="15.7012" y2="24.0527" gradientUnits="userSpaceOnUse">
<stop stop-color="#FE1C1C"/>
<stop offset="1" stop-color="white"/>
</linearGradient>
<linearGradient id="paint4_linear_8812_85530" x1="2.17143" y1="7.29365" x2="15.4784" y2="24.0527" gradientUnits="userSpaceOnUse">
<stop stop-color="#FE1C1C"/>
<stop offset="1" stop-color="white"/>
</linearGradient>
<clipPath id="clip0_8812_85530">
<rect width="159.46" height="24" fill="white"/>
</clipPath>
</defs>
</svg>
