<svg width="220" height="40" viewBox="0 0 220 40" fill="none" xmlns="http://www.w3.org/2000/svg">
    <path d="M64.408 19.522c-1.102-1.037-2.361-1.384-3.843-1.384-1.83 0-2.836.566-2.836 1.543s.915 1.578 2.898 1.702c2.932.188 6.646.85 6.646 4.983 0 2.741-2.236 5.105-6.677 5.105-2.461 0-4.92-.412-7.186-2.775l1.888-2.741c1.106 1.23 3.624 2.142 5.359 2.175 1.449.032 2.802-.724 2.802-1.86 0-1.07-.881-1.512-3.088-1.639-2.928-.22-6.427-1.292-6.427-4.82 0-3.594 3.72-4.853 6.554-4.853 2.428 0 4.253.47 6.05 2.046l-2.14 2.52v-.002zM69.727 8.89v22.046h3.843v-7.948c0-2.326 1.577-4.253 3.842-4.253 2.048 0 3.534 1.195 3.534 4.03v8.173h3.858V22.74c0-4.57-1.954-7.564-6.368-7.564a5.731 5.731 0 0 0-4.85 2.326V8.86l-3.86.03zm30.506 8.663c-.88-1.541-2.868-2.519-4.948-2.519-4.537-.033-8.098 2.771-8.098 8.129 0 5.453 3.403 8.292 8.004 8.259 1.733-.034 4.161-.915 5.042-2.742l.19 2.266h3.625v-15.55h-3.658l-.157 2.157zm-9.203 5.61c0-2.961 2.049-4.696 4.604-4.696 6.05 0 6.05 9.424 0 9.424-2.555 0-4.602-1.764-4.602-4.728h-.002zm28.571-14.26v8.603c-.911-1.61-3.466-2.491-5.105-2.491-4.539 0-7.911 2.773-7.911 8.13 0 5.107 3.439 8.128 8.005 8.128 1.889 0 3.814-.627 5.013-2.487l.25 2.14h3.593V8.904h-3.845zm-9.168 14.244c0-2.806 1.95-4.537 4.409-4.537a4.421 4.421 0 0 1 3.22 1.308 4.438 4.438 0 0 1 1.286 3.229c0 2.804-2.076 4.568-4.506 4.568-2.428 0-4.409-1.856-4.409-4.568zm31.799.033c0-4.445-3.184-8.098-8.128-8.098-4.946 0-8.04 3.655-8.04 8.098 0 4.443 3.025 8.087 8.067 8.087 5.046 0 8.101-3.619 8.101-8.095v.008zm-12.322-.008c0-2.326 1.451-4.6 4.223-4.6 2.583 0 4.224 2.268 4.224 4.602 0 2.33-1.42 4.568-4.224 4.568-2.806 0-4.223-2.206-4.223-4.57zm25.212-7.809-3.368 11.69-3.562-11.69h-4.268l5.449 15.62h4.476l1.61-4.601 1.382-5.2 1.371 5.21 1.609 4.6h4.473l5.419-15.619h-4.252l-3.56 11.682-3.407-11.691h-3.372zm22.95 15.573V18.972h4.571v-3.356h-4.571v-1.04c0-1.891.997-2.772 2.327-2.772a4.262 4.262 0 0 1 2.365.822l1.42-2.872a7.494 7.494 0 0 0-4.038-1.26c-3.121 0-5.925 1.92-5.925 6.082v1.038h-2.898v3.36h2.898v11.964h3.851v-.002zm19.795-13.393c-.885-1.541-2.869-2.518-4.948-2.518-4.539-.034-8.101 2.77-8.101 8.128 0 5.453 3.407 8.292 8.007 8.259 1.731-.033 4.157-.915 5.042-2.741l.188 2.265h3.626v-15.54h-3.691l-.123 2.147zm-9.203 5.61c0-2.96 2.046-4.696 4.601-4.696 6.051 0 6.051 9.424 0 9.424-2.555 0-4.601-1.764-4.601-4.728zm23.101-2.489-3.041-5.267h-4.613v.125l5.103 7.53-5.42 7.784v.098h4.599l3.37-5.195 3.376 5.197h4.601v-.094l-5.424-7.781 5.107-7.531v-.127h-4.6l-3.058 5.261zm-166.976-6.55-15.85-5.386c-2.502-.852-6.594-2.238-9.096-3.094L3.974.245C1.472-.605-.153.827.362 3.417l6.845 34.45h.016A2.814 2.814 0 0 0 9.923 40a2.796 2.796 0 0 0 1.723-.576 2.791 2.791 0 0 0 1.01-1.51l.758-2.23L16.09 27.8l4.652-13.728c.739-2.171 2.573-2.534 4.083-.81l9.555 10.902.4.45h.023a2.794 2.794 0 0 0 2.687.946 2.868 2.868 0 0 0 1.441-.771l6.783-5.941c1.993-1.749 1.566-3.863-.938-4.713" fill="#F15A28"/>
</svg>
