<svg width="40" height="20" viewBox="0 0 40 20" fill="none" xmlns="http://www.w3.org/2000/svg">
<g clip-path="url(#clip0_1_275)">
<path d="M120 0H0V20H120V0Z" fill="white"/>
<path d="M34.3 11.1C34.2 11.2 34 11.1 33.9 11.2C33.8 11.2 33.7 11.2 33.6 11.2C33 11.2 32.7 11.5 32.7 12.1C32.7 13.1 32.7 14.1 32.7 15.2C32.7 15.4 32.6 15.5 32.4 15.5C31.7 15.5 31.7 15.5 31.7 14.8C31.7 13.4 31.7 12.1 31.7 10.7C31.7 10.4 31.7 10.4 32 10.4H32.1C32.6 10.4 32.6 10.4 32.7 10.9C33 10.4 33.5 10.3 34.1 10.3C34.2 10.3 34.3 10.3 34.3 10.4C34.3 10.7 34.3 10.9 34.3 11.1Z" fill="#012F5A"/>
<path d="M22 18.9C21.7 18.8 21.5 18.6 21.5 18.3C21.5 18.2 21.5 18.1 21.6 18.1C21.7 18.1 21.8 18.1 21.8 18.3C21.8 18.6 21.9 18.6 22.4 18.6C22.6 18.6 22.7 18.5 22.7 18.3C22.7 18.1 22.6 18 22.4 17.9C22.2 17.8 22 17.8 21.8 17.7C21.5 17.6 21.4 17.4 21.4 16.9C21.4 16.6 21.6 16.4 21.9 16.4C22.2 16.3 22.4 16.3 22.7 16.4C22.9 16.5 23.1 16.6 23.1 16.9C23.1 17 23.2 17.1 23 17.2C22.9 17.2 22.7 17.2 22.7 17C22.7 16.9 22.6 16.8 22.4 16.8C22.3 16.8 22.2 16.8 22.1 16.8C21.9 16.8 21.8 16.9 21.8 17.1C21.8 17.3 21.8 17.5 22.1 17.5C22.3 17.6 22.6 17.6 22.8 17.7C23.1 17.8 23.2 18.1 23.2 18.5C23.2 18.8 23 19 22.7 19.1C22.6 18.9 22.3 18.9 22 18.9C22.1 18.9 22.1 18.9 22 18.9Z" fill="#EF9D00"/>
<path d="M11.6 18.9C11.2 18.7 11.1 18.4 11.2 18C11.2 17.6 11.2 17.2 11.2 16.8C11.2 16.5 11.4 16.3 11.7 16.2C12 16.2 12.2 16.2 12.5 16.2C12.8 16.3 13 16.6 12.9 16.9C12.9 17 12.8 17 12.7 17C12.6 17 12.5 17 12.5 16.9C12.5 16.8 12.5 16.6 12.3 16.5C12.1 16.4 11.9 16.4 11.7 16.5C11.6 16.5 11.6 16.6 11.6 16.8C11.6 17.2 11.6 17.7 11.6 18.1C11.6 18.3 11.7 18.4 11.9 18.4C12 18.4 12.1 18.4 12.1 18.4C12.2 18.4 12.4 18.4 12.4 18.2C12.5 18 12.5 17.9 12.4 17.7C12.4 17.6 12.2 17.6 12.1 17.6C12 17.6 11.9 17.6 11.9 17.4C11.9 17.2 12 17.2 12.1 17.2C12.7 17.2 12.7 17.2 12.7 17.8C12.7 18.3 12.6 18.5 12.2 18.5C12.1 18.9 11.9 18.9 11.6 18.9Z" fill="#EF9C00"/>
<path d="M19.8 18.9C19.4 18.7 19.3 18.4 19.4 18C19.4 17.6 19.4 17.2 19.4 16.8C19.4 16.5 19.5 16.3 19.8 16.3C20 16.2 20.3 16.3 20.5 16.3C20.8 16.4 21 16.5 21 16.9C21 17 21.1 17.2 20.8 17.2C20.6 17.2 20.5 17.2 20.5 17C20.5 16.8 20.4 16.7 20.2 16.7C19.6 16.7 19.6 16.7 19.6 17.3C19.6 17.6 19.6 17.9 19.6 18.2C19.6 18.5 19.7 18.6 20 18.6C20.1 18.6 20.1 18.6 20.2 18.6C20.4 18.6 20.5 18.5 20.5 18.3C20.5 18.1 20.5 18 20.7 18C20.9 18 20.9 18.1 20.9 18.3C20.9 18.7 20.7 18.8 20.4 18.9C20.4 18.9 20.1 18.9 19.8 18.9C19.9 18.9 19.8 18.9 19.8 18.9Z" fill="#EF9D00"/>
<path d="M8.9 1.4C8.9 1.8 8.9 2.2 8.9 2.5C8.9 2.7 8.8 2.8 8.7 3C7.9 3.8 7.2 4.5 6.4 5.3C6.3 5.3 6.1 5.4 6.2 5.6C6.4 5.8 6.5 6 6.7 6C7.4 6 8.1 6 8.8 6C9.1 6 9.1 6.1 9.1 6.3C9.1 7.1 9.1 7.8 9.1 8.6C9.1 8.8 9 8.9 8.8 8.9C8.1 8.9 7.4 8.9 6.7 8.9C6.4 8.9 5.9 9.4 5.9 9.7C5.9 10.4 5.9 11.1 5.9 11.9C5.9 12.1 5.9 12.2 5.7 12.3C4.8 13.2 4 14 3.1 14.9C3 15 2.9 15 2.8 15C2 15 1.1 15 0.3 15C0.0999999 15 0 14.9 0 14.7C0 13.9 0 13 0 12.2C0 12.1 1.41561e-07 12 0.1 11.9C1 11 1.9 10.1 2.8 9.3C2.9 9.2 3 9.2 3.2 9.2C3.9 9.2 4.6 9.2 5.3 9.2C5.7 9.2 6.1 8.7 6.1 8.4C6.1 7.8 6.1 7.1 6.1 6.5C6.1 6.4 6 6.3 6 6.2C5.7 5.9 5.4 5.7 5 5.7C4.4 5.7 3.8 5.7 3.2 5.7C3.2 5.7 3.1 5.6 3.1 5.4C3.1 4.6 3.1 3.8 3.1 3C3.1 2.9 3.1 2.8 3.2 2.7C4.1 1.8 5 0.9 5.9 0.1C6 -3.72529e-08 6.1 0 6.2 0C7 0 7.8 0 8.6 0C8.8 0 8.9 0.0999999 8.9 0.3C8.9 0.6 8.9 1 8.9 1.4Z" fill="#EF9C00"/>
<path d="M12.8 10.9C13.5 10.1 14.8 10.2 15.4 11C15.9 10.3 16.7 10.3 17.4 10.4C18 10.5 18.4 11 18.4 11.7C18.4 12.9 18.4 14 18.4 15.2C18.4 15.4 18.3 15.4 18.2 15.4C18 15.4 17.9 15.4 17.7 15.4C17.5 15.4 17.4 15.3 17.4 15.1C17.4 14.1 17.4 13 17.4 12C17.4 11.4 17.2 11.2 16.6 11.2C16.3 11.2 16 11.2 15.8 11.4C15.7 11.6 15.7 11.9 15.7 12.2C15.7 13.2 15.7 14.1 15.7 15.1C15.7 15.4 15.6 15.4 15.4 15.4C14.7 15.4 14.7 15.4 14.7 14.8C14.7 13.9 14.7 13 14.7 12C14.7 11.4 14.5 11.1 13.8 11.1C13.7 11.1 13.6 11.1 13.5 11.1C13 11.1 12.7 11.4 12.7 11.9C12.7 12.9 12.7 14 12.7 15C12.7 15.2 12.6 15.3 12.4 15.3C11.7 15.3 11.7 15.3 11.7 14.6C11.7 13.2 11.7 11.9 11.7 10.5C11.7 10.2 11.7 10.2 12 10.2C12 10.2 12 10.2 12.1 10.2C12.8 10.4 12.8 10.4 12.8 10.9Z" fill="#012F5A"/>
<path d="M8.6 15.4C8.3 15.4 7.9 15.4 7.6 15.4C7.4 15.4 7.4 15.3 7.4 15.2C7.4 14.5 7.3 14.7 7.9 14.6C8.3 14.6 8.8 14.6 9.2 14.6C9.6 14.6 9.8 14.5 9.8 14.3C9.9 14 9.8 13.7 9.4 13.5C9 13.3 8.6 13.1 8.2 12.9C8.1 12.8 8 12.8 7.9 12.7C7.2 12.3 7.1 11.5 7.4 11C7.6 10.5 8.1 10.4 8.6 10.3C9.2 10.3 9.8 10.3 10.3 10.3C10.5 10.3 10.5 10.4 10.5 10.5C10.5 11.2 10.5 11.1 9.9 11.1C9.5 11.1 9.2 11.1 8.8 11.1C8.6 11.1 8.3 11.1 8.2 11.4C8.1 11.6 8.2 11.9 8.5 12C8.9 12.2 9.4 12.5 9.9 12.7C10.8 13.1 10.9 13.8 10.7 14.5C10.6 14.9 10.2 15.2 9.6 15.3C9.3 15.4 8.9 15.4 8.6 15.4Z" fill="#012F5A"/>
<path d="M29.4 12.7C29.4 13.1 29.4 13.5 29.4 13.9C29.4 14.4 29.6 14.6 30.1 14.6C30.2 14.6 30.2 14.6 30.3 14.6C30.7 14.6 30.7 14.6 30.7 15C30.7 15.4 30.7 15.4 30.3 15.4C30 15.4 29.8 15.4 29.5 15.4C28.8 15.2 28.4 14.7 28.4 13.9C28.4 13.1 28.4 12.2 28.4 11.4C28.4 11.2 28.3 11.1 28.1 11.1C27.6 11.1 27.6 11.1 27.6 10.6C27.6 10.3 27.6 10.3 27.9 10.3C28 10.3 28 10.3 28.1 10.3C28.3 10.3 28.3 10.2 28.3 10.1C28.3 9.89998 28.3 9.59998 28.3 9.39998C28.3 9.19998 28.4 9.19998 28.5 9.09998C29.2 8.99998 29.2 8.99998 29.2 9.79998C29.2 10.3 29.2 10.3 29.7 10.3C29.9 10.3 30 10.3 30.2 10.3C30.4 10.3 30.5 10.4 30.5 10.6C30.5 11.3 30.6 11.2 30 11.2C29.3 11.2 29.3 11.2 29.3 11.9C29.4 12.1 29.4 12.4 29.4 12.7Z" fill="#012F5A"/>
<path d="M25.8 10.9C26.2 10.3 26.7 10.3 27.2 10.4C27.5 10.5 27.3 10.8 27.4 11C27.4 11.2 27.3 11.2 27.2 11.2C27 11.2 26.9 11.2 26.7 11.2C26.1 11.2 25.8 11.5 25.8 12.1C25.8 13.1 25.8 14.1 25.8 15.1C25.8 15.3 25.7 15.4 25.5 15.4C24.9 15.4 24.9 15.4 24.9 14.8C24.9 13.4 24.9 12 24.9 10.7C24.9 10.5 25 10.3 25.2 10.4C25.2 10.4 25.2 10.4 25.3 10.4C25.7 10.4 25.7 10.4 25.8 10.9Z" fill="#012F5A"/>
<path d="M15.6 18.9C15.4 18.9 15.1 18.9 14.9 18.9C14.6 18.8 14.4 18.6 14.4 18.3C14.4 18.2 14.4 18.1 14.5 18.1C14.6 18.1 14.7 18.1 14.7 18.2C14.7 18.6 14.9 18.5 15.4 18.5C15.7 18.5 15.7 18.3 15.7 18.1C15.7 17.9 15.6 17.8 15.4 17.8C15.2 17.7 15 17.7 14.8 17.6C14.5 17.5 14.4 17.3 14.4 17.1C14.4 16.9 14.4 16.8 14.4 16.6C14.5 16.3 14.7 16.2 15 16.2C15.4 16.2 15.8 16.1 16 16.6C16.1 16.9 16 17 15.8 17C15.7 17 15.6 17 15.6 16.9C15.6 16.7 15.5 16.6 15.3 16.6C15.2 16.6 15.1 16.6 15 16.6C14.8 16.6 14.7 16.7 14.7 16.9C14.7 17.1 14.7 17.3 14.9 17.3C15.1 17.4 15.3 17.4 15.6 17.4C16 17.5 16.1 17.7 16.1 18.2C16.1 18.6 15.9 18.8 15.6 18.9Z" fill="#EF9D00"/>
<path d="M17.4 18.9C17.3 18.9 17.2 18.9 17.1 18.9C17 18.8 17.1 18.7 17.1 18.7C17.1 18.1 17.1 17.5 17.1 17C17.1 16.8 17 16.7 16.8 16.7C16.7 16.7 16.7 16.7 16.6 16.7C16.5 16.7 16.5 16.6 16.5 16.5C16.5 16.4 16.5 16.3 16.6 16.3C17.1 16.3 17.5 16.3 18 16.3C18.1 16.3 18.1 16.4 18.1 16.5C18.1 16.6 18.1 16.7 18 16.7C17.8 16.7 17.6 16.6 17.5 16.7C17.4 16.8 17.5 17.1 17.5 17.2C17.5 17.7 17.5 18.1 17.5 18.6C17.4 18.7 17.4 18.8 17.4 18.9Z" fill="#EF9D02"/>
<path d="M8.50001 18.9C8.00001 18.9 7.60001 18.9 7.10001 18.9C7.10001 18.1 7.10001 17.3 7.10001 16.5C7.10001 16.4 7.10001 16.3 7.30001 16.3C7.40001 16.3 7.50001 16.3 7.50001 16.5C7.50001 17.1 7.50001 17.7 7.50001 18.3C7.50001 18.5 7.60001 18.6 7.80001 18.6C8.00001 18.6 8.20001 18.6 8.40001 18.6C8.60001 18.6 8.60001 18.6 8.50001 18.9Z" fill="#EF9C00"/>
<path d="M13.8 18.9C13.7 18.9 13.6 18.9 13.5 18.9C13.4 18.9 13.5 18.8 13.5 18.7C13.5 18 13.5 17.2 13.5 16.5C13.5 16.3 13.5 16.3 13.7 16.3C13.9 16.3 13.9 16.4 13.9 16.5C13.9 17.2 13.9 18 13.9 18.7C13.8 18.8 13.8 18.8 13.8 18.9Z" fill="#EF9E03"/>
<path d="M18.8 18.9C18.7 18.9 18.6 18.9 18.4 18.9C18.4 18.1 18.4 17.3 18.4 16.5C18.4 16.4 18.5 16.3 18.6 16.3C18.7 16.3 18.8 16.3 18.8 16.5C18.8 17.3 18.8 18.1 18.8 18.9Z" fill="#EF9C00"/>
<path d="M10.6 17.3C10.6 16.4 10.5 16.3 9.59999 16.3C9.09999 16.3 8.89999 16.5 8.89999 17C8.89999 17.4 8.89999 17.7 8.89999 18.1C8.89999 18.5 8.99999 18.8 9.39999 19C9.39999 19 9.39999 19 9.49999 19C9.69999 18.9 9.99999 19 10.2 19C10.6 18.9 10.7 18.8 10.7 18.4C10.7 17.9 10.6 17.6 10.6 17.3ZM10.2 17.3C10.2 17.6 10.2 18 10.2 18.3C10.2 18.5 10.1 18.6 9.89999 18.6C9.79999 18.6 9.69999 18.6 9.69999 18.6C9.39999 18.6 9.29999 18.5 9.29999 18.2C9.29999 18 9.29999 17.8 9.29999 17.6C9.29999 17.4 9.29999 17.2 9.29999 16.9C9.29999 16.7 9.39999 16.6 9.59999 16.6C10.3 16.7 10.3 16.6 10.2 17.3Z" fill="#EF9D01"/>
<path d="M23.6 10.6C23.6 10.4 23.5 10.4 23.4 10.4C22.6 10.4 21.8 10.4 21.1 10.4C20.2 10.4 19.7 11 19.7 11.8C19.7 12.6 19.7 13.4 19.7 14.1C19.7 14.8 20.1 15.3 20.8 15.4C21.1 15.5 21.3 15.4 21.6 15.4C22 15.4 22.4 15.3 22.7 14.9C22.8 15.4 22.8 15.4 23.3 15.4C23.4 15.4 23.4 15.4 23.5 15.4C23.7 15.4 23.7 15.3 23.7 15.2C23.6 13.7 23.6 12.1 23.6 10.6ZM22.6 14C22.5 14.4 22.3 14.6 21.9 14.6C21.7 14.6 21.5 14.6 21.3 14.6C20.9 14.6 20.6 14.4 20.6 14C20.6 13.3 20.6 12.6 20.6 11.9C20.6 11.5 20.8 11.3 21.3 11.3C21.7 11.3 22.1 11.3 22.5 11.3C22.7 11.3 22.7 11.4 22.7 11.5C22.7 11.9 22.7 12.3 22.7 12.7C22.6 13 22.6 13.5 22.6 14Z" fill="#012F5A"/>
</g>
<defs>
<clipPath id="clip0_1_275">
<rect width="40" height="20" fill="white"/>
</clipPath>
</defs>
</svg>
