<svg width="144" height="24" viewBox="0 0 144 24" fill="none" xmlns="http://www.w3.org/2000/svg">
    <path d="M69.684 5c2.97 0 5.08 1.645 5.207 4.081l.006.198.004.477h-3.724l-.038-.432c-.052-.614-.671-1.079-1.562-1.079-.791 0-1.33.378-1.33.806 0 .343.247.604.94.834l.156.05 1.313.382c2.254.663 3.32 1.823 3.32 3.716 0 2.745-2.321 4.54-5.72 4.54-3.048 0-5.151-1.549-5.32-4.034l-.01-.204-.011-.484h3.808l.05.415c.073.593.769 1.055 1.69 1.055.965 0 1.546-.385 1.546-.873 0-.306-.23-.513-1.073-.787l-.177-.057-1.303-.389c-2.036-.608-3.217-1.974-3.217-3.807C64.24 6.848 66.576 5 69.684 5zm11.682 0c2.97 0 5.082 1.645 5.207 4.081l.007.198.003.477h-3.724l-.038-.432c-.052-.614-.671-1.079-1.562-1.079-.791 0-1.33.378-1.33.806 0 .343.248.604.94.834l.156.05 1.313.382c2.255.663 3.32 1.823 3.32 3.716 0 2.745-2.321 4.54-5.72 4.54-3.048 0-5.151-1.549-5.32-4.034l-.009-.204-.012-.484h3.808l.05.415c.073.593.769 1.055 1.692 1.055.963 0 1.544-.385 1.544-.873 0-.306-.23-.513-1.072-.787l-.177-.057-1.303-.389c-2.036-.608-3.219-1.974-3.219-3.807C75.92 6.848 78.258 5 81.366 5zm-45.633.324c2.825 0 4.657 1.606 4.657 4.084 0 3.174-2.226 5.234-5.621 5.326l-.24.004h-1.626l-.748 3.511h-4.004l2.732-12.925h4.85zm-.631 3.286h-.904l-.614 2.882h.937c1.138 0 1.861-.714 1.861-1.81 0-.69-.348-1.03-1.128-1.069l-.151-.003h-.001zM17.039 5.324h4.447l1.444 3.492 2.585-3.492h4.65l-5.686 6.653 2.818 6.273h-4.418l-1.492-3.395-2.678 3.394H14.17l5.555-6.703-2.686-6.222zm-14.17 0h2.557l2.994 6.222-5.771 6.703H0l5.555-6.702-2.686-6.223zm4.723 0h2.558l2.993 6.222-5.77 6.703h-2.65l5.555-6.703-2.686-6.222zm4.724 0h2.557l2.994 6.222-5.771 6.703h-2.65l5.556-6.703-2.686-6.222zm42.322 0h9.18l-.736 3.394h-5.154l-.305 1.446h4.848l-.673 3.187h-4.85l-.321 1.504h5.164l-.724 3.394H51.89l2.748-12.925zm-6.674 0c2.494 0 4.316 1.655 4.316 3.95a4.726 4.726 0 0 1-2.358 4.078l-.193.107-.158.077 1.687 4.714h-4.286l-1.354-4.194h-.935l-.896 4.194h-4.013l2.75-12.927h5.44v.001zm-.856 3.244h-1.255l-.517 2.393h1.233c1.054 0 1.703-.575 1.703-1.428 0-.604-.319-.92-1.01-.96l-.154-.005z" fill="#0A0A0C"/>
    <path d="M126.784 5c2.969 0 5.081 1.645 5.208 4.081l.005.198.003.477h-3.724l-.037-.432c-.053-.614-.672-1.079-1.563-1.079-.791 0-1.329.378-1.329.806 0 .343.247.604.941.834l.154.05 1.314.382c2.255.663 3.319 1.823 3.319 3.716 0 2.745-2.321 4.54-5.719 4.54-3.047 0-5.152-1.549-5.32-4.034l-.01-.204-.012-.484h3.809l.05.415c.073.593.768 1.055 1.691 1.055.963 0 1.544-.385 1.544-.873 0-.306-.23-.513-1.072-.787l-.176-.057-1.304-.389c-2.036-.608-3.218-1.974-3.218-3.807 0-2.56 2.337-4.408 5.446-4.408zm-32.307.324c2.301 0 3.935 1.212 3.935 3.038 0 1.322-.71 2.474-1.793 3.086l-.196.102.134.085a2.74 2.74 0 0 1 1.235 1.987l.017.195.005.175c0 2.423-1.994 4.162-4.757 4.253l-.232.004h-6.761l2.75-12.925h5.663zm-1.843 7.611h-1.428l-.456 2.152h1.452l.163-.004c.903-.056 1.473-.58 1.473-1.316 0-.497-.333-.79-1.045-.827l-.16-.005zm-.441-4.59-.388 1.794h1.153l.152-.005c.797-.052 1.31-.514 1.31-1.124 0-.403-.259-.632-.86-.662l-.146-.004h-1.221zm19.545-3.021h9.18l-.736 3.394h-5.154l-.307 1.446h4.849l-.673 3.187h-4.85l-.321 1.504 5.165.001-.726 3.393h-9.177l2.75-12.925zm-10.81 0h9.18l-.737 3.394h-5.154l-.306 1.446h4.849l-.674 3.187h-4.85l-.321 1.504 5.165.001-.725 3.393h-9.177l2.75-12.925z" fill="#F36B00"/>
</svg>
