<svg width="24" height="24" viewBox="0 0 24 24" fill="none" xmlns="http://www.w3.org/2000/svg">
<g clip-path="url(#clip0_1_87234)">
<rect width="24" height="24" rx="12" fill="#B02925"/>
<path d="M4.66629 8.8909C8.12165 8.89066 11.577 8.8909 15.0325 8.89082C15.473 8.89146 15.9136 8.88946 16.354 8.89178L16.364 8.89369C16.027 9.13253 15.6911 9.3732 15.3565 9.61547C14.859 9.97695 14.36 10.3363 13.8603 10.6946C13.6095 10.8721 13.3581 11.0487 13.1051 11.223C12.987 11.3014 12.8696 11.3808 12.7517 11.4594C12.2215 11.8077 11.6763 12.1374 11.0961 12.3962C10.7849 12.5339 10.4593 12.6477 10.1203 12.6902C9.92892 12.7122 9.73131 12.7201 9.54423 12.6661C9.40348 12.626 9.27349 12.5526 9.16145 12.4592C9.05595 12.3734 8.97006 12.2674 8.87788 12.1683C8.66392 11.9256 8.45004 11.6825 8.22317 11.4518C7.8297 11.0578 7.38544 10.7148 6.90514 10.4333C6.88329 10.4204 6.8612 10.4041 6.83464 10.4045C6.50131 10.3938 6.16797 10.4104 5.83544 10.4318C5.88791 10.4519 5.94341 10.4626 5.99652 10.4809C6.28376 10.5741 6.55258 10.7155 6.81048 10.8708C7.04366 11.0133 7.26798 11.1699 7.48409 11.337C7.65506 11.4645 7.81391 11.6073 7.97014 11.7522C8.12253 11.8979 8.26998 12.0493 8.40307 12.213C8.58266 12.4323 8.76129 12.6612 9.00188 12.8176C9.14917 12.9176 9.31799 12.9837 9.49183 13.0203C9.65125 13.0565 9.81592 13.0565 9.97844 13.0489C10.1755 13.0344 10.3703 12.9948 10.5591 12.9369C10.8403 12.8506 11.111 12.7331 11.3743 12.6026C11.9198 12.3262 12.4346 11.9937 12.934 11.6421C13.7064 11.1043 14.4569 10.5361 15.2059 9.96658C15.6822 9.60789 16.1531 9.24186 16.6354 8.89114C16.9443 8.89034 17.2531 8.8909 17.5621 8.89098L17.5534 8.89856C17.4009 8.99848 17.2506 9.10191 17.1007 9.20597C16.0916 9.90079 15.1108 10.6356 14.1121 11.3453C13.8705 11.5196 13.6246 11.6879 13.3794 11.857C12.8757 12.2013 12.3615 12.5316 11.8238 12.8205C11.5364 12.9764 11.2402 13.117 10.9336 13.2312C10.596 13.356 10.2423 13.4483 9.88123 13.4625C9.56855 13.476 9.25164 13.4174 8.96871 13.2826C8.69095 13.1451 8.4707 12.9175 8.28314 12.6753C8.19151 12.5617 8.11049 12.44 8.01384 12.3305C7.86782 12.161 7.71136 12.0004 7.54557 11.8502C7.13106 11.4708 6.65785 11.1608 6.16335 10.8962C5.86 10.7357 5.54652 10.593 5.22148 10.4821C5.1883 10.4716 5.15337 10.4817 5.11956 10.4821C4.98479 10.4931 4.84939 10.4999 4.71533 10.5183C4.69819 10.5205 4.68096 10.5214 4.66382 10.5225C4.66605 10.0589 4.66414 9.59537 4.66478 9.13189C4.66565 9.05159 4.66294 8.97112 4.66629 8.8909Z" fill="white"/>
<path d="M17.0215 9.502C17.2825 9.31085 17.544 9.1201 17.8104 8.93652C17.8105 9.12688 17.8106 9.31715 17.8104 9.5075C17.8042 9.51268 17.7977 9.51755 17.7915 9.52225C16.7647 10.214 15.7804 10.9658 14.7768 11.6903C14.5281 11.8735 14.2743 12.0497 14.0223 12.2285C13.5471 12.5635 13.0656 12.8902 12.5677 13.1909C12.2947 13.3549 12.0182 13.5132 11.7336 13.6562C11.4306 13.8075 11.1212 13.9484 10.7978 14.0509C10.4396 14.165 10.0672 14.2466 9.68986 14.2491C9.37231 14.2564 9.05349 14.201 8.75748 14.0858C8.47127 13.9716 8.20811 13.8007 7.9857 13.5876C7.87916 13.4859 7.78937 13.3687 7.69782 13.2538C7.61385 13.1464 7.53642 13.0338 7.44551 12.9319C7.14112 12.5704 6.78051 12.2582 6.38952 11.9937C5.88043 11.6486 5.31272 11.3999 4.73297 11.1999C4.70961 11.1924 4.68552 11.186 4.66455 11.1729C4.66543 11.0585 4.66503 10.944 4.66463 10.8296C4.91344 10.8979 5.15698 10.9849 5.39709 11.0791C5.72277 11.2085 6.04016 11.3584 6.34821 11.5255C6.93657 11.8505 7.46831 12.2813 7.89543 12.8013C7.98442 12.9137 8.07382 13.0258 8.16616 13.1354C8.35038 13.3413 8.57095 13.5162 8.81896 13.6389C8.97255 13.7107 9.13379 13.7675 9.30022 13.8013C9.50429 13.8437 9.71394 13.8561 9.92192 13.8434C10.1209 13.8322 10.3173 13.7944 10.5104 13.7463C10.8344 13.6633 11.1468 13.5397 11.4479 13.3948C12.0187 13.1204 12.5544 12.7797 13.0774 12.424C13.5618 12.081 14.0428 11.7331 14.5176 11.3767L14.5273 11.3928C14.5262 11.3869 14.525 11.381 14.524 11.3753C14.6253 11.2949 14.7311 11.2203 14.8333 11.1413C15.3313 10.7675 15.8277 10.3918 16.3262 10.0188C16.5582 9.84697 16.788 9.67193 17.0215 9.502Z" fill="white"/>
<path d="M16.3847 10.8986C16.855 10.5431 17.3305 10.1946 17.8105 9.85254C17.8099 12.0303 17.8103 14.2081 17.8104 16.386C13.4288 16.3862 9.04726 16.3859 4.66566 16.3861C4.66319 14.8509 4.66638 13.3156 4.66406 11.7805C4.71119 11.7872 4.75497 11.8069 4.80051 11.82C5.33727 12.0036 5.85434 12.2502 6.323 12.571C6.4939 12.6896 6.65753 12.8191 6.81049 12.9601C6.93688 13.07 7.05339 13.1908 7.16424 13.3163C7.23728 13.3929 7.29741 13.4804 7.36519 13.5615C7.44007 13.6513 7.51089 13.7446 7.59119 13.8298C7.79598 14.0494 8.03402 14.2391 8.29773 14.3833C8.57357 14.5337 8.87652 14.6333 9.18713 14.6798C9.38729 14.7128 9.59112 14.7164 9.79344 14.7065C9.98977 14.6959 10.1852 14.6699 10.3776 14.629C10.6822 14.5644 10.9769 14.4608 11.2648 14.3435C11.721 14.1475 12.1604 13.9133 12.5815 13.6507C12.848 13.487 13.1072 13.312 13.3657 13.136C13.6137 12.9677 13.8564 12.7916 14.0989 12.6156C14.328 12.4463 14.5585 12.2789 14.7858 12.1073C15.3207 11.7069 15.8514 11.3012 16.3847 10.8986Z" fill="white"/>
<path d="M21.5516 6.75102C21.5685 6.75285 21.5896 6.7452 21.6045 6.75556C21.592 6.76003 21.5782 6.76011 21.5657 6.76099C21.5664 6.76426 21.5679 6.7708 21.5687 6.77406C21.5528 6.7771 21.5323 6.77303 21.5238 6.79009C21.5112 6.79288 21.499 6.7956 21.4869 6.79815L21.488 6.80604C21.4749 6.80844 21.4589 6.80812 21.4521 6.82191C21.4402 6.82526 21.4249 6.82335 21.4209 6.83762C21.4068 6.84025 21.3935 6.84456 21.3831 6.85429C21.3684 6.85796 21.3537 6.86107 21.3393 6.86386C21.3378 6.881 21.3202 6.87741 21.3084 6.87989C21.3036 6.89169 21.2899 6.89193 21.2804 6.89608L21.281 6.90285C21.2682 6.90517 21.2556 6.9078 21.2434 6.91067C21.2355 6.92343 21.2199 6.92343 21.2073 6.92662L21.2098 6.93427C21.1965 6.93682 21.1819 6.93754 21.1729 6.94871C21.1386 6.96458 21.102 6.97773 21.0706 6.99815C21.0616 7.00134 21.0531 7.00445 21.0448 7.00772C21.0324 7.01601 21.0182 7.02048 21.0063 7.02885C20.9949 7.03372 20.9821 7.03587 20.9737 7.0452C20.9617 7.04807 20.9485 7.04903 20.9425 7.06115C20.9196 7.0688 20.8968 7.07765 20.8777 7.09273C20.867 7.09751 20.8528 7.09807 20.848 7.10995C20.8357 7.11298 20.8188 7.11003 20.8151 7.12558C20.8045 7.12726 20.7927 7.12734 20.7906 7.14033C20.7776 7.14337 20.7652 7.14632 20.7528 7.14911L20.7549 7.1578C20.7425 7.16131 20.723 7.15628 20.7202 7.17279C20.685 7.18077 20.6573 7.20589 20.6229 7.21577C20.6181 7.22766 20.6032 7.22598 20.5938 7.23037L20.5958 7.23691C20.5615 7.24624 20.5345 7.27175 20.4995 7.27933L20.5003 7.28507C20.4799 7.29137 20.463 7.30533 20.4423 7.31019L20.4443 7.31697C20.4339 7.3196 20.4239 7.32247 20.4142 7.32558C20.407 7.33611 20.3947 7.33922 20.3838 7.34329C20.3635 7.35764 20.3411 7.36968 20.3168 7.37487L20.3173 7.37997C20.3079 7.3826 20.301 7.38786 20.2966 7.39576C20.2847 7.39911 20.2721 7.40142 20.2638 7.41115C20.254 7.41474 20.2445 7.41833 20.2351 7.42176L20.2367 7.42885C20.2242 7.43172 20.2119 7.43483 20.2 7.43818C20.1956 7.44855 20.1851 7.45158 20.176 7.45509C20.1669 7.4633 20.1557 7.46769 20.1447 7.47168C20.1193 7.49105 20.089 7.50373 20.0608 7.51857L20.0614 7.52471C20.0513 7.5275 20.0415 7.53045 20.032 7.5334C20.024 7.54401 20.0112 7.54712 19.9994 7.55038C19.9975 7.56322 19.9854 7.56322 19.9756 7.5653C19.967 7.57439 19.9553 7.57861 19.9441 7.58228C19.9347 7.58954 19.9253 7.59672 19.9161 7.60381C19.9065 7.60788 19.8973 7.61227 19.8893 7.61825C19.8728 7.62766 19.8556 7.63571 19.8398 7.64576C19.8317 7.65493 19.8195 7.65772 19.809 7.66195C19.8009 7.66944 19.7909 7.67351 19.7811 7.67718L19.7812 7.68284C19.7712 7.68739 19.7571 7.68707 19.7537 7.69983C19.7484 7.70047 19.7381 7.70182 19.7328 7.70246C19.7328 7.70549 19.7329 7.71155 19.7329 7.71466C19.7199 7.71825 19.7 7.71458 19.6996 7.73276C19.6948 7.73316 19.6851 7.73404 19.6803 7.73444C19.6661 7.75661 19.6345 7.75876 19.6142 7.77415C19.6114 7.77742 19.6059 7.7838 19.6031 7.78699C19.5988 7.78731 19.5902 7.78787 19.5858 7.78819C19.5825 7.8015 19.5693 7.8023 19.5589 7.80541C19.5559 7.8086 19.5501 7.81498 19.5472 7.81817C19.5429 7.81873 19.5343 7.81984 19.5301 7.8204C19.5192 7.83779 19.4984 7.84401 19.4815 7.85342C19.4727 7.86211 19.4609 7.86594 19.4497 7.86953C19.4465 7.88125 19.4342 7.88189 19.4249 7.88508C19.4096 7.89991 19.3915 7.91115 19.3716 7.91825C19.365 7.92407 19.3579 7.92909 19.3506 7.9334L19.3504 7.93811C19.3309 7.94313 19.315 7.95565 19.2981 7.96554C19.2878 7.97383 19.2758 7.97878 19.2631 7.98077C19.2633 7.9838 19.2636 7.98986 19.2637 7.99289C19.2585 7.99361 19.2481 7.99512 19.2429 7.99584C19.2231 8.01721 19.1948 8.03093 19.1693 8.04528C19.1519 8.05836 19.1285 8.06434 19.1162 8.08316C19.111 8.08364 19.1008 8.0846 19.0956 8.08508C19.0954 8.08827 19.0952 8.09457 19.0951 8.09776C19.0815 8.09911 19.0693 8.10342 19.0613 8.11458C19.055 8.11929 19.0489 8.12391 19.0429 8.12862C19.0315 8.13205 19.0194 8.13428 19.0118 8.14393C19.0039 8.14975 18.9962 8.15549 18.9888 8.16123C18.9803 8.1649 18.9719 8.16865 18.9641 8.17256C18.9484 8.18914 18.9282 8.20198 18.9051 8.20422C18.9051 8.20733 18.905 8.21355 18.9049 8.21666C18.9006 8.21674 18.892 8.21698 18.8877 8.21706L18.8879 8.22479C18.8783 8.22958 18.8642 8.23037 18.8614 8.24297C18.8577 8.24305 18.8504 8.24329 18.8468 8.24345C18.8471 8.24672 18.8476 8.25342 18.8478 8.25669C18.8364 8.25908 18.8251 8.26163 18.8142 8.26442C18.8052 8.28603 18.7774 8.28572 18.7646 8.3039C18.7533 8.30828 18.7421 8.31291 18.7346 8.3224C18.7247 8.32567 18.7149 8.32886 18.7055 8.33189C18.7056 8.33508 18.7058 8.34146 18.7059 8.34457C18.7005 8.34497 18.6897 8.34584 18.6844 8.34624C18.6676 8.37184 18.6316 8.37591 18.613 8.40063C18.6093 8.40182 18.602 8.40414 18.5982 8.40533C18.5864 8.41323 18.5745 8.42112 18.5649 8.43141C18.5437 8.43715 18.5247 8.44824 18.5101 8.4645C18.4998 8.4669 18.4888 8.46841 18.4871 8.48045C18.4763 8.48301 18.4648 8.48484 18.4618 8.49728C18.4585 8.4976 18.4518 8.49832 18.4484 8.49864C18.4487 8.50183 18.4491 8.50828 18.4493 8.51147C18.4368 8.51419 18.4244 8.51785 18.4129 8.52224C18.4056 8.52894 18.3976 8.53444 18.3897 8.53986C18.3822 8.54999 18.3697 8.55278 18.3588 8.55661C18.3497 8.57088 18.3358 8.57982 18.3206 8.58604L18.3231 8.59289C18.3122 8.59561 18.2985 8.59449 18.2951 8.60733C18.2754 8.61307 18.2634 8.63245 18.2421 8.6338L18.2424 8.64002C18.2325 8.64186 18.2259 8.64736 18.2227 8.65645C18.2192 8.65661 18.2121 8.65701 18.2085 8.65725C18.2089 8.661 18.2097 8.66857 18.2101 8.6724C18.2008 8.67296 18.1916 8.67368 18.1826 8.67439C18.1799 8.67766 18.1743 8.68428 18.1716 8.68763C18.1457 8.70199 18.124 8.72352 18.0952 8.73213C18.0868 8.7409 18.0787 8.74983 18.071 8.759C18.0666 8.75932 18.0578 8.76012 18.0534 8.76044C18.0515 8.77216 18.0405 8.77503 18.0314 8.7787C18.0249 8.7866 18.0157 8.7909 18.0072 8.79537C18.0022 8.80127 17.9968 8.80653 17.9908 8.81108C17.9822 8.81594 17.974 8.82105 17.9661 8.82623C17.9561 8.83317 17.9463 8.84003 17.9367 8.84712C17.9235 8.85757 17.9098 8.86754 17.8945 8.87432C17.8785 8.8858 17.8634 8.89824 17.8484 8.9106C17.8339 8.91666 17.8218 8.92607 17.8102 8.93612C17.5438 9.11969 17.2823 9.31044 17.0213 9.50159C16.7878 9.67153 16.5581 9.84657 16.326 10.0184C15.8275 10.3914 15.3311 10.7671 14.8332 11.1409C14.731 11.2199 14.6251 11.2945 14.5239 11.3749C14.5249 11.3806 14.5261 11.3865 14.5271 11.3924L14.5174 11.3763C14.0427 11.7327 13.5617 12.0806 13.0773 12.4236C12.5542 12.7793 12.0186 13.12 11.4478 13.3944C11.1466 13.5393 10.8343 13.6629 10.5102 13.7459C10.3171 13.794 10.1207 13.8318 9.92176 13.843C9.71378 13.8557 9.50413 13.8433 9.30007 13.8009C9.13364 13.7671 8.97239 13.7103 8.8188 13.6385C8.5708 13.5158 8.35022 13.3408 8.16601 13.135C8.07366 13.0254 7.98427 12.9133 7.89527 12.8009C7.46816 12.2809 6.93642 11.8501 6.34806 11.525C6.04 11.358 5.72261 11.2081 5.39693 11.0787C5.15682 10.9845 4.91328 10.8975 4.66447 10.8292C4.66128 10.8286 4.6549 10.8272 4.65171 10.8266L4.65363 10.819C4.62715 10.8172 4.601 10.8127 4.57484 10.8092L4.5758 10.801C4.55602 10.797 4.53409 10.7985 4.51694 10.7866C4.49278 10.7809 4.46814 10.7787 4.44358 10.7763C4.436 10.7589 4.41575 10.7654 4.40092 10.763C4.38114 10.7424 4.34581 10.7512 4.3195 10.7455L4.32077 10.7371C4.30395 10.7347 4.28704 10.7325 4.27005 10.7318C4.26989 10.7294 4.26958 10.7246 4.26942 10.7222C4.24996 10.7185 4.22197 10.7296 4.21024 10.7087C4.17085 10.7066 4.13186 10.6998 4.09254 10.6972C4.07029 10.6742 4.03114 10.6939 4.00602 10.6747C3.97827 10.6709 3.95035 10.6689 3.9226 10.6652C3.89294 10.6508 3.85857 10.6545 3.82715 10.6466C3.8549 10.6408 3.88289 10.6359 3.91128 10.634L3.91176 10.6263C3.93911 10.6246 3.96638 10.6215 3.99374 10.62L3.99182 10.6114C4.03441 10.612 4.07627 10.6027 4.11878 10.6024V10.5942C4.15123 10.5943 4.18313 10.5877 4.21551 10.5867L4.21415 10.5781C4.25155 10.5788 4.28847 10.5711 4.32588 10.5703L4.32627 10.5622C4.36112 10.5615 4.39565 10.5554 4.43058 10.555L4.43026 10.5469C4.46288 10.5482 4.49486 10.54 4.52747 10.5407L4.52604 10.5316C4.57532 10.5339 4.62404 10.524 4.67325 10.5242C4.68752 10.5241 4.70156 10.5212 4.71543 10.5182C4.84948 10.4998 4.98489 10.4931 5.11966 10.482C5.15347 10.4816 5.1884 10.4715 5.22157 10.4821C5.54662 10.5929 5.86009 10.7356 6.16345 10.8961C6.65795 11.1607 7.13115 11.4707 7.54567 11.8501C7.71146 12.0003 7.86792 12.1609 8.01393 12.3304C8.11058 12.4399 8.19161 12.5617 8.28323 12.6752C8.47079 12.9174 8.69105 13.1451 8.9688 13.2825C9.25174 13.4173 9.56865 13.4759 9.88133 13.4624C10.2424 13.4483 10.5961 13.3559 10.9337 13.2311C11.2403 13.1169 11.5365 12.9763 11.8239 12.8204C12.3616 12.5315 12.8758 12.2012 13.3795 11.8569C13.6247 11.6878 13.8706 11.5195 14.1122 11.3452C15.1109 10.6356 16.0916 9.90072 17.1008 9.2059C17.2507 9.10183 17.401 8.9984 17.5535 8.89848C17.5591 8.89521 17.5638 8.89082 17.5677 8.8854C17.5772 8.88141 17.586 8.87559 17.5935 8.8681C17.5973 8.8669 17.6049 8.86459 17.6087 8.86347C17.6279 8.84194 17.6561 8.8299 17.6803 8.81443C17.6879 8.80876 17.6956 8.80318 17.7039 8.79776C17.7186 8.7854 17.7349 8.77511 17.7524 8.76682C17.7651 8.75693 17.7795 8.74935 17.7928 8.73994C17.7964 8.73875 17.8035 8.73644 17.807 8.73532C17.8165 8.71865 17.8352 8.71187 17.8476 8.69792C17.8513 8.69696 17.8589 8.69497 17.8626 8.69393C17.874 8.68532 17.8861 8.67711 17.8955 8.66586C17.8999 8.6653 17.9086 8.66411 17.913 8.66355C17.9158 8.65956 17.9213 8.65151 17.924 8.64744C17.9365 8.64329 17.9539 8.64329 17.9583 8.62758C17.9634 8.62687 17.9738 8.62551 17.979 8.62479C17.9788 8.62144 17.9787 8.61482 17.9786 8.61155C17.9835 8.61068 17.9935 8.60892 17.9985 8.60805C18.0039 8.59951 18.0128 8.59489 18.0216 8.58994C18.0295 8.5842 18.0382 8.58006 18.0476 8.57607C18.0505 8.56443 18.0614 8.56315 18.0717 8.56084C18.0755 8.55031 18.0856 8.54744 18.0953 8.54393C18.1027 8.53803 18.1102 8.53213 18.1179 8.52607C18.1256 8.52025 18.1342 8.51626 18.1433 8.51211C18.1485 8.50103 18.1608 8.49983 18.1715 8.49648C18.174 8.49289 18.1788 8.48588 18.1812 8.48229C18.1865 8.48213 18.1969 8.48181 18.2022 8.48165C18.2021 8.47814 18.2019 8.47104 18.2017 8.46753C18.2071 8.46714 18.2179 8.46618 18.2233 8.4657C18.2245 8.45214 18.2362 8.45071 18.2473 8.44864C18.2493 8.43627 18.2605 8.43516 18.271 8.43308C18.2739 8.42144 18.2867 8.42088 18.2958 8.4165C18.3086 8.39082 18.3439 8.39616 18.3569 8.37232C18.3621 8.3716 18.3724 8.37017 18.3775 8.36945C18.3774 8.36626 18.3772 8.35988 18.3771 8.35669C18.3824 8.35597 18.393 8.35446 18.3984 8.35374C18.4082 8.3358 18.4296 8.33037 18.4461 8.32017C18.4538 8.3145 18.4619 8.30916 18.4704 8.30398C18.4988 8.29098 18.5208 8.26618 18.5515 8.25804C18.5547 8.24895 18.5613 8.24361 18.5711 8.24194L18.5704 8.23603C18.5826 8.23332 18.5949 8.22942 18.6055 8.22192C18.6108 8.2161 18.6162 8.21028 18.6217 8.20438C18.6289 8.20262 18.6365 8.20087 18.6443 8.19911C18.6604 8.18125 18.6861 8.17487 18.7004 8.15541C18.7059 8.15501 18.7168 8.15422 18.7222 8.15382C18.7218 8.15031 18.721 8.14329 18.7206 8.13978C18.736 8.13635 18.7516 8.1326 18.7674 8.1291C18.7674 8.1267 18.7675 8.12184 18.7676 8.11945C18.7847 8.10326 18.8163 8.10677 18.8269 8.08444C18.8313 8.0838 18.84 8.0826 18.8444 8.08197C18.8478 8.06474 18.8734 8.072 18.8748 8.05302C18.8795 8.05246 18.889 8.05134 18.8937 8.05087C18.8945 8.0342 18.9119 8.03667 18.9242 8.0334C18.9305 8.02607 18.9371 8.01897 18.9441 8.01195C18.9635 8.00637 18.9804 7.99496 18.9962 7.98244C19.0077 7.96028 19.0413 7.96929 19.0507 7.94839C19.06 7.9456 19.072 7.9456 19.0752 7.9338C19.096 7.9275 19.1175 7.91905 19.1317 7.90158C19.1471 7.89799 19.1618 7.89138 19.1724 7.87894C19.1766 7.8783 19.185 7.87702 19.1893 7.8763C19.1957 7.86889 19.2032 7.86211 19.213 7.85852C19.2248 7.84401 19.2525 7.85071 19.2572 7.82989C19.2628 7.82941 19.274 7.82838 19.2795 7.8279L19.277 7.81841C19.282 7.81705 19.2921 7.81434 19.2971 7.81291L19.2949 7.80493C19.3077 7.80286 19.3212 7.80023 19.33 7.78938C19.3391 7.78611 19.3499 7.78404 19.3548 7.77399C19.3804 7.7645 19.407 7.75374 19.4272 7.73452C19.4321 7.73404 19.442 7.73308 19.447 7.7326C19.4469 7.72941 19.4467 7.72295 19.4466 7.71976C19.4518 7.71889 19.4622 7.71721 19.4673 7.71641C19.4777 7.709 19.4889 7.70238 19.4988 7.69377C19.509 7.68914 19.5247 7.69034 19.5291 7.67734C19.5408 7.67383 19.5546 7.67216 19.5616 7.66027C19.5669 7.6594 19.5773 7.65756 19.5826 7.65661C19.5824 7.65381 19.582 7.64815 19.5819 7.64536C19.6044 7.64209 19.6284 7.63276 19.6423 7.61362C19.6476 7.61314 19.6582 7.61219 19.6635 7.61171C19.6634 7.60844 19.6632 7.6019 19.663 7.59863C19.6906 7.60023 19.7095 7.57933 19.7344 7.57192L19.7331 7.56474C19.7441 7.56227 19.7554 7.55956 19.7669 7.55692L19.7648 7.54911C19.7774 7.54688 19.7906 7.54401 19.8003 7.53444C19.8191 7.52367 19.8402 7.51649 19.8571 7.5023C19.8674 7.49847 19.8781 7.49488 19.8891 7.49113C19.8963 7.48244 19.9071 7.47909 19.9177 7.47606L19.9166 7.46912C19.9276 7.46657 19.9386 7.46386 19.95 7.46123L19.9492 7.45437C19.9616 7.45126 19.9748 7.44815 19.9835 7.43755C19.9945 7.4342 20.0056 7.43101 20.0172 7.42774C20.0205 7.41458 20.0333 7.4145 20.0446 7.41243L20.0432 7.40445C20.0519 7.40222 20.0607 7.40007 20.0699 7.39783L20.0687 7.39058C20.0831 7.38747 20.0974 7.38364 20.112 7.37941C20.1171 7.36785 20.1292 7.36681 20.1403 7.36434L20.1394 7.35668C20.1504 7.35437 20.1614 7.35182 20.1729 7.34943L20.1714 7.34193C20.1934 7.33619 20.2169 7.32989 20.2323 7.31147C20.2546 7.30748 20.2751 7.29735 20.2941 7.28483L20.2927 7.27909C20.3059 7.2763 20.3193 7.27335 20.3329 7.2704L20.3323 7.26322C20.3564 7.25828 20.377 7.24384 20.4003 7.23579C20.4097 7.22837 20.4211 7.22375 20.4329 7.22032C20.4536 7.20644 20.4773 7.19823 20.5004 7.18914L20.4988 7.18212C20.511 7.17869 20.5307 7.18396 20.5344 7.16745C20.5484 7.16402 20.5663 7.16553 20.5746 7.15078C20.5857 7.14783 20.5969 7.14504 20.6085 7.14209C20.6182 7.131 20.6331 7.12909 20.6468 7.1247C20.6553 7.11466 20.6683 7.1121 20.6806 7.10828C20.6915 7.09879 20.7052 7.09456 20.7199 7.0936C20.736 7.07375 20.7644 7.07016 20.7876 7.06242L20.7863 7.05517C20.7996 7.05238 20.8132 7.0495 20.827 7.04663L20.8256 7.03818C20.839 7.03571 20.8527 7.03308 20.8666 7.03061L20.8654 7.02263C20.8783 7.02016 20.8932 7.01968 20.902 7.00772C20.928 7.00261 20.951 6.98858 20.9767 6.98156C20.9874 6.97207 21.001 6.96848 21.0149 6.96497C21.0246 6.95812 21.0355 6.95341 21.047 6.94934C21.0622 6.93962 21.0803 6.9373 21.098 6.93483L21.0974 6.92749C21.1095 6.9247 21.1217 6.92159 21.1343 6.9184C21.1448 6.90564 21.162 6.90548 21.1772 6.90222L21.1757 6.89528C21.2029 6.88826 21.2283 6.87542 21.2559 6.8692C21.2693 6.85931 21.2856 6.85604 21.302 6.85341C21.3127 6.84775 21.3249 6.8432 21.3324 6.83268C21.3498 6.82989 21.3674 6.82694 21.3851 6.82367L21.3846 6.81601C21.4134 6.81362 21.4375 6.79528 21.4662 6.79161L21.4634 6.78292C21.4772 6.78228 21.4908 6.78156 21.5051 6.78092C21.5049 6.77757 21.5046 6.77103 21.5044 6.76769C21.5208 6.76697 21.5372 6.76617 21.5541 6.76561C21.5535 6.76194 21.5522 6.75461 21.5516 6.75102Z" fill="#FEE801"/>
<path d="M22.9246 6.97593C22.9697 6.97314 23.0104 6.94986 23.0562 6.94922C23.0555 6.9686 23.0359 6.97171 23.0225 6.9792C23.0088 6.98638 22.9937 6.98965 22.9789 6.99148C22.9795 6.99388 22.9807 6.99874 22.9812 7.00121C22.9697 7.00321 22.9584 7.0052 22.9474 7.00711L22.9479 7.01493C22.9363 7.01724 22.9252 7.01979 22.9143 7.02227L22.916 7.02936C22.9035 7.03271 22.8851 7.03 22.8808 7.04515C22.863 7.04842 22.8453 7.05185 22.8279 7.0552L22.8299 7.06158C22.8168 7.06581 22.8045 7.07075 22.7935 7.07833C22.7835 7.07984 22.7739 7.0812 22.7645 7.08255C22.7647 7.0855 22.765 7.0914 22.7653 7.09443C22.7488 7.09539 22.7312 7.09499 22.7212 7.10991C22.7074 7.11325 22.6937 7.11644 22.6804 7.11971C22.6745 7.13415 22.6589 7.13223 22.6467 7.13431C22.6391 7.15026 22.6185 7.14707 22.6044 7.15097L22.6067 7.15927C22.5948 7.16158 22.5834 7.16389 22.572 7.16605L22.5733 7.17426C22.5555 7.17849 22.5376 7.18176 22.5196 7.18192C22.5261 7.18439 22.5329 7.18678 22.5398 7.18925C22.5275 7.19308 22.5084 7.18845 22.5059 7.20504C22.4769 7.20775 22.4531 7.22625 22.4249 7.23176C22.4165 7.24228 22.4029 7.24308 22.3912 7.24579C22.3838 7.25991 22.3657 7.25887 22.353 7.26334C22.3476 7.27873 22.3291 7.2745 22.3168 7.27785L22.3183 7.2855C22.3073 7.28838 22.2933 7.28702 22.2894 7.29986C22.276 7.30464 22.2538 7.29946 22.2518 7.31804C22.2411 7.31852 22.2307 7.31908 22.2206 7.31956C22.2208 7.32283 22.2213 7.32928 22.2215 7.33255C22.1889 7.33056 22.1643 7.3544 22.1334 7.35807L22.135 7.36684C22.1232 7.36884 22.1115 7.37083 22.1003 7.37283L22.1028 7.38096C22.0913 7.38319 22.0799 7.38566 22.0689 7.38806L22.0703 7.39667C22.0571 7.39986 22.0393 7.39643 22.0346 7.41222C22.0206 7.41645 21.9977 7.41031 21.9963 7.43C21.9905 7.43 21.9787 7.43008 21.9728 7.43016C21.9731 7.43367 21.9736 7.44077 21.9739 7.44428C21.9602 7.44515 21.9463 7.44611 21.9331 7.44715C21.9334 7.4505 21.9342 7.45736 21.9345 7.46078C21.928 7.46094 21.9152 7.46134 21.9087 7.4615C21.909 7.46501 21.9095 7.47195 21.9098 7.47538C21.8929 7.47873 21.8682 7.47243 21.8595 7.49085C21.8466 7.49404 21.8341 7.49723 21.8216 7.50042L21.8236 7.50863C21.8109 7.51126 21.7983 7.51429 21.7862 7.51764C21.7779 7.53 21.7635 7.53152 21.7503 7.53248C21.7503 7.53463 21.7503 7.53909 21.7504 7.54125C21.7376 7.5442 21.7211 7.54141 21.7158 7.55632C21.7057 7.55895 21.6955 7.56134 21.6859 7.56374L21.6873 7.57259C21.6775 7.57346 21.6679 7.57434 21.6586 7.57538C21.653 7.59827 21.62 7.58495 21.6125 7.60544C21.608 7.60552 21.5991 7.60576 21.5946 7.60584C21.5921 7.60959 21.5869 7.61701 21.5844 7.62067C21.5731 7.62187 21.5621 7.62307 21.5513 7.62426C21.5513 7.62721 21.5512 7.63319 21.5511 7.63614C21.5451 7.63654 21.5329 7.63726 21.5267 7.63766C21.5268 7.64101 21.527 7.64755 21.5271 7.65082C21.5103 7.65241 21.494 7.6552 21.4781 7.65911L21.4799 7.66709C21.4556 7.67386 21.4321 7.68351 21.4122 7.69882C21.4007 7.70329 21.3863 7.70377 21.3806 7.71621C21.3753 7.71693 21.3647 7.7182 21.3594 7.71892C21.3597 7.72203 21.3602 7.72817 21.3604 7.73128C21.345 7.73415 21.3224 7.72777 21.317 7.74707C21.3033 7.75042 21.2897 7.75385 21.2766 7.75736C21.2698 7.76948 21.2562 7.77123 21.2443 7.77315C21.2238 7.78997 21.199 7.80018 21.1738 7.80688C21.1679 7.81422 21.1605 7.81876 21.1515 7.82067L21.1535 7.82705C21.1263 7.8312 21.1046 7.85042 21.0773 7.85345C21.0719 7.86876 21.0546 7.86677 21.042 7.86964C21.0421 7.87243 21.0423 7.87809 21.0424 7.88088C21.0367 7.88176 21.0255 7.88359 21.0198 7.88447C21.0098 7.89556 20.9958 7.89922 20.9818 7.9009C20.978 7.91438 20.9632 7.91286 20.953 7.91613L20.9546 7.92386C20.9433 7.92666 20.9323 7.92953 20.9216 7.9324L20.9228 7.93973C20.9115 7.94221 20.8965 7.94013 20.8952 7.95505C20.8834 7.95776 20.872 7.96055 20.8609 7.96358C20.8535 7.97865 20.8353 7.97713 20.8217 7.9808C20.8177 7.99548 20.8022 7.99452 20.7905 7.99763C20.7866 8.00871 20.7755 8.01023 20.7661 8.01262C20.7597 8.02602 20.7449 8.0257 20.7327 8.02801C20.7292 8.03973 20.7169 8.04109 20.7075 8.04508C20.6966 8.05074 20.6853 8.05576 20.6743 8.06047L20.6755 8.06788C20.6691 8.06836 20.6563 8.06948 20.65 8.06996C20.6501 8.07299 20.6502 8.07889 20.6503 8.08184C20.6372 8.08447 20.621 8.0832 20.615 8.09763C20.6028 8.10066 20.5901 8.10313 20.5831 8.1143C20.5776 8.11485 20.5668 8.11597 20.5613 8.11653C20.5619 8.12012 20.563 8.1273 20.5636 8.13096C20.5497 8.132 20.5359 8.13312 20.5227 8.13423C20.5227 8.13702 20.5229 8.14261 20.523 8.1454C20.5097 8.14747 20.4974 8.15162 20.4878 8.16087C20.4781 8.16454 20.4671 8.16645 20.4636 8.1773C20.4515 8.18049 20.4373 8.17993 20.4314 8.19261C20.42 8.19715 20.4076 8.19962 20.3999 8.20943C20.3881 8.21294 20.3758 8.21525 20.3681 8.2253C20.3573 8.22945 20.3466 8.23375 20.3376 8.24077C20.3188 8.2517 20.3003 8.26358 20.279 8.26852C20.2763 8.28224 20.2621 8.28049 20.2517 8.2828L20.2527 8.28942C20.2314 8.29755 20.2116 8.3084 20.1924 8.31996C20.1837 8.32482 20.1741 8.32849 20.1684 8.33671C20.1477 8.3438 20.1259 8.35194 20.1127 8.37028C20.1031 8.371 20.094 8.37163 20.085 8.37227C20.0852 8.37578 20.0856 8.38288 20.0858 8.38639C20.0727 8.38958 20.0557 8.38758 20.0499 8.40234C20.0397 8.40529 20.03 8.40808 20.0204 8.41087L20.0215 8.41725C20.011 8.421 20.0001 8.42403 19.9935 8.43328C19.9846 8.43655 19.9761 8.43966 19.968 8.44309C19.9411 8.46215 19.912 8.47921 19.8816 8.49213C19.8754 8.49851 19.8684 8.50369 19.8608 8.50768L19.8611 8.51326C19.8488 8.51669 19.8302 8.51294 19.8282 8.52937C19.8092 8.53455 19.7932 8.54604 19.7763 8.55513C19.7652 8.56119 19.7547 8.56805 19.7456 8.57634C19.7344 8.57977 19.7235 8.58312 19.7128 8.58655C19.7092 8.59723 19.6993 8.60066 19.69 8.60361C19.6812 8.61247 19.6696 8.61709 19.658 8.6194C19.6529 8.62546 19.6475 8.63105 19.6416 8.63615C19.632 8.64309 19.6208 8.64723 19.6101 8.65098C19.6038 8.65967 19.5944 8.66334 19.585 8.66653C19.5794 8.67921 19.5647 8.67873 19.5538 8.68264C19.5487 8.69038 19.5416 8.69572 19.5327 8.69851L19.5344 8.70401C19.5243 8.70712 19.5145 8.71039 19.5049 8.7135C19.4947 8.72076 19.4846 8.7281 19.475 8.73567C19.4597 8.74253 19.4452 8.7509 19.43 8.75752C19.43 8.75991 19.4298 8.7647 19.4298 8.76701C19.4059 8.76797 19.3915 8.78727 19.3707 8.795C19.3585 8.81151 19.3373 8.81677 19.3224 8.83017C19.3139 8.83503 19.3029 8.83719 19.2989 8.84708C19.2889 8.84963 19.2781 8.8509 19.2754 8.86215C19.2536 8.86717 19.2357 8.87993 19.2201 8.89508C19.2003 8.89955 19.1858 8.91334 19.1715 8.92642C19.1617 8.92953 19.1517 8.93216 19.1475 8.94237C19.136 8.94588 19.1243 8.94931 19.1165 8.95872C19.1077 8.96334 19.0993 8.96797 19.0915 8.97339C19.0833 8.97889 19.0754 8.98424 19.0677 8.98974C19.059 8.9946 19.0484 8.99732 19.044 9.00688C19.0337 9.0092 19.0234 9.01087 19.0209 9.02228C19.0112 9.02586 19.0007 9.02834 18.9965 9.03878C18.9849 9.04229 18.9733 9.04588 18.9656 9.05537C18.9591 9.05856 18.953 9.06183 18.9471 9.06502C18.9394 9.07156 18.9313 9.07706 18.9228 9.08185C18.9126 9.08831 18.903 9.0954 18.8939 9.10298C18.8873 9.10633 18.881 9.10976 18.875 9.11327C18.8656 9.12052 18.855 9.12602 18.8441 9.12969C18.8346 9.1403 18.823 9.14851 18.8115 9.15641C18.8076 9.15736 18.7997 9.15928 18.7958 9.16024C18.793 9.17212 18.7817 9.17411 18.7722 9.17714C18.7619 9.19173 18.7452 9.19931 18.7313 9.20944C18.7188 9.21853 18.701 9.22164 18.6943 9.23679C18.6908 9.23711 18.6836 9.23767 18.6801 9.23791L18.6813 9.2466C18.6738 9.24947 18.6664 9.25226 18.6594 9.25513C18.6499 9.26311 18.6405 9.27124 18.6303 9.27786C18.6219 9.28288 18.6138 9.28839 18.6062 9.29421C18.6001 9.29756 18.5941 9.30091 18.5884 9.30441C18.5806 9.3104 18.5726 9.31574 18.5646 9.32092C18.5546 9.32802 18.5448 9.3352 18.5345 9.34134C18.5279 9.34564 18.5221 9.35075 18.5171 9.35657C18.5001 9.36534 18.4809 9.37252 18.4702 9.38918C18.4609 9.39325 18.452 9.39764 18.4463 9.40601C18.4369 9.40928 18.426 9.41064 18.4243 9.42196C18.4143 9.42451 18.4046 9.42786 18.3981 9.43607C18.3922 9.44126 18.3866 9.44668 18.3814 9.45242C18.371 9.45505 18.3605 9.45768 18.3583 9.46981C18.3538 9.47068 18.345 9.47244 18.3405 9.47331C18.3375 9.48384 18.3278 9.48743 18.3188 9.49086C18.307 9.49851 18.2943 9.50593 18.2873 9.51845C18.2835 9.51845 18.2759 9.51845 18.2722 9.51845C18.2725 9.52204 18.2731 9.52922 18.2735 9.53288C18.2603 9.53615 18.2423 9.5332 18.2386 9.55003C18.2351 9.55051 18.2282 9.55147 18.2247 9.55202C18.2251 9.55553 18.2261 9.56263 18.2266 9.56614C18.2202 9.56654 18.2076 9.56725 18.2013 9.56757C18.2016 9.57124 18.2022 9.57858 18.2025 9.58225C18.1963 9.58249 18.1838 9.58312 18.1776 9.58344C18.1777 9.58703 18.1778 9.59429 18.1778 9.59788C18.1729 9.59851 18.1629 9.59971 18.158 9.60035C18.1528 9.60689 18.1478 9.61343 18.143 9.61997C18.1389 9.62068 18.1307 9.6222 18.1266 9.62292C18.1156 9.63687 18.0997 9.64525 18.0856 9.65537C18.0766 9.66598 18.0631 9.66869 18.0504 9.67068C18.0506 9.67356 18.0509 9.67922 18.051 9.68201C18.0136 9.69899 17.9847 9.73009 17.9494 9.75075C17.9413 9.75753 17.933 9.76415 17.9282 9.77356C17.9228 9.77403 17.9122 9.77507 17.9069 9.77563C17.907 9.77874 17.9074 9.78504 17.9076 9.78815C17.8966 9.79062 17.8833 9.79054 17.8805 9.80386C17.8711 9.80737 17.8616 9.81072 17.8563 9.81965C17.8483 9.82507 17.8404 9.83041 17.8328 9.836C17.8252 9.8415 17.818 9.84724 17.8106 9.85258C17.3305 10.1946 16.855 10.5432 16.3848 10.8987C15.8515 11.3012 15.3207 11.707 14.7859 12.1073C14.5585 12.279 14.3281 12.4464 14.099 12.6156C13.8564 12.7917 13.6138 12.9678 13.3658 13.1361C13.1073 13.3121 12.8481 13.4871 12.5816 13.6508C12.1604 13.9134 11.7211 14.1476 11.2649 14.3435C10.977 14.4608 10.6823 14.5645 10.3777 14.6291C10.1853 14.6699 9.98984 14.6959 9.79351 14.7065C9.59119 14.7165 9.38736 14.7128 9.1872 14.6798C8.87659 14.6334 8.57364 14.5338 8.2978 14.3833C8.03409 14.2391 7.79605 14.0494 7.59126 13.8299C7.51096 13.7446 7.44014 13.6513 7.36526 13.5615C7.29748 13.4804 7.23735 13.393 7.1643 13.3163C7.05346 13.1909 6.93695 13.0701 6.81055 12.9602C6.6576 12.8191 6.49397 12.6897 6.32307 12.571C5.85441 12.2502 5.33734 12.0036 4.80058 11.8201C4.75504 11.807 4.71126 11.7872 4.66413 11.7805C4.65034 11.7682 4.63168 11.7681 4.61437 11.7668C4.61445 11.7646 4.61461 11.7602 4.61469 11.758C4.59723 11.7552 4.57984 11.7527 4.56246 11.75C4.56062 11.7476 4.55687 11.743 4.55504 11.7407C4.51963 11.7318 4.48518 11.7182 4.44818 11.7174C4.4481 11.7146 4.44786 11.7087 4.44778 11.7059C4.43112 11.7051 4.41461 11.7043 4.39802 11.7039C4.39826 11.7013 4.39882 11.6962 4.39914 11.6937C4.38526 11.6917 4.37155 11.6901 4.35767 11.6885L4.35903 11.68C4.33757 11.6775 4.31628 11.674 4.29491 11.6711L4.29619 11.6627C4.27442 11.6601 4.25265 11.6575 4.23088 11.6558L4.23223 11.6472C4.21317 11.6444 4.19419 11.6415 4.17513 11.6393L4.17697 11.6309C4.15049 11.6268 4.12394 11.6236 4.09722 11.6223C4.09722 11.6193 4.09706 11.6135 4.09706 11.6106C4.0808 11.6094 4.06469 11.6082 4.0485 11.6071L4.04954 11.5988C4.03383 11.5963 4.01509 11.5987 4.00352 11.5856C3.97593 11.5819 3.94842 11.578 3.92083 11.5748L3.92226 11.5669C3.90392 11.5648 3.88566 11.5626 3.86756 11.5594C3.84164 11.5381 3.80049 11.5559 3.77561 11.5346C3.75767 11.5306 3.73925 11.5288 3.7209 11.5279L3.72178 11.5196C3.69786 11.5169 3.67393 11.5136 3.65001 11.511L3.65065 11.5031C3.63199 11.5018 3.61349 11.5 3.59507 11.4972C3.5666 11.4767 3.52473 11.4929 3.49547 11.4726C3.4721 11.4689 3.44857 11.4661 3.42497 11.4645L3.42609 11.4563C3.39124 11.4563 3.35719 11.4478 3.32242 11.4476L3.32433 11.4393C3.29953 11.4352 3.27449 11.4324 3.24929 11.4329C3.24953 11.4306 3.25009 11.4259 3.25033 11.4235C3.22345 11.4217 3.19674 11.4182 3.16979 11.4166L3.1709 11.4084C3.13095 11.4075 3.09148 11.3999 3.05144 11.3996L3.05328 11.3909C3.02776 11.3889 3.00041 11.3905 2.97728 11.3777C2.94825 11.3752 2.91939 11.3717 2.89036 11.3701L2.88964 11.3623C2.83932 11.3623 2.78972 11.352 2.73948 11.3524L2.74084 11.3433C2.69769 11.3434 2.65511 11.3333 2.61189 11.3365C2.61229 11.334 2.61316 11.3292 2.61356 11.3268C2.57058 11.3255 2.52792 11.3191 2.48485 11.3202L2.48613 11.3108C2.44562 11.3118 2.40567 11.3028 2.36508 11.3051L2.36484 11.297C2.31731 11.2974 2.27026 11.2886 2.22273 11.2904C2.22257 11.2879 2.22217 11.283 2.22201 11.2805C2.13908 11.2839 2.0567 11.2696 1.97377 11.2733L1.9744 11.2636C1.9012 11.2653 1.82823 11.2567 1.75495 11.258C1.73916 11.257 1.72121 11.2606 1.70774 11.2499C1.64904 11.2491 1.59027 11.2469 1.53158 11.2476C1.52081 11.2462 1.50447 11.2508 1.5 11.2371C1.50558 11.2219 1.52337 11.2271 1.53597 11.2245L1.53477 11.2174C1.56571 11.2131 1.59274 11.1954 1.62408 11.1932L1.62329 11.1854C1.63716 11.1833 1.65096 11.181 1.66483 11.1788L1.66356 11.1705C1.68006 11.1681 1.69657 11.1653 1.713 11.1624L1.71204 11.1546C1.74657 11.1547 1.7748 11.1315 1.80901 11.1299L1.8067 11.1215C1.82042 11.1205 1.83405 11.1193 1.84769 11.1183C1.84761 11.1153 1.84737 11.1095 1.84721 11.1067C1.86643 11.1056 1.88549 11.1029 1.90431 11.0988L1.90311 11.0909C1.9244 11.0879 1.94554 11.0842 1.96683 11.0814L1.96571 11.0724C1.97943 11.0709 1.99322 11.0691 2.00702 11.0677C2.00702 11.0653 2.00694 11.0608 2.00694 11.0586C2.02584 11.0562 2.04466 11.0532 2.06356 11.0505L2.06188 11.0421C2.0772 11.0402 2.09259 11.038 2.10758 11.034C2.13142 11.0193 2.16093 11.0204 2.1878 11.0161L2.18732 11.0097C2.19769 11.009 2.20527 11.0043 2.21005 10.9957C2.24179 10.9935 2.27297 10.9871 2.30463 10.9836C2.31093 10.9705 2.32648 10.9726 2.33844 10.9693C2.36197 10.9559 2.39012 10.9574 2.41579 10.9515C2.4323 10.9353 2.4567 10.9398 2.47768 10.9382L2.47584 10.9291C2.49267 10.9274 2.5095 10.9254 2.5264 10.9236L2.5252 10.9155C2.5508 10.913 2.57632 10.9094 2.60176 10.9057C2.62106 10.8878 2.6516 10.8948 2.67584 10.8894L2.67521 10.8815C2.69682 10.8767 2.72345 10.8825 2.74068 10.8661C2.76707 10.8592 2.79825 10.8654 2.82162 10.8497C2.83709 10.847 2.85272 10.8452 2.86843 10.8439C2.86803 10.8416 2.86731 10.837 2.86691 10.8346C2.89195 10.834 2.91675 10.8308 2.94155 10.8275L2.93932 10.8193C2.96022 10.8187 2.98135 10.8179 3.00152 10.8118C3.00886 10.8024 3.0213 10.8045 3.03159 10.8029C3.0583 10.8007 3.08478 10.7962 3.11149 10.794C3.13007 10.771 3.16237 10.7874 3.18757 10.785L3.18789 10.7933C3.22712 10.7945 3.2658 10.803 3.30519 10.8036C3.30511 10.8059 3.30503 10.8107 3.30495 10.8131C3.32664 10.8157 3.34849 10.8177 3.37034 10.8185L3.36947 10.8269C3.38885 10.8287 3.40822 10.8311 3.42768 10.8333L3.42585 10.8414C3.45272 10.8428 3.47944 10.8464 3.50623 10.8498L3.50495 10.8585C3.52433 10.8589 3.54363 10.8596 3.56301 10.8605C3.56293 10.8634 3.56285 10.8692 3.56285 10.8721C3.5969 10.8752 3.63071 10.8813 3.665 10.8826L3.66381 10.8909C3.68749 10.8949 3.71126 10.8982 3.73518 10.9C3.73526 10.9022 3.73526 10.9067 3.73526 10.909C3.7469 10.9103 3.75862 10.9115 3.77035 10.9127L3.76923 10.9209C3.79842 10.9232 3.82729 10.9279 3.85639 10.9309L3.85464 10.9394C3.87394 10.9415 3.89315 10.9441 3.91245 10.9462L3.91118 10.9547C3.93518 10.9582 3.95926 10.9614 3.98351 10.9633C3.98327 10.9662 3.98287 10.9723 3.98263 10.9753C4.00416 10.9765 4.02569 10.9777 4.0473 10.9787C4.04714 10.9819 4.04682 10.9882 4.04666 10.9915C4.06301 10.9923 4.07944 10.9933 4.09587 10.9941L4.09379 11.0037C4.10049 11.0038 4.11397 11.0039 4.12067 11.0039C4.12059 11.0071 4.12051 11.0131 4.12043 11.0161C4.15209 11.017 4.18287 11.0251 4.21437 11.0272L4.21309 11.0362C4.22976 11.0392 4.24667 11.0411 4.26365 11.0421L4.26182 11.0508C4.28056 11.0537 4.29938 11.0567 4.31828 11.059L4.31668 11.0677C4.3284 11.0694 4.34005 11.0712 4.35177 11.0731L4.35097 11.0809C4.37617 11.0839 4.40121 11.0881 4.42641 11.0914C4.43327 11.1132 4.46078 11.103 4.47801 11.1067C4.47777 11.1099 4.47729 11.1162 4.47705 11.1194C4.49085 11.12 4.5048 11.1208 4.51876 11.1213C4.51836 11.1239 4.51748 11.1291 4.51708 11.1316C4.5359 11.1341 4.5548 11.1366 4.5737 11.1387C4.57354 11.1416 4.57314 11.1473 4.57298 11.1502C4.58909 11.1515 4.60536 11.1529 4.62163 11.1542C4.62147 11.157 4.62131 11.1626 4.62115 11.1655C4.63558 11.1674 4.65002 11.1697 4.66437 11.1726C4.68534 11.1857 4.70943 11.1921 4.73279 11.1996C5.31254 11.3996 5.88025 11.6483 6.38934 11.9934C6.78033 12.2579 7.14094 12.5701 7.44533 12.9316C7.53624 13.0335 7.61367 13.1461 7.69764 13.2535C7.78919 13.3684 7.87898 13.4856 7.98552 13.5873C8.20793 13.8004 8.47109 13.9713 8.7573 14.0855C9.05331 14.2007 9.37213 14.2561 9.68968 14.2488C10.067 14.2463 10.4394 14.1647 10.7977 14.0506C11.121 13.9481 11.4304 13.8072 11.7335 13.6559C12.018 13.5129 12.2946 13.3546 12.5675 13.1906C13.0654 12.8899 13.5469 12.5632 14.0222 12.2282C14.2741 12.0494 14.5279 11.8732 14.7766 11.69C15.7802 10.9655 16.7645 10.2137 17.7913 9.52196C17.7975 9.51725 17.804 9.51239 17.8102 9.50721C17.8132 9.5045 17.8191 9.49899 17.8222 9.49628C17.8325 9.49357 17.8453 9.49285 17.8473 9.47954C17.8507 9.47914 17.8576 9.47842 17.861 9.47802C17.8609 9.47467 17.8608 9.46797 17.8607 9.46462C17.8735 9.46135 17.892 9.46414 17.8947 9.44652C17.8983 9.44644 17.9057 9.44628 17.9095 9.4462C17.9092 9.44285 17.9085 9.43623 17.9081 9.43288C17.9212 9.42985 17.9346 9.42666 17.9482 9.42355L17.9471 9.41622C17.9629 9.40745 17.9805 9.39931 17.9909 9.3836C17.9962 9.38288 18.0067 9.38153 18.012 9.38089C18.0118 9.37738 18.0115 9.37036 18.0114 9.36693C18.0159 9.36662 18.0248 9.36606 18.0294 9.36574C18.0289 9.36271 18.0281 9.35665 18.0277 9.35354C18.04 9.35091 18.0526 9.3474 18.0649 9.34325C18.0739 9.33504 18.0832 9.32722 18.0927 9.31941C18.1022 9.31606 18.112 9.31255 18.1221 9.30928C18.122 9.30617 18.1219 9.30011 18.1218 9.29708C18.1278 9.29652 18.14 9.2954 18.1462 9.29485C18.1459 9.29197 18.1456 9.28615 18.1454 9.28328C18.1607 9.28081 18.1731 9.27148 18.185 9.26183C18.2033 9.25043 18.2217 9.23902 18.2394 9.22642C18.2472 9.22164 18.2573 9.21893 18.2621 9.20976C18.2785 9.20035 18.2982 9.19245 18.3089 9.17587C18.3196 9.17507 18.3319 9.17499 18.3328 9.16071C18.3422 9.15784 18.3518 9.15505 18.3618 9.15242C18.3685 9.14453 18.3752 9.13647 18.3817 9.12818C18.387 9.1277 18.3977 9.12682 18.403 9.12642C18.4029 9.12291 18.4026 9.1159 18.4026 9.11239C18.4078 9.11215 18.4183 9.11183 18.4235 9.11167C18.4262 9.10824 18.4317 9.1013 18.4345 9.09779C18.4542 9.09118 18.4698 9.07626 18.49 9.0706L18.4888 9.06255C18.4932 9.06239 18.5021 9.06207 18.5065 9.06191C18.5065 9.05856 18.5065 9.05194 18.5066 9.04859C18.5125 9.04803 18.5245 9.04708 18.5304 9.04652C18.5302 9.04325 18.5299 9.03671 18.5297 9.03352C18.5415 9.02961 18.5612 9.034 18.563 9.01709C18.5733 9.01494 18.5839 9.01167 18.5888 9.0009C18.5981 8.99779 18.608 8.99484 18.618 8.99197L18.6171 8.98559C18.6308 8.97403 18.6526 8.97108 18.6608 8.95377C18.6723 8.95074 18.6888 8.95322 18.6918 8.93783C18.7198 8.92586 18.7453 8.90808 18.7728 8.89452C18.7808 8.88264 18.794 8.87985 18.8077 8.87929C18.8077 8.8761 18.8077 8.86988 18.8078 8.86677C18.8121 8.86653 18.8207 8.86598 18.8251 8.86574L18.8243 8.8584C18.8334 8.85409 18.8424 8.84899 18.851 8.84309C18.8683 8.83304 18.8852 8.8218 18.9044 8.81534L18.9035 8.80728C18.908 8.80736 18.917 8.80744 18.9215 8.80744C18.9212 8.80385 18.9205 8.79668 18.9202 8.79309C18.9266 8.79285 18.9392 8.79237 18.9456 8.79213C18.9455 8.7887 18.9451 8.78176 18.945 8.77826C18.9577 8.77515 18.9786 8.78065 18.9794 8.76175C18.9849 8.76127 18.9959 8.76031 19.0014 8.75983C19.0014 8.75656 19.0011 8.75003 19.001 8.74684C19.0131 8.74365 19.0314 8.74739 19.0349 8.73121C19.0723 8.7127 19.1088 8.69221 19.1455 8.67235L19.1433 8.66621C19.1544 8.6643 19.1688 8.6651 19.17 8.64995C19.1822 8.6466 19.2013 8.64995 19.201 8.63192C19.2049 8.63232 19.2128 8.63296 19.2168 8.63336C19.2166 8.62985 19.2163 8.62283 19.2161 8.6194C19.2292 8.61629 19.2425 8.61294 19.2561 8.60975L19.2551 8.60282C19.2694 8.59213 19.2896 8.58758 19.2988 8.57108C19.3097 8.56741 19.3267 8.57012 19.3294 8.55505C19.3569 8.54412 19.3811 8.52594 19.4082 8.5135L19.4068 8.50537C19.4112 8.50521 19.42 8.50497 19.4244 8.50481C19.4242 8.50154 19.4236 8.495 19.4234 8.49173C19.4361 8.48886 19.4557 8.49317 19.4578 8.47506C19.4695 8.47227 19.4859 8.47459 19.4898 8.45943C19.5011 8.4564 19.5122 8.45194 19.5215 8.44428C19.5304 8.44006 19.5404 8.43663 19.5466 8.42793C19.5546 8.42451 19.5628 8.42124 19.5714 8.41789C19.5871 8.40154 19.6141 8.39939 19.6255 8.37881C19.631 8.37833 19.6417 8.37754 19.6471 8.37714C19.6469 8.37355 19.6465 8.36645 19.6463 8.36286C19.6526 8.36254 19.6652 8.36183 19.6714 8.36143C19.6711 8.358 19.6708 8.35114 19.6705 8.34771C19.685 8.34404 19.7098 8.3517 19.7116 8.33057C19.7219 8.32897 19.7344 8.32953 19.7375 8.31621C19.7511 8.31302 19.766 8.31063 19.7764 8.29986C19.7926 8.28982 19.8096 8.28065 19.8278 8.27427C19.8326 8.26023 19.8496 8.26334 19.8613 8.25919C19.8613 8.25736 19.8612 8.25369 19.8611 8.25186C19.8708 8.24771 19.8835 8.24683 19.8893 8.23607C19.8986 8.23296 19.9078 8.23009 19.9177 8.2273L19.9173 8.22004C19.9269 8.21653 19.9421 8.21797 19.944 8.20385C19.9562 8.20074 19.9688 8.19771 19.9815 8.195L19.98 8.18639C19.9932 8.18296 20.0066 8.17977 20.0203 8.17706C20.0202 8.17419 20.02 8.16836 20.0198 8.16541C20.0291 8.1643 20.0387 8.1631 20.0487 8.16182C20.0517 8.15186 20.0586 8.14667 20.0696 8.14643L20.0676 8.13942C20.079 8.13694 20.0906 8.13447 20.1025 8.132L20.0997 8.12426C20.1129 8.12307 20.125 8.11757 20.1345 8.10784C20.1401 8.10696 20.1515 8.10505 20.1571 8.10417C20.157 8.10114 20.1568 8.09524 20.1567 8.09229C20.1692 8.08926 20.1896 8.09452 20.191 8.07626C20.2022 8.07275 20.2202 8.07682 20.2242 8.06135C20.2357 8.05816 20.2514 8.05935 20.2562 8.04508C20.2677 8.04165 20.2853 8.0446 20.2872 8.02833C20.2967 8.02706 20.3065 8.02578 20.3166 8.02466C20.3165 8.02163 20.3164 8.01573 20.3163 8.01278C20.3282 8.00871 20.3487 8.01382 20.3504 7.99643C20.3651 7.99508 20.3809 7.9938 20.3911 7.98112C20.4005 7.97809 20.4118 7.9765 20.4157 7.96517C20.4302 7.96166 20.4451 7.95831 20.4601 7.95544L20.4585 7.94779C20.4705 7.94476 20.4825 7.94149 20.495 7.93822C20.5014 7.92418 20.5174 7.92506 20.5305 7.92203L20.5297 7.91645C20.5484 7.90377 20.5693 7.89579 20.5916 7.89109C20.5976 7.87841 20.613 7.87961 20.6245 7.87498C20.6463 7.85967 20.6748 7.85528 20.6947 7.83742C20.705 7.83216 20.7235 7.83543 20.7261 7.82012C20.7356 7.81924 20.7454 7.81844 20.7556 7.81764C20.7554 7.81437 20.7548 7.80784 20.7545 7.80449C20.7653 7.80369 20.7763 7.80281 20.7875 7.80201C20.7873 7.79874 20.787 7.79229 20.7868 7.78902C20.8002 7.7879 20.8133 7.78662 20.8272 7.78543C20.8269 7.78208 20.8263 7.77546 20.8259 7.77211C20.8368 7.77155 20.8479 7.77107 20.8594 7.77059C20.8592 7.76733 20.8589 7.76087 20.8587 7.75768C20.8904 7.75752 20.9165 7.74045 20.9453 7.73096L20.9448 7.72442C20.9682 7.71661 20.9948 7.7111 21.0133 7.6934C21.0243 7.68941 21.04 7.69141 21.046 7.67841C21.0611 7.6757 21.0762 7.67067 21.0893 7.66174C21.0995 7.65839 21.1145 7.65895 21.115 7.64404C21.1279 7.64356 21.1405 7.64316 21.154 7.64276C21.1538 7.63949 21.1532 7.63295 21.1529 7.62976C21.1667 7.62737 21.1807 7.62466 21.1949 7.62195L21.1927 7.61342C21.2188 7.6135 21.2396 7.59531 21.2652 7.5922C21.2653 7.58981 21.2657 7.58503 21.2658 7.58264C21.2782 7.57921 21.296 7.58216 21.3011 7.56669C21.3131 7.56509 21.3251 7.56358 21.3378 7.56222C21.3376 7.55927 21.337 7.55329 21.3368 7.55026C21.3688 7.55066 21.396 7.53455 21.425 7.52442L21.4244 7.51788C21.4362 7.51397 21.4567 7.51924 21.4593 7.50161C21.4714 7.50018 21.4835 7.49882 21.4964 7.49747C21.4962 7.49452 21.4958 7.4887 21.4956 7.48574C21.5108 7.48351 21.532 7.48798 21.5396 7.47003C21.5521 7.4674 21.5651 7.46477 21.5782 7.46238L21.5756 7.45393C21.5933 7.45217 21.6128 7.45153 21.6264 7.4379C21.6368 7.43279 21.6553 7.43686 21.6591 7.42219C21.6725 7.41836 21.6944 7.42522 21.6988 7.40688C21.7126 7.40409 21.7267 7.40113 21.741 7.39795C21.7464 7.38327 21.7642 7.38925 21.776 7.38495C21.776 7.38247 21.7761 7.37753 21.7762 7.37498C21.7944 7.37187 21.8127 7.36828 21.8313 7.36517L21.8296 7.35704C21.8422 7.35464 21.8549 7.35193 21.868 7.34914C21.8776 7.33949 21.8903 7.33519 21.904 7.33351L21.9029 7.32657C21.9227 7.32267 21.9427 7.31892 21.963 7.31613C21.9659 7.29802 21.986 7.30456 21.9993 7.30209L21.9974 7.29308C22.0164 7.28614 22.0456 7.29356 22.0566 7.27259C22.0677 7.27131 22.0794 7.27019 22.0912 7.26908C22.0923 7.24994 22.1134 7.25672 22.1267 7.25401L22.1248 7.24467C22.1405 7.24188 22.1566 7.23917 22.1729 7.23678L22.1721 7.22833C22.1858 7.22593 22.1996 7.22362 22.2139 7.22155L22.2123 7.21294C22.2261 7.21078 22.2401 7.20847 22.2545 7.20656C22.2545 7.20424 22.2547 7.1997 22.2547 7.19747C22.2678 7.19539 22.2815 7.19316 22.2952 7.19109L22.2939 7.18247C22.3072 7.18112 22.3203 7.17976 22.3342 7.17841C22.3342 7.17562 22.3343 7.17019 22.3343 7.16748C22.3523 7.16501 22.3704 7.1623 22.3889 7.15951C22.3889 7.15719 22.3892 7.15265 22.3893 7.15034C22.4051 7.1477 22.4212 7.14483 22.4375 7.1422L22.4363 7.13463C22.4505 7.13231 22.4648 7.12976 22.4794 7.12729L22.4765 7.11884C22.4964 7.11621 22.5165 7.1131 22.5366 7.10935C22.5459 7.08981 22.57 7.09643 22.5877 7.09332L22.5874 7.08534C22.5999 7.08255 22.6125 7.07968 22.6253 7.07665C22.6401 7.06549 22.6592 7.06493 22.6772 7.06254L22.6754 7.05448C22.6941 7.05153 22.7128 7.0485 22.7319 7.04579L22.7304 7.03742C22.744 7.03558 22.7575 7.03351 22.7716 7.03168C22.7716 7.02928 22.7716 7.02466 22.7717 7.02235C22.7878 7.02011 22.8043 7.01756 22.8208 7.01509L22.8191 7.00672C22.8561 7.00839 22.8878 6.9859 22.9244 6.98447C22.9244 6.98231 22.9245 6.97809 22.9246 6.97593Z" fill="#FEE801"/>
<path d="M19.2041 7.07878C19.2201 7.06458 19.2441 7.03093 19.2657 7.0582C19.2501 7.06785 19.234 7.07583 19.2173 7.08213C19.2161 7.09656 19.2017 7.09624 19.1911 7.09823C19.1912 7.10158 19.1914 7.1082 19.1916 7.11147C19.1852 7.11155 19.1725 7.11155 19.1661 7.11155C19.1665 7.11498 19.1674 7.12176 19.1679 7.12519C19.1571 7.12814 19.1446 7.12854 19.1399 7.14018C19.1311 7.14504 19.1229 7.14991 19.1154 7.15589C19.1067 7.16059 19.0976 7.16482 19.0923 7.17343C19.0853 7.17662 19.0784 7.17981 19.0718 7.183C19.0476 7.20174 19.02 7.21562 18.9972 7.23619C18.9886 7.24114 18.9804 7.24624 18.9727 7.25174C18.9559 7.26115 18.9398 7.27152 18.9256 7.28428C18.9104 7.29209 18.8961 7.30103 18.8826 7.31099C18.8728 7.31825 18.8631 7.32535 18.8536 7.33229C18.8458 7.33739 18.8385 7.34249 18.8313 7.34776C18.8166 7.35868 18.8016 7.36921 18.7842 7.37479L18.785 7.38021C18.7608 7.39241 18.7404 7.41083 18.7165 7.42351C18.7091 7.43149 18.6989 7.43524 18.6894 7.43891L18.6893 7.44345C18.6803 7.44672 18.6738 7.45246 18.6696 7.4606C18.6656 7.46139 18.6576 7.46299 18.6536 7.46379C18.6429 7.47328 18.6325 7.48292 18.6224 7.49273C18.6123 7.49584 18.6024 7.49895 18.5929 7.50206C18.593 7.50557 18.5934 7.51275 18.5937 7.51634C18.5884 7.51658 18.5779 7.51706 18.5726 7.51737C18.5662 7.52543 18.5597 7.53308 18.5529 7.5405C18.5432 7.54417 18.534 7.54855 18.5263 7.55517C18.5185 7.56076 18.5107 7.5661 18.5031 7.5712C18.4785 7.58659 18.455 7.60342 18.4312 7.61985C18.4245 7.62328 18.4181 7.62679 18.4118 7.63029C18.4041 7.6358 18.3965 7.64138 18.3893 7.64704C18.3818 7.65374 18.3742 7.66036 18.367 7.66698C18.349 7.67447 18.3337 7.68635 18.3194 7.69919C18.3106 7.7035 18.302 7.70797 18.2954 7.71498C18.2879 7.72049 18.2807 7.72599 18.2736 7.73157C18.2665 7.7346 18.2595 7.73763 18.2529 7.74066C18.2453 7.75262 18.2315 7.75525 18.2191 7.75813C18.2192 7.76147 18.2194 7.76825 18.2196 7.7716C18.2153 7.77168 18.2069 7.77176 18.2027 7.77184C18.2027 7.77567 18.2027 7.78317 18.2027 7.78699C18.1974 7.78723 18.1866 7.78787 18.1813 7.78819C18.1799 7.80286 18.1658 7.80286 18.1548 7.80549C18.1549 7.8086 18.1551 7.81466 18.1553 7.8177C18.1492 7.81833 18.137 7.81969 18.1308 7.82033C18.131 7.82376 18.1312 7.83061 18.1313 7.83412C18.1263 7.83484 18.1163 7.83644 18.1114 7.83723C18.0999 7.85366 18.0822 7.86339 18.0665 7.87471C18.0618 7.87671 18.0526 7.88061 18.0479 7.88261C18.0409 7.89154 18.0327 7.89927 18.0241 7.90637C18.0111 7.911 17.9998 7.91841 17.9904 7.92814C17.9864 7.92934 17.9784 7.93173 17.9744 7.93293C17.9718 7.94425 17.9608 7.9464 17.9517 7.94975C17.9466 7.95597 17.9413 7.96164 17.9355 7.9669C17.9225 7.97599 17.9022 7.97719 17.897 7.99433C17.8936 7.99449 17.887 7.99481 17.8836 7.99497L17.8841 8.00223C17.8682 8.0106 17.8541 8.02152 17.8408 8.03325C17.8324 8.03867 17.8243 8.04409 17.8163 8.04951C17.8076 8.05462 17.7993 8.05972 17.7916 8.0657C17.7861 8.07073 17.7807 8.07583 17.7757 8.08093C17.7659 8.08436 17.7554 8.08699 17.7523 8.09832C17.7485 8.09928 17.7407 8.10111 17.7369 8.10199C17.7145 8.12336 17.6865 8.13731 17.6629 8.15677C17.6539 8.16443 17.6431 8.16905 17.6326 8.17328C17.6181 8.19537 17.5901 8.20183 17.5759 8.224C17.5659 8.22727 17.5554 8.22998 17.5525 8.24138C17.5487 8.24242 17.541 8.24457 17.5371 8.24569C17.5295 8.25446 17.5192 8.26036 17.5082 8.26307C17.5082 8.26554 17.5082 8.27049 17.5082 8.27296C17.4875 8.27695 17.4701 8.28859 17.457 8.30454C17.4476 8.30813 17.4382 8.31204 17.4332 8.32113C17.4262 8.32464 17.4194 8.32806 17.4128 8.33149C17.4102 8.33444 17.4052 8.34027 17.4027 8.34322C17.3906 8.34936 17.3792 8.35645 17.3684 8.36427C17.3543 8.37783 17.3384 8.38947 17.3199 8.39585C17.3186 8.40885 17.3074 8.41052 17.2971 8.41204C17.2799 8.43277 17.2571 8.44784 17.2335 8.45996C17.227 8.4677 17.218 8.472 17.2095 8.47639C17.1983 8.48524 17.1859 8.4929 17.1779 8.50486C17.1737 8.50518 17.1655 8.50582 17.1613 8.50614C17.1589 8.51993 17.1456 8.52153 17.1352 8.52504C17.135 8.52815 17.1347 8.53429 17.1346 8.5374C17.1312 8.53756 17.1247 8.53795 17.1213 8.53811C17.1192 8.55047 17.1082 8.55295 17.098 8.55542C17.0881 8.57017 17.0715 8.57775 17.0574 8.58756C17.0498 8.59354 17.0417 8.59856 17.0338 8.6035C17.0269 8.61236 17.0162 8.61579 17.0065 8.61937C16.9999 8.62623 16.9936 8.63309 16.9874 8.64011C16.9711 8.64721 16.9536 8.65534 16.9472 8.67328C16.9418 8.6736 16.9312 8.6744 16.9259 8.67472C16.926 8.67807 16.9263 8.68461 16.9266 8.68788C16.9042 8.68931 16.893 8.71204 16.8713 8.71507C16.8712 8.71826 16.8712 8.72456 16.8711 8.72775C16.8653 8.72823 16.8535 8.7291 16.8477 8.72958C16.8475 8.73301 16.8472 8.73979 16.847 8.74322C16.8428 8.74338 16.8343 8.7437 16.8301 8.74386L16.8319 8.75454C16.8283 8.75478 16.821 8.7551 16.8173 8.75534C16.8145 8.76531 16.8078 8.77105 16.7974 8.77241C16.7976 8.77544 16.7979 8.7815 16.798 8.78445C16.792 8.78477 16.7802 8.78532 16.7742 8.78556C16.774 8.78875 16.7736 8.79529 16.7734 8.79848C16.7566 8.80063 16.7458 8.81363 16.7322 8.82169C16.7094 8.83684 16.686 8.85111 16.6664 8.87009C16.6629 8.87121 16.6559 8.87344 16.6524 8.87464C16.6482 8.87879 16.6397 8.88716 16.6354 8.89131C16.1531 9.24202 15.6822 9.60806 15.2059 9.96675C14.4569 10.5363 13.7064 11.1045 12.9341 11.6423C12.4346 11.9939 11.9198 12.3264 11.3743 12.6028C11.111 12.7333 10.8403 12.8507 10.5592 12.937C10.3703 12.9949 10.1755 13.0345 9.97845 13.0491C9.81593 13.0566 9.65126 13.0566 9.49185 13.0204C9.318 12.9839 9.14918 12.9177 9.00189 12.8177C8.7613 12.6613 8.58267 12.4325 8.40309 12.2132C8.26999 12.0495 8.12254 11.8981 7.97015 11.7524C7.81393 11.6075 7.65508 11.4647 7.4841 11.3372C7.26799 11.1701 7.04367 11.0135 6.81049 10.871C6.5526 10.7156 6.28378 10.5742 5.99653 10.4811C5.94342 10.4628 5.88792 10.4521 5.83545 10.432C6.16799 10.4106 6.50132 10.3939 6.83466 10.4047C6.86121 10.4043 6.8833 10.4206 6.90515 10.4335C7.38546 10.7149 7.82972 11.058 8.22318 11.4519C8.45006 11.6827 8.66393 11.9258 8.87789 12.1684C8.97008 12.2676 9.05596 12.3735 9.16146 12.4593C9.27351 12.5528 9.40349 12.6262 9.54424 12.6663C9.73132 12.7203 9.92893 12.7124 10.1203 12.6904C10.4593 12.6479 10.7849 12.5341 11.0961 12.3963C11.6763 12.1376 12.2215 11.8079 12.7517 11.4596C12.8696 11.381 12.987 11.3015 13.1051 11.2232C13.3581 11.0489 13.6095 10.8723 13.8603 10.6947C14.36 10.3364 14.859 9.97712 15.3565 9.61563C15.6911 9.37337 16.027 9.13269 16.3641 8.89386L16.354 8.89194L16.349 8.89099C16.3622 8.88644 16.3845 8.89282 16.3879 8.87344C16.3916 8.87312 16.3987 8.87241 16.4023 8.87209C16.4019 8.86882 16.4011 8.86236 16.4006 8.85917C16.4184 8.85821 16.4343 8.85071 16.4448 8.8358C16.4497 8.83493 16.4594 8.83325 16.4642 8.83237C16.464 8.82902 16.4635 8.82233 16.4633 8.81898C16.4686 8.81834 16.4792 8.8169 16.4845 8.81619C16.4861 8.80359 16.4976 8.80151 16.5083 8.79864C16.5126 8.7917 16.5172 8.78477 16.5218 8.77775C16.5305 8.77456 16.5393 8.77121 16.5484 8.76786C16.5517 8.75685 16.5621 8.7543 16.5719 8.75103C16.5823 8.73676 16.6007 8.73197 16.6131 8.71937C16.6211 8.71419 16.6293 8.70909 16.6377 8.7039C16.6448 8.69681 16.6531 8.69091 16.6628 8.6874L16.6633 8.68237C16.6734 8.68102 16.6798 8.67536 16.6824 8.66547C16.6877 8.66491 16.698 8.66379 16.7032 8.66323C16.7033 8.66028 16.7035 8.65422 16.7035 8.65127C16.7133 8.64697 16.7281 8.64776 16.7311 8.63429C16.7346 8.63381 16.7416 8.63277 16.745 8.63221C16.7445 8.62886 16.7434 8.62217 16.7428 8.61874C16.7564 8.61738 16.7747 8.6177 16.7778 8.60008C16.7814 8.60039 16.7886 8.60087 16.7922 8.60111C16.7921 8.59768 16.792 8.59067 16.7918 8.58724C16.8038 8.58381 16.8158 8.58022 16.8282 8.57663C16.8293 8.56451 16.8399 8.56228 16.8501 8.55941C16.8554 8.55382 16.8609 8.54832 16.8668 8.54298C16.8791 8.53708 16.891 8.52942 16.8995 8.51826C16.9039 8.5169 16.9128 8.51427 16.9172 8.51291C16.9243 8.50717 16.9314 8.50143 16.9391 8.49585C16.9497 8.48684 16.9605 8.47791 16.9715 8.46905C16.9752 8.46802 16.9828 8.46602 16.9865 8.46507C16.9901 8.45414 17.0003 8.45143 17.0102 8.44824C17.0153 8.4425 17.0208 8.43708 17.0268 8.43197C17.0349 8.42511 17.0448 8.42113 17.055 8.41762L17.0541 8.41164C17.0676 8.40661 17.0814 8.40079 17.0912 8.38931C17.0948 8.38827 17.1023 8.38628 17.106 8.38532C17.1098 8.37822 17.1153 8.37248 17.1222 8.3681C17.1302 8.36283 17.1384 8.35765 17.1469 8.35271C17.1573 8.34601 17.1669 8.33819 17.1766 8.33014C17.1801 8.32958 17.1871 8.32846 17.1906 8.32791C17.1905 8.32495 17.1903 8.31905 17.1901 8.3161C17.2025 8.31339 17.2151 8.30956 17.2244 8.29999C17.2298 8.29601 17.2354 8.2921 17.2413 8.28811C17.2485 8.28022 17.2584 8.27607 17.2684 8.27232L17.2679 8.26507C17.2724 8.26467 17.2817 8.26387 17.2862 8.26347C17.286 8.26004 17.2855 8.25318 17.2853 8.24968C17.2899 8.25015 17.2991 8.25095 17.3038 8.25143C17.3035 8.2476 17.3028 8.23987 17.3025 8.23604C17.3086 8.2354 17.3209 8.23412 17.3271 8.23341C17.3269 8.23006 17.3267 8.22336 17.3265 8.22001C17.3328 8.21953 17.3454 8.21849 17.3517 8.21802C17.3514 8.21483 17.3507 8.20837 17.3503 8.2051C17.3652 8.20286 17.381 8.19991 17.3911 8.18731C17.3969 8.18412 17.403 8.18093 17.4092 8.17774C17.4137 8.16746 17.424 8.16507 17.4338 8.16188C17.4436 8.15398 17.4535 8.14617 17.4637 8.13851C17.4673 8.13811 17.4743 8.13747 17.4778 8.13715C17.4775 8.13365 17.4768 8.12679 17.4765 8.12328C17.4814 8.12264 17.4911 8.12137 17.496 8.12073C17.5066 8.10861 17.5208 8.10071 17.5349 8.09282C17.5428 8.08763 17.551 8.08253 17.5592 8.07727C17.5743 8.06395 17.5913 8.05302 17.6114 8.04904C17.6115 8.04609 17.6116 8.0401 17.6116 8.03715C17.6149 8.03676 17.6216 8.03596 17.625 8.03556C17.6341 8.02687 17.6439 8.01857 17.6543 8.011C17.6629 8.00845 17.6718 8.00557 17.6808 8.00254C17.6847 7.99226 17.6947 7.98923 17.7043 7.98572C17.7158 7.97256 17.7309 7.96315 17.7461 7.95462C17.7558 7.94776 17.7656 7.9409 17.7757 7.93412C17.7839 7.92878 17.7938 7.92479 17.7995 7.91586C17.8032 7.91522 17.8108 7.91387 17.8145 7.91315C17.825 7.90342 17.8372 7.89577 17.8481 7.88628C17.8573 7.88261 17.8681 7.87974 17.8705 7.86817C17.8742 7.86817 17.8816 7.86801 17.8853 7.86793C17.8851 7.86443 17.8847 7.85741 17.8846 7.8539C17.8995 7.85063 17.924 7.85645 17.9256 7.83444C17.9285 7.8346 17.9343 7.83492 17.9372 7.83508C17.9396 7.81793 17.9605 7.82017 17.9682 7.80677C17.9789 7.80278 17.9924 7.80151 17.9987 7.79002C18.0216 7.77998 18.0421 7.7657 18.0633 7.75214C18.0729 7.74943 18.0835 7.74672 18.0853 7.7346C18.0906 7.73404 18.1013 7.73277 18.1066 7.73213C18.1066 7.7287 18.1066 7.72168 18.1066 7.71817C18.1118 7.71769 18.1224 7.71674 18.1278 7.71626C18.1294 7.70246 18.1428 7.70206 18.1539 7.69911L18.1539 7.69369C18.1715 7.6842 18.1884 7.6736 18.2047 7.66195C18.2186 7.65238 18.2328 7.64297 18.2483 7.63556C18.258 7.62878 18.2677 7.6216 18.2772 7.61403C18.3058 7.60222 18.33 7.58261 18.3561 7.56626C18.3847 7.55358 18.4106 7.53564 18.4369 7.51865C18.4438 7.51323 18.4512 7.50788 18.4586 7.50246C18.4677 7.49903 18.477 7.49568 18.4866 7.49225C18.498 7.4791 18.513 7.46969 18.5299 7.46514C18.5299 7.46259 18.5298 7.45757 18.5298 7.45509C18.5721 7.44704 18.6035 7.41426 18.642 7.39688L18.6418 7.39114C18.6522 7.38827 18.663 7.385 18.6694 7.37511C18.6807 7.37112 18.6924 7.36737 18.7043 7.36386V7.35956C18.7113 7.35453 18.7181 7.34927 18.725 7.34369C18.7334 7.33978 18.7421 7.33603 18.7513 7.33237C18.7645 7.32375 18.7775 7.31466 18.7901 7.30477C18.7941 7.30414 18.8021 7.30294 18.8062 7.30238C18.8131 7.29217 18.8235 7.28524 18.8337 7.27822C18.8382 7.2771 18.8471 7.27487 18.8515 7.27375C18.8618 7.26514 18.8732 7.2582 18.8854 7.2523C18.8961 7.24632 18.9059 7.23882 18.915 7.23029C18.9261 7.2271 18.9374 7.22407 18.9491 7.22096C18.9589 7.2035 18.9803 7.19887 18.9964 7.18843C19.0052 7.18021 19.0169 7.1767 19.0283 7.17264C19.0327 7.16235 19.0433 7.16004 19.0531 7.15621C19.0712 7.14465 19.0937 7.13787 19.1067 7.11969C19.1172 7.11458 19.133 7.1157 19.1387 7.10294C19.1496 7.09911 19.1634 7.09879 19.171 7.08819C19.1748 7.08587 19.1825 7.08117 19.1863 7.07886C19.1908 7.07886 19.1996 7.07878 19.2041 7.07878Z" fill="#FEE801"/>
</g>
<defs>
<clipPath id="clip0_1_87234">
<rect width="24" height="24" fill="white"/>
</clipPath>
</defs>
</svg>
