<svg width="24" height="24" viewBox="0 0 24 24" fill="none" xmlns="http://www.w3.org/2000/svg">
<g clip-path="url(#clip0_7431_81209)">
<rect width="23.998" height="23.998" rx="11.999" fill="#F17020"/>
<path d="M19.7124 16.3909H16.1138V15.7101H17.1836V8.51285H16.1138V7.83203H19.7124V8.51285H18.6425V15.7101H19.7124V16.3909Z" fill="white"/>
<path d="M14.0112 14.8348L9.63447 11.5279L13.7194 9.19367C14.1084 8.99915 14.2057 8.51285 14.0112 8.22107C13.8167 7.83203 13.3304 7.73477 13.0386 7.92929L5.6468 12.1115V8.61011C5.6468 8.22107 5.35502 7.92929 4.96597 7.92929C4.57693 7.92929 4.28516 8.22107 4.28516 8.61011V15.6128C4.28516 16.0019 4.57693 16.2937 4.96597 16.2937C5.35502 16.2937 5.6468 16.0019 5.6468 15.6128V13.7649L8.27282 12.306L13.1358 16.0019C13.3303 16.0991 13.4276 16.0991 13.6221 16.0991C13.8167 16.0991 14.0112 16.0019 14.2057 15.8074C14.4002 15.5156 14.4002 15.0293 14.0112 14.8348Z" fill="white"/>
</g>
<defs>
<clipPath id="clip0_7431_81209">
<rect width="23.998" height="23.998" fill="white"/>
</clipPath>
</defs>
</svg>
