<svg width="20" height="20" viewBox="0 0 20 20" fill="none" xmlns="http://www.w3.org/2000/svg">
<g clip-path="url(#clip0_8812_85767)">
<rect width="20" height="20" rx="10" fill="white"/>
<path d="M10.3466 9.4237C11.3521 11.7841 11.328 14.2562 10.4692 16.0974C8.54624 15.4413 6.74758 13.7451 5.74206 11.3847C4.73655 9.02425 4.76014 6.55218 5.61947 4.71094C7.54244 5.36766 9.3411 7.06329 10.3466 9.4237Z" fill="url(#paint0_linear_8812_85767)" fill-opacity="0.9"/>
<path d="M7.43795 10.01C7.41351 12.5755 8.38298 14.8497 9.88164 16.2214C11.4065 14.8786 12.418 12.6227 12.4425 10.0571C12.4669 7.4916 11.4974 5.21743 9.99877 3.8457C8.47414 5.18907 7.46239 7.44444 7.43795 10.01Z" fill="url(#paint1_linear_8812_85767)" fill-opacity="0.9"/>
<path d="M9.65395 9.4237C8.64843 11.7841 8.67261 14.2562 9.53136 16.0974C11.4543 15.4413 13.253 13.7451 14.2585 11.3847C15.264 9.02425 15.2399 6.55218 14.3811 4.71094C12.4581 5.36766 10.6595 7.06329 9.65395 9.4237Z" fill="url(#paint2_linear_8812_85767)" fill-opacity="0.9"/>
<path d="M12.1842 9.96258C10.4811 11.8815 9.71849 14.2327 9.94815 16.2518C11.9799 16.2403 14.2246 15.2037 15.9272 13.2853C17.6297 11.367 18.3929 9.01519 18.1632 6.99609C16.1321 7.00761 13.8873 8.0442 12.1842 9.96258Z" fill="url(#paint3_linear_8812_85767)" fill-opacity="0.9"/>
<path d="M7.81636 9.96258C9.51947 11.8815 10.2821 14.2327 10.0525 16.2518C8.02069 16.2403 5.77597 15.2037 4.07344 13.2853C2.3709 11.367 1.60712 9.01519 1.83678 6.99609C3.86854 7.00761 6.11326 8.0442 7.81636 9.96258Z" fill="url(#paint4_linear_8812_85767)" fill-opacity="0.9"/>
<path d="M14.7707 12.9223C15.2428 12.9223 15.6255 12.5397 15.6255 12.0676C15.6255 11.5956 15.2428 11.2129 14.7707 11.2129C14.2987 11.2129 13.916 11.5956 13.916 12.0676C13.916 12.5397 14.2987 12.9223 14.7707 12.9223Z" fill="#00AA4F"/>
<path d="M13.3862 10.998C13.3862 10.998 13.2072 14.9631 15.4836 13.2917C15.4922 13.2917 16.4707 12.6361 17.0077 11.809C17.0077 11.809 14.8269 15.6803 10.8877 16.1868C10.905 16.1828 12.8659 14.0509 13.3862 10.998Z" fill="#00AA4F"/>
<path d="M5.17503 12.9223C5.64708 12.9223 6.02975 12.5397 6.02975 12.0676C6.02975 11.5956 5.64708 11.2129 5.17503 11.2129C4.70298 11.2129 4.32031 11.5956 4.32031 12.0676C4.32031 12.5397 4.70298 12.9223 5.17503 12.9223Z" fill="#00AA4F"/>
<path d="M6.5593 10.998C6.5593 10.998 6.7383 14.9631 4.46192 13.2917C4.45329 13.2917 3.51856 12.6154 2.98098 11.7883C2.97235 11.7797 5.11807 15.6803 9.05784 16.1868C9.04115 16.1828 7.07961 14.0509 6.5593 10.998Z" fill="#00AA4F"/>
<path d="M12.3973 11.3243C12.052 12.5082 11.0235 13.3681 9.85274 13.3681C8.68088 13.3681 7.68803 12.5117 7.34326 11.3266C7.79221 13.6433 8.78794 15.4926 9.92526 16.25C10.9981 15.3464 11.9409 13.5356 12.3973 11.3243C12.41 11.3237 12.3852 11.3266 12.3973 11.3243Z" fill="#00AA4F"/>
<path d="M10.1094 12.9848C10.5688 12.8763 10.8533 12.416 10.7448 11.9566C10.6363 11.4972 10.176 11.2127 9.71658 11.3212C9.25718 11.4296 8.9727 11.89 9.08118 12.3494C9.18966 12.8088 9.65001 13.0933 10.1094 12.9848Z" fill="#00AA4F"/>
</g>
<defs>
<linearGradient id="paint0_linear_8812_85767" x1="5.71079" y1="4.88271" x2="9.85489" y2="16.3078" gradientUnits="userSpaceOnUse">
<stop stop-color="#FE1C1C"/>
<stop offset="1" stop-color="white"/>
</linearGradient>
<linearGradient id="paint1_linear_8812_85767" x1="9.9402" y1="3.8457" x2="9.9402" y2="16.2214" gradientUnits="userSpaceOnUse">
<stop stop-color="#FE1C1C"/>
<stop offset="1" stop-color="white"/>
</linearGradient>
<linearGradient id="paint2_linear_8812_85767" x1="14.4016" y1="4.94027" x2="9.5093" y2="16.279" gradientUnits="userSpaceOnUse">
<stop stop-color="#FE1C1C"/>
<stop offset="1" stop-color="white"/>
</linearGradient>
<linearGradient id="paint3_linear_8812_85767" x1="18.2005" y1="7.84753" x2="9.91228" y2="16.2796" gradientUnits="userSpaceOnUse">
<stop stop-color="#FE1C1C"/>
<stop offset="1" stop-color="white"/>
</linearGradient>
<linearGradient id="paint4_linear_8812_85767" x1="2.91923" y1="7.6173" x2="9.79728" y2="16.2796" gradientUnits="userSpaceOnUse">
<stop stop-color="#FE1C1C"/>
<stop offset="1" stop-color="white"/>
</linearGradient>
<clipPath id="clip0_8812_85767">
<rect width="20" height="20" fill="white"/>
</clipPath>
</defs>
</svg>
