<svg width="24" height="24" viewBox="0 0 24 24" fill="none" xmlns="http://www.w3.org/2000/svg">
<path d="M18.2267 2.25C16.9612 2.25 16.0937 2.89688 15.7256 4.12285C15.2172 5.81356 14.7128 7.5059 14.2108 9.19907C13.5337 11.486 12.8607 13.7738 12.1852 16.0607C11.9406 16.8628 11.6961 17.6649 11.4419 18.5004C12.9833 18.5004 14.4594 18.5004 15.9355 18.5004C17.2275 18.5004 18.0806 17.8601 18.4567 16.6039C18.7859 15.5062 19.1087 14.4068 19.4364 13.3082C19.961 11.5481 20.467 9.78224 20.9827 8.01965C21.2426 7.13264 21.4822 6.23828 21.7776 5.36107C22.0964 4.33603 22.4152 3.31098 22.7444 2.25082C21.2038 2.25 19.7156 2.25 18.2267 2.25Z" fill="url(#paint0_linear_215_63794)"/>
<path d="M9.81723 13.6234C9.76558 13.429 9.71958 13.2313 9.66067 13.0394C9.0336 11.0171 8.49127 8.96863 7.81174 6.96264C7.45342 6.08217 6.60765 5.50553 5.6392 5.50144C4.08081 5.49491 2.52323 5.49981 0.964844 5.49981V5.66235C1.29654 6.38437 1.44745 7.16683 1.68391 7.9199C2.12778 9.33209 2.54744 10.7524 2.97759 12.1695C3.19307 12.921 3.40048 13.674 3.62484 14.423C4.07274 15.9201 4.53033 17.4148 4.98389 18.9103C5.23165 20.2343 5.71103 21.377 7.17257 21.7494H12.2521C11.441 19.0402 10.6291 16.3318 9.81804 13.6226L9.81723 13.6234Z" fill="url(#paint1_linear_215_63794)"/>
<defs>
<linearGradient id="paint0_linear_215_63794" x1="17.0932" y1="2.25" x2="17.0932" y2="18.5004" gradientUnits="userSpaceOnUse">
<stop stop-color="#FFA72C"/>
<stop offset="1" stop-color="#FF8E11"/>
</linearGradient>
<linearGradient id="paint1_linear_215_63794" x1="6.60845" y1="5.49805" x2="6.60845" y2="21.7494" gradientUnits="userSpaceOnUse">
<stop stop-color="#FFA72C"/>
<stop offset="1" stop-color="#FF8E11"/>
</linearGradient>
</defs>
</svg>
