<svg width="20" height="20" viewBox="0 0 20 20" fill="none" xmlns="http://www.w3.org/2000/svg">
<path d="M10 20C7.34784 20 4.8043 18.9464 2.92893 17.0711C1.05357 15.1957 1.3543e-06 12.6522 1.47023e-06 10C1.58616e-06 7.34783 1.05357 4.8043 2.92893 2.92893C4.8043 1.05357 7.34783 -1.52578e-07 10 -4.37114e-07L10 10L10 20Z" fill="#0A0A0C"/>
<path d="M10 20C12.6522 20 15.1957 18.9464 17.0711 17.0711C18.9464 15.1957 20 12.6522 20 10C20 7.34783 18.9464 4.8043 17.0711 2.92893C15.1957 1.05357 12.6522 -1.52578e-07 10 -4.37114e-07L10 10L10 20Z" fill="#F36B00"/>
<path d="M10.9092 7H12.9734L13.6437 8.62092L14.8436 7H17.002L14.3627 10.0887L15.6707 13H13.6205L12.9274 11.4241L11.6844 12.9995H9.57744L12.156 9.88813L10.9092 7ZM4.33173 7H5.51864L6.9084 9.88813L4.22961 12.9995H3L5.57852 9.8886L4.33173 7ZM6.52406 7H7.71143L9.10119 9.88813L6.42194 12.9995H5.19233L7.77085 9.88813L6.52452 7H6.52406ZM8.71685 7H9.90376L11.2935 9.88813L8.61473 12.9995H7.38465L9.96364 9.88813L8.71685 7Z" fill="white"/>
</svg>
