<svg width="20" height="20" viewBox="0 0 20 20" fill="none" xmlns="http://www.w3.org/2000/svg">
<circle cx="10" cy="10" r="10" fill="#07287F"/>
<path fill-rule="evenodd" clip-rule="evenodd" d="M15.8947 7.26316C15.5789 6.84211 15.0526 6.52632 14.6316 6.31579C14.1053 6 13.4737 6 12.9474 6C11.5789 6 10.3158 6 8.94737 6C8.42105 6 7.89474 6.31579 7.36842 6.21053C7.15789 6.21053 6.94737 6.21053 6.84211 6.31579C7.15789 6.31579 7.57895 6.31579 7.89474 6.42105C8.10526 6.52632 8.31579 6.52632 8.63158 6.63158L8.52632 6.73684C8.10526 6.73684 7.68421 7.05263 7.15789 6.94737C6.94737 7.05263 6.73684 6.94737 6.52632 7.05263C6.84211 7.05263 7.05263 7.05263 7.36842 7.05263C7.68421 7.05263 8 7.26316 8.31579 7.26316L8.21053 7.47368C8 7.47368 7.68421 7.57895 7.47368 7.57895C7.15789 7.68421 6.84211 7.68421 6.52632 7.68421C6.42105 7.68421 6.31579 7.68421 6.21053 7.78947C6.63158 7.89474 7.05263 7.78947 7.36842 7.89474C7.57895 8 7.78947 8 8 8.10526V8.21053C7.78947 8.21053 7.57895 8.31579 7.36842 8.31579C6.94737 8.52632 6.42105 8.42105 6 8.42105L5.89474 8.52632C6.21053 8.63158 6.63158 8.52632 6.94737 8.63158C7.15789 8.73684 7.47368 8.84211 7.68421 8.84211V9.05263C7.47368 8.94737 7.15789 9.05263 6.94737 9.15789C6.52632 9.26316 6.10526 9.15789 5.68421 9.26316V9.36842C6 9.36842 6.31579 9.36842 6.63158 9.36842C6.94737 9.47368 7.15789 9.57895 7.47368 9.57895V9.68421C7.15789 9.78947 6.94737 9.78947 6.63158 9.89474C6.31579 10 5.89474 10 5.47368 10L5.36842 10.1053C5.68421 10.1053 6.10526 10.1053 6.42105 10.1053C6.73684 10.2105 6.94737 10.3158 7.26316 10.3158L7.15789 10.4211C6.84211 10.4211 6.63158 10.5263 6.31579 10.6316C5.89474 10.7368 5.47368 10.6316 5.15789 10.7368V10.8421C5.47368 10.8421 5.89474 10.8421 6.21053 10.8421C6.52632 10.9474 6.73684 11.0526 7.05263 11.0526L6.94737 11.2632C6.52632 11.1579 6.21053 11.2632 5.89474 11.3684C5.57895 11.4737 5.15789 11.3684 4.84211 11.3684V11.4737C5.26316 11.4737 5.57895 11.4737 6 11.5789C6.21053 11.6842 6.52632 11.6842 6.73684 11.6842L6.63158 11.8947C6.31579 11.8947 6 12 5.68421 12.1053C5.36842 12.2105 5.05263 12.1053 4.84211 12.2105C4.73684 12.2105 4.63158 12.2105 4.52632 12.3158C4.94737 12.3158 5.36842 12.3158 5.78947 12.4211C6 12.5263 6.21053 12.5263 6.52632 12.5263L6.42105 12.6316C6.10526 12.6316 5.78947 12.7368 5.57895 12.8421C5.15789 12.9474 4.73684 12.8421 4.31579 12.9474C4.31579 12.9474 4.31579 12.9474 4.31579 13.0526C4.73684 13.1579 5.15789 13.0526 5.47368 13.1579C5.68421 13.2632 6 13.2632 6.21053 13.2632L6.10526 13.3684C5.89474 13.3684 5.57895 13.4737 5.26316 13.5789C4.84211 13.6842 4.42105 13.5789 4 13.6842L4.10526 13.7895C4.42105 13.8947 4.84211 13.7895 5.26316 13.8947C5.47368 13.8947 5.78947 14 6.10526 14C7.68421 14 9.1579 14 10.7368 14C11.7895 14 12.8421 13.7895 13.7895 13.2632C14.5263 12.7368 15.1579 12 15.5789 11.1579C16 10.2105 16.2105 9.26316 16.2105 8.31579C16.2105 7.89474 16 7.57895 15.8947 7.26316ZM13.4737 9.05263C13.2632 9.05263 13.0526 9.05263 12.7368 9.15789C12.4211 9.36842 12 9.26316 11.5789 9.36842H11.4737C11.8947 9.47368 12.3158 9.36842 12.7368 9.47368C12.9474 9.57895 13.1579 9.57895 13.3684 9.68421V9.78947C13.0526 9.78947 12.7368 9.89474 12.4211 10C12 10.1053 11.5789 10 11.1579 10.1053C11.5789 10.2105 12 10.1053 12.4211 10.2105C12.6316 10.3158 12.8421 10.4211 13.1579 10.4211L13.0526 10.5263C12.7368 10.5263 12.4211 10.5263 12.2105 10.6316C11.6842 10.8421 11.2632 10.7368 10.8421 10.7368V10.8421C11.0526 10.8421 11.3684 10.8421 11.5789 10.8421C11.8947 10.8421 12.2105 11.0526 12.6316 11.0526C12.6316 11.1579 12.5263 11.2632 12.4211 11.2632C12.1053 11.2632 11.7895 11.2632 11.5789 11.3684C11.1579 11.5789 10.7368 11.4737 10.3158 11.5789C10.7368 11.5789 11.2632 11.5789 11.6842 11.6842C11.2632 11.8947 10.9474 11.8947 10.5263 11.8947C10.2105 11.8947 9.89474 11.8947 9.57895 11.8947C10.1053 10.6316 10.5263 9.26316 11.0526 8C11.7895 8 12.6316 7.89474 13.2632 8.31579C12.9474 8.42105 12.6316 8.42105 12.4211 8.52632C12.1053 8.52632 11.7895 8.52632 11.4737 8.52632L11.2632 8.63158C11.6842 8.63158 12.1053 8.63158 12.4211 8.73684C12.7368 8.84211 13.0526 8.94737 13.4737 8.94737V9.05263Z" fill="white"/>
</svg>
