<svg width="20" height="20" viewBox="0 0 20 20" fill="none" xmlns="http://www.w3.org/2000/svg">
<path d="M10 20C7.34784 20 4.8043 18.9464 2.92893 17.0711C1.05357 15.1957 1.3543e-06 12.6522 1.47023e-06 10C1.58616e-06 7.34783 1.05357 4.8043 2.92893 2.92893C4.8043 1.05357 7.34783 -1.52578e-07 10 -4.37114e-07L10 10L10 20Z" fill="#461B87"/>
<path d="M10 20C12.6522 20 15.1957 18.9464 17.0711 17.0711C18.9464 15.1957 20 12.6522 20 10C20 7.34783 18.9464 4.8043 17.0711 2.92893C15.1957 1.05357 12.6522 -1.52578e-07 10 -4.37114e-07L10 10L10 20Z" fill="#EB6B2D"/>
<path d="M13.0542 7.64971H10.1042V9.22471H12.7917V11.2997H10.1042V14.9997H7.65417V5.57471H13.0542V7.64971Z" fill="white"/>
</svg>
