<svg width="20" height="20" viewBox="0 0 20 20" fill="none" xmlns="http://www.w3.org/2000/svg">
<path d="M10 20C7.34783 20 4.8043 18.9464 2.92893 17.0711C1.05357 15.1957 -5.53044e-07 12.6522 -4.37114e-07 10C-3.21184e-07 7.34784 1.05357 4.8043 2.92893 2.92893C4.80429 1.05357 7.34783 -1.52578e-07 10 -4.37114e-07L10 10L10 20Z" fill="#D8000C"/>
<path d="M10 20C12.6522 20 15.1957 18.9464 17.0711 17.0711C18.9464 15.1957 20 12.6522 20 10C20 7.34784 18.9464 4.8043 17.0711 2.92893C15.1957 1.05357 12.6522 -1.52578e-07 10 -4.37114e-07L10 10L10 20Z" fill="#2F3B89"/>
<path d="M6 6.87919H6.67114V15H13.5168V12.5839H11.6376V13.1208H8.55034V10.9732H11.7047V9.02685H8.55034V6.87919H11.6376V7.41611H13.5168V5H6V6.87919Z" fill="white"/>
</svg>
