<svg width="20" height="20" viewBox="0 0 20 20" fill="none" xmlns="http://www.w3.org/2000/svg">
<g clip-path="url(#clip0_6664_76616)">
<rect width="20" height="20" rx="10" fill="#E83393"/>
<path d="M16.2673 7.23515C16.6144 7.23224 16.9614 7.2303 17.3085 7.23612C17.4394 7.23805 17.4997 7.20607 17.5215 7.07134C17.6234 6.43356 17.7377 5.79674 17.852 5.15993C17.8728 5.04168 17.8354 5.00194 17.7034 5.00194C15.4225 5.00485 13.1405 5.00485 10.8596 5.00194C10.7318 5.00194 10.6736 5.04168 10.658 5.15993C10.6237 5.42067 10.5822 5.6814 10.5427 5.94116C10.5354 5.98575 10.551 6.04682 10.4803 6.05554C10.4138 6.06426 10.4014 6.00126 10.3785 5.96249C10.2216 5.69497 10.0616 5.42842 9.91504 5.15508C9.85165 5.03683 9.76956 5 9.62928 5C7.87521 5.00388 6.12115 5.00291 4.36604 5.00291C3.86206 5.00291 3.8579 5.00194 3.77062 5.46041C3.66982 5.99641 3.58045 6.53339 3.47758 7.06843C3.4516 7.20219 3.49317 7.23999 3.63137 7.23321C3.81738 7.22448 4.00442 7.23127 4.19043 7.23127C4.39618 7.23127 4.60193 7.23321 4.80768 7.2303C4.94484 7.22933 5.01343 7.28167 4.99368 7.41543C4.98537 7.46874 4.98121 7.52302 4.97186 7.57536C4.85028 8.26548 4.72558 8.95464 4.60504 9.64476C4.4419 10.583 4.28395 11.5213 4.11769 12.4595C4.07197 12.7164 3.99715 12.7687 3.71658 12.7707C3.36328 12.7726 3.00997 12.7726 2.65666 12.7707C2.55483 12.7697 2.49559 12.7842 2.47689 12.9006C2.37609 13.5335 2.26906 14.1645 2.15268 14.7945C2.12566 14.9428 2.14748 15 2.32414 14.999C4.58634 14.9952 6.8475 14.9952 9.10971 15C9.25519 15 9.30507 14.9448 9.32169 14.8294C9.3643 14.527 9.40586 14.2246 9.45159 13.9231C9.4599 13.8698 9.42457 13.7874 9.51601 13.7758C9.58667 13.7661 9.59706 13.8417 9.62304 13.8863C9.81321 14.212 10.0023 14.5386 10.1883 14.8662C10.2372 14.9515 10.2912 15 10.4097 15C11.7522 14.9961 13.0958 14.9961 14.4384 15C14.5891 15 14.6369 14.9418 14.6566 14.8129C14.772 14.0802 14.8936 13.3474 15.0162 12.6146C15.1648 11.7287 15.3165 10.8438 15.4672 9.95881C15.6043 9.15043 15.7373 8.34206 15.8807 7.53465C15.9244 7.28749 16.0002 7.23708 16.2673 7.23515ZM15.542 7.42609C15.3965 8.22187 15.2666 9.02055 15.1305 9.81729C14.9777 10.7148 14.825 11.6124 14.6743 12.5109C14.5673 13.1487 14.4602 13.7874 14.3563 14.4262C14.3158 14.6743 14.3199 14.6743 14.0456 14.6743C12.9337 14.6743 11.8219 14.6704 10.711 14.6782C10.5396 14.6792 10.4471 14.6288 10.366 14.4873C9.65214 13.235 8.92994 11.9865 8.20981 10.7371C8.17968 10.6858 8.15266 10.6315 8.07161 10.5869C8.01965 10.9077 7.96977 11.2121 7.92093 11.5164C7.8617 11.8828 7.80559 12.2502 7.74532 12.6166C7.69752 12.9083 7.84196 13.0808 8.16097 13.0905C8.44985 13.1002 8.73978 13.0993 9.02866 13.0954C9.14816 13.0934 9.21154 13.1167 9.1918 13.2456C9.12426 13.6837 9.06191 14.1228 8.99956 14.5609C8.97982 14.6956 8.87071 14.6724 8.77822 14.6734C7.83988 14.6743 6.90154 14.6743 5.9632 14.6743C4.90328 14.6743 3.84232 14.6743 2.7824 14.6743C2.54236 14.6743 2.5434 14.6743 2.57977 14.4572C2.64627 14.0617 2.71797 13.6663 2.77512 13.2698C2.79487 13.1303 2.85929 13.0915 3.00166 13.0954C3.26456 13.1041 3.5285 13.1002 3.79244 13.0963C4.17588 13.0915 4.39098 12.9296 4.46061 12.5749C4.54997 12.1222 4.62583 11.6667 4.7048 11.2121C4.86795 10.2738 5.02797 9.33459 5.19008 8.39537C5.24411 8.08229 5.30335 7.77018 5.35634 7.45711C5.41349 7.11786 5.22853 6.91625 4.85548 6.90947C4.59258 6.90462 4.32863 6.90075 4.06573 6.91044C3.90986 6.91625 3.87661 6.85907 3.90051 6.73015C3.98052 6.30077 4.05846 5.86944 4.13327 5.43908C4.14782 5.35766 4.19355 5.32665 4.27668 5.32761C4.43047 5.32858 4.5853 5.32761 4.73909 5.32761C6.28741 5.32761 7.83676 5.33052 9.38508 5.32471C9.54926 5.32374 9.63863 5.3722 9.71552 5.50693C10.4263 6.74082 11.1454 7.96986 11.8613 9.2018C11.8977 9.26481 11.9341 9.32587 12.0151 9.37918C12.0879 8.90036 12.1606 8.43608 12.2282 7.97082C12.251 7.81186 12.2884 7.6529 12.251 7.4891C12.171 7.13628 11.9112 6.92401 11.5247 6.90947C11.3262 6.90172 11.1256 6.90075 10.9272 6.90947C10.789 6.91529 10.7412 6.8707 10.764 6.74275C10.8347 6.32984 10.9022 5.91596 10.9677 5.50208C10.9874 5.37608 11.0415 5.32374 11.1932 5.32374C13.2112 5.32955 15.2282 5.32955 17.2462 5.32471C17.4218 5.32471 17.4561 5.37996 17.428 5.52632C17.3521 5.92663 17.2763 6.32791 17.2202 6.73112C17.1994 6.88524 17.1287 6.91529 16.9833 6.91044C16.7266 6.90172 16.4689 6.90462 16.2122 6.90947C15.8153 6.91625 15.6074 7.06552 15.542 7.42609ZM8.77511 12.7745C8.69197 12.7707 8.60884 12.7736 8.52571 12.7736C8.10071 12.7736 8.09863 12.7736 8.14227 12.3917C8.16513 12.1901 8.19734 11.9894 8.22956 11.7898C8.23683 11.7452 8.23475 11.6841 8.2971 11.6735C8.36257 11.6618 8.37712 11.7229 8.39998 11.7626C8.56416 12.0466 8.72211 12.3326 8.89045 12.6136C8.97358 12.7532 8.91331 12.7804 8.77511 12.7745ZM11.3709 7.23515C11.8 7.23999 11.9341 7.38344 11.8915 7.77212C11.8749 7.92042 11.8582 8.06872 11.8406 8.21799C11.8364 8.25482 11.825 8.29262 11.7834 8.30329C11.7367 8.31492 11.7169 8.27615 11.6982 8.2461C11.5299 7.95725 11.3501 7.67326 11.1994 7.37666C11.0882 7.15954 11.3106 7.26907 11.3709 7.23515Z" fill="white"/>
<path d="M16.4166 5.93078C16.4551 5.74543 16.4058 5.71388 16.233 5.71487C14.8049 5.72078 13.3767 5.71782 11.9475 5.71782C11.4599 5.71782 11.4668 5.71881 11.3839 6.19992C11.3593 6.34386 11.4027 6.36949 11.528 6.36851C11.7294 6.36654 11.9317 6.35076 12.1311 6.38625C12.4647 6.44442 12.6483 6.6416 12.6759 6.97779C12.6887 7.13553 12.6818 7.29327 12.6601 7.452C12.5989 7.90452 12.5456 8.35704 12.4884 8.81055C12.4005 9.51151 12.3127 10.2125 12.2229 10.9134C12.217 10.9588 12.2239 11.0249 12.1686 11.0387C12.0946 11.0564 12.0887 10.9775 12.064 10.9341C11.1342 9.25617 10.2045 7.57819 9.27967 5.89725C9.20466 5.7612 9.11385 5.71585 8.95988 5.71684C7.78141 5.72275 6.60393 5.72078 5.42546 5.7198C4.929 5.7198 4.929 5.71979 4.84708 6.20288C4.8451 6.21471 4.84412 6.22753 4.84115 6.23936C4.81944 6.33499 4.85695 6.37245 4.95466 6.36949C5.11949 6.36555 5.28432 6.36358 5.44914 6.37147C5.95152 6.39809 6.22097 6.70568 6.16077 7.20651C6.10549 7.65903 6.03048 8.10958 5.95843 8.56013C5.73044 9.98474 5.49849 11.4084 5.27148 12.832C5.20338 13.2599 4.99315 13.5201 4.65264 13.5753C4.49669 13.601 4.33877 13.6177 4.17987 13.6177C3.68045 13.6167 3.68933 13.6207 3.58274 14.1018C3.54622 14.2684 3.60149 14.2832 3.74066 14.2832C4.50953 14.2783 5.27938 14.2812 6.04825 14.2812C6.71348 14.2812 7.37872 14.2812 8.04395 14.2812C8.5562 14.2812 8.55225 14.2812 8.62036 13.7646C8.63713 13.6414 8.59667 13.6128 8.4881 13.6158C8.32919 13.6197 8.17029 13.6217 8.01237 13.6148C7.4784 13.5921 7.22474 13.2973 7.28002 12.7699C7.28791 12.6969 7.29087 12.624 7.30272 12.552C7.49321 11.3995 7.68567 10.247 7.87813 9.09448C7.88702 9.04223 7.88208 8.96829 7.94229 8.95646C8.00842 8.94364 8.02026 9.0235 8.04395 9.06688C8.96679 10.7419 9.88963 12.4169 10.8065 14.0959C10.8796 14.23 10.9585 14.2871 11.1174 14.2852C11.8616 14.2763 12.6068 14.2743 13.351 14.2862C13.5385 14.2891 13.5988 14.2329 13.6264 14.0525C13.7478 13.2401 13.886 12.4297 14.0163 11.6193C14.1574 10.736 14.2956 9.85263 14.4377 8.96928C14.5403 8.33239 14.643 7.69453 14.7575 7.05961C14.8345 6.62878 15.0467 6.43851 15.4809 6.38625C15.6201 6.36949 15.7613 6.36949 15.9014 6.36949C16.3367 6.36456 16.3258 6.36358 16.4166 5.93078Z" fill="white"/>
</g>
<defs>
<clipPath id="clip0_6664_76616">
<rect width="20" height="20" fill="white"/>
</clipPath>
</defs>
</svg>
