<svg width="20" height="20" viewBox="0 0 20 20" fill="none" xmlns="http://www.w3.org/2000/svg">
<circle cx="10" cy="10" r="10" fill="#F15A28"/>
<path d="M15.3971 9.52963L11.6951 8.18509C11.1043 7.97501 10.1592 7.63888 9.56841 7.42879L5.8664 6.04224C5.27566 5.83215 4.92121 6.2103 5.03936 6.84056L6.65406 15.454C6.69345 15.6221 6.77221 15.7481 6.89036 15.8322C7.00851 15.9162 7.12666 16.0002 7.28419 16.0002C7.44172 16.0002 7.55987 15.9582 7.67802 15.8742C7.79617 15.7901 7.87494 15.6641 7.91432 15.496L8.07185 14.9498L8.70198 12.975L9.8047 9.52963C9.96224 8.98341 10.3954 8.89938 10.7499 9.31955L12.9947 12.0506L13.0735 12.1767C13.1523 12.2607 13.231 12.3448 13.3492 12.3868C13.4673 12.4288 13.5855 12.4288 13.7036 12.4288C13.8218 12.3868 13.9399 12.3448 14.0581 12.2187L15.6334 10.7481C16.106 10.2859 15.9878 9.73972 15.3971 9.52963Z" fill="white"/>
</svg>
