<svg width="20" height="20" viewBox="0 0 20 20" fill="none" xmlns="http://www.w3.org/2000/svg">
<g clip-path="url(#clip0_5937_74790)">
<rect width="20" height="20" rx="10" fill="#274472"/>
<path d="M5.49279 12.7991C5.49279 12.7991 9.87768 13.3355 12.6137 12.1424L17.3847 10.4587C17.3847 10.4587 18.3674 9.98236 18.0683 9.27344L9.03425 11.7911L5.49121 12.7991H5.49279Z" fill="#4D5152"/>
<path d="M5.49316 12.7995L11.7026 10.0112C11.7026 10.0112 15.9118 7.64393 18.0702 9.27383L7.91427 12.4846C7.91427 12.4846 6.91418 12.9055 5.49316 12.8011V12.7995Z" fill="#B4B2B3"/>
<path d="M17.0479 8.95117L16.2979 9.3452L16.4735 9.54775L17.279 9.17904L17.0479 8.95117Z" fill="#746072"/>
<path d="M11.5498 12.3833L11.7698 13.1302L13.3015 12.7472C13.6433 12.6618 13.8506 12.3137 13.762 11.9718L13.6671 11.6016L11.5498 12.3833Z" fill="#4D5152"/>
<path d="M18.0331 9.20419C15.8763 7.57271 11.6655 9.9416 11.6655 9.9416L5.73455 12.6048C5.65701 12.6396 5.676 12.7536 5.75986 12.7615C6.65551 12.8438 9.3567 13.0178 11.561 12.4244L11.7683 13.1333L13.3001 12.7504C13.6419 12.665 13.8492 12.3168 13.7606 11.975L13.6862 11.6854L17.3479 10.3926C17.3479 10.3926 18.3306 9.91628 18.0315 9.20735L18.0331 9.20419Z" stroke="white" stroke-width="0.156553" stroke-miterlimit="10"/>
<path d="M13.1758 10.9851L5.40291 13.8619C5.38867 13.8682 5.47729 14.0423 5.49311 14.0376L13.7391 11.3554C13.8894 11.3079 13.9812 11.1402 13.9116 10.9977C13.8499 10.8711 13.6663 10.792 13.1742 10.9851H13.1758Z" fill="#9F7683"/>
<path d="M6.89539 12.3888L5.38892 13.0977C5.35411 13.1135 5.37151 13.1673 5.40949 13.1578L7.05679 12.767C7.20554 12.7322 7.30682 12.661 7.28624 12.5106C7.27042 12.3935 7.21029 12.2653 6.8938 12.3872L6.89539 12.3888Z" fill="#9F7683"/>
<path d="M7.03619 12.2492L5.85254 10.1699L6.58837 10.1445L8.32586 11.7222" fill="#685562"/>
<path d="M15.9665 4.9813C14.6103 3.86252 12.8728 3.18999 10.9787 3.18999C6.64916 3.18999 3.13935 6.70139 3.13935 11.0309C3.13935 12.8127 3.73276 14.4553 4.73443 15.7718C2.98902 14.3334 1.875 12.1544 1.875 9.71591C1.875 5.38482 5.38639 1.875 9.71589 1.875C12.2683 1.875 14.5344 3.09347 15.9665 4.9813Z" fill="#2C74CB"/>
</g>
<defs>
<clipPath id="clip0_5937_74790">
<rect width="20" height="20" fill="white"/>
</clipPath>
</defs>
</svg>
