<svg width="20" height="20" viewBox="0 0 20 20" fill="none" xmlns="http://www.w3.org/2000/svg">
<g clip-path="url(#clip0_6550_73783)">
<rect width="20" height="20" rx="10" fill="#7CC68A"/>
<path d="M10.7696 11.0023C10.7211 10.9469 10.6818 11.0051 10.6465 11.019C10.0504 11.2494 9.45488 11.4823 8.86158 11.7199C8.7788 11.753 8.71994 11.7482 8.64534 11.6995C7.20945 10.7549 5.77167 9.81348 4.33421 8.8708C4.29581 8.84562 4.24828 8.82988 4.22656 8.76127C4.90674 8.6061 5.5844 8.45155 6.26237 8.2967C6.31367 8.2967 6.36529 8.2967 6.4166 8.29638C7.01525 8.6574 7.61485 9.01716 8.21256 9.38007C9.03312 9.87863 9.85304 10.3788 10.6708 10.8824C10.7438 10.9274 10.7954 10.9258 10.8697 10.8915C11.0302 10.8169 11.1967 10.7555 11.3607 10.6885C11.3808 10.6834 11.4022 10.6806 11.4211 10.6727C12.6188 10.1802 13.8164 9.68726 15.014 9.19436C15.1695 9.13047 15.3247 9.06563 15.4896 8.99702C15.4625 8.97121 15.4562 8.96208 15.4474 8.95736C14.1189 8.21769 12.7903 7.47835 11.4611 6.73994C11.4293 6.72231 11.3963 6.67636 11.3516 6.72169C10.7381 6.91148 10.1253 7.10222 9.51122 7.29012C9.227 7.377 8.94089 7.4582 8.65573 7.54161C8.69854 7.52808 8.60946 7.54444 8.65573 7.54161C9.03941 7.41854 8.27111 7.66216 8.65573 7.54161C8.49269 7.59103 6.58184 8.25641 6.4166 8.29638C5.9429 7.85951 5.3178 7.35906 4.84536 6.92092C4.81294 6.89071 4.75125 6.86741 4.76478 6.81548C4.778 6.76481 4.84284 6.77205 4.88565 6.76071C6.20256 6.41134 7.52011 6.06386 8.83734 5.71606C9.24778 5.60778 9.65915 5.50329 10.0674 5.38746C10.1867 5.35378 10.2565 5.3777 10.3343 5.47433C10.6273 5.83724 10.9367 6.18692 11.2266 6.55235C11.3239 6.67479 11.383 6.6644 11.4957 6.57816C11.9036 6.26624 12.3213 5.96691 12.7327 5.65909C12.8038 5.6059 12.8583 5.59299 12.9429 5.63611C14.4065 6.37766 15.8723 7.11575 17.3372 7.8551C17.3677 7.87052 17.4093 7.87556 17.4231 7.93284C16.8106 8.28159 16.1949 8.63191 15.5796 8.98191C15.5824 8.99576 15.5853 9.00992 15.5878 9.02377C16.3967 9.14338 17.2056 9.26298 18.0145 9.38259C18.0183 9.3936 18.0224 9.4043 18.0262 9.41532C17.9553 9.44837 17.8852 9.48299 17.8131 9.51384C17.0618 9.83583 16.3101 10.1569 15.5588 10.4795C15.5311 10.4915 15.5075 10.5135 15.482 10.5308C14.5819 10.9135 13.6795 11.2919 12.7831 11.6831C12.6175 11.7555 12.4834 11.7482 12.3241 11.6768C11.8092 11.4455 11.2883 11.2264 10.7696 11.0023Z" fill="white"/>
<path d="M10.7698 11.0024C11.2885 11.2262 11.8094 11.4453 12.3246 11.6773C12.4839 11.749 12.618 11.7559 12.7836 11.6836C13.68 11.2923 14.5824 10.914 15.4825 10.5312C15.4416 11.682 15.4001 12.833 15.362 13.9837C15.3595 14.0609 15.3252 14.0933 15.2635 14.1235C13.9809 14.7565 12.6986 15.3897 11.4179 16.0262C11.3228 16.0734 11.2803 16.0825 11.2504 15.9572C11.1865 15.6903 11.037 15.4697 10.8283 15.2919C10.7776 15.2487 10.7433 15.2072 10.7437 15.1351C10.7537 13.7581 10.7616 12.3804 10.7698 11.0024ZM12.0785 14.6787C11.9388 14.7499 11.8371 14.7829 11.7291 14.8622C11.7291 14.8622 12.0193 14.7949 12.15 14.7184C12.2088 14.6973 12.268 14.6771 12.3262 14.6545C12.9878 14.398 13.6494 14.1411 14.3107 13.8846C14.3107 13.8846 14.8228 13.6803 14.8367 13.6958C14.249 14.0102 13.1773 14.5601 12.5897 14.8745C12.4801 14.9258 12.3816 14.9988 12.2721 15.0501C12.2655 15.0369 12.2787 15.0633 12.2721 15.0501C12.3996 15.0105 12.6007 14.9475 12.5903 14.9406C12.6104 14.934 12.6303 14.9271 12.6504 14.9204C12.6611 14.9154 12.6718 14.9104 12.6825 14.9053C12.81 14.8572 12.9381 14.8115 13.0643 14.7606C13.7102 14.4996 14.3677 14.2673 15.0057 13.9866C15.0825 13.9529 15.1347 13.918 15.1379 13.8182C15.1668 12.8761 15.1996 11.9341 15.2355 10.992C15.2405 10.8614 15.22 10.8293 15.086 10.8901C14.289 11.2514 13.4876 11.6036 12.6894 11.9624C12.5963 12.0043 12.5198 12.0071 12.4241 11.9624C11.9923 11.7604 11.5541 11.5712 11.1223 11.3691C11.003 11.3134 10.9797 11.3436 10.987 11.4607C10.9939 11.5756 10.9844 11.6348 10.986 11.8063C10.9728 11.9423 11.0317 11.9637 11.1497 11.947C11.2696 11.9303 11.512 11.908 11.512 11.908C11.512 11.908 11.5516 11.8973 11.5658 11.9146C11.5658 11.9146 11.3571 12.172 11.241 12.2592C11.229 12.2463 11.2529 12.2721 11.241 12.2592C11.4991 12.1919 11.8277 12.1195 12.0858 12.0521C12.0858 12.0521 11.686 12.3247 11.5485 12.4805C11.5406 12.4859 11.5324 12.4915 11.5246 12.4969C11.5233 12.4975 11.5283 12.5003 11.5246 12.4969C11.5327 12.4925 11.5507 12.4959 11.5582 12.4903L11.7077 12.4493C12.5875 12.1012 13.4672 11.7528 14.3469 11.4047C14.3759 11.4129 14.905 11.1689 14.9176 11.2045C14.0344 11.6747 12.6687 12.4176 11.7855 12.8878C11.7789 12.8739 11.7921 12.9016 11.7855 12.8878C12.6693 12.5365 14.0791 11.9904 14.9629 11.6392C14.9764 11.653 14.4838 11.8894 14.4838 11.8894C14.4306 11.9206 14.3781 11.9539 14.3236 11.9832C13.5251 12.4119 12.7266 12.8396 11.9281 13.268C11.8299 13.2973 11.7446 13.3498 11.6643 13.4137C11.6643 13.4137 11.8509 13.3936 11.9299 13.336C11.9501 13.3291 11.9699 13.3221 11.9901 13.3152C12.0008 13.3102 12.0115 13.3051 12.0222 13.3001C12.0568 13.2881 12.0917 13.2774 12.1257 13.2642C12.8858 12.9677 13.646 12.6709 14.4061 12.3741C14.4061 12.3741 14.9484 12.1519 14.9632 12.1686C14.5112 12.4091 13.5468 12.9051 13.0945 13.1449C12.7253 13.3407 12.3558 13.5355 11.986 13.7304C11.9473 13.7508 11.8893 13.76 11.9564 13.815C11.9564 13.815 11.9564 13.815 11.9894 13.8021C12.7952 13.4855 13.601 13.1692 14.407 12.8525C14.407 12.8525 14.9235 12.6511 14.9374 12.6649C14.0363 13.1481 12.6463 13.8604 11.7452 14.3432C11.6674 14.3747 11.5365 14.4905 11.5368 14.4798C11.6313 14.4549 11.5368 14.4798 11.8069 14.3769C12.6532 14.0476 13.4999 13.7187 14.3463 13.3895C14.3463 13.3895 14.9358 13.1352 14.949 13.1685C14.6532 13.3256 13.8273 13.7445 13.5314 13.9022C13.0467 14.161 12.5626 14.42 12.0785 14.6787Z" fill="white"/>
<path d="M11.1083 16.2448C11.1083 16.6656 10.9167 16.9243 10.6249 16.9555C10.5009 16.9687 10.3857 16.9391 10.2758 16.8837C9.88271 16.6854 9.62682 16.1472 9.71904 15.7138C9.81032 15.2848 10.1971 15.112 10.5708 15.3433C10.9242 15.5621 11.0819 15.8982 11.1083 16.2448ZM10.8578 16.2611C10.8742 15.9974 10.7634 15.7922 10.601 15.6153C10.4792 15.4828 10.3186 15.4044 10.1355 15.4516C9.96203 15.4963 9.91104 15.649 9.86981 15.8076C9.79867 16.0808 10.0039 16.5853 10.3152 16.7153C10.5349 16.8069 10.7376 16.7348 10.8238 16.512C10.8562 16.427 10.8647 16.3395 10.8578 16.2611Z" fill="white" fill-opacity="0.61"/>
<path d="M15.4896 13.5881C15.4896 13.5258 15.4896 13.4638 15.4896 13.375C15.6387 13.4666 15.7338 13.5821 15.8037 13.7219C15.8968 13.9082 15.9481 14.1005 15.8997 14.3111C15.8566 14.498 15.7637 14.6403 15.5664 14.6837C15.381 14.7246 15.1037 14.6072 15.0102 14.4615C14.9554 14.3762 15.0291 14.3816 15.0731 14.3643C15.1185 14.3995 15.161 14.4395 15.2097 14.4688C15.4351 14.6041 15.6419 14.522 15.702 14.2657C15.7637 14.002 15.6834 13.7757 15.4896 13.5881Z" fill="white" fill-opacity="0.61"/>
<path d="M7.11692 13.7886C7.11094 13.9772 7.06719 14.1207 6.90887 14.1909C6.75874 14.2576 6.62245 14.2053 6.50127 14.1084C6.29448 13.9432 6.18652 13.6344 6.25387 13.4081C6.32343 13.1736 6.52802 13.0776 6.74426 13.1887C6.99606 13.3187 7.09898 13.5434 7.11692 13.7886ZM6.95766 13.7877C6.95703 13.5796 6.88715 13.4358 6.74142 13.3281C6.58531 13.2129 6.42541 13.2627 6.35711 13.4414C6.28692 13.6246 6.35837 13.7782 6.45091 13.9262C6.52928 14.0514 6.64857 14.127 6.79462 14.0801C6.93122 14.0363 6.96741 13.9104 6.95766 13.7877Z" fill="white" fill-opacity="0.61"/>
<path d="M15.4895 13.5859C15.6834 13.7735 15.7636 13.9998 15.7016 14.2639C15.6415 14.5201 15.4347 14.602 15.2094 14.4669C15.1606 14.4377 15.1181 14.3977 15.0728 14.3624C15.1366 14.3073 15.2122 14.2532 15.2921 14.2589C15.4719 14.2708 15.4986 14.1597 15.481 14.0332C15.4605 13.8815 15.4816 13.7345 15.4895 13.5859Z" fill="white"/>
<path d="M6.98389 13.2148C6.99359 13.2242 7.00298 13.2339 7.01268 13.2433C7.00298 13.2339 6.99359 13.2245 6.98389 13.2148Z" fill="#B1DAD6"/>
<path d="M6.95215 13.1836C6.96154 13.193 6.97124 13.2027 6.98063 13.2121C6.97124 13.2024 6.96185 13.193 6.95215 13.1836Z" fill="#B1DAD6"/>
<path d="M7.55078 12.4416C7.56706 12.4322 7.57582 12.4398 7.58114 12.4551C7.57112 12.4507 7.5608 12.446 7.55078 12.4416Z" fill="#B1DAD6"/>
<path d="M6.4165 8.29672C6.72181 8.15603 7.04884 8.07892 7.36548 7.9719C7.79291 7.82145 8.65532 7.54258 8.65532 7.54258C8.94049 7.45886 9.2266 7.37797 9.51081 7.2911C10.1249 7.10319 10.7377 6.91214 11.3512 6.72266C11.3534 6.78529 11.3571 6.84793 11.3575 6.91025C11.3587 8.16988 11.3597 9.42951 11.3606 10.6891C11.1966 10.7559 11.0301 10.8176 10.8696 10.8922C10.7953 10.9265 10.7437 10.928 10.6707 10.883C9.85295 10.3794 9.03334 9.87929 8.21247 9.38072C7.61507 9.0175 7.01547 8.65774 6.4165 8.29672Z" fill="white" fill-opacity="0.61"/>
<path d="M12.6504 14.9213C12.661 14.9163 12.6717 14.9113 12.6823 14.9062C12.6717 14.9116 12.661 14.9166 12.6504 14.9213Z" fill="#B1DAD6"/>
<path d="M9.70511 12.0859C9.70872 12.0859 9.71234 12.0859 9.71628 12.0859C9.71431 12.0925 9.71234 12.0994 9.71037 12.106C9.70675 12.1027 9.70215 12.0997 9.69985 12.0955C9.69887 12.0935 9.70314 12.0892 9.70511 12.0859Z" fill="#FEFFFE"/>
<path d="M10.3853 16.5768C10.3892 16.5785 10.3938 16.5795 10.3968 16.5818C10.3984 16.5831 10.3977 16.587 10.3984 16.59C10.3948 16.5847 10.3915 16.5795 10.3879 16.5742L10.3853 16.5768Z" fill="#F1F8F6"/>
<path d="M6.60992 13.4956C6.59302 13.5113 6.57205 13.5419 6.5539 13.5081C6.53575 13.4743 6.57017 13.4574 6.59677 13.4434C6.60115 13.4609 6.60554 13.4784 6.60992 13.4956Z" fill="white"/>
<path d="M10.3611 16.6467C10.5834 16.6467 10.7636 16.4014 10.7636 16.0988C10.7636 15.7961 10.5834 15.5508 10.3611 15.5508C10.1387 15.5508 9.9585 15.7961 9.9585 16.0988C9.9585 16.4014 10.1387 16.6467 10.3611 16.6467Z" fill="white"/>
<path d="M6.63274 14.0197C6.76781 14.0197 6.87731 13.8631 6.87731 13.67C6.87731 13.4769 6.76781 13.3203 6.63274 13.3203C6.49768 13.3203 6.38818 13.4769 6.38818 13.67C6.38818 13.8631 6.49768 14.0197 6.63274 14.0197Z" fill="white"/>
<path d="M6.52148 13.5723C6.54981 13.6305 6.55611 13.6887 6.52148 13.7769C6.52148 13.6881 6.52148 13.6302 6.52148 13.5723Z" fill="white"/>
<path d="M10.8586 16.2628C10.8749 15.9991 10.7641 15.7938 10.6017 15.617C10.4799 15.4844 10.3194 15.4061 10.1362 15.4533C9.96279 15.498 9.9118 15.6506 9.87056 15.8093C9.79943 16.0825 10.0046 16.587 10.3159 16.717C10.5356 16.8086 10.7383 16.7365 10.8246 16.5137C10.857 16.4287 10.8655 16.3412 10.8586 16.2628ZM10.0119 16.0891C9.99993 15.9852 9.99237 15.8779 10.0475 15.7816C10.1047 15.6815 10.1803 15.611 10.3361 15.6538C10.2505 15.729 10.1797 15.8014 10.1532 15.8946C10.1532 15.8949 10.1532 15.8952 10.1529 15.8955C10.1494 15.9075 10.1469 15.9201 10.145 15.9326C10.0887 16.2468 10.2876 16.4857 10.3704 16.5694C10.1954 16.5237 10.038 16.3188 10.0119 16.0891ZM10.575 16.2789C10.5542 16.401 10.4985 16.446 10.3905 16.4281C10.1548 16.3657 10.213 15.9219 10.2136 15.9179C10.2354 15.8637 10.269 15.8197 10.3399 15.8171C10.4277 15.814 10.4806 15.8788 10.5215 15.9471C10.5828 16.0494 10.5945 16.1637 10.575 16.2789Z" fill="white"/>
<path d="M6.95745 13.7871C6.95682 13.5791 6.88695 13.4352 6.74122 13.3276C6.5851 13.2124 6.42521 13.2621 6.35691 13.4409C6.28672 13.6241 6.35817 13.7777 6.4507 13.9256C6.52907 14.0509 6.64837 14.1264 6.79441 14.0795C6.93101 14.0358 6.96721 13.9099 6.95745 13.7871ZM6.45165 13.4878C6.49571 13.4075 6.53348 13.3962 6.59643 13.4441C6.31725 13.6014 6.59297 13.9143 6.60902 13.9303V13.9307C6.45448 13.8523 6.37453 13.6282 6.45165 13.4878ZM6.62917 13.9467C6.62256 13.942 6.63546 13.9514 6.62917 13.9467C6.62759 13.9612 6.60871 13.9593 6.62917 13.9467ZM6.66001 13.8715C6.61972 13.8715 6.61091 13.8979 6.60902 13.93C6.46235 13.7261 6.60965 13.4966 6.60965 13.4966C6.7025 13.519 6.76262 13.5728 6.78087 13.6697C6.80039 13.7739 6.81329 13.8718 6.66001 13.8715Z" fill="white"/>
<path d="M7.29182 13.7957C7.3532 13.8325 7.41363 13.8712 7.47343 13.9103C7.65316 14.0277 7.82973 14.1504 8.02142 14.2489L8.02267 14.248L8.02803 14.2524C8.02803 14.2521 8.02834 14.2518 8.02834 14.2518L8.49008 14.5382L9.31189 14.9612C9.31189 14.9474 7.48382 13.8269 7.43189 13.7951C7.4215 13.7812 7.41426 13.7642 7.41363 13.7416C7.35824 13.7195 7.30253 13.6975 7.24713 13.6758C7.238 13.7243 7.24146 13.7655 7.29182 13.7957Z" fill="white"/>
<path d="M10.5127 12.0522C10.5123 12.045 10.5111 11.9949 10.5098 11.9329C10.513 11.9134 10.5136 11.8901 10.5111 11.8621C10.5089 11.8357 10.5076 11.8092 10.5064 11.7828C10.5051 11.7211 10.5042 11.6707 10.5038 11.6594C10.5042 11.5958 10.5067 11.5322 10.5108 11.469C10.5183 11.3494 10.4865 11.3267 10.3716 11.3679C9.86867 11.5486 9.36192 11.7192 8.85895 11.8992C8.76012 11.9345 8.68489 11.9241 8.59645 11.8681C8.06043 11.5297 7.52095 11.1964 6.98209 10.8628C6.9396 10.8366 6.90309 10.791 6.85682 10.8026C6.85682 11.0371 6.8521 11.2669 6.85777 11.4964C6.87067 12.0141 6.8883 12.5322 6.90435 13.05C6.88893 13.1057 6.916 13.146 6.95282 13.1825C6.96227 13.1919 6.97202 13.2017 6.98147 13.2111L6.98398 13.214C6.99374 13.2234 7.00318 13.2332 7.01294 13.2426L7.01546 13.2451C7.02459 13.2549 7.03371 13.2643 7.04284 13.2741C7.1486 13.3893 7.18228 13.541 7.24743 13.6766C7.30283 13.6987 7.35854 13.7207 7.41393 13.7424C7.55179 13.8047 7.68965 13.8671 7.82751 13.9291C7.97608 13.9961 8.12464 14.0628 8.2732 14.1299L9.91337 14.878L8.65279 14.1157L8.64807 14.1132C8.22536 13.8554 7.79919 13.603 7.36924 13.3568C7.24397 13.2653 7.07526 13.2347 6.98933 13.0877C7.13066 13.1689 7.29653 13.2001 7.4281 13.3015C8.10166 13.6077 8.77491 13.9136 9.44848 14.2199L9.96593 14.472L9.48562 14.1557C9.48593 14.1551 9.48625 14.1544 9.48688 14.1541C8.779 13.7238 8.07145 13.2933 7.36357 12.863C7.27796 12.8196 7.19235 12.7761 7.10674 12.7327C7.23075 12.7179 7.33587 12.7563 7.4303 12.8281C8.10796 13.1397 8.78561 13.4516 9.46327 13.7632L9.96624 14.0386L9.47272 13.7018C9.47303 13.6999 9.47334 13.6984 9.47366 13.6965C9.44879 13.6814 9.42393 13.6666 9.39906 13.6515C8.73966 13.2539 8.08026 12.8564 7.42086 12.4585C7.31793 12.4013 7.21501 12.344 7.07211 12.2647C7.26883 12.2713 7.39284 12.3478 7.51623 12.4255C7.52787 12.4309 7.5392 12.4359 7.55085 12.4412C7.56722 12.4318 7.57603 12.4393 7.58138 12.4548C7.59208 12.4598 7.60278 12.4648 7.61348 12.4699C7.62481 12.4746 7.63615 12.4796 7.64748 12.4844C7.74694 12.5306 7.8464 12.5775 7.94649 12.6232C8.47968 12.8658 9.01286 13.1082 9.54605 13.3509L9.99457 13.5725L9.52371 13.2649L9.52276 13.2643C9.47744 13.2338 9.4318 13.2036 9.3849 13.1752C8.75131 12.7894 8.11708 12.4044 7.48318 12.0192C7.37585 11.9606 7.26883 11.9021 7.1615 11.8435C7.30471 11.8338 7.42212 11.8889 7.53165 11.9653C7.68871 12.0374 7.84577 12.1095 8.00252 12.1819C8.51556 12.4189 9.02829 12.6562 9.54133 12.8932L9.99457 13.1224L9.53157 12.8221C9.53126 12.8215 9.53126 12.8205 9.53094 12.8199C9.51395 12.8095 9.49727 12.7991 9.48027 12.7887H9.47995C9.1032 12.5577 8.72644 12.3267 8.34969 12.0956C8.11425 11.9515 7.87787 11.8083 7.64307 11.6629C7.5732 11.6197 7.57509 11.6166 7.60939 11.5562C7.6223 11.5612 7.6352 11.5665 7.64779 11.5716C8.2263 11.8451 8.80104 12.1277 9.41354 12.3235L9.41858 12.3257L10.2605 12.5942L10.1718 12.5108C10.18 12.5121 10.1881 12.5139 10.1966 12.5152C10.1419 12.4699 10.0877 12.4252 10.0339 12.3808L9.73931 12.1035L10.4277 12.3005C10.41 12.2527 10.3836 12.2143 10.355 12.1803L10.2287 11.9716C10.2284 11.9716 10.5136 12.073 10.5127 12.0522Z" fill="white"/>
<path d="M6.62825 3.13998L8.62156 4.69642L8.84756 4.40496L5.07275 1.875L6.62825 3.13998Z" fill="white"/>
<path d="M11.0516 5.10434L7.36523 2.60742L10.6859 5.2337C10.6859 5.2337 10.6859 5.2337 10.6859 5.23401C10.8077 5.32812 10.9298 5.42255 11.0516 5.51666C11.0604 5.52327 11.0695 5.52893 11.0793 5.53397L11.4359 5.80277L11.5306 5.67152C11.5413 5.65767 11.553 5.64225 11.5672 5.62368C11.5772 5.61046 11.5854 5.59818 11.592 5.58653L11.5926 5.58591L11.6446 5.50564L11.0516 5.10434Z" fill="white"/>
<path d="M5.85049 12.0264L1.82861 9.35352L5.633 12.332L5.85049 12.0264Z" fill="white"/>
<path d="M6.15403 13.138L2.13184 10.4648L5.93622 13.4433L6.15403 13.138Z" fill="white"/>
</g>
<defs>
<clipPath id="clip0_6550_73783">
<rect width="20" height="20" fill="white"/>
</clipPath>
</defs>
</svg>
