<svg width="20" height="20" viewBox="0 0 20 20" fill="none" xmlns="http://www.w3.org/2000/svg">
<g clip-path="url(#clip0_5297_68648)">
<rect width="20" height="20" rx="10" fill="#FCE41E"/>
<path d="M8.625 11.6848C8.5735 11.967 8.29541 13.1336 8.20272 13.4375H3.125V13.0848C4.04167 12.998 4.10347 12.9274 4.10347 12.0538V7.97874C4.10347 7.06714 3.98502 7.00745 3.28465 6.94233V6.58421H6.46723C7.4766 6.58421 7.84223 6.57335 7.97613 6.5625C7.98643 6.77955 8.03277 7.61518 8.07397 8.2392L7.71349 8.29346C7.62594 7.93533 7.47659 7.5772 7.32725 7.37643C7.15216 7.11597 6.98736 7.05086 6.44663 7.05086H5.68961C5.33427 7.05086 5.30337 7.07799 5.30337 7.41441V9.66086H6.32818C6.95646 9.66086 7.03886 9.5035 7.1779 8.76554H7.53839V11.0554H7.1779C7.02856 10.2849 6.94616 10.1655 6.31789 10.1655H5.30337V12.0755C5.30337 12.8081 5.39092 12.9708 5.97285 12.9817H6.76077C7.33755 12.9817 7.47144 12.9003 7.69289 12.6181C7.91948 12.3414 8.12547 11.9399 8.27996 11.5926L8.625 11.6848Z" fill="#EE3524"/>
<path d="M10 6.5625H13.0199V6.92148C12.2488 7.0085 12.1257 7.06834 12.1257 7.97666V9.76612C12.3399 9.71717 12.5862 9.54856 12.9128 9.23309C13.5767 8.57496 14.1175 7.9549 14.487 7.50346C14.76 7.16624 14.7065 7.01395 14.2407 6.94868L14.0104 6.92148V6.5625H16.6662V6.92148C15.9273 7.01394 15.5792 7.06834 14.9099 7.79173C14.5351 8.17791 13.9194 8.8034 13.3893 9.36907C14.0907 10.3046 15.0224 11.5121 15.7345 12.3823C16.1682 12.9153 16.3074 12.9915 16.875 13.0731V13.4321H14.9474C14.3852 12.7195 13.491 11.5284 12.6825 10.446C12.4576 10.136 12.2863 10.087 12.1203 10.1142V12.0342C12.1203 12.9371 12.2006 12.9861 13.0252 13.0785V13.4375H10V13.0785C10.8032 12.9969 10.9049 12.9371 10.9049 12.0342V7.9821C10.9049 7.07377 10.8139 6.99763 10 6.92692V6.5625V6.5625Z" fill="#EE3524"/>
</g>
<defs>
<clipPath id="clip0_5297_68648">
<rect width="20" height="20" fill="white"/>
</clipPath>
</defs>
</svg>
