<svg width="21" height="20" viewBox="0 0 21 20" fill="none" xmlns="http://www.w3.org/2000/svg">
<g clip-path="url(#clip0_4583_53653)">
<rect x="0.922852" width="20" height="20" rx="10" fill="#00B3B2"/>
<path d="M9.15137 14.1834L11.2139 15.351L15.6414 12.7367V4.60156L18.2138 6.09749V14.2316L11.2139 18.3068L9.15137 17.0527V14.1834Z" fill="white"/>
<path d="M13.2324 6.12339L11.1698 4.95575L6.74235 7.57008V15.7052L4.16992 14.2093V6.07524L11.1698 2L13.2324 3.25409V6.12339Z" fill="white"/>
<path d="M9.15137 14.1816L11.2139 15.3493V18.305L9.15137 17.0509V14.1816Z" fill="#00B3B2" fill-opacity="0.09"/>
<path d="M9.52832 9.13672L11.2065 10.0078V12.215L9.52832 11.2794V9.13672Z" fill="#F4606C"/>
<path d="M12.8833 9.13672L11.2051 10.0078V12.215L12.8833 11.2794V9.13672Z" fill="#E45863"/>
<path d="M9.52832 9.13289L11.2065 8.22461L12.8847 9.13289L11.2065 10.004L9.52832 9.13289Z" fill="#F96E7A"/>
</g>
<defs>
<clipPath id="clip0_4583_53653">
<rect width="20" height="20" fill="white" transform="translate(0.922852)"/>
</clipPath>
</defs>
</svg>
