<svg width="20" height="20" viewBox="0 0 20 20" fill="none" xmlns="http://www.w3.org/2000/svg">
<path d="M10 20C7.34783 20 4.8043 18.9464 2.92893 17.0711C1.05357 15.1957 -5.53044e-07 12.6522 -4.37114e-07 10C-3.21184e-07 7.34784 1.05357 4.8043 2.92893 2.92893C4.80429 1.05357 7.34783 -1.52578e-07 10 -4.37114e-07L10 10L10 20Z" fill="#00A656"/>
<path d="M10 20C12.6522 20 15.1957 18.9464 17.0711 17.0711C18.9464 15.1957 20 12.6522 20 10C20 7.34784 18.9464 4.8043 17.0711 2.92893C15.1957 1.05357 12.6522 -1.52578e-07 10 -4.37114e-07L10 10L10 20Z" fill="#0074B8"/>
<g clip-path="url(#clip0)">
<path d="M5.83337 7.73381L6.6592 5H10.8634C11.8394 5 12.5151 5.21583 13.0406 5.71942C13.5661 6.22302 13.7913 6.8705 13.7913 7.73381C13.7913 8.30935 13.6412 8.74101 13.416 9.10072C13.1907 9.46043 12.8154 9.67626 12.3649 9.82014C12.9655 9.96403 13.416 10.2518 13.7163 10.6115C14.0166 10.9712 14.1667 11.5468 14.1667 12.1942C14.1667 13.1295 13.8664 13.8489 13.3409 14.2806C12.8154 14.7842 11.9895 15 10.9385 15H6.6592V7.73381H5.83337ZM9.6622 7.3741V8.81295H10.1127C10.3379 8.81295 10.5631 8.74101 10.7133 8.59712C10.8634 8.45324 10.9385 8.30935 10.9385 8.09353C10.9385 7.8777 10.8634 7.66187 10.7133 7.58993C10.5631 7.44604 10.3379 7.3741 10.1127 7.3741H9.6622ZM9.6622 10.9712V12.554H10.1877C10.488 12.554 10.7133 12.482 10.8634 12.3381C11.0886 12.1942 11.1637 11.9784 11.1637 11.7626C11.1637 11.4748 11.0886 11.3309 10.9385 11.1871C10.7133 11.0432 10.488 10.9712 10.1877 10.9712H9.6622Z" fill="white"/>
</g>
<defs>
<clipPath id="clip0">
<rect width="8.33333" height="10" fill="white" transform="translate(5.83337 5)"/>
</clipPath>
</defs>
</svg>
