<svg width="20" height="20" fill="none" xmlns="http://www.w3.org/2000/svg">
    <circle cx="10" cy="10" r="10" fill="#2A75C9"/>
    <path d="M7.578 11.224h4.8c.97 0 1.545-.56 1.882-1.121.28-.48.42-1.04.42-1.587V6.327c0-.479-.28-.793-.589-.999A2.192 2.192 0 0 0 12.94 5H6.735c-.52 0-.828.301-1.01.602a1.77 1.77 0 0 0-.225.875v7.114c0 .752.716 1.15 1.123 1.313.168.069.337.096.505.096h7.51v-1.847h-6.78c-.337 0-.294-.287-.294-.287v-1.642h.014zm.014-4.281h4.843s.266.013.266.26v.943c0 .315-.098.616-.309.849-.126.136-.28.246-.477.246h-4.31V6.943h-.013z" fill="#fff"/>
</svg>
