<svg width="24" height="24" viewBox="0 0 24 24" fill="none" xmlns="http://www.w3.org/2000/svg">
<path d="M9.35322 16.4186C9.67995 16.332 10.0053 16.2425 10.3139 16.1008C10.3491 16.0848 10.3924 16.0862 10.4318 16.0795C10.6289 16.2677 10.8249 16.2393 11.0359 16.0937C11.201 15.9797 11.3712 15.8728 11.5239 15.7424C11.9927 15.3411 12.3212 14.8578 12.3745 14.2252C12.4231 13.651 12.2125 13.1445 11.9177 12.674C11.3342 11.7424 10.5185 11.0563 9.56666 10.525C8.4927 9.92547 7.34131 9.52629 6.15227 9.22867C6.02087 9.19565 5.97221 9.13847 5.97577 9.00031C5.985 8.64055 5.97825 8.28008 5.97932 7.91996C5.98003 7.67562 5.98074 7.67561 6.21833 7.67561C9.69807 7.67561 13.1774 7.67633 16.6572 7.67668C17.815 7.67668 18.9731 7.67846 20.1309 7.67384C20.279 7.67313 20.3401 7.7058 20.3312 7.87059C20.3163 8.14725 20.3298 8.42533 20.3298 8.7027C20.329 11.9207 20.333 15.1387 20.3244 18.3563C20.3219 19.328 19.6294 19.9928 18.6591 19.9928C16.5442 19.9928 14.4293 19.9928 12.3144 19.9928C10.7429 19.9928 9.17138 19.9975 7.60021 19.9886C6.69281 19.9836 6.00276 19.3138 5.98216 18.4291C5.97008 17.9039 5.98322 17.3782 5.97719 16.8526C5.97541 16.7127 6.01519 16.6864 6.15192 16.7141C6.76171 16.837 7.3786 16.8864 8.00153 16.8697C8.32045 16.8611 8.6376 16.8384 8.95474 16.8029C9.27011 16.7677 9.38589 16.6655 9.35393 16.419L9.35322 16.4186ZM19.7967 10.102C19.808 8.98575 18.8992 8.06344 17.7709 8.04994C16.6188 8.03609 15.7214 8.92467 15.7015 10.0395C15.6784 11.3081 16.6504 12.1139 17.7013 12.1345C18.8634 12.1572 19.7853 11.2562 19.797 10.102H19.7967Z" fill="url(#paint0_linear_215_62659)"/>
<path d="M2.65295 14.2838C2.41257 13.4826 3.55434 13.349 4.15527 13.3824L1.85172 12.0803L1.15063 10.9786L1.25079 9.77671L2.25234 9.17578L5.257 9.37609L9.76398 10.9786L11.8672 12.9817L12.0676 14.484L11.066 15.8862C10.4317 16.1199 9.14302 16.5873 9.0629 16.5873H6.95964L5.15684 16.1866L3.55436 15.4856C3.35404 15.3854 2.89332 15.0049 2.65295 14.2838Z" fill="white"/>
<path d="M9.353 16.4184C9.38496 16.6649 9.26954 16.7671 8.95381 16.8023C8.63666 16.8378 8.31952 16.8605 8.0006 16.8691C7.37802 16.8858 6.76113 16.8368 6.15099 16.7135C6.01426 16.6858 5.97448 16.7121 5.97626 16.852C5.98229 17.3773 5.9688 17.9033 5.98123 18.4285C6.00183 19.3132 6.69188 19.983 7.59928 19.988C9.17081 19.9969 10.742 19.9919 12.3135 19.9922C14.4284 19.9926 16.5433 19.9922 18.6582 19.9922C19.6285 19.9922 20.321 19.3274 20.3235 18.3557C20.332 15.1377 20.3281 11.9197 20.3288 8.7021C20.3288 8.42473 20.3153 8.14665 20.3302 7.86999C20.3391 7.7052 20.278 7.67289 20.1299 7.67324C18.9722 7.67786 17.814 7.67608 16.6562 7.67608C13.1765 7.67608 9.69713 7.67537 6.2174 7.67502C5.97981 7.67502 5.9791 7.67502 5.97839 7.91936C5.97768 8.27948 5.98442 8.63995 5.97483 8.99972C5.97128 9.13751 6.01994 9.19505 6.15134 9.22808C7.34038 9.52569 8.49176 9.92452 9.56573 10.5244C10.5175 11.0557 11.3337 11.7418 11.9168 12.6734C12.2116 13.1439 12.4222 13.65 12.3735 14.2246C12.3199 14.8575 11.9917 15.3409 11.5229 15.7418C11.3706 15.8722 11.2001 15.9791 11.035 16.0931C10.824 16.2387 10.628 16.2671 10.4309 16.0789C10.3623 15.7823 10.3847 15.7312 10.644 15.5774C10.9238 15.4119 11.1919 15.2301 11.4004 14.9761C11.8209 14.4644 11.8497 13.8137 11.4686 13.1642C10.9611 12.2994 10.2341 11.6548 9.37821 11.1537C8.05919 10.3816 6.61375 9.95897 5.12639 9.66313C4.43669 9.52604 3.73918 9.45146 3.03493 9.46105C2.72204 9.46531 2.41129 9.50722 2.11154 9.60098C1.4396 9.81087 1.22048 10.2633 1.46375 10.9292C1.67436 11.5067 2.11225 11.8924 2.59525 12.2287C3.44867 12.8232 4.39372 13.1976 5.42684 13.3329C5.99082 13.4067 6.55728 13.4092 7.12125 13.3229C7.3592 13.2863 7.48989 13.3343 7.5769 13.4969C7.68771 13.7036 7.61206 13.8748 7.38193 13.916C6.92201 13.9977 6.45677 14.0314 5.99082 14.014C5.11893 13.9814 4.26835 13.8319 3.47495 13.4536C2.68049 13.075 1.91905 12.6421 1.33732 11.9581C0.906528 11.4513 0.692374 10.8692 0.763404 10.198C0.826975 9.59707 1.21195 9.26359 1.73935 9.0608C2.10515 8.92016 2.48942 8.86227 2.87973 8.84665C3.66105 8.81539 4.43705 8.8676 5.20417 9.02245C5.3448 9.05086 5.39275 9.02919 5.38636 8.87044C5.3718 8.52275 5.37464 8.17364 5.38423 7.8256C5.38778 7.69597 5.36505 7.64341 5.22405 7.66614C5.10153 7.68567 4.97723 7.66081 4.85861 7.62352C4.44912 7.49496 4.26658 7.12525 4.39621 6.67954C4.61604 5.92414 4.83801 5.16945 5.06317 4.41583C5.22192 3.88275 5.65165 3.56738 6.20639 3.56738C10.8318 3.56738 15.4569 3.56738 20.0824 3.56738C20.6659 3.56738 21.091 3.89199 21.2519 4.45099C21.4756 5.22947 21.7143 6.00369 21.9263 6.78537C22.0435 7.21794 21.7515 7.59902 21.3083 7.65548C21.1822 7.67147 21.0033 7.60967 20.9429 7.70236C20.8804 7.79861 20.9358 7.96553 20.918 8.09871C20.8939 8.28125 20.9784 8.35903 21.1261 8.46025C21.6258 8.80368 22.1031 9.17978 22.5886 9.5438C22.6781 9.61093 22.7669 9.6784 22.8546 9.74766C23.3902 10.1735 23.3806 10.8458 22.8323 11.2627C22.4569 11.5479 22.0815 11.8327 21.704 12.1151C21.4692 12.2909 21.2572 12.4993 20.9791 12.6123C20.8857 12.6503 20.9223 12.733 20.9223 12.7973C20.9205 14.61 20.9198 16.4223 20.9223 18.235C20.9226 18.5493 20.8967 18.8575 20.7845 19.1541C20.4581 20.0178 19.6512 20.5757 18.7275 20.5757C15.0119 20.5757 11.2964 20.5757 7.58081 20.5757C6.34596 20.5757 5.36647 19.5799 5.37925 18.3444C5.38494 17.7896 5.37748 17.2345 5.38529 16.6794C5.38707 16.5594 5.3409 16.5239 5.23542 16.4908C4.52654 16.2689 3.83862 15.9965 3.22671 15.5671C2.84954 15.3029 2.53239 14.9843 2.41484 14.5144C2.37968 14.3738 2.38607 14.2332 2.39282 14.0922C2.40276 13.894 2.50007 13.7946 2.66841 13.7978C2.85629 13.8013 3.02498 13.9363 3.00616 14.1092C2.96496 14.4871 3.18196 14.7204 3.43873 14.9264C4.02224 15.3945 4.70199 15.6697 5.41335 15.875C6.30157 16.1311 7.20613 16.2767 8.13342 16.2412C8.38629 16.2316 8.63915 16.2025 8.89095 16.1744C9.15021 16.1456 9.2184 16.1776 9.353 16.4184ZM13.1303 7.06985V7.07127C14.2583 7.07127 15.3862 7.07127 16.5142 7.07127C18.0321 7.07127 19.5496 7.07269 21.0675 7.07233C21.3527 7.07233 21.3907 7.01799 21.3094 6.74347C21.1023 6.04276 20.8964 5.34205 20.6875 4.64206C20.5867 4.30431 20.3931 4.1651 20.0412 4.1651C18.2992 4.16581 16.5568 4.16616 14.8148 4.16616C11.9566 4.16616 9.09836 4.16616 6.23978 4.16616C5.96915 4.16616 5.7241 4.29828 5.67296 4.49858C5.64419 4.61116 5.59873 4.71557 5.56606 4.82496C5.37322 5.46849 5.18357 6.11308 4.99498 6.75803C4.91508 7.03113 4.94455 7.06949 5.22903 7.06985C7.8628 7.06985 10.4969 7.06985 13.1307 7.06985H13.1303ZM20.9319 11.9535C21.4752 11.5408 21.9945 11.154 22.5048 10.7552C22.7179 10.5886 22.7023 10.3866 22.4775 10.2118C22.1564 9.96217 21.83 9.71853 21.5058 9.47277C21.3211 9.33284 21.1357 9.19434 20.9319 9.04127V11.9531V11.9535Z" fill="#282525"/>
<path d="M19.7964 10.103C19.7847 11.2572 18.8627 12.1582 17.7007 12.1355C16.6501 12.1149 15.6781 11.3087 15.7008 10.0405C15.7211 8.92566 16.6182 8.03744 17.7703 8.05093C18.8986 8.06443 19.8074 8.98675 19.796 10.103H19.7964ZM17.755 9.33515C17.3281 9.33159 16.9964 9.66117 16.9921 10.092C16.9882 10.5078 17.3253 10.8591 17.7301 10.8601C18.1659 10.8612 18.5136 10.5249 18.5182 10.0976C18.5225 9.68106 18.1798 9.3387 17.755 9.33515Z" fill="#FEFEFE"/>
<path d="M13.1305 7.07077C10.4967 7.07077 7.86257 7.07077 5.2288 7.07077C4.94433 7.07077 4.91485 7.03241 4.99476 6.75895C5.1837 6.114 5.37334 5.46976 5.56583 4.82588C5.59851 4.71649 5.64432 4.61208 5.67273 4.4995C5.72387 4.29884 5.96893 4.16708 6.23955 4.16708C9.09777 4.16708 11.956 4.16708 14.8146 4.16708C16.5566 4.16708 18.2989 4.16637 20.0409 4.16602C20.3929 4.16602 20.5864 4.30523 20.6873 4.64298C20.8965 5.34297 21.1021 6.04403 21.3092 6.74439C21.3905 7.01891 21.3521 7.07325 21.0673 7.07325C19.5494 7.07361 18.0319 7.07254 16.514 7.07219C15.386 7.07219 14.2581 7.07219 13.1301 7.07219V7.07077H13.1305Z" fill="url(#paint1_linear_215_62659)"/>
<path d="M20.9321 11.9538V9.04199C21.1356 9.19506 21.3214 9.33357 21.506 9.4735C21.8307 9.71926 22.1567 9.96253 22.4777 10.2126C22.7025 10.3873 22.7178 10.5894 22.5051 10.7559C21.9947 11.1548 21.4755 11.5415 20.9321 11.9542V11.9538Z" fill="#FEFEFE"/>
<path d="M17.7546 9.33401C18.1794 9.33721 18.5221 9.67993 18.5178 10.0965C18.5132 10.5238 18.1659 10.8604 17.7297 10.859C17.3249 10.858 16.9875 10.5067 16.9917 10.0908C16.996 9.66004 17.3277 9.33046 17.7546 9.33401ZM18.0355 9.59931C17.891 9.59469 17.751 9.72716 17.7447 9.87526C17.7379 10.0258 17.8633 10.1626 18.0131 10.1683C18.174 10.1743 18.3026 10.0617 18.31 9.90758C18.3182 9.74492 18.1932 9.60463 18.0355 9.59966V9.59931Z" fill="#282525"/>
<path d="M18.036 9.59911C18.1937 9.60443 18.3187 9.74472 18.3105 9.90702C18.3027 10.0612 18.1745 10.1737 18.0136 10.1677C17.8641 10.162 17.7387 10.0253 17.7451 9.8747C17.7515 9.7266 17.8914 9.59413 18.036 9.59875V9.59911Z" fill="#FEFEFE"/>
<defs>
<linearGradient id="paint0_linear_215_62659" x1="24.7874" y1="5.77108" x2="5.95817" y2="19.9931" gradientUnits="userSpaceOnUse">
<stop stop-color="#ED1D24"/>
<stop offset="1" stop-color="#FF822D"/>
</linearGradient>
<linearGradient id="paint1_linear_215_62659" x1="26.4332" y1="3.71701" x2="24.0811" y2="12.3121" gradientUnits="userSpaceOnUse">
<stop stop-color="#ED1D24"/>
<stop offset="1" stop-color="#FF822D"/>
</linearGradient>
</defs>
</svg>
