<svg width="24" height="24" viewBox="0 0 24 24" fill="none" xmlns="http://www.w3.org/2000/svg">
<g clip-path="url(#clip0_232_56806)">
<rect width="24" height="24" rx="12" fill="#E23744"/>
<path d="M5.74337 10.7086L5.72716 11.2218L4.36906 12.6765C4.93637 12.6765 5.29605 12.6711 5.50349 12.6597C5.44341 12.9358 5.39448 13.1615 5.34526 13.4999C5.07248 13.4772 4.64719 13.4715 4.22161 13.4715C3.74729 13.4715 3.33268 13.4772 3 13.4999L3.01106 12.9809L4.36906 11.532C3.77457 11.532 3.55634 11.5375 3.31103 11.5432C3.3654 11.2838 3.40364 10.9963 3.44179 10.7086C3.87262 10.7255 4.04172 10.7311 4.6035 10.7311C5.12169 10.7311 5.41604 10.7255 5.74337 10.7086ZM7.28698 10.5562C6.4032 10.5562 5.72716 11.3344 5.72716 12.2651C5.72716 12.9642 6.13614 13.4999 6.93236 13.4999C7.82138 13.4999 8.49228 12.7216 8.49228 11.7855C8.49228 11.0922 8.09398 10.5562 7.28698 10.5562ZM7.01963 12.7519C6.82325 12.7519 6.70879 12.5769 6.70879 12.2329C6.70879 11.7198 6.92149 11.3082 7.1834 11.3082C7.37415 11.3082 7.4887 11.4776 7.4887 11.8269C7.48861 12.3345 7.28154 12.7519 7.01963 12.7519ZM19.7788 10.5176C18.8836 10.5176 18.1986 11.306 18.1986 12.2485C18.1986 12.9571 18.6129 13.4999 19.4196 13.4999C20.3203 13.4999 21 12.7114 21 11.7631C21 11.0605 20.5968 10.5176 19.7788 10.5176ZM19.4911 12.749C19.2946 12.749 19.1802 12.5739 19.1802 12.23C19.1802 11.7168 19.393 11.3054 19.6548 11.3054C19.8455 11.3054 19.9602 11.4745 19.9602 11.824C19.9602 12.3317 19.7529 12.749 19.4911 12.749ZM13.0789 11.5713C13.1499 11.0922 13.1117 10.6579 12.5719 10.6579C12.1791 10.6579 11.7537 10.985 11.4538 11.532C11.5193 11.0807 11.481 10.6579 10.9466 10.6579C10.543 10.6579 10.1067 11.0018 9.80659 11.5713C9.88299 11.1991 9.86668 10.7761 9.84484 10.686C9.534 10.7368 9.26141 10.7649 8.87951 10.7761C8.89048 11.0356 8.87408 11.3737 8.82496 11.6954L8.69953 12.5411C8.65042 12.874 8.59586 13.2574 8.5413 13.4999H9.55575C9.56128 13.3531 9.59952 13.122 9.62671 12.919L9.71398 12.3383C9.78485 11.9603 10.0902 11.5151 10.3247 11.5151C10.4611 11.5151 10.4557 11.6447 10.4175 11.8872L10.3193 12.5411C10.27 12.874 10.2157 13.2574 10.161 13.4999H11.1863C11.1919 13.3531 11.2246 13.122 11.2518 12.919L11.339 12.3383C11.4099 11.9603 11.7155 11.5151 11.9498 11.5151C12.0863 11.5151 12.081 11.6389 12.059 11.8083L11.814 13.4999H12.7498L13.0789 11.5713ZM17.9786 12.6146L17.8695 13.28C17.7004 13.3702 17.384 13.5 17.0186 13.5C16.3968 13.5 16.2715 13.1729 16.3696 12.4793L16.5278 11.3627H16.2218L16.3083 10.64L16.6423 10.6241L16.7679 10.0997L17.7112 9.75L17.5913 10.6241H18.2403C18.2186 10.7142 18.142 11.2107 18.1205 11.3627H17.4875L17.3457 12.3947C17.3075 12.6597 17.3295 12.7556 17.5147 12.7556C17.6514 12.7555 17.853 12.6765 17.9786 12.6146ZM14.3999 12.974C14.7433 12.9321 14.9796 12.6059 15.0364 12.2804L15.046 12.1932C14.8984 12.1607 14.6852 12.1359 14.4784 12.1609C14.2814 12.1845 14.1176 12.2652 14.0295 12.3819C13.963 12.4658 13.9296 12.5661 13.9444 12.6858C13.9668 12.865 14.1679 13.0019 14.3999 12.974ZM14.1076 13.4895C13.623 13.5481 13.3038 13.3586 13.208 12.9273C13.1479 12.656 13.2314 12.3469 13.3773 12.1625C13.5728 11.9213 13.8913 11.7665 14.28 11.7198C14.5928 11.6815 14.8564 11.7004 15.103 11.7464L15.1132 11.7047C15.1202 11.6381 15.1273 11.5716 15.1175 11.492C15.0919 11.2875 14.9283 11.1658 14.5244 11.2147C14.2519 11.2477 13.9926 11.3447 13.7913 11.4551L13.5954 10.8719C13.8683 10.7176 14.2122 10.6001 14.6059 10.5524C15.3577 10.4615 15.8861 10.6978 15.9537 11.241C15.9716 11.3855 15.9738 11.5385 15.9553 11.6775C15.8588 12.3492 15.7969 12.8546 15.7698 13.1933C15.7654 13.2458 15.7658 13.3358 15.7706 13.4636L14.8375 13.4628C14.8574 13.4098 14.8752 13.3381 14.891 13.248C14.9015 13.1888 14.909 13.114 14.9137 13.0235C14.7166 13.2902 14.4455 13.4485 14.1076 13.4895Z" fill="white"/>
</g>
<defs>
<clipPath id="clip0_232_56806">
<rect width="24" height="24" fill="white"/>
</clipPath>
</defs>
</svg>
