<svg width="24" height="24" viewBox="0 0 24 24" fill="none" xmlns="http://www.w3.org/2000/svg">
    <circle cx="12" cy="12" r="12" fill="#D0D6DC"/>
    <path d="M14.969 7.5H8.406a.156.156 0 0 0-.156.156v.375a2.025 2.025 0 0 0 .887 1.656l1.3.926c.263.173.482.406.638.68a1.753 1.753 0 0 1 0 1.789 2.014 2.014 0 0 1-.637.68l-1.3.925a2.025 2.025 0 0 0-.888 1.657v.375a.156.156 0 0 0 .156.156h6.563a.156.156 0 0 0 .156-.156v-.375a2.024 2.024 0 0 0-.887-1.657l-1.3-.925a2.012 2.012 0 0 1-.638-.68 1.753 1.753 0 0 1 0-1.789c.156-.274.375-.507.637-.68l1.3-.925a2.025 2.025 0 0 0 .888-1.657v-.375a.156.156 0 0 0-.156-.156z" fill="#656F7D"/>
</svg>
