<svg width="20" height="20" viewBox="0 0 20 20" fill="none" xmlns="http://www.w3.org/2000/svg">
    <path d="M10 20a10 10 0 0 1 0-20v20z" fill="#00A656"/>
    <path d="M10 20a10 10 0 0 0 0-20v20z" fill="#0074B8"/>
    <g clip-path="url(#a77iw73dga)">
        <path d="M5.833 7.734 6.659 5h4.204c.976 0 1.652.216 2.177.72.526.503.751 1.15.751 2.014 0 .575-.15 1.007-.375 1.367-.226.36-.601.575-1.052.72.601.143 1.052.43 1.352.79.3.36.45.936.45 1.583 0 .935-.3 1.655-.825 2.087-.526.503-1.352.719-2.403.719h-4.28V7.734h-.825zm3.829-.36v1.439h.45c.226 0 .45-.072.6-.216a.64.64 0 0 0 .226-.503c0-.216-.075-.432-.225-.504-.15-.144-.375-.216-.6-.216h-.451zm0 3.597v1.583h.525c.3 0 .526-.072.676-.216.225-.144.3-.36.3-.575 0-.288-.075-.432-.225-.576a1.307 1.307 0 0 0-.75-.216h-.526z" fill="#fff"/>
    </g>
    <defs>
        <clipPath id="a77iw73dga">
            <path fill="#fff" transform="translate(5.833 5)" d="M0 0h8.333v10H0z"/>
        </clipPath>
    </defs>
</svg>
