<svg width="20" height="20" viewBox="0 0 20 20" fill="none" xmlns="http://www.w3.org/2000/svg">
    <g clip-path="url(#c9icvvwdfa)">
        <path d="M10 20c5.523 0 10-4.477 10-10S15.523 0 10 0 0 4.477 0 10s4.477 10 10 10z" fill="#F1F3F5"/>
        <mask id="6dnplzaxcb" style="mask-type:alpha" maskUnits="userSpaceOnUse" x="4" y="3" width="12" height="15">
            <path d="M9.99 3.535a5.68 5.68 0 0 1 4.204 9.498h.007l-4.21 4.456-4.21-4.456h.006a5.68 5.68 0 0 1 4.204-9.498zm0 3.525a2.154 2.154 0 0 0-1.614 3.58l.02.022.149.164 1.446 1.53 1.447-1.53.148-.163c.355-.388.554-.893.56-1.42v-.028A2.154 2.154 0 0 0 9.99 7.06z" fill="#fff"/>
        </mask>
        <g mask="url(#6dnplzaxcb)">
            <path d="M9.99 3.535a5.68 5.68 0 0 1 4.204 9.498h.007l-4.21 4.456-4.21-4.456h.006a5.68 5.68 0 0 1 4.204-9.498zm0 3.525a2.154 2.154 0 0 0-1.614 3.58l.02.022.149.164 1.446 1.53 1.447-1.53.148-.163c.355-.388.554-.893.56-1.42v-.028A2.154 2.154 0 0 0 9.99 7.06z" fill="url(#4cvezf1icc)"/>
            <path fill-rule="evenodd" clip-rule="evenodd" d="m11.723 9.234 1.376.691 2.927-.625v3.122L9.98 18.159l-.965-.67 1.172-1.81.145-1.568-.343-1.68v-2.255l1.733-.942z" fill="#407EF4"/>
            <path fill-rule="evenodd" clip-rule="evenodd" d="m8.13 16.505.886.981 1.172-1.81.145-1.568-.342-1.68.6-1.3-1.457 1.683-.338 1.527-.666 2.167z" fill="#588CEF"/>
            <path opacity=".1" fill-rule="evenodd" clip-rule="evenodd" d="M5.304 13.104H7.96l1.175-.293-1.796-1.155-2.368 1.326.333.122z" fill="#fff"/>
            <path opacity=".05" fill-rule="evenodd" clip-rule="evenodd" d="m4.834 12.25 2.506-.591-1.553-1.647-.954 2.239z" fill="#fff"/>
            <path opacity=".06" fill-rule="evenodd" clip-rule="evenodd" d="m7.339 11.66 1.453-.783-.66-1.576-.793 2.36zm1.794 1.143.857-.998-.686-.617-.17 1.615z" fill="#fff"/>
            <path opacity=".498" fill-rule="evenodd" clip-rule="evenodd" d="m13.1 9.926.123 1.497 2.495-.347-2.618-1.15z" fill="#fff"/>
            <path opacity=".632" fill-rule="evenodd" clip-rule="evenodd" d="m11.333 12.43-.534-.954 2.45-.054-1.916 1.008z" fill="#fff"/>
            <path opacity=".7" fill-rule="evenodd" clip-rule="evenodd" d="m16.25 9.235-3.156.678 2.46 1.89.695-2.568z" fill="#fff"/>
            <path opacity=".5" fill-rule="evenodd" clip-rule="evenodd" d="m11.59 10.178 1.66 1.246-.154-1.51-1.192-.613-.314.877z" fill="#fff"/>
            <path d="m13.116 9.897-1.228-.631-.33.92 1.718 1.29-.16-1.58zm-1.2-.563 1.154.594.147 1.442-1.601-1.202.3-.834z" fill="#0052CC"/>
            <path opacity=".7" fill-rule="evenodd" clip-rule="evenodd" d="m10.59 11.476 2.657-.054-1.66-1.246-.996 1.3z" fill="#fff"/>
            <path d="m13.32 11.444-1.736-1.303-1.042 1.36 2.778-.057zm-1.727-1.235 1.584 1.189-2.534.052.95-1.241z" fill="#0052CC"/>
            <path opacity=".124" fill-rule="evenodd" clip-rule="evenodd" d="M15.038 12.43h-3.706l1.916-1.009 2.279-.343-.489 1.351z" fill="#fff"/>
            <path opacity=".335" fill-rule="evenodd" clip-rule="evenodd" d="M15.038 12.43h-1.645l-.146-1.009 2.28-.343-.49 1.351z" fill="#fff"/>
            <path opacity=".393" fill-rule="evenodd" clip-rule="evenodd" d="M15.038 12.43h-3.706l1.916-1.009 2.279-.343-.489 1.351z" fill="#fff"/>
            <path d="m15.57 11.846.715-2.643-3.246.698 2.532 1.945zm.647-2.578-.675 2.494-2.39-1.836 3.065-.658z" fill="#0052CC"/>
            <path d="m15.055 12.457.508-1.406-2.32.348-.007.004-2.003 1.054h3.822zm.435-1.346-.47 1.297h-3.59l1.825-.96 2.235-.337z" fill="#0052CC"/>
            <path opacity=".5" fill-rule="evenodd" clip-rule="evenodd" d="m9.981 12.285 1.352.147-.676-1.245-.676 1.098z" fill="#fff"/>
            <path d="m11.378 12.46-.719-1.323-.718 1.167 1.437.156zm-.721-1.225.634 1.166-1.267-.137.633-1.03z" fill="#0052CC"/>
            <path d="m11.376 12.412-1.423-.154.36 1.922 1.063-1.768zm-1.363-.099 1.281.14-.957 1.591-.324-1.73z" fill="#005B91"/>
            <path opacity=".693" fill-rule="evenodd" clip-rule="evenodd" d="m11.723 14.57-.39-2.14-1.01 1.68 1.4.46z" fill="#2872FF"/>
            <path d="m11.754 14.608-.41-2.245-1.059 1.761 1.469.484zm-.434-2.109.37 2.036-1.331-.438.96-1.598z" fill="#0052CC"/>
            <path opacity=".5" fill-rule="evenodd" clip-rule="evenodd" d="m11.72 14.57.197 1.45 1.085-1.073-1.281-.377z" fill="#fff"/>
            <path d="m13.051 14.934-1.357-.399.208 1.536 1.15-1.137zm-1.298-.33 1.205.354-1.02 1.01-.185-1.365z" fill="#0052CC"/>
            <path opacity=".342" fill-rule="evenodd" clip-rule="evenodd" d="m13.43 14.433-2.097-2.003 3.177.79-1.08 1.213z" fill="#fff"/>
            <path d="m14.556 13.21-3.306-.823 2.182 2.084 1.124-1.261zm-3.138-.731 3.048.759-1.037 1.162-2.011-1.921z" fill="#0052CC"/>
            <path d="m15.877 12.313-.331-1.262-2.325.35.497 3.083 2.159-2.17zm-.368-1.207.313 1.194-2.07 2.08-.476-2.939 2.233-.335z" fill="#005B91"/>
            <path opacity=".159" fill-rule="evenodd" clip-rule="evenodd" d="m13.247 11.421.487 3.011 2.114-2.126-.322-1.228-2.279.343z" fill="#fff"/>
            <path d="m15.877 12.313-.331-1.262-2.325.35.497 3.083 2.159-2.17zm-.368-1.207.313 1.194-2.07 2.08-.476-2.939 2.233-.335z" fill="#0052CC"/>
            <path opacity=".147" fill-rule="evenodd" clip-rule="evenodd" d="m9.016 17.304 1.172-1.628 1.295 1.246-1.502 1.534-.965-1.152z" fill="#006099"/>
            <path opacity=".201" fill-rule="evenodd" clip-rule="evenodd" d="m8.791 14.332 4.284.966-1.566 1.629-2.718-2.595z" fill="#fff"/>
            <path d="m11.518 16.923-1.334-1.282-1.2 1.665.995 1.188 1.539-1.57zm-1.327-1.208 1.256 1.209-1.465 1.497-.936-1.117 1.145-1.589z" fill="#0052CC"/>
            <path opacity=".174" fill-rule="evenodd" clip-rule="evenodd" d="m8.076 16.507 2.113-.83-1.392-1.337-.72 2.167z" fill="#fff"/>
            <path d="m10.234 15.688-1.448-1.391-.749 2.253 2.197-.863zm-1.425-1.302 1.336 1.283-2.028.797.692-2.08z" fill="#0052CC"/>
            <path opacity=".27" fill-rule="evenodd" clip-rule="evenodd" d="m7.492 14.11 1.303.23.336-1.54-1.17.275-.469 1.036z" fill="#fff"/>
            <path d="m8.817 14.361.347-1.591-1.22.285-.872 1.808 1.744-.502zm.282-1.527-.324 1.488-1.61.463.814-1.688 1.12-.262z" fill="#0052CC"/>
            <path opacity=".2" fill-rule="evenodd" clip-rule="evenodd" d="m9.133 12.801 1.056 2.876.134-1.566-.34-1.68v-.622l-.85.992z" fill="#fff"/>
            <path d="m10.349 14.105-.42-2.277-.823.966 1.1 2.994.144-1.677-.001-.006zm-.45-2.167.402 2.173-.125 1.453-1.013-2.76.736-.866z" fill="#0052CC"/>
            <path opacity=".15" fill-rule="evenodd" clip-rule="evenodd" d="m6.086 13.626 1.874-.517-.937 1.865-.937-1.348z" fill="#fff"/>
            <path fill-rule="evenodd" clip-rule="evenodd" d="M13.098 9.754a.171.171 0 1 1 0 .342.171.171 0 0 1 0-.342zm.151 1.469a.171.171 0 1 1 0 .342.171.171 0 0 1 0-.342zm.144 1.028a.171.171 0 1 1 0 .342.171.171 0 0 1 0-.342zm-2.055 0a.171.171 0 1 1 0 .342.171.171 0 0 1 0-.342zm.39 2.154a.171.171 0 1 1 0 .343.171.171 0 0 1 0-.343zm-1.418-.49a.171.171 0 1 1 0 .343.171.171 0 0 1 0-.343zm-.151 1.567a.171.171 0 1 1 0 .343.171.171 0 0 1 0-.343zM8.79 14.16a.171.171 0 1 1 0 .343.171.171 0 0 1 0-.343zm.345-1.518a.172.172 0 1 1 0 .343.172.172 0 0 1 0-.343zm-1.814-1.175a.172.172 0 1 1 0 .343.172.172 0 0 1 0-.343zm.637 1.47a.17.17 0 1 1 0 .341.17.17 0 0 1 0-.342z" fill="#0052CC"/>
        </g>
    </g>
    <defs>
        <linearGradient id="4cvezf1icc" x1="9.068" y1="11.39" x2="14.263" y2="11.39" gradientUnits="userSpaceOnUse">
            <stop stop-color="#004FE5"/>
            <stop offset="1" stop-color="#4C9AFF"/>
        </linearGradient>
        <clipPath id="c9icvvwdfa">
            <path fill="#fff" d="M0 0h20v20H0z"/>
        </clipPath>
    </defs>
</svg>
