<svg width="20" height="20" viewBox="0 0 20 20" fill="none" xmlns="http://www.w3.org/2000/svg">
    <circle cx="10" cy="10" r="10" fill="#FCC73F"/>
    <path d="M10.64 13H8.92l-.497-1.558h-2.49L5.439 13H3.73l2.55-7.002h1.87L10.64 13zm-2.578-2.769L7.31 7.878a3.067 3.067 0 0 1-.118-.63h-.039a2.671 2.671 0 0 1-.122.61l-.761 2.373h1.792zm3.13 2.5V11.17c.283.238.59.417.922.537.332.117.668.176 1.006.176a2.2 2.2 0 0 0 .518-.054c.15-.036.273-.085.37-.146a.67.67 0 0 0 .225-.225.607.607 0 0 0-.044-.65 1.248 1.248 0 0 0-.322-.297 3.217 3.217 0 0 0-.478-.264c-.186-.085-.386-.17-.6-.259-.548-.228-.956-.506-1.226-.835-.267-.328-.4-.726-.4-1.191 0-.365.072-.677.219-.938.146-.263.345-.48.595-.649.254-.17.547-.293.88-.371a4.418 4.418 0 0 1 1.054-.122c.365 0 .687.023.967.068.283.043.543.11.781.2v1.46a2.744 2.744 0 0 0-.81-.366 3.02 3.02 0 0 0-.85-.122c-.179 0-.342.018-.488.054-.147.032-.27.08-.371.141a.706.706 0 0 0-.235.225.567.567 0 0 0 .01.605c.062.092.15.18.264.264.114.082.252.163.415.244.163.078.346.16.552.244.28.118.53.243.752.376a2.6 2.6 0 0 1 .576.445c.16.166.281.356.366.571.085.212.127.459.127.742 0 .39-.075.72-.225.987a1.81 1.81 0 0 1-.6.644c-.254.163-.55.28-.89.352-.334.071-.69.107-1.064.107-.384 0-.75-.033-1.098-.098a3.307 3.307 0 0 1-.899-.293z" fill="#BC4400"/>
</svg>
