<svg width="20" height="20" viewBox="0 0 20 20" fill="none" xmlns="http://www.w3.org/2000/svg">
    <circle cx="10" cy="10" r="10" fill="#006AF4"/>
    <path d="m5.984 9.352 1.152-2.048H8.2l-2.016 3.424V13h-.968v-2.272L3.152 7.304h1.104l1.16 2.048.288.616.28-.616zm5.27 3.152c-.384.41-.877.616-1.48.616-.608 0-1.098-.203-1.472-.608-.384-.41-.576-.933-.576-1.568 0-.645.192-1.17.576-1.576.384-.4.88-.6 1.488-.6.603 0 1.094.2 1.472.6.38.405.568.925.568 1.56 0 .645-.192 1.17-.576 1.576zm-1.48-.136c.352 0 .63-.13.832-.392.208-.261.312-.61.312-1.048 0-.437-.1-.781-.304-1.032-.202-.25-.482-.376-.84-.376-.352 0-.629.128-.832.384-.197.256-.296.603-.296 1.04 0 .432.102.779.304 1.04.203.256.478.384.824.384zm5.566-1.248V8.872h.936V13h-.896l-.016-.576c-.288.453-.714.68-1.28.68-.432 0-.77-.125-1.016-.376-.24-.25-.36-.597-.36-1.04V8.872h.936v2.616c0 .523.238.784.712.784.294 0 .531-.099.712-.296.182-.203.272-.488.272-.856z" fill="#fff"/>
</svg>
