<svg width="36" height="36" viewBox="0 0 36 36" fill="none" xmlns="http://www.w3.org/2000/svg">
    <circle cx="16" cy="16" r="16" fill="#F15A28"/>
    <path d="m24.635 15.247-5.923-2.15c-.945-.337-2.457-.875-3.402-1.21l-5.924-2.22c-.945-.336-1.512.27-1.323 1.278l2.584 13.781c.063.27.189.471.378.605.189.135.378.27.63.27s.44-.068.63-.202c.189-.135.315-.337.378-.605l.252-.874 1.008-3.16 1.765-5.513c.252-.873.945-1.008 1.512-.336l3.592 4.37.126.202c.126.134.252.269.44.336.19.067.379.067.568.067.189-.067.378-.134.567-.336l2.52-2.353c.757-.74.568-1.613-.378-1.95z" fill="#fff"/>
    <circle cx="28" cy="28" r="6.857" fill="#FF5230" stroke="#fff" stroke-width="1.714"/>
    <g clip-path="url(#m7fam63doa)" stroke="#fff" stroke-width=".714" stroke-linecap="round" stroke-linejoin="round">
        <path d="M29.143 25.43h-4.286v3.714h4.286V25.43z" fill="#fff"/>
        <path d="M29.143 26.86h1.143l.857.857v1.428h-2V26.86zM26.143 30.57a.714.714 0 1 0 0-1.43.714.714 0 0 0 0 1.43z"/>
        <path d="M29.857 30.57a.714.714 0 1 0 0-1.43.714.714 0 0 0 0 1.43z"/>
    </g>
    <defs>
        <clipPath id="m7fam63doa">
            <path fill="#fff" transform="translate(24.571 24.57)" d="M0 0h6.857v6.857H0z"/>
        </clipPath>
    </defs>
</svg>
