<svg width="24" height="24" viewBox="0 0 24 24" fill="none" xmlns="http://www.w3.org/2000/svg">
    <path d="M12 0c6.617 0 12 5.383 12 12s-5.383 12-12 12S0 18.617 0 12 5.383 0 12 0z" fill="#BBDEFB"/>
    <path d="M6.216 13.57a1.216 1.216 0 1 0 0-2.433 1.216 1.216 0 0 0 0 2.432zM6.216 8.432a1.216 1.216 0 1 0 0-2.432 1.216 1.216 0 0 0 0 2.432zM6.216 18.538a1.216 1.216 0 1 0 0-2.433 1.216 1.216 0 0 0 0 2.433z" fill="#3F51B5" stroke="#3F51B5" stroke-width="1.2" stroke-miterlimit="10" stroke-linecap="round" stroke-linejoin="round"/>
    <path d="M7.5 7.215h.822c.583 0 1.146.275 1.453.77.104.17.156.327.18.463.066.388-.095.595.054 1.043.146.441.458.712.609.839.214.185.436.304.629.382.192.078.417.117.633.117h.824M12.704 13.703H11.55c-.582 0-1.146.276-1.453.77-.104.17-.156.327-.18.463-.066.388.095.595-.054 1.044-.146.44-.458.711-.609.838a2.253 2.253 0 0 1-.629.383 1.721 1.721 0 0 1-.633.117H7.5" stroke="#3F51B5" stroke-width="1.2" stroke-miterlimit="10" stroke-linecap="round" stroke-linejoin="round"/>
    <path d="M14.099 9.68h-1.394v5.133h1.394V9.68z" fill="#3F51B5" stroke="#3F51B5" stroke-width="1.2" stroke-miterlimit="10" stroke-linecap="round" stroke-linejoin="round"/>
    <path d="M17.903 13.568A79.177 79.177 0 0 1 19 12.36H7.425M17.933 11.137 19 12.36" stroke="#3F51B5" stroke-width="1.2" stroke-miterlimit="10" stroke-linecap="round" stroke-linejoin="round"/>
</svg>
