<svg width="36" height="36" viewBox="0 0 36 36" fill="none" xmlns="http://www.w3.org/2000/svg">
    <circle cx="16" cy="16" r="16" fill="#07287F"/>
    <path fill-rule="evenodd" clip-rule="evenodd" d="M25.431 11.623c-.505-.674-1.347-1.18-2.02-1.516-.843-.505-1.853-.505-2.695-.505h-6.4c-.842 0-1.684.505-2.527.336-.336 0-.673 0-.842.169.506 0 1.18 0 1.685.168.336.169.673.169 1.178.337l-.168.168c-.674 0-1.347.506-2.19.337-.336.169-.673 0-1.01.169h1.347c.506 0 1.01.337 1.516.337l-.168.337c-.337 0-.842.168-1.18.168-.505.168-1.01.168-1.515.168-.168 0-.337 0-.505.169.673.168 1.347 0 1.852.168.337.169.674.169 1.01.337v.168c-.336 0-.673.169-1.01.169-.673.337-1.515.168-2.19.168l-.168.169c.506.168 1.18 0 1.685.168.337.168.842.337 1.179.337v.337c-.337-.169-.842 0-1.18.168-.673.169-1.347 0-2.02.169v.168h1.515c.506.168.843.337 1.348.337v.168c-.505.169-.842.169-1.348.337-.505.169-1.179.169-1.852.169l-.169.168h1.685c.505.168.842.337 1.347.337l-.168.168c-.506 0-.843.169-1.348.337-.674.168-1.347 0-1.852.168v.169h1.684c.505.168.842.337 1.347.337l-.168.337c-.674-.169-1.18 0-1.685.168-.505.169-1.178 0-1.684 0v.169c.674 0 1.18 0 1.853.168.337.168.842.168 1.179.168l-.169.337c-.505 0-1.01.169-1.515.337-.506.168-1.01 0-1.348.168-.168 0-.337 0-.505.169.674 0 1.347 0 2.021.168.337.169.674.169 1.179.169l-.168.168c-.506 0-1.01.169-1.348.337-.673.168-1.347 0-2.02.168v.169c.673.168 1.347 0 1.852.168.337.169.842.169 1.179.169l-.169.168c-.337 0-.842.169-1.347.337-.674.168-1.347 0-2.021.168l.168.169c.506.168 1.18 0 1.853.168.337 0 .842.169 1.347.169h7.41c1.685 0 3.37-.337 4.885-1.18a9.28 9.28 0 0 0 2.863-3.368c.674-1.516 1.01-3.031 1.01-4.547 0-.674-.336-1.18-.505-1.684zm-3.873 2.863c-.337 0-.674 0-1.18.168-.504.337-1.178.169-1.852.337h-.168c.674.168 1.347 0 2.02.168.338.169.674.169 1.011.337v.169c-.505 0-1.01.168-1.515.337-.674.168-1.348 0-2.021.168.673.168 1.347 0 2.02.168.337.169.674.337 1.18.337l-.169.169c-.505 0-1.01 0-1.347.168-.842.337-1.516.168-2.19.168v.169h1.18c.505 0 1.01.337 1.683.337a.362.362 0 0 1-.336.337c-.506 0-1.01 0-1.348.168-.674.337-1.347.169-2.02.337.673 0 1.515 0 2.189.168-.674.337-1.18.337-1.853.337h-1.516c.842-2.02 1.516-4.21 2.358-6.231 1.18 0 2.526-.169 3.537.505-.505.168-1.01.168-1.347.337h-1.516l-.337.168c.674 0 1.347 0 1.853.168.505.169 1.01.337 1.684.337v.169z" fill="#fff"/>
    <circle cx="28" cy="28" r="6.857" fill="#2872FF" stroke="#fff" stroke-width="1.714"/>
    <path d="M32.286 30.03v-.902l-3.61-2.255V24.39a.676.676 0 1 0-1.353 0v2.482l-3.609 2.255v.903l3.61-1.128v2.481l-.903.677v.676l1.58-.45 1.578.45v-.676l-.902-.677v-2.481l3.609 1.128z" fill="#fff"/>
</svg>
