<svg width="36" height="36" viewBox="0 0 36 36" fill="none" xmlns="http://www.w3.org/2000/svg">
    <path d="M16 32a16 16 0 1 1 0-32v32zM16 32a16 16 0 1 0 0-32v32z" fill="#231F20"/>
    <path d="M18.784 20.312h-3.878v-8.658h3.878v8.658zM17.36 8H11.2v16h9.425l1.837-1.847V9.847L20.615 8h-3.256z" fill="#fff"/>
    <path d="M11.223 20.313H14.9v3.677h-3.677v-3.677z" fill="#E36556"/>
    <circle cx="28" cy="28" r="6.857" fill="#2872FF" stroke="#fff" stroke-width="1.714"/>
    <path d="M32.286 30.03v-.902l-3.61-2.255V24.39a.676.676 0 1 0-1.353 0v2.482l-3.609 2.255v.903l3.61-1.128v2.481l-.903.677v.676l1.58-.45 1.578.45v-.676l-.902-.677v-2.481l3.609 1.128z" fill="#fff"/>
</svg>
