<svg width="24" height="24" viewBox="0 0 24 24" fill="none" xmlns="http://www.w3.org/2000/svg">
    <path d="M12 24a12 12 0 0 1 0-24v24z" fill="#00A656"/>
    <path d="M12 24a12 12 0 0 0 0-24v24z" fill="#0074B8"/>
    <g clip-path="url(#nap4dmy9sa)">
        <path d="M7 9.28 7.991 6h5.045c1.171 0 1.982.259 2.613.863.63.605.9 1.382.9 2.418 0 .69-.18 1.208-.45 1.64-.27.431-.72.69-1.261.863.72.173 1.261.518 1.621.95.36.431.541 1.122.541 1.9 0 1.121-.36 1.985-.991 2.503-.63.604-1.622.863-2.883.863H7.991V9.28H7zm4.595-.431v1.726h.54c.27 0 .54-.086.72-.258.181-.173.271-.346.271-.605s-.09-.518-.27-.604c-.18-.173-.45-.26-.72-.26h-.541zm0 4.316v1.9h.63c.36 0 .63-.087.811-.26.27-.172.36-.43.36-.69 0-.345-.09-.518-.27-.69a1.569 1.569 0 0 0-.9-.26h-.631z" fill="#fff"/>
    </g>
    <defs>
        <clipPath id="nap4dmy9sa">
            <path fill="#fff" transform="translate(7 6)" d="M0 0h10v12H0z"/>
        </clipPath>
    </defs>
</svg>
