<svg width="16" height="16" viewBox="0 0 16 16" fill="none" xmlns="http://www.w3.org/2000/svg">
    <path d="M8 2v11.795m0 0c-1.007 0-1.97.181-2.862.513M8 13.795c1.006 0 1.97.181 2.861.513m1.754-10.961A33.105 33.105 0 0 0 8 3.026c-1.567 0-3.108.109-4.615.321m9.23 0c.69.098 1.375.217 2.052.356m-2.052-.356 1.792 7.334c.083.341-.073.703-.403.822-.445.16-.915.241-1.389.24-.473.001-.943-.08-1.388-.24-.33-.12-.487-.48-.404-.822l1.792-7.334zm-9.23 0a33.8 33.8 0 0 0-2.052.356m2.052-.356 1.791 7.334c.083.341-.072.703-.403.822-.445.16-.915.241-1.388.24-.474.001-.944-.08-1.39-.24-.33-.12-.485-.48-.403-.822l1.793-7.334z" stroke="#808B98" stroke-miterlimit="10" stroke-linecap="round"/>
</svg>
