<svg width="32" height="32" viewBox="0 0 32 32" fill="none" xmlns="http://www.w3.org/2000/svg">
    <g clip-path="url(#k4lg9jp3xa)">
        <path d="M26.354 10.446 19.42 3.513c-.201-.2-.472-.313-.755-.313h-11.2a2.133 2.133 0 0 0-2.133 2.134v22.4c0 1.178.955 2.133 2.133 2.133h17.067a2.133 2.133 0 0 0 2.133-2.134V11.2c0-.282-.112-.553-.312-.754zM11.48 22.523c.247 0 .527-.057.706-.112l.145 1.232c-.212.101-.627.18-1.13.18-1.937 0-2.856-1.58-2.856-3.73 0-2.844 1.579-3.953 3.046-3.953.515 0 .873.1 1.02.201l-.247 1.232a1.47 1.47 0 0 0-.684-.145c-.828 0-1.578.717-1.578 2.587 0 1.803.682 2.508 1.578 2.508zm3.675 1.3c-.604 0-1.186-.158-1.444-.303l.213-1.266c.302.168.828.291 1.243.291.683 0 1.03-.358 1.03-.85 0-.55-.336-.818-.974-1.233-1.03-.627-1.422-1.422-1.422-2.105 0-1.21.807-2.218 2.375-2.218.503 0 .975.134 1.187.269l-.236 1.265a1.785 1.785 0 0 0-.951-.257c-.627 0-.93.38-.93.784 0 .448.223.682 1.03 1.175 1.008.605 1.366 1.366 1.366 2.161 0 1.378-1.02 2.286-2.487 2.286zm6.775-.068h-1.645l-1.68-7.548h1.623l.537 3.259c.123.818.28 1.735.38 2.62h.023c.1-.895.224-1.802.358-2.653l.514-3.225h1.613l-1.723 7.547zM19.2 11.734a1.067 1.067 0 0 1-1.067-1.067V5.23l6.502 6.502H19.2z" fill="#36B712"/>
    </g>
    <defs>
        <clipPath id="k4lg9jp3xa">
            <path fill="#dfdfdf" d="M0 0h32v32H0z"/>
        </clipPath>
    </defs>
</svg>
