<svg width="20" height="20" viewBox="0 0 20 20" fill="none" xmlns="http://www.w3.org/2000/svg">
<circle cx="10" cy="10" r="9.75" fill="white" stroke="#C3CCD0" stroke-width="0.5"/>
<path d="M14.1339 9.80105C14.1339 9.80105 14.1339 9.7666 14.1339 9.74938C14.1339 9.18964 14.0157 8.65573 13.8047 8.15627C13.7878 8.1046 13.7625 8.06154 13.7372 8.00987L13.7034 7.94098C13.6612 7.85487 13.619 7.76875 13.5683 7.69125C13.4417 7.46735 13.2898 7.26068 13.1294 7.07123L13.0703 7.00234C13.0197 6.94206 12.969 6.89039 12.9184 6.83872C12.7073 6.62344 12.471 6.43398 12.2177 6.27037L12.1924 6.25314L12.0742 6.18425C11.5847 5.90008 11.0529 5.71924 10.4957 5.65035H10.4789C10.3269 5.63312 10.175 5.62451 10.023 5.62451C9.99771 5.62451 9.98083 5.62451 9.96395 5.62451C9.96395 5.62451 9.92174 5.62451 9.90486 5.62451H9.87954C9.68539 5.62451 9.4828 5.65035 9.28865 5.6934H9.27177C9.09451 5.72785 8.92568 5.77952 8.75686 5.83119C8.57959 5.89147 8.41077 5.96036 8.25039 6.03786C8.14065 6.08953 8.03092 6.14981 7.92962 6.2187L7.81989 6.28759C7.48224 6.51149 7.17836 6.77844 6.91668 7.09706L6.85759 7.17457C6.81538 7.22623 6.77318 7.2779 6.73941 7.33818C6.59591 7.53625 6.4693 7.74292 6.368 7.9582L6.33424 8.0271C6.081 8.56961 5.94594 9.15519 5.9375 9.7666C5.9375 9.78382 5.9375 9.80105 5.9375 9.82688C5.9375 10.0594 5.95438 10.2919 5.98815 10.5158C6.04724 10.8689 6.14853 11.2047 6.29203 11.5319L6.32579 11.6008C6.35956 11.6697 6.39332 11.7386 6.42709 11.8075C6.58747 12.1089 6.78162 12.3931 7.00953 12.6428L7.07706 12.7203C7.07706 12.7203 7.14459 12.7892 7.17836 12.815C7.34718 12.9873 7.52444 13.1423 7.71859 13.2801C7.7608 13.3059 7.79456 13.3317 7.83677 13.3576L7.96339 13.4351C8.03092 13.4781 8.10689 13.5212 8.18286 13.5556C8.28415 13.6073 8.38545 13.6503 8.48674 13.702C8.91724 13.8829 9.37307 13.9948 9.82889 14.012C9.8711 14.012 9.92174 14.012 9.96395 14.012C9.97239 14.012 9.98083 14.012 9.98927 14.012C10.0062 14.012 10.023 14.012 10.0399 14.012H10.0568C10.749 14.012 11.4243 13.8312 12.0236 13.4953L12.1502 13.4264C12.4203 13.2628 12.6651 13.0648 12.893 12.8495C12.9775 12.7634 13.0619 12.6773 13.1463 12.5825L13.2138 12.505C13.3826 12.2984 13.5261 12.0831 13.6527 11.8592C13.7034 11.7731 13.7456 11.6869 13.7878 11.5922L13.8216 11.5233C14.0579 10.9808 14.1761 10.4125 14.1761 9.81827L14.1339 9.80105ZM9.26333 13.7623C9.22112 13.7537 9.17048 13.7451 9.12827 13.7365C9.09451 13.7365 9.06918 13.7192 9.03542 13.7106C8.99321 13.702 8.95101 13.6848 8.9088 13.6762C8.87504 13.6676 8.84971 13.659 8.81595 13.6503C8.77374 13.6331 8.73153 13.6245 8.68933 13.6073C8.65556 13.5987 8.63024 13.5815 8.59648 13.5728C8.55427 13.5556 8.5205 13.5384 8.4783 13.5212C8.44453 13.504 8.41921 13.4953 8.38545 13.4781C8.34324 13.4609 8.30948 13.4437 8.26727 13.4178C8.2335 13.4006 8.20818 13.3834 8.17442 13.3748L8.13221 13.3489C8.30103 13.2801 8.46986 13.2112 8.64712 13.1681C8.88348 13.4092 9.14515 13.6245 9.42371 13.7967C9.39839 13.7967 9.37307 13.7967 9.34774 13.7881C9.32242 13.7881 9.28865 13.7795 9.26333 13.7709V13.7623ZM6.07256 9.82688H7.29653C7.30497 10.2316 7.36406 10.6277 7.46536 11.0066C7.09394 11.1272 6.74785 11.265 6.41865 11.4372C6.19918 10.9291 6.081 10.3866 6.081 9.82688H6.07256ZM6.56215 7.85487C6.56215 7.85487 6.59591 7.79459 6.6128 7.76875C6.63812 7.7257 6.66344 7.69125 6.68877 7.64819C6.70565 7.62236 6.72253 7.59652 6.73941 7.57069C6.76474 7.52763 6.7985 7.48458 6.83227 7.44152C6.84915 7.4243 6.85759 7.39846 6.87447 7.38124C6.90824 7.33818 6.942 7.28651 6.98421 7.24346C7.22056 7.37263 7.48224 7.48458 7.74392 7.5793C7.63418 7.82042 7.54977 8.07015 7.48224 8.33711C7.15303 8.22516 6.83227 8.09599 6.53682 7.94959C6.55371 7.92376 6.56215 7.88931 6.57903 7.86348L6.56215 7.85487ZM10.9178 5.87424C10.9178 5.87424 10.9938 5.89147 11.036 5.90008C11.0613 5.90008 11.0866 5.9173 11.112 5.92591C11.1457 5.93452 11.1879 5.94313 11.2217 5.96036C11.247 5.96897 11.2723 5.97758 11.2977 5.98619C11.3314 5.9948 11.3652 6.01203 11.399 6.02064C11.4243 6.02925 11.4496 6.03786 11.4749 6.05508C11.5087 6.07231 11.5425 6.08092 11.5762 6.09814C11.6015 6.10675 11.6269 6.12397 11.6522 6.13259C11.686 6.14981 11.7197 6.16703 11.7535 6.18425C11.7788 6.19286 11.8041 6.21009 11.8295 6.2187L11.8632 6.23592C11.7113 6.32204 11.5509 6.39093 11.3821 6.45982C11.1879 6.22731 10.9769 6.02064 10.749 5.8398C10.7743 5.8398 10.7996 5.84841 10.825 5.85702C10.8503 5.85702 10.8756 5.86563 10.9009 5.87424H10.9178ZM13.1716 7.37263C13.2054 7.4243 13.2391 7.46735 13.2729 7.51902C13.2898 7.54486 13.3067 7.5793 13.332 7.60514C13.3573 7.64819 13.3911 7.69986 13.4164 7.74292C13.4333 7.77736 13.4502 7.81181 13.467 7.83764C13.4839 7.87209 13.5008 7.90654 13.5177 7.94098C13.1547 8.12182 12.7664 8.26821 12.3612 8.38877C12.2937 8.1046 12.1924 7.82903 12.0742 7.56208C12.395 7.44152 12.6989 7.30374 12.9775 7.14012C13.0197 7.19179 13.0703 7.24346 13.1125 7.29513C13.1294 7.32096 13.1463 7.33818 13.1632 7.36402L13.1716 7.37263ZM13.4586 11.7989V11.8161L13.4417 11.8333C13.3995 11.9022 13.3657 11.9625 13.3235 12.0314L13.3067 12.0572C13.2645 12.1261 13.2138 12.1864 13.1716 12.2553L13.1547 12.2725C13.1125 12.3242 13.0787 12.3759 13.0365 12.4189C12.7073 12.2553 12.3528 12.1175 11.9898 12.0142C12.1333 11.7214 12.26 11.4114 12.3444 11.1014C12.7833 11.2305 13.1969 11.3942 13.5768 11.5836V11.6008C13.5346 11.6697 13.5008 11.7386 13.4586 11.8075V11.7989ZM12.606 12.8581C12.606 12.8581 12.5554 12.9012 12.5301 12.9184C12.5132 12.9356 12.4963 12.9442 12.4794 12.9614C12.4541 12.9787 12.4288 13.0045 12.4035 13.0217C12.3866 13.0389 12.3697 13.0475 12.3528 13.0648C12.3275 13.082 12.2937 13.1078 12.2684 13.1251C12.2515 13.1337 12.2346 13.1509 12.2177 13.1595C12.184 13.1853 12.1502 13.2026 12.1165 13.2198C12.0996 13.2284 12.0911 13.237 12.0742 13.2456C12.0405 13.2714 11.9983 13.2887 11.9645 13.3145C11.745 13.2026 11.5256 13.1078 11.2892 13.0389C11.534 12.772 11.745 12.4706 11.9223 12.1433C12.2768 12.2381 12.6145 12.3672 12.9352 12.5223L12.9099 12.5481C12.9099 12.5481 12.8762 12.5825 12.8593 12.5998C12.834 12.6256 12.8171 12.6428 12.7917 12.6686C12.7749 12.6859 12.758 12.7031 12.7411 12.7203C12.7158 12.7461 12.6905 12.7634 12.6736 12.7892C12.6567 12.8064 12.6398 12.8237 12.6229 12.8409L12.606 12.8581ZM11.6437 13.4867C11.6437 13.4867 11.5593 13.5212 11.5171 13.5384C11.4834 13.5556 11.4496 13.5642 11.4158 13.5815C11.3736 13.5987 11.3314 13.6159 11.2892 13.6245C11.2555 13.6331 11.2217 13.6503 11.1879 13.659H11.171C11.171 13.659 11.0951 13.6848 11.0529 13.6934C11.0191 13.702 10.9853 13.7106 10.9516 13.7192C10.9094 13.7278 10.8587 13.7365 10.8165 13.7537C10.7827 13.7537 10.749 13.7709 10.7152 13.7709C10.6646 13.7795 10.6224 13.7881 10.5717 13.7967C10.538 13.7967 10.5126 13.8054 10.4789 13.814C10.4282 13.814 10.3691 13.8226 10.3185 13.8312C10.6139 13.6503 10.884 13.4351 11.1373 13.1853C11.3567 13.2456 11.5593 13.3317 11.7619 13.4264C11.745 13.4264 11.7282 13.4437 11.7197 13.4523C11.686 13.4695 11.6606 13.4867 11.6269 13.4953L11.6437 13.4867ZM7.11927 12.5481C7.11927 12.5481 7.07706 12.4964 7.05174 12.4706C7.0433 12.4534 7.02641 12.4447 7.01797 12.4275C6.99265 12.4017 6.97577 12.3759 6.95044 12.35C6.93356 12.3328 6.92512 12.3156 6.91668 12.2984C6.8998 12.2725 6.87447 12.2467 6.85759 12.2209C6.84915 12.2036 6.83227 12.1864 6.82383 12.1692C6.80694 12.1433 6.79006 12.1175 6.77318 12.0917C6.76474 12.0745 6.74785 12.0572 6.73941 12.04C6.72253 12.0142 6.70565 11.9883 6.68877 11.9625C6.68032 11.9453 6.66344 11.9281 6.655 11.9108C6.63812 11.885 6.62124 11.8592 6.60435 11.8333C6.59591 11.8161 6.57903 11.7989 6.57059 11.7731C6.55371 11.7472 6.54527 11.7214 6.52838 11.6956C6.51994 11.6783 6.5115 11.6525 6.49462 11.6353L6.47774 11.5922C6.7985 11.4286 7.14459 11.2908 7.49912 11.1703C7.60041 11.5233 7.74392 11.8678 7.92118 12.1778C7.64262 12.2811 7.3725 12.4103 7.11927 12.5481V12.5481ZM7.10238 7.09706C7.10238 7.09706 7.13615 7.06262 7.15303 7.04539C7.16991 7.02817 7.19524 7.00234 7.21212 6.98511L7.26277 6.93345C7.26277 6.93345 7.30497 6.89039 7.32186 6.87317C7.33874 6.85594 7.35562 6.83872 7.3725 6.83011C7.39783 6.81289 7.41471 6.78705 7.44003 6.76983C7.45691 6.75261 7.4738 6.744 7.49068 6.72677C7.516 6.70955 7.54133 6.68372 7.55821 6.66649C7.57509 6.64927 7.59197 6.64066 7.60886 6.62344C7.63418 6.60621 7.6595 6.58038 7.68483 6.56316C7.70171 6.55454 7.71859 6.53732 7.73547 6.52871C7.7608 6.51149 7.79456 6.48565 7.81989 6.46843L7.86209 6.4426C7.86209 6.4426 7.92962 6.39954 7.95495 6.38232C8.08156 6.45121 8.20818 6.5201 8.34324 6.57177C8.13221 6.83872 7.9465 7.13151 7.79456 7.45013C7.54133 7.36402 7.30497 7.25207 7.07706 7.13151L7.10238 7.10567V7.09706ZM9.32242 5.8398C9.32242 5.8398 9.37307 5.83119 9.39839 5.82257C9.41527 5.82257 9.43215 5.82257 9.45748 5.81396C9.49124 5.81396 9.51657 5.81396 9.55033 5.80535C9.56721 5.80535 9.5841 5.80535 9.60942 5.80535C9.6263 5.80535 9.65163 5.80535 9.66851 5.80535H9.74448C9.54189 6.06369 9.36462 6.35648 9.21268 6.6751C9.01009 6.63205 8.80751 6.58038 8.61336 6.51149C8.83283 6.26176 9.07762 6.03786 9.3393 5.85702L9.32242 5.8398ZM11.8717 7.48458C11.61 7.57069 11.3399 7.63958 11.0697 7.69125C10.9769 7.38985 10.8672 7.09706 10.7405 6.8215C10.9516 6.77844 11.1542 6.72677 11.3567 6.65788C11.5593 6.90761 11.7366 7.19179 11.8801 7.49319L11.8717 7.48458ZM9.34774 12.8667C9.22112 12.6084 9.10295 12.3328 9.00165 12.04C9.61786 11.9281 10.2678 11.9022 10.884 11.9711C10.7827 12.2897 10.6561 12.5998 10.5211 12.8839C10.1412 12.8323 9.7276 12.8237 9.34774 12.8753V12.8667ZM8.06468 12.1261C7.88742 11.8161 7.75236 11.4803 7.64262 11.1272C7.9465 11.0325 8.25883 10.9636 8.57959 10.9119C8.63024 11.2564 8.70621 11.6008 8.80751 11.9281C8.55427 11.9797 8.30103 12.0486 8.06468 12.1347V12.1261ZM9.28865 6.83872C9.50812 6.87317 9.73604 6.899 9.96395 6.899C10.1665 6.899 10.3776 6.88178 10.5802 6.85594C10.7068 7.13151 10.825 7.4243 10.9178 7.7257C10.2763 7.82903 9.59254 7.82903 8.95101 7.73431C9.04386 7.4243 9.15359 7.1229 9.28865 6.83872V6.83872ZM8.9088 7.8807C9.23801 7.93237 9.56721 7.9582 9.90486 7.9582C10.2594 7.9582 10.6139 7.93237 10.96 7.87209C11.0275 8.13043 11.0866 8.39739 11.1288 8.66434C10.3438 8.76768 9.51657 8.75907 8.73998 8.63851C8.78218 8.38016 8.83283 8.13043 8.90036 7.8807H8.9088ZM10.9431 11.8161C10.2932 11.7472 9.60942 11.7644 8.95945 11.885C8.85815 11.5578 8.78218 11.2219 8.73153 10.8775C9.51657 10.7569 10.3522 10.7483 11.1457 10.8516C11.1035 11.1789 11.0275 11.4975 10.9431 11.8161ZM8.65556 9.78382V9.75799C8.65556 9.43076 8.68089 9.10352 8.72309 8.79351C9.14515 8.85379 9.5841 8.88824 10.023 8.88824C10.4029 8.88824 10.7827 8.8624 11.1542 8.81073C11.1964 9.12074 11.2217 9.43937 11.2217 9.75799C11.2217 9.77521 11.2217 9.79243 11.2217 9.80966C11.2217 10.1111 11.2048 10.4125 11.171 10.7052C10.3607 10.6019 9.51657 10.6105 8.71465 10.7311C8.67245 10.4211 8.65556 10.1111 8.65556 9.79243V9.78382ZM10.6139 13.0475C10.7405 13.0648 10.8672 13.0906 10.9853 13.1251C10.7405 13.3576 10.4789 13.5642 10.1919 13.7278C10.3438 13.5212 10.4789 13.2887 10.6055 13.0475H10.6139ZM11.112 12.9959C10.9685 12.9528 10.825 12.927 10.6815 12.9012C10.825 12.617 10.9431 12.307 11.0444 11.9797C11.2808 12.0142 11.5171 12.0572 11.7535 12.1175C11.5678 12.4447 11.3567 12.7375 11.112 13.0045V12.9959ZM11.8295 11.9711C11.5847 11.9108 11.3399 11.8592 11.0951 11.8247C11.1795 11.5147 11.2555 11.1875 11.2977 10.8689C11.6015 10.9119 11.9054 10.9808 12.1924 11.0583C12.108 11.3769 11.9814 11.6869 11.8379 11.9711H11.8295ZM12.2262 10.9033C11.9307 10.8258 11.6269 10.7569 11.3145 10.7139C11.3483 10.4211 11.3652 10.1283 11.3652 9.82688H12.3697C12.3612 10.1886 12.3106 10.5502 12.2262 10.9033ZM11.3652 9.67187C11.3652 9.37909 11.3399 9.07769 11.2977 8.7849C11.6184 8.74184 11.9392 8.67295 12.2515 8.58684C12.3275 8.93991 12.3697 9.30158 12.3697 9.67187H11.3652ZM12.5301 9.67187C12.5301 9.29297 12.4879 8.91407 12.4035 8.54378C12.8255 8.42322 13.2222 8.26821 13.5937 8.07876C13.83 8.57823 13.9566 9.11213 13.9735 9.67187H12.5301ZM11.2808 8.62989C11.2386 8.36294 11.1795 8.09599 11.112 7.82903C11.399 7.77736 11.6775 7.69986 11.9392 7.61375C12.0574 7.87209 12.1502 8.14766 12.2262 8.43183C11.9139 8.51795 11.6015 8.57823 11.2808 8.62989ZM10.6646 6.66649C10.5042 6.34787 10.3185 6.04647 10.1159 5.77091C10.2256 5.77091 10.3269 5.77091 10.4367 5.78813C10.7321 5.98619 11.0022 6.23592 11.247 6.51149C11.0613 6.57177 10.8672 6.62344 10.6646 6.65788V6.66649ZM10.5042 6.69233C10.1243 6.744 9.73604 6.744 9.35618 6.69233C9.52501 6.36509 9.71071 6.06369 9.92174 5.78813C10.1412 6.06369 10.3354 6.36509 10.5042 6.70094V6.69233ZM9.12827 6.80427C9.00165 7.08845 8.88348 7.38985 8.79062 7.69986C8.49518 7.64819 8.21662 7.5793 7.93806 7.48458C8.09 7.17457 8.27571 6.88178 8.48674 6.61482C8.68933 6.69233 8.9088 6.75261 9.12827 6.79566V6.80427ZM7.87053 7.63097C8.14909 7.7257 8.44453 7.8032 8.74842 7.85487C8.68089 8.1046 8.63024 8.35433 8.58803 8.61267C8.25883 8.561 7.92962 8.4835 7.60886 8.38016C7.67639 8.12182 7.76924 7.87209 7.87053 7.63097V7.63097ZM7.56665 8.53517C7.88742 8.62989 8.22506 8.71601 8.56271 8.76768C8.52051 9.06908 8.50362 9.37048 8.49518 9.68049H7.43159C7.43159 9.29297 7.4738 8.90546 7.56665 8.53517ZM8.49518 9.83549C8.49518 10.1455 8.52051 10.4469 8.55427 10.7483C8.22506 10.8 7.9043 10.8775 7.59197 10.9722C7.49912 10.6019 7.44003 10.223 7.43159 9.83549H8.48674H8.49518ZM8.84971 12.0658C8.94256 12.3586 9.06074 12.6342 9.18736 12.8925C9.01854 12.9184 8.85815 12.9528 8.69777 12.9959C8.48674 12.772 8.30103 12.5309 8.14909 12.2639C8.377 12.1864 8.6218 12.1175 8.85815 12.0658H8.84971ZM9.25489 13.0389C9.39839 13.3145 9.55877 13.5642 9.73604 13.7967C9.40683 13.6245 9.09451 13.392 8.81595 13.1251C8.95945 13.0906 9.11139 13.0562 9.25489 13.0389V13.0389ZM10.4451 13.0389C10.2932 13.3231 10.1243 13.5815 9.93863 13.8226C9.74448 13.5815 9.57565 13.3145 9.42371 13.0303C9.76136 12.9959 10.1074 12.9959 10.4451 13.0389ZM12.5216 9.8441H13.9651C13.9651 10.4038 13.8469 10.9464 13.6274 11.4544C13.2391 11.2564 12.8171 11.0928 12.3697 10.9636C12.4625 10.6019 12.5132 10.223 12.5216 9.8441ZM12.2177 6.46843L12.2431 6.48565C12.3106 6.53732 12.3781 6.58899 12.4457 6.64066L12.4794 6.66649C12.547 6.71816 12.606 6.76983 12.6651 6.83011L12.6989 6.85594C12.758 6.91622 12.8171 6.96789 12.8762 7.02817H12.8846C12.6145 7.2004 12.319 7.32957 12.0152 7.44152C11.8717 7.14012 11.6944 6.86456 11.4918 6.60621C11.6775 6.52871 11.8548 6.4426 12.0236 6.34787C12.0911 6.39093 12.1502 6.42537 12.2177 6.46843V6.46843ZM8.12377 6.27898C8.12377 6.27898 8.16597 6.25314 8.18286 6.24453C8.21662 6.22731 8.24195 6.21009 8.27571 6.20148C8.30103 6.19286 8.31792 6.18425 8.34324 6.16703C8.377 6.14981 8.40233 6.1412 8.43609 6.12397C8.46142 6.11536 8.4783 6.10675 8.50362 6.09814C8.53739 6.08092 8.56271 6.07231 8.59648 6.06369C8.6218 6.05508 8.63868 6.04647 8.66401 6.03786C8.69777 6.02925 8.72309 6.01203 8.75686 6.00341C8.78218 6.00341 8.79906 5.98619 8.82439 5.97758C8.85815 5.96897 8.89192 5.96036 8.92568 5.94313L8.96789 5.92591C8.78218 6.08092 8.61336 6.25314 8.45298 6.43398C8.3348 6.39093 8.22506 6.33926 8.11533 6.27898H8.13221H8.12377ZM6.44397 8.08737C6.74785 8.24238 7.07706 8.37155 7.42315 8.4835C7.3303 8.87101 7.28809 9.26714 7.28809 9.67187H6.07256C6.08944 9.1638 6.19074 8.67295 6.38488 8.21655C6.40177 8.17349 6.42709 8.12182 6.44397 8.07876V8.08737ZM7.78612 13.1337C7.78612 13.1337 7.74392 13.0992 7.71859 13.082C7.66794 13.0475 7.62574 13.0131 7.57509 12.9787C7.54977 12.9614 7.52444 12.9356 7.49912 12.9098C7.45691 12.8753 7.41471 12.8409 7.38094 12.8064C7.35562 12.7806 7.3303 12.7548 7.30497 12.7289C7.27965 12.7031 7.25433 12.6859 7.23744 12.66C7.48224 12.5309 7.73547 12.4103 8.00559 12.3156C8.15753 12.5739 8.34324 12.8237 8.54583 13.0475C8.35168 13.1078 8.16597 13.1767 7.98871 13.2628C7.92118 13.2198 7.86209 13.1853 7.803 13.1423L7.78612 13.1337Z" fill="#2C2C2C"/>
<path d="M8.94266 9.35303C8.94266 9.35303 8.95954 9.35303 8.95954 9.37025V10.2056C8.95954 10.2056 8.95954 10.2228 8.94266 10.2228H8.83292C8.83292 10.2228 8.81604 10.2228 8.81604 10.2056V9.37025C8.81604 9.37025 8.81604 9.35303 8.83292 9.35303H8.94266Z" fill="#2C2C2C"/>
<path d="M9.48287 9.35303C9.48287 9.35303 9.49975 9.35303 9.49975 9.37025V10.2056C9.49975 10.2056 9.49975 10.2228 9.48287 10.2228H9.37313C9.37313 10.2228 9.35625 10.2228 9.35625 10.2056L9.19587 9.74054V10.2056C9.19587 10.2056 9.19587 10.2228 9.17899 10.2228H9.06925C9.06925 10.2228 9.05237 10.2228 9.05237 10.2056V9.37025C9.05237 9.37025 9.05237 9.35303 9.06925 9.35303H9.17899C9.17899 9.35303 9.19587 9.35303 9.19587 9.37025L9.35625 9.83527V9.37025C9.35625 9.37025 9.35625 9.35303 9.37313 9.35303H9.48287Z" fill="#2C2C2C"/>
<path d="M9.57581 9.37025C9.57581 9.37025 9.57581 9.35303 9.59269 9.35303H9.84592C9.94722 9.35303 9.99787 9.4047 9.99787 9.50803V10.0678C9.99787 10.1711 9.94722 10.2228 9.84592 10.2228H9.59269C9.59269 10.2228 9.57581 10.2228 9.57581 10.2056V9.37025ZM9.8206 10.085C9.8206 10.085 9.86281 10.0678 9.86281 10.0419V9.54248C9.86281 9.54248 9.84592 9.49942 9.8206 9.49942H9.71931V10.085H9.8206V10.085Z" fill="#2C2C2C"/>
<path d="M10.5128 9.48238C10.5128 9.48238 10.5128 9.4996 10.4959 9.4996H10.2258V9.71488H10.4284C10.4284 9.71488 10.4452 9.71488 10.4452 9.73211V9.84406C10.4452 9.84406 10.4452 9.86128 10.4284 9.86128H10.2258V10.0852H10.4959C10.4959 10.0852 10.5128 10.0852 10.5128 10.1024V10.2143C10.5128 10.2143 10.5128 10.2316 10.4959 10.2316H10.0992C10.0992 10.2316 10.0823 10.2316 10.0823 10.2143V9.37904C10.0823 9.37904 10.0823 9.36182 10.0992 9.36182H10.4959C10.4959 9.36182 10.5128 9.36182 10.5128 9.37904V9.49099V9.48238Z" fill="#2C2C2C"/>
<path d="M11.0698 9.35303C11.0698 9.35303 11.0951 9.36164 11.0867 9.37886L10.9094 10.2056C10.9094 10.2056 10.901 10.2228 10.8841 10.2228H10.7744C10.7744 10.2228 10.7575 10.2228 10.749 10.2056L10.5718 9.37886C10.5718 9.37886 10.5718 9.35303 10.5887 9.35303H10.69C10.69 9.35303 10.7068 9.35303 10.7153 9.37025L10.825 9.95583L10.9347 9.37025C10.9347 9.37025 10.9432 9.35303 10.9601 9.35303H11.0614H11.0698Z" fill="#2C2C2C"/>
<path d="M14.1002 12.0399C13.7794 14.83 11.3737 17 8.44457 17C6.39336 17 4.59539 15.9322 3.59088 14.3305L3 14.7094L3.29544 13.7966L3.93697 11.8418L5.65053 12.0571L6.85763 12.2121L6.1148 12.6943C7.05177 13.7794 8.38548 14.4597 9.86269 14.4597C11.6185 14.4597 13.1716 13.5038 14.0917 12.0399H14.1002Z" fill="#0069D7"/>
<path d="M6.08109 11.9193C3.97923 10.1109 3.53185 6.86437 5.14411 4.37567C6.27523 2.62756 8.14074 1.68891 9.9978 1.71475L10.0147 1L10.5971 1.7578L11.8464 3.38536L10.7237 4.72013L9.93027 5.66738L9.94715 4.7718C8.53747 4.96986 7.25441 5.72766 6.43562 6.98493C5.46488 8.48332 5.39735 10.3262 6.08953 11.9193H6.08109Z" fill="#0069D7"/>
<path d="M10.5971 4.78026C13.2054 3.87606 16.1598 5.15916 17.4176 7.85454C18.3039 9.74043 18.1351 11.8588 17.1474 13.4692L17.7383 13.8481L16.8014 13.9686L14.7924 14.2184L14.2437 12.5478L13.8554 11.368L14.5982 11.8416C15.1553 10.5155 15.1891 8.99124 14.5476 7.63064C13.7879 6.01169 12.2769 5.00416 10.5802 4.78026H10.5971Z" fill="#0069D7"/>
</svg>
