<svg width="20" height="20" viewBox="0 0 20 20" fill="none" xmlns="http://www.w3.org/2000/svg">
<g clip-path="url(#clip0_1_87190)">
<rect width="20" height="20" rx="10" fill="#EFF1F4"/>
<path d="M5.08771 9.29247C4.97279 9.00458 4.78048 8.79388 4.48139 8.69355C4.27512 8.62441 4.06199 8.62589 3.84864 8.64566C3.49912 8.67801 3.26209 8.86006 3.13575 9.18759C3.10562 9.26572 3.08712 9.34744 3.06238 9.43731C3.04662 9.40855 3.05075 9.38741 3.05064 9.36753C3.05022 9.19658 3.05043 9.02573 3.05043 8.85478C3.05043 8.60284 3.05202 8.3509 3.0499 8.09896C3.04779 7.84618 2.8706 7.67195 2.61876 7.6711C2.50596 7.67068 2.39326 7.671 2.28045 7.67131C2.17335 7.67163 2.08032 7.70832 2.00409 7.78349C1.90915 7.87694 1.87522 7.99419 1.87522 8.12423C1.87532 9.13737 1.87522 10.1504 1.87532 11.1635C1.87532 11.301 1.87437 11.4384 1.87574 11.5759C1.87807 11.7978 2.02693 11.966 2.24641 11.9814C2.39717 11.9921 2.54941 11.9919 2.70049 11.9798C2.8264 11.9698 2.92113 11.9048 2.98816 11.7982C3.03267 11.7275 3.05096 11.6501 3.05064 11.5672C3.05011 11.4552 3.05054 11.3434 3.05054 11.2314C3.05498 11.2309 3.05942 11.2304 3.06375 11.2297C3.08627 11.2866 3.10678 11.3443 3.13152 11.4003C3.24919 11.6673 3.43251 11.8665 3.71902 11.9529C3.90055 12.0076 4.08736 12.0066 4.27417 11.989C4.59842 11.9585 4.8456 11.8051 5.00799 11.5209C5.13856 11.2924 5.18688 11.041 5.2039 10.7826C5.22145 10.5153 5.2131 10.2471 5.21077 9.97956C5.20844 9.74454 5.17578 9.51311 5.08771 9.29247ZM4.08472 10.5075C4.04338 10.7157 3.92529 10.8256 3.71574 10.8568C3.65453 10.8659 3.59321 10.8696 3.53147 10.8682C3.45894 10.8707 3.38747 10.8634 3.31653 10.8481C3.14991 10.8121 3.04504 10.7117 3.00846 10.5458C2.97346 10.3874 2.9741 10.2279 3.0129 10.0695C3.0536 9.90365 3.16091 9.80543 3.3251 9.76959C3.46613 9.73883 3.60854 9.73915 3.74968 9.76949C3.93184 9.80871 4.04338 9.92152 4.08144 10.1035C4.10946 10.2375 4.11146 10.3731 4.08472 10.5075Z" fill="#1E51F5"/>
<path d="M8.79034 10.0689C8.79171 9.95755 8.77924 9.84728 8.75651 9.73849C8.67351 9.34245 8.47021 9.03184 8.11043 8.83266C7.89529 8.71361 7.66259 8.65303 7.41964 8.64267C7.1122 8.62956 6.80317 8.61423 6.49985 8.68982C5.99006 8.81701 5.65016 9.12445 5.50373 9.63478C5.43966 9.85796 5.44157 10.0871 5.44569 10.3164C5.44791 10.4659 5.43945 10.6157 5.45827 10.765C5.52826 11.3198 5.84649 11.741 6.39434 11.913C6.71172 12.0126 7.03756 11.9992 7.36308 11.9925C7.4669 11.9904 7.57008 11.9771 7.672 11.9562C8.31088 11.8252 8.71157 11.3859 8.77924 10.7396C8.80271 10.5164 8.78759 10.2925 8.79034 10.0689ZM7.65879 10.5448C7.61354 10.7297 7.49301 10.8335 7.30948 10.8664C7.18578 10.8886 7.06113 10.888 6.9368 10.8678C6.73953 10.8356 6.62038 10.7283 6.57597 10.5335C6.54182 10.384 6.54394 10.2328 6.57893 10.0836C6.61964 9.91018 6.73181 9.8071 6.90414 9.76947C7.04707 9.73828 7.19096 9.73923 7.33379 9.76936C7.52156 9.80901 7.63743 9.93661 7.66872 10.1307C7.67887 10.1935 7.683 10.2565 7.68183 10.3143C7.68247 10.3957 7.67686 10.4707 7.65879 10.5448Z" fill="#1E51F5"/>
<path d="M17.767 10.3183C17.7632 10.1741 17.77 10.03 17.7562 9.88557C17.6996 9.29543 17.332 8.85139 16.7548 8.70222C16.3603 8.6003 15.9561 8.60294 15.5596 8.67504C14.9719 8.78193 14.5863 9.12849 14.4626 9.72307C14.3861 10.0909 14.3932 10.4686 14.4497 10.8377C14.5357 11.4005 14.8668 11.7657 15.4163 11.9263C15.719 12.0147 16.0298 11.9994 16.3395 11.9929C16.4611 11.9904 16.5816 11.9744 16.6999 11.9455C17.2316 11.8152 17.5795 11.4947 17.7188 10.9589C17.7735 10.7482 17.7695 10.5332 17.767 10.3183ZM16.6448 10.5019C16.6091 10.7034 16.4982 10.8244 16.2985 10.864C16.1541 10.8927 16.0082 10.8925 15.864 10.8574C15.6954 10.8164 15.5924 10.7094 15.554 10.5411C15.5191 10.3878 15.5198 10.2334 15.5559 10.0808C15.5958 9.912 15.7062 9.8103 15.8734 9.77128C16.0051 9.74052 16.139 9.73872 16.2718 9.76251C16.5098 9.80512 16.6344 9.9471 16.6538 10.1916C16.6572 10.2337 16.6586 10.276 16.6607 10.3155C16.6565 10.3795 16.6557 10.4409 16.6448 10.5019Z" fill="#1E51F5"/>
<path d="M14.0973 10.9068C14.023 10.8656 13.9419 10.8513 13.8584 10.8507C13.6875 10.8497 13.5166 10.8495 13.3456 10.8508C13.176 10.8521 13.0082 10.8675 12.8458 10.921C12.8335 10.925 12.8189 10.9355 12.8094 10.9148C12.8184 10.9069 12.8272 10.8983 12.8367 10.8906C13.2354 10.566 13.6335 10.2409 14.033 9.91751C14.1839 9.7954 14.284 9.64622 14.2908 9.44757C14.2953 9.31214 14.3008 9.17576 14.2906 9.04096C14.2731 8.81122 14.111 8.65116 13.8959 8.65042C13.2158 8.64778 12.5357 8.64778 11.8556 8.65042C11.6358 8.65127 11.4712 8.80721 11.4582 9.02309C11.4508 9.14594 11.4554 9.26964 11.4577 9.39291C11.459 9.46089 11.4803 9.52464 11.5176 9.58194C11.599 9.70691 11.7213 9.75702 11.8639 9.76062C12.0242 9.76463 12.1846 9.76241 12.3449 9.76231C12.4754 9.7622 12.6051 9.75269 12.7333 9.72594C12.7701 9.71822 12.805 9.70004 12.8499 9.71346C12.8392 9.72234 12.8284 9.73101 12.818 9.7401C12.4489 10.0615 12.0804 10.3837 11.7103 10.7039C11.5683 10.8267 11.4593 10.9681 11.4475 11.1622C11.4396 11.2939 11.4426 11.4263 11.4433 11.5584C11.4443 11.8088 11.6189 11.9821 11.8699 11.9824C12.2752 11.9829 12.6804 11.9825 13.0857 11.9825C13.3535 11.9825 13.6212 11.9836 13.889 11.9821C14.1098 11.9807 14.2717 11.8397 14.2898 11.6207C14.3012 11.4843 14.2976 11.3458 14.2902 11.2088C14.2833 11.0753 14.2161 10.9725 14.0973 10.9068Z" fill="#1E51F5"/>
<path d="M11.0088 8.65597C10.9526 8.64688 10.8963 8.64899 10.8401 8.65037C10.6247 8.65565 10.4545 8.73727 10.3588 8.94111C10.3197 9.02442 10.2971 9.11291 10.2783 9.20245C10.2622 9.27878 10.2449 9.3549 10.228 9.43103C10.2233 9.42997 10.2186 9.42891 10.2139 9.42785C10.2139 9.31346 10.2147 9.19907 10.2137 9.08468C10.2114 8.85293 10.0558 8.67331 9.82641 8.65365C9.69002 8.64202 9.55185 8.64995 9.41451 8.65217C9.37635 8.6528 9.33818 8.66295 9.3017 8.67775C9.13382 8.74562 9.04046 8.8912 9.04025 9.09113C9.03962 9.58263 9.04004 10.0742 9.04004 10.5657C9.04004 10.9005 9.043 11.2353 9.03909 11.57C9.03676 11.7662 9.18499 11.9928 9.45088 11.9828C9.57056 11.9782 9.69045 11.9826 9.81023 11.9817C9.84353 11.9814 9.87758 11.9801 9.90982 11.9727C10.0902 11.9311 10.2129 11.7692 10.2135 11.5719C10.2143 11.2213 10.2136 10.8707 10.2139 10.5201C10.214 10.4003 10.2117 10.2803 10.2168 10.1607C10.2278 9.91016 10.3585 9.78181 10.6076 9.76691C10.715 9.76046 10.8224 9.76299 10.9298 9.76162C11.1113 9.7594 11.2629 9.62714 11.2721 9.44709C11.2807 9.27667 11.2793 9.10529 11.2718 8.93476C11.2652 8.78347 11.1599 8.6805 11.0088 8.65597Z" fill="#1E51F5"/>
</g>
<defs>
<clipPath id="clip0_1_87190">
<rect width="20" height="20" fill="white"/>
</clipPath>
</defs>
</svg>
