<svg width="24" height="24" viewBox="0 0 24 24" fill="none" xmlns="http://www.w3.org/2000/svg">
<path d="M10.8381 9.22734C11.1854 9.12316 11.5673 9.05371 11.9979 9.05371C13.9148 9.05371 15.4705 10.6094 15.4705 12.5263C15.4705 14.4431 13.9148 15.9988 11.9979 15.9988C10.0811 15.9988 8.52539 14.4431 8.52539 12.5263" stroke="#D1D5DB" stroke-width="1.4" stroke-linecap="round" stroke-linejoin="round"/>
<path d="M10.3452 9.32456L11.4981 7.99805" stroke="#D1D5DB" stroke-width="1.4" stroke-linecap="round" stroke-linejoin="round"/>
<path d="M10.3452 9.32129L11.6926 10.3075" stroke="#D1D5DB" stroke-width="1.4" stroke-linecap="round" stroke-linejoin="round"/>
<path d="M9.25004 21.1663H14.75C19.3334 21.1663 21.1667 19.333 21.1667 14.7497V9.24967C21.1667 4.66634 19.3334 2.83301 14.75 2.83301H9.25004C4.66671 2.83301 2.83337 4.66634 2.83337 9.24967V14.7497C2.83337 19.333 4.66671 21.1663 9.25004 21.1663Z" stroke="#D1D5DB" stroke-width="1.4" stroke-linecap="round" stroke-linejoin="round"/>
<path d="M22.3563 18.693C22.3563 19.793 21.8705 20.7739 21.1096 21.443C20.4588 22.0114 19.6154 22.3597 18.6896 22.3597C16.6638 22.3597 15.0229 20.7189 15.0229 18.693C15.0229 17.538 15.5546 16.5022 16.3979 15.833C17.0304 15.3289 17.8279 15.0264 18.6896 15.0264C20.7154 15.0264 22.3563 16.6672 22.3563 18.693Z" fill="white" stroke="#4B5563" stroke-width="1.4" stroke-miterlimit="10" stroke-linecap="round" stroke-linejoin="round"/>
<path d="M19.6711 19.6461L17.7278 17.7119" stroke="#4B5563" stroke-width="1.4" stroke-miterlimit="10" stroke-linecap="round" stroke-linejoin="round"/>
<path d="M19.6516 17.7393L17.7083 19.6734" stroke="#4B5563" stroke-width="1.4" stroke-miterlimit="10" stroke-linecap="round" stroke-linejoin="round"/>
</svg>
