<svg width="20" height="20" viewBox="0 0 20 20" fill="none" xmlns="http://www.w3.org/2000/svg">
<g clip-path="url(#clip0_8828_87913)">
<rect width="20" height="20" rx="10" fill="#384852"/>
<g clip-path="url(#clip1_8828_87913)">
<path d="M11.4167 12.1721C11.25 12.3423 11.0849 12.5052 10.9092 12.6565C10.6534 12.8767 10.3795 13.0683 10.0724 13.2063C9.86022 13.3017 9.63965 13.3694 9.41159 13.4113C9.16141 13.4572 8.9092 13.4802 8.65514 13.4833C8.49724 13.4853 8.33952 13.486 8.18203 13.4705C7.68793 13.4219 7.23147 13.2679 6.83084 12.9608C6.57756 12.7667 6.37562 12.5259 6.22145 12.2423C6.05476 11.9358 5.95401 11.6074 5.90217 11.2618C5.85073 10.919 5.84356 10.5751 5.88107 10.2306C5.93923 9.69615 6.10829 9.20324 6.41657 8.76509C6.69862 8.36423 7.05868 8.05536 7.48446 7.82495C7.85615 7.6238 8.25209 7.49376 8.6601 7.39848C8.98271 7.32314 9.30875 7.26792 9.63661 7.22288C10.0203 7.17021 10.4056 7.1317 10.7902 7.08735C10.8593 7.07937 10.9283 7.06995 10.9975 7.06526C11.0455 7.06203 11.0467 7.06203 11.0465 7.01149C11.0458 6.87279 11.0447 6.73402 11.0457 6.59531C11.0471 6.40821 11.0404 6.22151 11.0137 6.03638C10.9807 5.80747 10.9061 5.59562 10.7518 5.42066C10.6128 5.2631 10.4374 5.16672 10.2402 5.11C10.0329 5.05033 9.82248 5.04414 9.60953 5.07271C9.39822 5.10104 9.1987 5.16435 9.01621 5.27738C8.73862 5.44934 8.55726 5.69837 8.46289 6.01573C8.43937 6.09483 8.42983 6.17797 8.397 6.25429C8.36288 6.33356 8.31504 6.40133 8.24097 6.44631C8.19105 6.47661 8.13769 6.48806 8.07908 6.48141C7.87741 6.45863 7.67558 6.43787 7.4738 6.41613C7.2683 6.39404 7.06291 6.37138 6.85736 6.34964C6.72846 6.33599 6.59951 6.32281 6.47044 6.31084C6.39813 6.30414 6.33038 6.28523 6.26929 6.24383C6.17694 6.18127 6.13148 6.09379 6.13622 5.98012C6.13994 5.89096 6.16391 5.80539 6.18326 5.71924C6.22297 5.54254 6.27611 5.36966 6.3455 5.20309C6.50215 4.82715 6.71537 4.48977 7.00464 4.20525C7.33487 3.88042 7.71851 3.64371 8.14378 3.47459C8.51541 3.32692 8.90029 3.23348 9.29465 3.18C9.67378 3.1286 10.0547 3.11172 10.4365 3.13577C10.8395 3.16115 11.2349 3.23152 11.6194 3.36016C11.9663 3.47626 12.2947 3.63064 12.5844 3.86209C12.987 4.18374 13.2629 4.5942 13.3999 5.09948C13.4809 5.39776 13.5183 5.70328 13.5312 6.01203C13.5561 6.60318 13.5382 7.19472 13.5453 7.78609C13.5489 8.08271 13.5476 8.37932 13.5485 8.67593C13.5494 8.98023 13.5512 9.28453 13.5508 9.58889C13.5505 9.74876 13.5498 9.90857 13.5549 10.0684C13.5682 10.475 13.6812 10.8486 13.9064 11.1853C14.0053 11.333 14.1087 11.4774 14.2125 11.6214C14.2656 11.6951 14.3055 11.7747 14.3171 11.8675C14.3303 11.9718 14.2973 12.0572 14.2201 12.1248C14.0973 12.2325 13.9728 12.3381 13.8508 12.4468C13.5303 12.7325 13.2111 13.0197 12.8907 13.3054C12.7712 13.4118 12.6359 13.4473 12.4826 13.3937C12.4518 13.383 12.4251 13.3664 12.4001 13.3453C12.1068 13.098 11.8435 12.8224 11.6326 12.4967C11.5631 12.3893 11.491 12.2836 11.4167 12.1721ZM11.0493 9.07517C11.0493 8.90374 11.0496 8.73225 11.0491 8.56081C11.049 8.52022 11.0478 8.51912 11.0085 8.52028C10.8921 8.52369 10.7757 8.52913 10.6593 8.5319C10.5501 8.5345 10.4417 8.54682 10.3335 8.55913C10.1545 8.57949 9.97698 8.61094 9.802 8.65668C9.56762 8.71796 9.34339 8.80371 9.13812 8.93669C8.75216 9.18682 8.53295 9.54726 8.46481 10.0075C8.43762 10.1913 8.43531 10.3756 8.45212 10.5604C8.47005 10.7583 8.51936 10.9472 8.61226 11.1221C8.71769 11.3205 8.86442 11.4769 9.07104 11.5649C9.37374 11.694 9.67643 11.6799 9.97569 11.5527C10.2179 11.4499 10.4118 11.2815 10.5684 11.0688C10.8187 10.729 10.9601 10.3439 11.0136 9.92303C11.0495 9.64133 11.0515 9.35837 11.0493 9.07517Z" fill="white"/>
<path d="M9.94602 16.8741C9.55087 16.8724 9.19712 16.8428 8.84569 16.7882C8.4031 16.7193 7.96976 16.6102 7.54579 16.4627C7.12892 16.3176 6.72587 16.1395 6.33822 15.9254C6.00039 15.7388 5.67552 15.531 5.36431 15.3007C5.04684 15.0658 4.74707 14.809 4.46142 14.5349C4.27069 14.352 4.08646 14.1621 3.91469 13.9598C3.87893 13.9177 3.84147 13.8771 3.80509 13.8356C3.77395 13.8 3.75618 13.7576 3.75116 13.7107C3.74541 13.6574 3.76069 13.6102 3.80486 13.5788C3.84723 13.5486 3.89145 13.5597 3.93195 13.5843C3.96744 13.6059 4.00111 13.6307 4.03456 13.6555C4.50463 14.0041 4.99945 14.3107 5.51887 14.5755C5.9653 14.8031 6.42464 14.9991 6.8977 15.1607C7.4209 15.3395 7.95453 15.476 8.49843 15.5696C8.76909 15.6161 9.04138 15.6507 9.3148 15.6738C9.6972 15.706 10.0806 15.7145 10.464 15.6997C10.9134 15.6825 11.3595 15.6316 11.802 15.5485C12.0516 15.5016 12.2992 15.446 12.5448 15.3805C12.9197 15.2807 13.2876 15.1587 13.6497 15.0184C13.931 14.9094 14.2072 14.7878 14.4772 14.6519C14.5868 14.5966 14.6954 14.5393 14.8044 14.4829C14.8246 14.4725 14.8444 14.4612 14.8651 14.4523C15.0037 14.3926 15.142 14.4768 15.1575 14.6305C15.1646 14.7004 15.1473 14.7639 15.1079 14.8216C15.0619 14.8889 14.9984 14.938 14.9391 14.9909C14.5361 15.3501 14.0986 15.6577 13.6273 15.9153C13.1767 16.1615 12.7079 16.3623 12.2202 16.5169C11.9204 16.612 11.6165 16.6903 11.3078 16.7481C10.8447 16.8347 10.378 16.8824 9.94602 16.8741Z" fill="#16B0E6"/>
<path d="M14.9666 13.9703C14.664 13.9783 14.3983 14.002 14.1332 14.0335C14.0624 14.0419 13.9917 14.0552 13.92 14.0515C13.8487 14.0479 13.818 13.9889 13.8539 13.9255C13.8641 13.9074 13.8774 13.8904 13.8921 13.8759C13.9082 13.86 13.9269 13.8465 13.9456 13.8337C14.1127 13.7196 14.2939 13.6358 14.4859 13.5774C14.7515 13.4965 15.0236 13.4566 15.3004 13.4534C15.5264 13.4509 15.7513 13.4652 15.9714 13.5241C16.0242 13.5383 16.0752 13.5571 16.1253 13.5797C16.1943 13.6108 16.2279 13.6658 16.2386 13.7398C16.2509 13.8241 16.2534 13.9089 16.2468 13.9934C16.2254 14.2659 16.1636 14.5291 16.0726 14.7857C15.9868 15.0279 15.8736 15.2553 15.7274 15.4652C15.6386 15.5927 15.5361 15.7076 15.4204 15.81C15.384 15.8423 15.3446 15.8665 15.2949 15.8683C15.2415 15.8702 15.2143 15.8449 15.2113 15.7906C15.2099 15.7667 15.2168 15.745 15.2253 15.7235C15.3205 15.4825 15.4105 15.2394 15.49 14.9925C15.5582 14.7802 15.6194 14.5657 15.6326 14.3405C15.6348 14.3018 15.6324 14.2636 15.6291 14.2252C15.6206 14.1227 15.5657 14.0602 15.472 14.0295C15.3948 14.0041 15.3154 13.9889 15.235 13.9821C15.1338 13.9735 15.0324 13.9678 14.9666 13.9703Z" fill="#16B0E6"/>
</g>
</g>
<defs>
<clipPath id="clip0_8828_87913">
<rect width="20" height="20" fill="white"/>
</clipPath>
<clipPath id="clip1_8828_87913">
<rect width="12.5" height="13.75" fill="white" transform="translate(3.75 3.125)"/>
</clipPath>
</defs>
</svg>
