<svg width="12" height="12" viewBox="0 0 12 12" fill="none" xmlns="http://www.w3.org/2000/svg">
    <path d="M6 1.5H1.5A.5.5 0 0 0 1 2v5.95a.5.5 0 0 0 .5.5h3.159a.3.3 0 0 1 .151.04l3.188 1.866a.1.1 0 0 0 .144-.122l-.529-1.377a.3.3 0 0 1 .28-.408H10.5a.5.5 0 0 0 .5-.5V5" stroke="#DFDFDF" stroke-linecap="round"/>
    <path d="M9.782 1.209a.713.713 0 0 1 1.009 1.009L7.387 5.621 6 6l.379-1.387 3.403-3.404z" fill="#DFDFDF" stroke="#DFDFDF" stroke-width=".833" stroke-linecap="round" stroke-linejoin="round"/>
</svg>
