<svg width="125" height="21" viewBox="0 0 125 21" fill="none" xmlns="http://www.w3.org/2000/svg">
<path d="M45.3915 12.2028C45.3707 12.0778 45.3707 11.9736 45.3707 11.8486C45.3707 10.8277 45.704 10.0151 46.3916 9.43178C47.0166 8.86926 47.8291 8.57757 48.6625 8.57757C49.7459 8.57757 50.5168 8.97342 50.9335 9.8068L45.3915 12.2028ZM53.3294 10.7235C53.3503 9.57762 52.8502 8.49424 51.9544 7.76503C51.0585 7.01499 49.9126 6.61914 48.5583 6.61914C47.7041 6.61914 46.8499 6.80665 46.0999 7.2025C45.3082 7.61919 44.6206 8.22339 44.1415 8.99426C43.5998 9.82764 43.3289 10.8069 43.3497 11.8069C43.3497 13.3486 43.8498 14.5779 44.8707 15.5154C45.8499 16.4321 47.1624 16.953 48.5167 16.9322C50.1418 16.9322 51.5377 16.3071 52.7252 15.0779L51.496 13.7028C50.8293 14.557 49.8084 15.0362 48.725 15.0154C47.6 15.0154 46.7249 14.6196 46.0582 13.8278L53.3294 10.7652V10.7235Z" fill="white"/>
<path d="M40.9325 7.2637C40.3491 7.65956 39.8699 8.20125 39.5366 8.80545V6.78451H37.4531V16.7642H39.5574V12.4931C39.5574 11.3472 39.8282 10.4514 40.3491 9.76383C40.87 9.0763 41.6408 8.74294 42.6826 8.74294H42.7867V6.63867C42.12 6.65951 41.4742 6.86785 40.9325 7.2637Z" fill="white"/>
<path d="M60.8715 11.7021C60.5798 11.4937 60.2464 11.3271 59.9131 11.1812C59.6214 11.0562 59.3089 10.9312 58.9964 10.8479C58.6838 10.7437 58.3297 10.6604 57.9338 10.5562C57.6005 10.4729 57.2879 10.3687 56.9754 10.2437C56.6629 10.1395 56.4754 9.84782 56.4754 9.51447C56.4546 9.18112 56.6421 8.84777 56.9546 8.70193C57.3296 8.51442 57.7463 8.43108 58.163 8.43108C59.1214 8.43108 60.0381 8.70193 60.8298 9.24363L61.6215 7.68105C60.6631 7.01435 59.5172 6.66016 58.3505 6.66016C57.1838 6.66016 56.267 6.931 55.5378 7.51437C54.8295 8.03523 54.4336 8.86861 54.4753 9.74365C54.4753 11.0562 55.517 11.9938 57.5796 12.5563C57.6213 12.5771 57.7046 12.598 57.8088 12.6188C59.1214 13.0146 59.7881 13.473 59.7881 13.973C59.7881 14.3064 59.6422 14.6189 59.3922 14.8064C59.0589 15.0356 58.663 15.1606 58.2672 15.1398C57.1838 15.1398 56.0587 14.7022 54.892 13.8272L53.8711 15.4731C54.4961 15.9523 55.2045 16.3273 55.9545 16.5773C56.6837 16.8273 57.4546 16.9523 58.2255 16.9732C59.3089 16.9732 60.1839 16.6815 60.8923 16.119C61.5798 15.5564 61.9548 14.7231 61.934 13.8272C61.8715 12.8271 61.5382 12.1396 60.8715 11.7021Z" fill="white"/>
<path d="M33.0365 10.223C32.599 10.7022 31.7448 10.9314 30.5155 10.9314H27.9529V5.6811H30.203C31.3906 5.6811 32.2865 5.8686 32.8698 6.24362C33.4324 6.61864 33.724 7.26451 33.724 8.16039C33.7032 9.03543 33.474 9.7438 33.0365 10.223ZM34.5991 4.80605C33.6824 4.05601 32.224 3.66016 30.2447 3.66016H25.7236V16.7858H27.9529V12.9106H30.2864C32.224 12.9106 33.6407 12.5356 34.5783 11.8064C35.5158 11.0564 35.995 9.91048 35.995 8.30623C35.9742 6.72282 35.5158 5.55609 34.5991 4.80605Z" fill="white"/>
<path d="M66.7879 15.0982C66.3921 15.1191 65.9962 14.9732 65.7254 14.6816C65.4754 14.369 65.3295 13.9523 65.3504 13.5357V8.4729H67.9963V6.78532H65.3504V3.66016H63.2461V13.5148C63.2461 14.5774 63.5586 15.3899 64.2045 16.0358C64.8087 16.64 65.6421 16.9733 66.4963 16.9733C67.3921 16.9733 68.2047 16.64 68.9339 15.9733L68.0797 14.494C67.6838 14.8899 67.2463 15.0982 66.7879 15.0982Z" fill="white"/>
<path d="M76.4353 14.1397C75.8936 14.7439 75.1227 15.0772 74.331 15.0564C73.5185 15.0564 72.7476 14.7439 72.1642 14.1605C71.5392 13.5563 71.2475 12.7646 71.2475 11.8271C71.2267 10.952 71.5392 10.077 72.1434 9.43111C72.6851 8.82691 73.4768 8.47272 74.3102 8.47272C75.1227 8.45189 75.8936 8.80607 76.4353 9.43111C77.0186 10.0561 77.2895 10.8687 77.2895 11.8271C77.3103 12.6813 76.9978 13.5146 76.4353 14.1397ZM77.2686 8.51439C76.4144 7.26433 75.331 6.6393 74.0185 6.6393C72.7476 6.61846 71.4975 7.11849 70.6016 8.0352C69.6433 8.97275 69.1641 10.202 69.1641 11.7437C69.1641 13.2855 69.6433 14.5564 70.5808 15.5147C71.435 16.4315 72.6434 16.9523 73.8935 16.9315C74.5393 16.9315 75.1852 16.7648 75.7686 16.4731C76.3728 16.1606 76.9145 15.7231 77.2895 15.1606V16.8065H79.3938V6.82681H77.2686V8.51439Z" fill="white"/>
<path d="M110.519 14.1391C109.248 15.3683 107.248 15.3683 105.977 14.1391C105.373 13.514 105.081 12.7431 105.081 11.7848C105.081 10.8264 105.373 10.0347 105.977 9.43048C107.248 8.20125 109.248 8.20125 110.519 9.43048C111.123 10.0555 111.415 10.8264 111.415 11.7848C111.415 12.7431 111.123 13.5349 110.519 14.1391ZM108.269 6.63867C106.769 6.63867 105.498 7.13869 104.498 8.13874C102.498 10.1597 102.498 13.4307 104.498 15.4516C105.498 16.4517 106.748 16.9517 108.269 16.9517C109.79 16.9517 111.019 16.4517 112.04 15.4516C114.04 13.4307 114.04 10.1597 112.04 8.13874C111.019 7.13869 109.769 6.63867 108.269 6.63867Z" fill="#DF1668"/>
<path d="M121.958 14.1397C121.396 14.723 120.604 15.0356 119.792 15.0356C118.979 15.0564 118.229 14.723 117.687 14.1188C117.104 13.4938 116.833 12.7229 116.833 11.7854C116.833 10.8478 117.104 10.0353 117.687 9.41027C118.229 8.80607 119 8.45189 119.812 8.45189C120.646 8.45189 121.417 8.78524 121.979 9.41027C122.583 10.0561 122.917 10.9312 122.875 11.8062C122.875 12.7646 122.563 13.5563 121.958 14.1397ZM123.563 8.0352C122.646 7.11849 121.417 6.61846 120.125 6.6393C118.792 6.6393 117.708 7.26432 116.875 8.53522V6.80597H114.771V20.4317H116.875V15.2856C117.875 16.3898 119 16.9315 120.271 16.9315C121.542 16.9315 122.625 16.4523 123.583 15.4939C124.542 14.5355 125 13.2855 125 11.7229C125 10.1603 124.5 8.95191 123.563 8.0352Z" fill="#DF1668"/>
<path d="M98.1025 6.63952C97.415 6.63952 96.7274 6.82703 96.1441 7.16038C95.5607 7.49373 95.0815 7.99375 94.7898 8.59795V2.84766H92.6855V16.765H94.7898V11.3689C94.7898 10.4314 95.0607 9.723 95.6024 9.26465C96.1232 8.78546 96.8108 8.53544 97.4983 8.53544C99.0192 8.53544 99.7901 9.45216 99.7901 11.3064V16.7859H101.894V10.6397C101.894 9.34799 101.54 8.3271 100.853 7.63957C100.165 6.97287 99.2275 6.63952 98.1025 6.63952Z" fill="#DF1668"/>
<path d="M90.1652 10.4515C89.4776 9.86818 88.4776 9.40982 87.1234 9.07647C85.7691 8.74312 84.8941 8.45144 84.4774 8.15976C84.0815 7.88891 83.8524 7.43056 83.8524 6.95137C83.8315 6.47218 84.0607 6.01382 84.4774 5.76381C84.9566 5.49296 85.4983 5.34712 86.0608 5.36795C86.7275 5.36795 87.3942 5.47213 88.0192 5.70131C88.6026 5.88882 89.1443 6.18049 89.6027 6.55551L90.7902 4.88876C90.1652 4.3679 89.436 3.97205 88.6443 3.72203C87.8317 3.45119 86.9983 3.30535 86.1441 3.32618C84.8524 3.32618 83.7482 3.65953 82.8731 4.3054C81.9981 4.95126 81.5606 5.90965 81.5606 7.11804C81.5606 8.32644 81.9564 9.22232 82.7273 9.82651C83.1232 10.139 83.5815 10.4099 84.0607 10.5766C84.7691 10.8266 85.5191 11.0557 86.2691 11.2016C87.2275 11.4308 87.8942 11.7016 88.3109 11.9725C88.7068 12.2433 88.9151 12.6808 88.9151 13.16C88.936 13.6392 88.6859 14.0976 88.2901 14.3684C87.8734 14.6601 87.3109 14.8268 86.5817 14.8268C85.1649 14.8268 83.7899 14.2434 82.4565 13.0975L81.0605 14.7643C82.644 16.181 84.4774 16.8894 86.5192 16.8894C87.9359 16.8894 89.061 16.5352 89.9152 15.8268C90.7485 15.1601 91.2277 14.1184 91.2069 13.035C91.1861 11.8891 90.8319 11.0766 90.1652 10.4515Z" fill="#DF1668"/>
<path d="M6.59793 15.6609C6.76461 15.5984 6.93128 15.5151 7.09796 15.4734C7.28547 15.4109 7.47298 15.3275 7.66049 15.2859C7.9105 15.2234 8.13968 15.14 8.38969 15.0984C8.72304 15.0359 9.05639 14.9734 9.38974 14.9317C9.20223 15.5359 8.99389 16.1193 8.76471 16.7026C8.78554 16.8068 8.78554 16.9318 8.78554 17.036C9.72309 16.8485 10.6606 16.8485 11.5982 17.036C11.5982 16.9318 11.5982 16.8068 11.619 16.7026C11.3898 16.1193 11.1815 15.5151 10.994 14.9317C11.3273 14.9734 11.6607 15.0359 11.994 15.0984C12.2441 15.14 12.4941 15.2234 12.7232 15.2859C12.9108 15.3484 13.0983 15.4109 13.2858 15.4734C13.4524 15.5359 13.6191 15.5984 13.7858 15.6609C14.9734 16.1818 16.0151 16.9526 16.8693 17.9318C21.1403 14.2442 21.5987 7.80633 17.9318 3.53528C14.265 -0.735774 7.80633 -1.19413 3.53528 2.47272C-0.735775 6.13958 -1.19413 12.5982 2.47272 16.8693C2.80607 17.2443 3.16026 17.5985 3.53528 17.9318C4.38949 16.9735 5.43121 16.2026 6.59793 15.6609Z" fill="#B2DEEB"/>
<path d="M7.28484 17.5151C7.76403 17.3068 8.28489 17.1401 8.80575 17.0359C8.80575 16.9317 8.80575 16.8067 8.78492 16.7026C9.01409 16.1192 9.22244 15.515 9.40995 14.9316C9.0766 14.9733 8.74325 15.0358 8.4099 15.0983C8.15988 15.14 7.90987 15.2233 7.68069 15.2858C7.49318 15.3483 7.30567 15.4108 7.11816 15.4733L7.8682 15.64L7.28484 17.5151Z" fill="#5C5A58"/>
<path d="M5.53526 18.6186C5.55609 18.4311 5.57693 18.2228 5.57693 18.0353C5.57693 17.9311 5.66026 17.8269 5.76444 17.8269C5.76444 17.8269 5.76444 17.8269 5.78527 17.8269H5.97278L6.61865 15.6602C5.43109 16.181 4.38937 16.9519 3.53516 17.9311C4.01435 18.3478 4.53521 18.702 5.0769 19.0145C5.22274 18.8687 5.36858 18.7436 5.53526 18.6186Z" fill="#5C5A58"/>
<path d="M13.7861 15.6602L14.432 17.8269H14.6195C14.7237 17.8269 14.8279 17.9103 14.8279 18.0144C14.8279 18.0144 14.8279 18.0144 14.8279 18.0353C14.8279 18.2228 14.8487 18.4311 14.8695 18.6186C15.0362 18.7645 15.182 18.9103 15.3279 19.0353C15.8696 18.7228 16.3904 18.3478 16.8696 17.9519C16.0362 16.9727 14.9737 16.2019 13.7861 15.6602Z" fill="#5C5A58"/>
<path d="M12.5567 15.64L13.2859 15.4733C13.0984 15.4108 12.9109 15.3275 12.7234 15.2858C12.4734 15.2233 12.2442 15.14 11.9942 15.0983C11.6608 15.0358 11.3275 14.9733 10.9941 14.9316C11.1817 15.5358 11.39 16.1192 11.6192 16.7026C11.5983 16.8067 11.5983 16.9317 11.5983 17.0359C12.1192 17.1401 12.6192 17.2859 13.1193 17.5151L12.5567 15.64Z" fill="#5C5A58"/>
<path d="M10.1811 17.8288H11.6186C11.5978 17.558 11.577 17.308 11.577 17.0371C10.6394 16.8496 9.70187 16.8496 8.76432 17.0371C8.76432 17.308 8.76433 17.558 8.72266 17.8288H10.1811Z" fill="#010101"/>
<path d="M5.07715 19.0352C5.20215 19.0977 5.32716 19.181 5.43133 19.2227C5.473 19.0143 5.49384 18.8268 5.51467 18.5977C5.348 18.7435 5.20215 18.8893 5.07715 19.0352Z" fill="#010101"/>
<path d="M7.18164 17.8269H8.76505C8.78589 17.556 8.80672 17.306 8.80672 17.0352C8.28586 17.1393 7.78584 17.2852 7.28581 17.5143L7.18164 17.8269Z" fill="#010101"/>
<path d="M14.8691 18.6191C14.89 18.8275 14.9108 19.0358 14.9525 19.2442C15.0775 19.1817 15.2025 19.1192 15.3067 19.0567C15.1817 18.89 15.0358 18.7441 14.8691 18.6191Z" fill="#010101"/>
<path d="M13.2234 17.8269L13.1401 17.5143C12.6609 17.306 12.14 17.1393 11.6191 17.0352C11.6191 17.306 11.6191 17.556 11.6608 17.8269H13.2234Z" fill="#010101"/>
<path d="M7.18138 17.8269L7.26472 17.5144L7.82724 15.6393L7.09804 15.4727C6.93137 15.5352 6.76469 15.5977 6.59801 15.6602L5.95215 17.8269H7.18138Z" fill="#B29975"/>
<path d="M13.0977 17.5144L13.181 17.8269H14.4103L13.7644 15.6602C13.5977 15.5977 13.431 15.5143 13.2644 15.4727L12.5352 15.6393L13.0977 17.5144Z" fill="#B29975"/>
<path d="M10.1819 18.2441H5.99415L5.97331 18.265C5.95248 18.6608 5.88998 19.0567 5.80664 19.4525C7.18171 20.0984 8.66095 20.4318 10.1819 20.4318V18.2441Z" fill="#C9B79E"/>
<path d="M14.4324 18.2441C14.4105 18.2441 14.4105 18.266 14.4324 18.2441V18.2441Z" fill="#B29975"/>
<path d="M14.4113 18.2441H10.2236V20.4109C11.7445 20.4109 13.2446 20.0776 14.5989 19.4317C14.5155 19.0359 14.453 18.64 14.4322 18.2441C14.4113 18.265 14.4113 18.2441 14.4113 18.2441Z" fill="#B29975"/>
<path d="M14.8693 18.6179C14.8485 18.4304 14.8276 18.222 14.8276 18.0345C14.8276 17.9303 14.7443 17.8262 14.6401 17.8262H14.6193H5.723C5.61883 17.8262 5.51465 17.9095 5.51465 18.0137C5.51465 18.0137 5.51465 18.0137 5.51465 18.0345C5.51465 18.222 5.49382 18.4304 5.47298 18.6179C5.45215 18.8054 5.41048 19.0346 5.38965 19.2429C5.51465 19.3054 5.63966 19.3679 5.7855 19.4304C5.86884 19.0346 5.93134 18.6387 5.95218 18.2429V18.222H14.3484V18.2429C14.3693 18.6387 14.4109 19.0346 14.5151 19.4304C14.6401 19.3679 14.786 19.3054 14.911 19.2429C14.911 19.0346 14.8901 18.8262 14.8693 18.6179Z" fill="#967C64"/>
<path d="M13.1195 16.3711C13.0778 16.3294 13.057 16.2878 13.0361 16.2461C13.057 16.2878 13.0778 16.3503 13.1195 16.3711Z" fill="#5C5A58"/>
<path d="M13.3483 16.6003C13.265 16.5378 13.1816 16.4544 13.1191 16.3711C13.1816 16.4544 13.265 16.5378 13.3483 16.6003Z" fill="#B29975"/>
<path d="M16.9945 7.95316C16.9112 7.82815 16.8278 7.72398 16.7236 7.6198C16.682 7.57814 16.6403 7.53647 16.5986 7.4948C16.5778 7.47396 16.557 7.45313 16.5361 7.45313L16.4736 7.39062V8.32817L16.8487 9.99492C16.8487 10.0158 16.8487 10.0158 16.8695 10.0366L17.1195 10.3074H17.3695V10.2449C17.3695 9.47407 17.2445 8.72403 17.0153 7.99483C16.9945 7.97399 16.9945 7.97399 16.9945 7.95316Z" fill="#C8C6C7"/>
<path d="M16.8696 10.1419C16.8696 10.1836 16.8904 10.2253 16.8904 10.2878V10.3086V10.4544V10.4753C16.8904 10.517 16.8696 10.5586 16.8696 10.6003L17.1196 10.3294L16.8696 10.0586C16.8488 10.0586 16.8696 10.1211 16.8696 10.1419Z" fill="#727170"/>
<path d="M16.8692 10.4545C16.8692 10.392 16.89 10.3711 16.89 10.3086V10.1211C16.89 10.0794 16.8692 10.0378 16.8692 9.99611C16.8692 9.95444 16.8692 9.97528 16.8483 9.95445C16.8275 9.87111 16.8067 9.80861 16.765 9.7461L16.7442 9.72527C16.7233 9.70443 16.7233 9.6836 16.7025 9.6836L16.64 9.62109L16.6192 9.60026C16.5983 9.57942 16.5775 9.57942 16.5567 9.57942H16.5775C16.5567 9.57942 16.5358 9.55859 16.515 9.55859C16.4942 9.55859 16.4733 9.55859 16.4525 9.57942H16.4317C16.4108 9.57942 16.39 9.60026 16.39 9.60026C16.39 9.60026 16.3692 9.60026 16.3692 9.62109L16.3067 9.6836C16.2858 9.70443 16.2858 9.72527 16.265 9.72527L16.2441 9.7461C16.2025 9.80861 16.1608 9.87111 16.1608 9.95445V9.97528C16.14 10.017 16.14 10.0586 16.14 10.1003V10.142C16.14 10.1836 16.1191 10.2253 16.1191 10.2878V10.3086C16.1191 10.7045 16.2858 11.017 16.515 11.017C16.5567 11.017 16.5775 10.9962 16.6192 10.9753C16.6192 10.9753 16.64 10.9753 16.64 10.9545C16.6608 10.9545 16.6817 10.9337 16.6817 10.9128L16.7025 10.892L16.7442 10.8503C16.765 10.8295 16.765 10.8087 16.7858 10.7878C16.8067 10.767 16.8067 10.767 16.8067 10.7462C16.8067 10.7253 16.8275 10.7045 16.8483 10.6836C16.8483 10.6836 16.8483 10.6628 16.8692 10.6628C16.89 10.6211 16.89 10.6003 16.9108 10.5586C16.8483 10.5586 16.8692 10.517 16.8692 10.4545ZM16.4942 10.2253C16.4108 10.2253 16.3275 10.1003 16.3275 9.95445C16.3275 9.80861 16.39 9.6836 16.4942 9.6836C16.5983 9.6836 16.6608 9.80861 16.6608 9.95445C16.6608 10.1003 16.5775 10.2253 16.4942 10.2253Z" fill="#010101"/>
<path d="M16.4733 10.2253C16.5654 10.2253 16.64 10.104 16.64 9.95444C16.64 9.80486 16.5654 9.68359 16.4733 9.68359C16.3813 9.68359 16.3066 9.80486 16.3066 9.95444C16.3066 10.104 16.3813 10.2253 16.4733 10.2253Z" fill="white"/>
<path d="M16.1191 9.99488C16.14 9.91154 16.1608 9.84904 16.2025 9.78653L16.2233 9.7657C16.2441 9.74487 16.2441 9.72403 16.265 9.72403L16.3275 9.66153L16.3483 9.6407C16.3692 9.61986 16.39 9.61986 16.4108 9.61986H16.4317C16.4525 9.61986 16.4733 9.59902 16.4942 9.59902C16.515 9.59902 16.5358 9.59903 16.5567 9.61986H16.5775C16.5983 9.61986 16.6192 9.6407 16.64 9.6407C16.64 9.6407 16.6608 9.6407 16.6608 9.66153L16.7233 9.72403C16.7442 9.74487 16.7442 9.7657 16.765 9.7657L16.7858 9.78653C16.8275 9.84904 16.8483 9.91154 16.8692 9.99488L16.4942 8.32812L16.1191 9.99488Z" fill="#9C9B9B"/>
<path d="M11.6394 10.2878V10.1836C11.6394 10.1628 11.6394 10.1211 11.6186 10.1003C11.6186 10.0586 11.5977 10.0378 11.5977 10.017C11.5769 9.97529 11.5769 9.95446 11.5561 9.93363C11.5352 9.91279 11.5144 9.87112 11.5144 9.85029C11.4727 9.76695 11.4102 9.68361 11.3477 9.62111C11.2644 9.53777 11.1602 9.47527 11.0561 9.4336C10.9936 9.41277 10.9519 9.39193 10.8894 9.39193C10.8269 9.3711 10.7644 9.37109 10.7227 9.37109C10.6602 9.37109 10.5977 9.3711 10.556 9.39193L10.3894 9.4336C10.3269 9.45444 10.2643 9.47527 10.2227 9.51694C10.1602 9.55861 10.1393 9.57944 10.0768 9.62111C10.0143 9.68361 9.95183 9.76695 9.91016 9.85029C9.88933 9.87112 9.88933 9.89195 9.86849 9.91279C9.84766 9.93362 9.84766 9.95446 9.82682 9.9753V9.99613C9.82682 10.017 9.80599 10.0586 9.80599 10.0586V10.0795C9.80599 10.1003 9.80599 10.1211 9.78516 10.142V10.267C9.78516 10.3295 9.78516 10.392 9.80599 10.4545C9.82682 10.517 9.84766 10.5795 9.84766 10.6212C9.88933 10.7253 9.95183 10.8295 10.0352 10.9128C10.0977 10.9753 10.181 11.0378 10.2643 11.0795C10.2852 11.1004 10.3268 11.1212 10.3477 11.1212C10.3685 11.142 10.4102 11.142 10.4102 11.1629H10.431C10.4519 11.1629 10.4935 11.1837 10.4935 11.1837H10.5144C10.5352 11.1837 10.556 11.1837 10.5769 11.2045H10.7019C10.8269 11.2045 10.9519 11.1837 11.0769 11.142C11.1394 11.1212 11.2019 11.1003 11.2436 11.0587C11.3477 10.9962 11.4311 10.892 11.5144 10.7878C11.5561 10.7462 11.5769 10.6837 11.5977 10.6212C11.6394 10.517 11.6603 10.392 11.6394 10.2878ZM10.7019 10.1836C10.4935 10.1836 10.3269 10.017 10.3269 9.80862C10.3269 9.60027 10.4935 9.4336 10.7019 9.4336C10.9102 9.4336 11.0769 9.60027 11.0769 9.80862C11.0561 10.017 10.8894 10.1836 10.7019 10.1836Z" fill="#010101"/>
<path d="M10.7022 10.1836C10.9093 10.1836 11.0772 10.0157 11.0772 9.80861C11.0772 9.60149 10.9093 9.43359 10.7022 9.43359C10.4951 9.43359 10.3271 9.60149 10.3271 9.80861C10.3271 10.0157 10.4951 10.1836 10.7022 10.1836Z" fill="white"/>
<path d="M10.0348 9.62123L10.7015 7.60029V7.1211C10.3265 7.03776 9.95147 6.99609 9.55561 6.99609C9.43061 6.99609 9.3056 6.9961 9.15976 7.01693H9.09726C8.43055 7.07943 7.78469 7.24611 7.15966 7.51695C6.6388 7.74613 6.15961 8.05865 5.72208 8.43367C5.59708 8.53784 5.49291 8.64201 5.38873 8.74618L5.34706 8.78785C5.24289 8.89203 5.15955 8.9962 5.05538 9.10037C5.03455 9.1212 5.01371 9.14204 4.99288 9.16287C4.90954 9.26704 4.80537 9.39205 4.7012 9.51706C4.7012 9.53789 4.68036 9.53789 4.68036 9.55873C4.59703 9.68373 4.51369 9.7879 4.43035 9.91291C4.40952 9.93374 4.38868 9.97542 4.36785 9.97542C4.30534 10.0796 4.24284 10.1838 4.20117 10.2671H7.20133L10.0348 9.62123Z" fill="#C8C6C7"/>
<path d="M12.5769 9.39139C12.5769 9.32888 12.5978 9.22471 12.5978 9.16221C12.5978 9.05803 12.6186 8.95386 12.6186 8.84969V8.53717C12.6186 8.32883 12.5978 8.12049 12.5978 7.89131H12.5769C12.5352 7.87048 12.4311 7.82881 12.3477 7.76631C12.3269 7.74547 12.3061 7.74547 12.2852 7.72463C12.2852 7.72463 12.2644 7.7038 12.2436 7.7038C12.2227 7.7038 12.2227 7.68297 12.2019 7.68297C12.0561 7.62047 11.9311 7.53712 11.7852 7.49545C11.431 7.37045 11.0768 7.24545 10.7227 7.16211V7.6413L11.3685 9.66224C11.431 9.72474 11.4935 9.80807 11.5352 9.89141C11.556 9.93308 11.5769 9.95392 11.5769 9.97475C11.5977 10.0164 11.5977 10.0373 11.6185 10.0581C11.6394 10.0789 11.6394 10.1206 11.6394 10.1414C11.6394 10.1623 11.6394 10.2039 11.6602 10.2248V10.3289H12.4727C12.5144 10.0373 12.5561 9.72474 12.5978 9.43306V9.39139H12.5769Z" fill="#E9E4E3"/>
<path d="M11.6612 13.1832L12.182 12.6624C12.2862 12.5582 12.3695 12.4748 12.4529 12.3707C13.1196 11.6415 13.6196 10.9539 13.9113 10.0789C13.9113 10.0581 13.9321 10.0164 13.9321 9.99555V9.97472C13.9321 9.93305 13.9529 9.91222 13.9529 9.87055V9.78721C13.8696 9.41219 13.7446 9.01633 13.5988 8.66215L13.5363 8.59965C13.4738 8.53715 13.3696 8.45381 13.3071 8.39131C13.0779 8.18296 12.8279 8.01628 12.5779 7.84961C12.5987 8.05795 12.5987 8.2663 12.5987 8.49548V8.80799C12.5987 8.91216 12.5987 9.01634 12.5779 9.12051C12.5779 9.18301 12.557 9.28719 12.557 9.34969V9.37052C12.5362 9.6622 12.4945 9.97472 12.432 10.2664L12.3695 10.7664C12.182 11.5581 11.7653 12.2873 11.432 13.0374C11.3486 13.2249 11.2653 13.4332 11.182 13.6416C11.182 13.6624 11.1611 13.6832 11.1611 13.7041L11.432 13.4332C11.4945 13.3291 11.5987 13.2666 11.6612 13.1832Z" fill="#F8B232"/>
<path d="M10.0352 9.59906C10.0768 9.55739 10.1185 9.51572 10.181 9.49489C10.2227 9.45322 10.2852 9.45322 10.3477 9.41155C10.4102 9.39071 10.4518 9.36988 10.5143 9.36988C10.5769 9.34904 10.6185 9.34905 10.681 9.34905C10.7435 9.34905 10.806 9.34904 10.8477 9.36988L11.0144 9.41155C11.1185 9.45322 11.2227 9.51572 11.3061 9.59906L10.6602 7.57812L10.0352 9.59906Z" fill="#9C9B9B"/>
<path d="M9.8058 10.6836C9.78496 10.6211 9.76413 10.5586 9.74329 10.517C9.72246 10.4545 9.72246 10.392 9.72246 10.3295V10.2045C9.72246 10.1836 9.72246 10.1628 9.74329 10.142V10.1211C9.74329 10.1003 9.76413 10.0586 9.76413 10.0586V10.0378C9.76413 10.0169 9.78496 9.99611 9.8058 9.97528C9.82663 9.93361 9.82663 9.91277 9.84746 9.91277C9.88913 9.82944 9.95164 9.7461 10.0141 9.68359L7.24316 10.3711L10.0141 11.0378C9.90997 10.892 9.84746 10.7878 9.8058 10.6836Z" fill="#727170"/>
<path d="M16.0779 10.1401V10.0985C16.0779 10.0568 16.0988 10.036 16.0988 9.97346V9.95263L16.4738 8.28588V7.32749C16.2029 7.09831 15.8696 6.95248 15.5154 6.93164C15.0987 6.95248 14.7029 7.13998 14.4112 7.43166C14.0987 7.76502 13.8278 8.14003 13.6403 8.53589C13.6195 8.55672 13.6195 8.57756 13.5986 8.59839C13.6611 8.6609 13.7236 8.70256 13.7653 8.76506C13.9111 8.89007 14.0362 9.01508 14.1612 9.16092L14.3278 9.3276L14.5153 9.5151C14.5987 9.59844 14.682 9.68178 14.7654 9.78595L14.8695 9.89012C14.9529 9.99429 15.057 10.0985 15.1404 10.2026L15.182 10.2443H16.0363V10.2235C16.0571 10.2235 16.0571 10.1818 16.0779 10.1401Z" fill="#E9E4E3"/>
<path d="M3.74353 11.3498C3.78519 11.1831 3.8477 11.0581 3.9102 10.9331L3.9727 10.8289L4.13938 10.5164C4.16021 10.4747 4.18105 10.4331 4.20188 10.3914C4.22272 10.3706 4.22272 10.3497 4.24355 10.3289C4.30606 10.2247 4.36856 10.1206 4.41023 10.0372C4.43106 10.0164 4.4519 9.97471 4.4519 9.97471C4.53523 9.84971 4.59774 9.7247 4.70191 9.62053C4.70191 9.59969 4.72274 9.59969 4.72274 9.57885C4.80608 9.45385 4.88942 9.34968 4.99359 9.22467C5.01442 9.20384 5.03526 9.183 5.05609 9.16217C5.13943 9.05799 5.2436 8.95382 5.34777 8.84965L5.41028 8.78715C5.51445 8.68298 5.63946 8.57881 5.74363 8.47463C6.20198 6.91205 7.63956 5.82867 9.26464 5.80783C9.93134 5.80783 10.598 5.99534 11.1606 6.37036C11.7439 6.72454 12.2231 7.24541 12.5356 7.87044V7.89127C12.5356 7.91211 12.5565 7.93294 12.5565 7.95377C12.8273 8.09961 13.0773 8.28712 13.2857 8.49547C13.3482 8.55797 13.4524 8.64131 13.5149 8.70381L13.5774 8.76631C13.5774 8.74548 13.5982 8.72465 13.5982 8.70381C13.8274 7.22457 14.4732 6.16201 15.2441 6.16201C15.8275 6.16201 16.3275 6.76622 16.6609 7.68293V7.70376L16.9317 8.01627C16.9317 8.03711 16.9317 8.05795 16.9525 8.05795L16.9317 8.01627C15.9525 5.09946 13.2232 3.14103 10.1397 3.14103C6.24365 3.09936 3.03516 6.30786 3.03516 10.2664C3.03516 11.0164 3.16016 11.7665 3.38934 12.4957L3.55602 11.8706C3.61852 11.6623 3.68102 11.4956 3.74353 11.3498Z" fill="#5C5A58"/>
<path d="M17.0981 10.3086L16.8481 10.5794C16.8272 10.6211 16.8272 10.6419 16.8064 10.6836C16.8064 10.6836 16.8064 10.7045 16.7856 10.7045C16.7647 10.7253 16.7647 10.767 16.7439 10.767C16.7231 10.767 16.7231 10.7878 16.7231 10.8086C16.7231 10.8295 16.7022 10.8503 16.6814 10.8503L16.6189 10.9128L16.5981 10.9336C16.5772 10.9545 16.5564 10.9545 16.5564 10.9753C16.5564 10.9961 16.5355 10.9753 16.5355 10.9961C16.4939 11.017 16.473 11.0378 16.4314 11.0378C16.2022 11.0378 16.0355 10.7253 16.0355 10.3294H15.2021C15.3688 10.4961 15.4938 10.6836 15.6605 10.8711L16.0772 11.392L16.098 11.4128C16.2439 11.5795 16.3689 11.7462 16.4939 11.9128C16.5147 11.9337 16.5147 11.9545 16.5355 11.9753C16.6814 12.142 16.8064 12.3504 16.9314 12.517C17.1606 11.8087 17.2856 11.0586 17.3064 10.3086H17.0981Z" fill="white"/>
<path d="M9.11866 6.99485H9.18116C9.30617 6.99485 9.45201 6.97402 9.57702 6.97402C9.95204 6.97402 10.3479 7.01569 10.7229 7.09903V7.07819C11.0979 7.16153 11.4521 7.2657 11.7855 7.41154C11.9313 7.47404 12.0771 7.53655 12.2022 7.59905C12.2022 7.59905 12.223 7.61989 12.2438 7.61989C12.2647 7.61989 12.2647 7.61989 12.2855 7.64072C12.3063 7.66156 12.3272 7.66156 12.348 7.68239C12.4313 7.7449 12.5355 7.78656 12.5772 7.80739H12.598C12.598 7.78656 12.5772 7.76573 12.5772 7.74489V7.72406C12.2438 7.14069 11.7646 6.66151 11.2021 6.30732C10.6396 5.95314 9.97287 5.76562 9.30617 5.76562C7.68109 5.78646 6.24351 6.86985 5.78516 8.43243C6.22268 8.05741 6.70187 7.74489 7.22273 7.51571C7.80609 7.22403 8.45196 7.05736 9.11866 6.99485Z" fill="#010101"/>
<path d="M14.4317 7.51635C14.7234 7.20383 15.1192 7.03716 15.5359 7.01632C15.8901 7.03716 16.2234 7.16216 16.4943 7.41217C16.536 7.43301 16.536 7.47468 16.5568 7.47468C16.5776 7.49552 16.5985 7.51635 16.6193 7.51635L16.7443 7.64135V7.62052C16.4318 6.68297 15.9109 6.09961 15.3276 6.09961C14.5567 6.09961 13.9108 7.16216 13.6816 8.6414C13.8692 8.20388 14.1192 7.82886 14.4317 7.51635Z" fill="#010101"/>
<path d="M7.63954 16.8929C7.70204 16.9137 7.76454 16.9554 7.82705 16.9554C8.57709 17.2263 9.38963 17.3721 10.1813 17.3513C11.098 17.3513 11.9939 17.1638 12.8481 16.8512C12.8898 16.8304 12.9315 16.8096 12.9731 16.7887C13.0356 16.7471 13.119 16.7262 13.1815 16.7054C13.244 16.6846 13.3065 16.6429 13.3482 16.6221H13.2857C13.0356 16.6637 12.7856 16.6637 12.5356 16.6221C11.0564 16.4137 10.7439 15.7054 10.7855 14.9762C10.6814 14.9136 10.5772 14.8511 10.473 14.7678C9.80631 14.2678 9.20212 13.7053 8.66042 13.0594C9.32712 13.5386 10.0772 13.9344 10.848 14.2469C10.8897 14.2678 10.9105 14.2678 10.9314 14.2886C10.9939 14.0803 11.0772 13.8928 11.1189 13.7053C11.1189 13.6844 11.1397 13.6636 11.1397 13.6427C11.2022 13.4344 11.2856 13.2469 11.3897 13.0385C11.7231 12.2885 12.1189 11.5593 12.3273 10.7676L12.4106 10.3301H11.6606C11.6606 10.4551 11.6397 10.5801 11.5981 10.7051C11.5772 10.7676 11.5564 10.8093 11.5147 10.8718C11.4522 10.9759 11.3481 11.0593 11.2439 11.1426C11.2022 11.1843 11.1397 11.2051 11.0772 11.226C10.9522 11.2676 10.8272 11.2885 10.7022 11.2885H10.5772C10.5564 11.2885 10.5355 11.2885 10.5147 11.2676H10.4939C10.473 11.2676 10.4313 11.2468 10.4313 11.2468H10.4105C10.3897 11.226 10.348 11.226 10.348 11.2051C10.3063 11.1843 10.3063 11.1843 10.2647 11.1635C10.1813 11.1218 10.098 11.0593 10.0355 10.9968L7.28535 10.3301H4.24353C4.2227 10.3509 4.2227 10.3718 4.20186 10.3926C4.18103 10.4343 4.13936 10.4759 4.13936 10.5176L3.97268 10.8301L3.91018 10.9343C3.86851 11.0801 3.78518 11.2051 3.74351 11.3301V11.351C3.681 11.4968 3.6185 11.6635 3.57683 11.8302C3.51433 12.0385 3.45183 12.2468 3.41016 12.4552C3.88935 13.8928 4.78523 15.1428 6.01446 16.0179C6.05612 16.0387 6.07696 16.0804 6.11863 16.0804C6.32697 16.2262 6.53532 16.3512 6.74366 16.4762C7.03534 16.6637 7.34786 16.7887 7.63954 16.8929Z" fill="white"/>
<path d="M12.598 14.683C12.5771 14.7663 12.5771 14.8288 12.5771 14.9122C12.5771 15.0372 12.5771 15.1622 12.598 15.2872C12.6188 15.3705 12.6397 15.4539 12.6605 15.5164C12.7022 15.6205 12.723 15.7247 12.7647 15.808C12.8063 15.8914 12.848 15.9955 12.9105 16.0789C12.9313 16.0997 12.9522 16.1414 12.973 16.1414C12.9938 16.1414 13.0147 16.2039 13.0355 16.2456C13.0772 16.2872 13.098 16.3289 13.1188 16.3706C13.1813 16.4539 13.2647 16.5372 13.348 16.5997V16.6206H13.3897C13.723 16.5789 14.0356 16.4956 14.3481 16.3706C14.5147 16.3081 14.6606 16.2456 14.8273 16.1831C14.8898 16.1622 14.9106 16.1414 14.9731 16.1206C16.619 15.3288 17.9733 13.9121 17.9733 13.9121C15.9315 14.9538 13.9314 14.8913 12.598 14.683Z" fill="#A32553"/>
<path d="M16.5357 11.9325C16.4107 11.7658 16.2648 11.5991 16.1398 11.4324L16.119 11.4116L15.7023 10.8907C15.5565 10.7241 15.4106 10.5366 15.244 10.349L15.2023 10.3074C15.1189 10.2032 15.0148 10.099 14.9106 9.99485L14.8064 9.89068C14.7231 9.80734 14.6398 9.72401 14.5564 9.61984L14.3689 9.43233L14.2022 9.26565C14.0772 9.14064 13.9314 8.9948 13.8064 8.8698C13.7647 8.80729 13.6814 8.76563 13.6397 8.70312C13.7855 9.07814 13.9105 9.45316 13.9939 9.84902C14.0147 9.95319 14.0356 10.0365 14.0564 10.1407C14.2231 11.4741 13.8064 12.3491 13.1188 13.5159C13.0772 13.5992 13.0147 13.6825 12.9522 13.7659C12.8063 13.9951 12.7022 14.2451 12.6397 14.4951C12.6188 14.5576 12.598 14.6618 12.5771 14.7243C13.9105 14.9326 15.9315 14.9951 17.9941 13.9742C17.9941 13.9742 17.5982 13.37 16.9732 12.5575C16.8274 12.3908 16.7024 12.1825 16.5774 12.0158C16.5774 11.9533 16.5565 11.9325 16.5357 11.9325Z" fill="#DF1668"/>
<path d="M13.3485 16.6006C13.2652 16.5381 13.1819 16.4548 13.1194 16.3714C13.0777 16.3298 13.0569 16.2881 13.036 16.2464C13.0152 16.2048 12.9735 16.1839 12.9735 16.1422C12.9735 16.1006 12.9319 16.0797 12.9319 16.0797C12.8694 15.9964 12.8277 15.9131 12.786 15.8089C12.7443 15.7047 12.7027 15.6214 12.6818 15.5172C12.661 15.4547 12.6402 15.3714 12.6193 15.288C12.5985 15.163 12.5985 15.038 12.5985 14.913C12.5985 14.8505 12.6193 14.7672 12.6193 14.6838C12.6193 14.6005 12.6402 14.538 12.6818 14.4547C12.7443 14.1838 12.8485 13.9338 12.9944 13.7255C13.0569 13.6421 13.0985 13.5588 13.1402 13.4754C13.8277 12.3087 14.2444 11.4545 14.0777 10.1003C14.0569 10.0169 14.0361 9.91277 14.0152 9.80859C13.9944 9.8711 13.9944 9.9336 13.9736 9.97527V9.9961C13.9736 10.0378 13.9527 10.0586 13.9527 10.0794C13.6611 10.9545 13.161 11.642 12.4943 12.3712C12.411 12.4754 12.3068 12.5587 12.2235 12.6629C12.0568 12.8504 11.8901 13.0171 11.7026 13.1838L11.4734 13.4129L11.2026 13.6838C11.1193 13.8713 11.0568 14.0588 11.0151 14.2672C10.9734 14.2463 10.9526 14.2463 10.9318 14.2255C10.1609 13.9338 9.43168 13.538 8.74414 13.0379C9.265 13.6838 9.8692 14.2672 10.5567 14.7463C10.6609 14.8297 10.7651 14.8922 10.8692 14.9547C10.8067 15.6839 11.1401 16.3923 12.6193 16.6006C12.8694 16.6631 13.1194 16.6631 13.3485 16.6006C13.3485 16.6214 13.3485 16.6214 13.3485 16.6006Z" fill="#010101"/>
</svg>
