<svg width="56" height="56" viewBox="0 0 56 56" fill="none" xmlns="http://www.w3.org/2000/svg">
<g clip-path="url(#clip0_4181_51740)">
<mask id="mask0_4181_51740" style="mask-type:alpha" maskUnits="userSpaceOnUse" x="0" y="0" width="56" height="56">
<path d="M0 0H56V56H0V0Z" fill="white"/>
</mask>
<g mask="url(#mask0_4181_51740)">
<path d="M0 0H56V56H0V0Z" fill="#6B7280"/>
<path opacity="0.718" d="M20.737 16C18.132 16 16 18.132 16 20.737V32.105C16 34.71 18.132 36.842 20.737 36.842H32.105C34.71 36.842 36.842 34.71 36.842 32.105V20.737C36.842 18.132 34.71 16 32.105 16H20.737V16ZM20.737 17.895H32.105C33.686 17.895 34.947 19.155 34.947 20.737V32.105C34.947 32.545 34.841 32.956 34.667 33.326L28.173 26.834C27.693 26.354 27.057 26.114 26.421 26.114C25.785 26.114 25.148 26.354 24.668 26.834L18.176 33.326C18.001 32.956 17.895 32.546 17.895 32.106V20.736C17.895 19.156 19.155 17.895 20.737 17.895V17.895ZM38.105 20.114V32.737C38.105 35.697 35.697 38.105 32.737 38.105H20.114C20.979 39.253 22.349 40 23.894 40H32.737C36.742 40 40 36.742 40 32.737V23.895C40 22.35 39.253 20.979 38.105 20.114V20.114ZM30.211 21.053C29.338 21.053 28.631 21.76 28.631 22.632C28.631 23.504 29.338 24.211 30.211 24.211C31.083 24.211 31.789 23.504 31.789 22.631C31.789 21.76 31.083 21.053 30.211 21.053ZM26.421 27.998C26.569 27.998 26.715 28.056 26.833 28.174L33.326 34.666C32.956 34.841 32.546 34.947 32.106 34.947H20.736C20.296 34.947 19.886 34.841 19.516 34.667L26.008 28.174C26.125 28.056 26.274 27.998 26.421 27.998V27.998Z" fill="#9CA3AF"/>
</g>
</g>
<defs>
<clipPath id="clip0_4181_51740">
<rect width="56" height="56" fill="white"/>
</clipPath>
</defs>
</svg>
