<svg width="38" height="39" viewBox="0 0 38 39" fill="none" xmlns="http://www.w3.org/2000/svg">
    <path d="M38 19.469c0 10.493-8.507 19-19 19s-19-8.507-19-19c0-10.494 8.507-19 19-19s19 8.506 19 19z" fill="#0CA4FF"/>
    <path d="m11.959 9.25-.139.965a1.45 1.45 0 0 1-1.23 1.23l-.965.139v.582l.965.139a1.45 1.45 0 0 1 1.23 1.23l.139.965h.582l.139-.965a1.45 1.45 0 0 1 1.23-1.23l.965-.139v-.582l-.965-.139a1.45 1.45 0 0 1-1.23-1.23l-.139-.965h-.582zm6.666 0-.089.62a.932.932 0 0 1-.79.791l-.621.089v.375l.62.089c.41.058.733.38.791.79l.089.621H19l.089-.62a.932.932 0 0 1 .79-.791l.621-.089v-.375l-.62-.089a.932.932 0 0 1-.791-.79L19 9.25h-.375zm6.63.752a.459.459 0 0 0-.314.12l-.001.002-14.876 14.875a1.5 1.5 0 0 0 0 2.122l1.19 1.19a1.5 1.5 0 0 0 2.121 0L28.25 13.435l.002-.001c.315-.316.005-1.165-.735-2.012-.74-.848-1.696-1.447-2.263-1.42zm.143 1.786c.325.44.75.864 1.19 1.189l-5.274 5.273-1.19-1.19 5.274-5.272zM25 21.625l-.177 1.241a1.864 1.864 0 0 1-1.582 1.582L22 24.625v.75l1.241.177c.82.117 1.465.762 1.582 1.582L25 28.375h.75l.177-1.241a1.864 1.864 0 0 1 1.582-1.582l1.241-.177v-.75l-1.241-.177a1.864 1.864 0 0 1-1.582-1.582l-.177-1.241H25z" fill="#fff"/>
</svg>
