<svg width="12" height="12" viewBox="0 0 12 12" fill="none" xmlns="http://www.w3.org/2000/svg">
<path d="M5.01517 8.29237C4.99494 8.23159 4.99494 8.16589 5.01517 8.1051C5.42165 6.88213 6.57546 6 7.93529 6C9.29454 6 10.4478 6.88125 10.8551 8.10364C10.8756 8.1643 10.8756 8.22995 10.8551 8.29091C10.4489 9.51388 9.29512 10.396 7.93529 10.396C6.57605 10.396 5.42253 9.51476 5.01517 8.29237Z" stroke="#DFDFDF" stroke-linecap="round" stroke-linejoin="round"/>
<path d="M8.81456 8.19805C8.81456 8.43123 8.72193 8.65486 8.55704 8.81974C8.39216 8.98462 8.16853 9.07725 7.93535 9.07725C7.70218 9.07725 7.47855 8.98462 7.31366 8.81974C7.14878 8.65486 7.05615 8.43123 7.05615 8.19805C7.05615 7.96487 7.14878 7.74124 7.31366 7.57636C7.47855 7.41148 7.70218 7.31885 7.93535 7.31885C8.16853 7.31885 8.39216 7.41148 8.55704 7.57636C8.72193 7.74124 8.81456 7.96487 8.81456 8.19805Z" fill="#DFDFDF"/>
<path d="M10.2121 2.40137V3.84787H8.76562H10.2121" stroke="#DFDFDF" stroke-linecap="round" stroke-linejoin="round"/>
<path d="M9.9525 3.848C9.1895 2.4495 7.706 1.5 6 1.5C3.5145 1.5 1.5 3.515 1.5 6C1.5 7.33191 2.07973 8.52646 3 9.34902" stroke="#DFDFDF" stroke-linecap="round" stroke-linejoin="round"/>
</svg>
