<svg width="16" height="16" viewBox="0 0 16 16" fill="none" xmlns="http://www.w3.org/2000/svg">
<path d="M14.0002 10V12C14.0002 13.1046 13.1047 14 12.0002 14H11.3335" stroke="#DFDFDF" stroke-width="1.2" stroke-linecap="round" stroke-linejoin="round"/>
<path d="M2.00024 6V4C2.00024 2.89543 2.89567 2 4.00024 2H4.66691" stroke="#DFDFDF" stroke-width="1.2" stroke-linecap="round" stroke-linejoin="round"/>
<path fill-rule="evenodd" clip-rule="evenodd" d="M6.66675 3.5V6.5C6.66675 7.32843 7.33832 8 8.16675 8H12.5001C13.3285 8 14.0001 7.32843 14.0001 6.5V3.5C14.0001 2.67157 13.3285 2 12.5001 2H8.16675C7.33832 2 6.66675 2.67157 6.66675 3.5Z" stroke="#DFDFDF" stroke-width="1.2" stroke-linecap="round" stroke-linejoin="round"/>
<path d="M2.00024 13.3333L2.77091 13.7187C3.14097 13.9037 3.54903 14 3.96276 14H8.33358C8.88586 14 9.33358 13.5523 9.33358 13V13C9.33358 12.4477 8.88586 12 8.33358 12H5.66691" stroke="#DFDFDF" stroke-width="1.2" stroke-linecap="round" stroke-linejoin="round"/>
<path d="M2.00024 8.66663H3.94248C4.23097 8.66663 4.51168 8.7602 4.74248 8.93329L6.23399 10.0519C6.48498 10.2402 6.64192 10.528 6.66416 10.841C6.68641 11.1539 6.57175 11.4611 6.34991 11.683V11.683C5.96908 12.0638 5.36617 12.1066 4.93531 11.7835L4.00024 11.0822" stroke="#DFDFDF" stroke-width="1.2" stroke-linecap="round" stroke-linejoin="round"/>
<circle cx="10.3336" cy="4.99996" r="1.08333" stroke="#DFDFDF" stroke-width="1.2" stroke-linecap="round" stroke-linejoin="round"/>
</svg>
