<svg xmlns="http://www.w3.org/2000/svg" width="140" height="41" viewBox="0 0 140 41">
    <g fill="none" fill-rule="evenodd">
        <g fill-rule="nonzero">
            <g>
                <path fill="#95BF47" d="M30.06 7.714c0-.215-.211-.286-.352-.286s-3.176-.214-3.176-.214-2.118-2.071-2.328-2.357c-.212-.215-.706-.143-.847-.143 0 0-.424.142-1.2.357-.706-2-1.904-3.857-4.092-3.857h-.212C17.217.359 16.44 0 15.805 0c-4.869 0-7.268 6.357-8.044 9.641-1.976.644-3.317 1.072-3.529 1.072-1.058.357-1.129.357-1.27 1.429-.14.785-2.963 23.14-2.963 23.14l22.298 4.214 12.068-2.642S30.13 7.928 30.06 7.714zm-9.032-2.286c-.565.143-1.199.357-1.905.571v-.428c0-1.285-.14-2.286-.423-3.072 1.13.215 1.834 1.5 2.328 2.929zm-3.74-2.643c.353.787.565 1.929.565 3.428v.215c-1.2.357-2.54.786-3.88 1.214.705-2.927 2.117-4.285 3.315-4.857zm-1.48-1.428c.21 0 .422.072.633.214-1.622.786-3.316 2.715-4.021 6.571-1.06.358-2.118.643-3.106 1 .847-3 2.893-7.785 6.492-7.785h.001z" transform="translate(-466 -948) translate(466 948)"/>
                <path fill="#5E8E3E" d="M29.708 7.356c-.141 0-3.176-.214-3.176-.214s-2.118-2.07-2.328-2.357c-.07-.071-.212-.142-.353-.142l-1.694 34.853 12.068-2.642S29.99 7.857 29.99 7.642c.07-.142-.141-.286-.282-.286z" transform="translate(-466 -948) translate(466 948)"/>
                <path fill="#fff" d="M18.206 14.141l-1.553 4.428s-1.27-.715-2.893-.715c-2.329 0-2.47 1.5-2.47 1.857 0 2.071 5.292 2.858 5.292 7.642 0 3.786-2.327 6.213-5.574 6.213-3.81 0-5.785-2.427-5.785-2.427l1.057-3.428s1.977 1.713 3.74 1.713c1.13 0 1.553-.856 1.553-1.5 0-2.642-4.305-2.784-4.305-7.142 0-3.714 2.61-7.284 7.903-7.284 1.976 0 3.035.643 3.035.643z" transform="translate(-466 -948) translate(466 948)"/>
                <path fill="#fff" d="M48.408 22.497c-1.2-.642-1.835-1.215-1.835-2 0-.999.847-1.57 2.186-1.57 1.553 0 2.965.643 2.965.643l1.129-3.43s-.988-.784-4.022-.784c-4.164 0-6.986 2.427-6.986 5.785 0 1.928 1.341 3.356 3.104 4.428 1.412.856 1.976 1.428 1.976 2.285 0 .928-.705 1.643-2.046 1.643-1.975 0-3.881-1.071-3.881-1.071l-1.2 3.428s1.765 1.215 4.657 1.215c4.235 0 7.34-2.144 7.34-5.929 0-2.07-1.554-3.571-3.387-4.643zm17.006-7.141c-2.118 0-3.741 1-5.01 2.57h-.07l1.762-9.712H57.37L52.783 32.71h4.728l1.553-8.357c.635-3.142 2.257-5.142 3.74-5.142 1.058 0 1.48.714 1.48 1.786 0 .643-.07 1.429-.21 2.142l-1.765 9.571h4.729l1.904-9.856c.212-1.072.353-2.285.353-3.143 0-2.714-1.411-4.356-3.88-4.356h-.001zm14.606 0c-5.716 0-9.455 5.214-9.455 10.999 0 3.714 2.257 6.713 6.562 6.713 5.575 0 9.385-5.071 9.385-10.999-.07-3.428-2.117-6.713-6.491-6.713h-.001zm-2.399 14.07c-1.623 0-2.329-1.358-2.329-3.143 0-2.714 1.412-7.214 4.022-7.214 1.694 0 2.259 1.429 2.259 2.858 0 2.927-1.412 7.498-3.952 7.498zm20.958-14.07c-3.175 0-5.01 2.857-5.01 2.857h-.071l.282-2.572h-4.163c-.211 1.714-.564 4.357-.988 6.356l-3.317 17.57h4.729l1.34-7.07h.07s.988.643 2.753.643c5.574 0 9.243-5.786 9.243-11.642 0-3.286-1.41-6.142-4.868-6.142zm-4.587 14.141c-1.2 0-1.976-.715-1.976-.715l.776-4.5c.565-2.999 2.118-4.998 3.74-4.998 1.411 0 1.905 1.356 1.905 2.642.07 3.142-1.764 7.571-4.445 7.571zm16.23-21.07c-1.482 0-2.681 1.216-2.681 2.787 0 1.428.916 2.427 2.257 2.427h.07c1.483 0 2.753-1 2.753-2.785 0-1.357-.988-2.428-2.4-2.428zm-6.634 24.355h4.728l3.247-17.07h-4.799l-3.176 17.07zm20.041-17.07h-3.317l.141-.785c.283-1.643 1.27-3.071 2.823-3.071.847 0 1.483.214 1.483.214l.916-3.786s-.846-.428-2.61-.428c-1.694 0-3.388.5-4.657 1.571-1.624 1.358-2.4 3.429-2.753 5.428l-.141.787h-2.187l-.706 3.642h2.187l-2.54 13.427h4.728l2.54-13.427h3.246l.847-3.572zm11.432 0s-2.965 7.57-4.304 11.713h-.071c-.07-1.356-1.2-11.713-1.2-11.713h-5.01l2.822 15.642c.07.357 0 .57-.07.786-.565 1.07-1.481 2.143-2.61 2.857-.918.642-1.906 1.07-2.683 1.357l1.341 4.07c.988-.214 2.964-1 4.657-2.643 2.188-2.07 4.163-5.213 6.21-9.499l5.786-12.57h-4.868z" transform="translate(-466 -948) translate(466 948)"/>
            </g>
        </g>
    </g>
</svg>
