<svg width="12" height="12" viewBox="0 0 12 12" fill="none" xmlns="http://www.w3.org/2000/svg">
    <g clip-path="url(#2issireq3a)" stroke="#DFDFDF" stroke-width=".879" stroke-linejoin="round">
        <path d="M8.98 3.562c0 1.389-2.112 4.376-2.788 5.297a.254.254 0 0 1-.411 0c-.676-.92-2.788-3.908-2.788-5.297a2.993 2.993 0 0 1 5.987 0z"/>
        <circle cx="5.986" cy="3.562" r="1.401"/>
        <path d="m3.757 5.919-1.485.437a.264.264 0 0 0-.179.18l-1.232 4.3a.264.264 0 0 0 .366.31l1.844-.875a.264.264 0 0 1 .226 0l2.608 1.23a.264.264 0 0 0 .226 0l2.577-1.23a.264.264 0 0 1 .225 0l1.886.883a.264.264 0 0 0 .366-.309l-1.177-4.298a.264.264 0 0 0-.192-.187l-1.823-.441"/>
    </g>
    <defs>
        <clipPath id="2issireq3a">
            <path fill="#fff" d="M0 0h12v12H0z"/>
        </clipPath>
    </defs>
</svg>
