<svg width="24" height="24" viewBox="0 0 24 24" fill="none" xmlns="http://www.w3.org/2000/svg">
    <path d="M17.501 5.24a.26.26 0 1 1-.002.52.26.26 0 0 1 .002-.52" stroke="#9CA3AF" stroke-width="1.4" stroke-linecap="round" stroke-linejoin="round"/>
    <path d="M14 5.5c0 1.639 1.788 3.389 2.808 4.254.403.328.98.328 1.383 0C19.212 8.89 21 7.14 21 5.5M14 5.5v0A3.5 3.5 0 0 1 17.5 2v0A3.5 3.5 0 0 1 21 5.5v0M3 8V6a3 3 0 0 1 3-3h5M21 12v6a3 3 0 0 1-3 3h-2M8 11v3.5M13 16v-.25c0-.69-.56-1.25-1.25-1.25h-7.5c-.69 0-1.25.56-1.25 1.25V16" stroke="#9CA3AF" stroke-width="1.4" stroke-linecap="round" stroke-linejoin="round"/>
    <path clip-rule="evenodd" d="M11.75 21h-7.5C3.56 21 3 20.44 3 19.75v-5.434c0-.473.096-.94.282-1.375l.505-1.182A1.25 1.25 0 0 1 4.937 11h6.126c.5 0 .952.298 1.149.758l.506 1.183A3.5 3.5 0 0 1 13 14.318v5.432A1.25 1.25 0 0 1 11.75 21z" stroke="#9CA3AF" stroke-width="1.4" stroke-linecap="round" stroke-linejoin="round"/>
</svg>
