<svg width="212" height="205" viewBox="0 0 212 205" fill="none" xmlns="http://www.w3.org/2000/svg">
    <path d="M105.58 204.881c58.31 0 105.58-2.76 105.58-6.164s-47.27-6.164-105.58-6.164c-58.31 0-105.58 2.76-105.58 6.164s47.27 6.164 105.58 6.164z" fill="#F5F5F5"/>
    <path d="M125.335 44.771c10.194-3.48 17.273-10.242 17.872-18.481.942-12.971-14.534-24.668-34.567-26.138-20.034-1.47-37.029 7.89-37.976 20.867-.768 10.59 9.404 20.327 24.063 24.335-3.812 4.247-10.058 5.81-10.058 5.81s11.93-.692 16.097-4.503c1.459.223 2.946.397 4.465.506 4.975.378 9.979.057 14.866-.953 3.784 4.003 13.564 6.676 13.564 6.676s-5.968-2.962-8.326-8.119z" fill="#fff"/>
    <path opacity=".3" d="M125.335 44.771c10.194-3.48 17.273-10.242 17.872-18.481.942-12.971-14.534-24.668-34.567-26.138-20.034-1.47-37.029 7.89-37.976 20.867-.768 10.59 9.404 20.327 24.063 24.335-3.812 4.247-10.058 5.81-10.058 5.81s11.93-.692 16.097-4.503c1.459.223 2.946.397 4.465.506 4.975.378 9.979.057 14.866-.953 3.784 4.003 13.564 6.676 13.564 6.676s-5.968-2.962-8.326-8.119z" fill="#2684FF"/>
    <path d="m128.45 35.095-4.302.349a4.744 4.744 0 0 1-3.209 6.481 4.749 4.749 0 0 1-5.885-4.205 4.71 4.71 0 0 1 .131-1.547l-7.275.594-.593-7.28a4.512 4.512 0 0 0 3.408-.447 4.855 4.855 0 0 0 2.478-4.65 4.746 4.746 0 0 0-4.452-4.262 4.742 4.742 0 0 0-2.18.395l-.594-7.275 7.28-.593a4.633 4.633 0 0 1-.392-2.08 4.802 4.802 0 0 1 4.329-4.542 4.744 4.744 0 0 1 5.021 5.892l4.307-.349a2.984 2.984 0 0 1 3.213 2.723l1.438 17.589a2.978 2.978 0 0 1-2.723 3.207z" fill="#263238"/>
    <path d="M108.629 20.136a4.698 4.698 0 0 0-2.059.392l-.593-7.275-7.27.588c.226.517.357 1.07.387 1.634a4.754 4.754 0 0 1-9.48.637 4.715 4.715 0 0 1 .125-1.546l-4.302.354a2.973 2.973 0 0 0-2.723 3.207l1.427 17.578a2.984 2.984 0 0 0 3.213 2.722l4.307-.354c-.24.93-.19 1.91.147 2.81a4.748 4.748 0 1 0 8.811-3.54l7.28-.587-.593-7.28a4.755 4.755 0 0 0 5.902-4.988 4.805 4.805 0 0 0-4.579-4.352z" fill="#2684FF"/>
    <path d="M99.519 5.5a13.584 13.584 0 0 0-1.345-1.122l.348-.49c.498.358.969.751 1.41 1.176l-.413.436z" fill="#263238"/>
    <path d="M103.157 10.504a12.795 12.795 0 0 0-2.08-3.322l.462-.381a13.484 13.484 0 0 1 2.179 3.496l-.561.207z" fill="#2684FF"/>
    <path d="M107.169 9.246h-.599a10.344 10.344 0 0 1 2.418-6.578l.463.386a9.751 9.751 0 0 0-2.282 6.192z" fill="#263238"/>
    <path d="M104.311 6.436c0-.027-.637-2.99-1.819-4.754l.496-.338c1.252 1.863 1.884 4.847 1.911 4.972l-.588.12z" fill="#2684FF"/>
    <path d="M112.658 44.902c-.454-.412-.88-.854-1.274-1.323l.457-.387c.379.445.787.865 1.22 1.258l-.403.452z" fill="#263238"/>
    <path d="M110.552 42.642a13.251 13.251 0 0 1-2.13-4.187l.583-.153a12.826 12.826 0 0 0 2.02 4.003l-.473.337zM106.533 42.169a5.99 5.99 0 0 1 .446-3.67l.545.266a5.548 5.548 0 0 0-.398 3.267l-.593.137z" fill="#2684FF"/>
    <path d="M69.139 148.603c-3.501-19.543-4.96-43.105-4.96-43.105l18.66-.294s-1.595 31.757-2.368 45.06c-.8 13.826-1.362 40.443-1.362 40.443h-6.436s-5.478-25.005-3.534-42.104z" fill="#263238"/>
    <path opacity=".2" d="M72.907 110.818s-2.532 18.971-4.612 32.879c-1.846-11.691-3.017-23.96-3.627-31.36l8.24-1.519z" fill="#000"/>
    <path d="M87.757 197.241s-8.642-2.031-9.023-4.977l-5.51.714-.605 5.739h2.276l.365-.713.762.713c7.733 0 10.597-.082 12.03-.545a.902.902 0 0 0-.295-.931z" fill="#263238"/>
    <path d="M72.44 194.018c2.069.12 6.201-.185 7.007-.583.806-.397.327-3.605.327-3.605s-7.226-.719-7.863-.321c-.637.398.528 4.509.528 4.509z" fill="#2684FF"/>
    <path opacity=".3" d="M72.44 194.018c2.069.12 6.201-.185 7.007-.583.806-.397.327-3.605.327-3.605s-7.226-.719-7.863-.321c-.637.398.528 4.509.528 4.509z" fill="#fff"/>
    <path d="M51.813 148.048c3.185-19.652 3.082-32.781 6.267-42.474l18.215-.25s-8.832 31.185-12.83 44.167c-3.996 12.982-11.315 41.216-11.315 41.216h-5.924s.261-27.456 5.587-42.659zM58.358 197.241s-6.535-2.031-6.9-4.977l-5.51.714-.6 5.739h1.422l.365-.713.762.713c7.733 0 9.323-.082 10.755-.545a.902.902 0 0 0-.294-.931z" fill="#263238"/>
    <path d="M45.349 193.876c1.269.261 6.077-.044 6.937-.441.86-.398.594-3.763.594-3.763s-6.535-.779-7.237-.381c-.703.398-.294 4.585-.294 4.585z" fill="#2684FF"/>
    <path opacity=".3" d="M45.349 193.876c1.269.261 6.077-.044 6.937-.441.86-.398.594-3.763.594-3.763s-6.535-.779-7.237-.381c-.703.398-.294 4.585-.294 4.585z" fill="#fff"/>
    <path d="m82.742 70.904 1.563 1.345 1.633 1.361c1.09.91 2.178 1.78 3.267 2.63.545.42 1.09.828 1.634 1.215.544.386 1.089.767 1.606 1.088a32.76 32.76 0 0 0 1.536.904c.372.2.758.373 1.154.518l-.746-.055c-.103.05.158.055.49 0 .411-.106.812-.248 1.198-.424a24.856 24.856 0 0 0 2.8-1.493c.969-.544 1.938-1.197 2.913-1.845l2.929-1.96.071-.044a2.178 2.178 0 0 1 3.028 2.978 36.255 36.255 0 0 1-4.95 5.979 24.51 24.51 0 0 1-3.197 2.636 13.61 13.61 0 0 1-2.069 1.176 8.468 8.468 0 0 1-3.044.795 2.432 2.432 0 0 1-.49 0l-.256-.038a13.744 13.744 0 0 1-3.055-.839 22.421 22.421 0 0 1-2.407-1.116 39.852 39.852 0 0 1-4.165-2.554 59.586 59.586 0 0 1-3.747-2.826c-.599-.495-1.198-.986-1.775-1.503a62.611 62.611 0 0 1-1.742-1.606 4.307 4.307 0 0 1 5.793-6.371l.028.049z" fill="#CF7A64"/>
    <path d="m105.465 78.108 4.825-.038-1.667-5.544s-4.356.545-4.438 2.935l1.28 2.647zM113.834 74.52l-.914-1.841a1.676 1.676 0 0 0-1.988-.86l-2.309.707 1.667 5.544 2.755-1.29a1.68 1.68 0 0 0 .789-2.26z" fill="#CE7A63"/>
    <path d="M78.32 67.941a8.93 8.93 0 0 0-2.364 11.61c.3.543.676 1.04 1.117 1.475 1.911 1.814 6.649 3.415 9.758 4.765 3.959-1.41 5.99-5.603 5.385-7.928-3.011-3.992-8.51-9.84-11.364-10.613-.866-.24-1.7.103-2.532.691z" fill="#263238"/>
    <path d="M60.885 66.368a81.31 81.31 0 0 1 16.777-.11 9.328 9.328 0 0 1 8.347 9.307c-.027 8.582-1.405 18.062-2.831 31.245-4.063 4.199-25.855-.169-25.855-.169a95.132 95.132 0 0 1 1.764-14.24c-.74-5.445-2.624-11.652-3.686-18.867a6.311 6.311 0 0 1 5.483-7.166z" fill="#2684FF"/>
    <g opacity=".2" fill="#fff">
        <path opacity=".2" d="M59.957 75.521a.142.142 0 0 1-.142-.136.143.143 0 0 1 .081-.139.143.143 0 0 1 .055-.013 5.005 5.005 0 0 0 2.946-1.177 1.133 1.133 0 0 1-.408-.315 1.634 1.634 0 0 1-.283-.616c-.322-1.17-.033-2.722 1.127-3.343a1.035 1.035 0 0 1 1.28.087c.11.148.181.323.206.506a3.664 3.664 0 0 1-.37 2.179c-.248.507-.58.968-.98 1.366h.098a2.859 2.859 0 0 0 2.282-.958c.572-.66.909-1.491.958-2.363a.136.136 0 0 1 .152-.131.147.147 0 0 1 .136.153 4.253 4.253 0 0 1-1.034 2.537 3.12 3.12 0 0 1-2.516 1.05 2.628 2.628 0 0 1-.332-.053 5.374 5.374 0 0 1-3.267 1.355l.01.011zm4.035-5.63c-.182.006-.36.057-.518.147-1.023.544-1.274 1.977-.99 3.017.04.18.118.351.228.5a.914.914 0 0 0 .43.29 4.902 4.902 0 0 0 1.046-1.417c.318-.616.44-1.316.348-2.004a.796.796 0 0 0-.141-.37.513.513 0 0 0-.403-.19v.027zM72.154 80.906h-.048a4.252 4.252 0 0 1-2.146-1.698 3.131 3.131 0 0 1-.31-2.723c.042-.105.091-.207.147-.305a5.353 5.353 0 0 1-.398-3.496.147.147 0 0 1 .283.065 5.06 5.06 0 0 0 .305 3.164c.114-.134.258-.24.42-.31.211-.08.438-.114.664-.098 1.22 0 2.603.719 2.897 2.014a1.034 1.034 0 0 1-.436 1.204c-.173.066-.36.087-.544.06A3.692 3.692 0 0 1 71 77.819a5.014 5.014 0 0 1-1.04-1.323c0 .032-.027.065-.038.092a2.87 2.87 0 0 0 .283 2.456 3.91 3.91 0 0 0 1.999 1.58.14.14 0 0 1 .096.129c0 .019-.002.038-.01.055a.141.141 0 0 1-.136.098zm-2.03-4.699a4.901 4.901 0 0 0 1.089 1.4 3.338 3.338 0 0 0 1.83.893.752.752 0 0 0 .391-.033c.283-.125.354-.544.273-.877-.256-1.138-1.542-1.775-2.62-1.797-.185-.01-.37.018-.544.082a.915.915 0 0 0-.42.332zM83.301 77.35a.762.762 0 0 1-.599-.25 1.013 1.013 0 0 1-.218-.5 3.594 3.594 0 0 1 .316-2.179c.236-.513.554-.984.942-1.394h-.098a2.879 2.879 0 0 0-2.254 1.013 3.942 3.942 0 0 0-.899 2.39.147.147 0 0 1-.152.137.147.147 0 0 1-.136-.153 4.22 4.22 0 0 1 .969-2.56 3.109 3.109 0 0 1 2.489-1.088c.113.005.226.02.337.043a5.32 5.32 0 0 1 3.213-1.432.135.135 0 0 1 .14.077.147.147 0 0 1-.117.207 5.08 5.08 0 0 0-2.925 1.252c.164.066.31.17.424.305.14.179.24.385.294.604.349 1.165.098 2.696-1.045 3.37-.21.11-.444.163-.68.159zm.773-4.257a4.9 4.9 0 0 0-1.012 1.437 3.408 3.408 0 0 0-.3 2.015.887.887 0 0 0 .153.365.768.768 0 0 0 .92 0c1.007-.588 1.225-2.004.92-3.039a1.411 1.411 0 0 0-.24-.5.942.942 0 0 0-.44-.278zM77.703 74.487h-.027a.147.147 0 0 1-.114-.17 5.08 5.08 0 0 0-.382-3.152 1.215 1.215 0 0 1-.413.316c-.21.087-.437.128-.665.12-1.214 0-2.603-.67-2.924-1.95a1.03 1.03 0 0 1 .409-1.214c.172-.07.36-.094.544-.07.75.09 1.452.411 2.01.92.431.366.8.802 1.088 1.29l.033-.093a2.853 2.853 0 0 0-.343-2.45 3.926 3.926 0 0 0-2.042-1.525.147.147 0 0 1-.059-.234.142.142 0 0 1 .157-.038 4.193 4.193 0 0 1 2.178 1.634 3.104 3.104 0 0 1 .376 2.722 2.11 2.11 0 0 1-.136.305 5.353 5.353 0 0 1 .479 3.49.152.152 0 0 1-.169.099zm-3.74-5.843a.671.671 0 0 0-.273.049c-.278.13-.338.544-.25.882.283 1.127 1.573 1.732 2.646 1.732.186.009.372-.023.544-.093a.926.926 0 0 0 .392-.343 4.9 4.9 0 0 0-1.089-1.372 3.344 3.344 0 0 0-1.846-.85l-.125-.005zM62.315 90.224a.147.147 0 0 1 0-.289 5.037 5.037 0 0 0 2.952-1.176 1.154 1.154 0 0 1-.414-.316 1.633 1.633 0 0 1-.283-.61c-.321-1.176-.033-2.722 1.132-3.343a1.019 1.019 0 0 1 1.275.081c.11.149.182.323.206.507a3.664 3.664 0 0 1-.37 2.178 4.948 4.948 0 0 1-.985 1.334h.098a2.86 2.86 0 0 0 2.281-.958c.574-.66.911-1.491.959-2.364a.137.137 0 0 1 .152-.13.147.147 0 0 1 .136.152 4.236 4.236 0 0 1-1.034 2.538 3.118 3.118 0 0 1-2.516 1.05 2.801 2.801 0 0 1-.332-.054 5.369 5.369 0 0 1-3.268 1.356l.011.044zm4.057-5.636c-.19 0-.378.049-.544.141-1.024.545-1.275 1.977-.991 3.017.04.181.118.352.228.501a.915.915 0 0 0 .43.289 4.852 4.852 0 0 0 1.046-1.416c.318-.617.44-1.316.349-2.004a.795.795 0 0 0-.142-.37.51.51 0 0 0-.376-.158zM74.84 96.214h-.055a4.275 4.275 0 0 1-2.145-1.7 3.11 3.11 0 0 1-.305-2.722 2.46 2.46 0 0 1 .141-.305 5.347 5.347 0 0 1-.392-3.496.14.14 0 0 1 .174-.103.135.135 0 0 1 .107.113.136.136 0 0 1-.003.055 5.064 5.064 0 0 0 .31 3.164c.115-.134.258-.24.42-.31.212-.078.438-.112.664-.098 1.214 0 2.603.719 2.897 2.015a1.03 1.03 0 0 1-.441 1.203 1.02 1.02 0 0 1-.545.06 3.632 3.632 0 0 1-1.987-.964 5.129 5.129 0 0 1-1.04-1.323c0 .032 0 .065-.039.092a2.87 2.87 0 0 0 .284 2.456 3.92 3.92 0 0 0 2.003 1.58.137.137 0 0 1 .082.185.136.136 0 0 1-.13.098zm-2.032-4.7c.271.532.641 1.006 1.09 1.4.5.48 1.138.793 1.824.898.133.02.27.007.397-.038.283-.125.349-.544.272-.877-.256-1.138-1.54-1.775-2.619-1.797a1.301 1.301 0 0 0-.544.082.932.932 0 0 0-.42.332zM64.504 98.876a.147.147 0 0 1-.13-.092 4.248 4.248 0 0 1-.164-2.723 3.126 3.126 0 0 1 1.824-2.03c.105-.04.212-.071.322-.094a5.38 5.38 0 0 1 2.346-2.624.147.147 0 1 1 .137.256 5.086 5.086 0 0 0-2.179 2.33c.175 0 .348.037.507.11.21.1.397.248.544.43.795.925 1.193 2.423.42 3.506a1.046 1.046 0 0 1-1.215.447 1.088 1.088 0 0 1-.403-.37 3.626 3.626 0 0 1-.599-2.124 5.045 5.045 0 0 1 .289-1.634l-.093.033a2.864 2.864 0 0 0-1.633 1.846 3.96 3.96 0 0 0 .152 2.543.142.142 0 0 1-.081.185l-.044.005zm2.053-4.693a4.868 4.868 0 0 0-.332 1.731 3.333 3.333 0 0 0 .544 1.955c.071.114.17.208.289.272.283.131.632-.092.838-.375.676-.953.3-2.331-.402-3.153a1.357 1.357 0 0 0-.425-.354.974.974 0 0 0-.512-.076zM63.829 108.444a4.204 4.204 0 0 1-2.538-1.013 3.115 3.115 0 0 1-1.089-2.51 2.6 2.6 0 0 1 .05-.333 5.393 5.393 0 0 1-1.373-3.267.133.133 0 0 1 .036-.103.142.142 0 0 1 .046-.033.146.146 0 0 1 .054-.011.151.151 0 0 1 .104.037.149.149 0 0 1 .049.099 5.098 5.098 0 0 0 1.192 2.941c.073-.16.18-.302.316-.414.182-.137.39-.235.61-.289 1.17-.321 2.695-.043 3.349 1.089a1.031 1.031 0 0 1-.076 1.28c-.15.111-.323.184-.507.212a3.672 3.672 0 0 1-2.178-.364 5.141 5.141 0 0 1-1.372-.964.594.594 0 0 0 0 .098 2.865 2.865 0 0 0 .97 2.314 3.958 3.958 0 0 0 2.368.948.138.138 0 0 1 .126.096.137.137 0 0 1 .005.056.14.14 0 0 1-.044.095.134.134 0 0 1-.045.027.135.135 0 0 1-.053.009zm-3.267-3.932c.408.43.892.783 1.426 1.04a3.389 3.389 0 0 0 2.004.338.831.831 0 0 0 .37-.147c.235-.202.18-.615 0-.92-.571-1.019-1.981-1.264-3.022-.975-.182.043-.354.12-.506.229a1.04 1.04 0 0 0-.25.435h-.022zM59.325 95.93a4.236 4.236 0 0 1-2.537-1.018 3.108 3.108 0 0 1-1.09-2.51c.01-.112.027-.222.05-.332a5.396 5.396 0 0 1-1.372-3.24.147.147 0 0 1 .136-.153.153.153 0 0 1 .152.137 5.097 5.097 0 0 0 1.193 2.946c.073-.162.181-.305.316-.42.181-.135.389-.232.61-.283 1.17-.327 2.722-.049 3.348 1.09a1.029 1.029 0 0 1-.076 1.279 1.088 1.088 0 0 1-.506.207 3.627 3.627 0 0 1-2.178-.36 5.023 5.023 0 0 1-1.373-.969.763.763 0 0 0 0 .098 2.87 2.87 0 0 0 .97 2.276c.662.57 1.496.9 2.368.942a.147.147 0 0 1 .136.153.147.147 0 0 1-.147.158zm-3.267-3.936c.407.432.891.785 1.427 1.04a3.349 3.349 0 0 0 2.004.337.769.769 0 0 0 .37-.147c.234-.196.18-.61 0-.915-.544-1.018-1.982-1.263-3.022-.974-.181.04-.352.118-.501.229a.985.985 0 0 0-.256.43h-.022zM85.659 90.697a.778.778 0 0 1-.6-.245 1.013 1.013 0 0 1-.217-.5 3.654 3.654 0 0 1 .316-2.179 5.13 5.13 0 0 1 .942-1.388h-.098a2.881 2.881 0 0 0-2.254 1.012 3.926 3.926 0 0 0-.899 2.385.142.142 0 0 1-.153.137.147.147 0 0 1-.136-.147c.029-.938.37-1.839.97-2.56a3.131 3.131 0 0 1 2.488-1.116c.114.01.226.026.338.049a5.358 5.358 0 0 1 3.213-1.438.142.142 0 0 1 .152.137.147.147 0 0 1-.13.152 5.041 5.041 0 0 0-2.92 1.247c.161.072.305.178.42.31.14.178.241.384.294.605.349 1.165.098 2.695-1.046 3.365a1.372 1.372 0 0 1-.68.174zm.778-4.258c-.42.416-.762.905-1.007 1.443a3.442 3.442 0 0 0-.3 2.01.823.823 0 0 0 .159.37c.201.228.615.168.914 0 1.008-.594 1.226-2.01.92-3.039a1.411 1.411 0 0 0-.239-.5 1.013 1.013 0 0 0-.447-.284zM84.967 100.619a.147.147 0 0 1-.141-.136 5.037 5.037 0 0 0-1.236-2.924c-.072.16-.178.304-.31.419a1.635 1.635 0 0 1-.605.294c-1.166.343-2.696.087-3.366-1.062a1.03 1.03 0 0 1 .06-1.28c.144-.117.317-.192.501-.217a3.605 3.605 0 0 1 2.178.326c.512.238.981.558 1.389.948v-.093a2.891 2.891 0 0 0-1.002-2.265 3.991 3.991 0 0 0-2.385-.91.142.142 0 0 1 0-.282c.937.03 1.837.375 2.554.98a3.093 3.093 0 0 1 1.089 2.494c-.005.111-.02.222-.044.332a5.363 5.363 0 0 1 1.422 3.218.145.145 0 0 1-.036.107.148.148 0 0 1-.045.036.153.153 0 0 1-.055.015h.032zm-4.536-4.672c-.17-.002-.34.014-.506.049a.742.742 0 0 0-.365.152c-.234.202-.174.616 0 .915.588 1.013 2.004 1.236 3.033.931.18-.043.351-.123.501-.234.129-.119.224-.269.278-.436a4.78 4.78 0 0 0-1.438-1.023 3.703 3.703 0 0 0-1.503-.354zM80.753 108.466a.74.74 0 0 1-.544-.213 1.05 1.05 0 0 1-.256-.484 3.658 3.658 0 0 1 .174-2.178c.198-.529.483-1.02.844-1.454h-.098a2.841 2.841 0 0 0-2.178 1.165 3.93 3.93 0 0 0-.735 2.439.136.136 0 0 1-.142.147.14.14 0 0 1-.1-.041.143.143 0 0 1-.041-.1 4.206 4.206 0 0 1 .79-2.619 3.12 3.12 0 0 1 2.406-1.28c.112-.008.225-.008.337 0a5.37 5.37 0 0 1 3.11-1.634.149.149 0 0 1 .106.028.14.14 0 0 1 .055.095.145.145 0 0 1-.029.106.15.15 0 0 1-.041.037.161.161 0 0 1-.053.018 5.068 5.068 0 0 0-2.826 1.443c.165.06.315.154.44.277.151.172.266.372.339.588.424 1.138.283 2.68-.817 3.431-.22.146-.477.225-.74.229zm.545-4.308a4.936 4.936 0 0 0-.915 1.509 3.364 3.364 0 0 0-.164 2.025c.029.134.09.257.18.36a.761.761 0 0 0 .915-.071c.964-.659 1.089-2.086.708-3.093a1.317 1.317 0 0 0-.272-.485 1.003 1.003 0 0 0-.442-.245h-.01zM69.41 110.333a.15.15 0 0 1-.082-.025.145.145 0 0 1-.052-.177.146.146 0 0 1 .032-.046.13.13 0 0 1 .047-.029 5.037 5.037 0 0 0 2.413-2.064 1.205 1.205 0 0 1-.49-.169 1.624 1.624 0 0 1-.469-.485c-.675-1.013-.893-2.548 0-3.528a.887.887 0 0 1 1.596.081c.339.673.459 1.434.343 2.179a5.05 5.05 0 0 1-.48 1.633h.093a2.859 2.859 0 0 0 1.852-1.633c.332-.81.384-1.707.147-2.549a.147.147 0 0 1 .16-.178.143.143 0 0 1 .118.107c.249.9.193 1.858-.158 2.723a3.12 3.12 0 0 1-2.048 1.802c-.109.03-.22.05-.332.06a5.363 5.363 0 0 1-2.641 2.325l-.049-.027zm2.26-6.67a.964.964 0 0 0-.648.337c-.784.866-.545 2.282.027 3.175.099.16.228.299.381.408a.958.958 0 0 0 .501.131 4.83 4.83 0 0 0 .545-1.677 3.39 3.39 0 0 0-.31-2.009.849.849 0 0 0-.257-.305.413.413 0 0 0-.24-.06zM80.061 87.833a.142.142 0 0 1-.108-.174 5.087 5.087 0 0 0-.387-3.153 1.162 1.162 0 0 1-.414.321c-.21.086-.437.125-.664.115-1.215 0-2.603-.665-2.924-1.944a1.03 1.03 0 0 1 .408-1.215c.172-.07.36-.094.545-.07.749.092 1.452.41 2.014.914.432.37.8.807 1.09 1.296l.032-.092a2.854 2.854 0 0 0-.343-2.45 3.943 3.943 0 0 0-2.102-1.504.14.14 0 0 1-.018-.262.153.153 0 0 1 .11-.01c.886.292 1.65.866 2.179 1.634a3.109 3.109 0 0 1 .37 2.722c-.037.107-.083.211-.136.31a5.342 5.342 0 0 1 .48 3.486.136.136 0 0 1-.132.076zm-3.74-5.843a.675.675 0 0 0-.273.055c-.277.13-.337.544-.25.882.288 1.127 1.573 1.731 2.646 1.731.186.003.37-.028.545-.092a.963.963 0 0 0 .392-.343 4.934 4.934 0 0 0-1.09-1.378 3.338 3.338 0 0 0-1.845-.844l-.126-.01zM61.531 86.216H61.5a.147.147 0 0 1-.11-.174 5.048 5.048 0 0 0-.386-3.153 1.16 1.16 0 0 1-.414.321 1.66 1.66 0 0 1-.659.12c-1.209 0-2.597-.67-2.924-1.95a1.035 1.035 0 0 1 .409-1.214c.172-.07.36-.094.544-.07.748.091 1.45.41 2.01.914.433.368.801.806 1.089 1.296 0-.032.027-.065.038-.092a2.886 2.886 0 0 0-.343-2.45 3.98 3.98 0 0 0-2.042-1.53.136.136 0 0 1-.087-.18.147.147 0 0 1 .18-.093c.884.292 1.65.866 2.177 1.633a3.109 3.109 0 0 1 .37 2.723c-.034.108-.08.212-.136.31a5.38 5.38 0 0 1 .485 3.486.147.147 0 0 1-.169.103zm-3.746-5.843a.648.648 0 0 0-.267.055c-.278.13-.337.544-.25.882.283 1.127 1.568 1.731 2.64 1.731.186.004.371-.028.545-.092a.98.98 0 0 0 .387-.343 4.9 4.9 0 0 0-1.09-1.378 3.376 3.376 0 0 0-1.85-.844l-.115-.01z"/>
    </g>
    <path d="M65.938 55.978a22.757 22.757 0 0 1-1.743 10.02c1.759 1.633 4.618 3.67 8.424 3.615 3.806-.055 3.175-2.004 2.178-3.333-2.722-1.372-2.902-3.392-2.232-4.617l-6.627-5.685z" fill="#CE7A63"/>
    <path opacity=".2" d="m72.543 61.669-3.017-1.885c-1.389.218-2.058 1.988-.332 3.322 1.176.91 3.033 1.269 3.267 1.024a2.723 2.723 0 0 1 .082-2.461z" fill="#000"/>
    <path d="M73.73 48.501c3.877-.811 3.229 4.003 2.221 6.502-2.543-3.714-2.221-6.502-2.221-6.502z" fill="#263238"/>
    <path d="M63.798 53.62c.751 4.27.985 6.48 3.73 7.934 6.845 3.616 8.397 1.127 8.941-3.267.485-3.975-.822-10.292-5.227-11.49a5.99 5.99 0 0 0-7.444 6.823z" fill="#CE7A63"/>
    <path d="M65.077 57.138c3.72.762-.261-3.153.6-4.743.86-1.59 5.537-.409 4.198-3.006 3.632.92 6.997 1.252 7.732-1.198 1.09-3.561-2.385-4.242-4.432-3.213-1.716.866-1.7 1.15-4.264.289-2.565-.86-8.936-.36-7.308 2.565-2.897.12-2.897 3.811-.5 4.862 2.395 1.051 1.17 3.867 3.974 4.444z" fill="#263238"/>
    <path d="M64.298 55.15a.146.146 0 0 1-.136-.103.141.141 0 0 1 .093-.18l5.794-1.797a.148.148 0 0 1 .18.093.141.141 0 0 1-.093.18l-5.794 1.796-.044.011z" fill="#fff"/>
    <path d="M62.262 48.033c-1.4-1.127-3.267-1.405-3.267-.74 0 .664 2.613.544 2.864.99.25.447.403-.25.403-.25z" fill="#263238"/>
    <path d="M74.317 58.227a34.69 34.69 0 0 0-5.031-.387c.425.85 1.23 1.558 3.131 1.607 1.9.049 1.9-1.22 1.9-1.22z" fill="#fff"/>
    <path d="M62.506 56.92a3.975 3.975 0 0 0 2.124 1.977c1.187.43 1.754-.741 1.405-2.02-.321-1.15-1.318-2.761-2.5-2.63-1.181.13-1.59 1.519-1.029 2.673z" fill="#CE7A63"/>
    <path d="M71.045 53.69c.054.366.294.627.544.589.25-.038.387-.365.332-.73-.054-.364-.294-.626-.544-.588-.25.038-.387.365-.332.73zM74.993 53.604c.055.364.289.631.545.593.256-.038.386-.365.332-.73-.055-.364-.294-.631-.545-.593-.25.038-.392.365-.332.73zM69.564 52.765a.24.24 0 0 1-.104-.038.218.218 0 0 1-.06-.3 2.178 2.178 0 0 1 1.726-.996.218.218 0 0 1 0 .436 1.742 1.742 0 0 0-1.356.8.207.207 0 0 1-.206.098zM76.093 51.562a.218.218 0 0 1-.196-.06 1.705 1.705 0 0 0-1.465-.545.218.218 0 0 1-.256-.174.218.218 0 0 1 .174-.25 2.114 2.114 0 0 1 1.857.664.218.218 0 0 1 0 .305.202.202 0 0 1-.114.06z" fill="#263238"/>
    <path d="M75.434 56.196a.967.967 0 0 1-.713-.343 3.507 3.507 0 0 1-.6-2.538c.137-1.6.91-2.853 1.77-2.853a.952.952 0 0 1 .714.343c.518.735.732 1.642.599 2.532-.136 1.6-.91 2.859-1.77 2.859zm.457-5.446c-.686 0-1.366 1.187-1.48 2.592a3.267 3.267 0 0 0 .544 2.32.707.707 0 0 0 .506.25c.686 0 1.367-1.187 1.481-2.591a3.224 3.224 0 0 0-.544-2.315.675.675 0 0 0-.507-.261v.005z" fill="#fff"/>
    <path d="M73.866 53.62a12.943 12.943 0 0 0 2.085 2.94 2.177 2.177 0 0 1-1.726.545l-.36-3.485z" fill="#BA4D3C"/>
    <path d="M60.928 75.919 59.5 77.405l-1.454 1.536a132.166 132.166 0 0 0-2.799 3.093c-.446.517-.882 1.04-1.296 1.563-.414.523-.828 1.029-1.198 1.54a23.04 23.04 0 0 0-.98 1.482 8.777 8.777 0 0 0-.583 1.127l.098-.74c-.049-.104-.054.201 0 .544.088.448.216.887.382 1.312.39 1.039.84 2.054 1.35 3.039a78.112 78.112 0 0 0 1.677 3.17l1.775 3.19.033.06a2.178 2.178 0 0 1-3.24 2.755 35.501 35.501 0 0 1-2.957-2.652 47.333 47.333 0 0 1-2.722-2.95 27.739 27.739 0 0 1-2.429-3.459 16.09 16.09 0 0 1-1.051-2.178 8.712 8.712 0 0 1-.62-3.12 2.393 2.393 0 0 1 .037-.485l.055-.256a14.268 14.268 0 0 1 1.002-3.005 22.99 22.99 0 0 1 1.252-2.342 38.409 38.409 0 0 1 2.777-4.019 57.12 57.12 0 0 1 3.023-3.588c.544-.572 1.045-1.144 1.595-1.694s1.09-1.089 1.699-1.633a4.307 4.307 0 0 1 6.044 6.126l-.043.098z" fill="#CF7A64"/>
    <path d="m53.68 97.025 4.824.07-1.699 5.533s-4.356-.593-4.421-2.962l1.296-2.641z" fill="#CE7A63"/>
    <path d="m62.017 100.663-.926 1.835a1.668 1.668 0 0 1-1.993.849l-2.303-.719 1.699-5.532 2.723 1.307a1.674 1.674 0 0 1 .8 2.26z" fill="#CE7A63"/>
    <path d="M59.915 66.564c-2.39.577-5.238 1.524-7.798 4.356a53.842 53.842 0 0 0-6.436 9.502c2.723 4.716 7.122 5.26 8.304 4.95 4.144-2.788 6.66-4.21 7.825-7.901 1.165-3.692-.109-8.049-1.895-10.907z" fill="#263238"/>
    <path d="M71.274 56.196a.98.98 0 0 1-.719-.343 3.507 3.507 0 0 1-.599-2.538c.136-1.6.91-2.853 1.77-2.853a.963.963 0 0 1 .719.343c.52.735.732 1.643.593 2.532-.13 1.6-.93 2.859-1.764 2.859zm.452-5.446c-.686 0-1.361 1.187-1.481 2.592a3.267 3.267 0 0 0 .544 2.32.692.692 0 0 0 .507.25c.686 0 1.361-1.187 1.481-2.591a3.268 3.268 0 0 0-.545-2.315.685.685 0 0 0-.528-.261l.022.005z" fill="#fff"/>
    <path d="M74.263 53.473a.142.142 0 0 1-.13-.087.212.212 0 0 0-.131-.125 1.873 1.873 0 0 0-1.09.196.142.142 0 0 1-.193-.18.147.147 0 0 1 .074-.081c.398-.203.85-.274 1.29-.202.13.051.236.15.295.278a.147.147 0 0 1-.077.185.124.124 0 0 1-.038.016z" fill="#fff"/>
    <path d="M151.735 65.66c4.263-4.901 2.064-10.254-2.723-13.206-4.786-2.951-10.379-.795-12.524 4.21-2.146 5.004-1.383 6.3-2.723 6.572-.61 2.636 1.28 5.402 3.469 3.943 3.311 1.399 9.115 4.666 14.501-1.52z" fill="#263238"/>
    <path d="M145.876 69.63c-2.342 0-4.411-1.02-5.925-1.765l-.675-.332.218-.458c.212.098.441.213.68.332 2.886 1.422 7.243 3.567 11.893-1.268 1.715-1.786 2.51-3.812 2.309-5.794-.218-2.124-1.579-4.193-3.736-5.674l.289-.42c2.281 1.569 3.719 3.769 3.953 6.045.218 2.178-.626 4.302-2.445 6.191-2.276 2.374-4.519 3.142-6.561 3.142z" fill="#263238"/>
    <path d="M136.019 58.64c-.92-3.223.131-9.769 8.168-9.774 8.038-.005 11.436 5.68 8.087 10.395-9.699 2.195-16.255-.62-16.255-.62zM132.698 65.12c-5.004 1.318-.67 9.66 4.247 5.854-1.089-.076-3.485-2.483-1.633-4.04-1.961-1.71-2.614-1.814-2.614-1.814z" fill="#263238"/>
    <path d="M132.763 72.57a2.98 2.98 0 0 1-1.334-.316 4.27 4.27 0 0 1-2.119-4.117 3.22 3.22 0 0 1 2.543-2.848l.126.496a2.677 2.677 0 0 0-2.179 2.406 3.728 3.728 0 0 0 1.835 3.605c1.062.545 2.293.245 3.458-.822l.343.381a3.989 3.989 0 0 1-2.673 1.215z" fill="#263238"/>
    <path d="M136.619 67.495c-1.286-.267-3.268-3.6-2.451-4.395a2.362 2.362 0 0 0-2.178 1.705c-.332 1.029.327 2.956 2.625 3.533 1.116.295 2.004-.843 2.004-.843z" fill="#2684FF"/>
    <path d="M136.863 81.239c-.038 1.247-.131 2.477-.207 3.713l-.316 3.703c-.109 1.242-.261 2.478-.414 3.73-.081.621-.174 1.253-.288 1.906a15.208 15.208 0 0 1-.485 2.075 35.17 35.17 0 0 1-3.305 7.079 57.536 57.536 0 0 1-4.253 6.246 1.176 1.176 0 0 1-1.982-1.258v-.028c1.089-2.145 2.178-4.356 3.136-6.534.474-1.089.948-2.178 1.351-3.305a26.839 26.839 0 0 0 1.013-3.267c.116-.51.2-1.027.25-1.547.049-.544.087-1.165.12-1.764l.196-3.643.191-3.665c.081-1.225.136-2.45.239-3.67a2.377 2.377 0 0 1 4.143-1.45c.42.47.636 1.088.6 1.717l.011-.038zM136.498 103.412s0 28.512 1.732 43.955c.18 14.496 3.49 47.255 3.49 47.255h3.654c.621-16.255 5.146-31.425 2.135-45.741 7.035-28.147 3.773-45.431 3.773-45.431l-14.784-.038z" fill="#FFB573"/>
    <path d="M140.485 103.428s2.723 34.894 8.212 47.375c5.739 13.123 15.927 38.831 16.935 43.187l3.054-.811s-2.02-28.218-11.348-44.168c2.886-39.326-4.383-45.594-4.383-45.594l-12.47.011z" fill="#FFB573"/>
    <path d="M135.333 74.143c-3.065 2.592-4.051 6.812-4.013 9.671 1.835 3.012 7.569 3.943 7.569 3.943s.91-5.881.474-8.653c-.436-2.772-2.26-6.458-4.03-4.96z" fill="#263238"/>
    <path d="M133.133 79.556a6.165 6.165 0 0 1 5.119-6.758 56.612 56.612 0 0 1 2.722-.42c2.801-.3 5.62-.4 8.435-.299.806 0 1.596.044 2.342.093a4.819 4.819 0 0 1 3.409 1.755 4.813 4.813 0 0 1 1.045 3.69c-1.781 11.817-2.837 20.36-1.672 25.539 0 0 3.681 4.901 5.353 16.184 1.459 9.839 1.089 26.431 2.696 35.345-5.74 4.101-23.96 3.85-26.645 1.454.757-18.024-2.929-41.64-.125-52.547-1.122-6.045-.512-10.662-1.143-14.327-4.22-2.826-1.062-5.445-1.536-9.71z" fill="#263238"/>
    <path d="M143.746 105.323c-3.229 0-6.224-.31-7.542-.893-.544-.239-.8-.522-.768-.849a.15.15 0 0 1 .017-.059.152.152 0 0 1 .091-.077c.02-.006.041-.008.061-.006a.162.162 0 0 1 .142.169c0 .234.354.441.582.545 3.175 1.399 16.2 1.241 18.291-1.089a.158.158 0 0 1 .224 0c.015.013.027.03.035.049a.137.137 0 0 1 .013.059.138.138 0 0 1-.013.06.133.133 0 0 1-.035.049c-1.258 1.389-6.426 2.042-11.098 2.042z" fill="#fff"/>
    <path d="M143.588 104.212c-3.229 0-6.224-.31-7.542-.887-.544-.24-.8-.545-.768-.855a.167.167 0 0 1 .174-.142.159.159 0 0 1 .137.175c0 .234.354.435.582.544 3.18 1.4 16.2 1.242 18.297-1.089a.156.156 0 0 1 .109-.043c.04 0 .079.015.108.043a.157.157 0 0 1 0 .218c-1.257 1.383-6.42 2.036-11.097 2.036z" fill="#fff"/>
    <path opacity=".2" d="M146.42 140.865c.495-7.248 0-18.1-4.433-24.183 1.166 7.711 4.433 24.183 4.433 24.183z" fill="#000"/>
    <path d="M148.021 62.659c-.376 2.723-.621 7.694 1.383 9.431a22.575 22.575 0 0 0-10.167 9.012c-2.657-6.06 1.732-8.712 1.732-8.712 2.984-.828 2.777-3.06 2.129-5.146l4.923-4.585z" fill="#FFB573"/>
    <path opacity=".2" d="m146.012 64.532-2.914 2.723c.158.483.274.979.349 1.481 1.143-.207 2.663-1.524 2.723-2.722a4.075 4.075 0 0 0-.158-1.481z" fill="#000"/>
    <path d="M149.143 56.642c.229 4.498.419 6.404-1.568 8.903-2.99 3.763-8.539 2.94-10.101-1.427-1.405-3.937-1.541-10.634 2.613-12.813 4.155-2.178 8.822.834 9.056 5.337z" fill="#FFB573"/>
    <path d="M144.916 53.086c-.337 4.743 4.792 8.822 6.399 7.02 1.606-1.803-2.353-10.254-6.399-7.02z" fill="#263238"/>
    <path d="M137.778 52.705c5.794 4.405 12.552 4.384 12.121 1.17-.43-3.212-8.685-6.06-12.121-1.17zM142.2 58.444c.043.365-.12.681-.36.703-.239.022-.473-.256-.512-.621-.038-.365.12-.675.365-.697.245-.022.469.267.507.615zM137.67 58.924c.043.364-.12.68-.365.702-.245.022-.468-.256-.506-.62-.039-.365.119-.676.359-.698.24-.021.474.25.512.616z" fill="#263238"/>
    <path d="m137.266 58.314-.914-.17s.533.643.914.17z" fill="#263238"/>
    <path d="M139.102 59.098a9.522 9.522 0 0 1-1.057 2.445 1.633 1.633 0 0 0 1.345.125l-.288-2.57z" fill="#ED893E"/>
    <path d="M150.602 60.72a2.824 2.824 0 0 1-1.688 1.661c-.997.321-1.568-.751-1.351-1.873.191-1.013.937-2.402 1.966-2.227 1.029.174 1.476 1.448 1.073 2.44z" fill="#FFB573"/>
    <path d="M143.37 56.626a.245.245 0 0 1-.152-.087 1.782 1.782 0 0 0-1.405-.725.223.223 0 0 1-.24-.196.217.217 0 0 1 .12-.208.216.216 0 0 1 .082-.02 2.174 2.174 0 0 1 1.786.893.209.209 0 0 1-.038.3.22.22 0 0 1-.153.043zM136.319 57.36a.24.24 0 0 1-.164 0 .223.223 0 0 1-.119-.283 2.14 2.14 0 0 1 1.481-1.285.223.223 0 0 1 .256.18.213.213 0 0 1-.169.245 1.695 1.695 0 0 0-1.166 1.03.202.202 0 0 1-.119.114zM141.803 57.84l-.915-.174s.528.642.915.174z" fill="#263238"/>
    <path d="m148.598 96.322-3.599-1.835-.833 4.547s2.907.697 4.955-.158l.321-.544c.082-.991-.038-1.405-.844-2.01z" fill="#FFB573"/>
    <path d="m142.134 95.713-.087 1.998a1.143 1.143 0 0 0 1.008 1.187l1.121.136.834-4.547-1.814.126a1.149 1.149 0 0 0-1.062 1.1zM156.221 76.332a118.207 118.207 0 0 1 2.391 7.504 66.412 66.412 0 0 1 1.84 7.825 16.7 16.7 0 0 1 .207 2.243 5.682 5.682 0 0 1-.702 2.94 5.261 5.261 0 0 1-2.298 2.092 7.627 7.627 0 0 1-2.472.67 14.959 14.959 0 0 1-4.357-.267 17.757 17.757 0 0 1-2.009-.485 18.863 18.863 0 0 1-1.96-.664 1.178 1.178 0 0 1-.709-1.392 1.183 1.183 0 0 1 1.291-.879h.066c.582.071 1.219.147 1.829.196.61.05 1.236.071 1.841.087a13.506 13.506 0 0 0 3.403-.3 4.023 4.023 0 0 0 1.22-.49c.216-.119.382-.312.468-.544.083-.265.106-.546.066-.822a13.256 13.256 0 0 0-.256-1.634 41.482 41.482 0 0 0-.91-3.594c-.365-1.208-.702-2.434-1.089-3.653-.768-2.429-1.563-4.901-2.352-7.303a2.374 2.374 0 0 1 1.481-3.016 2.376 2.376 0 0 1 3.017 1.48l-.006.006zM125.983 107.589l-4.024-.322.964 4.52s2.636-.419 4.247-1.786a.978.978 0 0 0 .327-.615.97.97 0 0 0-.049-.501 1.739 1.739 0 0 0-1.465-1.296z" fill="#FFB573"/>
    <path d="m119.765 109.494.686 1.879a1.138 1.138 0 0 0 1.383.713l1.089-.299-.964-4.52-1.633.806a1.152 1.152 0 0 0-.561 1.421z" fill="#FFB573"/>
    <path d="M153.499 72.64c2.69 1.133 3.97 2.963 6.191 8.049-.544 3.485-6.431 6.447-6.431 6.447s-1.944-4.41-2.586-7.144c-.643-2.734.103-8.5 2.826-7.352zM145.658 194.644a.312.312 0 0 0-.327-.202l-3.398-.054a1.926 1.926 0 0 0-1.029.218 12.724 12.724 0 0 1-5.118 1.829c-.719.109-.392 1.329 1.306 1.345 2.816.033 3.322-.18 5.724-.152 2.047 0 1.089.114 2.722.152.392 0 .708-.245.659-.517l-.539-2.619zM169.291 192.596a.316.316 0 0 0-.166-.119.317.317 0 0 0-.204.005l-3.306.811a1.876 1.876 0 0 0-.931.468c-.8.926-1.906 2.347-4.193 2.69-.724.109-.397 1.329 1.302 1.345 2.815.033 3.169-1.013 5.499-1.595 1.988-.496 1.09-.158 2.652-.545.382-.087.627-.414.507-.664l-1.16-2.396z" fill="#263238"/>
    <path d="M140.828 78.745c1.252-.469 4.776-.746 6.366.735 2.603-1.34 4.024-5.168 3.702-7.51a3.265 3.265 0 0 0-2.129-.653s-5.799 3.66-7.939 7.428zM138.514 78.788s-.719-3.06 2.722-6.485c-.414-.267-1.857.245-1.857.245s-4.182 2.368-3.512 7.237a3.812 3.812 0 0 1 2.647-.997z" fill="#FAFAFA"/>
    <path d="M143.344 61.908c.175-.166.333-.349.473-.545a.112.112 0 0 0 .003-.136.108.108 0 0 0-.035-.033.137.137 0 0 0-.18 0 3.576 3.576 0 0 1-2.75 1.449.125.125 0 0 0-.139.068.126.126 0 0 0 .139.177 3.813 3.813 0 0 0 2.489-.98z" fill="#263238"/>
    <path d="M95.359 198.717H94.4l-4.138-79.682a4.53 4.53 0 0 0-4.525-4.296H71.274a4.538 4.538 0 0 0-4.53 4.296l-4.14 79.682h-.957l4.182-79.731a5.483 5.483 0 0 1 5.445-5.2H85.72a5.484 5.484 0 0 1 5.478 5.2l4.16 79.731z" fill="#2684FF"/>
    <path opacity=".7" d="M95.359 198.717H94.4l-4.138-79.682a4.53 4.53 0 0 0-4.525-4.296H71.274a4.538 4.538 0 0 0-4.53 4.296l-4.14 79.682h-.957l4.182-79.731a5.483 5.483 0 0 1 5.445-5.2H85.72a5.484 5.484 0 0 1 5.478 5.2l4.16 79.731z" fill="#fff"/>
    <path d="M149.241 198.717h-.959l-4.138-79.682a4.528 4.528 0 0 0-4.525-4.296h-14.436a4.535 4.535 0 0 0-4.53 4.296l-4.139 79.682h-.969l4.149-79.731a5.486 5.486 0 0 1 5.489-5.2h14.447a5.48 5.48 0 0 1 5.478 5.2l4.133 79.731z" fill="#2684FF"/>
    <path opacity=".7" d="M149.241 198.717h-.959l-4.138-79.682a4.528 4.528 0 0 0-4.525-4.296h-14.436a4.535 4.535 0 0 0-4.53 4.296l-4.139 79.682h-.969l4.149-79.731a5.486 5.486 0 0 1 5.489-5.2h14.447a5.48 5.48 0 0 1 5.478 5.2l4.133 79.731z" fill="#fff"/>
    <path d="M147.389 110.752h-84.18v4.629h84.18v-4.629z" fill="#2684FF"/>
    <path opacity=".3" d="M147.389 110.752h-29.122v4.629h29.122v-4.629z" fill="#000"/>
    <path d="M125.009 109.636H85.394a.546.546 0 0 0 0 1.09h39.615a.546.546 0 0 0 0-1.09z" fill="#2684FF"/>
    <path opacity=".1" d="M125.009 109.636H85.394a.546.546 0 0 0 0 1.09h39.615a.546.546 0 0 0 0-1.09z" fill="#fff"/>
    <path d="M115.049 110.753H82.921a1.44 1.44 0 0 1-1.312-1.051l-4.52-18.406a.8.8 0 0 1 .796-1.05h32.127a1.441 1.441 0 0 1 1.318 1.05l4.52 18.406a.802.802 0 0 1-.801 1.051z" fill="#2684FF"/>
    <path opacity=".3" d="M115.049 110.753H82.921a1.44 1.44 0 0 1-1.312-1.051l-4.52-18.406a.8.8 0 0 1 .796-1.05h32.127a1.441 1.441 0 0 1 1.318 1.05l4.52 18.406a.802.802 0 0 1-.801 1.051z" fill="#fff"/>
    <path d="M105.58 105.155h-.049a.152.152 0 0 1-.091-.081.138.138 0 0 1-.016-.06.162.162 0 0 1 .009-.061 6.538 6.538 0 0 0-.077-4.705c-.043.077-.092.147-.141.218-.41.497-.995.817-1.634.893a2.954 2.954 0 0 1-1.606-.158 2.115 2.115 0 0 1-1.171-1.132 1.668 1.668 0 0 1 .201-1.634c.779-1.002 2.375-.768 3.224-.218.455.318.829.74 1.089 1.23.019-.085.032-.173.038-.26a2.236 2.236 0 0 0-.642-1.846 4.163 4.163 0 0 0-3.11-1.09c-.398.023-.792.1-1.17.23a.154.154 0 0 1-.167-.046.154.154 0 0 1-.029-.053.156.156 0 0 1 .092-.196c.407-.138.83-.22 1.258-.245a4.455 4.455 0 0 1 3.349 1.182 2.59 2.59 0 0 1 .73 2.096c-.02.217-.064.43-.131.637a6.804 6.804 0 0 1 .196 5.173.15.15 0 0 1-.053.091.155.155 0 0 1-.099.035zm-3.006-7.08a1.636 1.636 0 0 0-1.334.545 1.34 1.34 0 0 0-.158 1.313 1.8 1.8 0 0 0 .996.969c.46.177.959.224 1.443.136a2.178 2.178 0 0 0 1.443-.779c.092-.119.165-.251.218-.392a3.517 3.517 0 0 0-1.138-1.394 2.81 2.81 0 0 0-1.47-.408v.01z" fill="#fff"/>
    <path d="M108.76 103.053h-7.117l.746 7.7h5.625l.746-7.7z" fill="#2684FF"/>
    <path d="M105.089 97.128a2.331 2.331 0 0 1-.648-.087.153.153 0 0 1-.103-.12 2.383 2.383 0 0 1 .817-2.091 5.75 5.75 0 0 1 2.722-1.018.158.158 0 0 1 .169.119.146.146 0 0 1 0 .072 5.82 5.82 0 0 1-1.432 2.559 2.346 2.346 0 0 1-1.525.566zm-.457-.36a2.06 2.06 0 0 0 1.797-.446 5.148 5.148 0 0 0 1.269-2.178 5.154 5.154 0 0 0-2.342.91 2.101 2.101 0 0 0-.724 1.704v.01zM99.59 101.022a4.27 4.27 0 0 1-1.563-.381.13.13 0 0 1-.035-.033.113.113 0 0 1-.02-.044.094.094 0 0 1 .005-.048.099.099 0 0 1 .028-.039 3.72 3.72 0 0 1 1.634-.93 1.56 1.56 0 0 1 1.377.467.106.106 0 0 1 .013.052.106.106 0 0 1-.013.052 1.539 1.539 0 0 1-1.154.882 1.91 1.91 0 0 1-.272.022zm-1.345-.501a3.42 3.42 0 0 0 1.633.283 1.372 1.372 0 0 0 .975-.702 1.353 1.353 0 0 0-1.149-.36 3.332 3.332 0 0 0-1.438.779h-.021z" fill="#fff"/>
    <path d="M25.903 185.517a.149.149 0 0 1-.104-.04.155.155 0 0 1-.049-.101c-1.268-13.287 1.046-48.747 3.747-57.492a.162.162 0 0 1 .078-.09.167.167 0 0 1 .118-.014.158.158 0 0 1 .104.196c-2.724 8.713-5 44.108-3.736 57.373.002.02 0 .041-.006.061a.146.146 0 0 1-.03.053.145.145 0 0 1-.047.038.136.136 0 0 1-.059.016h-.016z" fill="#263238"/>
    <path d="M31.887 174.289H19.363l1.633 24.428h9.257l1.634-24.428z" fill="#2684FF"/>
    <path d="M26.045 136.863a5.65 5.65 0 0 1 1.35 5.07 5.66 5.66 0 0 1-4.966-1.705c-2.123-2.287-2.722-6.572-2.722-6.572s4.192.92 6.338 3.207zM33.456 148.854a7.309 7.309 0 0 1-6.774.381 7.306 7.306 0 0 1 3.463-5.837c3.452-2.097 9.04-1.754 9.04-1.754s-2.277 5.113-5.73 7.21z" fill="#263238"/>
    <path d="M32.791 127.285a2.085 2.085 0 1 1-4.17-.011 2.085 2.085 0 0 1 4.17.011z" fill="#2684FF"/>
    <path d="M17.664 161.052a9.258 9.258 0 0 0 8.168 2.837 9.26 9.26 0 0 0-2.178-8.343c-3.485-3.768-10.428-5.309-10.428-5.309s.953 7.046 4.438 10.815z" fill="#263238"/>
</svg>
