<svg width="16" height="16" viewBox="0 0 16 16" fill="none" xmlns="http://www.w3.org/2000/svg">
    <path d="M9.75 3H3a1 1 0 0 0-1 1v5.583a1 1 0 0 0 1 1h6.75a1 1 0 0 0 1-1V4a1 1 0 0 0-1-1zM10.75 6.117c0-.11.09-.2.2-.2H13a.2.2 0 0 1 .142.058l1.633 1.633a.2.2 0 0 1 .058.141v2.634a.2.2 0 0 1-.2.2H10.95a.2.2 0 0 1-.2-.2V6.117zM4.625 13.5a1.458 1.458 0 1 0 0-2.917 1.458 1.458 0 0 0 0 2.917zM12.208 13.5a1.458 1.458 0 1 0 0-2.917 1.458 1.458 0 0 0 0 2.917z" stroke="#DFDFDF" stroke-miterlimit="10" stroke-linecap="round"/>
</svg>
