<svg xmlns="http://www.w3.org/2000/svg" width="540" height="360" viewBox="0 0 540 360">
    <g fill="none">
        <path fill="#4d4d4d" d="M0 0H540V360H0z"/>
        <path fill="#DEE6F3" d="M360.577 251.926c-1.822 5.383-4.449 10.458-7.79 15.054-9.616 13.206-23.036 22.12-36.97 27.783-3.846 1.562-7.895 3.083-12.07 4.49-4.07 1.368-8.26 2.629-12.504 3.716-13.791 3.533-28.153 5.23-40.74 2.845-17.682-3.346-33.161-15.723-43.847-31.97-2.478-3.784-4.713-7.72-6.692-11.787 1.592-10.14 5.515-20.029 9.371-29.57l-15.144-.997c4.43-3.87 10.262-4.338 15.664-4.216 39.544.882 75.158 24.268 114.05 30.82 8.359 1.407 17.054 2.01 25.358-.708 3.937-1.286 7.655-3.271 11.314-5.46z" opacity=".25"/>
        <path fill="#DEE6F3" d="M360.577 251.925c-1.821 5.383-4.449 10.46-7.792 15.055-9.615 13.205-23.034 22.12-36.97 27.783-3.844 1.562-7.893 3.083-12.067 4.49l-.648.215-.425.14c-.275.092-.55.182-.825.27-.26.086-.523.17-.786.255-.172.055-.346.115-.515.164-.476.15-.952.3-1.428.446-.063.02-.126.04-.188.058-.456.142-.915.279-1.373.415-.52.156-1.039.308-1.568.462-.395.115-.79.23-1.184.335l-.3.085c-.433.115-.866.239-1.3.356-.069.018-.136.036-.204.056-.068.02-.115.03-.174.046-.332.089-.663.175-.998.263l-.59.151c-.447.115-.895.228-1.344.338l-.547.134c-.631.155-1.263.302-1.896.448-.137.03-.274.063-.413.093-.338.079-.677.154-1.015.23l-.472.104-.635.135c-.285.06-.57.115-.856.176-.192.04-.385.077-.577.115l-.468.094c-.424.082-.847.162-1.27.24-.172.033-.346.065-.52.096-.209.038-.415.075-.623.115l-.588.103-.13.022-.043.007-.636.106-.38.062c-.204.034-.408.065-.611.096-.28.045-.558.086-.836.127l-.71.104c-.294.042-.584.083-.876.12-.13.02-.261.035-.393.052-.174.024-.346.046-.523.068l-.742.09-.633.073c-.203.025-.408.047-.612.067l-.51.053c-.086.01-.172.019-.256.026-.085.007-.156.016-.231.023h-.019c-.045 0-.089.01-.131.011-.255.027-.508.05-.76.07l-.513.045c-.04 0-.077.007-.115.009-.21.018-.42.035-.628.05-.209.015-.435.033-.653.047l-.599.04-.115.007-.506.028c-.189.013-.378.022-.567.03l-.673.031h-.1l-.155.007h-.203c-.057 0-.116 0-.169.007h-.028c-.058 0-.116 0-.172.006l-.296.009h-.203c-.47.011-.94.022-1.406.025h-1.687c-.188 0-.352 0-.526-.007h-.186c-.113 0-.223-.002-.333-.007l-.218-.005c-.26 0-.518-.015-.774-.026h-.05l-.212-.009H259.784c-.08 0-.162 0-.241-.01h-.052c-.088 0-.176-.008-.263-.013l-.605-.032-.241-.017c-.066 0-.133-.005-.199-.011-.147-.008-.297-.02-.444-.03-.239-.016-.475-.035-.714-.055-.04 0-.08 0-.115-.01l-.347-.03c-.04 0-.08-.005-.115-.011-.091 0-.182-.014-.272-.024l-.536-.052c-.083-.007-.165-.018-.248-.027-.034-.002-.068-.006-.101-.011l-.386-.042-.15-.018-.476-.058c-.271-.031-.542-.067-.808-.105l-.326-.045-.243-.036c-.129-.018-.258-.038-.387-.059-.047-.006-.09-.012-.135-.02l-.169-.027c-.225-.035-.451-.072-.673-.11-.346-.059-.681-.115-1.022-.183-17.683-3.346-33.16-15.724-43.846-31.97-.288-.44-.573-.88-.854-1.326-.142-.22-.28-.444-.419-.666-.087-.139-.174-.279-.26-.42l-.105-.17c-.365-.59-.723-1.188-1.075-1.79l-.144-.247-.048-.08c-.026-.045-.051-.09-.079-.135-.105-.183-.212-.366-.317-.552l-.065-.115c-.064-.116-.127-.222-.187-.331l-.24-.425c-.062-.11-.124-.22-.184-.331l-.231-.416c-.038-.068-.075-.135-.11-.202l-.089-.16c-.115-.208-.23-.416-.338-.628-.094-.173-.187-.347-.278-.521l-.13-.245c-.044-.08-.085-.165-.13-.247l-.255-.494-.04-.077-.062-.115c-.043-.082-.084-.164-.126-.247-.06-.116-.115-.23-.175-.346-.252-.499-.501-.999-.747-1.5-.11-.224-.219-.448-.326-.672-.213-.44-.42-.884-.627-1.326l-.237-.514c-.246-.535-.488-1.071-.726-1.609-.095-.21-.188-.423-.28-.633-.006-.014-.013-.028-.018-.043-.095-.214-.187-.431-.28-.646l-.256-.605c-.116-.26-.22-.52-.328-.782-.178-.427-.353-.857-.527-1.286-.16-.398-.317-.797-.474-1.196l-.23-.592c-.146-.379-.291-.759-.435-1.14-3.128-8.314-5.505-17.077-7.27-26.017-.099-.491-.191-.983-.285-1.474-.021-.116-.045-.231-.065-.346-.365-1.953-.702-3.914-1.011-5.885-.182-1.168-.355-2.337-.52-3.514-.039-.27-.074-.544-.115-.818-.024-.172-.047-.346-.069-.517l-.23-1.846c-2.993-24.537-1.35-50.633 9.142-72.923 1.882-3.998 4.096-7.832 6.619-11.46.27-.391.544-.78.824-1.164.094-.132.189-.265.285-.396.684-.934 1.384-1.852 2.102-2.752.833-1.044 1.688-2.065 2.566-3.062.272-.308.547-.615.823-.923.295-.328.593-.651.894-.97.226-.244.454-.485.682-.725.17-.175.338-.346.507-.524l.17-.17.345-.347.54-.54c.693-.685 1.394-1.358 2.105-2.02.941-.87 1.899-1.72 2.872-2.546.205-.175.412-.348.62-.52.475-.398.955-.79 1.44-1.176 10.865-8.685 23.466-14.627 35.901-17.769 8.712-2.203 17.052-3 24.933-2.251.295.028.59.057.886.089l.318.038c2.37.27 4.722.69 7.039 1.259l.442.115 1.298.346c10.76 3.029 20.483 9.37 28.9 19.414 1.56 1.863 3.076 3.854 4.546 5.972 13.946 20.12 24.02 45.716 32.624 69.565 2.174 6.027 4.182 12.435 5.74 19.03.085.346.168.705.246 1.058.034.138.065.278.096.418.22.971.43 1.946.628 2.924.484 2.399.9 4.813 1.245 7.242.093.671.183 1.345.264 2.02.017.142.036.285.052.428.062.522.12 1.044.172 1.566 1.121 10.868.523 21.84-2.962 32.077z" opacity=".25"/>
        <path fill="#DEE6F3" d="M291.242 302.969c-.447.115-.895.228-1.344.338l-.547.134c-.631.154-1.263.302-1.896.447-.137.032-.274.064-.413.094-.338.078-.677.153-1.015.23l-.472.103-.635.135c-.285.06-.57.116-.856.177-.192.04-.386.08-.577.115l-.468.094c-.424.082-.847.162-1.27.24-.172.033-.346.064-.52.096l-.623.115-.588.103-.13.022c-.013 0-.028 0-.043.006l-.636.107-.38.062-.611.096c-.28.045-.558.086-.836.127l-.71.103c-.294.043-.584.084-.876.122l-.393.05c-.174.025-.346.047-.523.068l-.742.092-.633.072c-.203.025-.408.046-.612.067l-.51.053c-.083.01-.17.019-.256.026-.087.007-.156.016-.231.023h-.019l-.263.025c-.21.02-.42.04-.629.057l-.512.044c-.038 0-.077.006-.115.009-.21.018-.42.034-.628.05-.209.014-.435.033-.653.047l-.599.04-.115.007-.506.028c-.189.012-.378.022-.567.03l-.673.03h-.1l-.155.008h-.203c-.057 0-.116 0-.169.007h-.028c-.058 0-.116 0-.172.005l-.296.01h-.203c-.47.011-.94.022-1.406.025h-1.687c-.188 0-.352 0-.526-.007h-.186c-.113 0-.223-.002-.333-.007l-.218-.006c-.26 0-.518-.015-.774-.025h-.05l-.212-.01H259.784c-.08 0-.162 0-.241-.01-.013.002-.025.002-.037 0h-.015c-.088 0-.176-.008-.263-.012l-.605-.033c-.08 0-.16-.009-.241-.016-.08-.007-.133-.005-.199-.011-.147-.008-.297-.02-.444-.03-.239-.016-.475-.035-.714-.056-.04 0-.08 0-.115-.009l-.347-.03c-.04 0-.08-.006-.115-.011-.091 0-.182-.014-.272-.025-.18-.016-.358-.033-.536-.052-.083-.006-.165-.017-.248-.026-.034-.002-.068-.006-.101-.012l-.386-.041-.15-.019c-.16-.016-.318-.035-.476-.057-.271-.031-.542-.067-.808-.105l-.326-.045-.243-.036c-.129-.019-.258-.038-.387-.059l-.135-.02c-.045-.009-.116-.017-.169-.027-.224-.035-.449-.071-.673-.11-.346-.059-.681-.115-1.022-.183-17.683-3.346-33.16-15.724-43.846-31.971-.288-.439-.573-.88-.854-1.325-.142-.22-.28-.444-.419-.667l-.26-.418-.105-.171c-.365-.591-.723-1.188-1.075-1.791-.065-.115-.128-.217-.192-.327-.026-.045-.051-.09-.079-.135-.105-.182-.212-.365-.317-.551l-.065-.115c-.064-.116-.127-.222-.187-.332l-.24-.424c-.062-.11-.124-.22-.184-.331l-.231-.416c-.038-.068-.075-.135-.11-.202l-.024-.04c-.02-.04-.044-.08-.065-.115-.115-.208-.23-.417-.338-.628-.094-.173-.187-.347-.278-.522-.044-.083-.086-.164-.13-.244-.044-.081-.085-.165-.13-.247l-.255-.494-.04-.077-.062-.116c-.043-.082-.084-.164-.126-.247-.06-.115-.115-.23-.175-.346-.252-.498-.501-.998-.747-1.5-.11-.224-.219-.448-.326-.671-.213-.441-.42-.884-.627-1.326l-.237-.515c-.246-.534-.488-1.07-.726-1.608-.095-.211-.188-.424-.28-.634l-.018-.042c-.095-.215-.187-.432-.28-.647l-.256-.604c-.116-.26-.22-.52-.328-.782-.178-.427-.353-.858-.527-1.287-.16-.398-.317-.796-.474-1.195l-.23-.592-.435-1.14c-3.128-8.315-5.505-17.077-7.27-26.017-.099-.492-.191-.983-.285-1.475-.021-.115-.045-.23-.065-.346-.365-1.952-.702-3.914-1.011-5.885-.182-1.167-.355-2.336-.52-3.513.515-.035 1.029-.066 1.543-.087 1.27-.053 2.539-.064 3.808-.03.44.01.88.028 1.321.05.241.012.483.025.727.04.157.01.312.021.462.035.115 0 .23.014.335.023.273.02.547.044.82.07h.069c.133.012.266.026.4.042.403.04.808.084 1.21.133l.163.02.365.049c.37.048.738.103 1.107.158 10.804 1.662 21.115 6.494 29.588 14.077.363.325.723.654 1.078.99 12.183 11.423 20.149 27.692 29.629 42.286 4.064 6.262 8.407 12.216 13.48 17.35 5.735 5.807 12.168 10.345 19.05 13.976z" opacity=".8"/>
        <path fill="#DAE2ED" d="M303.747 299.252c-17.292 5.82-36.777 9.68-53.245 6.562-17.681-3.346-33.16-15.723-43.846-31.97-4.615-7.015-8.38-14.709-11.432-22.83 26.664 2.77 52.488 12.368 75.091 27.948 9.403 6.479 18.346 14.024 28.645 18.49 1.573.68 3.168 1.28 4.787 1.8z"/>
        <path fill="#FFC150" d="M337.295 97.642l-29.721 26.34c-.481.411-.708 1.047-.597 1.67l6.074 32.2.942 4.991c.29 1.542-1.488 2.717-3.01 1.989l-.527-.25-.301-.145c.11-.289.305-.668.38-.908.208-.656.078-1.49-.197-2.104-.161-.364-.383-.698-.655-.99-.081-.09-.18-.165-.288-.219-.018-.01-.038-.016-.057-.025-.504-.223-1.095-.016-1.35.473-.375.716-.758 1.455-1.102 2.21l-32.64-15.6c-.61-.29-1.32-.29-1.93 0L241.21 162.14c-.332-1.02-.857-2.015-1.294-2.892-.45-.906-.469-1.75-.608-2.688l-.04-.248c-.076-.436-.318-.505-.776-.535h-.062c-.411-.037-.822.077-1.154.321-.285.25-.508.565-.65.916-.078.177-.144.358-.197.544-.157.533-.214 1.091-.166 1.645v.044c.102.923.9 1.87.957 2.791v.045c.01.146.002.293-.024.436l-.014.418v.793c0 .127 0 .219.007.276v.053l-.029.015-1.593.76c-.737.356-1.61.278-2.27-.203-.577-.398-.867-1.096-.74-1.785l.807-4.28 6.22-32.913c.112-.623-.115-1.259-.596-1.67l-29.72-26.342c-1.232-1.09-.552-2.992 1.153-3.216l41.077-5.423c.656-.075 1.237-.458 1.564-1.031l18.366-33.838c.762-1.403 2.96-1.403 3.722 0l18.369 33.838c.326.573.906.956 1.561 1.031l27.305 3.604 13.758 1.82c1.703.223 2.383 2.126 1.152 3.215z"/>
        <path fill="#FED267" d="M273.282 61.945l-16.369 28.826c-.86 1.512-2.507 2.52-4.37 2.676l-35.54 2.95 37.55 1.596c2.385.101 4.567-1.213 5.396-3.25l13.333-32.798z"/>
        <path fill="#FCBD11" d="M237.194 162.933v.794c0 .127 0 .22.008.276v.053l-.029.016-1.593.76c-.736.356-1.609.278-2.27-.204-.577-.396-.868-1.096-.74-1.785l.807-4.278c1.018-.328 2.036-.665 3.056-1.008-.156.533-.212 1.091-.165 1.645v.043c.103.923.9 1.869.958 2.79v.046c.01.146.002.292-.025.436 0 .149-.004.29-.007.416z"/>
        <path fill="#FFB03A" d="M337.295 97.642l-29.721 26.34c-.481.411-.708 1.047-.597 1.67l6.074 32.2.942 4.991c.29 1.542-1.488 2.717-3.01 1.989l-.527-.25-.301-.145c.11-.289.305-.668.38-.908.208-.656.078-1.49-.197-2.104-.161-.364-.383-.698-.655-.99-.081-.09-.18-.165-.288-.219-.018-.01-.038-.016-.057-.025-.504-.223-1.095-.016-1.35.473-.375.716-.758 1.455-1.102 2.21l-32.64-15.6c-.61-.29-1.32-.29-1.93 0L241.21 162.14c-.332-1.02-.857-2.015-1.294-2.892-.45-.906-.469-1.75-.608-2.688 30.83-10.903 62.172-29.84 83.077-63.954l13.758 1.82c1.703.223 2.383 2.126 1.152 3.215z"/>
        <path fill="#FFC150" d="M182.232 144.43l12.633 7.483c.208.122.463.135.682.035l13.326-6.166c.253-.118.551-.081.769.094.217.175.316.46.255.732l-3.21 14.327c-.054.236.012.483.177.66l9.982 10.768c.19.205.247.5.148.76-.1.262-.34.444-.618.47l-14.62 1.373c-.241.022-.457.16-.576.372l-7.154 12.822c-.136.244-.399.39-.678.375-.279-.014-.525-.186-.636-.442l-5.824-13.48c-.095-.22-.294-.38-.531-.427l-14.403-2.84c-.274-.053-.495-.257-.568-.527-.074-.27.012-.557.222-.742l11.02-9.704c.18-.16.272-.398.243-.638l-1.743-14.581c-.035-.278.091-.553.326-.707.235-.153.536-.16.778-.017z"/>
        <path fill="#FED267" d="M183.346 147.338l1.27 12.559c.066.658-.208 1.306-.728 1.716l-9.905 7.828 11.467-6.734c.728-.427 1.096-1.277.909-2.1l-3.013-13.269z"/>
        <path fill="#FFB03A" d="M192.044 186.542l.67 1.551c.111.256.358.428.637.442.278.014.541-.131.677-.375l7.154-12.822c.12-.211.335-.35.577-.372l14.62-1.373c.278-.026.517-.208.617-.47.1-.26.042-.555-.148-.76l-9.982-10.768c-.165-.177-.231-.424-.178-.66l3.212-14.327c.06-.273-.038-.557-.256-.732-.217-.175-.516-.212-.769-.094l-4.463 2.065c1.117 16.133-4.919 28.945-12.368 38.695z"/>
        <path fill="#FFC150" d="M358.763 139.27l-2.63 13.798c-.044.227.027.461.19.625l9.875 9.99c.188.19.252.47.165.723s-.31.434-.575.467l-13.936 1.763c-.23.03-.43.169-.536.374l-6.449 12.48c-.122.238-.37.385-.637.38-.267-.005-.509-.161-.623-.403l-5.982-12.71c-.099-.209-.294-.356-.522-.393l-13.861-2.277c-.264-.043-.48-.232-.558-.488-.078-.255-.005-.533.19-.716l10.24-9.619c.168-.158.247-.389.213-.617l-2.119-13.887c-.041-.266.072-.532.294-.685.22-.154.51-.168.745-.036l12.304 6.769c.203.111.447.116.654.012l12.553-6.307c.238-.119.523-.093.736.068.213.16.317.426.27.688z"/>
        <path fill="#FED267" d="M356.506 141.215l-10.888 5.224c-.57.274-1.242.238-1.78-.097l-10.261-6.372 9.783 8.133c.622.516 1.506.57 2.187.135l10.96-7.023z"/>
        <path fill="#FFB03A" d="M324.053 161.778l-1.178 1.107c-.195.183-.27.46-.192.717.078.255.295.445.559.488l13.861 2.276c.228.037.423.184.522.394l5.982 12.71c.114.241.356.397.623.402.268.005.515-.142.637-.38l6.45-12.48c.105-.205.305-.345.535-.374l13.936-1.763c.265-.033.488-.214.575-.467.087-.252.023-.532-.165-.722l-3.306-3.346c-14.156 6.247-27.647 4.975-38.839 1.438z"/>
        <path fill="#FFC150" d="M361.777 184.853l.031 7.855c0 .13.064.25.17.322l6.489 4.429c.12.085.184.23.163.376-.02.146-.122.268-.261.316l-7.46 2.457c-.124.04-.22.138-.256.262l-2.205 7.539c-.043.142-.162.249-.308.274-.147.026-.295-.033-.384-.152l-4.641-6.337c-.076-.104-.2-.164-.329-.16l-7.852.23c-.15.005-.288-.076-.358-.208s-.06-.292.028-.413l4.593-6.373c.075-.105.095-.24.051-.361l-2.646-7.396c-.05-.14-.016-.298.087-.405.104-.107.26-.147.402-.102l7.48 2.399c.123.039.258.015.36-.063l6.216-4.803c.119-.09.279-.105.413-.039.133.067.218.204.217.353z"/>
        <path fill="#FED267" d="M360.747 186.16l-5.424 4.03c-.283.213-.656.265-.987.138l-6.313-2.401 6.239 3.419c.396.217.888.152 1.215-.16l5.27-5.026z"/>
        <path fill="#FFB03A" d="M345.13 200.915l-.528.732c-.088.121-.099.282-.029.414s.21.213.359.208l7.852-.23c.13-.005.252.055.329.16l4.64 6.336c.088.119.236.179.382.155.146-.025.266-.13.31-.27l2.206-7.54c.037-.124.132-.222.255-.262l7.46-2.456c.14-.048.241-.17.262-.317.02-.146-.043-.291-.163-.376l-2.173-1.484c-7.1 4.932-14.64 5.675-21.162 4.93z"/>
        <path fill="#FFC150" d="M188.03 211.184l.028 7.064c0 .116.058.226.155.29l5.835 3.982c.11.076.169.208.15.341-.019.133-.111.244-.239.286l-6.71 2.21c-.11.035-.197.124-.23.236l-1.984 6.78c-.037.13-.145.226-.278.249-.133.023-.267-.032-.346-.14l-4.174-5.7c-.07-.093-.18-.147-.296-.144l-7.06.21c-.135.004-.26-.069-.323-.188-.064-.119-.054-.263.025-.372l4.13-5.731c.069-.095.085-.217.046-.326l-2.378-6.654c-.046-.126-.016-.268.078-.365.093-.096.234-.131.361-.09l6.728 2.157c.11.035.232.014.324-.057l5.59-4.319c.107-.082.25-.096.372-.037.12.06.197.183.197.318z"/>
        <path fill="#FED267" d="M187.104 212.358l-4.872 3.626c-.256.19-.591.236-.889.123l-5.677-2.16 5.61 3.075c.357.195.798.137 1.093-.143l4.735-4.52z"/>
        <path fill="#FFB03A" d="M173.06 225.628l-.476.66c-.079.109-.088.253-.025.372.063.12.188.192.323.187l7.06-.209c.117-.003.227.05.296.145l4.174 5.699c.08.108.214.163.346.14.133-.023.24-.12.279-.249l1.983-6.78c.033-.112.12-.2.23-.236l6.712-2.21c.127-.042.22-.153.238-.286.02-.133-.039-.265-.15-.34l-1.957-1.329c-6.386 4.438-13.168 5.107-19.033 4.436z"/>
        <g>
            <path fill="#FED1BC" d="M88.802 8.927l.526.25c1.524.729 3.302-.446 3.01-1.987l-.02-.116-.824-4.364-.254-1.345c-.064-.34-.346-.917.124-.892.87.045 1.52 1.213 2.024 1.782.807.923 1.424 1.961 2.254 2.875 1.084 1.192.764 2.84.736 4.315-.03 1.574-.126 3.272-1.195 4.528-.31.362-.205 2.587-.104 4.024.051.717.104 1.239.104 1.239-1.192.323-2.396.611-3.61.854-.838.173-1.685.298-2.538.376-1.299.107-1.073-.531-1.2-1.627v-.034c-.072-.577-.265-1.136-.42-1.7-.047-.165-.09-.332-.125-.5-.241-1.138-.833-2.171-1.692-2.955-.748-.685-1.528-1.077-1.5-2.221.032-1.422.517-2.842 1.14-4.212.346-.754.727-1.493 1.102-2.21.255-.488.846-.695 1.35-.472.018.009.04.016.057.025.109.054.207.128.288.22.272.29.493.625.655.99.275.613.405 1.447.197 2.103-.075.24-.27.62-.38.908" transform="translate(221.654 155.654)"/>
            <path fill="#FFAE9B" d="M88.434 10.776c.04.026.08.05.123.071.846.45 1.887.385 2.801.09.529-.156 1.018-.424 1.433-.785.67-.618 1-1.55 1-2.46 0-.91-.302-1.802-.738-2.601-.585-1.076-1.45-2.058-1.646-3.268v.032c-.284.441-.347 1.002-.554 1.482-.318.719-.462 1.5-.717 2.244-.3.871-.753 1.68-1.204 2.483-.37.657-1.082 1.819-.654 2.593.159.286.484.354.747.527.364.248.686.553.954.903.425.535.758 1.136 1.154 1.695.1.14.22.29.389.316.17.026.324-.072.461-.166.487-.33.99-.677 1.288-1.184.275-.469.346-1.025.407-1.565.116-.954.231-1.908.34-2.863.097-.84-.253-1.421-.485-2.201-.068-.23-.044-.297-.23-.452" opacity=".4" transform="translate(221.654 155.654)"/>
            <path fill="#FFAE9B" d="M88.54 10.27c.699.244 1.373.556 2.013.93.33.18.639.394.923.64.283.248.515.549.685.885l-.016.009c-.241-.274-.507-.525-.793-.751-.28-.231-.57-.45-.874-.655-.307-.202-.623-.388-.949-.558-.323-.174-.653-.34-.992-.483l.002-.018z" opacity=".6" transform="translate(221.654 155.654)"/>
            <path fill="#FCBD11" d="M15.54 7.28v.793c0 .127 0 .22.008.276v.053l-.029.016-1.593.76c-.736.356-1.609.278-2.27-.203-.577-.397-.867-1.096-.74-1.785l.61-3.242.196-1.038c1.018-.328 2.036-.665 3.056-1.008-.156.533-.212 1.091-.165 1.645v.043c.103.923.9 1.869.958 2.79v.046c.01.146.002.292-.025.436.002.15-.003.292-.006.418z" transform="translate(221.654 155.654)"/>
            <path fill="#FED1BC" d="M19.795 9.125s-1.254 4.128-2.057 4.455c-.803.326 0 5.1 0 5.1-1.132-.243-2.261-.495-3.396-.742-1.718-.38-3.438-.754-5.163-1.099.539-1.17 1.067-3.206.52-4.384-.882-1.893-1.931-4.013-.686-6.068.346-.535.77-1.015 1.256-1.425.403-.358.821-.696 1.256-1.014l-.61 3.242c-.128.689.163 1.388.74 1.785.661.481 1.534.56 2.27.203l1.593-.76h.03v-.017-.053c0-.056 0-.149-.008-.276v-.794c0-.129.008-.267.013-.416.027-.144.036-.29.025-.436V6.38c-.058-.923-.855-1.873-.958-2.791v-.043c-.047-.554.009-1.112.165-1.645.055-.186.121-.368.199-.545.142-.352.364-.666.65-.916.332-.244.742-.358 1.153-.321h.061c.462.031.7.098.777.534.015.083.027.166.04.248.139.938.158 1.783.608 2.689.439.877.963 1.872 1.296 2.892.27.882.413 1.78.226 2.642z" transform="translate(221.654 155.654)"/>
            <path fill="#FFAE9B" d="M16.375 7.696c.169.95-.106 1.924-.746 2.645-.295.338-.676.59-1.103.727-.382.098-.777.13-1.17.092-1.3-.074-2.733-.495-3.366-1.635-.462-.825-.385-1.865-.03-2.74.355-.874.961-1.622 1.558-2.354l.993-1.219c.257-.317.552-.655.956-.72.879-.142 1.127 1.773 1.442 2.328.532.933 1.266 1.792 1.466 2.876z" opacity=".4" transform="translate(221.654 155.654)"/>
            <path fill="#DEE6F3" d="M18.173 16.656c-.045.23-.095.461-.151.692-.057.23-.115.462-.184.685-1.628-1.37-3.995-1.92-6.06-2.021-1.14-.057-2.321.023-3.414.373-.123.038-.244.082-.362.132.07-.512.181-1.018.333-1.512.016-.056.034-.11.056-.163.026-.073.065-.142.115-.2.133-.12.3-.195.477-.217 1.31-.274 2.67-.094 3.99.138 1.518.267 3.027.604 4.517 1.007.479.125.778.6.683 1.086z" transform="translate(221.654 155.654)"/>
            <path fill="#AEB9D7" d="M18.022 17.348c-.055.23-.115.462-.184.685-1.628-1.37-3.995-1.92-6.06-2.021-1.14-.057-2.321.023-3.414.373-.123.038-.244.082-.362.132.07-.512.181-1.018.333-1.512.016-.056.034-.11.056-.163 1.29.174 2.61.193 3.911.3 1.192.098 2.396.28 3.515.716.887.347 1.734.812 2.205 1.49z" transform="translate(221.654 155.654)"/>
            <path fill="#3E3E89" d="M62.369 124.393s.646 1.163 1.203 2.171l.008.014c4.225-.865 8.239-1.037 12.598-1.07 1.804-.013 9.975-2.068 10.279 1.3V128.796c0 .097.005.193 0 .295l-.006.154v.323l-.005.162-.001.534c-.003.24-.013.495-.013.76-.008.2-.008.407-.008.62l-.008.214-.001.216v.282c0 .09.007.164 0 .27l-.006.162v.185c-.004.184-.011.373-.011.564l-.028 1.437-.043 2.121c-.03 1.554-.066 3.249-.104 5.062-1.36.492-2.738.974-4.13 1.442l-.646.216-.426.141-.412.136-.413.134-.786.254c-.172.055-.346.115-.515.164-.476.15-.952.3-1.428.446-.062.021-.126.04-.188.058-.456.142-.915.28-1.373.415-.52.156-1.039.308-1.568.462-.395.115-.79.23-1.184.336l-.299.084-.65.177-.652.18c-.068.017-.135.035-.203.055-.068.02-.115.03-.174.046l-.498.132-.5.131-.59.151-.671.171-.673.167-.547.134-.947.227-.948.22c-.138.032-.275.064-.414.094-.338.079-.677.154-1.015.231l-.472.103-.634.135-.857.176-.289.059-.288.057-.468.093-.635.122-.634.118c-.173.034-.346.065-.522.096-.207.038-.414.075-.622.115l-.588.103-.13.022-.043.007-.636.106-.38.062-.306.049-.305.047c-.28.045-.557.087-.836.127l-.71.104-.439.062-.437.059c-.13.018-.26.035-.392.05-.175.025-.347.047-.524.069l-.742.09-.632.074-.306.034-.307.033-.509.053-.13.013-.127.012c-.085.007-.156.016-.231.023h-.019l-.066.005-.065.007c-.255.026-.508.05-.76.07l-.513.044-.058.004-.057.005c-.21.019-.419.035-.628.05-.209.015-.435.033-.653.047l-.599.04-.115.007-.506.028-.283.017-.284.013-.673.031h-.1l-.155.007H44.42l-.082.007H44.22l-.085.006-.296.009h-.203l-.704.016-.702.01h-1.868c-.118-.001-.23-.003-.345-.008h-.186l-.167-.001-.165-.005-.218-.006-.389-.009-.386-.017h-.05l-.212-.009h-.115l-.121-.001-.12-.01c-.012.002-.025.002-.037 0h-.015l-.132-.004-.131-.008-.605-.032-.24-.016-.1-.004-.1-.008c-.147-.008-.297-.02-.444-.03-.238-.016-.475-.035-.714-.055-.04 0-.08 0-.115-.01l-.346-.03-.06-.003-.056-.008c-.09 0-.182-.014-.272-.024-.18-.016-.358-.034-.535-.052-.084-.007-.165-.018-.249-.027-.034-.002-.067-.006-.101-.011l-.385-.042-.152-.018-.475-.058-.406-.05-.073-.01-.01-.287-.081-2.212c-.006-.135-.013-.27-.013-.403l-.029-.746c-.004-.163-.016-.326-.016-.487-.012-.377-.026-.748-.039-1.115-.006-.164-.016-.325-.016-.486-.01-.344-.023-.684-.034-1.02-.015-.392-.026-.78-.039-1.164-.006-.14-.014-.282-.014-.422l-.018-.571-.029-.948c-.026-.77-.048-1.517-.071-2.229-.005-.106-.007-.212-.007-.318-.006-.047-.006-.092-.006-.137-.002-.102-.01-.203-.01-.307-.03-1.016-.055-1.968-.078-2.845l-.015-.502c-.001-.14-.01-.273-.01-.41l-.004-.1v-.634c-.012-.419-.022-.814-.03-1.185l-.006-.208-.003-.2v-.572l-.006-.186v-.419c-.01-.267-.01-.507-.01-.729-.001-.91.612-1.7 1.48-1.931l.155-.035 15.497-2.567 11.608-1.925c.835-.14 1.667.262 2.077 1.003z" transform="translate(221.654 155.654)"/>
            <path fill="#30306E" d="M39.95 151.248h-.118l-.167-.001-.165-.005-.03-.002c.012-2.602.038-5.205.082-7.808.15 2.605.28 5.21.398 7.816zm20.355-22.986l.788.008 1.234.011 1.921.019 2.37.023h.146l19.718.194c0 .177 0 .369-.008.576 0 .103 0 .206-.006.312v.165c0 .115 0 .222-.006.337-.005.115 0 .23 0 .36 0 .241-.008.494-.014.76 0 .199-.008.405-.011.619 0 .14 0 .282-.01.429v.14l-.005.142v.27c0 .108 0 .215-.007.326v.02c0 .184-.008.372-.012.564l-.033 1.438c-2.083.768-4.18 1.52-6.301 2.2-.25.077-.497.147-.744.209-1.32.32-2.613.398-3.949.726-3.078.758-6.091 2.23-7.846 4.59-1.288 1.739-1.967 3.72-2.55 5.722l-.1.023-.507.115-.472.103-.634.135-.857.176-.289.059-.288.057-.468.093-.415.08c-.11-2.591-.207-5.023-.291-7.249l-.012-.304-.011-.3c0-.182-.014-.36-.02-.538l-.115-3.275c-.014-.401-.027-.79-.038-1.169-.083-2.538-.138-4.576-.16-6 0-.23-.009-.44-.01-.635-.01-.808-.006-1.325.012-1.531z" transform="translate(221.654 155.654)"/>
            <path fill="#30306E" d="M68.467 137.577s-.692 1.137-3.28 2.698c-4.23 2.552-13.519 6.231-33.109 7.915-.091-2.539-.172-4.917-.24-7.083-.248-7.748-.346-12.779-.264-12.941l17.147-2.842 17.077 5.756 1.385 3.379.669 1.634.615 1.484z" opacity=".5" transform="translate(221.654 155.654)"/>
            <path fill="#FFF" d="M30.433 137.322v0zM30.703 138.923c.025.145.05.298.076.462-.028-.155-.057-.31-.083-.462-.094-.523-.18-1.048-.26-1.571.026.115.119.69.267 1.571z" transform="translate(221.654 155.654)"/>
            <path fill="#4E4E98" d="M96.59 55.815c-.486.984-1.008 1.962-1.552 2.932-2.967 5.296-6.577 10.458-8.48 16.051-.433 1.27-1.01 2.344-1.56 3.361-1.038 1.926-1.987 3.66-1.66 6.201.146.86.316 1.717.496 2.573.41 1.97.872 3.932 1.201 5.917 1.467 8.894 1.885 18.017 2.341 27.061.127 2.487.255 4.962.409 7.434.071 1.154.308 2.58 0 3.718-.008.025-.018.049-.03.072-.216.394-.827.835-1.703 1.283-1.244.641-3.021 1.298-4.945 1.868-2.46.729-6.404 2.213-9 1.643-.471-.108-.912-.32-1.29-.623-1.455-1.132-2.262-3.426-2.57-5.084-.15-.855-.235-1.72-.255-2.588-.035-1.141.008-2.287.033-3.428.167-7.718-.448-15.433-1.836-23.026-.68-3.729-1.546-7.416-2.596-11.061-.421-1.464-1.172-2.98-1.334-4.469-.18-1.665.353-3.675.567-5.334.218-1.698.452-3.391.629-5.094.3-2.874.295-5.77.165-8.654-.017-.387-.038-.776-.06-1.163-.088-1.593-.127-3.243-.313-4.847-.062-.534-.142-1.06-.242-1.584-.048-.249-.323-1.117-.647-2.02-.42-1.177-.935-2.423-1.153-2.423.51.016 1.018.053 1.526.115.852.098 1.696.257 2.526.474.437.116.873.244 1.305.392l.195.066c2.711.96 4.328 1.112 6.22-.14.194-.126.39-.268.59-.426.101-.08.203-.163.307-.25.31-.262.632-.559.97-.896 1.666-1.652 3.468-3.077 5.183-4.68.2-.184.397-.371.593-.563 1.402-1.364 3.216-2.578 3.828-4.391.849-2.515.782-5.575.929-8.182.183-3.291.248-6.597.107-9.889-.032-.703-.094-1.376-.149-2.013-.196-2.262-.31-4.05 1.379-4.933.55-.288 1.291-.48 2.282-.56 2.29-.188 5.444-.274 7.742-1.145.209-.077.409-.162.6-.255.124-.058.243-.116.358-.185.916-.51 2.297 9.593 2.392 10.385 1.092 9.26.749 19.76-3.498 28.36z" transform="translate(221.654 155.654)"/>
            <path fill="#AEB9D7" d="M59.941 52.113L47.836 51.267 44.327 52.724 50.8 58.967 59.017 58.374 61.83 59.204 61.167 54.778z" transform="translate(221.654 155.654)"/>
            <path fill="#FFF" d="M70.786 67.237l-3.183-5.308-2.26-3.767c-.162-.274-.328-.546-.492-.82-.108-.18-.213-.363-.318-.554-.183-.354-.393-.693-.628-1.015-.347-.42-.749-.792-1.196-1.105l-.063-.046c-.56-.412-1.154-.8-1.651-1.262-.07.215-.127.435-.177.655-.145.613-.242 1.237-.393 1.846-.035.142-.074.286-.116.427-.02.064-.039.125-.062.187-.081.24-.179.476-.293.703l-.074.14c-.024.045-.05.09-.078.135-.028.045-.054.09-.084.133-.03.043-.047.076-.075.116-.027.039-.072.102-.115.152-.043.05-.061.078-.095.115-.033.037-.068.079-.105.116l-.069.072c-.024.025-.066.064-.101.094l-.031.027c-.042.036-.085.072-.129.104h-.008l-.157.116c-.054.04-.103.064-.156.092-.054.028-.107.055-.162.08h-.01c-.807.358-1.747.232-2.616.06-.149-.03-.298-.06-.447-.094-.218-.048-.436-.098-.655-.151l-.439-.107-.355-.091c-.53-.137-1.058-.279-1.588-.416l-.536-.138c-.076-.021-.156-.04-.23-.06-.149-.037-.295-.073-.444-.106-.168-.042-.336-.08-.504-.116l-.105-.023c-.123-.028-.246-.053-.368-.078-.217-.044-.434-.085-.65-.124l-.086-.014-.22-.035c-.08-.014-.16-.026-.24-.036-.042-.008-.085-.014-.127-.019-.097-.014-.196-.027-.293-.037-.097-.009-.2-.024-.299-.033-.327-.034-.657-.054-.992-.061-1.564-.036-3.167.23-4.55.97l-.148.084c-.119.07-.233.147-.34.231-.045.035-.087.07-.128.106-.02.016-.038.035-.057.055h-.007c-.873.807-1.08 1.937-1.71 3.072l-.441.792c-1.077 1.928-2.16 3.851-3.252 5.769l2.263 1.807 21.494 17.155 1.672 1.335.862.693 1.796-4.39 6.347-15.532.336-.818c-.23-.358-.446-.722-.662-1.083z" transform="translate(221.654 155.654)"/>
            <path fill="#AEB9D7" d="M70.786 67.237l-3.183-5.308-2.26-3.767c-.162-.274-.328-.546-.492-.82-.108-.18-.213-.363-.318-.554-.183-.354-.393-.693-.628-1.015-.347-.42-.749-.792-1.196-1.105l-.063-.046c-.56-.412-1.154-.8-1.651-1.262-.07.215-.127.435-.177.655-.145.613-.242 1.237-.393 1.846-.035.142-.074.286-.116.427-.02.064-.039.125-.062.187-.081.24-.179.476-.293.703l-.074.14c-.024.045-.05.09-.078.135-.028.045-.054.09-.084.133-.03.043-.047.076-.075.116-.027.039-.072.102-.115.152-.043.05-.061.078-.095.115-.033.037-.068.079-.105.116l-.069.072c-.024.025-.066.064-.101.094l-.031.027c-.042.036-.085.072-.129.104h-.008l-.157.116c-.054.04-.103.064-.156.092-.054.028-.107.055-.162.08h-.01c-.807.358-1.747.232-2.616.06-.149-.03-.298-.06-.447-.094-.218-.048-.436-.098-.655-.151l-.439-.107-.355-.091c-.53-.137-1.058-.279-1.588-.416l-.536-.138c-.076-.021-.156-.04-.23-.06-.149-.037-.295-.073-.444-.106-.168-.042-.336-.08-.504-.116l-.105-.023c-.123-.028-.246-.053-.368-.078-.217-.044-.434-.085-.65-.124l-.086-.014-.22-.035c-.08-.014-.16-.026-.24-.036-.042-.008-.085-.014-.127-.019-.097-.014-.196-.027-.293-.037-.097-.009-.2-.024-.299-.033-.327-.034-.657-.054-.992-.061-1.564-.036-3.167.23-4.55.97l-.148.084c-.119.07-.233.147-.34.231-.045.035-.087.07-.128.106-.02.016-.038.035-.057.055h-.007c-.873.807-1.08 1.937-1.71 3.072l-.441.792c-1.077 1.928-2.16 3.851-3.252 5.769l2.263 1.807 21.494 17.155 1.672 1.335.862.693 1.796-4.39 6.347-15.532.336-.818c-.23-.358-.446-.722-.662-1.083zM44.054 60.82h.01c.516.205 10.824 7.154 15.64 7.136l-.019-.798-.134-6.073c.026.346 3.55 3.873 3.55 3.873s-.041 11.359-1.031 11.946c.054-.032-3.658-5.183-3.972-5.558-2.168-2.593-5.643-4.224-8.393-6.13-1.23-.851-2.454-1.713-3.641-2.62-.677-.52-1.517-1.06-2.017-1.769v-.009l.007.002z" opacity=".25" transform="translate(221.654 155.654)"/>
            <path fill="#FED1BC" d="M64.446 39.157c.057 3.346-2.443 6.449-5.384 8.006-.107.06-.214.116-.323.164-.13.063-.262.124-.394.183-.29.128-.588.24-.892.334-.569.179-1.152.306-1.744.38-.41.053-.823.084-1.237.094-3.252.094-6.864-1.015-9.188-2.916 0 0-.08.05-.224.129-.059.032-.13.07-.21.115l-.123.064c-.026.01-.052.022-.077.035-1.233.596-3.988 1.616-5.686-.177-1.02-1.072-1.57-2.031-1.707-2.858-.107-.544.004-1.107.31-1.568.226-.33.518-.609.858-.819.074-.049.152-.093.231-.132.025-.014.05-.026.076-.037.836-.38 1.624-.125 2.174.194l.049.029c.184.11.358.237.521.377.116.1.187.175.206.194l-.047-.075c.049.042.097.086.146.135l.161.015 1.677.161-.06-.063-.045-.049c-.019-.018-.057-.06-.09-.097l-.116-.127-.085-.1-.2-.23c-.034-.045-.07-.092-.108-.138-.02-.022-.04-.046-.059-.07-.038-.051-.078-.102-.115-.156-.081-.105-.166-.216-.255-.335-.043-.06-.087-.115-.13-.186-.044-.07-.092-.129-.138-.193-.091-.135-.186-.275-.28-.423-.048-.072-.091-.146-.14-.221-.142-.231-.283-.469-.42-.725-.046-.083-.093-.167-.137-.255-.443-.838-.788-1.723-1.03-2.64-.032-.124-.063-.25-.088-.377-.008-.022-.013-.045-.016-.068-.017-.075-.032-.154-.045-.231-.03-.155-.057-.31-.077-.468-.008-.055-.013-.116-.02-.163-.007-.047-.012-.088-.017-.134-.008-.073-.013-.147-.02-.222-.005-.075-.01-.129-.012-.193-.002-.065-.01-.152-.011-.231v-.026-.26-.216c0-.07 0-.166.01-.248.01-.082.01-.166.017-.25l.025-.247c.008-.084.023-.168.034-.252.012-.084.027-.168.04-.253.009-.05.019-.105.03-.157 0 0 0-.023.01-.064 0-.016.009-.033.012-.053.009-.04.017-.087.03-.143.001-.013.004-.025.007-.037 0-.025.01-.049.017-.076.005-.028.005-.022.008-.033.002-.01 0-.026.008-.04l.011-.046c.004-.013.006-.026.008-.04.007-.024.013-.048.016-.073.007-.016.012-.032.015-.049 0-.01.006-.026.009-.038l.009-.045.02-.08.014-.055.025-.089c.003-.018.008-.035.013-.053l.006-.03c.005-.009.007-.019.008-.029.007-.017.012-.036.015-.054.008-.028.016-.056.026-.084.009-.028.008-.029.01-.045.002-.016.006-.019.01-.028l.043-.144c.008-.025.014-.052.024-.079.022-.072.044-.145.07-.221v-.02l.033-.093c0-.013.008-.027.013-.037.017-.05.036-.103.052-.154.01-.021.016-.042.024-.064.005-.01.008-.02.01-.03.014-.032.025-.065.036-.097.012-.032.027-.065.04-.097v-.008c.013-.036.028-.073.042-.105l.048-.115c.002-.008.005-.015.009-.021.015-.033.026-.065.041-.097.032-.07.066-.14.096-.208l.047-.091.058-.115c.02-.042.043-.081.067-.116.138-.25.305-.482.498-.692.054-.055.116-.107.168-.156.028-.022.056-.045.085-.064.016-.014.034-.027.052-.037l.073-.049c.032-.017.063-.036.096-.05h.009c.031-.017.064-.033.099-.044.044-.015.087-.033.129-.052.056-.023.109-.053.157-.09l.02-.015c.006-.007.012-.012.02-.017l.021-.032c.01-.017.015-.038.01-.059l-.01-.02c.002-.002.002-.005 0-.007-.005-.005-.009-.01-.013-.017l-.011-.013c-.004-.006 0 0 0 0-.008-.004-.014-.01-.02-.017l-.016-.01h-.014c-.01-.007-.022-.013-.034-.017-.013-.007-.025-.012-.038-.016l-.022-.01c-.024-.011-.048-.02-.072-.027h-.014c-.03-.01-.064-.022-.098-.03l-.059-.015c-.056-.014-.115-.028-.174-.04-.038-.009-.076-.017-.115-.023l-.08-.016-.076-.011c-.043-.007-.087-.015-.132-.021h-.07l-.07-.01c-.007.002-.014.002-.021 0l-.116-.013h-.15l-.058-.008-.006.002c-.002 0-.004 0-.006-.002H40.778l-.067-.007h-.061c-.006.002-.013.002-.02 0h-.026l-.125-.01h-.202c-.042 0-.08-.007-.11-.009H40.1h-.035l-1.772.98 1.28-2.567c1.219-.145 2.436-.285 3.652-.43 2.59-.303 5.181-.608 7.773-.915 2.134-.252 4.598-.912 6.749-.793.662.037.668-.205 1.038.258l.067.087c.16.214.26.565.335.963.012.066.024.135.034.202.035.208.062.423.089.636.037.414.1.826.186 1.233.3 1.106.767 2.064 1.275 3 .115.216.239.433.36.646.355.634.719 1.27 1.049 1.948.612 1.24 1.126 2.525 1.537 3.846.008.024.013.05.021.074.067.218.127.436.184.653.25.91.418 1.842.503 2.783.01.123.017.246.02.37-.002-.128 0-.104 0-.077z" transform="translate(221.654 155.654)"/>
            <path fill="#FED1BC" d="M42.59 26.784c-.087.061-.183.109-.285.141-1.49.547-2.152 4.307-2.152 4.307-1.06 5.271 3.454 9.905 3.56 10.01l-1.84-.175c-.047-.049-.097-.093-.144-.135L36.114 31.7l2.27-4.549 1.771-.98s3.012.171 2.436.612z" transform="translate(221.654 155.654)"/>
            <path fill="#4E4E98" d="M70.933 135c-.079.486-.28.45-.6.718-.231.187-.668.275-.964.402l-.094.028c-.116.036-.231.072-.36.106-.777.214-1.564.428-2.353.606-1.247.28-2.502.545-3.76.73-7.338 1.082-14.606.53-22.03.438-3.354-.042-7.027.203-10.36-.718-1.077-.297-2.038-.818-2.965-1.465-.651-.456-1.242-1.103-1.762-1.72-.007-.011-.017-.017-.025-.027-.417-.66-.777-1.064-1.047-1.865-.469-1.385-.711-2.59-.643-4.195.284-6.637 1.145-13.385 1.798-20.047.07-.71.15-1.395.21-2.133.436-5.372 1.23-10.239 1.065-15.84-.09-3.055-1.6-7.133-3.528-9.791-.21-.292-.446-.565-.705-.816-1.712-1.654-3.59-3.122-5.298-4.772-.692-.673-1.385-1.372-2.064-2.052-.831-.825-1.664-1.659-2.476-2.5l-.291-.3c-2.448-2.55-4.846-5.004-7.248-7.603-2.908-3.138-4.8-3.908-5.244-8.646-.302-3.25.176-6.83.648-10.253.128-.943.258-1.875.371-2.783.089-.714.22-1.418.301-2.094.211-1.756.555-3.486.923-5.192 1.08-5.068 2.562-10.147 4.154-15.02.346-1.056.52-1.46 1.438-1.967.114-.057.236-.095.362-.116 1.12-.281 2.278-.37 3.427-.263 2.206.212 4.229.808 6.035 2.193.1.07.189.155.262.254 2.238 2.801.954 12.591.723 16.18-.211 3.248-.973 10.454-1.005 13.236 0 .237 0 .444.008.612.07 1.348.427 2.691 1.5 3.584 1.3 1.08 3.116 1.656 4.564 2.524 1.643.982 3.158 2.12 4.674 3.269.5.377 1.003.756 1.51 1.133.59.436 1.29.902 2.02 1.14.13.044.263.08.398.108.149.03.301.039.453.028.106 0 .208-.013.31-.027h.022c.246-.027.486-.086.717-.174.193-.074.38-.157.562-.245.332-.161.655-.346.975-.527h.006c.346-.204.7-.414 1.056-.61.094-.051.167-.09.267-.136 1.537-.718 3.108-1.333 4.755-1.715.163-.04.325-.074.488-.107.39-.07.783-.114 1.178-.133-.68 2.746-.493 4.508 1.63 6.577 1.594 1.553 3.858 2.612 5.769 3.772 3.305 2.009 6.115 4.31 8.62 7.229.193.222.338.423.511.648.096.135.194.265.298.396l.01.01c.206.282.41.567.606.856.196.29.387.577.577.878.19.302.365.597.538.9.173.304.346.61.506.924.116.218.23.44.336.662.015.03.032.059.047.091.41.872.784 1.705 1.122 2.623.504 1.373.924 2.777 1.257 4.202.163.687.302 1.415.424 2.136.25 1.457.483 2.949.718 4.414v.02c.129.808.253 1.615.376 2.423.07.462.142.923.21 1.385.173 1.177.343 2.353.51 3.53.06.43.115.857.18 1.284.14 1.011.274 2.02.408 3.033.04.298.076.597.116.894.06.439.115.871.166 1.311.047.367.09.708.136 1.085.065.53.125.988.19 1.545.115.977.208 1.674.323 2.769.244 2.338.563 5.358.769 7.666.115 1.28.174 2.192.23 3.28.182 3.212.305 6.622.774 9.625.174 1.075.429 1.513.285 2.395z" transform="translate(221.654 155.654)"/>
            <path fill="#47478E" d="M42.16 56.555c-.018.028-.035.058-.055.088l-1.42 2.342c-.607 1.001-1.268 2.055-2.318 2.576-1.17.577-2.286.692-3.393-.115-.398-.29-.724-.661-1.1-.979-.18-.155-.375-.29-.584-.4.245-.028.486-.086.716-.174.193-.074.38-.157.562-.245.114-.04.225-.088.331-.145.22-.116.433-.248.644-.382h.006c.356-.225.712-.462 1.086-.656.086-.043.175-.087.264-.129 1.365-.632 3.1-1.33 4.73-1.676.18-.04.356-.075.531-.105z" transform="translate(221.654 155.654)"/>
            <path fill="#5A5AAD" d="M42.063 58.307c.13-.51.506-1.18.808-1.86l.072.056c-.241.692-.417 1.403-.355 2.217.007.107.019.21.033.314-.397-.295-.603-.544-.558-.727z" transform="translate(221.654 155.654)"/>
            <path fill="#3A3A7B" d="M60.324 82.118c.013.23.025.462.036.692-4.124-4.41-12.892-8.622-14.538-9.371-.559-.254-1.296-1.212-2.065-2.502-.022-.29-.048-.567-.086-.842-.103-.799-.337-1.575-.693-2.297-.576-1.186-1.314-2.308-1.106-3.693.084-.577.324-1.112.446-1.678.186-.859.332-1.767.455-2.694.346 1.27 1.154 2.37 2.124 3.282 1.684 1.589 3.808 2.61 5.808 3.775 3.473 2.021 6.348 4.435 8.625 7.243.602 2.623.848 5.352.994 8.085z" transform="translate(221.654 155.654)"/>
            <path fill="#FED1BC" d="M60.301 56.285c-.311 1.001-.862 1.961-1.803 2.383-.808.358-1.748.231-2.618.06-2.539-.515-5.013-1.426-7.594-1.682-.328-.032-.658-.054-.992-.061l-2.897-2.115c2.43-4.477.17-11.819.17-11.819.319-.779 8.671 1.566 12.085 2.56.88.257 1.431.424 1.431.424l.02.13.282 1.905.505 3.394c.16 1.075.415 2.135.763 3.165.189.562.404 1.113.648 1.656z" transform="translate(221.654 155.654)"/>
            <path fill="#FFAE9B" d="M60.301 56.285c-.311 1.001-.862 1.961-1.803 2.383-.814.358-1.748.231-2.618.062-2.539-.517-5.012-1.428-7.594-1.684-.329-.032-.658-.053-.992-.061l-2.897-2.115c1.521-2.804 1.203-6.732.753-9.277.143-.078.224-.13.224-.13 2.323 1.902 5.936 3.01 9.188 2.918.073.009.145.014.216.016.343 0 .686-.038 1.02-.115.593-.074 1.176-.2 1.745-.379.214-.07.468-.23.693-.158-.384.657-1.641 1.006-2.347 1.154-1.82.388-3.712.338-5.544.05-1.067-.167-2.077.534-2.292 1.592l-.346 1.73c-.202 1.009.31 2.024 1.241 2.46 2.955 1.38 9.045 4.154 9.567 3.808.685-.447 1.138-3.916 1.14-3.923.187.575.402 1.126.646 1.669zM43.606 44.339c0 .194-.089.378-.24.5-.718.603-1.738.75-2.639.594-1.13-.198-3.01-1.354-2.26-2.716.08-.158.182-.305.301-.435.223-.231.728-.434 1.05-.374.346.065.713.059 1.07.092.848.078 1.571.526 2.132 1.137.257.279.595.771.586 1.202z" opacity=".4" transform="translate(221.654 155.654)"/>
            <path fill="#FFF" d="M58.253 66.86s-13.05-4.536-15.415-7.637c-.396-.518-.833-.662-.78-.874.194-.772.692-1.856 1.16-2.902.487-1.096.945-2.152.986-2.77 0 0 9.516 6.24 14.308 5.871l-.259 8.313z" transform="translate(221.654 155.654)"/>
            <path fill="#30306E" d="M62.753 79.39c-.269 1.97-.52 3.938-.629 5.92-.336-.714-.77-1.378-1.29-1.971-.149-.179-.308-.356-.474-.532-.012-.23-.023-.462-.036-.692-.146-2.74-.392-5.463-.997-8.091.176.214.346.43.511.65.096.134.195.266.298.394l.01.013c.83 1.127 1.575 2.315 2.226 3.554.132.252.258.503.381.755z" transform="translate(221.654 155.654)"/>
            <path fill="#47478E" d="M59.838 74.678c-.164-.22-.335-.438-.51-.65-.023-.099-.047-.196-.073-.294.171.329.366.644.583.944zM69.665 135.828l.692-.122c-.31.17-.639.305-.979.404l-.093.03c-.388-.274-.727-.612-1.002-1-1.038-1.673-1.173-4.005-1.438-5.915-.327-2.343-.915-4.64-1.407-6.954-1.5-7.07-2.735-14.366-3.65-21.547-.364-2.885-.279-5.754-.826-8.582-.724-3.752.109-7.817-3.097-10.642-1.005-.889-2.229-1.484-3.38-2.175-2.613-1.563-4.916-3.636-7.654-4.969-.851-.415-1.754-.766-2.455-1.4-.5-.452-.872-1.027-1.08-1.668-.116-.353-.158-.79.106-1.045.076-.074.17-.126.273-.15.038.272.067.551.087.84.767 1.29 1.506 2.249 2.063 2.502 1.645.75 10.412 4.962 14.538 9.372 0-.057-.006-.115-.01-.172-.003-.057 0-.115-.008-.173 0-.115-.012-.23-.018-.346.033.098.062.198.088.297.091.328.232.64.418.924v.005c.373.598.875 1.143 1.207 1.797.01.017.018.034.025.052l.06.115c-.041.664-.06 1.322-.063 1.986-.003.69.032 1.38.105 2.066.126 1.135.346 2.257.658 3.356.338 1.23.403 2.527.488 3.82.022.357.047.712.08 1.065.028.333.063.663.116.993.528 3.615 1.071 7.23 1.63 10.846l2.149 14.375c.127.712.255 1.427.386 2.137l.056.296v.037c.004.025.01.05.017.075.038.22.08.44.122.657.043.218.079.413.116.62.02.868.106 1.733.256 2.588.334 1.815 1.059 3.885 2.553 5.071-.443.183-.803.414-1.13.534z" transform="translate(221.654 155.654)"/>
            <path fill="#30306E" d="M42.976 67.794c.539 1.106.703 2.044.782 3.14-1.926-3.23-4.066-8.539-4.181-10.124-.16-2.226 3.144-4.482 3.144-4.482l.155.116c-.447.989-.88 1.897-.474 2.966.39 1.028.148 1.922-.086 3.007-.122.567-.362 1.106-.446 1.68-.208 1.388.528 2.511 1.106 3.697z" transform="translate(221.654 155.654)"/>
            <path fill="#824A46" d="M42.59 26.784c-.087.061-.183.109-.285.141-.566.208-1.011.878-1.347 1.63-.017.037-.035.077-.05.115-.336.826-.59 1.684-.755 2.561-.012.052-.021.106-.03.158-.94 5.205 3.484 9.748 3.59 9.852-.424-.042-.876.008-1.288-.044-.453-.055-.846-.4-1.232-.625-.874-.51-1.76-.787-2.678-.192-.34.21-.633.49-.86.82-.26-.3-.505-.613-.732-.939-.488-.64-.952-1.3-1.408-1.961-.455-.663-.862-1.298-1.34-1.925l-.03-.038c-.484-.629-.966-1.28-1.219-2.041-.125-.405-.204-.823-.238-1.245-.03-.304-.1-.603-.21-.889-.2-.461-.402-.93-.603-1.4l6.51-3.602 1.771-.98s1.682.095 2.293.328c.204.07.287.164.142.276z" transform="translate(221.654 155.654)"/>
            <path fill="#6D3E3C" d="M42.59 26.784c-.087.061-.183.109-.285.141-.566.208-1.011.878-1.347 1.63-.017.037-.035.077-.05.115-.403.148-.766.279-1.007.397-.82.399-1.642.8-2.399 1.308-.71.474-1.357 1.037-1.925 1.674-.606.683-1.129 1.464-1.35 2.35-.148.649-.166 1.32-.052 1.975l-.03-.038c-.484-.63-.966-1.281-1.219-2.041-.125-.405-.204-.823-.238-1.245-.03-.305-.1-.603-.21-.889-.2-.461-.402-.931-.603-1.4l6.51-3.602 1.771-.98s1.682.095 2.293.328c.204.072.287.165.142.277z" opacity=".5" transform="translate(221.654 155.654)"/>
            <path fill="#AD695E" d="M33.534 23.977c-.577.503-.97 1.21-1.246 1.951-.276.74-.456 1.531-.7 2.308-.12.388-.266.768-.439 1.136-.177.366-.384.715-.62 1.046-.475.657-1.06 1.226-1.731 1.682.649-.476 1.21-1.062 1.657-1.73.22-.334.414-.685.577-1.05.156-.368.286-.746.39-1.132.214-.77.362-1.565.623-2.34.26-.776.635-1.539 1.258-2.121l.231.25zM51.02 12.55c-1.673-.604-3.49-.69-5.211-.243-.86.217-1.684.562-2.444 1.021-.754.474-1.437 1.051-2.03 1.716-1.204 1.321-2.146 2.868-3.328 4.229-.588.683-1.26 1.291-1.998 1.809-.74.517-1.588.86-2.48 1.006.886-.158 1.726-.513 2.456-1.038.728-.527 1.387-1.142 1.962-1.832 1.153-1.37 2.068-2.93 3.266-4.287.595-.688 1.283-1.288 2.045-1.783 2.356-1.477 5.251-1.816 7.885-.923l-.123.325zM46.237 25.634c-.78.355-1.586.653-2.41.893-.822.245-1.664.401-2.494.577-.83.175-1.656.375-2.423.737-.767.362-1.47.877-1.933 1.597.438-.735 1.137-1.285 1.895-1.674s1.595-.624 2.423-.827c.828-.204 1.656-.384 2.457-.651.801-.262 1.582-.582 2.337-.958l.148.306zM31.615 31.488c.007.652.014 1.302.07 1.946.05.643.174 1.278.371 1.892.204.613.526 1.181.946 1.672.422.499.974.87 1.595 1.07-.637-.175-1.211-.526-1.658-1.012-.452-.484-.805-1.052-1.039-1.672-.23-.62-.384-1.266-.461-1.922-.088-.655-.124-1.311-.158-1.962l.334-.012zM58.583 17.429c.053-.372.014-.752-.115-1.106-.128-.365-.311-.709-.544-1.018-.469-.633-1.057-1.168-1.732-1.574-.682-.41-1.42-.715-2.192-.908-.776-.194-1.57-.312-2.369-.353.804.013 1.604.103 2.39.27.791.167 1.553.452 2.261.843.716.396 1.347.93 1.857 1.57.26.323.469.684.62 1.071.158.4.216.831.168 1.258l-.344-.053z" transform="translate(221.654 155.654)"/>
            <path fill="#AD695E" d="M59.273 23.757c-2.505 2.928-9.425 2.69-9.425 2.69-2.865-.039-5.262.087-7.257.337-.86.109-1.646.24-2.361.391-.725.15-1.44.343-2.142.577-4.703 1.57-5.24 4.27-4.751 6.4.174.728.45 1.427.817 2.078.1.178.195.338.284.476l.024.04c.06.094.115.177.168.25.012.02.023.038.037.057.037.052.075.116.116.176l.008.011.046.07c-.145-.215-.659-.411-.88-.568-.3-.21-.587-.437-.861-.679-.448-.39-.84-.84-1.167-1.337-.533-.852-.82-1.836-.825-2.842-.024-1.066.18-2.127.39-3.168.469-2.34.774-4.544 2.423-6.414 1.143-1.293 2.573-2.287 4.06-3.159.436-.253.874-.497 1.313-.735.438-.237.768-.84 1.068-1.202l.218-.262c.577-.692 1.163-1.361 1.796-1.994 1.953-1.933 4.611-2.986 7.359-2.915 2.453.056 4.912.766 6.8 2.381.293.252.569.522.828.808 1.038 1.144 1.804 2.515 2.358 3.954.792 2.045.463 3.52-.444 4.579z" transform="translate(221.654 155.654)"/>
            <path fill="#FFF" d="M63.504 64.547c-.09.3-.17.451-.23.403l-4.278-6.313c-.076-.203.009-.432.199-.537 1.421-.854.822-6.078.822-6.078.943 1.136 3.976 2.638 4.417 3.982 0 .012.007.024.012.037.347 1.217-.46 6.922-.942 8.506z" transform="translate(221.654 155.654)"/>
            <path fill="#3A3A7B" d="M62.826 92.717c.08.29.143.577.196.877v.034l4.102-8.954c.668-1.457 1.252-2.926 1.846-4.397.181-.454.363-.91.55-1.364 1.002-2.442.923-4.836 1.475-7.385.208-.976.178-2.054.01-3.149-.288-1.867-.972-3.784-1.547-5.334-.894-2.406-1.81-4.81-2.613-7.248-.06-.183-.203-.326-.386-.385-.402-.127-.808-.243-1.217-.346-.83-.208-1.672-.36-2.522-.452-.188.437-.307.774-.296.923.006.09-.022.563-.077 1.312.322.871.59 1.705.64 1.946.1.503.178 1.011.237 1.528.182 1.549.217 3.139.302 4.674.019.374.04.748.057 1.122.122 2.784.115 5.578-.19 8.348-.18 1.643-.418 3.277-.64 4.914-.361 2.625-.684 5.252-.692 7.905-.005 1.838.253 3.667.765 5.431z" transform="translate(221.654 155.654)"/>
            <path fill="#FFF" d="M58.253 66.86s-13.05-4.536-15.415-7.637c-.396-.518-.833-.662-.78-.874.194-.772.692-1.856 1.16-2.902.487-1.096.945-2.152.986-2.77 0 0 9.516 6.24 14.308 5.871l-.259 8.313zM63.504 64.547c-.09.3-.17.451-.23.403l-4.278-6.313c-.076-.203.009-.432.199-.537 1.421-.854.822-6.078.822-6.078.943 1.136 3.976 2.638 4.417 3.982 0 .012.007.024.012.037.347 1.217-.46 6.922-.942 8.506z" transform="translate(221.654 155.654)"/>
            <path fill="#373777" d="M64.663 56.026c-.031-.002-.063-.002-.094 0-.23-.416-.5-.82-.761-1.217l.855 1.217z" opacity=".8" transform="translate(221.654 155.654)"/>
            <path fill="#47478E" d="M65.293 59.864c-.277 2.18-.958 4.283-1.636 6.373-.025-.036-.05-.072-.073-.109-.017-.374-.037-.748-.057-1.12-.008-.154-.017-.306-.023-.462.481-1.584 1.29-7.289.945-8.506.038-.008.077-.014.116-.017.372.617.627 1.298.753 2.009.075.609.067 1.225-.025 1.832zM71.654 69.513c-.031 1.551.088 3.13-.142 4.672-.374 2.52-1.6 4.814-2.488 7.17-1.727 4.558-3.714 9.014-5.95 13.345l-.053-1.106.006.034 4.103-8.954c.874-1.909 1.603-3.837 2.392-5.761 1.001-2.442.923-4.835 1.473-7.385.209-.975.179-2.054.01-3.15-.287-1.867-.971-3.783-1.546-5.334-.929-2.5-1.883-4.999-2.708-7.537.802 1.77 1.563 3.559 2.285 5.369 1.067 2.655 2.674 5.7 2.618 8.637z" transform="translate(221.654 155.654)"/>
            <path fill="#FFAE9B" d="M59.273 23.757c.05.267.087.557.122.838-1.488 1.281-3.95 2.2-4.95 2.486-2.148.61-4.358.974-6.588 1.087-.63.04-1.26.033-1.889-.02-.756-.073-1.589-.346-2.339-.182-.653.147-1.301.56-1.811.983-.777.644-1.363 1.488-1.694 2.441.008-.052.017-.106.029-.158.173-.918.444-1.816.807-2.678.336-.75.782-1.421 1.347-1.629.102-.032.198-.08.286-.14 1.995-.251 4.393-.377 7.258-.338-.005 0 6.918.238 9.422-2.69z" opacity=".4" transform="translate(221.654 155.654)"/>
            <path fill="#824A46" d="M49.982 20.838c-.646-.051-1.29-.14-1.925-.266-.066-.017-.13-.037-.19-.052-.743-.195-1.474-.43-2.192-.704-2.18-.848-4.527-1.185-6.858-.986.371-.2.737-.561 1.038-.78l.276-.199c1.106.077 2.199.284 3.256.619 2.392.729 4.128 1.925 6.595 2.368z" opacity=".8" transform="translate(221.654 155.654)"/>
            <path fill="#4E4E98" d="M65.281 55.083c.147.04.698.2 1.49.489-.007-.02-.014-.04-.02-.062-.485-.16-.975-.303-1.47-.427z" transform="translate(221.654 155.654)"/>
            <g fill="#AD695E" opacity=".76">
                <path d="M5.05 2.02c-.032.01-.067-.002-.088-.028C4.25 1.11 3.495.547 2.717.32 1.852.073.921.25.207.8.186.82.153.828.124.818.093.808.072.784.065.754.06.724.07.692.092.672.846.076 1.842-.117 2.763.156c.808.236 1.595.818 2.33 1.73.027.036.022.087-.013.116-.008.008-.018.015-.03.018z" transform="translate(221.654 155.654) translate(38.423 41.77)"/>
                <path d="M1.615 2.645c-.045.011-.092-.016-.105-.062 0-.02-.468-1.893 1.026-2.46.029-.012.061-.006.085.013.024.02.035.05.03.08-.004.03-.025.056-.054.067-1.353.513-.923 2.24-.923 2.257.012.045-.014.091-.059.105z" transform="translate(221.654 155.654) translate(38.423 41.77)"/>
            </g>
            <path fill="#47478E" d="M24.67 132.314l-.009-.012c-.024-.028-.043-.06-.056-.094-.462-1.166-.693-2.539-.63-4.138.255-6.723 1.134-13.396 1.786-20.086.072-.713.138-1.427.202-2.143.461-5.221 1.182-10.488 1.114-15.742-.037-2.866-1.542-7.4-3.454-9.952-.209-.284-.436-.554-.68-.807-1.58-1.627-3.472-3.092-5.098-4.731-.661-.665-1.324-1.328-1.988-1.99-.153-.128-.174-.356-.047-.51.127-.153.355-.174.509-.047 3.131 2.127 7.045 4.78 9.99 6.322 2.408 1.25 4.038 3.614 4.352 6.31.735 6.486 1.012 18.789-3.947 34.198 0 0-2.329 6.175-1.4 13.138.032.165-.055.33-.209.398s-.334.02-.435-.114zM85.038 92.852c1.467 8.894 1.886 18.018 2.342 27.061-.673-5.1-1.371-10.208-2.647-15.189-.78-3.046-1.775-6.034-2.5-9.096-1.024-4.33-1.502-8.774-1.422-13.224.07-3.909 1.856-7.031 4.154-10.202.873-1.205 1.827-2.355 2.603-3.625.963-1.578 1.487-2.872 2.73-4.317l4.316-5.018.424-.493c-2.967 5.296-6.577 10.459-8.48 16.051-.433 1.27-1.01 2.344-1.56 3.362-1.038 1.925-1.987 3.658-1.66 6.2.146.861.316 1.717.496 2.573.41 1.97.871 3.933 1.204 5.917z" transform="translate(221.654 155.654)"/>
            <path fill="#3A3A7B" d="M27.837 100.33c-.616 2.572-1.308 5.123-2.077 7.654.072-.713.138-1.427.202-2.143.461-5.221 1.182-10.488 1.114-15.742-.037-2.866-1.543-7.4-3.454-9.952 1.93.598 4.212 2.438 5.412 4.276.434.662.725 1.325.808 1.93.676 4.696-.935 9.464-2.005 13.977zM83.337 84.362c.146.861.316 1.717.496 2.573l-.41-.858c-.555-1.154-1.12-2.356-1.168-3.64-.025-.378.03-.757.16-1.112.202-.503.607-.89.985-1.278.574-.593 1.107-1.224 1.597-1.889-1.043 1.93-1.987 3.662-1.66 6.204z" transform="translate(221.654 155.654)"/>
            <path fill="#47478E" d="M27.472 135.853c-.666-.494-1.262-1.076-1.77-1.731l-.022-.029c-.053-.23-.104-.467-.149-.701.661.836 1.314 1.66 1.94 2.46zM72.967 55.422c-.462.4-.887.788-1.162 1.324-.279.548-.65 1.044-1.098 1.466-.217.232-.487.406-.787.508-.427.116-.891-.038-1.25-.296-.878-.631-1.215-1.9-1.955-2.694-.068-.066-.124-.145-.163-.231l.195.067c2.715.955 4.33 1.106 6.22-.144zM73.385 55.366l.15-.196c-.024.082-.078.152-.15.196zM88.385 42.414c-.068.598-.154 1.205-.41 1.748-.705 1.493-2.445 2.11-3.96 2.77-1.408.606-2.75 1.358-4.003 2.243.2-.185.397-.372.593-.563 1.402-1.364 3.216-2.578 3.828-4.392.849-2.514.782-5.574.929-8.182.183-3.29.248-6.596.107-9.888-.032-.703-.094-1.377-.149-2.014.397-.07.826.1 1.284.62 1.564 1.779 1.65 6.128 1.867 8.376.3 3.088.27 6.2-.086 9.282zM12.972 70.083l-.291-.3c-2.448-2.55-4.846-5.004-7.248-7.602-2.908-3.139-4.8-3.908-5.244-8.646-.302-3.25.176-6.83.648-10.253l1.302 7.985c.486 2.968 1.64 5.787 3.373 8.245l7.46 10.571z" transform="translate(221.654 155.654)"/>
            <path fill="#DEE6F3" d="M96.728 17.492c-2.298.871-5.453.958-7.742 1.145-.991.08-1.731.272-2.283.56-.06-.448-.02-.904.116-1.335.032-.1.07-.196.115-.29.546-1.078 1.81-1.333 2.885-1.605.161-.042.765-.188 1.547-.359 1.962-.426 5.062-.993 5.104-.384.05.748.132 1.5.251 2.235l.007.033z" transform="translate(221.654 155.654)"/>
            <path fill="#3A3A7B" d="M66.683 97.915c-.196-.075-.404-.116-.614-.122-.25.01-.488.118-.659.301-.47.44-.676 1.095-.544 1.725.151.63.667 1.106 1.307 1.206.627.078 1.292-.317 1.486-.923.1-.375.084-.772-.046-1.138-.127-.477-.472-.865-.93-1.049zM67.679 104.718c-.197-.074-.405-.116-.615-.122-.25.01-.488.118-.659.301-.47.44-.677 1.095-.545 1.725.152.63.669 1.106 1.309 1.206.626.079 1.292-.317 1.485-.923.1-.375.084-.772-.045-1.138-.128-.476-.472-.865-.93-1.049z" transform="translate(221.654 155.654)"/>
            <path fill="#AEB9D7" d="M96.728 17.492c-2.298.871-5.453.958-7.742 1.145-.991.08-1.731.272-2.283.56-.06-.448-.02-.904.116-1.335 2.328.017 7.968.011 9.904-.403l.005.033z" transform="translate(221.654 155.654)"/>
            <path fill="#8E554F" d="M60.577 40.677c.19.864-.179 1.71-.827 2.265-.099.084-.203.161-.313.23-.973.62-2.345.552-3.368.085-.427-.21-.812-.497-1.134-.846-.516-.554-.85-1.26-.409-1.87.093-.125.225-.216.376-.257.746-.224 1.5.127 2.228.238.487.08.982.086 1.47.02.493-.073.923-.282 1.392-.415.374-.105.503.208.585.55z" transform="translate(221.654 155.654)"/>
            <path fill="#F98282" d="M59.712 42.823c.011.039.021.08.032.115-.098.085-.203.162-.313.23-.973.62-2.344.552-3.368.085-.427-.21-.811-.496-1.134-.846.394-.476.923-.822 1.517-.992 1.446-.425 2.908.204 3.266 1.408z" transform="translate(221.654 155.654)"/>
            <path fill="#FFAE9B" d="M52.801 40.603c.298 1.003-.275 2.058-1.278 2.356-1.004.298-2.059-.274-2.357-1.278-.298-1.004.274-2.059 1.278-2.357 1.004-.297 2.059.275 2.357 1.279zM64.378 38.077c.017.142.03.284.038.425-1.006.291-2.058-.287-2.35-1.293-.291-1.005.287-2.057 1.293-2.349.078-.023.158-.042.239-.055.372 1.06.633 2.157.78 3.272z" opacity=".4" transform="translate(221.654 155.654)"/>
            <path fill="#FFAE9B" d="M57.847 34.615l.577 1.312c.288.658.147 1.424-.354 1.936l-.478.486.817-.542c.324-.216.546-.554.614-.937.07-.382-.021-.777-.25-1.092l-.867-1.195c-.01-.016-.03-.022-.046-.013s-.022.03-.013.045z" transform="translate(221.654 155.654)"/>
            <path fill="#AD695E" d="M46.81 34.813c.569-.986 1.354-1.83 2.297-2.468.725-.484 1.544-.81 2.403-.956.329-.055 1.025-.266 1.1.247.068.455-.535.626-.867.71-.55.144-1.118.29-1.661.47-1.237.39-2.36 1.075-3.273 1.997zM61.772 28.825c.066.06.112.137.134.223-.662.13-1.296.24-1.927.507-.437.187-.869.408-1.289.625-.252.13-.72.357-.945 0-.252-.396.297-.647.53-.797.611-.39 1.304-.634 2.025-.713.342-.03 1.139-.15 1.472.155z" transform="translate(221.654 155.654)"/>
            <path fill="#FFF" d="M50.748 35.654c.22.744.854 1.21 1.417 1.038.246-.078.448-.257.554-.492.043-.09.076-.182.098-.278.04-.167.053-.339.037-.51-.011-.124-.035-.247-.07-.366-.1-.361-.323-.677-.63-.892-.017-.012-.035-.022-.053-.031-.185-.118-.405-.166-.622-.138-.04.006-.078.015-.116.026-.56.166-.835.902-.615 1.643zM59.315 32.796c.221.743.84 1.215 1.384 1.053.277-.092.492-.312.577-.59.022-.06.039-.12.05-.18.06-.288.046-.586-.04-.866-.096-.344-.298-.648-.578-.87l-.013-.01c-.221-.182-.515-.246-.792-.175-.548.16-.809.896-.588 1.638z" opacity=".48" transform="translate(221.654 155.654)"/>
            <path fill="#AD695E" d="M59.663 32.693c.19.64.724 1.047 1.19.907.178-.057.328-.18.416-.346.022-.059.039-.119.051-.18.06-.287.045-.585-.042-.866-.095-.343-.297-.648-.576-.87-.165-.09-.358-.112-.538-.062-.466.143-.691.776-.5 1.417zM51.192 35.526c.19.64.723 1.046 1.19.908.133-.042.25-.122.337-.23.043-.09.076-.183.098-.279.04-.166.053-.338.037-.509-.011-.124-.035-.247-.07-.367-.1-.362-.323-.679-.63-.895-.017-.012-.035-.022-.053-.031-.132-.044-.273-.046-.406-.008-.464.137-.695.77-.503 1.41z" transform="translate(221.654 155.654)"/>
            <path fill="#47478E" d="M23.902 54.421c1.643.982 3.158 2.12 4.674 3.269-2.262-1.29-4.65-2.343-7.128-3.143-1.283-.413-2.603-.766-3.763-1.45-.472-.276-.942-.651-1.06-1.187-.1-.448.072-.908.23-1.338.359-.944.681-1.9.967-2.87 0 .237 0 .443.008.612.07 1.348.427 2.69 1.5 3.584 1.308 1.079 3.12 1.655 4.572 2.523z" transform="translate(221.654 155.654)"/>
        </g>
    </g>
</svg>
