<svg width="12" height="12" viewBox="0 0 12 12" fill="none" xmlns="http://www.w3.org/2000/svg">
    <path d="M6 1.5v8.846m0 0a6.14 6.14 0 0 0-2.146.385M6 10.346a6.14 6.14 0 0 1 2.146.385m1.316-8.22a24.856 24.856 0 0 0-6.923 0m6.923 0c.517.073 1.03.162 1.538.266M9.462 2.51l1.343 5.5c.063.257-.054.528-.302.617-.334.12-.686.181-1.041.18a3.07 3.07 0 0 1-1.042-.18c-.248-.09-.365-.36-.303-.616l1.345-5.5zm-6.924 0c-.517.074-1.03.163-1.538.267m1.538-.267 1.344 5.5c.063.257-.054.528-.302.617-.334.12-.687.181-1.042.18-.355.001-.707-.06-1.041-.18-.248-.09-.365-.36-.303-.616l1.344-5.5z" stroke="#DFDFDF" stroke-miterlimit="10" stroke-linecap="round"/>
</svg>
