<svg width="16" height="16" viewBox="0 0 16 16" fill="none" xmlns="http://www.w3.org/2000/svg">
<path d="M2.42676 7.5166V10.2997C2.42676 13.0828 3.54248 14.1985 6.32557 14.1985H9.66652C12.4496 14.1985 13.5653 13.0828 13.5653 10.2997V7.5166" stroke="#DFDFDF" stroke-linecap="round" stroke-linejoin="round"/>
<path d="M7.9989 8.00019C9.13322 8.00019 9.97001 7.07662 9.85843 5.94231L9.44934 1.80176H6.55467L6.13938 5.94231C6.0278 7.07662 6.86459 8.00019 7.9989 8.00019Z" stroke="#DFDFDF" stroke-linecap="round" stroke-linejoin="round"/>
<path d="M11.9099 8.00019C13.162 8.00019 14.0793 6.98365 13.9554 5.73776L13.7818 4.03319C13.5587 2.4216 12.9388 1.80176 11.3148 1.80176H9.42432L9.85821 6.14686C9.96358 7.1696 10.8871 8.00019 11.9099 8.00019Z" stroke="#DFDFDF" stroke-linecap="round" stroke-linejoin="round"/>
<path d="M4.0567 8.00019C5.07945 8.00019 6.00301 7.1696 6.10219 6.14686L6.23855 4.777L6.53608 1.80176H4.64556C3.02157 1.80176 2.40172 2.4216 2.17858 4.03319L2.01122 5.73776C1.88725 6.98365 2.80462 8.00019 4.0567 8.00019Z" stroke="#DFDFDF" stroke-linecap="round" stroke-linejoin="round"/>
<path d="M7.99883 11.0991C6.96369 11.0991 6.44922 11.6136 6.44922 12.6487V14.1983H9.54843V12.6487C9.54843 11.6136 9.03396 11.0991 7.99883 11.0991Z" stroke="#DFDFDF" stroke-linecap="round" stroke-linejoin="round"/>
</svg>
