<svg width="12" height="12" viewBox="0 0 12 12" fill="none" xmlns="http://www.w3.org/2000/svg">
<path d="M5.5 1H4.5C2 1 1 2 1 4.5V7.5C1 10 2 11 4.5 11H7.5C10 11 11 10 11 7.5V6.5" stroke="#DFDFDF" stroke-linecap="round" stroke-linejoin="round"/>
<path d="M8.01994 1.50964L4.07994 5.44964C3.92994 5.59964 3.77994 5.89464 3.74994 6.10964L3.53494 7.61464C3.45494 8.15964 3.83994 8.53964 4.38494 8.46464L5.88994 8.24964C6.09994 8.21964 6.39494 8.06964 6.54994 7.91964L10.4899 3.97964C11.1699 3.29964 11.4899 2.50964 10.4899 1.50964C9.48994 0.509638 8.69994 0.829638 8.01994 1.50964Z" stroke="#DFDFDF" stroke-miterlimit="10" stroke-linecap="round" stroke-linejoin="round"/>
<path d="M7.45508 2.0752C7.79008 3.2702 8.72508 4.2052 9.92508 4.5452" stroke="#DFDFDF" stroke-miterlimit="10" stroke-linecap="round" stroke-linejoin="round"/>
</svg>
