<?xml version="1.0" encoding="utf-8"?>
<!-- Generator: Adobe Illustrator 26.3.1, SVG Export Plug-In . SVG Version: 6.00 Build 0)  -->
<svg version="1.1" id="Layer_1" xmlns="http://www.w3.org/2000/svg" xmlns:xlink="http://www.w3.org/1999/xlink" x="0px" y="0px"
	 viewBox="0 0 20 20" style="enable-background:new 0 0 20 20;" xml:space="preserve">
<style type="text/css">
	.st0{fill:url(#SVGID_1_);}
	.st1{fill:#FFFFFF;}
</style>
<linearGradient id="SVGID_1_" gradientUnits="userSpaceOnUse" x1="10" y1="22" x2="10" y2="2" gradientTransform="matrix(1 0 0 -1 0 22)">
	<stop  offset="0" style="stop-color:#AF71FF"/>
	<stop  offset="0.5" style="stop-color:#9B4FF8"/>
	<stop  offset="1" style="stop-color:#9B4FF8"/>
</linearGradient>
<path class="st0" d="M10,0L10,0c5.5,0,10,4.5,10,10l0,0c0,5.5-4.5,10-10,10l0,0C4.5,20,0,15.5,0,10l0,0C0,4.5,4.5,0,10,0z"/>
<path class="st1" d="M10.3,5C10,5,9.8,5.1,9.6,5.3C9.5,5.4,9.4,5.6,9.4,5.9c0,0.2,0,0.3,0.1,0.4c0.1,0.1,0.2,0.2,0.3,0.3L8.1,9.9
	L5.8,8.5C5.9,8.4,5.9,8.2,5.9,8c0-0.2-0.1-0.5-0.3-0.6C5.5,7.3,5.3,7.2,5,7.2c-0.2,0-0.5,0.1-0.6,0.3C4.3,7.6,4.2,7.8,4.2,8
	c0,0.2,0.1,0.5,0.3,0.6C4.6,8.8,4.8,8.9,5,8.9c0,0,0.1,0,0.1,0l0.3,3.5h1.3h5.7h1.3H15l0.3-3.5c0,0,0.1,0,0.1,0
	c0.2,0,0.5-0.1,0.6-0.3c0.2-0.2,0.3-0.4,0.3-0.6c0-0.2-0.1-0.5-0.3-0.6c-0.2-0.2-0.4-0.3-0.6-0.3c-0.2,0-0.5,0.1-0.6,0.3
	c-0.2,0.2-0.3,0.4-0.3,0.6c0,0.2,0,0.3,0.1,0.4l-2.3,1.4l-1.7-3.2c0.1-0.1,0.3-0.2,0.3-0.3c0.1-0.1,0.1-0.3,0.1-0.4
	c0-0.2-0.1-0.5-0.3-0.6C10.7,5.1,10.5,5,10.3,5z M5.5,13.3v0.9c0,0.5,0.4,0.9,0.9,0.9h7.8c0.5,0,0.9-0.4,0.9-0.9v-0.9H5.5z"/>
</svg>
