<svg width="154" height="143" viewBox="0 0 154 143" fill="none" xmlns="http://www.w3.org/2000/svg">
<path opacity="0.5" d="M74 143C114.869 143 148 140.761 148 138C148 135.239 114.869 133 74 133C33.1309 133 0 135.239 0 138C0 140.761 33.1309 143 74 143Z" fill="#CCDCF5"/>
<path opacity="0.2" d="M74 142C55.5049 142 37.8149 141.28 24.1913 139.974C15.7386 139.163 10.3838 138.275 7 137.5C10.3855 136.725 15.7403 135.837 24.1913 135.026C37.8081 133.729 55.51 133 74 133C92.49 133 110.187 133.72 123.809 135.026C132.263 135.837 137.618 136.725 141 137.5C137.616 138.275 132.261 139.163 123.809 139.974C110.187 141.28 92.4968 142 74 142Z" fill="#0052CC"/>
<path d="M121.901 53.5586H24.1598C19.3922 53.5586 15.5273 57.4235 15.5273 62.1911V118.191C15.5273 122.959 19.3922 126.824 24.1598 126.824H121.901C126.669 126.824 130.534 122.959 130.534 118.191V62.1911C130.534 57.4235 126.669 53.5586 121.901 53.5586Z" fill="url(#paint0_linear_7998_128664)"/>
<path d="M127.419 118.193V62.1904C127.419 59.1437 124.949 56.6738 121.902 56.6738L24.1586 56.6738C21.1119 56.6738 18.6421 59.1437 18.6421 62.1904V118.193C18.6421 121.24 21.1119 123.709 24.1586 123.709H121.902C124.949 123.709 127.419 121.24 127.419 118.193Z" fill="url(#paint1_linear_7998_128664)"/>
<path d="M127.419 65.1522V118.191C127.417 119.654 126.836 121.056 125.802 122.09C124.767 123.125 123.365 123.707 121.902 123.709H24.1598C22.697 123.707 21.2946 123.125 20.2603 122.091C19.2261 121.056 18.6445 119.654 18.6432 118.191V62.1897C18.6436 61.8456 18.676 61.5022 18.74 61.1641C17.5989 61.4415 16.5127 61.9095 15.5273 62.5485V118.191C15.5273 120.48 16.4368 122.676 18.0557 124.295C19.6746 125.914 21.8703 126.823 24.1598 126.823H121.902C123.446 126.823 124.961 126.408 126.289 125.623C127.618 124.838 128.712 123.71 129.456 122.358V71.371C129.461 69.1333 128.747 66.9533 127.419 65.1522Z" fill="url(#paint2_linear_7998_128664)"/>
<path d="M18.6426 118.189C18.6438 119.652 19.2254 121.054 20.2596 122.089C21.2939 123.123 22.6963 123.705 24.1591 123.707H121.902C123.364 123.705 124.767 123.123 125.801 122.088C126.835 121.054 127.417 119.652 127.418 118.189V65.15C126.444 63.8216 125.171 62.7412 123.701 61.9965C122.232 61.2517 120.608 60.8635 118.96 60.8633H21.2191C20.3839 60.863 19.5518 60.9633 18.7405 61.1619C18.6765 61.5 18.6441 61.8434 18.6438 62.1875L18.6426 118.189Z" fill="url(#paint3_linear_7998_128664)"/>
<path d="M108.819 18.1521L55.3262 105.959L99.79 133.047L153.282 45.2397L108.819 18.1521Z" fill="url(#paint4_linear_7998_128664)"/>
<path d="M104.307 90.7835C112.691 90.7835 119.489 83.9864 119.489 75.6017C119.489 67.217 112.691 60.4199 104.307 60.4199C95.9221 60.4199 89.125 67.217 89.125 75.6017C89.125 83.9864 95.9221 90.7835 104.307 90.7835Z" fill="url(#paint5_linear_7998_128664)"/>
<path d="M99.9789 73.8188L103.462 68.1004L100.129 66.0703L98.0385 69.5002L95.8432 68.1617L93.812 71.496L96.1312 72.9123C95.7386 74.1336 95.8077 75.4564 96.3252 76.6302C96.8427 77.8039 97.7728 78.7471 98.9392 79.281C100.106 79.8149 101.427 79.9024 102.654 79.5269C103.881 79.1515 104.927 78.3392 105.595 77.2439L106.352 76.0011C106.537 75.6984 106.834 75.4813 107.178 75.3976C107.523 75.314 107.886 75.3706 108.189 75.5549C108.492 75.7393 108.709 76.0364 108.792 76.3808C108.876 76.7252 108.819 77.0887 108.635 77.3914L105.151 83.1075L108.485 85.1387L110.574 81.7088L112.769 83.0473L114.801 79.713L112.481 78.2967C112.875 77.0753 112.806 75.7521 112.289 74.5778C111.772 73.4035 110.841 72.4599 109.675 71.9257C108.508 71.3916 107.186 71.304 105.959 71.6797C104.732 72.0554 103.686 72.8681 103.018 73.9639L102.262 75.2079C102.072 75.4996 101.776 75.7058 101.437 75.7829C101.097 75.86 100.742 75.8018 100.444 75.6207C100.147 75.4396 99.9326 75.1499 99.8457 74.813C99.7587 74.4761 99.8065 74.1186 99.9789 73.8164V73.8188Z" fill="url(#paint6_linear_7998_128664)"/>
<path d="M59.7656 104.883L98.7144 128.606L148.849 46.3171L109.9 22.5938L59.7656 104.883ZM139.316 56.6492L103.52 115.403C100.955 114.208 98.06 113.921 95.3101 114.589C92.5603 115.257 90.119 116.839 88.3871 119.077L72.974 109.688C74.1688 107.123 74.4558 104.227 73.788 101.477C73.1201 98.7273 71.537 96.2861 69.2986 94.5546L105.094 35.8009C107.659 36.9955 110.554 37.2824 113.304 36.6146C116.054 35.9467 118.495 34.3638 120.227 32.1256L135.638 41.5146C134.443 44.0801 134.156 46.9757 134.824 49.7258C135.492 52.476 137.075 54.9174 139.313 56.6492H139.316Z" fill="url(#paint7_linear_7998_128664)"/>
<g opacity="0.3">
<path opacity="0.3" d="M133.089 32.9403L108.822 18.1562L55.3267 105.962L64.9506 111.826L94.9813 124.345L133.089 32.9403Z" fill="#059312"/>
</g>
<path d="M85.4805 6.95966L45.9185 101.861L93.975 121.895L133.537 26.9932L85.4805 6.95966Z" fill="url(#paint8_linear_7998_128664)"/>
<path d="M100.466 75.1687C106.395 69.2399 106.395 59.6273 100.466 53.6985C94.5368 47.7696 84.9242 47.7696 78.9954 53.6985C73.0665 59.6273 73.0665 69.2399 78.9954 75.1687C84.9243 81.0976 94.5368 81.0976 100.466 75.1687Z" fill="url(#paint9_linear_7998_128664)"/>
<path d="M85.1822 63.3249C85.8136 61.8106 87.3373 58.1542 87.7587 57.1451L84.1553 55.6426L82.6104 59.3498L80.2333 58.3607L78.7344 61.9629L81.2413 63.0086C81.038 64.2754 81.3066 65.5728 81.9961 66.6548C82.6855 67.7369 83.748 68.5284 84.9821 68.8793C86.2162 69.2302 87.5362 69.1162 88.6918 68.5589C89.8475 68.0016 90.7585 67.0396 91.2523 65.8554L91.8117 64.5123C91.9544 64.1945 92.2154 63.9449 92.5393 63.8167C92.8632 63.6884 93.2243 63.6916 93.5458 63.8256C93.8674 63.9595 94.124 64.2136 94.261 64.5339C94.3981 64.8541 94.4048 65.2152 94.2796 65.5403C93.6482 67.0546 92.1233 70.7122 91.702 71.7213L95.3053 73.2238L96.8514 69.5166L99.2238 70.5056L100.726 66.9023L98.2194 65.8578C98.4219 64.5914 98.153 63.2948 97.4636 62.2134C96.7743 61.132 95.7123 60.3409 94.4788 59.99C93.2453 59.639 91.926 59.7526 90.7706 60.3091C89.6152 60.8656 88.704 61.8265 88.2095 63.0098L87.6489 64.3541C87.5124 64.6812 87.2516 64.9407 86.9238 65.0755C86.596 65.2103 86.2281 65.2094 85.9009 65.0729C85.5738 64.9364 85.3143 64.6756 85.1795 64.3478C85.0447 64.02 85.0457 63.652 85.1822 63.3249Z" fill="url(#paint10_linear_7998_128664)"/>
<path d="M50.1431 100.126L92.2372 117.676L129.316 28.7369L87.2223 11.1875L50.1431 100.126ZM121.459 40.3908L94.9849 103.889C92.2685 103.098 89.3638 103.253 86.7474 104.33C84.131 105.407 81.9582 107.341 80.5857 109.815L63.9298 102.872C64.721 100.155 64.5654 97.2506 63.4886 94.6342C62.4118 92.0178 60.4777 89.8451 58.0036 88.4725L84.477 24.9742C87.1936 25.7655 90.0984 25.6099 92.7149 24.5329C95.3314 23.4558 97.504 21.5214 98.8762 19.0469L115.532 25.9916C114.741 28.7081 114.896 31.613 115.973 34.2295C117.05 36.846 118.985 39.0186 121.459 40.3908Z" fill="url(#paint11_linear_7998_128664)"/>
<g opacity="0.3">
<path opacity="0.3" d="M111.948 17.998L85.4838 6.96484L45.9189 101.867L59.4826 107.521L88.6304 114.559L111.948 17.998Z" fill="#059312"/>
</g>
<path d="M60.7869 0.146596L36.645 100.09L87.2545 112.315L111.396 12.3716L60.7869 0.146596Z" fill="url(#paint12_linear_7998_128664)"/>
<path d="M84.7488 66.9558C90.6777 61.027 90.6777 51.4144 84.7488 45.4856C78.82 39.5567 69.2074 39.5567 63.2786 45.4856C57.3497 51.4144 57.3497 61.027 63.2786 66.9558C69.2074 72.8847 78.82 72.8847 84.7488 66.9558Z" fill="url(#paint13_linear_7998_128664)"/>
<path d="M69.3482 55.843C69.7329 54.2485 70.663 50.3973 70.9191 49.335L67.1246 48.418L66.1803 52.3223L63.6805 51.7192L62.7646 55.5125L65.4037 56.1499C65.4023 57.433 65.8716 58.6721 66.7228 59.6322C67.574 60.5923 68.7479 61.2068 70.0219 61.3591C71.296 61.5115 72.5816 61.1911 73.6352 60.4587C74.6888 59.7264 75.437 58.6329 75.7381 57.3856L76.0804 55.9693C76.1183 55.7954 76.1906 55.6307 76.293 55.4851C76.3954 55.3395 76.5258 55.2158 76.6767 55.1213C76.8276 55.0268 76.9958 54.9634 77.1715 54.9349C77.3472 54.9063 77.5269 54.9131 77.6999 54.955C77.873 54.9968 78.0359 55.0728 78.1791 55.1785C78.3224 55.2842 78.4431 55.4175 78.5341 55.5705C78.6251 55.7234 78.6846 55.8931 78.7092 56.0694C78.7337 56.2457 78.7228 56.4252 78.677 56.5972C78.2922 58.1918 77.3622 62.043 77.1049 63.1052L80.8995 64.0223L81.8437 60.1179L84.3435 60.7211L85.2594 56.9265L82.6191 56.2892C82.6218 55.0055 82.1531 53.7655 81.302 52.8045C80.4509 51.8435 79.2766 51.2285 78.002 51.076C76.7274 50.9236 75.4412 51.2444 74.3875 51.9776C73.3338 52.7108 72.5859 53.8053 72.2859 55.0534L71.9436 56.4697C71.9057 56.6437 71.8334 56.8083 71.731 56.9539C71.6287 57.0996 71.4982 57.2232 71.3473 57.3177C71.1964 57.4122 71.0282 57.4756 70.8525 57.5042C70.6768 57.5328 70.4971 57.5259 70.3241 57.4841C70.1511 57.4422 69.9881 57.3662 69.8449 57.2605C69.7016 57.1548 69.5809 57.0216 69.4899 56.8686C69.3989 56.7156 69.3394 56.546 69.3148 56.3696C69.2903 56.1933 69.3012 56.0139 69.347 55.8418L69.3482 55.843Z" fill="url(#paint14_linear_7998_128664)"/>
<path d="M40.5391 97.7011L84.8711 108.406L107.489 14.739L63.1577 4.0293L40.5391 97.7011ZM101.559 27.4847L85.4104 94.361C82.6029 94.007 79.7584 94.6177 77.3436 96.0929C74.9288 97.5682 73.0871 99.8204 72.1206 102.48L54.5795 98.2441C54.9337 95.4366 54.323 92.5922 52.8477 90.1776C51.3724 87.7629 49.1201 85.9215 46.4605 84.9555L62.6136 18.0745C65.421 18.4286 68.2654 17.818 70.6801 16.3427C73.0947 14.8674 74.9362 12.6151 75.9022 9.95541L93.4445 14.1902C93.0889 16.9986 93.6989 19.8444 95.1743 22.2603C96.6497 24.6761 98.9028 26.5185 101.564 27.4847H101.559Z" fill="url(#paint15_linear_7998_128664)"/>
<g opacity="0.3">
<path opacity="0.3" d="M87.351 6.55578L60.7762 0.138672L36.6421 100.085L55.7116 104.689H87.351V6.55578Z" fill="#059312"/>
</g>
<path d="M33.4175 0.000640869L33.4175 102.818H85.4826V0.000640869H33.4175Z" fill="url(#paint16_linear_7998_128664)"/>
<path d="M59.4493 66.5921C67.834 66.5921 74.6311 59.7949 74.6311 51.4103C74.6311 43.0256 67.834 36.2285 59.4493 36.2285C51.0647 36.2285 44.2676 43.0256 44.2676 51.4103C44.2676 59.7949 51.0647 66.5921 59.4493 66.5921Z" fill="url(#paint17_linear_7998_128664)"/>
<path d="M36.647 99.5878H82.2525V3.22852H36.647V99.5878ZM79.4836 17.0117V85.8106C76.6717 86.1252 74.0502 87.3864 72.0495 89.3872C70.0487 91.3879 68.7875 94.0094 68.4729 96.8213H50.4266C50.1119 94.0092 48.8505 91.3876 46.8495 89.3868C44.8486 87.3861 42.2268 86.125 39.4147 85.8106V17.0117C42.2269 16.697 44.8487 15.4357 46.8496 13.4347C48.8506 11.4338 50.1119 8.81203 50.4266 5.99978H68.4729C68.7875 8.81185 70.0486 11.4334 72.0494 13.4344C74.0501 15.4353 76.6716 16.6968 79.4836 17.0117Z" fill="url(#paint18_linear_7998_128664)"/>
<g opacity="0.3">
<path opacity="0.3" d="M47.9715 102.817L48.5227 102.951L55.4119 105.824L55.327 105.962L99.7911 133.051L129.462 84.3486V71.3657C129.46 68.5804 128.352 65.9099 126.383 63.9404C124.413 61.9709 121.743 60.8635 118.957 60.8613H33.4165V102.817H47.9715Z" fill="#059312"/>
</g>
<path d="M118.96 62.7324H21.2184C16.4508 62.7324 12.5859 66.5973 12.5859 71.3649V127.365C12.5859 132.133 16.4508 135.997 21.2184 135.997H118.96C123.727 135.997 127.592 132.133 127.592 127.365V71.3649C127.592 66.5973 123.727 62.7324 118.96 62.7324Z" fill="url(#paint19_linear_7998_128664)"/>
<path d="M106.216 87.7773C105.215 87.7792 104.256 88.1777 103.548 88.8856C102.84 89.5935 102.441 90.5531 102.439 91.5542V107.174C102.441 108.175 102.84 109.135 103.548 109.842C104.256 110.55 105.215 110.949 106.216 110.951H127.593V87.7773H106.216Z" fill="url(#paint20_linear_7998_128664)"/>
<path d="M118.961 133.195H118.551C118.509 133.197 118.466 133.191 118.426 133.177C118.386 133.162 118.35 133.14 118.319 133.111C118.288 133.082 118.263 133.046 118.246 133.007C118.229 132.968 118.221 132.926 118.221 132.884C118.221 132.841 118.229 132.799 118.246 132.76C118.263 132.721 118.288 132.686 118.319 132.657C118.35 132.628 118.386 132.605 118.426 132.591C118.466 132.576 118.509 132.57 118.551 132.573H118.961C119.417 132.573 119.872 132.513 120.312 132.394C120.352 132.384 120.393 132.381 120.434 132.386C120.474 132.392 120.513 132.405 120.549 132.425C120.584 132.446 120.615 132.473 120.64 132.506C120.665 132.538 120.683 132.575 120.694 132.615C120.705 132.654 120.707 132.695 120.702 132.736C120.697 132.776 120.684 132.816 120.663 132.851C120.643 132.886 120.615 132.918 120.583 132.943C120.551 132.967 120.514 132.986 120.474 132.996C119.981 133.129 119.472 133.195 118.961 133.195ZM115.452 133.195H113.593C113.551 133.197 113.508 133.191 113.468 133.177C113.428 133.162 113.391 133.14 113.36 133.111C113.329 133.082 113.305 133.046 113.288 133.007C113.271 132.968 113.262 132.926 113.262 132.884C113.262 132.841 113.271 132.799 113.288 132.76C113.305 132.721 113.329 132.686 113.36 132.657C113.391 132.628 113.428 132.605 113.468 132.591C113.508 132.576 113.551 132.57 113.593 132.573H115.452C115.494 132.57 115.537 132.576 115.577 132.591C115.617 132.605 115.654 132.628 115.685 132.657C115.716 132.686 115.74 132.721 115.757 132.76C115.774 132.799 115.783 132.841 115.783 132.884C115.783 132.926 115.774 132.968 115.757 133.007C115.74 133.046 115.716 133.082 115.685 133.111C115.654 133.14 115.617 133.162 115.577 133.177C115.537 133.191 115.494 133.197 115.452 133.195ZM110.495 133.195H108.635C108.556 133.19 108.481 133.155 108.427 133.097C108.373 133.039 108.342 132.963 108.342 132.884C108.342 132.804 108.373 132.728 108.427 132.67C108.481 132.612 108.556 132.578 108.635 132.573H110.495C110.537 132.57 110.58 132.576 110.62 132.591C110.66 132.605 110.696 132.628 110.727 132.657C110.758 132.686 110.783 132.721 110.8 132.76C110.817 132.799 110.826 132.841 110.826 132.884C110.826 132.926 110.817 132.968 110.8 133.007C110.783 133.046 110.758 133.082 110.727 133.111C110.696 133.14 110.66 133.162 110.62 133.177C110.58 133.191 110.537 133.197 110.495 133.195ZM105.538 133.195H103.678C103.635 133.197 103.593 133.191 103.553 133.177C103.513 133.162 103.476 133.14 103.445 133.111C103.414 133.082 103.389 133.046 103.372 133.007C103.356 132.968 103.347 132.926 103.347 132.884C103.347 132.841 103.356 132.799 103.372 132.76C103.389 132.721 103.414 132.686 103.445 132.657C103.476 132.628 103.513 132.605 103.553 132.591C103.593 132.576 103.635 132.57 103.678 132.573H105.538C105.58 132.57 105.623 132.576 105.663 132.591C105.703 132.605 105.739 132.628 105.77 132.657C105.801 132.686 105.826 132.721 105.843 132.76C105.86 132.799 105.868 132.841 105.868 132.884C105.868 132.926 105.86 132.968 105.843 133.007C105.826 133.046 105.801 133.082 105.77 133.111C105.739 133.14 105.703 133.162 105.663 133.177C105.623 133.191 105.58 133.197 105.538 133.195ZM100.581 133.195H98.7205C98.6781 133.197 98.6355 133.191 98.5955 133.177C98.5555 133.162 98.5189 133.14 98.4879 133.111C98.4569 133.082 98.4322 133.046 98.4153 133.007C98.3985 132.968 98.3898 132.926 98.3898 132.884C98.3898 132.841 98.3985 132.799 98.4153 132.76C98.4322 132.721 98.4569 132.686 98.4879 132.657C98.5189 132.628 98.5555 132.605 98.5955 132.591C98.6355 132.576 98.6781 132.57 98.7205 132.573H100.581C100.623 132.57 100.666 132.576 100.706 132.591C100.746 132.605 100.782 132.628 100.813 132.657C100.844 132.686 100.869 132.721 100.886 132.76C100.903 132.799 100.911 132.841 100.911 132.884C100.911 132.926 100.903 132.968 100.886 133.007C100.869 133.046 100.844 133.082 100.813 133.111C100.782 133.14 100.746 133.162 100.706 133.177C100.666 133.191 100.623 133.197 100.581 133.195ZM95.6235 133.195H93.7587C93.7162 133.197 93.6737 133.191 93.6337 133.177C93.5937 133.162 93.557 133.14 93.5261 133.111C93.4951 133.082 93.4704 133.046 93.4535 133.007C93.4366 132.968 93.4279 132.926 93.4279 132.884C93.4279 132.841 93.4366 132.799 93.4535 132.76C93.4704 132.721 93.4951 132.686 93.5261 132.657C93.557 132.628 93.5937 132.605 93.6337 132.591C93.6737 132.576 93.7162 132.57 93.7587 132.573H95.6176C95.66 132.57 95.7026 132.576 95.7426 132.591C95.7826 132.605 95.8192 132.628 95.8502 132.657C95.8812 132.686 95.9059 132.721 95.9228 132.76C95.9396 132.799 95.9483 132.841 95.9483 132.884C95.9483 132.926 95.9396 132.968 95.9228 133.007C95.9059 133.046 95.8812 133.082 95.8502 133.111C95.8192 133.14 95.7826 133.162 95.7426 133.177C95.7026 133.191 95.66 133.197 95.6176 133.195H95.6235ZM90.6664 133.195H88.8074C88.765 133.197 88.7225 133.191 88.6824 133.177C88.6424 133.162 88.6058 133.14 88.5748 133.111C88.5439 133.082 88.5191 133.046 88.5023 133.007C88.4854 132.968 88.4767 132.926 88.4767 132.884C88.4767 132.841 88.4854 132.799 88.5023 132.76C88.5191 132.721 88.5439 132.686 88.5748 132.657C88.6058 132.628 88.6424 132.605 88.6824 132.591C88.7225 132.576 88.765 132.57 88.8074 132.573H90.6664C90.7088 132.57 90.7514 132.576 90.7914 132.591C90.8314 132.605 90.868 132.628 90.899 132.657C90.93 132.686 90.9547 132.721 90.9715 132.76C90.9884 132.799 90.9971 132.841 90.9971 132.884C90.9971 132.926 90.9884 132.968 90.9715 133.007C90.9547 133.046 90.93 133.082 90.899 133.111C90.868 133.14 90.8314 133.162 90.7914 133.177C90.7514 133.191 90.7088 133.197 90.6664 133.195ZM85.7093 133.195H83.8503C83.8079 133.197 83.7653 133.191 83.7253 133.177C83.6853 133.162 83.6487 133.14 83.6177 133.111C83.5867 133.082 83.562 133.046 83.5452 133.007C83.5283 132.968 83.5196 132.926 83.5196 132.884C83.5196 132.841 83.5283 132.799 83.5452 132.76C83.562 132.721 83.5867 132.686 83.6177 132.657C83.6487 132.628 83.6853 132.605 83.7253 132.591C83.7653 132.576 83.8079 132.57 83.8503 132.573H85.7093C85.7517 132.57 85.7943 132.576 85.8343 132.591C85.8743 132.605 85.9109 132.628 85.9419 132.657C85.9728 132.686 85.9975 132.721 86.0144 132.76C86.0313 132.799 86.04 132.841 86.04 132.884C86.04 132.926 86.0313 132.968 86.0144 133.007C85.9975 133.046 85.9728 133.082 85.9419 133.111C85.9109 133.14 85.8743 133.162 85.8343 133.177C85.7943 133.191 85.7517 133.197 85.7093 133.195ZM80.7521 133.195H78.8838C78.8413 133.197 78.7988 133.191 78.7588 133.177C78.7188 133.162 78.6821 133.14 78.6512 133.111C78.6202 133.082 78.5955 133.046 78.5786 133.007C78.5617 132.968 78.553 132.926 78.553 132.884C78.553 132.841 78.5617 132.799 78.5786 132.76C78.5955 132.721 78.6202 132.686 78.6512 132.657C78.6821 132.628 78.7188 132.605 78.7588 132.591C78.7988 132.576 78.8413 132.57 78.8838 132.573H80.7427C80.7851 132.57 80.8277 132.576 80.8677 132.591C80.9077 132.605 80.9443 132.628 80.9753 132.657C81.0063 132.686 81.031 132.721 81.0479 132.76C81.0647 132.799 81.0734 132.841 81.0734 132.884C81.0734 132.926 81.0647 132.968 81.0479 133.007C81.031 133.046 81.0063 133.082 80.9753 133.111C80.9443 133.14 80.9077 133.162 80.8677 133.177C80.8277 133.191 80.7851 133.197 80.7427 133.195H80.7521ZM75.795 133.195H73.9243C73.8451 133.19 73.7708 133.155 73.7164 133.097C73.6621 133.039 73.6319 132.963 73.6319 132.884C73.6319 132.804 73.6621 132.728 73.7164 132.67C73.7708 132.612 73.8451 132.578 73.9243 132.573H75.7844C75.8268 132.57 75.8694 132.576 75.9094 132.591C75.9494 132.605 75.986 132.628 76.017 132.657C76.048 132.686 76.0727 132.721 76.0896 132.76C76.1064 132.799 76.1151 132.841 76.1151 132.884C76.1151 132.926 76.1064 132.968 76.0896 133.007C76.0727 133.046 76.048 133.082 76.017 133.111C75.986 133.14 75.9494 133.162 75.9094 133.177C75.8694 133.191 75.8268 133.197 75.7844 133.195H75.795ZM70.8379 133.195H68.966C68.9235 133.197 68.881 133.191 68.841 133.177C68.801 133.162 68.7644 133.14 68.7334 133.111C68.7024 133.082 68.6777 133.046 68.6608 133.007C68.6439 132.968 68.6352 132.926 68.6352 132.884C68.6352 132.841 68.6439 132.799 68.6608 132.76C68.6777 132.721 68.7024 132.686 68.7334 132.657C68.7644 132.628 68.801 132.605 68.841 132.591C68.881 132.576 68.9235 132.57 68.966 132.573H70.8261C70.8685 132.57 70.9111 132.576 70.9511 132.591C70.9911 132.605 71.0277 132.628 71.0587 132.657C71.0897 132.686 71.1144 132.721 71.1313 132.76C71.1481 132.799 71.1568 132.841 71.1568 132.884C71.1568 132.926 71.1481 132.968 71.1313 133.007C71.1144 133.046 71.0897 133.082 71.0587 133.111C71.0277 133.14 70.9911 133.162 70.9511 133.177C70.9111 133.191 70.8685 133.197 70.8261 133.195H70.8379ZM65.8808 133.195H64.0077C63.9652 133.197 63.9227 133.191 63.8827 133.177C63.8427 133.162 63.8061 133.14 63.7751 133.111C63.7441 133.082 63.7194 133.046 63.7025 133.007C63.6856 132.968 63.6769 132.926 63.6769 132.884C63.6769 132.841 63.6856 132.799 63.7025 132.76C63.7194 132.721 63.7441 132.686 63.7751 132.657C63.8061 132.628 63.8427 132.605 63.8827 132.591C63.9227 132.576 63.9652 132.57 64.0077 132.573H65.8678C65.9102 132.57 65.9528 132.576 65.9928 132.591C66.0328 132.605 66.0694 132.628 66.1004 132.657C66.1314 132.686 66.1561 132.721 66.173 132.76C66.1898 132.799 66.1985 132.841 66.1985 132.884C66.1985 132.926 66.1898 132.968 66.173 133.007C66.1561 133.046 66.1314 133.082 66.1004 133.111C66.0694 133.14 66.0328 133.162 65.9928 133.177C65.9528 133.191 65.9102 133.197 65.8678 133.195H65.8808ZM60.9237 133.195H59.0494C59.0069 133.197 58.9644 133.191 58.9244 133.177C58.8844 133.162 58.8478 133.14 58.8168 133.111C58.7858 133.082 58.7611 133.046 58.7442 133.007C58.7273 132.968 58.7186 132.926 58.7186 132.884C58.7186 132.841 58.7273 132.799 58.7442 132.76C58.7611 132.721 58.7858 132.686 58.8168 132.657C58.8478 132.628 58.8844 132.605 58.9244 132.591C58.9644 132.576 59.0069 132.57 59.0494 132.573H60.9083C60.9508 132.57 60.9933 132.576 61.0333 132.591C61.0733 132.605 61.1099 132.628 61.1409 132.657C61.1719 132.686 61.1966 132.721 61.2135 132.76C61.2304 132.799 61.2391 132.841 61.2391 132.884C61.2391 132.926 61.2304 132.968 61.2135 133.007C61.1966 133.046 61.1719 133.082 61.1409 133.111C61.1099 133.14 61.0733 133.162 61.0333 133.177C60.9933 133.191 60.9508 133.197 60.9083 133.195H60.9237ZM55.9665 133.195H54.0911C54.0486 133.197 54.0061 133.191 53.9661 133.177C53.9261 133.162 53.8895 133.14 53.8585 133.111C53.8275 133.082 53.8028 133.046 53.7859 133.007C53.769 132.968 53.7603 132.926 53.7603 132.884C53.7603 132.841 53.769 132.799 53.7859 132.76C53.8028 132.721 53.8275 132.686 53.8585 132.657C53.8895 132.628 53.9261 132.605 53.9661 132.591C54.0061 132.576 54.0486 132.57 54.0911 132.573H55.95C55.9925 132.57 56.035 132.576 56.075 132.591C56.115 132.605 56.1516 132.628 56.1826 132.657C56.2136 132.686 56.2383 132.721 56.2552 132.76C56.2721 132.799 56.2808 132.841 56.2808 132.884C56.2808 132.926 56.2721 132.968 56.2552 133.007C56.2383 133.046 56.2136 133.082 56.1826 133.111C56.1516 133.14 56.115 133.162 56.075 133.177C56.035 133.191 55.9925 133.197 55.95 133.195H55.9665ZM51.0094 133.195H49.1328C49.0903 133.197 49.0478 133.191 49.0078 133.177C48.9678 133.162 48.9312 133.14 48.9002 133.111C48.8692 133.082 48.8445 133.046 48.8276 133.007C48.8107 132.968 48.802 132.926 48.802 132.884C48.802 132.841 48.8107 132.799 48.8276 132.76C48.8445 132.721 48.8692 132.686 48.9002 132.657C48.9312 132.628 48.9678 132.605 49.0078 132.591C49.0478 132.576 49.0903 132.57 49.1328 132.573H50.9917C51.0342 132.57 51.0767 132.576 51.1167 132.591C51.1567 132.605 51.1933 132.628 51.2243 132.657C51.2553 132.686 51.28 132.721 51.2969 132.76C51.3138 132.799 51.3225 132.841 51.3225 132.884C51.3225 132.926 51.3138 132.968 51.2969 133.007C51.28 133.046 51.2553 133.082 51.2243 133.111C51.1933 133.14 51.1567 133.162 51.1167 133.177C51.0767 133.191 51.0342 133.197 50.9917 133.195H51.0094ZM46.0523 133.195H44.1745C44.132 133.197 44.0895 133.191 44.0495 133.177C44.0095 133.162 43.9729 133.14 43.9419 133.111C43.9109 133.082 43.8862 133.046 43.8693 133.007C43.8524 132.968 43.8437 132.926 43.8437 132.884C43.8437 132.841 43.8524 132.799 43.8693 132.76C43.8862 132.721 43.9109 132.686 43.9419 132.657C43.9729 132.628 44.0095 132.605 44.0495 132.591C44.0895 132.576 44.132 132.57 44.1745 132.573H46.0334C46.0759 132.57 46.1184 132.576 46.1584 132.591C46.1984 132.605 46.235 132.628 46.266 132.657C46.297 132.686 46.3217 132.721 46.3386 132.76C46.3555 132.799 46.3642 132.841 46.3642 132.884C46.3642 132.926 46.3555 132.968 46.3386 133.007C46.3217 133.046 46.297 133.082 46.266 133.111C46.235 133.14 46.1984 133.162 46.1584 133.177C46.1184 133.191 46.0759 133.197 46.0334 133.195H46.0523ZM41.0952 133.195H39.215C39.1358 133.19 39.0615 133.155 39.0072 133.097C38.9528 133.039 38.9226 132.963 38.9226 132.884C38.9226 132.804 38.9528 132.728 39.0072 132.67C39.0615 132.612 39.1358 132.578 39.215 132.573H41.0751C41.1176 132.57 41.1601 132.576 41.2001 132.591C41.2401 132.605 41.2767 132.628 41.3077 132.657C41.3387 132.686 41.3634 132.721 41.3803 132.76C41.3972 132.799 41.4059 132.841 41.4059 132.884C41.4059 132.926 41.3972 132.968 41.3803 133.007C41.3634 133.046 41.3387 133.082 41.3077 133.111C41.2767 133.14 41.2401 133.162 41.2001 133.177C41.1601 133.191 41.1176 133.197 41.0751 133.195H41.0952ZM36.1381 133.195H34.2567C34.2143 133.197 34.1717 133.191 34.1317 133.177C34.0917 133.162 34.0551 133.14 34.0241 133.111C33.9931 133.082 33.9684 133.046 33.9515 133.007C33.9347 132.968 33.926 132.926 33.926 132.884C33.926 132.841 33.9347 132.799 33.9515 132.76C33.9684 132.721 33.9931 132.686 34.0241 132.657C34.0551 132.628 34.0917 132.605 34.1317 132.591C34.1717 132.576 34.2143 132.57 34.2567 132.573H36.1168C36.1593 132.57 36.2018 132.576 36.2418 132.591C36.2818 132.605 36.3184 132.628 36.3494 132.657C36.3804 132.686 36.4051 132.721 36.422 132.76C36.4389 132.799 36.4476 132.841 36.4476 132.884C36.4476 132.926 36.4389 132.968 36.422 133.007C36.4051 133.046 36.3804 133.082 36.3494 133.111C36.3184 133.14 36.2818 133.162 36.2418 133.177C36.2018 133.191 36.1593 133.197 36.1168 133.195H36.1381ZM31.1809 133.195H29.2984C29.256 133.197 29.2134 133.191 29.1734 133.177C29.1334 133.162 29.0968 133.14 29.0658 133.111C29.0348 133.082 29.0101 133.046 28.9932 133.007C28.9764 132.968 28.9676 132.926 28.9676 132.884C28.9676 132.841 28.9764 132.799 28.9932 132.76C29.0101 132.721 29.0348 132.686 29.0658 132.657C29.0968 132.628 29.1334 132.605 29.1734 132.591C29.2134 132.576 29.256 132.57 29.2984 132.573H31.1585C31.2377 132.578 31.312 132.612 31.3663 132.67C31.4207 132.728 31.4509 132.804 31.4509 132.884C31.4509 132.963 31.4207 133.039 31.3663 133.097C31.312 133.155 31.2377 133.19 31.1585 133.195H31.1809ZM26.2238 133.195H24.3401C24.2977 133.197 24.2551 133.191 24.2151 133.177C24.1751 133.162 24.1385 133.14 24.1075 133.111C24.0765 133.082 24.0518 133.046 24.0349 133.007C24.0181 132.968 24.0093 132.926 24.0093 132.884C24.0093 132.841 24.0181 132.799 24.0349 132.76C24.0518 132.721 24.0765 132.686 24.1075 132.657C24.1385 132.628 24.1751 132.605 24.2151 132.591C24.2551 132.576 24.2977 132.57 24.3401 132.573H26.199C26.2415 132.57 26.284 132.576 26.324 132.591C26.364 132.605 26.4007 132.628 26.4316 132.657C26.4626 132.686 26.4873 132.721 26.5042 132.76C26.5211 132.799 26.5298 132.841 26.5298 132.884C26.5298 132.926 26.5211 132.968 26.5042 133.007C26.4873 133.046 26.4626 133.082 26.4316 133.111C26.4007 133.14 26.364 133.162 26.324 133.177C26.284 133.191 26.2415 133.197 26.199 133.195H26.2238ZM21.2667 133.195H21.2195C20.5632 133.195 19.9115 133.085 19.2921 132.868C19.2139 132.84 19.1497 132.783 19.1137 132.708C19.0777 132.634 19.0729 132.548 19.1003 132.469C19.1277 132.391 19.1851 132.327 19.2598 132.291C19.3345 132.255 19.4204 132.25 19.4987 132.278C20.0516 132.472 20.6335 132.571 21.2195 132.57H21.2419C21.2844 132.568 21.3269 132.574 21.3669 132.588C21.4069 132.603 21.4435 132.625 21.4745 132.654C21.5055 132.683 21.5302 132.719 21.5471 132.758C21.564 132.797 21.5727 132.839 21.5727 132.881C21.5727 132.924 21.564 132.966 21.5471 133.005C21.5302 133.044 21.5055 133.079 21.4745 133.108C21.4435 133.137 21.4069 133.16 21.3669 133.174C21.3269 133.189 21.2844 133.195 21.2419 133.192L21.2667 133.195ZM123.035 131.424C122.975 131.424 122.915 131.406 122.865 131.373C122.814 131.339 122.774 131.292 122.75 131.237C122.726 131.181 122.718 131.12 122.728 131.06C122.738 131 122.765 130.945 122.806 130.9C123.205 130.47 123.528 129.976 123.762 129.439C123.796 129.364 123.857 129.305 123.934 129.275C124.011 129.245 124.096 129.246 124.172 129.279C124.247 129.312 124.307 129.374 124.337 129.45C124.367 129.527 124.366 129.612 124.333 129.688C124.072 130.29 123.71 130.843 123.264 131.324C123.232 131.359 123.192 131.386 123.148 131.403C123.104 131.42 123.056 131.427 123.009 131.423L123.035 131.424ZM16.9292 131.113C16.8822 131.113 16.8358 131.102 16.7935 131.082C16.7512 131.061 16.7141 131.031 16.6849 130.995C16.2765 130.482 15.9574 129.903 15.7407 129.284C15.7133 129.206 15.7181 129.12 15.7541 129.046C15.7901 128.971 15.8542 128.913 15.9325 128.886C16.0107 128.859 16.0967 128.864 16.1714 128.899C16.2461 128.935 16.3034 129 16.3308 129.078C16.5231 129.633 16.8084 130.152 17.1747 130.612C17.211 130.658 17.2337 130.713 17.2402 130.771C17.2467 130.829 17.2367 130.888 17.2113 130.941C17.1859 130.994 17.1462 131.038 17.0968 131.069C17.0473 131.101 16.9901 131.117 16.9316 131.117L16.9292 131.113ZM124.503 126.839C124.421 126.839 124.342 126.806 124.284 126.747C124.226 126.689 124.193 126.61 124.193 126.527V124.668C124.19 124.626 124.197 124.583 124.211 124.543C124.225 124.503 124.248 124.467 124.277 124.436C124.306 124.405 124.341 124.38 124.38 124.363C124.419 124.346 124.461 124.338 124.504 124.338C124.547 124.338 124.589 124.346 124.628 124.363C124.667 124.38 124.702 124.405 124.731 124.436C124.76 124.467 124.783 124.503 124.797 124.543C124.812 124.583 124.818 124.626 124.815 124.668V126.527C124.815 126.57 124.806 126.613 124.789 126.653C124.771 126.692 124.746 126.727 124.714 126.757C124.683 126.786 124.645 126.808 124.604 126.822C124.564 126.836 124.52 126.841 124.477 126.838L124.503 126.839ZM15.7277 126.429C15.6453 126.429 15.5662 126.397 15.5078 126.339C15.4494 126.28 15.4164 126.201 15.4161 126.119V124.259C15.4161 124.176 15.4489 124.097 15.5074 124.039C15.5658 123.98 15.6451 123.947 15.7277 123.947C15.8103 123.947 15.8896 123.98 15.948 124.039C16.0065 124.097 16.0393 124.176 16.0393 124.259V126.119C16.0391 126.162 16.03 126.204 16.0126 126.244C15.9952 126.283 15.9699 126.318 15.9382 126.347C15.9065 126.376 15.8691 126.399 15.8284 126.413C15.7877 126.426 15.7446 126.432 15.7017 126.428L15.7277 126.429ZM124.503 121.881C124.421 121.88 124.342 121.847 124.284 121.789C124.226 121.731 124.193 121.651 124.193 121.569V119.71C124.19 119.668 124.197 119.625 124.211 119.585C124.225 119.545 124.248 119.508 124.277 119.477C124.306 119.447 124.341 119.422 124.38 119.405C124.419 119.388 124.461 119.379 124.504 119.379C124.547 119.379 124.589 119.388 124.628 119.405C124.667 119.422 124.702 119.447 124.731 119.477C124.76 119.508 124.783 119.545 124.797 119.585C124.812 119.625 124.818 119.668 124.815 119.71V121.569C124.815 121.612 124.806 121.655 124.789 121.694C124.771 121.734 124.746 121.769 124.714 121.798C124.683 121.827 124.645 121.85 124.604 121.864C124.564 121.878 124.52 121.883 124.477 121.879L124.503 121.881ZM15.7017 121.465C15.6191 121.465 15.5398 121.432 15.4814 121.374C15.423 121.315 15.3901 121.236 15.3901 121.154V119.295C15.3901 119.254 15.3982 119.213 15.4139 119.175C15.4295 119.138 15.4525 119.103 15.4814 119.074C15.5103 119.045 15.5447 119.022 15.5825 119.007C15.6203 118.991 15.6608 118.983 15.7017 118.983C15.7427 118.983 15.7832 118.991 15.821 119.007C15.8588 119.022 15.8931 119.045 15.9221 119.074C15.951 119.103 15.974 119.138 15.9896 119.175C16.0053 119.213 16.0133 119.254 16.0133 119.295V121.154C16.0133 121.236 15.9805 121.315 15.9221 121.374C15.8636 121.432 15.7844 121.465 15.7017 121.465ZM124.477 116.916C124.395 116.916 124.316 116.883 124.258 116.825C124.2 116.766 124.167 116.687 124.167 116.605V114.746C124.164 114.703 124.171 114.661 124.185 114.621C124.199 114.581 124.222 114.544 124.251 114.513C124.28 114.482 124.315 114.458 124.354 114.441C124.393 114.424 124.436 114.415 124.478 114.415C124.521 114.415 124.563 114.424 124.602 114.441C124.641 114.458 124.676 114.482 124.705 114.513C124.734 114.544 124.757 114.581 124.771 114.621C124.786 114.661 124.792 114.703 124.789 114.746V116.605C124.79 116.646 124.782 116.687 124.767 116.726C124.751 116.764 124.728 116.799 124.699 116.828C124.67 116.858 124.636 116.881 124.598 116.897C124.56 116.913 124.519 116.921 124.477 116.921V116.916ZM15.7017 116.508C15.6191 116.508 15.5398 116.475 15.4814 116.417C15.423 116.358 15.3901 116.279 15.3901 116.196V114.338C15.3901 114.255 15.423 114.176 15.4814 114.117C15.5398 114.059 15.6191 114.026 15.7017 114.026C15.7844 114.026 15.8636 114.059 15.9221 114.117C15.9805 114.176 16.0133 114.255 16.0133 114.338V116.196C16.0133 116.279 15.9805 116.358 15.9221 116.417C15.8636 116.475 15.7844 116.508 15.7017 116.508ZM124.477 111.959C124.395 111.959 124.316 111.926 124.258 111.868C124.2 111.809 124.167 111.73 124.167 111.648V109.792C124.164 109.75 124.171 109.707 124.185 109.667C124.199 109.627 124.222 109.591 124.251 109.56C124.28 109.529 124.315 109.504 124.354 109.487C124.393 109.47 124.436 109.462 124.478 109.462C124.521 109.462 124.563 109.47 124.602 109.487C124.641 109.504 124.676 109.529 124.705 109.56C124.734 109.591 124.757 109.627 124.771 109.667C124.786 109.707 124.792 109.75 124.789 109.792V111.651C124.789 111.734 124.756 111.813 124.698 111.872C124.639 111.93 124.56 111.963 124.477 111.963V111.959ZM15.7017 111.551C15.6191 111.551 15.5398 111.518 15.4814 111.46C15.423 111.401 15.3901 111.322 15.3901 111.239V109.38C15.3901 109.339 15.3982 109.299 15.4139 109.261C15.4295 109.223 15.4525 109.189 15.4814 109.16C15.5103 109.131 15.5447 109.108 15.5825 109.093C15.6203 109.077 15.6608 109.069 15.7017 109.069C15.7427 109.069 15.7832 109.077 15.821 109.093C15.8588 109.108 15.8931 109.131 15.9221 109.16C15.951 109.189 15.974 109.223 15.9896 109.261C16.0053 109.299 16.0133 109.339 16.0133 109.38V111.239C16.0133 111.322 15.9805 111.401 15.9221 111.46C15.8636 111.518 15.7844 111.551 15.7017 111.551ZM124.477 107.002C124.395 107.002 124.316 106.969 124.258 106.91C124.2 106.852 124.167 106.773 124.167 106.691V104.83C124.164 104.788 124.171 104.745 124.185 104.705C124.199 104.665 124.222 104.629 124.251 104.598C124.28 104.567 124.315 104.542 124.354 104.525C124.393 104.508 124.436 104.5 124.478 104.5C124.521 104.5 124.563 104.508 124.602 104.525C124.641 104.542 124.676 104.567 124.705 104.598C124.734 104.629 124.757 104.665 124.771 104.705C124.786 104.745 124.792 104.788 124.789 104.83V106.691C124.789 106.732 124.782 106.772 124.766 106.811C124.751 106.849 124.728 106.883 124.699 106.912C124.67 106.942 124.635 106.965 124.597 106.981C124.559 106.996 124.519 107.005 124.477 107.005V107.002ZM15.7017 106.594C15.6191 106.594 15.5398 106.561 15.4814 106.503C15.423 106.444 15.3901 106.365 15.3901 106.282V104.422C15.3901 104.339 15.423 104.26 15.4814 104.202C15.5398 104.143 15.6191 104.111 15.7017 104.111C15.7844 104.111 15.8636 104.143 15.9221 104.202C15.9805 104.26 16.0133 104.339 16.0133 104.422V106.282C16.0133 106.365 15.9805 106.444 15.9221 106.503C15.8636 106.561 15.7844 106.594 15.7017 106.594ZM124.477 102.045C124.395 102.045 124.316 102.012 124.258 101.953C124.2 101.895 124.167 101.816 124.167 101.733V99.8734C124.164 99.8309 124.171 99.7884 124.185 99.7484C124.199 99.7084 124.222 99.6717 124.251 99.6408C124.28 99.6098 124.315 99.5851 124.354 99.5682C124.393 99.5513 124.436 99.5426 124.478 99.5426C124.521 99.5426 124.563 99.5513 124.602 99.5682C124.641 99.5851 124.676 99.6098 124.705 99.6408C124.734 99.6717 124.757 99.7084 124.771 99.7484C124.786 99.7884 124.792 99.8309 124.789 99.8734V101.733C124.789 101.774 124.781 101.815 124.766 101.853C124.75 101.891 124.727 101.926 124.698 101.955C124.669 101.984 124.635 102.007 124.597 102.022C124.559 102.038 124.518 102.046 124.477 102.046V102.045ZM15.7017 101.637C15.6608 101.637 15.6203 101.629 15.5825 101.613C15.5447 101.597 15.5103 101.574 15.4814 101.545C15.4525 101.516 15.4295 101.482 15.4139 101.444C15.3982 101.407 15.3901 101.366 15.3901 101.325V99.465C15.3901 99.3824 15.423 99.3031 15.4814 99.2447C15.5398 99.1862 15.6191 99.1534 15.7017 99.1534C15.7844 99.1534 15.8636 99.1862 15.9221 99.2447C15.9805 99.3031 16.0133 99.3824 16.0133 99.465V101.325C16.0133 101.366 16.0053 101.407 15.9896 101.444C15.974 101.482 15.951 101.516 15.9221 101.545C15.8931 101.574 15.8588 101.597 15.821 101.613C15.7832 101.629 15.7427 101.637 15.7017 101.637ZM124.477 97.0868C124.395 97.0868 124.316 97.0541 124.258 96.9958C124.2 96.9376 124.167 96.8587 124.167 96.7763V94.9163C124.164 94.8738 124.171 94.8313 124.185 94.7913C124.199 94.7513 124.222 94.7146 124.251 94.6836C124.28 94.6526 124.315 94.628 124.354 94.6111C124.393 94.5942 124.436 94.5855 124.478 94.5855C124.521 94.5855 124.563 94.5942 124.602 94.6111C124.641 94.628 124.676 94.6526 124.705 94.6836C124.734 94.7146 124.757 94.7513 124.771 94.7913C124.786 94.8313 124.792 94.8738 124.789 94.9163V96.7763C124.789 96.8588 124.756 96.9377 124.697 96.9959C124.639 97.0541 124.56 97.0868 124.477 97.0868ZM15.7017 96.6796C15.6608 96.6796 15.6203 96.6715 15.5825 96.6559C15.5447 96.6402 15.5103 96.6172 15.4814 96.5883C15.4525 96.5594 15.4295 96.525 15.4139 96.4872C15.3982 96.4494 15.3901 96.4089 15.3901 96.368V94.5079C15.3901 94.4252 15.423 94.346 15.4814 94.2876C15.5398 94.2291 15.6191 94.1963 15.7017 94.1963C15.7844 94.1963 15.8636 94.2291 15.9221 94.2876C15.9805 94.346 16.0133 94.4252 16.0133 94.5079V96.368C16.013 96.4505 15.9801 96.5296 15.9217 96.588C15.8634 96.6463 15.7843 96.6793 15.7017 96.6796ZM124.477 92.1296C124.395 92.1293 124.316 92.0964 124.258 92.038C124.2 91.9796 124.167 91.9005 124.167 91.8181V89.9591C124.164 89.9167 124.171 89.8741 124.185 89.8341C124.199 89.7941 124.222 89.7575 124.251 89.7265C124.28 89.6955 124.315 89.6708 124.354 89.654C124.393 89.6371 124.436 89.6284 124.478 89.6284C124.521 89.6284 124.563 89.6371 124.602 89.654C124.641 89.6708 124.676 89.6955 124.705 89.7265C124.734 89.7575 124.757 89.7941 124.771 89.8341C124.786 89.8741 124.792 89.9167 124.789 89.9591V91.8181C124.789 91.9005 124.756 91.9794 124.697 92.0376C124.639 92.0958 124.56 92.1285 124.477 92.1285V92.1296ZM15.7017 91.7225C15.6193 91.7225 15.5402 91.6898 15.4818 91.6316C15.4234 91.5734 15.3905 91.4945 15.3901 91.412V89.5519C15.3901 89.4693 15.423 89.3901 15.4814 89.3316C15.5398 89.2732 15.6191 89.2403 15.7017 89.2403C15.7844 89.2403 15.8636 89.2732 15.9221 89.3316C15.9805 89.3901 16.0133 89.4693 16.0133 89.5519V91.412C16.013 91.4945 15.98 91.5734 15.9216 91.6316C15.8632 91.6898 15.7842 91.7225 15.7017 91.7225ZM124.477 87.1737C124.395 87.1734 124.316 87.1404 124.258 87.082C124.2 87.0236 124.167 86.9445 124.167 86.8621V84.9949C124.164 84.9525 124.171 84.9099 124.185 84.8699C124.199 84.8299 124.222 84.7933 124.251 84.7623C124.28 84.7313 124.315 84.7066 124.354 84.6898C124.393 84.6729 124.436 84.6642 124.478 84.6642C124.521 84.6642 124.563 84.6729 124.602 84.6898C124.641 84.7066 124.676 84.7313 124.705 84.7623C124.734 84.7933 124.757 84.8299 124.771 84.8699C124.786 84.9099 124.792 84.9525 124.789 84.9949V86.8539C124.79 86.8952 124.782 86.9362 124.767 86.9745C124.751 87.0129 124.728 87.0478 124.699 87.0772C124.67 87.1067 124.636 87.1301 124.598 87.146C124.56 87.162 124.519 87.1702 124.477 87.1702V87.1737ZM15.7017 86.7653C15.6191 86.7653 15.5398 86.7325 15.4814 86.6741C15.423 86.6156 15.3901 86.5364 15.3901 86.4537V84.5948C15.3901 84.5122 15.423 84.4329 15.4814 84.3745C15.5398 84.3161 15.6191 84.2832 15.7017 84.2832C15.7844 84.2832 15.8636 84.3161 15.9221 84.3745C15.9805 84.4329 16.0133 84.5122 16.0133 84.5948V86.4537C16.0133 86.5364 15.9805 86.6156 15.9221 86.6741C15.8636 86.7325 15.7844 86.7653 15.7017 86.7653ZM124.477 82.2166C124.395 82.2163 124.316 82.1833 124.258 82.1249C124.2 82.0665 124.167 81.9874 124.167 81.905V80.0378C124.164 79.9954 124.171 79.9528 124.185 79.9128C124.199 79.8728 124.222 79.8362 124.251 79.8052C124.28 79.7742 124.315 79.7495 124.354 79.7327C124.393 79.7158 124.436 79.7071 124.478 79.7071C124.521 79.7071 124.563 79.7158 124.602 79.7327C124.641 79.7495 124.676 79.7742 124.705 79.8052C124.734 79.8362 124.757 79.8728 124.771 79.9128C124.786 79.9528 124.792 79.9954 124.789 80.0378V81.8967C124.79 81.938 124.782 81.9789 124.766 82.0171C124.751 82.0553 124.728 82.0901 124.699 82.1194C124.67 82.1487 124.636 82.1719 124.598 82.1878C124.559 82.2037 124.519 82.2119 124.477 82.2119V82.2166ZM15.7017 81.8082C15.6608 81.8082 15.6203 81.8002 15.5825 81.7845C15.5447 81.7688 15.5103 81.7459 15.4814 81.717C15.4525 81.688 15.4295 81.6537 15.4139 81.6159C15.3982 81.5781 15.3901 81.5375 15.3901 81.4966V79.6377C15.3901 79.5551 15.423 79.4758 15.4814 79.4174C15.5398 79.359 15.6191 79.3261 15.7017 79.3261C15.7844 79.3261 15.8636 79.359 15.9221 79.4174C15.9805 79.4758 16.0133 79.5551 16.0133 79.6377V81.4966C16.0133 81.5375 16.0053 81.5781 15.9896 81.6159C15.974 81.6537 15.951 81.688 15.9221 81.717C15.8931 81.7459 15.8588 81.7688 15.821 81.7845C15.7832 81.8002 15.7427 81.8082 15.7017 81.8082ZM124.477 77.2595C124.395 77.2592 124.316 77.2262 124.258 77.1678C124.2 77.1094 124.167 77.0303 124.167 76.9479V75.0807C124.164 75.0382 124.171 74.9957 124.185 74.9557C124.199 74.9157 124.222 74.8791 124.251 74.8481C124.28 74.8171 124.315 74.7924 124.354 74.7755C124.393 74.7587 124.436 74.7499 124.478 74.7499C124.521 74.7499 124.563 74.7587 124.602 74.7755C124.641 74.7924 124.676 74.8171 124.705 74.8481C124.734 74.8791 124.757 74.9157 124.771 74.9557C124.786 74.9957 124.792 75.0382 124.789 75.0807V76.9396C124.789 76.9807 124.782 77.0215 124.766 77.0596C124.751 77.0977 124.728 77.1323 124.699 77.1615C124.67 77.1907 124.635 77.2138 124.597 77.2296C124.559 77.2454 124.519 77.2536 124.477 77.2536V77.2595ZM15.7017 76.8499C15.6191 76.8499 15.5398 76.8171 15.4814 76.7587C15.423 76.7002 15.3901 76.621 15.3901 76.5383V74.6794C15.3901 74.5968 15.423 74.5175 15.4814 74.4591C15.5398 74.4007 15.6191 74.3678 15.7017 74.3678C15.7844 74.3678 15.8636 74.4007 15.9221 74.4591C15.9805 74.5175 16.0133 74.5968 16.0133 74.6794V76.5383C16.0118 76.6199 15.9783 76.6977 15.92 76.7549C15.8617 76.812 15.7834 76.844 15.7017 76.844V76.8499ZM124.477 72.3012C124.395 72.3009 124.316 72.2679 124.258 72.2095C124.2 72.1511 124.167 72.072 124.167 71.9896V71.3711C124.167 70.9803 124.123 70.5908 124.036 70.2097C124.027 70.1698 124.026 70.1285 124.033 70.0882C124.04 70.0478 124.054 70.0092 124.076 69.9746C124.098 69.94 124.126 69.91 124.16 69.8863C124.193 69.8627 124.231 69.8458 124.271 69.8368C124.311 69.8277 124.352 69.8266 124.392 69.8335C124.433 69.8404 124.471 69.8552 124.506 69.877C124.541 69.8988 124.571 69.9272 124.594 69.9606C124.618 69.994 124.635 70.0317 124.644 70.0716C124.741 70.4976 124.789 70.9331 124.789 71.3699V71.9884C124.788 72.0702 124.754 72.1483 124.696 72.2057C124.638 72.2631 124.559 72.2953 124.477 72.2953V72.3012ZM15.7017 71.8916C15.6191 71.8916 15.5398 71.8588 15.4814 71.8004C15.423 71.7419 15.3901 71.6627 15.3901 71.58V71.3711C15.3891 70.7882 15.4763 70.2084 15.6486 69.6515C15.6802 69.5825 15.7358 69.5274 15.805 69.4966C15.8743 69.4657 15.9524 69.4611 16.0248 69.4837C16.0972 69.5062 16.1588 69.5544 16.1982 69.6192C16.2376 69.684 16.252 69.7609 16.2388 69.8356C16.0853 70.3325 16.0077 70.8498 16.0086 71.3699V71.5789C16.0074 71.6599 15.9747 71.7372 15.9174 71.7945C15.8601 71.8518 15.7827 71.8845 15.7017 71.8857V71.8916ZM122.856 67.7784C122.815 67.7786 122.774 67.7707 122.736 67.7551C122.698 67.7395 122.664 67.7165 122.635 67.6875C122.22 67.2733 121.739 66.9317 121.21 66.6772C121.14 66.6389 121.088 66.5751 121.063 66.499C121.039 66.423 121.045 66.3404 121.079 66.2684C121.114 66.1965 121.175 66.1406 121.25 66.1123C121.324 66.084 121.407 66.0856 121.481 66.1166C122.072 66.4008 122.611 66.7831 123.075 67.2473C123.134 67.3057 123.166 67.3849 123.166 67.4674C123.166 67.5499 123.134 67.6291 123.075 67.6875C123.016 67.743 122.937 67.7735 122.856 67.7725V67.7784ZM17.6244 67.501C17.5607 67.5012 17.4985 67.4819 17.4462 67.4456C17.3939 67.4094 17.3539 67.358 17.3316 67.2983C17.3094 67.2386 17.306 67.1736 17.3218 67.1119C17.3376 67.0503 17.372 66.9949 17.4202 66.9534C17.9174 66.5229 18.4836 66.1793 19.095 65.9372C19.172 65.907 19.2579 65.9086 19.3337 65.9417C19.4095 65.9748 19.469 66.0366 19.4992 66.1136C19.5295 66.1906 19.5278 66.2765 19.4947 66.3523C19.4617 66.4281 19.3998 66.4877 19.3228 66.5179C18.7772 66.7316 18.272 67.0365 17.8286 67.4196C17.7719 67.4686 17.6993 67.4954 17.6244 67.4951V67.501ZM118.329 66.1661H116.467C116.384 66.1661 116.305 66.1333 116.247 66.0749C116.188 66.0165 116.155 65.9372 116.155 65.8546C116.155 65.7719 116.188 65.6927 116.247 65.6342C116.305 65.5758 116.384 65.543 116.467 65.543H118.327C118.41 65.543 118.489 65.5758 118.547 65.6342C118.606 65.6927 118.639 65.7719 118.639 65.8546C118.639 65.9372 118.606 66.0165 118.547 66.0749C118.489 66.1333 118.41 66.1661 118.327 66.1661H118.329ZM113.372 66.1661H111.51C111.427 66.1661 111.348 66.1333 111.29 66.0749C111.231 66.0165 111.198 65.9372 111.198 65.8546C111.198 65.7719 111.231 65.6927 111.29 65.6342C111.348 65.5758 111.427 65.543 111.51 65.543H113.37C113.453 65.543 113.532 65.5758 113.59 65.6342C113.649 65.6927 113.682 65.7719 113.682 65.8546C113.682 65.9372 113.649 66.0165 113.59 66.0749C113.532 66.1333 113.453 66.1661 113.37 66.1661H113.372ZM108.415 66.1661H106.553C106.47 66.1661 106.391 66.1333 106.332 66.0749C106.274 66.0165 106.241 65.9372 106.241 65.8546C106.241 65.7719 106.274 65.6927 106.332 65.6342C106.391 65.5758 106.47 65.543 106.553 65.543H108.412C108.494 65.543 108.574 65.5758 108.632 65.6342C108.69 65.6927 108.723 65.7719 108.723 65.8546C108.723 65.9372 108.69 66.0165 108.632 66.0749C108.574 66.1333 108.494 66.1661 108.412 66.1661H108.415ZM103.458 66.1661H101.596C101.513 66.1661 101.434 66.1333 101.375 66.0749C101.317 66.0165 101.284 65.9372 101.284 65.8546C101.284 65.7719 101.317 65.6927 101.375 65.6342C101.434 65.5758 101.513 65.543 101.596 65.543H103.455C103.537 65.543 103.616 65.5758 103.675 65.6342C103.733 65.6927 103.766 65.7719 103.766 65.8546C103.766 65.9372 103.733 66.0165 103.675 66.0749C103.616 66.1333 103.537 66.1661 103.455 66.1661H103.458ZM98.501 66.1661H96.6385C96.5559 66.1661 96.4766 66.1333 96.4182 66.0749C96.3597 66.0165 96.3269 65.9372 96.3269 65.8546C96.3269 65.7719 96.3597 65.6927 96.4182 65.6342C96.4766 65.5758 96.5559 65.543 96.6385 65.543H98.4974C98.5801 65.543 98.6593 65.5758 98.7178 65.6342C98.7762 65.6927 98.809 65.7719 98.809 65.8546C98.809 65.9372 98.7762 66.0165 98.7178 66.0749C98.6593 66.1333 98.5801 66.1661 98.4974 66.1661H98.501ZM93.5439 66.1661H91.6814C91.5988 66.1661 91.5195 66.1333 91.4611 66.0749C91.4026 66.0165 91.3698 65.9372 91.3698 65.8546C91.3698 65.7719 91.4026 65.6927 91.4611 65.6342C91.5195 65.5758 91.5988 65.543 91.6814 65.543H93.5403C93.623 65.543 93.7022 65.5758 93.7607 65.6342C93.8191 65.6927 93.8519 65.7719 93.8519 65.8546C93.8519 65.9372 93.8191 66.0165 93.7607 66.0749C93.7022 66.1333 93.623 66.1661 93.5403 66.1661H93.5439ZM88.5867 66.1661H86.7243C86.6416 66.1661 86.5624 66.1333 86.5039 66.0749C86.4455 66.0165 86.4127 65.9372 86.4127 65.8546C86.4127 65.7719 86.4455 65.6927 86.5039 65.6342C86.5624 65.5758 86.6416 65.543 86.7243 65.543H88.5844C88.667 65.543 88.7463 65.5758 88.8047 65.6342C88.8631 65.6927 88.896 65.7719 88.896 65.8546C88.896 65.9372 88.8631 66.0165 88.8047 66.0749C88.7463 66.1333 88.667 66.1661 88.5844 66.1661H88.5867ZM83.6296 66.1661H81.7695C81.6869 66.1661 81.6076 66.1333 81.5492 66.0749C81.4908 66.0165 81.4579 65.9372 81.4579 65.8546C81.4579 65.7719 81.4908 65.6927 81.5492 65.6342C81.6076 65.5758 81.6869 65.543 81.7695 65.543H83.6296C83.7123 65.543 83.7915 65.5758 83.8499 65.6342C83.9084 65.6927 83.9412 65.7719 83.9412 65.8546C83.9412 65.9372 83.9084 66.0165 83.8499 66.0749C83.7915 66.1333 83.7123 66.1661 83.6296 66.1661ZM78.6725 66.1661H76.8018C76.7191 66.1661 76.6399 66.1333 76.5814 66.0749C76.523 66.0165 76.4902 65.9372 76.4902 65.8546C76.4902 65.7719 76.523 65.6927 76.5814 65.6342C76.6399 65.5758 76.7191 65.543 76.8018 65.543H78.6619C78.7445 65.543 78.8238 65.5758 78.8822 65.6342C78.9406 65.6927 78.9735 65.7719 78.9735 65.8546C78.9735 65.9372 78.9406 66.0165 78.8822 66.0749C78.8238 66.1333 78.7445 66.1661 78.6619 66.1661H78.6725ZM73.7154 66.1661H71.8435C71.7608 66.1661 71.6816 66.1333 71.6231 66.0749C71.5647 66.0165 71.5319 65.9372 71.5319 65.8546C71.5319 65.7719 71.5647 65.6927 71.6231 65.6342C71.6816 65.5758 71.7608 65.543 71.8435 65.543H73.7024C73.785 65.543 73.8643 65.5758 73.9227 65.6342C73.9812 65.6927 74.014 65.7719 74.014 65.8546C74.014 65.9372 73.9812 66.0165 73.9227 66.0749C73.8643 66.1333 73.785 66.1661 73.7024 66.1661H73.7154ZM68.7583 66.1661H66.8852C66.8025 66.1661 66.7233 66.1333 66.6648 66.0749C66.6064 66.0165 66.5736 65.9372 66.5736 65.8546C66.5736 65.7719 66.6064 65.6927 66.6648 65.6342C66.7233 65.5758 66.8025 65.543 66.8852 65.543H68.7441C68.8267 65.543 68.906 65.5758 68.9644 65.6342C69.0229 65.6927 69.0557 65.7719 69.0557 65.8546C69.0557 65.9372 69.0229 66.0165 68.9644 66.0749C68.906 66.1333 68.8267 66.1661 68.7441 66.1661H68.7583ZM63.8011 66.1661H61.9269C61.8442 66.1661 61.765 66.1333 61.7066 66.0749C61.6481 66.0165 61.6153 65.9372 61.6153 65.8546C61.6153 65.7719 61.6481 65.6927 61.7066 65.6342C61.765 65.5758 61.8442 65.543 61.9269 65.543H63.7858C63.8684 65.543 63.9477 65.5758 64.0061 65.6342C64.0646 65.6927 64.0974 65.7719 64.0974 65.8546C64.0974 65.9372 64.0646 66.0165 64.0061 66.0749C63.9477 66.1333 63.8684 66.1661 63.7858 66.1661H63.8011ZM58.844 66.1661H56.9686C56.8859 66.1661 56.8067 66.1333 56.7483 66.0749C56.6898 66.0165 56.657 65.9372 56.657 65.8546C56.657 65.7719 56.6898 65.6927 56.7483 65.6342C56.8067 65.5758 56.8859 65.543 56.9686 65.543H58.8275C58.9101 65.543 58.9894 65.5758 59.0478 65.6342C59.1063 65.6927 59.1391 65.7719 59.1391 65.8546C59.1391 65.9372 59.1063 66.0165 59.0478 66.0749C58.9894 66.1333 58.9101 66.1661 58.8275 66.1661H58.844ZM53.8869 66.1661H52.0091C51.9265 66.1661 51.8472 66.1333 51.7888 66.0749C51.7303 66.0165 51.6975 65.9372 51.6975 65.8546C51.6975 65.7719 51.7303 65.6927 51.7888 65.6342C51.8472 65.5758 51.9265 65.543 52.0091 65.543H53.8692C53.9518 65.543 54.0311 65.5758 54.0895 65.6342C54.148 65.6927 54.1808 65.7719 54.1808 65.8546C54.1808 65.9372 54.148 66.0165 54.0895 66.0749C54.0311 66.1333 53.9518 66.1661 53.8692 66.1661H53.8869ZM48.9298 66.1661H47.0508C46.9682 66.1661 46.8889 66.1333 46.8305 66.0749C46.772 66.0165 46.7392 65.9372 46.7392 65.8546C46.7392 65.7719 46.772 65.6927 46.8305 65.6342C46.8889 65.5758 46.9682 65.543 47.0508 65.543H48.9109C48.9935 65.543 49.0728 65.5758 49.1312 65.6342C49.1897 65.6927 49.2225 65.7719 49.2225 65.8546C49.2225 65.9372 49.1897 66.0165 49.1312 66.0749C49.0728 66.1333 48.9935 66.1661 48.9109 66.1661H48.9298ZM43.9727 66.1661H42.0925C42.0099 66.1661 41.9306 66.1333 41.8722 66.0749C41.8137 66.0165 41.7809 65.9372 41.7809 65.8546C41.7809 65.7719 41.8137 65.6927 41.8722 65.6342C41.9306 65.5758 42.0099 65.543 42.0925 65.543H43.9514C44.0341 65.543 44.1133 65.5758 44.1717 65.6342C44.2302 65.6927 44.263 65.7719 44.263 65.8546C44.263 65.9372 44.2302 66.0165 44.1717 66.0749C44.1133 66.1333 44.0341 66.1661 43.9514 66.1661H43.9727ZM39.0155 66.1661H37.1342C37.0516 66.1661 36.9723 66.1333 36.9139 66.0749C36.8554 66.0165 36.8226 65.9372 36.8226 65.8546C36.8226 65.7719 36.8554 65.6927 36.9139 65.6342C36.9723 65.5758 37.0516 65.543 37.1342 65.543H38.9931C39.0758 65.543 39.155 65.5758 39.2134 65.6342C39.2719 65.6927 39.3047 65.7719 39.3047 65.8546C39.3047 65.9372 39.2719 66.0165 39.2134 66.0749C39.155 66.1333 39.0758 66.1661 38.9931 66.1661H39.0155ZM34.0584 66.1661H32.1759C32.0933 66.1661 32.014 66.1333 31.9556 66.0749C31.8971 66.0165 31.8643 65.9372 31.8643 65.8546C31.8643 65.7719 31.8971 65.6927 31.9556 65.6342C32.014 65.5758 32.0933 65.543 32.1759 65.543H34.0348C34.1175 65.543 34.1967 65.5758 34.2551 65.6342C34.3136 65.6927 34.3464 65.7719 34.3464 65.8546C34.3464 65.9372 34.3136 66.0165 34.2551 66.0749C34.1967 66.1333 34.1175 66.1661 34.0348 66.1661H34.0584ZM29.1013 66.1661H27.2176C27.135 66.1661 27.0557 66.1333 26.9973 66.0749C26.9388 66.0165 26.906 65.9372 26.906 65.8546C26.906 65.7719 26.9388 65.6927 26.9973 65.6342C27.0557 65.5758 27.135 65.543 27.2176 65.543H29.0765C29.1592 65.543 29.2384 65.5758 29.2968 65.6342C29.3553 65.6927 29.3881 65.7719 29.3881 65.8546C29.3881 65.9372 29.3553 66.0165 29.2968 66.0749C29.2384 66.1333 29.1592 66.1661 29.0765 66.1661H29.1013ZM24.1442 66.1661H22.2581C22.1755 66.1661 22.0962 66.1333 22.0378 66.0749C21.9794 66.0165 21.9465 65.9372 21.9465 65.8546C21.9465 65.7719 21.9794 65.6927 22.0378 65.6342C22.0962 65.5758 22.1755 65.543 22.2581 65.543H24.1182C24.2009 65.543 24.2801 65.5758 24.3385 65.6342C24.397 65.6927 24.4298 65.7719 24.4298 65.8546C24.4298 65.9372 24.397 66.0165 24.3385 66.0749C24.2801 66.1333 24.2009 66.1661 24.1182 66.1661H24.1442Z" fill="white"/>
<path d="M132.729 89.6465H106.216C105.162 89.6465 104.307 90.5015 104.307 91.5561V107.176C104.307 108.23 105.162 109.085 106.216 109.085H132.729C133.783 109.085 134.638 108.23 134.638 107.176V91.5561C134.638 90.5015 133.783 89.6465 132.729 89.6465Z" fill="url(#paint21_linear_7998_128664)"/>
<path d="M114.573 105.971C118.117 105.971 120.99 103.098 120.99 99.5538C120.99 96.0098 118.117 93.1367 114.573 93.1367C111.029 93.1367 108.156 96.0098 108.156 99.5538C108.156 103.098 111.029 105.971 114.573 105.971Z" fill="url(#paint22_linear_7998_128664)"/>
<path d="M117.788 102.768C119.564 100.992 119.564 98.1131 117.788 96.3371C116.012 94.5612 113.133 94.5612 111.357 96.3371C109.581 98.1131 109.581 100.992 111.357 102.768C113.133 104.544 116.012 104.544 117.788 102.768Z" fill="url(#paint23_linear_7998_128664)"/>
<path d="M117.94 99.3301C118.386 97.4402 117.215 95.5465 115.325 95.1004C113.435 94.6544 111.542 95.8248 111.096 97.7147C110.65 99.6046 111.82 101.498 113.71 101.944C115.6 102.39 117.494 101.22 117.94 99.3301Z" fill="url(#paint24_linear_7998_128664)"/>
<defs>
<linearGradient id="paint0_linear_7998_128664" x1="15.5273" y1="90.1905" x2="130.535" y2="90.1905" gradientUnits="userSpaceOnUse">
<stop stop-color="#00579E"/>
<stop offset="1" stop-color="#000064"/>
</linearGradient>
<linearGradient id="paint1_linear_7998_128664" x1="18.6432" y1="90.191" x2="127.419" y2="90.191" gradientUnits="userSpaceOnUse">
<stop stop-color="#001984"/>
<stop offset="1" stop-color="#00579E"/>
</linearGradient>
<linearGradient id="paint2_linear_7998_128664" x1="10.7178" y1="93.9932" x2="129.462" y2="93.9932" gradientUnits="userSpaceOnUse">
<stop stop-color="#00429E"/>
<stop offset="1" stop-color="#000064"/>
</linearGradient>
<linearGradient id="paint3_linear_7998_128664" x1="18.6426" y1="92.2843" x2="127.418" y2="92.2843" gradientUnits="userSpaceOnUse">
<stop stop-color="#000069"/>
<stop offset="1" stop-color="#00249E"/>
</linearGradient>
<linearGradient id="paint4_linear_7998_128664" x1="131.05" y1="31.693" x2="77.4025" y2="119.755" gradientUnits="userSpaceOnUse">
<stop stop-color="#AFEA81"/>
<stop offset="1" stop-color="#54C661"/>
</linearGradient>
<linearGradient id="paint5_linear_7998_128664" x1="129.584" y1="34.111" x2="79.332" y2="116.598" gradientUnits="userSpaceOnUse">
<stop stop-color="#18B72B"/>
<stop offset="1" stop-color="#499904"/>
</linearGradient>
<linearGradient id="paint6_linear_7998_128664" x1="20387.1" y1="20997.9" x2="11719.7" y2="35225.4" gradientUnits="userSpaceOnUse">
<stop stop-color="#AFEA81"/>
<stop offset="1" stop-color="#54C661"/>
</linearGradient>
<linearGradient id="paint7_linear_7998_128664" x1="119891" y1="43184.6" x2="119891" y2="129942" gradientUnits="userSpaceOnUse">
<stop stop-color="#18B72B"/>
<stop offset="1" stop-color="#499904"/>
</linearGradient>
<linearGradient id="paint8_linear_7998_128664" x1="104576" y1="64746.8" x2="87073.1" y2="106733" gradientUnits="userSpaceOnUse">
<stop stop-color="#AFEA81"/>
<stop offset="1" stop-color="#54C661"/>
</linearGradient>
<linearGradient id="paint9_linear_7998_128664" x1="28496.3" y1="25021.9" x2="18935.1" y2="47957.4" gradientUnits="userSpaceOnUse">
<stop stop-color="#18B72B"/>
<stop offset="1" stop-color="#499904"/>
</linearGradient>
<linearGradient id="paint10_linear_7998_128664" x1="21500.2" y1="16127.3" x2="15589.8" y2="30305.2" gradientUnits="userSpaceOnUse">
<stop stop-color="#AFEA81"/>
<stop offset="1" stop-color="#54C661"/>
</linearGradient>
<linearGradient id="paint11_linear_7998_128664" x1="70001.6" y1="75164.1" x2="36469" y2="155602" gradientUnits="userSpaceOnUse">
<stop stop-color="#18B72B"/>
<stop offset="1" stop-color="#499904"/>
</linearGradient>
<linearGradient id="paint12_linear_7998_128664" x1="96105.2" y1="43282.4" x2="85424.5" y2="87498.4" gradientUnits="userSpaceOnUse">
<stop stop-color="#AFEA81"/>
<stop offset="1" stop-color="#54C661"/>
</linearGradient>
<linearGradient id="paint13_linear_7998_128664" x1="26944.5" y1="18974.7" x2="21114.3" y2="43129" gradientUnits="userSpaceOnUse">
<stop stop-color="#18B72B"/>
<stop offset="1" stop-color="#499904"/>
</linearGradient>
<linearGradient id="paint14_linear_7998_128664" x1="20711.2" y1="11039.3" x2="17512.3" y2="24292.2" gradientUnits="userSpaceOnUse">
<stop stop-color="#AFEA81"/>
<stop offset="1" stop-color="#54C661"/>
</linearGradient>
<linearGradient id="paint15_linear_7998_128664" x1="55837.9" y1="56236" x2="35796.1" y2="139269" gradientUnits="userSpaceOnUse">
<stop stop-color="#18B72B"/>
<stop offset="1" stop-color="#499904"/>
</linearGradient>
<linearGradient id="paint16_linear_7998_128664" x1="85234.7" y1="20635.9" x2="85234.7" y2="66124.1" gradientUnits="userSpaceOnUse">
<stop stop-color="#AFEA81"/>
<stop offset="1" stop-color="#54C661"/>
</linearGradient>
<linearGradient id="paint17_linear_7998_128664" x1="25212.9" y1="12784.1" x2="25212.9" y2="37633" gradientUnits="userSpaceOnUse">
<stop stop-color="#18B72B"/>
<stop offset="1" stop-color="#499904"/>
</linearGradient>
<linearGradient id="paint18_linear_7998_128664" x1="37839.5" y1="40458.7" x2="37839.5" y2="119317" gradientUnits="userSpaceOnUse">
<stop stop-color="#18B72B"/>
<stop offset="1" stop-color="#499904"/>
</linearGradient>
<linearGradient id="paint19_linear_7998_128664" x1="12.5859" y1="99.3655" x2="127.593" y2="99.3655" gradientUnits="userSpaceOnUse">
<stop stop-color="#0052CC"/>
<stop offset="1" stop-color="#00208A"/>
</linearGradient>
<linearGradient id="paint20_linear_7998_128664" x1="10958.8" y1="28770.8" x2="35381.9" y2="28770.8" gradientUnits="userSpaceOnUse">
<stop stop-color="#00579E"/>
<stop offset="1" stop-color="#000064"/>
</linearGradient>
<linearGradient id="paint21_linear_7998_128664" x1="104.307" y1="99.366" x2="134.638" y2="99.366" gradientUnits="userSpaceOnUse">
<stop stop-color="#1270E0"/>
<stop offset="1" stop-color="#1428DD"/>
</linearGradient>
<linearGradient id="paint22_linear_7998_128664" x1="15624.6" y1="15999.1" x2="17471.4" y2="15999.1" gradientUnits="userSpaceOnUse">
<stop stop-color="#1270E0"/>
<stop offset="1" stop-color="#1428DD"/>
</linearGradient>
<linearGradient id="paint23_linear_7998_128664" x1="110.024" y1="99.5529" x2="119.12" y2="99.5529" gradientUnits="userSpaceOnUse">
<stop stop-color="#FFD217"/>
<stop offset="1" stop-color="#FF701A"/>
</linearGradient>
<linearGradient id="paint24_linear_7998_128664" x1="110.996" y1="98.5289" x2="118.027" y2="98.5289" gradientUnits="userSpaceOnUse">
<stop stop-color="#FFD217"/>
<stop offset="1" stop-color="#FF9C1A"/>
</linearGradient>
</defs>
</svg>
