<svg width="30" height="30" viewBox="0 0 30 30" fill="none" xmlns="http://www.w3.org/2000/svg">
    <path d="m8.19 17.256-1.294-1.294a1.367 1.367 0 0 1 0-1.924l1.294-1.294c.221-.221.4-.655.4-.962v-1.83c0-.75.613-1.362 1.362-1.362h1.83c.307 0 .74-.179.962-.4l1.294-1.294a1.367 1.367 0 0 1 1.924 0l1.294 1.294c.221.221.655.4.962.4h1.83c.75 0 1.362.613 1.362 1.362v1.83c0 .307.179.74.4.962l1.294 1.294a1.367 1.367 0 0 1 0 1.924l-1.294 1.294c-.221.221-.4.655-.4.962v1.83c0 .75-.613 1.362-1.362 1.362h-1.83c-.307 0-.74.179-.962.4l-1.294 1.294a1.367 1.367 0 0 1-1.924 0l-1.294-1.294c-.221-.221-.655-.4-.962-.4h-1.83c-.75 0-1.362-.613-1.362-1.362v-1.83c0-.315-.179-.75-.4-.962zM12.455 17.545l5.107-5.108M17.132 17.12h.008M12.876 12.863h.007" stroke="#D1D5DB" stroke-width="1.2" stroke-linecap="round" stroke-linejoin="round"/>
</svg>
