<svg width="40" height="40" viewBox="0 0 40 40" fill="none" xmlns="http://www.w3.org/2000/svg">
    <path d="m27 19.563-6.619 6.243A4.46 4.46 0 0 1 17.324 27a4.46 4.46 0 0 1-3.058-1.194A3.963 3.963 0 0 1 13 22.922c0-1.081.456-2.119 1.266-2.883l6.62-6.243A2.973 2.973 0 0 1 22.923 13c.764 0 1.497.286 2.038.796.54.51.844 1.202.844 1.923 0 .72-.304 1.412-.844 1.922l-6.626 6.242c-.27.255-.637.398-1.02.398-.382 0-.748-.143-1.019-.398-.27-.255-.422-.6-.422-.96 0-.361.152-.707.422-.962l6.115-5.76" stroke="#808B98" stroke-width="1.6" stroke-linecap="round" stroke-linejoin="round"/>
</svg>
