<svg width="20" height="20" viewBox="0 0 20 20" fill="none" xmlns="http://www.w3.org/2000/svg">
    <path d="M15.833 2.5H4.167c-.92 0-1.667.746-1.667 1.667v11.666c0 .92.746 1.667 1.667 1.667h11.666c.92 0 1.667-.746 1.667-1.667V4.167c0-.92-.746-1.667-1.667-1.667z" stroke="#D1D5DB" stroke-width="1.2" stroke-linecap="round" stroke-linejoin="round"/>
    <path d="M12.915 2.5v6.55c0 .367-.433.55-.7.308l-1.933-1.783a.413.413 0 0 0-.567 0L7.782 9.358a.418.418 0 0 1-.7-.308V2.5h5.833zM6.25 12.5h7.5M6.25 15h7.5" stroke="#D1D5DB" stroke-width="1.2" stroke-linecap="round" stroke-linejoin="round"/>
</svg>
