<svg width="24" height="24" viewBox="0 0 24 24" fill="none" xmlns="http://www.w3.org/2000/svg">
    <path d="M19.105 19.563v0a.897.897 0 0 0 .895-.899v0a.95.95 0 0 0-.28-.672l-.596-.596v-1.771A2.625 2.625 0 0 0 16.5 13v0a2.625 2.625 0 0 0-2.624 2.626v1.771l-.596.597a.95.95 0 0 0-.28.672v0a.898.898 0 0 0 .898.896h5.204M15.8 21.65h1.4M16 3v2.5A1.5 1.5 0 0 1 14.5 7h-5A1.5 1.5 0 0 1 8 5.5V3" stroke="#9CA3AF" stroke-width="1.4" stroke-linecap="round" stroke-linejoin="round"/>
    <path d="M10 20H5.25A2.25 2.25 0 0 1 3 17.75V5.25A2.25 2.25 0 0 1 5.25 3h13.5A2.25 2.25 0 0 1 21 5.25V12" stroke="#9CA3AF" stroke-width="1.4" stroke-linecap="round" stroke-linejoin="round"/>
</svg>
