<svg width="48" height="48" viewBox="0 0 48 48" fill="none" xmlns="http://www.w3.org/2000/svg">
    <path fill-rule="evenodd" clip-rule="evenodd" d="M37.88 38.4A19.933 19.933 0 0 1 24 44C12.954 44 4 35.046 4 24c0-5.39 2.133-10.283 5.6-13.88v2.512h8.474l-8.03 8.023 2.146 2.144 8.03-8.024v8.467h3.034v-10.61L20.22 9.6h-10.1A19.933 19.933 0 0 1 24 4c11.046 0 20 8.954 20 20 0 5.378-2.122 10.26-5.575 13.854V27.789l-3.034-3.031H24.77v3.031h8.474l-8.03 8.024 2.146 2.144 8.03-8.024V38.4h2.489zM48 24c0 13.255-10.745 24-24 24S0 37.255 0 24 10.745 0 24 0s24 10.745 24 24zm-9.575-11.368v10.61H35.39v-8.467L27.36 22.8l-2.145-2.144 8.029-8.023H24.77V9.6h10.62l3.034 3.032zM23.254 38.4V27.79l-3.034-3.032H9.6v3.031h8.474l-8.03 8.024 2.146 2.144 8.03-8.024V38.4h3.034z" fill="url(#0ftsisyi3a)"/>
    <defs>
        <linearGradient id="0ftsisyi3a" x1="24" y1="0" x2="24" y2="48" gradientUnits="userSpaceOnUse">
            <stop stop-color="#3086F6"/>
            <stop offset=".563" stop-color="#5AADFA"/>
            <stop offset="1" stop-color="#F650EF"/>
        </linearGradient>
    </defs>
</svg>
