<svg width="30" height="30" viewBox="0 0 30 30" fill="none" xmlns="http://www.w3.org/2000/svg">
    <path d="M15.002 17.384a2.384 2.384 0 1 0 0-4.768 2.384 2.384 0 0 0 0 4.768z" stroke="#D1D5DB" stroke-width="1.2" stroke-miterlimit="10" stroke-linecap="round" stroke-linejoin="round"/>
    <path d="M7.056 15.7v-1.4c0-.825.676-1.509 1.51-1.509 1.438 0 2.026-1.017 1.303-2.264a1.509 1.509 0 0 1 .556-2.058l1.375-.787c.628-.374 1.438-.151 1.812.477l.087.15c.715 1.248 1.891 1.248 2.614 0l.088-.15c.373-.628 1.184-.85 1.811-.477l1.375.787c.723.413.97 1.342.556 2.058-.723 1.247-.135 2.264 1.303 2.264.827 0 1.51.675 1.51 1.51v1.398c0 .827-.675 1.51-1.51 1.51-1.438 0-2.026 1.017-1.303 2.265a1.507 1.507 0 0 1-.556 2.058l-1.375.786c-.627.374-1.438.151-1.811-.477l-.088-.15c-.715-1.248-1.89-1.248-2.614 0l-.087.15c-.374.628-1.184.85-1.812.477l-1.375-.786a1.509 1.509 0 0 1-.556-2.058c.723-1.248.135-2.265-1.303-2.265-.834 0-1.51-.683-1.51-1.51z" stroke="#D1D5DB" stroke-width="1.2" stroke-miterlimit="10" stroke-linecap="round" stroke-linejoin="round"/>
</svg>
