<svg xmlns="http://www.w3.org/2000/svg" width="182" height="37" viewBox="0 0 182 37">
    <g fill="none" fill-rule="evenodd">
        <g>
            <g>
                <path fill="#9C5C8F" d="M.469 3.5C1.297 1.457 3.42.001 5.645.001h50.15c1.456-.04 2.912.507 3.963 1.497 1.234 1.092 1.922 2.73 1.882 4.368 0 6.41.02 12.822 0 19.232-.02 2.89-2.548 5.48-5.44 5.56-6.088.021-12.194 0-18.302.021.81 2.023 1.638 4.023 2.468 6.046-3.64-2.002-7.219-4.064-10.88-6.027-8.028-.06-16.036 0-24.064-.04-2.892-.08-5.42-2.67-5.42-5.561 0-6.268.021-12.557 0-18.826-.02-.95.062-1.902.467-2.77z" transform="translate(-1117 -422) translate(1117 422)"/>
                <path fill="#FFF" d="M24.977 3.966c.93-.992 2.69-.668 3.357.444.364.587.404 1.375.1 1.982-1.293 2.527-1.82 5.358-2.325 8.129-.586 3.62-1.072 7.28-.89 10.96.061.93-.405 2.082-1.415 2.285-.95.204-1.82-.404-2.407-1.092-2.73-2.933-4.266-6.734-5.378-10.536-1.133 2.225-2.266 4.45-3.358 6.693-.728 1.518-1.536 3.075-2.77 4.268-.526.505-1.395.971-2.042.445-.991-.869-1.254-2.265-1.679-3.478C4.553 18.504 3.643 12.782 2.712 7.08c-.222-.95.182-2.082 1.133-2.467.769-.283 1.739-.323 2.407.242.464.405.585 1.032.665 1.62.669 4.407 1.437 8.815 2.509 13.143 1.82-3.458 3.64-6.937 5.46-10.395.263-.505.587-1.01 1.092-1.334.667-.425 1.657-.404 2.204.203.465.485.626 1.172.747 1.82.548 2.871 1.276 5.702 2.347 8.411.465-4.084 1.033-8.23 2.527-12.092.326-.788.628-1.597 1.174-2.265v.001zM35.25 6.149c1.96-.242 4.084.404 5.419 1.901 1.092 1.233 1.698 2.83 1.901 4.469.344 2.77-.163 5.663-1.496 8.108-.749 1.396-1.739 2.752-3.135 3.58-2.043 1.234-4.773 1.092-6.734-.222-1.577-1.072-2.467-2.912-2.812-4.753-.726-4.145.507-8.755 3.64-11.648.91-.767 2.024-1.293 3.217-1.435zm.404 4.267c-.95.303-1.537 1.172-2.042 1.982-1.274 2.042-1.638 4.752-.628 6.975.264.587.708 1.194 1.376 1.336.728.122 1.395-.303 1.92-.747 1.174-.992 1.739-2.489 2.024-3.965.322-1.679.16-3.538-.83-4.955-.384-.606-1.153-.869-1.82-.626zM51.022 6.15c1.921-.242 4.004.364 5.359 1.779 1.214 1.294 1.86 3.034 2.042 4.773.284 2.689-.202 5.46-1.476 7.846-.767 1.436-1.78 2.83-3.195 3.66-1.96 1.174-4.55 1.072-6.47-.102-1.315-.787-2.184-2.143-2.69-3.558-1.375-4.327-.222-9.423 2.952-12.7.91-.869 2.143-1.516 3.478-1.697v-.001zm.405 4.267c-1.032.364-1.658 1.354-2.184 2.244-1.153 2.043-1.456 4.672-.405 6.836.284.586.788 1.192 1.497 1.233.769.02 1.436-.465 1.982-.971 1.173-1.152 1.698-2.79 1.881-4.387.201-1.497-.061-3.094-.93-4.348-.385-.587-1.174-.85-1.84-.607z" transform="translate(-1117 -422) translate(1117 422)"/>
                <path fill="#fff" d="M72.053 6.737c1.679-.364 3.439-.325 5.116.06v4.105c-1.374-.324-2.891-.648-4.225 0-1.578.768-2.448 2.567-2.468 4.287-.081 1.72.485 3.62 2.002 4.59 1.396.931 3.176.729 4.713.283v4.086c-2.024.585-4.227.505-6.21-.223-2.366-.89-4.266-2.933-4.973-5.36-.546-1.839-.628-3.84-.182-5.701.687-3.014 3.214-5.46 6.227-6.129v.002zm12.316-.204c2.062-.221 4.307.081 5.965 1.417 1.617 1.253 2.407 3.255 2.69 5.216.284 2.144.222 4.387-.446 6.472-.565 1.76-1.759 3.396-3.458 4.205-1.738.81-3.76.87-5.601.466-1.718-.384-3.215-1.517-4.064-3.053-1.173-2.065-1.396-4.51-1.294-6.836.1-2.002.607-4.104 1.961-5.662 1.051-1.274 2.608-2.042 4.247-2.224v-.001zm.626 3.903c-.89.223-1.395 1.092-1.616 1.922-.445 1.617-.365 3.336-.263 5.015.1.89.202 1.901.848 2.589.85.97 2.567.828 3.338-.163.525-.627.646-1.475.767-2.265.163-1.394.204-2.83 0-4.226-.141-.829-.384-1.718-.992-2.346-.524-.546-1.354-.706-2.082-.526zm80.909-3.64c1.759-.464 3.6-.384 5.358-.02.04 1.376 0 2.73.02 4.106-1.335-.325-2.81-.628-4.125-.04-1.517.686-2.427 2.304-2.548 3.922-.182 1.82.303 3.903 1.9 4.954 1.397.972 3.217.77 4.753.324-.02 1.376.04 2.75-.04 4.126-2.164.565-4.51.485-6.551-.405-2.266-.991-4.004-3.014-4.652-5.4-.506-1.82-.546-3.781-.1-5.622.748-2.85 3.133-5.196 5.985-5.945zm-70.15.142h5.844c.706 3.155 1.375 6.329 1.961 9.525.567-3.196 1.315-6.37 2.063-9.525h6.006c.768 5.723 1.557 11.445 2.326 17.167h-4.591c-.425-3.92-.81-7.845-1.254-11.767-.93 3.922-1.901 7.846-2.852 11.769h-3.133c-.992-3.924-1.983-7.867-2.994-11.79-.383 3.923-.788 7.867-1.172 11.79H93.57c.707-5.724 1.456-11.446 2.184-17.168v-.001zm20.99 0h5.864c.708 3.155 1.376 6.329 1.961 9.504.567-3.194 1.315-6.35 2.064-9.504h5.985c.769 5.723 1.557 11.445 2.325 17.167h-4.589c-.425-3.92-.83-7.845-1.235-11.767-.95 3.922-1.88 7.846-2.85 11.769h-3.135c-.992-3.924-2.002-7.867-2.992-11.79-.405 3.923-.788 7.867-1.194 11.79h-4.387c.706-5.724 1.454-11.446 2.182-17.168v-.001zm19.473.04c3.135-.06 6.27 0 9.403-.02v3.66c-1.577.02-3.153 0-4.75 0v3.135h4.104v3.559h-4.105v3.134h4.772v3.66h-9.403c0-5.682.04-11.404-.02-17.126v-.002zm10.759-.04c1.961 0 3.922-.02 5.885.02 1.839.061 3.802.526 5.196 1.82 1.254 1.153 1.68 3.053 1.193 4.652-.383 1.313-1.375 2.366-2.587 2.951 1.233 2.569 2.466 5.157 3.7 7.726h-4.894c-1.274-2.63-2.528-5.278-3.822-7.908-.041 2.63 0 5.258-.02 7.908h-4.651V6.938zm4.63 3.296v4.106c.83-.061 1.76-.102 2.468-.607.828-.587.728-1.86.223-2.63-.669-.787-1.781-.787-2.691-.869zm20.97-3.296h9.383v3.66h-4.75v3.135h4.104v3.558h-4.105v3.135H182v3.66h-9.403c-.02-5.703-.02-11.425-.02-17.148z" transform="translate(-1117 -422) translate(1117 422)"/>
            </g>
        </g>
    </g>
</svg>
