<svg width="24" height="24" viewBox="0 0 24 24" fill="none" xmlns="http://www.w3.org/2000/svg">
    <path d="M16.501 17.24a.26.26 0 1 1-.002.52.26.26 0 0 1 .002-.52" stroke="#9CA3AF" stroke-width="1.5" stroke-linecap="round" stroke-linejoin="round"/>
    <path d="M13 17.5c0 1.639 1.788 3.389 2.808 4.254.403.328.98.328 1.383 0C18.212 20.89 20 19.138 20 17.5M13 17.5v0a3.5 3.5 0 0 1 3.5-3.5v0a3.5 3.5 0 0 1 3.5 3.5v0" stroke="#9CA3AF" stroke-width="1.5" stroke-linecap="round" stroke-linejoin="round"/>
    <path d="M16 3v2.5A1.5 1.5 0 0 1 14.5 7h-5A1.5 1.5 0 0 1 8 5.5V3" stroke="#9CA3AF" stroke-width="1.4" stroke-linecap="round" stroke-linejoin="round"/>
    <path d="M10 20H5.25A2.25 2.25 0 0 1 3 17.75V5.25A2.25 2.25 0 0 1 5.25 3h13.5A2.25 2.25 0 0 1 21 5.25V12" stroke="#9CA3AF" stroke-width="1.4" stroke-linecap="round" stroke-linejoin="round"/>
</svg>
