<?xml version="1.0" encoding="utf-8"?>
<!-- Generator: Adobe Illustrator 25.1.0, SVG Export Plug-In . SVG Version: 6.00 Build 0)  -->
<svg version="1.1" id="Layer_1" xmlns="http://www.w3.org/2000/svg" xmlns:xlink="http://www.w3.org/1999/xlink" x="0px" y="0px"
	 viewBox="0 0 141.2 35.9" style="enable-background:new 0 0 141.2 35.9;" xml:space="preserve">
<style type="text/css">
	.st0{fill:#fff;}
	.st1{fill:#DE542F;}
	.st2{fill:#0C1F38;}
</style>
<g>
	<path class="st0" d="M70.4,22c0.1-1.3-0.1-2.8,0.1-4.4c0.9-5.3,7.4-7.7,11.6-4.4c0.2,0.2,0.4,0.2,0.6,0c2.2-1.7,4.7-2.1,7.2-1
		c2.6,1.1,4.1,3.1,4.4,5.8c0.3,2.4,0.1,4.9,0.1,7.3c0,1.3,0,1.3-1.3,1.3c-1,0-2,0-2.9,0c-0.5,0-0.7-0.1-0.7-0.7c0-2.4,0-4.8,0-7.2
		c0-1.7-1.3-2.6-3-2.2c-1,0.2-1.6,1.1-1.6,2.4c0,2.3,0,4.7,0,7c0,0.5-0.2,0.6-0.6,0.6c-1.2,0-2.5,0-3.7,0c-0.5,0-0.6-0.1-0.6-0.6
		c0-2.1,0-4.2,0-6.4c0-0.5,0-1-0.1-1.4c-0.3-1.1-1-1.7-2.2-1.7c-1.2,0-1.9,0.6-2.2,1.8c-0.1,0.4-0.1,0.7-0.1,1.1c0,2.3,0,4.5,0,6.8
		c0,0.4-0.1,0.6-0.5,0.5c-1.3,0-2.6,0-3.9,0c-0.4,0-0.5-0.1-0.5-0.5C70.4,24.9,70.4,23.6,70.4,22z"/>
	<path class="st0" d="M68.6,18.5c-0.4-3.2-2.2-5.4-5.3-6.4c-3-1-5.8-0.3-8,2c-1.9,2-2.5,4.4-2,7c0.4,2.5,1.8,4.3,4.2,5.2
		c2.3,0.8,4.5,0.7,6.5-1.1c0,0.4,0,0.8,0,1.2c0,0.3,0.1,0.3,0.3,0.3c1.3,0,2.7,0,4,0c0.2,0,0.3-0.1,0.3-0.3
		C68.7,23.8,68.9,21.1,68.6,18.5z M63.6,20.6c-0.4,1.2-1.5,2-2.8,1.9c-1.4-0.1-2.4-0.9-2.7-2.2C58,20,58,19.6,58,19.3
		c0-1.7,0.8-2.9,2.1-3.2c1.8-0.5,3.5,0.6,3.7,2.5C63.8,19.3,63.8,19.9,63.6,20.6z"/>
	<path class="st0" d="M107.4,12.5c-1.4-0.6-2.8-0.8-4.3-0.7c-4.5,0.3-7.3,3.6-7.3,8.2c0,1.9,1,4,3.2,5.5c1.3,0.9,2.7,1.3,4.2,1.3
		c4.3,0.2,8.2-2.4,8.4-7.2C111.9,16.5,110.2,13.7,107.4,12.5z M105.9,21.8c-1.4,1.6-4,1.1-4.8-0.8c-0.4-1-0.4-2-0.2-3
		c0.4-1.4,1.5-2.2,2.8-2.2c1.4,0,2.5,1,2.8,2.4c0.1,0.4,0.1,0.7,0.1,1C106.7,20.2,106.6,21.1,105.9,21.8z"/>
	<path class="st0" d="M132.9,13.5c-2.2-1.8-4.8-2.1-7.5-1.5c-6,1.4-6.9,7.9-4.5,11.5c1.6,2.3,3.9,3.2,6.7,3.3
		c0.6-0.1,1.3-0.1,1.9-0.2c2.9-0.7,5-2.4,5.7-5.4C136,18.2,135.3,15.5,132.9,13.5z M129.7,21.8c-1.4,1.5-3.9,1.2-4.7-0.7
		c-0.5-1.1-0.5-2.2-0.1-3.4c0.4-1.3,1.6-2,2.9-1.9c1.4,0.1,2.4,1,2.7,2.4c0.1,0.3,0.1,0.7,0.1,0.9C130.5,20.2,130.3,21.1,129.7,21.8
		z"/>
	<path class="st0" d="M27.4,22.4c0,1.3,0,2.6,0,3.9c0,0.4-0.1,0.5-0.5,0.5c-1.3,0-2.6,0-4,0c-0.4,0-0.5-0.1-0.5-0.5
		c0-2.2,0-4.3,0-6.5c0-0.5,0-0.9-0.1-1.3c-0.2-1.1-1-1.8-2.1-1.8c-1.2,0-2,0.5-2.3,1.7c-0.1,0.4-0.1,0.9-0.1,1.3c0,2.2,0,4.5,0,6.7
		c0,0.4-0.1,0.5-0.5,0.5c-1.3,0-2.7,0-4,0c-0.4,0-0.4-0.1-0.4-0.5c0-2.5,0-4.9,0-7.4c0-3.7,2.7-6.7,6.3-7.1c3.8-0.5,7.2,1.9,8,5.6
		c0.3,1.2,0.2,2.5,0.2,3.7C27.4,21.5,27.4,22,27.4,22.4z"/>
	<path class="st0" d="M36.3,11.8c1.7,0,3.4,0.2,5,0.9c0.7,0.3,0.7,0.3,0.4,0.9c-0.4,0.8-0.7,1.6-1.1,2.5c-0.1,0.3-0.3,0.3-0.6,0.2
		c-1.5-0.7-3.1-0.9-4.8-0.7c-0.2,0-0.3,0.1-0.5,0.1c-0.4,0.1-0.6,0.3-0.7,0.7c0,0.4,0.3,0.6,0.6,0.7c0.8,0.4,1.7,0.4,2.6,0.5
		c1,0.2,2,0.4,2.9,0.8c3.1,1.4,2.8,5.3,0.7,6.9c-1.1,0.8-2.3,1.2-3.6,1.4c-2.6,0.3-5.1,0.1-7.5-0.9c-0.9-0.4-0.9-0.4-0.5-1.3
		c0.3-0.8,0.7-1.5,1-2.3c0.1-0.3,0.3-0.4,0.6-0.3c1.7,0.6,3.4,0.9,5.1,0.9c0.3,0,0.7,0,1-0.2c0.2-0.1,0.4-0.2,0.5-0.5
		c0-0.3-0.2-0.4-0.4-0.6c-0.8-0.4-1.6-0.5-2.4-0.6c-0.8-0.1-1.6-0.2-2.4-0.5c-1.5-0.5-2.6-1.3-2.9-3c-0.3-1.8,0.3-3.3,1.8-4.4
		c1.2-0.8,2.5-1.2,4-1.3C35.5,11.8,35.9,11.8,36.3,11.8z"/>
	<path class="st0" d="M43.8,16c0-2,0-4.1,0-6.1c0-0.4,0.1-0.5,0.5-0.5c1.3,0,2.6,0,4,0c0.4,0,0.5,0.1,0.5,0.5c0,0.5,0,1,0,1.5
		c0,0.3,0.1,0.4,0.4,0.4c0.8,0,1.6,0,2.3,0c0.3,0,0.4,0.1,0.4,0.4c0,1,0,2.1,0,3.1c0,0.3-0.1,0.4-0.4,0.4c-0.8,0-1.6,0-2.3,0
		c-0.3,0-0.4,0.1-0.4,0.4c0,1.6,0,3.3,0,4.9c0,1.2,0.7,1.7,1.9,1.5c0.1,0,0.2-0.1,0.3-0.1c0.3,0,0.6-0.4,0.8-0.2
		c0.2,0.2,0.2,0.6,0.3,0.9c0.3,0.8,0.5,1.6,0.8,2.5c0.1,0.2,0.1,0.4-0.1,0.5c-1.5,0.8-5.3,1-7.1-0.5c-1.1-0.9-1.6-2.1-1.7-3.5
		C43.8,20.1,43.9,18,43.8,16C43.9,16,43.9,16,43.8,16z"/>
	<path class="st0" d="M113.4,32.8c-0.2,0-0.4,0-0.7,0c-0.5-1.1-0.9-2.2-1.4-3.3c-0.1-0.3-0.1-0.5,0.2-0.6c0.9-0.3,1.4-1,1.5-2
		c0.1-0.7,0.1-1.4,0.1-2.1c0-4.2,0-8.3,0-12.5c0-0.5,0.2-0.6,0.6-0.6c1.3,0,2.6,0,3.8,0c0.4,0,0.5,0.1,0.5,0.5c0,4.9,0,9.8,0,14.7
		c0,1.9-0.6,3.6-2.2,4.8C115.2,32.3,114.3,32.6,113.4,32.8z"/>
	<path class="st0" d="M11.2,12.9c0,3.5,0,6.9,0,10.4c0,0.9,0,1.8,0,2.8c0,0.5-0.2,0.8-0.7,1c-0.8,0.3-1.5,0.4-2.3,0.3
		c-0.8,0-1.5-0.1-2.2-0.5c-0.2-0.1-0.4-0.3-0.4-0.6c0-4.5,0-8.9,0-13.4c0.1-0.1,0.2,0,0.3,0c1.7,0.8,3.3,0.8,5,0
		C11.1,12.9,11.1,12.8,11.2,12.9z"/>
	<path class="st1" d="M8.5,8.7C7,8.7,5.8,7.5,5.8,6c0-1.5,1.2-2.8,2.7-2.8c1.4,0,2.7,1.3,2.7,2.8C11.2,7.5,10,8.7,8.5,8.7z"/>
	<path class="st2" d="M11.2,12.9c-1.1,0.8-2.3,0.8-3.6,0.7c-0.7-0.1-1.4-0.1-1.9-0.7c-0.1-0.4,0.2-0.7,0.5-0.8c1-0.3,2-0.5,3-0.3
		c0.5,0.1,1.1,0,1.6,0.4C11.1,12.4,11.3,12.5,11.2,12.9z"/>
</g>
</svg>
