<svg width="180" height="56" viewBox="0 0 180 56" fill="none" xmlns="http://www.w3.org/2000/svg">
<path fill-rule="evenodd" clip-rule="evenodd" d="M69.482 42.536C62.975 47.342 53.54 49.906 45.418 49.906C34.029 49.906 23.778 45.686 16.02 38.669C15.411 38.116 15.957 37.364 16.688 37.794C25.059 42.673 35.409 45.608 46.101 45.608C53.311 45.608 61.244 44.114 68.537 41.012C69.639 40.544 70.56 41.734 69.482 42.536Z" fill="#FF9900"/>
<path fill-rule="evenodd" clip-rule="evenodd" d="M72.189 39.435C71.359 38.37 66.689 38.932 64.593 39.18C63.953 39.26 63.856 38.703 64.431 38.302C68.152 35.679 74.255 36.437 74.967 37.315C75.68 38.199 74.782 44.328 71.286 47.255C70.75 47.703 70.238 47.465 70.477 46.868C71.262 44.905 73.022 40.505 72.188 39.435" fill="#FF9900"/>
<path fill-rule="evenodd" clip-rule="evenodd" d="M64.74 19.787V17.237C64.738 17.152 64.7531 17.0675 64.7847 16.9885C64.8162 16.9095 64.8633 16.8377 64.9233 16.7775C64.9833 16.7172 65.0549 16.6697 65.1337 16.6378C65.2125 16.606 65.297 16.5904 65.382 16.592H76.776C77.142 16.592 77.434 16.856 77.434 17.238V19.42C77.429 19.786 77.122 20.265 76.576 21.022L70.672 29.466C72.866 29.413 75.182 29.74 77.171 30.864C77.619 31.117 77.742 31.489 77.776 31.854V34.574C77.776 34.946 77.366 35.381 76.937 35.156C73.431 33.316 68.776 33.115 64.9 35.176C64.505 35.391 64.09 34.961 64.09 34.589V32.006C64.09 31.591 64.095 30.883 64.51 30.253L71.35 20.427H65.397C65.032 20.427 64.739 20.167 64.739 19.787H64.74ZM23.176 35.694H19.71C19.5529 35.6863 19.4038 35.6224 19.29 35.5139C19.1762 35.4054 19.1052 35.2596 19.09 35.103V17.28C19.09 16.923 19.388 16.64 19.759 16.64H22.991C23.1504 16.6455 23.3023 16.7092 23.418 16.819C23.5337 16.9288 23.6052 17.0771 23.619 17.236V19.566H23.683C24.526 17.314 26.111 16.264 28.247 16.264C30.417 16.264 31.772 17.314 32.747 19.566C33.585 17.314 35.491 16.264 37.534 16.264C38.987 16.264 40.576 16.865 41.547 18.214C42.643 19.712 42.419 21.89 42.419 23.8L42.415 35.048C42.4138 35.1343 42.3956 35.2196 42.3613 35.2988C42.3271 35.378 42.2774 35.4497 42.2153 35.5096C42.1532 35.5696 42.0799 35.6167 41.9995 35.6482C41.9191 35.6796 41.8333 35.6949 41.747 35.693H38.285C38.1189 35.684 37.9624 35.6124 37.8469 35.4928C37.7313 35.3732 37.6653 35.2143 37.662 35.048V25.602C37.662 24.85 37.73 22.975 37.564 22.262C37.305 21.065 36.531 20.728 35.526 20.728C34.688 20.728 33.81 21.289 33.454 22.188C33.098 23.087 33.132 24.592 33.132 25.602V35.048C33.1308 35.1342 33.1126 35.2194 33.0784 35.2986C33.0442 35.3777 32.9947 35.4493 32.9327 35.5093C32.8707 35.5692 32.7975 35.6163 32.7172 35.6479C32.6369 35.6794 32.5512 35.6947 32.465 35.693H29.003C28.8363 35.6854 28.6789 35.6143 28.5629 35.4944C28.4469 35.3745 28.3811 35.2148 28.379 35.048L28.374 25.602C28.374 23.615 28.701 20.689 26.238 20.689C23.748 20.689 23.846 23.541 23.846 25.602V35.048C23.8447 35.1344 23.8263 35.2196 23.792 35.2989C23.7576 35.3781 23.7079 35.4498 23.6457 35.5097C23.5835 35.5697 23.5101 35.6167 23.4297 35.6482C23.3492 35.6796 23.2633 35.6949 23.177 35.693L23.176 35.694ZM87.242 16.265C92.385 16.265 95.169 20.69 95.169 26.316C95.169 31.752 92.094 36.065 87.242 36.065C82.192 36.065 79.442 31.64 79.442 26.125C79.442 20.578 82.225 16.265 87.242 16.265V16.265ZM87.272 19.904C84.718 19.904 84.556 23.391 84.556 25.564C84.556 27.743 84.523 32.392 87.242 32.392C89.928 32.392 90.055 28.642 90.055 26.355C90.055 24.851 89.992 23.054 89.538 21.628C89.148 20.387 88.373 19.904 87.272 19.904V19.904ZM101.839 35.694H98.388C98.2217 35.6852 98.0648 35.6139 97.9489 35.4942C97.8329 35.3746 97.7666 35.2156 97.763 35.049L97.758 17.222C97.7769 17.0594 97.8559 16.9098 97.9795 16.8025C98.1031 16.6952 98.2624 16.6379 98.426 16.642H101.639C101.941 16.656 102.191 16.861 102.258 17.14V19.865H102.321C103.292 17.428 104.652 16.265 107.046 16.265C108.601 16.265 110.117 16.825 111.093 18.364C111.999 19.792 111.999 22.19 111.999 23.914V35.132C111.96 35.445 111.672 35.694 111.331 35.694H107.855C107.539 35.671 107.275 35.436 107.241 35.134V25.45C107.241 23.502 107.465 20.65 105.071 20.65C104.228 20.65 103.452 21.215 103.068 22.075C102.58 23.165 102.516 24.249 102.516 25.45V35.048C102.511 35.223 102.436 35.3888 102.31 35.5097C102.183 35.6305 102.014 35.6967 101.839 35.694V35.692V35.694ZM55.656 27.18C55.656 28.533 55.69 29.662 55.008 30.863C54.457 31.839 53.579 32.44 52.61 32.44C51.278 32.44 50.498 31.424 50.498 29.924C50.498 26.964 53.146 26.427 55.656 26.427V27.18V27.18ZM59.152 35.644C59.0399 35.7394 58.9013 35.7984 58.7548 35.8131C58.6083 35.8277 58.4608 35.7974 58.332 35.726C57.182 34.769 56.972 34.325 56.344 33.412C54.443 35.356 53.092 35.937 50.63 35.937C47.71 35.937 45.442 34.134 45.442 30.525C45.442 27.708 46.964 25.788 49.138 24.85C51.02 24.02 53.648 23.873 55.656 23.644V23.195C55.656 22.369 55.72 21.393 55.232 20.679C54.813 20.039 54.004 19.775 53.287 19.775C51.965 19.775 50.791 20.455 50.503 21.861C50.444 22.174 50.215 22.481 49.898 22.496L46.539 22.135C46.257 22.071 45.939 21.842 46.023 21.407C46.793 17.324 50.479 16.093 53.774 16.093C55.461 16.093 57.664 16.543 58.996 17.823C60.683 19.4 60.522 21.504 60.522 23.795V29.207C60.522 30.833 61.194 31.547 61.828 32.425C62.048 32.738 62.096 33.114 61.814 33.348C61.107 33.939 59.849 35.038 59.156 35.653L59.152 35.644V35.644ZM10.214 27.18C10.214 28.533 10.248 29.662 9.565 30.863C9.015 31.839 8.142 32.44 7.166 32.44C5.836 32.44 5.06 31.424 5.06 29.924C5.06 26.964 7.708 26.427 10.214 26.427V27.18ZM13.71 35.644C13.5979 35.7394 13.4593 35.7984 13.3128 35.8131C13.1663 35.8277 13.0188 35.7974 12.89 35.726C11.74 34.769 11.535 34.325 10.901 33.412C9 35.356 7.654 35.937 5.188 35.937C2.272 35.937 0 34.135 0 30.527C0 27.708 1.526 25.789 3.695 24.851C5.577 24.021 8.205 23.874 10.215 23.645V23.195C10.215 22.37 10.277 21.394 9.795 20.68C9.37 20.04 8.561 19.776 7.849 19.776C6.529 19.776 5.348 20.456 5.06 21.862C5.002 22.175 4.773 22.482 4.46 22.497L1.097 22.136C0.815 22.072 0.502002 21.843 0.580002 21.408C1.356 17.324 5.037 16.093 8.332 16.093C10.019 16.093 12.222 16.543 13.554 17.823C15.24 19.4 15.079 21.504 15.079 23.795V29.207C15.079 30.833 15.752 31.547 16.386 32.425C16.61 32.738 16.659 33.114 16.376 33.348C15.669 33.939 14.411 35.038 13.719 35.653L13.709 35.644" fill="white"/>
</svg>
