<svg width="12" height="12" viewBox="0 0 12 12" fill="none" xmlns="http://www.w3.org/2000/svg">
<path d="M7.528 11.4484L6.62267 8.06708M6.62267 8.06708L4.94933 9.55041L5.32867 3.23708L8.81333 8.51508L6.62267 8.06708ZM3.02533 6.47508C2.61828 6.0681 2.31789 5.56701 2.15077 5.01619C1.98365 4.46538 1.95495 3.88185 2.06723 3.3173C2.17951 2.75275 2.42929 2.2246 2.79445 1.77965C3.1596 1.33469 3.62887 0.986666 4.16066 0.766399C4.69246 0.546133 5.27037 0.460425 5.84321 0.516869C6.41604 0.573313 6.96611 0.770166 7.44469 1.08999C7.92327 1.40981 8.31559 1.84273 8.58688 2.3504C8.85817 2.85807 9.00007 3.42481 9 4.00041" stroke="#DFDFDF" stroke-linecap="round" stroke-linejoin="round"/>
</svg>
