<svg width="24" height="24" viewBox="0 0 24 24" fill="none" xmlns="http://www.w3.org/2000/svg">
<path d="M17.3062 11.4093H16.5561V8.52185C16.5561 8.14691 16.2562 7.84682 15.8811 7.84682H14.0999C13.725 7.84682 13.4249 8.14674 13.4249 8.52185C13.4249 8.89679 13.7248 9.19687 14.0999 9.19687H15.2249V11.4844C15.2249 12.0282 15.0749 12.5532 14.8124 13.0031C14.475 13.5843 13.9312 14.0344 13.2937 14.2781C12.9749 14.3906 12.6375 14.4657 12.2624 14.4657H11.3812L11.3813 11.3718H11.9438C12.3187 11.3718 12.6188 11.0719 12.6188 10.6968C12.6188 10.3218 12.3189 10.0218 11.9438 10.0218L10.6874 10.0219H8.39996V6.62815C8.39996 6.25321 8.10004 5.95312 7.72494 5.95312H3.67503C3.30009 5.95312 3 6.25304 3 6.62815V10.6969C3 11.0719 3.29992 11.372 3.67503 11.372H6.20622C5.19378 12.3094 4.55628 13.6406 4.55628 15.1218C4.55628 15.4968 4.8562 15.7969 5.23131 15.7969H5.75627C5.75627 15.8719 5.73759 15.9469 5.73759 16.0219C5.73759 17.1282 6.63749 18.0282 7.74383 18.0282C8.84996 18.0282 9.7499 17.1094 9.7499 16.0031C9.7499 15.9281 9.7499 15.8531 9.73122 15.7781L10.6873 15.7782H15.9936C15.9749 15.8719 15.9749 15.9469 15.9749 16.0408C15.9749 17.1471 16.8748 18.047 17.9812 18.047C19.0874 18.047 19.9874 17.1471 19.9874 16.0408C19.9874 15.9471 19.9874 15.8721 19.9687 15.7782H20.325C20.6999 15.7782 21 15.4783 21 15.1032C20.9998 13.0783 19.3499 11.4095 17.3061 11.4095L17.3062 11.4093ZM18.6562 16.0406C18.6562 16.4155 18.3563 16.7156 17.9812 16.7156C17.6062 16.7156 17.3062 16.4157 17.3062 16.0406C17.3062 15.9469 17.3248 15.853 17.3623 15.778H18.5999C18.6374 15.8719 18.6562 15.9469 18.6562 16.0406H18.6562ZM15.3563 14.447C15.8062 13.9782 16.1625 13.397 16.35 12.7595H17.3063C18.3751 12.7595 19.275 13.472 19.5749 14.447H15.3563ZM8.39993 16.0031C8.39993 16.378 8.10001 16.6781 7.7249 16.6781C7.34996 16.6781 7.04987 16.3782 7.04987 16.0031C7.04987 15.928 7.06855 15.853 7.08738 15.778H8.34358C8.38125 15.8532 8.39992 15.9282 8.39992 16.0031H8.39993ZM5.94374 14.447C6.2625 12.7033 7.79991 11.372 9.63744 11.372H10.0312V14.447H5.94374ZM4.33129 7.30338H7.06872V10.0408H4.33129V7.30338Z" fill="#D1D5DB"/>
</svg>
