<svg width="24" height="24" viewBox="0 0 24 24" fill="none" xmlns="http://www.w3.org/2000/svg">
    <g clip-path="url(#nqm6ovvoka)">
        <path d="M.844 11.899c0 1.964.515 3.883 1.495 5.574L.75 23.25l5.939-1.55a11.238 11.238 0 0 0 5.353 1.357h.005c6.174 0 11.2-5.002 11.203-11.15a11.055 11.055 0 0 0-3.278-7.887A11.158 11.158 0 0 0 12.047.75C5.872.75.847 5.751.844 11.899" fill="#fff"/>
        <path d="M.1 11.892c0 2.096.55 4.142 1.595 5.946L0 24l6.335-1.654a11.985 11.985 0 0 0 5.71 1.448h.005c6.586 0 11.947-5.335 11.95-11.893a11.794 11.794 0 0 0-3.497-8.413A11.902 11.902 0 0 0 12.05 0C5.463 0 .103 5.335.1 11.892zm3.773 5.635-.237-.374a9.826 9.826 0 0 1-1.518-5.26c.002-5.45 4.457-9.885 9.936-9.885a9.89 9.89 0 0 1 7.022 2.9 9.803 9.803 0 0 1 2.906 6.993c-.002 5.45-4.457 9.884-9.932 9.884h-.004a9.955 9.955 0 0 1-5.055-1.378l-.363-.214-3.759.981 1.004-3.647z" fill="url(#ct6s86c6pb)"/>
        <path fill-rule="evenodd" clip-rule="evenodd" d="M12.953 15.048h2.619c.867 0 1.57-.704 1.57-1.572v-4.19c0-.868-.703-1.572-1.57-1.572H9.286c-.868 0-1.572.704-1.572 1.572v4.19c0 .868.704 1.572 1.572 1.572h1.047v2.095l2.62-2.095" fill="#fff"/>
        <path fill-rule="evenodd" clip-rule="evenodd" d="M12.953 15.048h2.619c.867 0 1.57-.704 1.57-1.572v-4.19c0-.868-.703-1.572-1.57-1.572H9.286c-.868 0-1.572.704-1.572 1.572v4.19c0 .868.704 1.572 1.572 1.572h1.047v2.095l2.62-2.095" fill="url(#q732sirq5c)"/>
        <path fill-rule="evenodd" clip-rule="evenodd" d="M9.34 10.286c0-.207.167-.375.374-.375h5.143a.375.375 0 0 1 0 .75H9.714a.375.375 0 0 1-.375-.375zm0 2c0-.207.167-.375.374-.375h3.429a.375.375 0 0 1 0 .75H9.714a.375.375 0 0 1-.375-.375z" fill="#fff"/>
    </g>
    <defs>
        <linearGradient id="ct6s86c6pb" x1="1200" y1="2400" x2="1200" y2="0" gradientUnits="userSpaceOnUse">
            <stop stop-color="#1FAF38"/>
            <stop offset="1" stop-color="#60D669"/>
        </linearGradient>
        <linearGradient id="q732sirq5c" x1="479.143" y1="950.571" x2="479.143" y2="7.714" gradientUnits="userSpaceOnUse">
            <stop stop-color="#1FAF38"/>
            <stop offset="1" stop-color="#60D669"/>
        </linearGradient>
        <clipPath id="nqm6ovvoka">
            <path fill="#fff" d="M0 0h24v24H0z"/>
        </clipPath>
    </defs>
</svg>
