<svg width="30" height="30" viewBox="0 0 30 30" fill="none" xmlns="http://www.w3.org/2000/svg">
<path d="M12.75 22.5H17.25C21 22.5 22.5 21 22.5 17.25V12.75C22.5 9 21 7.5 17.25 7.5H12.75C9 7.5 7.5 9 7.5 12.75V17.25C7.5 21 9 22.5 12.75 22.5Z" stroke="#D1D5DB" stroke-linecap="round" stroke-linejoin="round"/>
<path d="M17.6775 19.875V18.2" stroke="#D1D5DB" stroke-miterlimit="10" stroke-linecap="round" stroke-linejoin="round"/>
<path d="M17.6775 11.5875V10.125" stroke="#D1D5DB" stroke-miterlimit="10" stroke-linecap="round" stroke-linejoin="round"/>
<path d="M17.6775 15.4874C18.7545 15.4874 19.6275 14.6144 19.6275 13.5374C19.6275 12.4604 18.7545 11.5874 17.6775 11.5874C16.6006 11.5874 15.7275 12.4604 15.7275 13.5374C15.7275 14.6144 16.6006 15.4874 17.6775 15.4874Z" stroke="#D1D5DB" stroke-miterlimit="10" stroke-linecap="round" stroke-linejoin="round"/>
<path d="M12.3225 19.8751V18.4126" stroke="#D1D5DB" stroke-miterlimit="10" stroke-linecap="round" stroke-linejoin="round"/>
<path d="M12.3225 14.3V10.125" stroke="#D1D5DB" stroke-miterlimit="10" stroke-linecap="round" stroke-linejoin="round"/>
<path d="M12.3226 18.4125C13.3995 18.4125 14.2726 17.5394 14.2726 16.4625C14.2726 15.3855 13.3995 14.5125 12.3226 14.5125C11.2456 14.5125 10.3726 15.3855 10.3726 16.4625C10.3726 17.5394 11.2456 18.4125 12.3226 18.4125Z" stroke="#D1D5DB" stroke-miterlimit="10" stroke-linecap="round" stroke-linejoin="round"/>
</svg>
