<svg width="24" height="24" viewBox="0 0 24 24" fill="none" xmlns="http://www.w3.org/2000/svg">
    <path fill-rule="evenodd" clip-rule="evenodd" d="M4.507.754a2.26 2.26 0 0 0-2.25 2.25v18.028a2.26 2.26 0 0 0 2.253 2.25h15.017a2.262 2.262 0 0 0 2.254-2.25V8.262h-5.256a2.268 2.268 0 0 1-2.253-2.253V.754H4.507zM15.774.89v5.12c0 .427.323.75.751.75h5.12a2.23 2.23 0 0 0-.52-.844L16.62 1.409a2.227 2.227 0 0 0-.845-.519zM8.94 12.77a.751.751 0 0 1 .077 0h2.999a.751.751 0 1 1 0 1.502h-3a.753.753 0 0 1-.076-1.502zm0 3.004a.751.751 0 0 1 .077 0h6.003a.751.751 0 1 1 0 1.502H9.017a.753.753 0 0 1-.077-1.502z" fill="#808B98"/>
</svg>
