<svg width="20" height="20" viewBox="0 0 20 20" fill="none" xmlns="http://www.w3.org/2000/svg">
<path d="M7.79443 13.6819C8.06671 13.6097 8.3378 13.5351 8.59499 13.417C8.62429 13.4037 8.6604 13.4049 8.69325 13.3992C8.8575 13.5561 9.02087 13.5324 9.19667 13.4111C9.33429 13.3161 9.47605 13.227 9.60331 13.1184C9.99397 12.7839 10.2677 12.3811 10.3121 11.854C10.3527 11.3755 10.1772 10.9534 9.93153 10.5613C9.44527 9.78501 8.76546 9.21323 7.9723 8.77048C7.07733 8.2709 6.11784 7.93825 5.12698 7.69024C5.01747 7.66271 4.97693 7.61506 4.97989 7.49994C4.98758 7.20013 4.98196 6.89974 4.98285 6.59964C4.98344 6.39602 4.98403 6.39602 5.18202 6.39602C8.0818 6.39602 10.9813 6.39661 13.8811 6.39691C14.8459 6.39691 15.811 6.39839 16.7758 6.39454C16.8992 6.39395 16.9501 6.42118 16.9427 6.5585C16.9303 6.78905 16.9415 7.02078 16.9415 7.25193C16.941 9.93358 16.9442 12.6152 16.9371 15.2966C16.935 16.1063 16.3579 16.6604 15.5494 16.6604C13.7869 16.6604 12.0245 16.6604 10.2621 16.6604C8.95251 16.6604 7.6429 16.6642 6.33359 16.6568C5.57742 16.6527 5.00238 16.0945 4.98521 15.3573C4.97515 14.9196 4.9861 14.4815 4.98107 14.0435C4.97959 13.9269 5.01274 13.905 5.12668 13.9281C5.63484 14.0305 6.14891 14.0716 6.66802 14.0577C6.93379 14.0506 7.19808 14.0317 7.46237 14.0021C7.72518 13.9728 7.82166 13.8876 7.79502 13.6822L7.79443 13.6819ZM16.4973 8.41799C16.5068 7.4878 15.7494 6.7192 14.8092 6.70796C13.8491 6.69642 13.1012 7.4369 13.0846 8.3659C13.0654 9.42306 13.8754 10.0946 14.7512 10.1117C15.7195 10.1307 16.4878 9.37985 16.4976 8.41799H16.4973Z" fill="url(#paint0_linear_215_62669)"/>
<path d="M2.21091 11.9032C2.0106 11.2355 2.96207 11.1242 3.46285 11.152L1.54322 10.0669L0.958984 9.14881L1.04245 8.14726L1.87707 7.64648L4.38095 7.81341L8.13678 9.14881L9.88949 10.8181L10.0564 12.07L9.22179 13.2385C8.69319 13.4332 7.61931 13.8227 7.55254 13.8227H5.79982L4.29749 13.4889L2.96209 12.9046C2.79516 12.8212 2.41122 12.5041 2.21091 11.9032Z" fill="white"/>
<path d="M7.79416 13.6818C7.8208 13.8872 7.72461 13.9725 7.46151 14.0018C7.19722 14.0314 6.93293 14.0503 6.66716 14.0574C6.14835 14.0713 5.63428 14.0305 5.12582 13.9278C5.01188 13.9047 4.97873 13.9266 4.98021 14.0432C4.98524 14.4809 4.974 14.9192 4.98436 15.3569C5.00152 16.0942 5.57656 16.6523 6.33273 16.6565C7.64234 16.6639 8.95165 16.6597 10.2613 16.66C12.0237 16.6603 13.7861 16.66 15.5485 16.66C16.3571 16.66 16.9342 16.106 16.9362 15.2963C16.9434 12.6146 16.9401 9.93295 16.9407 7.25159C16.9407 7.02045 16.9294 6.78871 16.9419 6.55816C16.9493 6.42084 16.8984 6.39391 16.775 6.3942C15.8101 6.39805 14.845 6.39657 13.8802 6.39657C10.9804 6.39657 8.08095 6.39598 5.18117 6.39568C4.98317 6.39568 4.98258 6.39568 4.98199 6.5993C4.9814 6.8994 4.98702 7.1998 4.97903 7.4996C4.97607 7.61443 5.01662 7.66238 5.12612 7.6899C6.11698 7.93791 7.07647 8.27027 7.97144 8.77014C8.7646 9.21289 9.44471 9.78468 9.93067 10.561C10.1763 10.9531 10.3518 11.3748 10.3113 11.8537C10.2666 12.3811 9.99312 12.7839 9.60246 13.118C9.47549 13.2266 9.33343 13.3157 9.19581 13.4107C9.02001 13.5321 8.85665 13.5558 8.69239 13.3989C8.63527 13.1518 8.65392 13.1092 8.86996 12.981C9.10318 12.8431 9.32662 12.6916 9.50035 12.48C9.85076 12.0535 9.87474 11.5113 9.55717 10.97C9.13425 10.2493 8.52843 9.71217 7.81518 9.29457C6.716 8.65117 5.51145 8.29898 4.27199 8.05245C3.69724 7.93821 3.11599 7.87606 2.5291 7.88405C2.26837 7.8876 2.00941 7.92252 1.75962 8.00065C1.19967 8.17556 1.01707 8.55261 1.2198 9.10753C1.3953 9.58876 1.76021 9.91016 2.16271 10.1904C2.87389 10.6859 3.66143 10.9978 4.52237 11.1106C4.99235 11.1721 5.4644 11.1742 5.93438 11.1023C6.13267 11.0718 6.24158 11.1117 6.31409 11.2473C6.40643 11.4195 6.34339 11.5622 6.15161 11.5965C5.76834 11.6646 5.38064 11.6927 4.99235 11.6782C4.26578 11.651 3.55696 11.5264 2.89579 11.2112C2.23374 10.8957 1.59921 10.5349 1.11443 9.96492C0.75544 9.54259 0.576979 9.05751 0.63617 8.49816C0.689146 7.9974 1.00996 7.7195 1.44946 7.55051C1.75429 7.43331 2.07452 7.38507 2.39977 7.37204C3.05088 7.346 3.69754 7.38951 4.3368 7.51854C4.454 7.54222 4.49396 7.52417 4.48863 7.39187C4.4765 7.10213 4.47886 6.81121 4.48685 6.52117C4.48981 6.41315 4.47087 6.36934 4.35338 6.38829C4.25127 6.40456 4.14769 6.38385 4.04884 6.35277C3.7076 6.24563 3.55548 5.93754 3.6635 5.56612C3.8467 4.93662 4.03167 4.30771 4.21931 3.6797C4.3516 3.23547 4.70971 2.97266 5.17199 2.97266C9.02653 2.97266 12.8808 2.97266 16.7353 2.97266C17.2215 2.97266 17.5758 3.24316 17.7099 3.709C17.8963 4.35773 18.0952 5.00292 18.2719 5.65431C18.3696 6.01479 18.1263 6.33235 17.7569 6.37941C17.6519 6.39273 17.5027 6.34123 17.4524 6.41847C17.4003 6.49868 17.4465 6.63778 17.4317 6.74876C17.4116 6.90088 17.482 6.9657 17.6051 7.05004C18.0215 7.33623 18.4193 7.64965 18.8239 7.95301C18.8984 8.00894 18.9724 8.06517 19.0455 8.12288C19.4918 8.47774 19.4838 9.03798 19.0269 9.38543C18.7141 9.62309 18.4012 9.86044 18.0866 10.0957C17.891 10.2422 17.7143 10.416 17.4826 10.5101C17.4047 10.5417 17.4352 10.6107 17.4352 10.6643C17.4338 12.1748 17.4332 13.6851 17.4352 15.1956C17.4355 15.4576 17.4139 15.7145 17.3204 15.9616C17.0484 16.6813 16.376 17.1463 15.6062 17.1463C12.5099 17.1463 9.41364 17.1463 6.31734 17.1463C5.2883 17.1463 4.47206 16.3164 4.48271 15.2868C4.48745 14.8245 4.48123 14.3619 4.48774 13.8994C4.48922 13.7993 4.45075 13.7697 4.36285 13.7422C3.77212 13.5572 3.19885 13.3302 2.68892 12.9724C2.37462 12.7522 2.11033 12.4868 2.01237 12.0952C1.98307 11.978 1.98839 11.8608 1.99402 11.7433C2.0023 11.5782 2.0834 11.4953 2.22368 11.498C2.38024 11.5009 2.52082 11.6134 2.50513 11.7575C2.4708 12.0724 2.65163 12.2669 2.86561 12.4385C3.35186 12.8286 3.91832 13.058 4.51112 13.229C5.25131 13.4424 6.00511 13.5637 6.77785 13.5341C6.98857 13.5262 7.19929 13.5019 7.40912 13.4785C7.62517 13.4545 7.682 13.4812 7.79416 13.6818ZM10.942 5.89138V5.89256C11.8819 5.89256 12.8219 5.89256 13.7618 5.89256C15.0267 5.89256 16.2914 5.89374 17.5563 5.89345C17.7939 5.89345 17.8256 5.84817 17.7578 5.61939C17.5853 5.03547 17.4136 4.45155 17.2396 3.86822C17.1556 3.58677 16.9943 3.47075 16.701 3.47075C15.2493 3.47134 13.7973 3.47164 12.3457 3.47164C9.96382 3.47164 7.58196 3.47164 5.19981 3.47164C4.97429 3.47164 4.77008 3.58173 4.72747 3.74865C4.70349 3.84247 4.66561 3.92948 4.63838 4.02064C4.47768 4.55691 4.31964 5.09407 4.16249 5.63153C4.0959 5.85912 4.12046 5.89108 4.35752 5.89138C6.55233 5.89138 8.74744 5.89138 10.9422 5.89138H10.942ZM17.4432 9.96107C17.896 9.61717 18.3287 9.29487 18.754 8.96251C18.9316 8.82371 18.9186 8.65531 18.7312 8.5097C18.4637 8.30164 18.1917 8.09862 17.9215 7.89381C17.7676 7.77721 17.6131 7.66179 17.4432 7.53423V9.96077V9.96107Z" fill="#282525"/>
<path d="M16.497 8.41915C16.4873 9.381 15.719 10.1318 14.7506 10.1129C13.8752 10.0957 13.0651 9.42392 13.0841 8.36706C13.1009 7.43805 13.8485 6.69786 14.8086 6.70911C15.7489 6.72036 16.5062 7.48896 16.4967 8.41915H16.497ZM14.7959 7.77929C14.4401 7.77633 14.1637 8.05098 14.1602 8.40997C14.1569 8.75654 14.4378 9.04924 14.7752 9.05012C15.1383 9.05101 15.428 8.77074 15.4319 8.41471C15.4354 8.06755 15.1498 7.78225 14.7959 7.77929Z" fill="#FEFEFE"/>
<path d="M10.9422 5.8923C8.74737 5.8923 6.55227 5.8923 4.35746 5.8923C4.12039 5.8923 4.09583 5.86034 4.16242 5.63245C4.31987 5.095 4.47791 4.55813 4.63832 4.02157C4.66555 3.93041 4.70372 3.8434 4.7274 3.74958C4.77002 3.58237 4.97423 3.47257 5.19975 3.47257C7.5816 3.47257 9.96345 3.47257 12.3456 3.47257C13.7973 3.47257 15.2492 3.47198 16.7009 3.47168C16.9942 3.47168 17.1555 3.58769 17.2395 3.86915C17.4139 4.45248 17.5852 5.0367 17.7578 5.62032C17.8255 5.84909 17.7936 5.89438 17.5562 5.89438C16.2913 5.89467 15.0267 5.89378 13.7618 5.89349C12.8218 5.89349 11.8818 5.89349 10.9419 5.89349V5.8923H10.9422Z" fill="url(#paint1_linear_215_62669)"/>
<path d="M17.4434 9.9617V7.53516C17.6129 7.66271 17.7677 7.77814 17.9216 7.89474C18.1921 8.09954 18.4638 8.30227 18.7314 8.51063C18.9187 8.65624 18.9314 8.82464 18.7541 8.96344C18.3289 9.2958 17.8962 9.6181 17.4434 9.962V9.9617Z" fill="#FEFEFE"/>
<path d="M14.7954 7.77834C15.1494 7.78101 15.435 8.06661 15.4314 8.41376C15.4276 8.7698 15.1381 9.05036 14.7747 9.04918C14.4373 9.04829 14.1561 8.75559 14.1597 8.40903C14.1633 8.05003 14.4397 7.77538 14.7954 7.77834ZM15.0295 7.99942C14.9091 7.99558 14.7925 8.10597 14.7871 8.22938C14.7815 8.35487 14.886 8.46881 15.0109 8.47354C15.1449 8.47858 15.2521 8.38476 15.2583 8.25631C15.2651 8.12077 15.1609 8.00386 15.0295 7.99972V7.99942Z" fill="#282525"/>
<path d="M15.0299 7.99942C15.1613 8.00386 15.2655 8.12076 15.2587 8.25601C15.2522 8.38446 15.1454 8.47827 15.0113 8.47324C14.8867 8.46851 14.7822 8.35456 14.7875 8.22908C14.7929 8.10567 14.9095 7.99527 15.0299 7.99912V7.99942Z" fill="#FEFEFE"/>
<defs>
<linearGradient id="paint0_linear_215_62669" x1="20.6562" y1="4.8089" x2="4.96523" y2="16.6606" gradientUnits="userSpaceOnUse">
<stop stop-color="#ED1D24"/>
<stop offset="1" stop-color="#FF822D"/>
</linearGradient>
<linearGradient id="paint1_linear_215_62669" x1="22.0278" y1="3.09751" x2="20.0677" y2="10.2601" gradientUnits="userSpaceOnUse">
<stop stop-color="#ED1D24"/>
<stop offset="1" stop-color="#FF822D"/>
</linearGradient>
</defs>
</svg>
