<svg width="20" height="20" viewBox="0 0 20 20" fill="none" xmlns="http://www.w3.org/2000/svg">
<g clip-path="url(#clip0_1_87274)">
<rect width="20" height="20" rx="10" fill="#EFF1F4"/>
<path d="M3.88853 7.40941C6.768 7.40921 9.64747 7.40941 12.527 7.40934C12.8941 7.40987 13.2613 7.40821 13.6283 7.41014L13.6367 7.41174C13.3558 7.61077 13.0759 7.81133 12.797 8.01321C12.3825 8.31445 11.9666 8.61389 11.5502 8.91247C11.3412 9.0604 11.1317 9.2076 10.9209 9.35287C10.8224 9.41813 10.7246 9.48431 10.6263 9.54984C10.1846 9.84011 9.73021 10.1148 9.24668 10.3305C8.98738 10.4452 8.71605 10.5401 8.43355 10.5755C8.27406 10.5938 8.10938 10.6004 7.95348 10.5554C7.83619 10.522 7.72787 10.4609 7.6345 10.383C7.54658 10.3115 7.47501 10.2232 7.39819 10.1406C7.21989 9.93833 7.04166 9.73578 6.8526 9.54346C6.52471 9.21517 6.1545 8.92929 5.75424 8.69477C5.73603 8.684 5.71762 8.67045 5.6955 8.67078C5.41772 8.66181 5.13994 8.6757 4.86282 8.69351C4.90655 8.71025 4.9528 8.71916 4.99706 8.73444C5.23643 8.81206 5.46045 8.92989 5.67536 9.05934C5.86967 9.17809 6.05661 9.30861 6.2367 9.44783C6.37918 9.55409 6.51155 9.67311 6.64174 9.79386C6.76873 9.91527 6.89161 10.0414 7.00252 10.1778C7.15217 10.3606 7.30103 10.5513 7.50153 10.6816C7.62427 10.765 7.76495 10.8201 7.90982 10.8505C8.04266 10.8807 8.17989 10.8807 8.31533 10.8744C8.47953 10.8623 8.64188 10.8293 8.79925 10.781C9.03356 10.7091 9.25911 10.6112 9.47854 10.5025C9.93309 10.2722 10.3621 9.99508 10.7783 9.70208C11.4219 9.25392 12.0473 8.78043 12.6715 8.30581C13.0685 8.0069 13.4609 7.70187 13.8628 7.40961C14.1202 7.40894 14.3776 7.40941 14.635 7.40948L14.6278 7.41579C14.5007 7.49906 14.3754 7.58525 14.2506 7.67197C13.4096 8.25099 12.5923 8.86336 11.7601 9.45474C11.5587 9.60001 11.3538 9.74023 11.1495 9.88118C10.7297 10.1681 10.3012 10.4433 9.85315 10.6841C9.61364 10.814 9.36677 10.9312 9.11132 11.0263C8.82995 11.1303 8.53522 11.2073 8.23432 11.219C7.97375 11.2303 7.70966 11.1815 7.47388 11.0691C7.24242 10.9546 7.05887 10.7649 6.90257 10.5631C6.82622 10.4684 6.7587 10.367 6.67816 10.2757C6.55648 10.1345 6.42609 10.0007 6.28794 9.87546C5.94251 9.55934 5.54817 9.30097 5.13608 9.08047C4.88329 8.94676 4.62206 8.82781 4.35119 8.73544C4.32354 8.72667 4.29444 8.73504 4.26626 8.73537C4.15395 8.74461 4.04111 8.75026 3.9294 8.76554C3.91512 8.7674 3.90076 8.76814 3.88647 8.76907C3.88834 8.38277 3.88674 7.99647 3.88727 7.61023C3.888 7.54331 3.88574 7.47626 3.88853 7.40941Z" fill="#B02925"/>
<path d="M14.1846 7.91849C14.4021 7.7592 14.6201 7.60024 14.8421 7.44727C14.8421 7.60589 14.8422 7.76445 14.8421 7.92308C14.8369 7.9274 14.8315 7.93145 14.8263 7.93537C13.9707 8.51186 13.1504 9.13833 12.3141 9.74207C12.1068 9.89478 11.8953 10.0416 11.6854 10.1906C11.2893 10.4697 10.888 10.742 10.4732 10.9925C10.2457 11.1292 10.0152 11.2611 9.77812 11.3803C9.52559 11.5064 9.26775 11.6239 8.99828 11.7092C8.69977 11.8043 8.38942 11.8723 8.07496 11.8744C7.81034 11.8805 7.54466 11.8343 7.29798 11.7384C7.05947 11.6432 6.84017 11.5007 6.65483 11.3231C6.56605 11.2384 6.49122 11.1407 6.41493 11.045C6.34496 10.9555 6.28043 10.8616 6.20467 10.7768C5.95101 10.4755 5.65051 10.2154 5.32468 9.99493C4.90044 9.70731 4.42735 9.50011 3.94422 9.33337C3.92475 9.32713 3.90468 9.32181 3.88721 9.31091C3.88794 9.21555 3.88761 9.12019 3.88727 9.02483C4.09461 9.08171 4.29756 9.15421 4.49766 9.23276C4.76906 9.34055 5.03354 9.46548 5.29026 9.60471C5.78056 9.87557 6.22368 10.2346 6.57961 10.6679C6.65377 10.7615 6.72826 10.855 6.80522 10.9464C6.95873 11.1179 7.14254 11.2637 7.34921 11.3659C7.47721 11.4258 7.61158 11.4731 7.75027 11.5012C7.92032 11.5366 8.09503 11.5469 8.26834 11.5363C8.43415 11.527 8.59783 11.4955 8.75871 11.4554C9.02878 11.3863 9.28908 11.2832 9.54002 11.1625C10.0157 10.9339 10.4621 10.6499 10.8979 10.3535C11.3016 10.0677 11.7024 9.77775 12.098 9.48077L12.1062 9.49419C12.1053 9.48928 12.1043 9.48436 12.1034 9.47957C12.1878 9.41259 12.276 9.35045 12.3612 9.2846C12.7761 8.97306 13.1898 8.65999 13.6052 8.34918C13.7986 8.20598 13.9901 8.06011 14.1846 7.91849Z" fill="#B02925"/>
<path d="M13.6539 9.08269C14.0458 8.78643 14.4421 8.49596 14.8421 8.21094C14.8416 10.0257 14.8419 11.8406 14.842 13.6555C11.1907 13.6557 7.53938 13.6554 3.88805 13.6556C3.88599 12.3762 3.88865 11.0969 3.88672 9.81754C3.92599 9.82312 3.96248 9.8396 4.00042 9.8505C4.44773 10.0035 4.87862 10.209 5.26917 10.4763C5.41158 10.5752 5.54795 10.683 5.6754 10.8006C5.78073 10.8922 5.87782 10.9928 5.9702 11.0974C6.03107 11.1612 6.08118 11.2341 6.13766 11.3017C6.20006 11.3766 6.25907 11.4543 6.32599 11.5253C6.49665 11.7083 6.69501 11.8664 6.91478 11.9865C7.14464 12.1119 7.3971 12.1949 7.65594 12.2336C7.82274 12.2611 7.9926 12.2642 8.1612 12.2559C8.32481 12.247 8.48769 12.2254 8.64804 12.1914C8.90183 12.1375 9.14745 12.0511 9.38735 11.9534C9.76753 11.7901 10.1336 11.5949 10.4846 11.3761C10.7067 11.2397 10.9227 11.0939 11.1381 10.9472C11.3448 10.8069 11.547 10.6602 11.7491 10.5134C11.94 10.3724 12.132 10.2329 12.3215 10.0899C12.7672 9.75627 13.2095 9.41815 13.6539 9.08269Z" fill="#B02925"/>
<path d="M17.9596 5.62585C17.9736 5.62738 17.9913 5.621 18.0037 5.62964C17.9933 5.63336 17.9818 5.63342 17.9713 5.63416C17.9719 5.63688 17.9732 5.64233 17.9738 5.64505C17.9606 5.64758 17.9435 5.64419 17.9364 5.65841C17.9259 5.66074 17.9158 5.663 17.9057 5.66512L17.9066 5.6717C17.8956 5.6737 17.8823 5.67343 17.8767 5.68493C17.8668 5.68772 17.854 5.68612 17.8507 5.69802C17.8389 5.70021 17.8278 5.7038 17.8192 5.71191C17.8069 5.71496 17.7947 5.71756 17.7827 5.71988C17.7815 5.73417 17.7668 5.73118 17.7569 5.73324C17.753 5.74307 17.7415 5.74327 17.7335 5.74673L17.7341 5.75238C17.7234 5.7543 17.7129 5.7565 17.7027 5.75889C17.6962 5.76952 17.6832 5.76952 17.6727 5.77218L17.6747 5.77856C17.6636 5.78069 17.6515 5.78129 17.644 5.79059C17.6154 5.80381 17.585 5.81478 17.5588 5.83179C17.5513 5.83445 17.5442 5.83704 17.5372 5.83977C17.5269 5.84668 17.5151 5.8504 17.5052 5.85738C17.4957 5.86143 17.485 5.86322 17.478 5.871C17.468 5.87339 17.457 5.87419 17.452 5.88429C17.4329 5.89067 17.4139 5.89805 17.398 5.91061C17.389 5.91459 17.3773 5.91506 17.3732 5.92496C17.363 5.92749 17.3489 5.92503 17.3459 5.93798C17.337 5.93938 17.3272 5.93945 17.3254 5.95028C17.3146 5.9528 17.3043 5.95526 17.294 5.95759L17.2957 5.96483C17.2853 5.96776 17.2691 5.96357 17.2668 5.97733C17.2374 5.98397 17.2143 6.0049 17.1857 6.01314C17.1816 6.02305 17.1693 6.02165 17.1614 6.02531L17.1631 6.03076C17.1345 6.03853 17.112 6.0598 17.0828 6.06611L17.0835 6.07089C17.0665 6.07614 17.0524 6.08777 17.0352 6.09183L17.0368 6.09748C17.0282 6.09967 17.0198 6.10206 17.0117 6.10465C17.0057 6.11342 16.9955 6.11602 16.9864 6.11941C16.9695 6.13137 16.9508 6.1414 16.9306 6.14572L16.931 6.14997C16.9232 6.15217 16.9174 6.15655 16.9138 6.16313C16.9038 6.16592 16.8933 6.16785 16.8865 6.17596C16.8783 6.17895 16.8704 6.18194 16.8625 6.1848L16.8639 6.19071C16.8534 6.1931 16.8432 6.19569 16.8333 6.19849C16.8296 6.20713 16.8209 6.20965 16.8132 6.21257C16.8056 6.21942 16.7963 6.22307 16.7872 6.2264C16.766 6.24255 16.7408 6.25311 16.7173 6.26547L16.7178 6.27059C16.7094 6.27291 16.7012 6.27537 16.6933 6.27783C16.6866 6.28667 16.6759 6.28926 16.6661 6.29199C16.6645 6.30269 16.6544 6.30269 16.6462 6.30441C16.6391 6.31199 16.6293 6.31551 16.62 6.31857C16.6121 6.32462 16.6044 6.3306 16.5966 6.33651C16.5887 6.3399 16.581 6.34356 16.5743 6.34854C16.5606 6.35638 16.5463 6.36309 16.533 6.37147C16.5263 6.37911 16.5162 6.38143 16.5074 6.38496C16.5007 6.3912 16.4923 6.39459 16.4841 6.39765L16.4843 6.40237C16.4759 6.40616 16.4641 6.40589 16.4613 6.41652C16.457 6.41705 16.4483 6.41818 16.4439 6.41872C16.4439 6.42124 16.444 6.42629 16.444 6.42888C16.4332 6.43187 16.4166 6.42882 16.4163 6.44397C16.4122 6.4443 16.4042 6.44503 16.4001 6.44536C16.3883 6.46384 16.362 6.46563 16.345 6.47846C16.3427 6.48118 16.3381 6.4865 16.3358 6.48916C16.3322 6.48942 16.325 6.48989 16.3215 6.49015C16.3187 6.50125 16.3077 6.50192 16.299 6.50451C16.2965 6.50717 16.2917 6.51248 16.2892 6.51514C16.2856 6.51561 16.2785 6.51654 16.275 6.517C16.2659 6.53149 16.2486 6.53667 16.2345 6.54451C16.2272 6.55176 16.2173 6.55495 16.208 6.55794C16.2053 6.56771 16.1951 6.56824 16.1874 6.5709C16.1746 6.58326 16.1595 6.59263 16.1429 6.59854C16.1374 6.60339 16.1315 6.60758 16.1254 6.61117L16.1253 6.61509C16.109 6.61928 16.0958 6.62971 16.0817 6.63795C16.0731 6.64486 16.0631 6.64898 16.0525 6.65064C16.0527 6.65317 16.0529 6.65822 16.053 6.66074C16.0487 6.66134 16.04 6.6626 16.0357 6.6632C16.0192 6.68101 15.9956 6.69244 15.9744 6.7044C15.9598 6.7153 15.9403 6.72029 15.9301 6.73597C15.9258 6.73637 15.9172 6.73717 15.9129 6.73756C15.9128 6.74022 15.9126 6.74547 15.9125 6.74813C15.9012 6.74926 15.891 6.75285 15.8843 6.76215C15.8791 6.76607 15.874 6.76993 15.869 6.77385C15.8595 6.77671 15.8494 6.77857 15.8431 6.78661C15.8365 6.79146 15.8301 6.79624 15.8239 6.80103C15.8169 6.80408 15.8098 6.80721 15.8033 6.81046C15.7902 6.82429 15.7734 6.83499 15.7542 6.83685C15.7541 6.83944 15.7541 6.84462 15.754 6.84721C15.7504 6.84728 15.7432 6.84748 15.7396 6.84755L15.7398 6.85399C15.7318 6.85798 15.7201 6.85864 15.7177 6.86914C15.7147 6.86921 15.7086 6.86941 15.7056 6.86954C15.7058 6.87227 15.7062 6.87785 15.7064 6.88057C15.6969 6.88257 15.6875 6.88469 15.6784 6.88702C15.6709 6.90503 15.6477 6.90476 15.637 6.91991C15.6277 6.92357 15.6183 6.92742 15.6121 6.93533C15.6038 6.93806 15.5957 6.94071 15.5879 6.94324C15.5879 6.9459 15.5881 6.95121 15.5881 6.95381C15.5837 6.95414 15.5747 6.95487 15.5703 6.9552C15.5562 6.97653 15.5263 6.97992 15.5108 7.00052C15.5077 7.00152 15.5015 7.00345 15.4984 7.00444C15.4886 7.01102 15.4787 7.0176 15.4707 7.02618C15.453 7.03096 15.4372 7.0402 15.425 7.05375C15.4164 7.05575 15.4072 7.05701 15.4058 7.06704C15.3968 7.06917 15.3872 7.0707 15.3847 7.08107C15.382 7.08133 15.3764 7.08193 15.3736 7.0822C15.3738 7.08485 15.3742 7.09024 15.3744 7.0929C15.3639 7.09515 15.3536 7.09821 15.344 7.10187C15.3379 7.10745 15.3313 7.11203 15.3247 7.11655C15.3184 7.12499 15.308 7.12732 15.2989 7.13051C15.2913 7.1424 15.2797 7.14985 15.2671 7.15503L15.2692 7.16075C15.2601 7.163 15.2487 7.16207 15.2458 7.17277C15.2294 7.17756 15.2194 7.19371 15.2016 7.19484L15.2019 7.20002C15.1937 7.20155 15.1881 7.20613 15.1855 7.21371C15.1826 7.21384 15.1766 7.21417 15.1737 7.21437C15.174 7.2175 15.1747 7.22381 15.175 7.227C15.1672 7.22747 15.1596 7.22806 15.1521 7.22866C15.1498 7.23139 15.1452 7.2369 15.1429 7.23969C15.1214 7.25165 15.1032 7.2696 15.0793 7.27677C15.0722 7.28408 15.0655 7.29153 15.0591 7.29917C15.0554 7.29944 15.0481 7.3001 15.0444 7.30037C15.0428 7.31013 15.0337 7.31253 15.0261 7.31558C15.0207 7.32216 15.013 7.32575 15.0059 7.32947C15.0017 7.33439 14.9972 7.33878 14.9922 7.34256C14.9851 7.34662 14.9783 7.35087 14.9716 7.35519C14.9633 7.36097 14.9552 7.36669 14.9472 7.3726C14.9361 7.38131 14.9248 7.38961 14.912 7.39526C14.8987 7.40483 14.8861 7.4152 14.8736 7.4255C14.8615 7.43055 14.8514 7.43839 14.8418 7.44676C14.6198 7.59974 14.4019 7.7587 14.1844 7.91799C13.9898 8.05961 13.7983 8.20547 13.6049 8.34868C13.1895 8.65949 12.7759 8.97256 12.3609 9.2841C12.2757 9.34995 12.1875 9.41209 12.1031 9.47907C12.104 9.48386 12.105 9.48877 12.1059 9.49369L12.0978 9.48027C11.7021 9.77725 11.3013 10.0672 10.8977 10.353C10.4618 10.6494 10.0154 10.9334 9.53972 11.162C9.28879 11.2827 9.02849 11.3858 8.75842 11.4549C8.59753 11.495 8.43386 11.5265 8.26805 11.5358C8.09474 11.5464 7.92003 11.5361 7.74997 11.5007C7.61128 11.4726 7.47691 11.4253 7.34892 11.3654C7.14225 11.2632 6.95843 11.1174 6.80493 10.9459C6.72797 10.8545 6.65348 10.761 6.57931 10.6674C6.22338 10.2341 5.78027 9.87507 5.28996 9.60421C5.03325 9.46498 4.76876 9.34005 4.49736 9.23226C4.29727 9.15371 4.09432 9.08121 3.88698 9.02433C3.88432 9.02379 3.87901 9.02266 3.87635 9.02213L3.87794 9.01582C3.85588 9.01436 3.83408 9.01057 3.81229 9.00764L3.81308 9.0008C3.7966 8.99748 3.77833 8.99874 3.76404 8.98884C3.7439 8.98412 3.72337 8.98226 3.7029 8.98027C3.69659 8.96578 3.67971 8.97116 3.66735 8.96917C3.65087 8.95202 3.62143 8.95933 3.5995 8.95455L3.60056 8.94757C3.58654 8.94558 3.57245 8.94378 3.5583 8.94318C3.55816 8.94119 3.5579 8.93714 3.55777 8.93514C3.54155 8.93209 3.51822 8.94132 3.50846 8.92391C3.47563 8.92218 3.44313 8.91654 3.41037 8.91434C3.39183 8.89514 3.3592 8.91162 3.33827 8.8956C3.31514 8.89241 3.29188 8.89075 3.26875 8.88769C3.24403 8.87567 3.21539 8.87879 3.18921 8.87214C3.21234 8.86729 3.23566 8.86324 3.25932 8.86164L3.25972 8.85527C3.28251 8.85387 3.30524 8.85128 3.32803 8.85002L3.32644 8.84284C3.36192 8.84337 3.39681 8.83559 3.43223 8.83533V8.82848C3.45928 8.82862 3.48586 8.8231 3.51284 8.82224L3.51171 8.81506C3.54288 8.81566 3.57365 8.80928 3.60481 8.80861L3.60515 8.80184C3.63419 8.80124 3.66296 8.79619 3.69207 8.79586L3.6918 8.78908C3.71898 8.79014 3.74563 8.78336 3.77281 8.78389L3.77162 8.77632C3.81268 8.77824 3.85329 8.77 3.89429 8.77014C3.90619 8.77007 3.91788 8.76768 3.92944 8.76515C4.04115 8.74987 4.15399 8.74422 4.2663 8.73498C4.29448 8.73465 4.32359 8.72628 4.35123 8.73505C4.6221 8.82742 4.88333 8.94637 5.13612 9.08008C5.54821 9.30058 5.94255 9.55895 6.28798 9.87507C6.42614 10.0003 6.55652 10.1341 6.6782 10.2753C6.75874 10.3666 6.82626 10.468 6.90261 10.5627C7.05891 10.7645 7.24246 10.9542 7.47392 11.0687C7.7097 11.1811 7.97379 11.2299 8.23436 11.2186C8.53526 11.2069 8.82999 11.1299 9.11136 11.0259C9.36681 10.9308 9.61369 10.8136 9.85319 10.6837C10.3013 10.4429 10.7298 10.1677 11.1495 9.88079C11.3539 9.73984 11.5587 9.59962 11.7601 9.45435C12.5923 8.86297 13.4096 8.2506 14.2506 7.67158C14.3755 7.58486 14.5007 7.49867 14.6279 7.4154C14.6325 7.41267 14.6364 7.40902 14.6397 7.4045C14.6476 7.40118 14.6549 7.39633 14.6612 7.39008C14.6644 7.38908 14.6707 7.38716 14.6739 7.38622C14.6899 7.36828 14.7133 7.35825 14.7335 7.34536C14.7398 7.34064 14.7463 7.33599 14.7531 7.33147C14.7654 7.32117 14.779 7.31259 14.7936 7.30568C14.8042 7.29744 14.8162 7.29113 14.8272 7.28329C14.8302 7.28229 14.8361 7.28036 14.8391 7.27943C14.847 7.26554 14.8626 7.2599 14.8729 7.24827C14.876 7.24747 14.8823 7.24581 14.8854 7.24494C14.8949 7.23777 14.905 7.23092 14.9128 7.22155C14.9165 7.22109 14.9238 7.22009 14.9274 7.21962C14.9298 7.2163 14.9344 7.20959 14.9366 7.2062C14.947 7.20274 14.9615 7.20274 14.9652 7.18965C14.9694 7.18905 14.9781 7.18793 14.9824 7.18733C14.9823 7.18454 14.9821 7.17902 14.9821 7.1763C14.9862 7.17556 14.9945 7.1741 14.9987 7.17337C15.0032 7.16626 15.0106 7.16241 15.0179 7.15829C15.0245 7.1535 15.0318 7.15005 15.0396 7.14672C15.042 7.13702 15.0511 7.13596 15.0597 7.13403C15.0628 7.12526 15.0713 7.12287 15.0794 7.11994C15.0855 7.11502 15.0918 7.11011 15.0982 7.10506C15.1045 7.10021 15.1117 7.09688 15.1193 7.09343C15.1237 7.08419 15.1339 7.08319 15.1428 7.0804C15.1449 7.07741 15.1489 7.07156 15.1509 7.06857C15.1553 7.06844 15.164 7.06817 15.1684 7.06804C15.1683 7.06512 15.1681 7.0592 15.168 7.05628C15.1725 7.05595 15.1815 7.05515 15.186 7.05475C15.187 7.04345 15.1968 7.04226 15.206 7.04053C15.2077 7.03023 15.217 7.0293 15.2258 7.02757C15.2282 7.01787 15.2388 7.0174 15.2464 7.01375C15.2571 6.99235 15.2865 6.9968 15.2973 6.97693C15.3017 6.97633 15.3102 6.97514 15.3145 6.97454C15.3144 6.97188 15.3143 6.96657 15.3141 6.96391C15.3186 6.96331 15.3274 6.96205 15.3319 6.96145C15.3401 6.9465 15.3579 6.94198 15.3717 6.93347C15.3781 6.92875 15.3849 6.9243 15.3919 6.91998C15.4156 6.90915 15.4339 6.88848 15.4595 6.8817C15.4622 6.87413 15.4677 6.86968 15.4758 6.86828L15.4752 6.86336C15.4854 6.8611 15.4956 6.85785 15.5045 6.8516C15.5089 6.84675 15.5134 6.8419 15.518 6.83698C15.524 6.83552 15.5303 6.83406 15.5368 6.83259C15.5503 6.81771 15.5717 6.81239 15.5835 6.79618C15.5881 6.79584 15.5972 6.79518 15.6018 6.79485C15.6014 6.79192 15.6008 6.78608 15.6004 6.78315C15.6133 6.78029 15.6262 6.77717 15.6394 6.77425C15.6394 6.77225 15.6395 6.7682 15.6396 6.76621C15.6539 6.75272 15.6802 6.75564 15.689 6.73703C15.6927 6.7365 15.6999 6.7355 15.7036 6.73497C15.7064 6.72062 15.7278 6.72667 15.729 6.71085C15.7329 6.71038 15.7407 6.70945 15.7446 6.70905C15.7454 6.69517 15.7599 6.69723 15.7701 6.6945C15.7753 6.68839 15.7809 6.68247 15.7867 6.67663C15.8028 6.67197 15.8169 6.66247 15.8301 6.65204C15.8397 6.63356 15.8676 6.64107 15.8755 6.62366C15.8833 6.62134 15.8932 6.62134 15.8959 6.6115C15.9132 6.60625 15.9312 6.59921 15.943 6.58465C15.9558 6.58166 15.9681 6.57615 15.9769 6.56578C15.9804 6.56525 15.9875 6.56418 15.991 6.56359C15.9964 6.55741 16.0026 6.55176 16.0107 6.54877C16.0206 6.53667 16.0437 6.54225 16.0476 6.52491C16.0523 6.52451 16.0616 6.52365 16.0662 6.52325L16.0641 6.51534C16.0683 6.51421 16.0766 6.51195 16.0808 6.51076L16.079 6.50411C16.0897 6.50238 16.1009 6.50019 16.1083 6.49115C16.1158 6.48843 16.1248 6.4867 16.1289 6.47833C16.1503 6.47042 16.1724 6.46145 16.1892 6.44543C16.1933 6.44503 16.2016 6.44423 16.2058 6.44384C16.2057 6.44118 16.2055 6.43579 16.2054 6.43314C16.2097 6.43241 16.2184 6.43101 16.2227 6.43035C16.2313 6.42417 16.2407 6.41865 16.2489 6.41147C16.2574 6.40762 16.2705 6.40861 16.2741 6.39778C16.2839 6.39486 16.2954 6.39346 16.3013 6.38356C16.3056 6.38283 16.3143 6.3813 16.3187 6.3805C16.3186 6.37818 16.3183 6.37346 16.3181 6.37113C16.3369 6.36841 16.3569 6.36063 16.3685 6.34469C16.3729 6.34429 16.3817 6.34349 16.3862 6.34309C16.3861 6.34037 16.3859 6.33492 16.3858 6.33219C16.4087 6.33352 16.4245 6.31611 16.4453 6.30993L16.4441 6.30395C16.4534 6.30189 16.4627 6.29963 16.4723 6.29744L16.4706 6.29092C16.4811 6.28906 16.492 6.28667 16.5002 6.2787C16.5158 6.26973 16.5334 6.26374 16.5475 6.25192C16.5561 6.24873 16.565 6.24574 16.5742 6.24261C16.5802 6.23537 16.5891 6.23258 16.598 6.23005L16.5971 6.22427C16.6062 6.22214 16.6155 6.21988 16.625 6.21769L16.6243 6.21198C16.6346 6.20938 16.6456 6.20679 16.6528 6.19795C16.662 6.19516 16.6713 6.19251 16.6809 6.18978C16.6836 6.17882 16.6943 6.17875 16.7038 6.17702L16.7026 6.17038C16.7098 6.16852 16.7172 6.16672 16.7248 6.16486L16.7238 6.15881C16.7359 6.15622 16.7478 6.15303 16.7599 6.14951C16.7642 6.13987 16.7742 6.13901 16.7835 6.13695L16.7828 6.13057C16.7919 6.12864 16.8011 6.12652 16.8106 6.12452L16.8094 6.11828C16.8278 6.11349 16.8474 6.10824 16.8601 6.09289C16.8787 6.08957 16.8958 6.08113 16.9116 6.07069L16.9105 6.06591C16.9215 6.06358 16.9327 6.06112 16.944 6.05867L16.9435 6.05269C16.9636 6.04856 16.9808 6.03654 17.0002 6.02982C17.008 6.02364 17.0175 6.01979 17.0273 6.01693C17.0445 6.00537 17.0644 5.99852 17.0836 5.99095L17.0822 5.9851C17.0924 5.98224 17.1088 5.98663 17.1119 5.97287C17.1236 5.97002 17.1385 5.97128 17.1454 5.95898C17.1547 5.95653 17.164 5.9542 17.1737 5.95174C17.1818 5.9425 17.1942 5.94091 17.2056 5.93725C17.2127 5.92888 17.2235 5.92675 17.2337 5.92356C17.2428 5.91566 17.2543 5.91213 17.2665 5.91134C17.2799 5.89479 17.3036 5.8918 17.3229 5.88535L17.3219 5.87931C17.333 5.87698 17.3443 5.87459 17.3558 5.8722L17.3546 5.86515C17.3658 5.86309 17.3772 5.8609 17.3888 5.85884L17.3878 5.85219C17.3985 5.85013 17.4109 5.84973 17.4182 5.83977C17.4399 5.83551 17.4591 5.82382 17.4805 5.81797C17.4894 5.81006 17.5008 5.80707 17.5123 5.80415C17.5204 5.79843 17.5295 5.79451 17.5391 5.79112C17.5517 5.78301 17.5668 5.78109 17.5816 5.77903L17.5811 5.77291C17.5912 5.77059 17.6014 5.76799 17.6119 5.76534C17.6206 5.7547 17.6349 5.75457 17.6476 5.75185L17.6464 5.74606C17.669 5.74022 17.6902 5.72952 17.7132 5.72433C17.7244 5.71609 17.7379 5.71337 17.7516 5.71118C17.7605 5.70646 17.7707 5.70267 17.7769 5.6939C17.7914 5.69157 17.8061 5.68911 17.8209 5.68639L17.8204 5.68001C17.8444 5.67802 17.8645 5.66273 17.8884 5.65967L17.8861 5.65243C17.8976 5.6519 17.9089 5.6513 17.9208 5.65077C17.9207 5.64798 17.9204 5.64253 17.9202 5.63974C17.9339 5.63914 17.9476 5.63848 17.9617 5.63801C17.9612 5.63495 17.9601 5.62884 17.9596 5.62585Z" fill="#FEE801"/>
<path d="M19.1038 5.81328C19.1414 5.81095 19.1753 5.79155 19.2135 5.79102C19.2129 5.80716 19.1966 5.80976 19.1854 5.816C19.174 5.82198 19.1614 5.82471 19.1491 5.82624C19.1496 5.82823 19.1505 5.83228 19.151 5.83434C19.1414 5.83601 19.132 5.83767 19.1228 5.83926L19.1232 5.84577C19.1136 5.8477 19.1044 5.84983 19.0953 5.85189L19.0967 5.8578C19.0862 5.86059 19.0709 5.85833 19.0673 5.87096C19.0525 5.87368 19.0378 5.87654 19.0232 5.87933L19.0249 5.88465C19.014 5.88817 19.0038 5.89229 18.9946 5.89861C18.9863 5.89987 18.9782 5.901 18.9705 5.90213C18.9706 5.90459 18.9709 5.9095 18.9711 5.91203C18.9573 5.91283 18.9427 5.91249 18.9343 5.92492C18.9228 5.92771 18.9114 5.93037 18.9003 5.9331C18.8954 5.94512 18.8824 5.94353 18.8722 5.94526C18.8659 5.95855 18.8487 5.95589 18.837 5.95915L18.8389 5.96606C18.829 5.96798 18.8195 5.96991 18.81 5.97171L18.8111 5.97855C18.7962 5.98207 18.7813 5.9848 18.7664 5.98493C18.7718 5.98699 18.7774 5.98898 18.7832 5.99104C18.7729 5.99423 18.757 5.99038 18.7549 6.0042C18.7308 6.00646 18.711 6.02188 18.6874 6.02646C18.6805 6.03524 18.6691 6.0359 18.6593 6.03816C18.6532 6.04992 18.6381 6.04906 18.6275 6.05278C18.623 6.06561 18.6076 6.06208 18.5973 6.06487L18.5986 6.07125C18.5894 6.07365 18.5777 6.07252 18.5745 6.08322C18.5634 6.0872 18.5448 6.08288 18.5432 6.09837C18.5343 6.09877 18.5256 6.09923 18.5172 6.09963C18.5174 6.10235 18.5178 6.10774 18.5179 6.11046C18.4907 6.1088 18.4703 6.12867 18.4445 6.13173L18.4459 6.13904C18.436 6.1407 18.4263 6.14236 18.4169 6.14402L18.419 6.1508C18.4095 6.15266 18.3999 6.15472 18.3908 6.15671L18.3919 6.16389C18.3809 6.16655 18.3661 6.16369 18.3621 6.17685C18.3505 6.18037 18.3314 6.17525 18.3302 6.19167C18.3254 6.19167 18.3156 6.19174 18.3107 6.1918C18.3109 6.19473 18.3114 6.20064 18.3116 6.20356C18.3001 6.2043 18.2886 6.20509 18.2776 6.20596C18.2779 6.20875 18.2785 6.21446 18.2787 6.21732C18.2734 6.21745 18.2627 6.21779 18.2573 6.21792C18.2575 6.22084 18.2579 6.22662 18.2582 6.22948C18.2441 6.23227 18.2235 6.22702 18.2163 6.24237C18.2055 6.24503 18.1951 6.24769 18.1847 6.25035L18.1864 6.25719C18.1757 6.25939 18.1652 6.26191 18.1552 6.2647C18.1482 6.275 18.1363 6.27627 18.1252 6.27706C18.1252 6.27886 18.1253 6.28258 18.1254 6.28437C18.1147 6.28683 18.1009 6.28451 18.0965 6.29693C18.0881 6.29913 18.0796 6.30112 18.0716 6.30311L18.0727 6.31049C18.0646 6.31122 18.0566 6.31195 18.0489 6.31282C18.0441 6.33189 18.0167 6.32079 18.0104 6.33787C18.0067 6.33793 17.9992 6.33813 17.9955 6.3382C17.9934 6.34132 17.9891 6.3475 17.987 6.35056C17.9776 6.35156 17.9684 6.35255 17.9594 6.35355C17.9594 6.35601 17.9594 6.36099 17.9593 6.36345C17.9542 6.36379 17.9441 6.36438 17.939 6.36472C17.939 6.36751 17.9392 6.37296 17.9392 6.37568C17.9253 6.37701 17.9116 6.37934 17.8984 6.38259L17.8999 6.38924C17.8797 6.39489 17.8601 6.40293 17.8435 6.41569C17.834 6.41941 17.8219 6.41981 17.8171 6.43017C17.8128 6.43077 17.8039 6.43184 17.7995 6.43243C17.7997 6.43502 17.8001 6.44014 17.8003 6.44273C17.7875 6.44513 17.7687 6.43981 17.7642 6.45589C17.7527 6.45868 17.7414 6.46154 17.7305 6.46446C17.7248 6.47457 17.7135 6.47603 17.7036 6.47762C17.6865 6.49164 17.6658 6.50015 17.6448 6.50573C17.6399 6.51185 17.6337 6.51563 17.6263 6.51723L17.6279 6.52255C17.6053 6.526 17.5872 6.54202 17.5644 6.54454C17.5599 6.5573 17.5455 6.55564 17.535 6.55803C17.535 6.56036 17.5352 6.56508 17.5353 6.5674C17.5306 6.56813 17.5212 6.56966 17.5165 6.57039C17.5082 6.57963 17.4965 6.58269 17.4849 6.58408C17.4817 6.59531 17.4693 6.59405 17.4608 6.59677L17.4621 6.60322C17.4528 6.60555 17.4436 6.60794 17.4347 6.61033L17.4356 6.61645C17.4263 6.61851 17.4138 6.61678 17.4126 6.6292C17.4028 6.63146 17.3934 6.63379 17.3841 6.63632C17.3779 6.64887 17.3628 6.64761 17.3514 6.65067C17.3481 6.6629 17.3351 6.6621 17.3254 6.66469C17.3222 6.67393 17.313 6.67519 17.305 6.67718C17.2997 6.68835 17.2874 6.68808 17.2773 6.69001C17.2743 6.69978 17.2641 6.70091 17.2563 6.70423C17.2472 6.70895 17.2377 6.71314 17.2286 6.71706L17.2296 6.72324C17.2242 6.72364 17.2136 6.72457 17.2084 6.72497C17.2084 6.72749 17.2085 6.73241 17.2086 6.73487C17.1977 6.73706 17.1842 6.736 17.1792 6.74802C17.169 6.75055 17.1584 6.75261 17.1526 6.76191C17.148 6.76238 17.139 6.76331 17.1345 6.76377C17.1349 6.76676 17.1359 6.77275 17.1363 6.7758C17.1248 6.77667 17.1133 6.7776 17.1022 6.77853C17.1023 6.78085 17.1024 6.78551 17.1025 6.78783C17.0915 6.78956 17.0812 6.79301 17.0732 6.80072C17.0651 6.80378 17.0559 6.80537 17.053 6.81441C17.0429 6.81707 17.0311 6.81661 17.0261 6.82717C17.0166 6.83096 17.0063 6.83302 16.9999 6.84119C16.9901 6.84412 16.9798 6.84605 16.9734 6.85442C16.9644 6.85787 16.9555 6.86146 16.948 6.86731C16.9324 6.87641 16.9169 6.88632 16.8991 6.89044C16.8969 6.90187 16.8851 6.9004 16.8764 6.90233L16.8772 6.90785C16.8595 6.91463 16.843 6.92366 16.827 6.9333C16.8197 6.93735 16.8118 6.94041 16.807 6.94725C16.7898 6.95317 16.7716 6.95995 16.7606 6.97523C16.7526 6.97583 16.745 6.97636 16.7375 6.97689C16.7377 6.97982 16.738 6.98573 16.7382 6.98866C16.7273 6.99131 16.7131 6.98965 16.7082 7.00195C16.6998 7.00441 16.6917 7.00673 16.6837 7.00906L16.6846 7.01437C16.6759 7.0175 16.6668 7.02002 16.6612 7.02773C16.6539 7.03046 16.6467 7.03305 16.64 7.03591C16.6176 7.05179 16.5933 7.06601 16.568 7.07677C16.5628 7.08209 16.557 7.08641 16.5507 7.08973L16.5509 7.09438C16.5407 7.09724 16.5252 7.09412 16.5235 7.10781C16.5077 7.11213 16.4943 7.1217 16.4802 7.12927C16.471 7.13432 16.4623 7.14004 16.4547 7.14695C16.4453 7.14981 16.4362 7.1526 16.4273 7.15546C16.4243 7.16436 16.4161 7.16722 16.4083 7.16968C16.401 7.17705 16.3914 7.18091 16.3817 7.18284C16.3774 7.18789 16.3729 7.19254 16.368 7.19679C16.36 7.20257 16.3507 7.20603 16.3417 7.20915C16.3365 7.2164 16.3286 7.21945 16.3209 7.22211C16.3162 7.23268 16.3039 7.23228 16.2949 7.23553C16.2906 7.24198 16.2847 7.24643 16.2773 7.24876L16.2787 7.25334C16.2702 7.25594 16.262 7.25866 16.2541 7.26125C16.2456 7.2673 16.2372 7.27341 16.2291 7.27973C16.2164 7.28544 16.2043 7.29242 16.1917 7.29793C16.1917 7.29993 16.1915 7.30392 16.1915 7.30584C16.1716 7.30664 16.1596 7.32272 16.1422 7.32917C16.1321 7.34292 16.1144 7.34731 16.102 7.35847C16.0949 7.36253 16.0857 7.36432 16.0824 7.37256C16.074 7.37469 16.0651 7.37575 16.0628 7.38512C16.0447 7.38931 16.0298 7.39994 16.0168 7.41257C16.0003 7.41629 15.9882 7.42779 15.9762 7.43868C15.9681 7.44128 15.9597 7.44347 15.9562 7.45198C15.9467 7.4549 15.9369 7.45776 15.9304 7.4656C15.9231 7.46945 15.9161 7.47331 15.9096 7.47783C15.9028 7.48241 15.8961 7.48686 15.8898 7.49145C15.8825 7.4955 15.8737 7.49776 15.87 7.50574C15.8615 7.50766 15.8528 7.50906 15.8508 7.51856C15.8427 7.52155 15.8339 7.52361 15.8304 7.53232C15.8208 7.53524 15.8111 7.53823 15.8046 7.54614C15.7993 7.5488 15.7941 7.55152 15.7892 7.55418C15.7828 7.55963 15.7761 7.56422 15.769 7.5682C15.7605 7.57359 15.7525 7.5795 15.7449 7.58582C15.7394 7.58861 15.7342 7.59146 15.7291 7.59439C15.7213 7.60044 15.7125 7.60502 15.7034 7.60808C15.6955 7.61692 15.6858 7.62376 15.6762 7.63034C15.673 7.63114 15.6664 7.63273 15.6632 7.63353C15.6608 7.64343 15.6514 7.64509 15.6435 7.64762C15.6349 7.65978 15.621 7.66609 15.6094 7.67453C15.599 7.68211 15.5842 7.6847 15.5786 7.69733C15.5756 7.69759 15.5697 7.69806 15.5667 7.69826L15.5677 7.7055C15.5615 7.70789 15.5554 7.71022 15.5495 7.71261C15.5416 7.71926 15.5338 7.72603 15.5253 7.73155C15.5182 7.73574 15.5115 7.74032 15.5052 7.74517C15.5001 7.74796 15.4951 7.75075 15.4903 7.75368C15.4839 7.75866 15.4771 7.76312 15.4705 7.76743C15.4622 7.77335 15.454 7.77933 15.4455 7.78445C15.4399 7.78804 15.4351 7.79229 15.4309 7.79714C15.4167 7.80445 15.4007 7.81043 15.3918 7.82432C15.3841 7.82771 15.3767 7.83136 15.3719 7.83834C15.364 7.84107 15.355 7.8422 15.3536 7.85163C15.3452 7.85376 15.3372 7.85655 15.3317 7.86339C15.3268 7.86771 15.3222 7.87223 15.3179 7.87702C15.3092 7.87921 15.3004 7.8814 15.2986 7.89151C15.2949 7.89224 15.2875 7.8937 15.2838 7.89443C15.2812 7.9032 15.2731 7.90619 15.2657 7.90905C15.2559 7.91543 15.2452 7.92161 15.2394 7.93204C15.2363 7.93204 15.2299 7.93204 15.2268 7.93204C15.2271 7.93503 15.2276 7.94101 15.2279 7.94407C15.2169 7.9468 15.2019 7.94434 15.1988 7.95836C15.1959 7.95876 15.1901 7.95955 15.1872 7.96002C15.1876 7.96294 15.1884 7.96886 15.1888 7.97178C15.1835 7.97211 15.173 7.97271 15.1677 7.97298C15.168 7.97604 15.1685 7.98215 15.1687 7.98521C15.1636 7.98541 15.1532 7.98594 15.148 7.9862C15.1481 7.98919 15.1481 7.99524 15.1482 7.99823C15.1441 7.99876 15.1358 7.99976 15.1317 8.00029C15.1273 8.00574 15.1231 8.01119 15.1192 8.01664C15.1158 8.01724 15.1089 8.0185 15.1055 8.0191C15.0963 8.03073 15.0831 8.0377 15.0713 8.04614C15.0638 8.05498 15.0526 8.05724 15.042 8.0589C15.0421 8.0613 15.0424 8.06601 15.0425 8.06834C15.0114 8.08249 14.9872 8.10841 14.9578 8.12562C14.9511 8.13127 14.9442 8.13679 14.9401 8.14463C14.9357 8.14503 14.9268 8.14589 14.9224 8.14636C14.9225 8.14895 14.9229 8.1542 14.923 8.15679C14.9138 8.15885 14.9027 8.15878 14.9004 8.16988C14.8926 8.17281 14.8846 8.1756 14.8803 8.18304C14.8735 8.18756 14.867 8.19201 14.8607 8.19666C14.8543 8.20125 14.8483 8.20603 14.8422 8.21049C14.4421 8.49551 14.0459 8.78598 13.654 9.08223C13.2096 9.4177 12.7673 9.75582 12.3216 10.0894C12.1321 10.2325 11.9401 10.372 11.7491 10.513C11.547 10.6597 11.3448 10.8065 11.1381 10.9467C10.9228 11.0934 10.7067 11.2392 10.4846 11.3756C10.1337 11.5945 9.76759 11.7897 9.3874 11.9529C9.1475 12.0507 8.90189 12.1371 8.6481 12.1909C8.48775 12.2249 8.32487 12.2466 8.16125 12.2554C7.99266 12.2637 7.8228 12.2607 7.656 12.2332C7.39716 12.1945 7.1447 12.1115 6.91484 11.9861C6.69507 11.8659 6.49671 11.7078 6.32605 11.5249C6.25913 11.4539 6.20012 11.3761 6.13772 11.3013C6.08123 11.2337 6.03113 11.1608 5.97025 11.0969C5.87788 10.9924 5.78079 10.8917 5.67546 10.8001C5.548 10.6826 5.41164 10.5747 5.26923 10.4758C4.87867 10.2085 4.44778 10.003 4.00048 9.85005C3.96253 9.83915 3.92605 9.82267 3.88678 9.81709C3.87528 9.80685 3.85973 9.80672 3.84531 9.80566C3.84538 9.80386 3.84551 9.80014 3.84557 9.79835C3.83102 9.79602 3.81653 9.79389 3.80205 9.79163C3.80052 9.78971 3.7974 9.78585 3.79587 9.78393C3.76636 9.77648 3.73765 9.76519 3.70682 9.76452C3.70675 9.76213 3.70655 9.75728 3.70649 9.75489C3.6926 9.75422 3.67884 9.75362 3.66502 9.75322C3.66522 9.7511 3.66568 9.74684 3.66595 9.74472C3.65439 9.74312 3.64296 9.74173 3.63139 9.7404L3.63252 9.73335C3.61465 9.73123 3.5969 9.72837 3.57909 9.72591L3.58016 9.71893C3.56201 9.71674 3.54387 9.71455 3.52573 9.71315L3.52686 9.70597C3.51098 9.70365 3.49516 9.70126 3.47928 9.6994L3.48081 9.69242C3.45874 9.68896 3.43661 9.6863 3.41435 9.68524C3.41435 9.68278 3.41422 9.67793 3.41422 9.67547C3.40066 9.67448 3.38724 9.67348 3.37375 9.67261L3.37461 9.66564C3.36152 9.66358 3.3459 9.66557 3.33627 9.65467C3.31328 9.65162 3.29035 9.64829 3.26736 9.64563L3.26855 9.63906C3.25327 9.63733 3.23805 9.63547 3.22296 9.63281C3.20137 9.61507 3.16708 9.62995 3.14634 9.61221C3.13139 9.60882 3.11604 9.60736 3.10075 9.60656L3.10149 9.59965C3.08155 9.59745 3.06161 9.59466 3.04168 9.59247L3.04221 9.58596C3.02666 9.58483 3.01124 9.58337 2.99589 9.58097C2.97217 9.5639 2.93728 9.57739 2.91289 9.56051C2.89342 9.55738 2.87381 9.55506 2.85414 9.55373L2.85507 9.54695C2.82603 9.54688 2.79766 9.53984 2.76868 9.53971L2.77028 9.53273C2.74961 9.52934 2.72874 9.52701 2.70774 9.52741C2.70794 9.52548 2.70841 9.52156 2.70861 9.51957C2.68621 9.51804 2.66395 9.51518 2.64149 9.51386L2.64242 9.50701C2.60912 9.50621 2.57623 9.4999 2.54287 9.4997L2.5444 9.49246C2.52313 9.49073 2.50034 9.49212 2.48107 9.48143C2.45688 9.47937 2.43282 9.47638 2.40863 9.47511L2.40803 9.4686C2.3661 9.4686 2.32477 9.45996 2.2829 9.46036L2.28403 9.45272C2.24808 9.45285 2.21259 9.44441 2.17657 9.44707C2.17691 9.44501 2.17764 9.44102 2.17797 9.43903C2.14215 9.4379 2.1066 9.43258 2.07071 9.43351L2.07177 9.42567C2.03802 9.42653 2.00472 9.41903 1.9709 9.42095L1.9707 9.41417C1.93109 9.41451 1.89188 9.4072 1.85228 9.40866C1.85214 9.4066 1.85181 9.40248 1.85168 9.40042C1.78257 9.40321 1.71392 9.39131 1.64481 9.39444L1.64534 9.38633C1.58433 9.38779 1.52353 9.38055 1.46245 9.38168C1.4493 9.38081 1.43434 9.3838 1.42311 9.3749C1.3742 9.37423 1.32523 9.37244 1.27632 9.37304C1.26734 9.37184 1.25372 9.3757 1.25 9.36427C1.25465 9.35157 1.26947 9.35589 1.27997 9.35377L1.27897 9.34785C1.30476 9.34426 1.32729 9.32951 1.3534 9.32765L1.35274 9.32114C1.3643 9.31941 1.3758 9.31748 1.38736 9.31569L1.3863 9.30871C1.40005 9.30678 1.41381 9.30439 1.4275 9.302L1.4267 9.29549C1.45548 9.29562 1.479 9.27628 1.50751 9.27495L1.50558 9.26791C1.51701 9.26704 1.52838 9.26605 1.53974 9.26525C1.53967 9.26279 1.53948 9.25794 1.53934 9.25555C1.55536 9.25468 1.57124 9.25242 1.58692 9.24903L1.58593 9.24239C1.60367 9.23993 1.62128 9.23681 1.63902 9.23448L1.63809 9.22697C1.64952 9.22571 1.66102 9.22425 1.67252 9.22305C1.67252 9.22112 1.67245 9.21734 1.67245 9.21548C1.6882 9.21348 1.70388 9.21102 1.71963 9.20876L1.71824 9.20179C1.731 9.20019 1.74382 9.19833 1.75632 9.19501C1.77619 9.18278 1.80077 9.18364 1.82317 9.18006L1.82277 9.17474C1.83141 9.17421 1.83772 9.17029 1.84171 9.16311C1.86816 9.16125 1.89414 9.15593 1.92052 9.15301C1.92577 9.14211 1.93873 9.14384 1.9487 9.14111C1.96831 9.12995 1.99176 9.13114 2.01316 9.12623C2.02692 9.11274 2.04725 9.11652 2.06473 9.11513L2.0632 9.10762C2.07722 9.10616 2.09125 9.1045 2.10533 9.10297L2.10434 9.09626C2.12567 9.09413 2.14693 9.09114 2.16813 9.08808C2.18422 9.0732 2.20967 9.07898 2.22987 9.07453L2.22934 9.06788C2.24735 9.06389 2.26954 9.06874 2.2839 9.05512C2.30589 9.04934 2.33188 9.05452 2.35135 9.04143C2.36424 9.03917 2.37727 9.03764 2.39036 9.03658C2.39002 9.03465 2.38943 9.0308 2.38909 9.02887C2.40996 9.02834 2.43063 9.02568 2.4513 9.02289L2.44944 9.01611C2.46685 9.01558 2.48446 9.01492 2.50127 9.0098C2.50738 9.00202 2.51775 9.00375 2.52632 9.00242C2.54858 9.00056 2.57065 8.99684 2.59291 8.99498C2.60839 8.97584 2.63531 8.98953 2.65631 8.98754L2.65657 8.99438C2.68927 8.99545 2.7215 9.00249 2.75433 9.00302C2.75426 9.00495 2.75419 9.00894 2.75413 9.01093C2.7722 9.01312 2.79041 9.01472 2.80862 9.01538L2.80789 9.02243C2.82404 9.02389 2.84019 9.02588 2.8564 9.02774L2.85487 9.03452C2.87727 9.03565 2.89953 9.03871 2.92186 9.0415L2.9208 9.04874C2.93694 9.04907 2.95303 9.04967 2.96917 9.0504C2.96911 9.05286 2.96904 9.05765 2.96904 9.0601C2.99742 9.0627 3.02559 9.06775 3.05417 9.06881L3.05317 9.07579C3.07291 9.07904 3.09271 9.08184 3.11265 9.0833C3.11272 9.08516 3.11272 9.08895 3.11272 9.09081C3.12242 9.09194 3.13219 9.09293 3.14196 9.09393L3.14103 9.10077C3.16535 9.10264 3.1894 9.10656 3.21366 9.10908L3.2122 9.11613C3.22828 9.11792 3.2443 9.12005 3.26038 9.12184L3.25931 9.12895C3.27932 9.13181 3.29939 9.13447 3.31959 9.13606C3.31939 9.13852 3.31906 9.14357 3.31886 9.1461C3.3368 9.14709 3.35474 9.14809 3.37275 9.14889C3.37262 9.15155 3.37235 9.15686 3.37222 9.15959C3.38584 9.16025 3.39953 9.16105 3.41322 9.16171L3.41149 9.16975C3.41708 9.16982 3.42831 9.16995 3.43389 9.16995C3.43382 9.17255 3.43376 9.1776 3.43369 9.18012C3.46007 9.18085 3.48572 9.18756 3.51197 9.18936L3.51091 9.1968C3.5248 9.19933 3.53889 9.20092 3.55304 9.20172L3.55151 9.20896C3.56713 9.21142 3.58281 9.21388 3.59856 9.21587L3.59723 9.22312C3.607 9.22451 3.61671 9.22604 3.62647 9.22757L3.62581 9.23408C3.64681 9.23661 3.66768 9.24006 3.68868 9.24285C3.69439 9.261 3.71732 9.25249 3.73167 9.25561C3.73147 9.25827 3.73107 9.26352 3.73087 9.26618C3.74237 9.26665 3.754 9.26731 3.76563 9.26777C3.7653 9.2699 3.76457 9.27422 3.76423 9.27635C3.77992 9.27841 3.79567 9.28047 3.81142 9.28226C3.81128 9.28465 3.81095 9.28944 3.81082 9.29183C3.82424 9.29289 3.8378 9.29409 3.85136 9.29515C3.85122 9.29748 3.85109 9.3022 3.85096 9.30459C3.86299 9.30619 3.87501 9.30811 3.88698 9.3105C3.90445 9.3214 3.92452 9.32672 3.94399 9.33297C4.42712 9.4997 4.90021 9.70691 5.32445 9.99452C5.65028 10.2149 5.95078 10.4751 6.20444 10.7764C6.2802 10.8612 6.34472 10.9551 6.4147 11.0446C6.49099 11.1403 6.56582 11.238 6.6546 11.3227C6.83994 11.5003 7.05924 11.6428 7.29775 11.7379C7.54443 11.8339 7.81011 11.8801 8.07473 11.874C8.38919 11.8719 8.69954 11.8039 8.99805 11.7088C9.26752 11.6234 9.52536 11.506 9.77789 11.3799C10.015 11.2607 10.2455 11.1288 10.4729 10.9921C10.8878 10.7416 11.2891 10.4693 11.6851 10.1902C11.8951 10.0412 12.1066 9.89437 12.3139 9.74166C13.1502 9.13792 13.9704 8.51146 14.8261 7.93497C14.8313 7.93105 14.8367 7.92699 14.8418 7.92267C14.8443 7.92041 14.8493 7.91583 14.8518 7.91357C14.8604 7.91131 14.8711 7.91071 14.8727 7.89961C14.8756 7.89928 14.8813 7.89868 14.8842 7.89835C14.8841 7.89556 14.884 7.88998 14.8839 7.88719C14.8945 7.88446 14.91 7.88679 14.9122 7.8721C14.9153 7.87203 14.9215 7.8719 14.9246 7.87183C14.9243 7.86904 14.9237 7.86353 14.9235 7.86074C14.9344 7.85821 14.9455 7.85555 14.9568 7.85296L14.9559 7.84685C14.9691 7.83954 14.9838 7.83276 14.9924 7.81967C14.9968 7.81907 15.0056 7.81794 15.01 7.81741C15.0098 7.81448 15.0096 7.80864 15.0095 7.80578C15.0132 7.80551 15.0207 7.80505 15.0245 7.80478C15.0241 7.80226 15.0234 7.79721 15.0231 7.79461C15.0334 7.79242 15.0438 7.7895 15.0541 7.78604C15.0615 7.7792 15.0693 7.77268 15.0772 7.76617C15.0852 7.76338 15.0934 7.76046 15.1017 7.75773C15.1017 7.75514 15.1016 7.75009 15.1015 7.74756C15.1065 7.7471 15.1167 7.74617 15.1218 7.7457C15.1216 7.74331 15.1214 7.73846 15.1212 7.73607C15.1339 7.73401 15.1443 7.72623 15.1542 7.71819C15.1694 7.70869 15.1848 7.69919 15.1995 7.68869C15.206 7.6847 15.2145 7.68244 15.2184 7.6748C15.2321 7.66696 15.2485 7.66038 15.2574 7.64655C15.2664 7.64589 15.2766 7.64582 15.2773 7.63393C15.2852 7.63154 15.2932 7.62921 15.3015 7.62702C15.3071 7.62044 15.3127 7.61373 15.3181 7.60681C15.3225 7.60642 15.3314 7.60568 15.3359 7.60535C15.3357 7.60243 15.3355 7.59658 15.3355 7.59366C15.3399 7.59346 15.3486 7.59319 15.3529 7.59306C15.3552 7.5902 15.3598 7.58442 15.3621 7.5815C15.3785 7.57598 15.3915 7.56355 15.4084 7.55883L15.4074 7.55212C15.411 7.55199 15.4184 7.55172 15.4221 7.55159C15.4221 7.5488 15.4221 7.54328 15.4222 7.54049C15.4271 7.54003 15.4371 7.53923 15.442 7.53877C15.4419 7.53604 15.4416 7.53059 15.4414 7.52793C15.4512 7.52468 15.4676 7.52833 15.4692 7.51424C15.4777 7.51245 15.4866 7.50972 15.4906 7.50075C15.4984 7.49816 15.5067 7.4957 15.515 7.49331L15.5142 7.48799C15.5257 7.47836 15.5438 7.4759 15.5506 7.46148C15.5602 7.45895 15.574 7.46101 15.5765 7.44819C15.5998 7.43822 15.6211 7.4234 15.644 7.4121C15.6507 7.4022 15.6616 7.39988 15.6731 7.39941C15.6731 7.39675 15.6731 7.39157 15.6732 7.38898C15.6768 7.38878 15.684 7.38831 15.6875 7.38811L15.6869 7.382C15.6945 7.37841 15.702 7.37416 15.7092 7.36924C15.7236 7.36087 15.7377 7.3515 15.7537 7.34611L15.7529 7.3394C15.7567 7.33947 15.7642 7.33954 15.768 7.33954C15.7677 7.33654 15.7671 7.33056 15.7668 7.32757C15.7721 7.32737 15.7827 7.32698 15.788 7.32678C15.7879 7.32392 15.7876 7.31814 15.7875 7.31521C15.7981 7.31262 15.8155 7.31721 15.8162 7.30146C15.8208 7.30106 15.83 7.30026 15.8345 7.29986C15.8345 7.29714 15.8342 7.29169 15.8341 7.28903C15.8442 7.28637 15.8595 7.2895 15.8625 7.276C15.8936 7.26059 15.924 7.24351 15.9546 7.22696L15.9528 7.22184C15.962 7.22025 15.974 7.22091 15.975 7.20829C15.9851 7.2055 16.0011 7.20829 16.0008 7.19327C16.0041 7.1936 16.0106 7.19413 16.014 7.19447C16.0138 7.19154 16.0136 7.18569 16.0134 7.18284C16.0243 7.18024 16.0354 7.17745 16.0467 7.17479L16.0459 7.16901C16.0578 7.16011 16.0746 7.15632 16.0824 7.14256C16.0915 7.13951 16.1055 7.14177 16.1078 7.12921C16.1307 7.1201 16.1509 7.10495 16.1735 7.09458L16.1723 7.08781C16.176 7.08767 16.1834 7.08747 16.187 7.08734C16.1868 7.08462 16.1864 7.07917 16.1862 7.07644C16.1968 7.07405 16.2131 7.07764 16.2149 7.06255C16.2246 7.06023 16.2383 7.06215 16.2415 7.04953C16.2509 7.047 16.2602 7.04328 16.268 7.0369C16.2753 7.03338 16.2836 7.03052 16.2888 7.02328C16.2955 7.02042 16.3023 7.0177 16.3095 7.01491C16.3226 7.00128 16.345 6.99949 16.3546 6.98234C16.3591 6.98194 16.3681 6.98128 16.3726 6.98095C16.3724 6.97796 16.3721 6.97204 16.372 6.96905C16.3772 6.96879 16.3876 6.96819 16.3928 6.96786C16.3926 6.965 16.3923 6.95928 16.3921 6.95643C16.4042 6.95337 16.4249 6.95975 16.4263 6.94214C16.4349 6.94081 16.4453 6.94127 16.4479 6.93018C16.4593 6.92752 16.4716 6.92552 16.4803 6.91655C16.4938 6.90818 16.508 6.90054 16.5232 6.89522C16.5272 6.88353 16.5414 6.88612 16.5511 6.88266C16.5511 6.88113 16.551 6.87808 16.5509 6.87655C16.559 6.87309 16.5696 6.87236 16.5744 6.86339C16.5822 6.8608 16.5898 6.85841 16.5981 6.85608L16.5978 6.85003C16.6057 6.84711 16.6184 6.8483 16.62 6.83654C16.6302 6.83395 16.6406 6.83143 16.6513 6.82917L16.65 6.82199C16.661 6.81913 16.6721 6.81647 16.6836 6.81421C16.6835 6.81182 16.6833 6.80697 16.6832 6.80451C16.6909 6.80358 16.6989 6.80258 16.7072 6.80152C16.7097 6.79321 16.7155 6.78889 16.7247 6.78869L16.723 6.78285C16.7325 6.78079 16.7422 6.77873 16.7521 6.77667L16.7498 6.77022C16.7608 6.76922 16.7708 6.76464 16.7787 6.75653C16.7834 6.7558 16.7929 6.75421 16.7976 6.75347C16.7975 6.75095 16.7973 6.74603 16.7973 6.74357C16.8077 6.74105 16.8246 6.74543 16.8258 6.73022C16.8351 6.72729 16.8502 6.73068 16.8535 6.71779C16.8631 6.71513 16.8761 6.71613 16.8802 6.70423C16.8898 6.70137 16.9045 6.70383 16.906 6.69028C16.9139 6.68921 16.9221 6.68815 16.9305 6.68722C16.9304 6.68469 16.9303 6.67978 16.9302 6.67732C16.9401 6.67393 16.9572 6.67818 16.9587 6.66369C16.9709 6.66256 16.9841 6.6615 16.9926 6.65093C17.0004 6.64841 17.0099 6.64708 17.0131 6.63764C17.0251 6.63472 17.0376 6.63193 17.0501 6.62954L17.0487 6.62316C17.0588 6.62063 17.0687 6.61791 17.0792 6.61518C17.0845 6.60349 17.0978 6.60422 17.1087 6.60169L17.1081 6.59704C17.1237 6.58647 17.1411 6.57983 17.1596 6.57591C17.1647 6.56534 17.1775 6.56634 17.1871 6.56248C17.2052 6.54973 17.229 6.54607 17.2456 6.53118C17.2542 6.5268 17.2696 6.52952 17.2718 6.51676C17.2797 6.51603 17.2878 6.51537 17.2963 6.5147C17.2961 6.51198 17.2957 6.50653 17.2954 6.50374C17.3044 6.50307 17.3135 6.50234 17.3229 6.50168C17.3228 6.49895 17.3225 6.49357 17.3223 6.49085C17.3335 6.48992 17.3445 6.48885 17.356 6.48786C17.3557 6.48506 17.3552 6.47955 17.355 6.47676C17.364 6.47629 17.3733 6.47589 17.3828 6.4755C17.3827 6.47277 17.3824 6.46739 17.3823 6.46473C17.4086 6.4646 17.4304 6.45038 17.4544 6.44247L17.454 6.43702C17.4735 6.43051 17.4956 6.42592 17.5111 6.41117C17.5202 6.40784 17.5333 6.40951 17.5383 6.39867C17.5509 6.39641 17.5635 6.39223 17.5744 6.38479C17.583 6.38199 17.5954 6.38246 17.5958 6.37003C17.6065 6.36963 17.6171 6.3693 17.6283 6.36897C17.6281 6.36624 17.6277 6.3608 17.6274 6.35814C17.6389 6.35614 17.6506 6.35388 17.6624 6.35162L17.6606 6.34451C17.6824 6.34458 17.6997 6.32943 17.721 6.32684C17.7211 6.32484 17.7214 6.32086 17.7215 6.31886C17.7318 6.31601 17.7467 6.31846 17.7509 6.30557C17.7609 6.30424 17.7709 6.30298 17.7815 6.30185C17.7813 6.29939 17.7809 6.29441 17.7807 6.29188C17.8073 6.29221 17.83 6.27879 17.8542 6.27035L17.8537 6.2649C17.8635 6.26165 17.8806 6.26603 17.8827 6.25135C17.8928 6.25015 17.9029 6.24902 17.9137 6.24789C17.9135 6.24543 17.9132 6.24058 17.913 6.23812C17.9257 6.23626 17.9433 6.23998 17.9497 6.22503C17.9601 6.22284 17.9709 6.22064 17.9818 6.21865L17.9797 6.21161C17.9944 6.21014 18.0107 6.20961 18.022 6.19825C18.0307 6.19399 18.0461 6.19738 18.0493 6.18516C18.0604 6.18197 18.0787 6.18768 18.0823 6.1724C18.0939 6.17007 18.1056 6.16761 18.1175 6.16495C18.122 6.15273 18.1369 6.15771 18.1467 6.15412C18.1467 6.15206 18.1468 6.14794 18.1468 6.14582C18.162 6.14322 18.1773 6.14023 18.1927 6.13764L18.1913 6.13086C18.2018 6.12887 18.2124 6.12661 18.2233 6.12428C18.2314 6.11624 18.2419 6.11265 18.2533 6.11126L18.2524 6.10548C18.2689 6.10222 18.2856 6.0991 18.3025 6.09677C18.3049 6.08169 18.3217 6.08714 18.3328 6.08508L18.3312 6.07757C18.347 6.07179 18.3713 6.07797 18.3805 6.06049C18.3897 6.05942 18.3995 6.05849 18.4093 6.05756C18.4102 6.04162 18.4279 6.04726 18.439 6.045L18.4373 6.03723C18.4505 6.0349 18.4638 6.03264 18.4774 6.03065L18.4768 6.02361C18.4882 6.02161 18.4997 6.01969 18.5116 6.01796L18.5103 6.01078C18.5218 6.00899 18.5335 6.00706 18.5454 6.00546C18.5454 6.00354 18.5455 5.99975 18.5455 5.99789C18.5565 5.99616 18.5679 5.9943 18.5794 5.99257L18.5782 5.98539C18.5893 5.98426 18.6002 5.98314 18.6119 5.98201C18.6119 5.97968 18.6119 5.97516 18.6119 5.9729C18.627 5.97084 18.642 5.96858 18.6574 5.96626C18.6575 5.96433 18.6577 5.96054 18.6578 5.95861C18.6709 5.95642 18.6844 5.95403 18.6979 5.95184L18.6969 5.94552C18.7088 5.94359 18.7207 5.94147 18.7328 5.93941L18.7304 5.93236C18.747 5.93017 18.7637 5.92758 18.7805 5.92446C18.7882 5.90817 18.8084 5.91369 18.8231 5.9111L18.8229 5.90445C18.8332 5.90213 18.8437 5.89973 18.8544 5.89721C18.8668 5.88791 18.8827 5.88744 18.8977 5.88545L18.8962 5.87874C18.9117 5.87628 18.9273 5.87375 18.9432 5.87149L18.942 5.86451C18.9533 5.86299 18.9646 5.86126 18.9764 5.85973C18.9764 5.85774 18.9764 5.85388 18.9764 5.85195C18.9899 5.85009 19.0036 5.84797 19.0174 5.84591L19.0159 5.83893C19.0467 5.84032 19.0732 5.82158 19.1036 5.82039C19.1036 5.81859 19.1038 5.81507 19.1038 5.81328Z" fill="#FEE801"/>
<path d="M16.0033 5.89882C16.0166 5.88699 16.0367 5.85894 16.0547 5.88167C16.0417 5.88971 16.0283 5.89636 16.0143 5.90161C16.0134 5.91364 16.0013 5.91337 15.9925 5.91503C15.9926 5.91782 15.9928 5.92334 15.9929 5.92606C15.9876 5.92613 15.977 5.92613 15.9717 5.92613C15.972 5.92899 15.9728 5.93464 15.9732 5.93749C15.9641 5.93995 15.9538 5.94028 15.9498 5.94999C15.9425 5.95404 15.9357 5.95809 15.9294 5.96308C15.9221 5.967 15.9146 5.97052 15.9102 5.9777C15.9043 5.98036 15.8986 5.98301 15.8931 5.98567C15.8729 6.00129 15.8499 6.01285 15.831 6.03C15.8238 6.03412 15.8169 6.03837 15.8105 6.04296C15.7965 6.0508 15.7831 6.05944 15.7713 6.07007C15.7586 6.07658 15.7467 6.08403 15.7354 6.09233C15.7273 6.09838 15.7192 6.10429 15.7113 6.11008C15.7048 6.11433 15.6986 6.11858 15.6927 6.12297C15.6804 6.13207 15.6679 6.14084 15.6535 6.1455L15.6541 6.15001C15.6339 6.16018 15.6169 6.17553 15.597 6.1861C15.5909 6.19274 15.5823 6.19587 15.5744 6.19892L15.5743 6.20271C15.5669 6.20544 15.5614 6.21022 15.5579 6.217C15.5546 6.21767 15.5479 6.21899 15.5446 6.21966C15.5357 6.22757 15.527 6.23561 15.5186 6.24378C15.5102 6.24637 15.5019 6.24897 15.494 6.25156C15.4941 6.25448 15.4944 6.26046 15.4946 6.26345C15.4902 6.26365 15.4815 6.26405 15.4771 6.26432C15.4718 6.27103 15.4663 6.27741 15.4607 6.28359C15.4526 6.28664 15.4449 6.2903 15.4385 6.29582C15.432 6.30047 15.4255 6.30492 15.4191 6.30917C15.3987 6.322 15.3791 6.33602 15.3593 6.34971C15.3537 6.35257 15.3483 6.35549 15.3431 6.35842C15.3367 6.363 15.3304 6.36765 15.3244 6.37237C15.3181 6.37795 15.3117 6.38347 15.3058 6.38898C15.2907 6.39523 15.278 6.40513 15.2661 6.41583C15.2587 6.41942 15.2516 6.42314 15.2461 6.42899C15.2398 6.43358 15.2338 6.43816 15.2279 6.44281C15.222 6.44534 15.2162 6.44786 15.2107 6.45039C15.2044 6.46036 15.1928 6.46255 15.1825 6.46494C15.1826 6.46773 15.1828 6.47338 15.1829 6.47617C15.1794 6.47624 15.1723 6.47631 15.1688 6.47637C15.1689 6.47956 15.1689 6.48581 15.1689 6.489C15.1644 6.4892 15.1554 6.48973 15.151 6.49C15.1499 6.50222 15.1381 6.50222 15.1289 6.50442C15.129 6.50701 15.1292 6.51206 15.1293 6.51458C15.1242 6.51511 15.114 6.51624 15.1089 6.51678C15.1091 6.51963 15.1093 6.52535 15.1093 6.52827C15.1051 6.52887 15.0968 6.5302 15.0927 6.53086C15.0831 6.54455 15.0685 6.55266 15.0553 6.5621C15.0514 6.56376 15.0437 6.56702 15.0398 6.56868C15.034 6.57612 15.0272 6.58257 15.02 6.58848C15.0092 6.59233 14.9997 6.59851 14.9919 6.60662C14.9886 6.60762 14.9819 6.60961 14.9786 6.61061C14.9764 6.62005 14.9672 6.62184 14.9597 6.62463C14.9554 6.62982 14.951 6.63453 14.9462 6.63892C14.9353 6.6465 14.9184 6.64749 14.9141 6.66178C14.9113 6.66191 14.9057 6.66218 14.9029 6.66231L14.9033 6.66836C14.8901 6.67534 14.8783 6.68444 14.8672 6.69421C14.8603 6.69873 14.8535 6.70325 14.8468 6.70777C14.8396 6.71202 14.8327 6.71627 14.8262 6.72126C14.8216 6.72544 14.8172 6.7297 14.813 6.73395C14.8048 6.73681 14.7961 6.739 14.7935 6.74844C14.7903 6.74923 14.7838 6.75076 14.7806 6.75149C14.762 6.7693 14.7387 6.78093 14.719 6.79715C14.7115 6.80353 14.7025 6.80738 14.6937 6.8109C14.6817 6.82931 14.6584 6.83469 14.6465 6.85317C14.6382 6.85589 14.6295 6.85815 14.627 6.86766C14.6238 6.86852 14.6174 6.87031 14.6142 6.87124C14.6078 6.87855 14.5993 6.88347 14.5901 6.88573C14.5901 6.88779 14.5901 6.89191 14.5901 6.89397C14.5728 6.89729 14.5584 6.907 14.5475 6.92029C14.5395 6.92328 14.5318 6.92653 14.5276 6.93411C14.5217 6.93703 14.5161 6.93989 14.5106 6.94275C14.5084 6.94521 14.5043 6.95006 14.5022 6.95252C14.4921 6.95763 14.4826 6.96355 14.4736 6.97006C14.4619 6.98136 14.4486 6.99106 14.4332 6.99638C14.4321 7.00721 14.4228 7.0086 14.4141 7.00987C14.3999 7.02715 14.3809 7.03971 14.3612 7.04981C14.3557 7.05625 14.3482 7.05984 14.3412 7.0635C14.3318 7.07087 14.3215 7.07725 14.3148 7.08722C14.3113 7.08749 14.3045 7.08802 14.301 7.08828C14.299 7.09978 14.2879 7.10111 14.2792 7.10403C14.2791 7.10663 14.2788 7.11174 14.2787 7.11433C14.2759 7.11447 14.2705 7.1148 14.2677 7.11493C14.2659 7.12523 14.2567 7.12729 14.2483 7.12935C14.24 7.14165 14.2261 7.14796 14.2145 7.15613C14.2081 7.16112 14.2013 7.1653 14.1947 7.16942C14.189 7.1768 14.1801 7.17966 14.172 7.18265C14.1665 7.18836 14.1612 7.19408 14.1561 7.19993C14.1425 7.20584 14.1279 7.21262 14.1225 7.22757C14.1181 7.22784 14.1093 7.2285 14.1048 7.22877C14.1049 7.23156 14.1052 7.23701 14.1054 7.23973C14.0867 7.24093 14.0774 7.25987 14.0593 7.26239C14.0593 7.26505 14.0592 7.2703 14.0591 7.27296C14.0543 7.27336 14.0445 7.27409 14.0397 7.27449C14.0395 7.27735 14.0393 7.28299 14.0391 7.28585C14.0356 7.28599 14.0285 7.28625 14.025 7.28638L14.0265 7.29529C14.0235 7.29549 14.0174 7.29575 14.0144 7.29595C14.012 7.30426 14.0064 7.30905 13.9977 7.31017C13.9979 7.3127 13.9981 7.31775 13.9983 7.32021C13.9933 7.32048 13.9834 7.32094 13.9784 7.32114C13.9783 7.3238 13.9779 7.32925 13.9777 7.33191C13.9637 7.3337 13.9547 7.34453 13.9434 7.35124C13.9244 7.36387 13.9049 7.37577 13.8886 7.39158C13.8856 7.39251 13.8799 7.39437 13.8769 7.39537C13.8734 7.39882 13.8664 7.4058 13.8628 7.40926C13.4609 7.70152 13.0684 8.00655 12.6715 8.30546C12.0473 8.78008 11.4219 9.25357 10.7783 9.70173C10.3621 9.99473 9.93306 10.2718 9.47851 10.5022C9.25908 10.6109 9.03354 10.7088 8.79922 10.7807C8.64185 10.8289 8.47951 10.862 8.3153 10.8741C8.17986 10.8804 8.04263 10.8804 7.90979 10.8502C7.76492 10.8198 7.62424 10.7646 7.5015 10.6813C7.301 10.551 7.15215 10.3602 7.00249 10.1775C6.89158 10.0411 6.7687 9.91492 6.64171 9.79351C6.51153 9.67276 6.37915 9.55374 6.23667 9.44748C6.05658 9.30826 5.86964 9.17774 5.67533 9.05899C5.46042 8.92953 5.2364 8.81171 4.99703 8.73409C4.95277 8.71881 4.90652 8.7099 4.86279 8.69316C5.13991 8.67535 5.41769 8.66146 5.69547 8.67043C5.7176 8.6701 5.736 8.68365 5.75421 8.69442C6.15447 8.92894 6.52468 9.21482 6.85257 9.54311C7.04163 9.73543 7.21986 9.93798 7.39816 10.1402C7.47498 10.2228 7.54655 10.3111 7.63447 10.3826C7.72784 10.4605 7.83616 10.5216 7.95345 10.5551C8.10935 10.6001 8.27403 10.5935 8.43352 10.5751C8.71602 10.5397 8.98735 10.4449 9.24665 10.3301C9.73018 10.1145 10.1845 9.83976 10.6263 9.54949C10.7246 9.48396 10.8224 9.41778 10.9208 9.35252C11.1317 9.20725 11.3412 9.06005 11.5502 8.91212C11.9666 8.61354 12.3824 8.3141 12.797 8.01286C13.0758 7.81097 13.3557 7.61042 13.6366 7.41138L13.6283 7.40979L13.6241 7.40899C13.6351 7.4052 13.6536 7.41052 13.6565 7.39437C13.6596 7.39411 13.6655 7.39351 13.6685 7.39324C13.6682 7.39052 13.6675 7.38514 13.6671 7.38248C13.682 7.38168 13.6952 7.37543 13.7039 7.36301C13.708 7.36227 13.716 7.36088 13.7201 7.36015C13.7199 7.35736 13.7195 7.35178 13.7193 7.34898C13.7238 7.34845 13.7326 7.34726 13.737 7.34666C13.7384 7.33616 13.7479 7.33443 13.7568 7.33204C13.7604 7.32626 13.7642 7.32048 13.7681 7.31463C13.7753 7.31197 13.7827 7.30918 13.7903 7.30639C13.793 7.29722 13.8016 7.29509 13.8098 7.29237C13.8185 7.28047 13.8339 7.27648 13.8442 7.26598C13.8508 7.26166 13.8577 7.25741 13.8646 7.25309C13.8706 7.24718 13.8775 7.24226 13.8856 7.23933L13.886 7.23515C13.8944 7.23402 13.8997 7.2293 13.9019 7.22106C13.9063 7.22059 13.9149 7.21966 13.9193 7.2192C13.9193 7.21674 13.9195 7.21169 13.9195 7.20923C13.9276 7.20564 13.94 7.20631 13.9425 7.19508C13.9454 7.19468 13.9512 7.19381 13.9541 7.19335C13.9537 7.19056 13.9528 7.18497 13.9523 7.18212C13.9636 7.18099 13.9788 7.18125 13.9814 7.16657C13.9844 7.16683 13.9904 7.16723 13.9934 7.16743C13.9934 7.16457 13.9932 7.15873 13.9931 7.15587C14.0031 7.15301 14.0131 7.15002 14.0234 7.14703C14.0243 7.13693 14.0332 7.13507 14.0417 7.13268C14.0461 7.12802 14.0507 7.12344 14.0556 7.11899C14.0659 7.11407 14.0758 7.10769 14.0828 7.09838C14.0865 7.09726 14.0939 7.09506 14.0976 7.09393C14.1035 7.08915 14.1095 7.08436 14.1158 7.07971C14.1247 7.0722 14.1336 7.06476 14.1428 7.05738C14.1459 7.05652 14.1523 7.05486 14.1554 7.05406C14.1583 7.04496 14.1668 7.0427 14.175 7.04004C14.1793 7.03525 14.1839 7.03073 14.1889 7.02648C14.1956 7.02077 14.2039 7.01744 14.2124 7.01452L14.2117 7.00954C14.223 7.00535 14.2345 7.0005 14.2426 6.99093C14.2456 6.99006 14.2519 6.9884 14.2549 6.98761C14.2581 6.98169 14.2626 6.97691 14.2684 6.97325C14.2751 6.96887 14.2819 6.96455 14.289 6.96043C14.2977 6.95484 14.3057 6.94833 14.3137 6.94162C14.3167 6.94115 14.3225 6.94022 14.3254 6.93976C14.3254 6.9373 14.3252 6.93238 14.325 6.92992C14.3353 6.92766 14.3458 6.92447 14.3536 6.9165C14.3581 6.91318 14.3628 6.90992 14.3677 6.9066C14.3737 6.90002 14.3819 6.89656 14.3903 6.89344L14.3898 6.88739C14.3936 6.88706 14.4013 6.8864 14.4051 6.88606C14.4049 6.88321 14.4045 6.87749 14.4043 6.87457C14.4082 6.87497 14.4159 6.87563 14.4197 6.87603C14.4195 6.87284 14.4189 6.86639 14.4187 6.8632C14.4238 6.86267 14.434 6.86161 14.4391 6.86101C14.439 6.85822 14.4388 6.85264 14.4387 6.84985C14.4439 6.84945 14.4544 6.84858 14.4597 6.84818C14.4594 6.84553 14.4588 6.84014 14.4585 6.83742C14.4709 6.83556 14.4841 6.8331 14.4925 6.8226C14.4973 6.81994 14.5024 6.81728 14.5076 6.81462C14.5113 6.80605 14.5199 6.80406 14.528 6.8014C14.5362 6.79482 14.5445 6.78831 14.553 6.78193C14.556 6.7816 14.5618 6.78107 14.5647 6.7808C14.5645 6.77788 14.5639 6.77216 14.5637 6.76924C14.5677 6.7687 14.5758 6.76764 14.5799 6.76711C14.5887 6.75701 14.6006 6.75043 14.6123 6.74385C14.6189 6.73953 14.6257 6.73528 14.6326 6.73089C14.6451 6.71979 14.6594 6.71069 14.6761 6.70737C14.6762 6.70491 14.6762 6.69992 14.6762 6.69747C14.679 6.69713 14.6846 6.69647 14.6874 6.69614C14.695 6.68889 14.7032 6.68198 14.7118 6.67567C14.719 6.67354 14.7264 6.67115 14.7339 6.66862C14.7372 6.66005 14.7455 6.65753 14.7535 6.6546C14.7631 6.64364 14.7757 6.6358 14.7884 6.62869C14.7965 6.62297 14.8046 6.61726 14.813 6.61161C14.8199 6.60715 14.8281 6.60383 14.8328 6.59639C14.8359 6.59586 14.8422 6.59473 14.8454 6.59413C14.8541 6.58602 14.8642 6.57964 14.8733 6.57173C14.881 6.56868 14.89 6.56628 14.892 6.55665C14.8951 6.55665 14.9013 6.55652 14.9043 6.55645C14.9042 6.55353 14.9038 6.54768 14.9037 6.54475C14.9162 6.54203 14.9365 6.54688 14.9379 6.52854C14.9403 6.52867 14.9452 6.52894 14.9476 6.52907C14.9496 6.51478 14.967 6.51664 14.9734 6.50548C14.9823 6.50216 14.9936 6.50109 14.9988 6.49152C15.018 6.48315 15.035 6.47125 15.0526 6.45996C15.0607 6.4577 15.0695 6.45544 15.071 6.44534C15.0754 6.44487 15.0843 6.44381 15.0887 6.44328C15.0887 6.44042 15.0887 6.43457 15.0887 6.43165C15.0931 6.43125 15.1019 6.43045 15.1064 6.43005C15.1077 6.41856 15.1189 6.41822 15.1281 6.41577L15.1282 6.41125C15.1428 6.40334 15.1569 6.3945 15.1705 6.3848C15.1821 6.37682 15.1939 6.36898 15.2068 6.3628C15.2149 6.35715 15.223 6.35117 15.2309 6.34486C15.2547 6.33502 15.2749 6.31868 15.2967 6.30505C15.3205 6.29449 15.342 6.27953 15.364 6.26538C15.3698 6.26086 15.3759 6.25641 15.3821 6.25189C15.3896 6.24903 15.3974 6.24624 15.4054 6.24338C15.4149 6.23242 15.4274 6.22458 15.4415 6.22079C15.4415 6.21866 15.4414 6.21448 15.4414 6.21242C15.4767 6.2057 15.5029 6.17839 15.5349 6.1639L15.5348 6.15912C15.5434 6.15673 15.5524 6.154 15.5578 6.14576C15.5671 6.14244 15.5769 6.13932 15.5869 6.13639V6.1328C15.5926 6.12862 15.5984 6.12423 15.6041 6.11958C15.6111 6.11632 15.6184 6.1132 15.626 6.11014C15.637 6.10296 15.6478 6.09539 15.6583 6.08715C15.6616 6.08662 15.6683 6.08562 15.6717 6.08516C15.6775 6.07665 15.6861 6.07087 15.6947 6.06502C15.6984 6.06409 15.7058 6.06223 15.7095 6.0613C15.718 6.05412 15.7276 6.04834 15.7378 6.04342C15.7467 6.03844 15.7549 6.03219 15.7624 6.02508C15.7717 6.02242 15.7811 6.0199 15.7908 6.01731C15.799 6.00275 15.8169 5.9989 15.8302 5.99019C15.8376 5.98335 15.8473 5.98042 15.8569 5.97703C15.8605 5.96846 15.8694 5.96653 15.8775 5.96334C15.8926 5.95371 15.9113 5.94806 15.9222 5.93291C15.9309 5.92866 15.9441 5.92959 15.9488 5.91895C15.9579 5.91576 15.9694 5.9155 15.9758 5.90666C15.9789 5.90473 15.9853 5.90081 15.9885 5.89888C15.9922 5.89888 15.9996 5.89882 16.0033 5.89882Z" fill="#FEE801"/>
</g>
<defs>
<clipPath id="clip0_1_87274">
<rect width="20" height="20" fill="white"/>
</clipPath>
</defs>
</svg>
