<svg width="16" height="16" viewBox="0 0 16 16" fill="none" xmlns="http://www.w3.org/2000/svg">
    <g clip-path="url(#x4mqmz5j7a)" stroke="#9CA3AF" stroke-linecap="round" stroke-linejoin="round">
        <path d="M11.78 11.78A6.408 6.408 0 0 1 8 13.09C3.545 13.09 1 8 1 8a11.741 11.741 0 0 1 3.22-3.78m2.444-1.158A5.804 5.804 0 0 1 8 2.909c4.455 0 7 5.09 7 5.09a11.768 11.768 0 0 1-1.374 2.03m-4.277-.68a1.91 1.91 0 1 1-2.698-2.698M1 1l14 14"/>
    </g>
    <defs>
        <clipPath id="x4mqmz5j7a">
            <path fill="#fff" d="M0 0h16v16H0z"/>
        </clipPath>
    </defs>
</svg>
