<svg width="16" height="16" viewBox="0 0 16 16" fill="none" xmlns="http://www.w3.org/2000/svg">
<path d="M1.99976 13.3332L2.77042 13.7185C3.14048 13.9036 3.54854 13.9999 3.96227 13.9999H8.33309C8.88537 13.9999 9.33309 13.5522 9.33309 12.9999V12.9999C9.33309 12.4476 8.88537 11.9999 8.33309 11.9999H5.66642" stroke="#DFDFDF" stroke-width="1.2" stroke-linecap="round" stroke-linejoin="round"/>
<path d="M1.99976 8.66663H3.94198C4.23048 8.66663 4.51119 8.7602 4.74198 8.93329L6.2335 10.0519C6.48448 10.2402 6.64143 10.528 6.66367 10.841C6.68591 11.1539 6.57125 11.4611 6.34941 11.683V11.683C5.96858 12.0638 5.36566 12.1066 4.9348 11.7835L3.99976 11.0822" stroke="#DFDFDF" stroke-width="1.2" stroke-linecap="round" stroke-linejoin="round"/>
<path d="M11.3331 12H11.9998C13.1043 12 13.9998 11.1046 13.9998 10V4C13.9998 2.89543 13.1043 2 11.9998 2H3.99976C2.89519 2 1.99976 2.89543 1.99976 4V6.66667" stroke="#DFDFDF" stroke-width="1.2" stroke-linecap="round" stroke-linejoin="round"/>
<path d="M13.9998 5.33321H1.99976" stroke="#DFDFDF" stroke-width="1.2" stroke-linecap="round" stroke-linejoin="round"/>
</svg>
