<svg xmlns="http://www.w3.org/2000/svg" width="16" height="16" viewBox="0 0 16 16">
    <path fill="#D1D5DB" d="M1.672 10.808h3.624c.442 0 .8.358.8.8 0 .442-.358.8-.8.8h-1.92c1.805 1.887 4.576 2.487 7 1.518 2.425-.97 4.017-3.315 4.024-5.926 0-.442.358-.8.8-.8.442 0 .8.358.8.8-.009 3.193-1.915 6.075-4.85 7.332-2.935 1.257-6.337.649-8.654-1.548V15.2c0 .442-.358.8-.8.8-.442 0-.8-.358-.8-.8v-3.6c.004-.43.347-.78.776-.792zM8 0c2.05.006 4.021.8 5.504 2.216V.8c0-.442.358-.8.8-.8.442 0 .8.358.8.8v3.6c0 .442-.358.8-.8.8h-3.6c-.442 0-.8-.358-.8-.8 0-.442.358-.8.8-.8h1.92C10.82 1.714 8.051 1.113 5.628 2.08 3.204 3.049 1.61 5.39 1.6 8c0 .442-.358.8-.8.8-.442 0-.8-.358-.8-.8 0-2.122.843-4.157 2.343-5.657S5.878 0 8 0z"/>
</svg>
