<svg width="24" height="24" viewBox="0 0 24 24" fill="none" xmlns="http://www.w3.org/2000/svg">
    <path d="M14 20H5.125A2.124 2.124 0 0 1 3 17.875V7.855c0-.287.058-.572.171-.835l1.167-2.73A2.125 2.125 0 0 1 6.292 3h10.417c.851 0 1.619.508 1.954 1.29l1.167 2.73c.112.264.17.548.17.835V12M11.5 3v4.44M19.957 7.44H3.043M6 16h2" stroke="#9CA3AF" stroke-width="1.4" stroke-linecap="round" stroke-linejoin="round"/>
    <path d="M17 21a5 5 0 1 1 .001-10.001A5 5 0 0 1 17 21" stroke="#9CA3AF" stroke-width="1.4" stroke-linecap="round" stroke-linejoin="round"/>
    <path d="m18.944 15.028-2.43 2.431L15.053 16" stroke="#9CA3AF" stroke-width="1.4" stroke-linecap="round" stroke-linejoin="round"/>
</svg>
