<svg width="24" height="24" viewBox="0 0 24 24" fill="none" xmlns="http://www.w3.org/2000/svg">
<path d="M9.40817 20.6416H14.5928C18.9134 20.6416 20.6416 18.9134 20.6416 14.5928V9.40817C20.6416 5.0876 18.9134 3.35938 14.5928 3.35938H9.40817C5.0876 3.35938 3.35938 5.0876 3.35938 9.40817V14.5928C3.35938 18.9134 5.0876 20.6416 9.40817 20.6416Z" stroke="#D1D5DB" stroke-width="1.4" stroke-linecap="round" stroke-linejoin="round"/>
<path d="M9.54067 14.4636H13.477C14.8371 14.4636 15.9412 13.3595 15.9412 11.9994C15.9412 10.6393 14.8371 9.53516 13.477 9.53516H8.06055" stroke="#D1D5DB" stroke-width="1.4" stroke-miterlimit="10" stroke-linecap="round" stroke-linejoin="round"/>
<path d="M9.25611 10.7936L8 9.52954L9.25611 8.27344" stroke="#D1D5DB" stroke-width="1.4" stroke-linecap="round" stroke-linejoin="round"/>
<path d="M22.2481 18.6149C22.2481 19.7149 21.7623 20.6957 21.0015 21.3649C20.3506 21.9332 19.5073 22.2816 18.5815 22.2816C16.5556 22.2816 14.9148 20.6407 14.9148 18.6149C14.9148 17.4599 15.4465 16.4241 16.2898 15.7549C16.9223 15.2507 17.7198 14.9482 18.5815 14.9482C20.6073 14.9482 22.2481 16.5891 22.2481 18.6149Z" fill="white" stroke="#4B5563" stroke-width="1.4" stroke-miterlimit="10" stroke-linecap="round" stroke-linejoin="round"/>
<path d="M17.1592 18.6612L18.085 19.5411L20.0009 17.6895" stroke="#4B5563" stroke-width="1.4" stroke-linecap="round" stroke-linejoin="round"/>
</svg>
