<svg width="12" height="12" viewBox="0 0 12 12" fill="none" xmlns="http://www.w3.org/2000/svg">
    <path d="M8.5 4.61 3.5 2M11 8.277V3.832a1.111 1.111 0 0 0-.556-.96L6.556.648a1.111 1.111 0 0 0-1.112 0L1.556 2.87A1.111 1.111 0 0 0 1 3.832v4.445a1.111 1.111 0 0 0 .556.96l3.888 2.114a1.11 1.11 0 0 0 1.112 0l3.888-2.113A1.112 1.112 0 0 0 11 8.277z" stroke="#DFDFDF" stroke-linecap="round" stroke-linejoin="round"/>
    <path d="M1.15 3.255 6 6.06l4.85-2.805M6 11.5V6.054" stroke="#DFDFDF" stroke-linecap="round" stroke-linejoin="round"/>
</svg>
