<?xml version="1.0" encoding="utf-8"?>
<!-- Generator: Adobe Illustrator 27.2.0, SVG Export Plug-In . SVG Version: 6.00 Build 0)  -->
<svg version="1.1" id="Layer_1" xmlns="http://www.w3.org/2000/svg" xmlns:xlink="http://www.w3.org/1999/xlink" x="0px" y="0px"
	 viewBox="0 0 140 15" style="enable-background:new 0 0 140 15;" xml:space="preserve">
<style type="text/css">
	.st0{fill:#EFF1F4;}
</style>
<g>
	<g>
		<g>
			<g>
				<path class="st0" d="M73.8,0c3.1,0,5.4,1.7,5.5,4.3l0,0.2l0,0.5h-3.9l0-0.5c-0.1-0.7-0.7-1.1-1.7-1.1c-0.8,0-1.4,0.4-1.4,0.9
					c0,0.4,0.3,0.6,1,0.9l0.2,0.1l1.4,0.4c2.4,0.7,3.5,1.9,3.5,3.9c0,2.9-2.5,4.8-6.1,4.8c-3.2,0-5.5-1.6-5.6-4.3l0-0.2l0-0.5h4
					l0.1,0.4c0.1,0.6,0.8,1.1,1.8,1.1c1,0,1.6-0.4,1.6-0.9c0-0.3-0.2-0.5-1.1-0.8l-0.2-0.1l-1.4-0.4c-2.2-0.6-3.4-2.1-3.4-4
					C68,2,70.5,0,73.8,0z M86.1,0c3.1,0,5.4,1.7,5.5,4.3l0,0.2l0,0.5h-3.9l0-0.5C87.6,3.9,87,3.4,86,3.4c-0.8,0-1.4,0.4-1.4,0.9
					c0,0.4,0.3,0.6,1,0.9l0.2,0.1l1.4,0.4c2.4,0.7,3.5,1.9,3.5,3.9c0,2.9-2.5,4.8-6.1,4.8c-3.2,0-5.5-1.6-5.6-4.3l0-0.2l0-0.5h4
					L83,9.8c0.1,0.6,0.8,1.1,1.8,1.1c1,0,1.6-0.4,1.6-0.9c0-0.3-0.2-0.5-1.1-0.8l-0.2-0.1l-1.4-0.4c-2.2-0.6-3.4-2.1-3.4-4
					C80.4,2,82.8,0,86.1,0z M37.8,0.3c3,0,4.9,1.7,4.9,4.3c0,3.4-2.4,5.5-6,5.6l-0.3,0h-1.7L34,14h-4.2l2.9-13.7H37.8z M37.2,3.8h-1
					l-0.7,3.1l1,0c1.2,0,2-0.8,2-1.9c0-0.7-0.4-1.1-1.2-1.1L37.2,3.8L37.2,3.8z M18,0.3h4.7L24.3,4L27,0.3h4.9l-6,7l3,6.6h-4.7
					l-1.6-3.6L19.8,14H15l5.9-7.1L18,0.3z M3,0.3h2.7l3.2,6.6L2.8,14H0l5.9-7.1C5.9,6.9,3,0.3,3,0.3z M8,0.3h2.7l3.2,6.6L7.8,14H5
					l5.9-7.1C10.9,6.9,8,0.3,8,0.3z M13,0.3h2.7l3.2,6.6L12.8,14H10l5.9-7.1C15.9,6.9,13,0.3,13,0.3z M57.8,0.3h9.7l-0.8,3.6h-5.5
					L61,5.5h5.1l-0.7,3.4h-5.1l-0.3,1.6h5.5L64.6,14h-9.7C54.9,14,57.8,0.3,57.8,0.3z M50.8,0.3c2.6,0,4.6,1.8,4.6,4.2
					c0,1.8-1,3.4-2.5,4.3L52.6,9L52.5,9l1.8,5h-4.5l-1.4-4.4h-1L46.4,14h-4.2L45,0.3L50.8,0.3L50.8,0.3z M49.9,3.8h-1.3L48,6.3h1.3
					c1.1,0,1.8-0.6,1.8-1.5c0-0.6-0.3-1-1.1-1C50,3.8,49.9,3.8,49.9,3.8z"/>
				<path class="st0" d="M134.2,0c3.1,0,5.4,1.7,5.5,4.3l0,0.2l0,0.5h-3.9l0-0.5c-0.1-0.7-0.7-1.1-1.7-1.1c-0.8,0-1.4,0.4-1.4,0.9
					c0,0.4,0.3,0.6,1,0.9l0.2,0.1l1.4,0.4c2.4,0.7,3.5,1.9,3.5,3.9c0,2.9-2.5,4.8-6.1,4.8c-3.2,0-5.5-1.6-5.6-4.3l0-0.2l0-0.5h4
					l0.1,0.4c0.1,0.6,0.8,1.1,1.8,1.1c1,0,1.6-0.4,1.6-0.9c0-0.3-0.2-0.5-1.1-0.8l-0.2-0.1l-1.4-0.4c-2.2-0.6-3.4-2.1-3.4-4
					C128.4,2,130.9,0,134.2,0L134.2,0z M100,0.3c2.4,0,4.2,1.3,4.2,3.2c0,1.4-0.8,2.6-1.9,3.3l-0.2,0.1l0.1,0.1
					c0.7,0.5,1.2,1.2,1.3,2.1l0,0.2l0,0.2c0,2.6-2.1,4.4-5,4.5l-0.2,0h-7.2L94,0.3H100z M98.1,8.4h-1.5l-0.5,2.3h1.5l0.2,0
					c1-0.1,1.6-0.6,1.6-1.4c0-0.5-0.4-0.8-1.1-0.9C98.2,8.4,98.1,8.4,98.1,8.4z M97.6,3.5l-0.4,1.9h1.2l0.2,0
					c0.8-0.1,1.4-0.5,1.4-1.2c0-0.4-0.3-0.7-0.9-0.7l-0.2,0H97.6z M118.3,0.3h9.7l-0.8,3.6l-5.5,0l-0.3,1.5l5.1,0l-0.7,3.4l-5.1,0
					l-0.3,1.6l5.5,0l-0.8,3.6h-9.7L118.3,0.3z M106.8,0.3h9.7l-0.8,3.6l-5.5,0L110,5.5l5.1,0l-0.7,3.4l-5.1,0l-0.3,1.6l5.5,0
					l-0.8,3.6h-9.7L106.8,0.3z"/>
			</g>
		</g>
	</g>
</g>
</svg>
