<svg width="16" height="16" viewBox="0 0 16 16" fill="none" xmlns="http://www.w3.org/2000/svg">
<path d="M2.00024 2.09399V5.13775H5.044" stroke="#DFDFDF" stroke-width="1.2" stroke-linecap="round" stroke-linejoin="round"/>
<path d="M2.38403 4.75759C3.54688 2.71044 5.71937 1.33337 8.20907 1.33337C11.1584 1.33337 13.6644 3.26597 14.572 5.95522M2.61678 11.9865C3.34654 13.0968 4.38637 13.9776 5.61033 14.5002" stroke="#DFDFDF" stroke-width="1.2" stroke-linecap="round" stroke-linejoin="round"/>
<path fill-rule="evenodd" clip-rule="evenodd" d="M14.2781 12.6362V10.1478C14.2781 9.88591 14.1472 9.62398 13.8853 9.49302L11.7243 8.24886C11.4624 8.11789 11.2005 8.11789 10.9386 8.24886L8.77766 9.49302C8.51573 9.62398 8.38477 9.88591 8.38477 10.1478V12.6362C8.38477 12.8981 8.51573 13.16 8.77766 13.291L10.9386 14.5351C11.2005 14.6661 11.4624 14.6661 11.7243 14.5351L13.8853 13.291C14.1472 13.16 14.2781 12.8981 14.2781 12.6362Z" stroke="#DFDFDF" stroke-width="1.2" stroke-linecap="round" stroke-linejoin="round"/>
<path d="M8.51514 9.75427L11.3309 11.3913L14.1466 9.75427" stroke="#DFDFDF" stroke-width="1.2" stroke-linecap="round" stroke-linejoin="round"/>
<path d="M11.3294 11.3927V14.6668" stroke="#DFDFDF" stroke-width="1.2" stroke-linecap="round" stroke-linejoin="round"/>
</svg>
