<svg width="24" height="24" viewBox="0 0 24 24" fill="none" xmlns="http://www.w3.org/2000/svg">
<path d="M11.9999 13.833H12.9166C13.9249 13.833 14.7499 13.008 14.7499 11.9997V2.83301H6.49994C5.12494 2.83301 3.92411 3.59383 3.30078 4.71216" stroke="#D1D5DB" stroke-width="1.4" stroke-linecap="round" stroke-linejoin="round"/>
<path d="M2.83337 16.583C2.83337 18.1047 4.06171 19.333 5.58337 19.333H6.50004C6.50004 18.3247 7.32504 17.4997 8.33337 17.4997C9.34171 17.4997 10.1667 18.3247 10.1667 19.333H13.8334C13.8334 18.3247 14.6584 17.4997 15.6667 17.4997C16.675 17.4997 17.5 18.3247 17.5 19.333H18.4167C19.9384 19.333 21.1667 18.1047 21.1667 16.583V13.833H18.4167C17.9125 13.833 17.5 13.4205 17.5 12.9163V10.1663C17.5 9.66217 17.9125 9.24967 18.4167 9.24967H19.5992L18.0317 6.50885C17.7017 5.94052 17.0967 5.58301 16.4367 5.58301H14.75V11.9997C14.75 13.008 13.925 13.833 12.9167 13.833H12" stroke="#D1D5DB" stroke-width="1.4" stroke-linecap="round" stroke-linejoin="round"/>
<path d="M8.33333 21.1667C9.34585 21.1667 10.1667 20.3459 10.1667 19.3333C10.1667 18.3208 9.34585 17.5 8.33333 17.5C7.32081 17.5 6.5 18.3208 6.5 19.3333C6.5 20.3459 7.32081 21.1667 8.33333 21.1667Z" stroke="#D1D5DB" stroke-width="1.4" stroke-linecap="round" stroke-linejoin="round"/>
<path d="M15.6667 21.1667C16.6792 21.1667 17.5 20.3459 17.5 19.3333C17.5 18.3208 16.6792 17.5 15.6667 17.5C14.6542 17.5 13.8334 18.3208 13.8334 19.3333C13.8334 20.3459 14.6542 21.1667 15.6667 21.1667Z" stroke="#D1D5DB" stroke-width="1.4" stroke-linecap="round" stroke-linejoin="round"/>
<path d="M21.1667 12V13.8333H18.4167C17.9125 13.8333 17.5 13.4208 17.5 12.9167V10.1667C17.5 9.6625 17.9125 9.25 18.4167 9.25H19.5991L21.1667 12Z" stroke="#D1D5DB" stroke-width="1.4" stroke-linecap="round" stroke-linejoin="round"/>
<path d="M2.83337 8.33301H8.33337" stroke="#D1D5DB" stroke-width="1.4" stroke-linecap="round" stroke-linejoin="round"/>
<path d="M2.83337 11.083H6.50004" stroke="#D1D5DB" stroke-width="1.4" stroke-linecap="round" stroke-linejoin="round"/>
<path d="M2.83337 13.833H4.66671" stroke="#D1D5DB" stroke-width="1.4" stroke-linecap="round" stroke-linejoin="round"/>
</svg>
