<svg width="85" height="24" viewBox="0 0 85 24" fill="none" xmlns="http://www.w3.org/2000/svg">
<g clip-path="url(#clip0_7805_136569)">
<path d="M18.2462 4.5456C18.2298 4.42639 18.1257 4.36025 18.0393 4.35305C17.9535 4.34585 16.2729 4.32031 16.2729 4.32031C16.2729 4.32031 14.8674 2.95544 14.7286 2.8166C14.5898 2.67775 14.3186 2.71967 14.2132 2.7511C14.2119 2.75176 13.9493 2.83297 13.5072 2.96985C13.4332 2.73015 13.3244 2.43543 13.1692 2.1394C12.6689 1.18452 11.936 0.679574 11.0505 0.678268C11.0492 0.678268 11.0486 0.678268 11.0473 0.678268C10.9857 0.678268 10.9248 0.684161 10.8633 0.689398C10.8371 0.657962 10.8109 0.627183 10.7834 0.597053C10.3976 0.184452 9.90315 -0.0166104 9.31043 0.00107257C8.16692 0.0338189 7.02803 0.85968 6.10458 2.32671C5.45489 3.35887 4.96041 4.65565 4.82026 5.65963C3.50713 6.06633 2.58892 6.35056 2.56862 6.35713C1.90583 6.56538 1.88488 6.58568 1.79843 7.2105C1.73424 7.68268 0 21.093 0 21.093L14.5335 23.6066L20.8325 22.0406C20.8325 22.0406 18.2626 4.66481 18.2462 4.5456ZM12.7796 3.19514C12.4449 3.29862 12.0644 3.41651 11.6518 3.54422C11.6433 2.96527 11.5745 2.15971 11.3047 1.46352C12.1724 1.62791 12.5994 2.60964 12.7796 3.19514ZM10.8914 3.77999C10.1297 4.01575 9.29862 4.27314 8.46492 4.5312C8.69937 3.63329 9.14408 2.73932 9.69029 2.15316C9.89331 1.93507 10.1775 1.69209 10.5142 1.55324C10.8305 2.21341 10.8993 3.14799 10.8914 3.77999ZM9.33332 0.762094C9.60185 0.756201 9.8278 0.815146 10.021 0.942201C9.71189 1.10266 9.41323 1.33319 9.13294 1.6338C8.40661 2.41316 7.84993 3.62281 7.62791 4.78989C6.93565 5.00404 6.25845 5.21429 5.63496 5.40685C6.0286 3.56976 7.5683 0.813179 9.33332 0.762094Z" fill="#95BF47"/>
<path d="M18.04 4.35372C17.9542 4.34652 16.2737 4.32098 16.2737 4.32098C16.2737 4.32098 14.8682 2.95611 14.7294 2.81726C14.6776 2.76552 14.6076 2.73867 14.5342 2.72754L14.5348 23.6059L20.8333 22.0407C20.8333 22.0407 18.2633 4.66548 18.247 4.54627C18.2306 4.42705 18.1258 4.36092 18.04 4.35372Z" fill="#5E8E3E"/>
<path d="M11.0428 7.59229L10.3113 10.3292C10.3113 10.3292 9.49527 9.95786 8.52796 10.0188C7.10936 10.1085 7.09429 11.0031 7.10873 11.2278C7.186 12.4518 10.4063 12.719 10.587 15.5863C10.7291 17.8419 9.39046 19.3849 7.46173 19.5067C5.14655 19.6527 3.87207 18.2872 3.87207 18.2872L4.36262 16.2006C4.36262 16.2006 5.6456 17.1686 6.67252 17.1038C7.34318 17.0612 7.58287 16.5156 7.55863 16.1299C7.45779 14.5332 4.83546 14.6275 4.66978 12.0038C4.53026 9.79612 5.9803 7.55889 9.17958 7.35717C10.4122 7.27793 11.0428 7.59229 11.0428 7.59229Z" fill="white"/>
<path d="M29.1276 13.3234C28.4033 12.9304 28.031 12.5991 28.031 12.1437C28.031 11.5643 28.5481 11.1921 29.3556 11.1921C30.2955 11.1921 31.1348 11.5851 31.1348 11.5851L31.7967 9.55708C31.7967 9.55708 31.188 9.08093 29.3965 9.08093C26.9034 9.08093 25.1755 10.5087 25.1755 12.5159C25.1755 13.654 25.9823 14.5231 27.0586 15.1435C27.9278 15.6398 28.2383 15.9919 28.2383 16.5089C28.2383 17.0468 27.8037 17.4814 26.9969 17.4814C25.7945 17.4814 24.659 16.8604 24.659 16.8604L23.9556 18.8884C23.9556 18.8884 25.0046 19.5919 26.7695 19.5919C29.3354 19.5919 31.177 18.3297 31.177 16.0536C31.1763 14.8337 30.2455 13.9645 29.1276 13.3234Z" fill="white"/>
<path d="M39.3496 9.06088C38.0874 9.06088 37.0942 9.66111 36.329 10.5712L36.2874 10.5504L37.3839 4.81909H34.5283L31.7559 19.4062H34.6114L35.5631 14.42C35.9353 12.5368 36.9077 11.3786 37.8185 11.3786C38.4596 11.3786 38.7084 11.8132 38.7084 12.4342C38.7084 12.8272 38.6668 13.3033 38.5843 13.6963L37.5086 19.4068H40.3643L41.4813 13.5099C41.6056 12.8889 41.6886 12.1445 41.6886 11.6475C41.6875 10.0333 40.8392 9.06088 39.3496 9.06088Z" fill="white"/>
<path d="M48.143 9.06079C44.7079 9.06079 42.4326 12.1645 42.4326 15.6197C42.4326 17.8335 43.7979 19.6127 46.3639 19.6127C49.7365 19.6127 52.0126 16.5921 52.0126 13.0538C52.0126 11.0057 50.8122 9.06079 48.143 9.06079ZM46.7361 17.4203C45.7635 17.4203 45.3496 16.5927 45.3496 15.5579C45.3496 13.9236 46.1983 11.2545 47.75 11.2545C48.7639 11.2545 49.0944 12.1236 49.0944 12.972C49.0944 14.7304 48.2469 17.4203 46.7361 17.4203Z" fill="white"/>
<path d="M59.3166 9.06079C57.3891 9.06079 56.2953 10.7575 56.2953 10.7575H56.2544L56.42 9.22643H53.8957C53.7718 10.2612 53.5436 11.8332 53.3166 13.0129L51.3301 23.4615H54.1857L54.9714 19.2404H55.0339C55.0339 19.2404 55.6198 19.6127 56.71 19.6127C60.0617 19.6127 62.2548 16.1783 62.2548 12.7017C62.2548 10.7783 61.4061 9.06079 59.3166 9.06079ZM56.5853 17.4612C55.844 17.4612 55.4054 17.0474 55.4054 17.0474L55.8814 14.3783C56.2127 12.5991 57.1436 11.4194 58.137 11.4194C59.0061 11.4194 59.2749 12.2262 59.2749 12.9921C59.2749 14.8337 58.1783 17.4612 56.5853 17.4612Z" fill="white"/>
<path d="M66.3306 4.96387C65.4206 4.96387 64.6963 5.68816 64.6963 6.619C64.6963 7.46738 65.2341 8.04681 66.0411 8.04681H66.0824C66.9724 8.04681 67.7376 7.44657 67.7584 6.39167C67.7584 5.56406 67.1998 4.96387 66.3306 4.96387Z" fill="white"/>
<path d="M62.3379 19.4061H65.1927L67.1383 9.28882H64.2618L62.3379 19.4061Z" fill="white"/>
<path d="M74.4005 9.26799H72.414L72.5171 8.79185C72.6827 7.81942 73.2623 6.95026 74.214 6.95026C74.7219 6.95026 75.124 7.09513 75.124 7.09513L75.6827 4.86057C75.6827 4.86057 75.1862 4.61243 74.1306 4.61243C73.1167 4.61243 72.1036 4.90212 71.3375 5.56405C70.365 6.39165 69.9097 7.59142 69.6823 8.79185L69.6001 9.26799H68.2754L67.8615 11.4201H69.1862L67.6758 19.4067H70.5314L72.0418 11.4201H74.0075L74.4005 9.26799Z" fill="white"/>
<path d="M81.2694 9.28888C81.2694 9.28888 79.4844 13.7859 78.6829 16.2407H78.6412C78.587 15.4502 77.9378 9.28888 77.9378 9.28888H74.9374L76.6555 18.5786C76.6972 18.7852 76.6764 18.9099 76.5934 19.0547C76.2617 19.6959 75.7034 20.3169 75.0412 20.7722C74.5034 21.1652 73.9034 21.4134 73.4277 21.579L74.2138 24C74.7934 23.876 75.993 23.3998 77.0069 22.4482C78.3108 21.2276 79.5104 19.3444 80.7517 16.7786L84.2486 9.28821H81.2694V9.28888Z" fill="white"/>
</g>
<defs>
<clipPath id="clip0_7805_136569">
<rect width="84.5902" height="24" fill="white"/>
</clipPath>
</defs>
</svg>
