<svg width="24" height="24" viewBox="0 0 24 24" fill="none" xmlns="http://www.w3.org/2000/svg">
    <path d="m12.94 11.06-7.07 7.07M6.633 13 3.17 12.18a.5.5 0 0 1-.239-.84l2.754-2.754a1 1 0 0 1 .699-.293l3.105-.027" stroke="#9CA3AF" stroke-width="1.4" stroke-linecap="round" stroke-linejoin="round"/>
    <path clip-rule="evenodd" d="m19.88 8.975.807-3.888a1.5 1.5 0 0 0-1.774-1.774l-3.888.808a5.993 5.993 0 0 0-3.02 1.632l-3.19 3.19a8.006 8.006 0 0 0-2.26 4.497l-.01.073a3.48 3.48 0 0 0 .981 2.961v0a3.476 3.476 0 0 0 2.961.981l.073-.01a8 8 0 0 0 4.498-2.26l3.19-3.189a5.993 5.993 0 0 0 1.631-3.02v0z" stroke="#9CA3AF" stroke-width="1.4" stroke-linecap="round" stroke-linejoin="round"/>
    <path d="M13.4 4.714a22.415 22.415 0 0 1 5.886 5.886M11 17.367l.818 3.463a.5.5 0 0 0 .84.239l2.754-2.754a1 1 0 0 0 .293-.699l.027-3.105" stroke="#9CA3AF" stroke-width="1.4" stroke-linecap="round" stroke-linejoin="round"/>
</svg>
