<svg width="61" height="61" viewBox="0 0 61 61" fill="none" xmlns="http://www.w3.org/2000/svg">
<path opacity="0.6" d="M23.0455 44.1784C34.0667 44.1784 43.0012 35.244 43.0012 24.2228C43.0012 13.2016 34.0667 4.26709 23.0455 4.26709C12.0243 4.26709 3.08984 13.2016 3.08984 24.2228C3.08984 35.244 12.0243 44.1784 23.0455 44.1784Z" fill="white"/>
<path d="M52.9278 48.5344L48.6733 52.6876L36.5176 40.6332L40.6708 36.48L52.9278 48.5344Z" fill="#526DFF"/>
<path d="M6.83761 6.79967C-2.2792 15.9165 -2.2792 30.6047 6.83761 39.6202C15.9544 48.6357 30.6426 48.737 39.6581 39.6202C48.7749 30.5034 48.7749 15.8152 39.6581 6.79967C30.5413 -2.21584 15.8531 -2.31714 6.83761 6.79967ZM35.9101 35.9735C28.9205 42.963 17.4739 42.963 10.4843 35.9735C3.49477 28.9839 3.49477 17.5372 10.4843 10.5477C17.4739 3.55814 28.9205 3.55814 35.9101 10.5477C43.0009 17.5372 43.0009 28.8826 35.9101 35.9735Z" fill="url(#paint0_linear)"/>
<path d="M59.5128 59.2721C57.5882 61.1968 54.5492 61.1968 52.7259 59.2721L40.3676 47.0151C39.5572 46.306 39.5572 44.9891 40.3676 44.28L44.4195 40.2281C45.1286 39.519 46.3441 39.519 47.1545 40.2281L59.5128 52.4851C61.3362 54.4098 61.3362 57.4487 59.5128 59.2721Z" fill="url(#paint1_linear)"/>
<path d="M23.4501 35.5684C22.5385 35.5684 21.8294 34.8594 21.8294 33.9477C21.8294 33.036 22.6398 32.2256 23.5514 32.2256C24.4631 32.2256 25.2735 32.9347 25.2735 33.8464C25.1722 34.8594 24.4631 35.5684 23.5514 35.5684H23.4501ZM23.5514 30.4023C22.6398 30.4023 21.9307 29.6932 21.8294 28.7815C21.8294 28.6802 21.8294 28.6802 21.8294 28.5789V25.2361C21.8294 23.514 22.9437 21.9945 24.5644 21.3867C25.8813 20.9815 26.6917 19.6647 26.5904 18.3478C26.4891 16.8283 25.2735 15.5115 23.6527 15.4102H23.4501C22.1333 15.4102 20.9177 16.3218 20.5125 17.6387C20.3099 18.3478 19.6008 18.753 18.8917 18.753C18.6891 18.753 18.4865 18.753 18.2839 18.6517C17.4736 18.3478 16.9671 17.5374 17.1697 16.6257C17.9801 13.8907 20.5125 11.8647 23.4501 11.8647C23.5514 11.8647 23.754 11.8647 23.8553 11.8647C25.5774 11.966 27.1982 12.6751 28.3124 13.992C29.4267 15.3089 30.0345 16.9296 29.9332 18.6517C29.8319 21.1841 28.1098 23.514 25.78 24.4257H25.6787H25.5774C25.3748 24.527 25.1722 24.7296 25.2735 25.0335V28.275C25.2735 28.7815 25.1722 29.1867 24.8683 29.4906C24.5644 29.7945 24.1592 29.9971 23.6527 30.0984L23.5514 30.4023Z" fill="url(#paint2_linear)"/>
<defs>
<linearGradient id="paint0_linear" x1="0.00253245" y1="23.2151" x2="46.4653" y2="23.2151" gradientUnits="userSpaceOnUse">
<stop stop-color="#83A6FF"/>
<stop offset="1" stop-color="#5A78FF"/>
</linearGradient>
<linearGradient id="paint1_linear" x1="39.731" y1="50.2092" x2="60.9013" y2="50.2092" gradientUnits="userSpaceOnUse">
<stop stop-color="#83A6FF"/>
<stop offset="1" stop-color="#5A78FF"/>
</linearGradient>
<linearGradient id="paint2_linear" x1="23.623" y1="13.3419" x2="23.623" y2="32.8445" gradientUnits="userSpaceOnUse">
<stop stop-color="#83A6FF"/>
<stop offset="1" stop-color="#5A78FF"/>
</linearGradient>
</defs>
</svg>