<svg width="24" height="24" viewBox="0 0 24 24" fill="none" xmlns="http://www.w3.org/2000/svg">
<path d="M14.7 3V12C14.7 12.99 13.89 13.8 12.9 13.8H3V6.6C3 4.611 4.611 3 6.6 3H14.7Z" stroke="#D1D5DB" stroke-width="1.4" stroke-linecap="round" stroke-linejoin="round"/>
<path d="M21 13.8002V16.5002C21 17.9942 19.794 19.2002 18.3 19.2002H17.4C17.4 18.2102 16.59 17.4002 15.6 17.4002C14.61 17.4002 13.8 18.2102 13.8 19.2002H10.2C10.2 18.2102 9.39 17.4002 8.4 17.4002C7.41 17.4002 6.6 18.2102 6.6 19.2002H5.7C4.206 19.2002 3 17.9942 3 16.5002V13.8002H12.9C13.89 13.8002 14.7 12.9902 14.7 12.0002V5.7002H16.356C17.004 5.7002 17.598 6.0512 17.922 6.6092L19.461 9.3002H18.3C17.805 9.3002 17.4 9.7052 17.4 10.2002V12.9002C17.4 13.3952 17.805 13.8002 18.3 13.8002H21Z" stroke="#D1D5DB" stroke-width="1.4" stroke-linecap="round" stroke-linejoin="round"/>
<path d="M8.39998 21.0004C9.39409 21.0004 10.2 20.1945 10.2 19.2004C10.2 18.2063 9.39409 17.4004 8.39998 17.4004C7.40586 17.4004 6.59998 18.2063 6.59998 19.2004C6.59998 20.1945 7.40586 21.0004 8.39998 21.0004Z" stroke="#D1D5DB" stroke-width="1.4" stroke-linecap="round" stroke-linejoin="round"/>
<path d="M15.6 21.0004C16.5942 21.0004 17.4 20.1945 17.4 19.2004C17.4 18.2063 16.5942 17.4004 15.6 17.4004C14.6059 17.4004 13.8 18.2063 13.8 19.2004C13.8 20.1945 14.6059 21.0004 15.6 21.0004Z" stroke="#D1D5DB" stroke-width="1.4" stroke-linecap="round" stroke-linejoin="round"/>
<path d="M21 11.9998V13.7998H18.3C17.805 13.7998 17.4 13.3948 17.4 12.8998V10.1998C17.4 9.7048 17.805 9.2998 18.3 9.2998H19.461L21 11.9998Z" stroke="#D1D5DB" stroke-width="1.4" stroke-linecap="round" stroke-linejoin="round"/>
</svg>
