<svg width="12" height="12" viewBox="0 0 12 12" fill="none" xmlns="http://www.w3.org/2000/svg">
    <path d="m9.151 2.78 1.15-1.15 1.15 1.15M10.301 1.63v3.448M7.75 1.436a5.171 5.171 0 1 0 3.012 5.642M5.658 4.575V4M5.658 8.023v.575" stroke="#DFDFDF" stroke-linecap="round" stroke-linejoin="round"/>
    <path d="M4.661 7.613a.83.83 0 0 0 .71.41h.632a.805.805 0 0 0 .195-1.59l-1.077-.27a.805.805 0 0 1 .192-1.588h.632a.829.829 0 0 1 .71.41" stroke="#DFDFDF" stroke-linecap="round" stroke-linejoin="round"/>
</svg>
