<svg width="20" height="20" viewBox="0 0 20 20" fill="none" xmlns="http://www.w3.org/2000/svg">
<g clip-path="url(#clip0_1_87136)">
<rect width="20" height="20" rx="10" fill="#EFF1F4"/>
<path d="M7.70779 9.88619C7.95708 9.88619 8.18414 9.85378 8.38987 9.79139C8.59529 9.72809 8.772 9.63819 8.91935 9.52015C9.06794 9.40241 9.18038 9.26327 9.25884 9.10303C9.337 8.94219 9.37593 8.76207 9.37593 8.56116V8.54433C9.37593 8.11407 9.22672 7.78869 8.92861 7.56821C8.6302 7.34742 8.23448 7.23733 7.74239 7.23733H6.20554V9.8865H7.70779V9.88619ZM4.88184 6.06152H7.79057C8.22738 6.06152 8.62434 6.11871 8.98391 6.23216C9.34287 6.34531 9.64994 6.50769 9.9054 6.71686C10.1609 6.92633 10.3577 7.18107 10.4939 7.48198C10.6307 7.78349 10.699 8.12385 10.699 8.50641V8.52874C10.699 8.94708 10.6178 9.31128 10.4553 9.62412C10.2925 9.93573 10.0719 10.1978 9.79481 10.4113C9.5171 10.6241 9.19336 10.7837 8.82359 10.8901C8.45351 10.9966 8.06149 11.0498 7.64662 11.0498H6.20554V13.7693H4.88214V6.06183L4.88184 6.06152Z" fill="#0446DB"/>
<path d="M14.1543 8.54553C13.6727 9.02201 12.889 9.02201 12.4008 8.54553C11.9196 8.06904 11.9196 7.29263 12.4008 6.80907C12.8824 6.32551 13.6658 6.33258 14.1543 6.80907C14.6421 7.28556 14.6421 8.06196 14.1543 8.54553ZM11.8133 6.22645C11.0033 7.02839 11.0033 8.32436 11.8133 9.12015L13.2782 10.5696L14.7431 9.12015C15.553 8.31851 15.553 7.02224 14.7431 6.22645C13.9335 5.42452 12.6225 5.42452 11.8129 6.22645" fill="#0446DB"/>
</g>
<defs>
<clipPath id="clip0_1_87136">
<rect width="20" height="20" fill="white"/>
</clipPath>
</defs>
</svg>
