<svg width="16" height="16" viewBox="0 0 16 16" fill="none" xmlns="http://www.w3.org/2000/svg">
    <circle cx="8" cy="8" r="8" fill="#787878"/>
    <path d="M11.766 11.304c-.187.184-.638.696-1.55.696-.91 0-1.798-.712-1.915-.808-.124-.096-2.063-1.36-2.803-3.352C4.875 6.168 5 5.832 5.031 5.464c.024-.352.444-1.16.88-1.32.436-.168.81-.168.888-.104.07.032.124.176.218.368.085.192.537 1.16.6 1.344.062.184.093.312-.094.44s-.6.512-.724.624c-.125.12-.14.232-.047.424.093.2.288.824.919 1.592a5.58 5.58 0 0 0 1.285 1.08c.186.12.288.016.381-.08a6.3 6.3 0 0 1 .32-.296c.116-.096.186-.128.31-.192.125-.072.234-.04.328.016.093.048 1.012.424 1.378.6.311.144.311.304.32.448.007.112.007.248.007.376a.73.73 0 0 1-.234.52z" fill="#fff"/>
</svg>
