<svg xmlns="http://www.w3.org/2000/svg" width="540" height="360" viewBox="0 0 540 360">
    <g fill="none">
        <path fill="#4d4d4d" d="M0 0H540V360H0z"/>
        <path fill="#F3F3F4" d="M387.39 108.018c-2.485-3.475-5.391-6.628-8.654-9.386-6.053-5.13-8.5-11.96-9.808-19.457-.686-3.943-1.901-7.708-4.245-11.077-7.18-10.33-20.353-4.902-24.326 2.632-4.164 7.894-2.95 15.826-.445 23.696 2.987 9.39 8.552 17.145 16.355 23.172 2.706 2.088 5.618 3.975 7.908 4.703 7.318 2.538 13.648 2.759 19.931.498 5.116-1.84 7.84-8.397 3.284-14.78zm-22.82-32.236c-.369-.204-.83-.47-.971-.825-1.352-3.402-3.682-5.921-6.808-7.77-.384-.23-.71-.672-.461-1.137.369-.693.975-.347 1.384-.067 3.136 2.2 5.885 4.754 7.281 8.453.122.323.19.669.307 1.09-.297.114-.597.332-.732.256z"/>
        <path fill="#F3F3F4" d="M419.672 180.714c-.05-10.868-1.937-21.323-8.154-30.577-5.35-7.961-12.997-12.416-22.236-14.372-8.345-1.767-16.907-1.666-25.322-2.89-9.115-1.326-16.37-5.804-22.592-12.382-7.017-7.416-11.688-16.3-16.106-25.341-3.897-7.984-7.061-16.366-12.669-23.414-2.59-3.256-5.243-6.476-8.939-8.595-1.961-2.516-4.802-3.755-7.563-5.054-11.611-5.468-23.721-6.131-36.074-3.346-6.181 1.396-12.247 3.263-17.81 6.447-6.152 2.985-11.808 6.708-16.876 11.307-5.042 4.154-9.557 8.834-13.823 13.773-8.023 9.286-14.72 19.487-20.538 30.245-2.224 4.114-4.232 8.376-6.062 12.722l-.446 1.062c-1.759 4.161-3.529 8.315-4.937 12.6-1.603 4.848-2.96 9.775-4.064 14.761-3.755 17.04-4.203 34.293-.166 51.854.065.285.131.577.198.855 1.547 6.552 3.529 12.934 6.059 19.123.923 2.251 1.918 4.476 2.984 6.673.91 1.867 1.986 3.653 3.076 5.43.662 1.08 1.33 2.16 1.97 3.249 1.188 2.192 2.26 4.451 4.161 6.154 1.399 3.116 3.718 5.575 5.915 8.077.22.247.436.497.65.748 4.814 5.604 9.94 10.926 16.135 15.075 2.968 2.308 6.007 4.486 9.147 6.52 3.147 2.043 6.397 3.925 9.737 5.637 6.161 3.151 12.473 5.885 19.046 7.94 14.299 4.475 28.943 6.253 43.933 5.335 10.696-.64 21.03-2.975 31.039-6.542 1.36-.485 2.71-.992 4.05-1.521 3.83-1.507 7.579-3.182 11.25-5.026 4.202-2.105 8.302-4.416 12.3-6.935 1.473-.923 2.93-1.871 4.37-2.845l.156-.104c1.809-1.225 3.59-2.48 5.344-3.762 6.314-4.596 12.277-9.658 17.84-15.142 4.7-4.641 9.061-9.613 13.053-14.876 4.86-6.43 8.949-13.309 12.487-20.585 6.507-13.39 9.543-27.485 9.477-42.278z"/>
        <path fill="#FEFEFE" d="M365.308 75.526c-.116-.421-.184-.767-.307-1.091-1.401-3.698-4.145-6.252-7.281-8.452-.406-.284-1.012-.621-1.385.067-.25.461.078.91.462 1.137 3.121 1.846 5.45 4.366 6.808 7.77.14.355.602.62.971.826.13.075.428-.143.732-.257z"/>
        <path fill="#EBECEE" d="M381.996 258.083c-8.253-1.225-16.354-3.128-24.231-5.876-8.094-2.823-16.23-5.532-24.05-9.09-16.361-7.45-31.897-16.299-46.19-27.237-14.343-10.974-28.55-22.124-42.973-32.988-8.926-6.726-18-13.412-28.264-17.924-13.128-5.77-26.646-9.387-40.817-7.298-3.754 17.04-4.202 34.292-.166 51.853.066.285.132.577.198.855 1.548 6.552 3.529 12.934 6.06 19.123.922 2.252 1.917 4.476 2.983 6.673.91 1.867 1.986 3.653 3.076 5.431 4.81.998 9.674 1.724 14.566 2.174 16.847 1.593 33.592-.008 50.301-1.87 18.744-2.09 37.28-1.707 55.678 2.956 10.668 2.702 21.025 6.208 30.868 11.043 9.932 4.877 19.072 10.977 27.784 17.701 6.315-4.597 12.278-9.658 17.84-15.142-.89-.124-1.777-.252-2.663-.384z"/>
        <path fill="#D3D7DB" d="M356.946 280.32c-4 2.513-8.1 4.825-12.301 6.935-3.67 1.841-7.42 3.517-11.25 5.026-1.34.528-2.69 1.035-4.05 1.52-10.003 3.568-20.337 5.902-31.039 6.543-14.993.897-29.637-.881-43.933-5.334-6.576-2.057-12.885-4.79-19.046-7.941-3.34-1.712-6.59-3.594-9.737-5.638-3.14-2.033-6.18-4.213-9.147-6.52-6.195-4.153-11.321-9.47-16.134-15.074-.215-.252-.432-.5-.65-.748 5.854 1.444 11.746 2.749 17.632 4.088 11.524 2.621 23.132 4.687 34.824 6.199 13.992 1.833 28 2.077 42.064 1.181 11.621-.743 23.26-.971 34.785 1.05 9.264 1.626 18.304 3.96 26.86 8.16l1.122.553z"/>
        <path fill="#E0E2E5" d="M366.815 273.61c-1.753 1.282-3.535 2.536-5.344 3.76l-.156.105c-1.442.974-2.898 1.923-4.37 2.845l-1.123-.553c-8.556-4.2-17.596-6.534-26.86-8.16-11.526-2.021-23.164-1.793-34.785-1.05-14.064.9-28.072.652-42.064-1.181-11.707-1.539-23.312-3.605-34.816-6.199-5.885-1.34-11.779-2.644-17.633-4.088-2.192-2.507-4.516-4.961-5.915-8.077-1.901-1.703-2.973-3.968-4.162-6.154-.64-1.09-1.307-2.168-1.97-3.248 4.811.998 9.674 1.724 14.567 2.173 16.846 1.594 33.592-.008 50.3-1.87 18.745-2.09 37.28-1.706 55.678 2.956 10.669 2.703 21.026 6.21 30.868 11.044 9.932 4.872 19.072 10.972 27.785 17.696z"/>
        <path fill="#FFC5B8" d="M377.135 190.038s.173-4.296-.975-7.104c-1.148-2.807 1.361-6.77 1.615-8.892s-1.37-12.55.127-13.189c1.496-.638 6.474 2.184 5.17 6.382-1.2 3.863 0 5.913 0 5.913s8.02-6.423 11.848-5.02c3.828 1.403 2.807 4.674 2.807 4.674s3.319.432 3.702 4.133c0 0 2.297 3.063 1.276 6.254 0 0 1.532 2.043-.382 4.467-1.914 2.424-6.808 4.154-9.61 2.939-1.139 2.127-2.39 4.193-3.75 6.187-2.205 3.27-11.828-6.744-11.828-6.744z"/>
        <path fill="#E98970" d="M395.203 190.983s-2.193-1.269-.622-3.137c0 0-3.787.68-4.085-2.573 0 0-2.638-.851-2.552-3.49 0 0-3.319-1.488-2.042-4.168 1.276-2.68 7.658-7.658 7.658-7.658s-4.255 2.013-7.477 6.41c-3.176 4.331 4.74 10.239 6.597 13.5.25.438-1.076 2.46-1.95 3.381-1.153 1.26-1.41 2.061-2.786 1.638-1.475-.454-10.802-5.813-10.802-5.813l-.007.963s11.291 7.417 11.83 6.743c.539-.674 6.238-5.796 6.238-5.796z"/>
        <path fill="#E98970" d="M390.495 185.256c.605-.127 1.2-.276 1.787-.448.589-.166 1.167-.361 1.731-.577.567-.212 1.123-.452 1.666-.721.542-.262 1.066-.56 1.568-.89 1.007-.65 1.892-1.47 2.616-2.424.721-.958 1.215-2.077 1.545-3.268h.034c-.196 1.225-.659 2.391-1.355 3.417-.044.063-.083.13-.13.192l-.142.183c-.097.115-.185.248-.291.36l-.308.346-.33.327c-.45.424-.934.81-1.448 1.154-1.042.666-2.163 1.197-3.338 1.581-.586.195-1.18.359-1.783.492-.602.137-1.21.238-1.824.302l.002-.026zM387.94 181.768c.544-.218 1.08-.45 1.605-.693.525-.243 1.046-.505 1.553-.78.508-.274 1.007-.566 1.485-.885.484-.307.95-.642 1.394-1.003.449-.356.873-.742 1.27-1.154.392-.412.754-.851 1.082-1.316l.23-.357c.041-.06.076-.116.11-.184l.106-.184.108-.186.094-.193c.061-.13.13-.255.185-.388.228-.532.413-1.083.551-1.646h.034c-.078.582-.217 1.154-.414 1.706-.206.55-.466 1.077-.777 1.574-.318.493-.678.959-1.074 1.392-.401.428-.831.828-1.288 1.196-.922.725-1.918 1.35-2.972 1.864-.525.258-1.063.494-1.609.706-.544.215-1.1.401-1.663.56l-.01-.03zM383.077 173.147l.615-.47c1.3 2.46 3.632 11.943 1.59 15.715-.005 0 1.62-6.592-2.205-15.245z"/>
        <path fill="#FFF" d="M372.841 194.803l2.807-5.872s8.169 6.637 15.7 6.893l-4.34 8.806s-16.847-8.041-14.167-9.827z"/>
        <path fill="#D38D00" d="M196.816 141.5c-.014 4.332-.816 8.626-2.368 12.671-.711 1.854-1.574 3.646-2.58 5.359-.296.504-.603 1-.923 1.485-10.423 15.976-31.673 21.099-48.304 11.344-.764-.447-1.504-.919-2.221-1.413-15.395-10.59-20.211-31.44-10.609-47.812 2.7-4.616 6.397-8.57 10.823-11.57 10.437-7.074 24.213-8.364 36.084-2.507.781.385 1.554.8 2.317 1.248 11.465 6.722 17.827 18.803 17.781 31.195z"/>
        <path fill="#FFC606" d="M187.33 156.868c-.6 1.024-1.242 2.006-1.925 2.947-10.232 14.116-29.272 18.881-44.982 11.13-.782-.384-1.555-.8-2.318-1.248-17.136-10.05-22.88-32.09-12.828-49.225 2.246-3.839 5.186-7.227 8.67-9.992l.011-.008c2.11-1.672 4.4-3.1 6.83-4.257l.089-.042c10.384-4.922 22.961-4.786 33.624 1.47.763.448 1.503.92 2.22 1.414 15.394 10.59 20.212 31.439 10.608 47.81z"/>
        <circle cx="156.302" cy="138.67" r="28.85" fill="#F5B400" transform="rotate(-45 156.302 138.67)"/>
        <path fill="#D38D00" d="M132.462 126.552c8.06-13.744 25.737-18.347 39.48-10.29 4.955 2.899 8.927 7.215 11.404 12.392-2.3-6.248-6.7-11.503-12.448-14.865-13.744-8.064-31.419-3.458-39.475 10.285-4.396 7.48-5.184 16.545-2.145 24.672-1.817-7.533-.678-15.476 3.184-22.194z"/>
        <path fill="#FCE267" d="M166.12 125.083l1.665-2.839-2.884-1.694-1.664 2.838c-4.812-2.512-7.246-1.723-10.123 3.182-2.5 4.27-3.048 6.037-2.09 8.077 1.04 2.332 4.23 5.498 4.91 7.807.312.938.146 1.406-.423 2.399-.081.142-.17.294-.268.461-1.586 2.705-2.248 3.304-4.27 2.121-2.062-1.21-1.5-2.483-.263-4.591.278-.476.586-.933.923-1.369l-5.088-2.983c-.765.936-1.454 1.934-2.058 2.982-2.85 4.86-1.64 7.417 2.287 9.967l-2.094 3.577 2.884 1.693 2.122-3.618c4.846 2.387 7.416 1.247 10.838-4.143.293-.462.593-.954.9-1.478 2.77-4.722 1.662-5.987.192-8.205-1.064-1.549-2.423-3.02-3.658-4.794-1.154-1.603-1.154-1.912.24-4.296 1.344-2.293 2.125-2.573 3.775-1.605 1.925 1.128 1.637 2.252.507 4.178-.293.526-.613 1.037-.959 1.531l5.042 2.957c.67-.852 1.28-1.75 1.824-2.687 2.561-4.358 1.936-6.758-2.267-9.468z"/>
        <path fill="#FFC5B8" d="M181.605 179.737s.631-4.132-.324-10.007c-.956-5.876-.882-13.146-3.6-11.53-2.716 1.615-3.524 4.113-3.378 7.05.147 2.938 1.47 8.373.515 8.813-.954.441-13.586 5.14-23.017 2.094 0 0 3.481 4.37 10.238 6.866 6.757 2.497 10.5 3.893 11.308 5.142.808 1.248 8.582-7.088 8.258-8.428z"/>
        <path fill="#FFF" d="M174.462 193.64l-3.858-4.822s9.076-8.565 12.48-9.757l3.346 4.538-11.968 10.04z"/>
        <path fill="#E98970" d="M394.583 187.829c.415-.01.829-.045 1.24-.106.404-.056.804-.135 1.2-.238.392-.102.777-.228 1.153-.378.373-.148.734-.323 1.08-.524.35-.195.683-.42.996-.67.32-.248.621-.517.903-.807.569-.598 1.084-1.244 1.54-1.93l.032.014c-.36.757-.82 1.462-1.369 2.096-.275.316-.576.608-.9.874-.321.27-.666.51-1.03.718-.73.415-1.523.708-2.347.87-.41.082-.827.134-1.245.154-.418.023-.837.01-1.253-.043v-.03z"/>
        <path fill="#DBDBDB" d="M301.16 165.403s-6.743.807-9.075 6.299c-2.332 5.49 5.447 69.558 18.15 64.708 12.702-4.85 19.65-54.832 11.51-61.175-8.14-6.344-13.714-13.011-20.585-9.832z"/>
        <path fill="#B51A1A" d="M301.393 173.244c-.124.518.371 41.278 5.347 66.109 4.975 24.83 4.885-23.74 4.885-23.74l-7.038-42.808-3.194.44z"/>
        <path fill="#2B363C" d="M391.348 201.692s-3.923 9.936-9.335 21.18c-.003.004-.006.009-.007.014-6.7 13.919-15.675 29.834-22.31 31.385-11.824 2.769-16.21-13.557-16.334-14.029v-.011 10.976c0 9.19 7.401 55.648 7.401 55.648h-99.555s9.19-33.95 12-46.457c2.811-12.507-2.807-50.033-2.807-50.033-.39.543-25.384 35.228-39.82 36.24-14.55 1.023-47.221-53.858-47.221-53.858 4.595-4.595 13.018-11.232 13.018-11.232 1.787 4.338 35.865 32.673 37.652 33.95 1.786 1.278 26.423-36.502 31.098-42.205 4.675-5.702 19.317-7.827 24.59-9.357 5.275-1.53 6.232-3.448 6.232-3.448 7.164 8.294 24.23 74.75 24.23 74.75-.085-13.018 3.966-76.639 3.966-76.639 1.187 1.1 14.329 4.995 21.585 6.867 7.257 1.871 23.036 49.436 23.036 49.436 2.466-7.658 12.42-22.719 12.42-22.719 8.93 7.332 20.16 9.542 20.16 9.542z"/>
        <path fill="#1C2426" d="M310.173 235.22s1.788 63.474 2.553 71.643h-4.27s1.99-66.368 0-69.431c-1.989-3.064-16.782-19.528-16.788-25.144-.006-5.616 2.037-15.024 1.399-15.617-.639-.593-10.339-1.354-10.722-4.866-.383-3.512-2.1-28.051-2.1-28.051l3.887-2.05 25.37 71.604.671 1.912z"/>
        <path fill="#1C2426" d="M318.087 160.468l-7.914 74.752.074 2.596c2.94-6.78 9.88-25.684 10.137-27.315.383-2.423-3.577-12.088-2.297-13.83 1.28-1.743 6.765-7.995 6.891-9.016.127-1.022-5.063-26.802-5.063-26.802l-1.828-.385z"/>
        <path fill="#FFC5B8" d="M310.67 140.407c-.48 1.946-.693 4.195-.753 6.434-.153 5.914.778 11.755.778 11.755s-5.452 9.692-10.962 10.334c-4.32.504-9.166-7.907-8.207-8.454 1.422-.808 1.482-7.887 1.35-12.718-.07-2.586-.194-4.528-.194-4.528s19.731-9.916 17.988-2.823z"/>
        <path fill="#E98970" d="M309.989 151.475s-5.443 8.116-8.885 8.088c-3.442-.028-8.223-5.986-8.223-5.986l-.796 8.885s.97 8.321 10.685 3.668c9.716-4.654 7.345-12.728 7.345-12.728l-.126-1.927zM310.67 140.407c-.48 1.946-.693 4.195-.753 6.434-7.748 3.034-17.045.923-17.045.923-.07-2.586-.194-4.528-.194-4.528s19.735-9.922 17.992-2.83z"/>
        <path fill="#FFC5B8" d="M332.237 122.007c-3.824 4.744-7.775 3.416-7.775 3.416s-1.485 6.412-5.522 11.308c-4.036 4.896-10.75 10.563-24.835 10.919-5.221.131-9.26-1.51-12.22-3.865-5.023-3.995-6.947-10.046-6.303-12.958 1.024-4.627-.06-14.782-1.898-30.289-1.838-15.506 5.975-18 5.975-18s19.72-.302 29.538-.41l1.823-.02c8.923-.09 13.525 25.987 17.905 26.227 4.38.24 7.137 8.923 3.312 13.672z"/>
        <path fill="#E98970" d="M325.318 115.948s-9.346-5.32-14.688-12.88c-3.682-5.216-.172-11.866-6.722-13.006-3.086-.536-12.36-.98-18.269 4.784-6.24 6.088-10.056 35.989-3.745 48.949h-.01c-5.023-3.996-6.947-10.047-6.303-12.96 1.024-4.626-.06-14.781-1.898-30.288-1.838-15.506 5.975-18 5.975-18s19.719-.302 29.538-.41c2.846 3.552 4.466 7.358 4.43 9.39-.048 2.686 11.692 24.42 11.692 24.42z" opacity=".56"/>
        <path fill="#3D0B01" d="M309.168 84.692s-3.305 4.753-11.416 2.257c-8.11-2.496-15.23 1.17-23.877 6.764-8.647 5.594-1.521-27.08 11.272-27.713 12.792-.632 22.095 9.662 24.021 18.692z"/>
        <path fill="#4C2409" d="M307.696 86.057s-3.978 1.934-9.623-3.776-18.212-1.192-26.3 5.642c0 0 2.061-17.248 8.567-20.737 6.505-3.49 15.707-5.267 21.157 1.785 5.45 7.052 7.671 15.721 7.671 15.721l-1.472 1.365z"/>
        <path fill="#6D3713" d="M309.168 84.692c-.302-.948-30.384-29.525-43.097 5.46 0 0 3.327-19.217 13.297-22.973 9.97-3.756 20.265-4.257 23.604 1.973 3.34 6.231 8.948 14.32 8.624 16.746-.324 2.427-2.428-1.206-2.428-1.206z"/>
        <path fill="#87461B" d="M316.927 76.623c1.335 10.677-7.759 8.064-7.759 8.064s-.39-.566-1.093-1.494c-2.181-2.871-7.375-9.218-13.323-13.038-4.722-3.031-9.923-4.468-14.463-1.312-10.87 7.55 6.959 25.474-6.23 42.758-.002.003-.002.006 0 .008-1.52 1.99-3.452 3.97-5.886 5.926.035-.23 1.362-9.393-4.83-22.038-6.266-12.808 9.244-32.202 24.163-32.654 9.486-.284 18.267 1.047 23.745 4.799 1.472 1.008 2.708 2.192 3.656 3.568 1.102 1.614 1.795 3.472 2.02 5.413z"/>
        <path fill="#6D3713" d="M318 77.015c1.335 10.677-8.832 7.677-8.832 7.677s-.294-1.721-.557-3.83c-.535-5.77 3.335-8.445 6.292-9.643 1.065 1.546 2.839 3.733 3.097 5.796z"/>
        <path fill="#87461B" d="M335.214 99.462c-.555 1.654-1.095 3.033-1.604 4.178-1.792 4.05-3.159 5.157-3.159 5.157-6.39-.645-5.133 7.154-5.133 7.154s-2.276-1.949-5.041-4.801c-4.423-4.562-10.09-11.433-9.687-16.323.65-7.954-1.3-5.698-1.42-10.135-.122-4.436 2.858-6.159 2.858-6.159s3.155-2.553 9.74-2.411c8.847.183 15.963 15.823 13.446 23.34z"/>
        <path fill="#6D3713" d="M333.61 103.636c-1.792 4.05-3.159 5.158-3.159 5.158-6.39-.645-5.133 7.154-5.133 7.154s-2.276-1.95-5.041-4.801c-2.91-10.95 13.333-7.51 13.333-7.51z"/>
        <path fill="#A34926" d="M294.749 70.154c-4.723-3.031-9.923-4.468-14.464-1.312-10.87 7.55 6.96 25.473-6.23 42.758 7.86-11.302-4.337-35.952 4.13-42.864 8.359-6.824 16.355 1.203 16.564 1.418z"/>
        <path fill="#000" d="M283.282 113.684c-.212-.577-.8-.967-1.405-.853-.647.116-1.332.808-1.247 3.244.13 3.742 2.7 2.215 2.9.048.106-1.145-.063-1.942-.248-2.44zM299.812 112.69c-.214-.577-.802-.967-1.407-.852-.646.115-1.331.807-1.246 3.243.13 3.742 2.7 2.217 2.901.049.105-1.145-.06-1.938-.248-2.44z"/>
        <path fill="#E98970" d="M289.34 114.714s-4.485 10.626-3.153 11.992c1.333 1.366 6.03.816 6.03.816s-4.091.024-4.406-2.86c-.314-2.862 1.529-9.948 1.529-9.948z"/>
        <path fill="#231F20" d="M276.34 108.677c.62-.563 1.296-1.066 2.014-1.5.717-.443 1.471-.824 2.254-1.137.395-.156.798-.29 1.207-.403.413-.111.833-.192 1.257-.24.426-.049.857-.049 1.283 0 .424.047.837.17 1.217.363-.404-.077-.817-.104-1.229-.08-.404.021-.806.076-1.2.163-.395.087-.786.194-1.173.317-.387.122-.77.265-1.154.414-.76.302-1.508.64-2.25 1-.742.358-1.477.728-2.227 1.103zM296.323 105.534c.322-.28.678-.52 1.059-.713.382-.195.78-.36 1.188-.491.822-.258 1.678-.392 2.539-.398.861-.006 1.719.107 2.549.338.822.223 1.61.56 2.34 1-.818-.222-1.625-.423-2.438-.558-.808-.14-1.627-.207-2.447-.204-.817.006-1.632.092-2.433.259-.403.083-.802.189-1.194.315-.398.124-.786.275-1.163.452z"/>
        <path fill="#E98970" d="M301.385 129.585s-6.663 6.462-16.616 4.094c.01 0 8.292.991 16.616-4.094z"/>
        <circle cx="281.665" cy="114.258" r="1" fill="#FFF"/>
        <circle cx="298.265" cy="113.535" r="1" fill="#FFF"/>
        <path fill="#FFF" d="M292.816 156.428s6.397 7.235 8.344 9.359c0 0 6.157-5.155 9.075-11 0 0 .364-.656.747.237s3.361 4.466 6.978 6c3.616 1.533-2.852 13.784-2.852 13.784s-8.635-9.727-13.948-9.02c0 0-2.813 0-5.193 3.915-2.379 3.915-5.02 7.997-5.02 7.997l-6.32-14.854s3.785-3.942 5.422-5.693c2.036-2.172 2.29-1.236 2.767-.725z"/>
        <path fill="#3D4F53" d="M285.94 160.468s-4.015 2.214-4.91 2.3c-.893.085 1.362 29.61 2.553 30.115 1.19.505 10.892 1.914 11.02 3.062.126 1.148-2.893 16.55-2.127 17.742.766 1.191 17.697 21.527 17.697 21.527s-15.027-61.602-24.233-74.746zM314.138 158.58l-3.965 76.64s7.787-21.146 9.577-25.102c0 0-3.828-13.418-3.318-13.219.51.2 7.275-8.478 7.403-9.5.128-1.02-5-27.483-5-27.483s-4.837-2.884-4.697-1.336z"/>
        <path fill="#1C2426" d="M382.004 222.892c-6.7 13.919-15.675 29.834-22.31 31.385-11.824 2.769-16.21-13.557-16.335-14.029v-.011c-1.405-15.445-.624-47.862-.624-47.862 3.063-6.51-.781 44.416 11.983 54.498 9.812 7.755 26.814-23.12 27.286-23.981zM263.205 260.406c2.808-12.51-2.807-50.033-2.807-50.033s6.807-11.401 6.722-9.529c-.085 1.873 5.436 45.702 6.285 54.552.85 8.85.267 51.467.267 51.467h-22.464s9.19-33.95 11.997-46.457zM224.023 215.48s4.892 3.402 6.594 10.384c0 0 .085-6.784-4.212-12.412l-2.382 2.028z"/>
        <path fill="#CA2722" d="M298.577 170.032c.015.086 1.257 3.285 2.043 3.758.785.473 3.094.153 4.427-.614 1.333-.767 1.154-5.501 1.154-5.501s-2.264-2.77-5.038-1.888c-2.774.881-3.043 1.529-2.586 4.245z"/>
        <path fill="#3D4F53" d="M285.94 160.468s-4.015 2.214-4.91 2.3c-.893.085 1.362 29.61 2.553 30.115 1.19.505 10.892 1.914 11.02 3.062.126 1.148-2.893 16.55-2.127 17.742.766 1.191 17.697 21.527 17.697 21.527s-15.027-61.602-24.233-74.746zM314.138 158.58l-3.965 76.64s7.787-21.146 9.577-25.102c0 0-3.828-13.418-3.318-13.219.51.2 7.275-8.478 7.403-9.5.128-1.02-5-27.483-5-27.483s-4.837-2.884-4.697-1.336z"/>
        <circle cx="305.196" cy="241.133" r="2.255" fill="#1C2426"/>
        <circle cx="305.196" cy="265.638" r="2.255" fill="#1C2426"/>
        <circle cx="305.196" cy="290.144" r="2.255" fill="#1C2426"/>
        <rect width="138.961" height="3.062" x="223.299" y="304.8" fill="#D3D7DB" rx="1.531"/>
        <rect width="50.76" height="3.062" x="368.468" y="304.8" fill="#D3D7DB" rx="1.531"/>
        <rect width="50.76" height="3.062" x="166.898" y="304.8" fill="#D3D7DB" rx="1.531"/>
    </g>
</svg>
