<svg width="180" height="56" viewBox="0 0 180 56" fill="none" xmlns="http://www.w3.org/2000/svg">
<path fill-rule="evenodd" clip-rule="evenodd" d="M94.9639 38.2198C88.2236 43.167 78.4524 45.806 70.0406 45.806C58.2446 45.806 47.6262 41.4625 39.5924 34.2385C38.9614 33.6698 39.5265 32.8954 40.284 33.3381C48.9541 38.3606 59.6735 41.382 70.7471 41.382C78.2151 41.382 86.4309 39.8438 93.9849 36.6509C95.1256 36.1688 96.08 37.3946 94.9639 38.2198Z" fill="#FF9900"/>
<path fill-rule="evenodd" clip-rule="evenodd" d="M97.7671 35.0277C96.9076 33.9313 92.0708 34.5097 89.8993 34.7652C89.2375 34.8465 89.1365 34.2734 89.7323 33.8613C93.5858 31.161 99.9069 31.9407 100.644 32.8454C101.382 33.7554 100.453 40.0642 96.832 43.0768C96.2766 43.5388 95.7467 43.2929 95.9937 42.6795C96.8065 40.6583 98.63 36.1284 97.7662 35.0277" fill="#FF9900"/>
<path fill-rule="evenodd" clip-rule="evenodd" d="M90.0515 14.801V12.176C90.0515 11.7796 90.3538 11.5127 90.7176 11.5127H102.518C102.897 11.5127 103.2 11.784 103.2 12.1769V14.4239C103.195 14.8001 102.877 15.2936 102.311 16.0732L96.196 24.7655C98.4685 24.7104 100.867 25.0472 102.928 26.204C103.392 26.4647 103.518 26.8471 103.553 27.2242V30.0242C103.553 30.4066 103.129 30.8537 102.685 30.6227C99.0538 28.7275 94.2319 28.521 90.2176 30.6429C89.809 30.8642 89.3792 30.4215 89.3792 30.0391V27.38C89.3792 26.953 89.3845 26.2241 89.8134 25.5749L96.8982 15.4599H90.7326C90.3547 15.4599 90.0506 15.193 90.0506 14.801H90.0515ZM47.005 31.1757H43.4142C43.0706 31.1512 42.7982 30.894 42.7727 30.5676V12.2215C42.7727 11.854 43.0803 11.5635 43.4643 11.5635H46.8125C47.1605 11.5784 47.4382 11.8444 47.4628 12.176V14.5744H47.5287C48.4022 12.2565 50.0438 11.1759 52.2557 11.1759C54.5028 11.1759 55.9062 12.2565 56.9159 14.5744C57.7842 12.2565 59.7588 11.1759 61.8741 11.1759C63.3794 11.1759 65.0254 11.7945 66.0307 13.1822C67.1661 14.7257 66.9341 16.9675 66.9341 18.9336L66.9297 30.5125C66.9297 30.88 66.6222 31.1757 66.2381 31.1757H62.6527C62.2941 31.1512 62.0068 30.8642 62.0068 30.5125V20.7886C62.0068 20.0142 62.0771 18.084 61.9057 17.3499C61.6377 16.1179 60.8353 15.7714 59.7948 15.7714C58.9266 15.7714 58.0179 16.3489 57.6488 17.2746C57.2798 18.1995 57.3158 19.7482 57.3158 20.7886V30.5125C57.3158 30.88 57.0082 31.1757 56.6242 31.1757H53.0387C52.6758 31.1512 52.3928 30.8642 52.3928 30.5125L52.3875 20.7886C52.3875 18.7429 52.7259 15.7311 50.1756 15.7311C47.5955 15.7311 47.6975 18.6667 47.6975 20.7886V30.5125C47.6975 30.88 47.389 31.1757 47.005 31.1757V31.1757ZM113.359 11.1759C118.686 11.1759 121.569 15.7311 121.569 21.5227C121.569 27.1184 118.384 31.5581 113.359 31.5581C108.128 31.5581 105.28 27.0029 105.28 21.3267C105.28 15.6156 108.162 11.1767 113.359 11.1767V11.1759ZM113.389 14.9217C110.744 14.9217 110.577 18.511 110.577 20.7492C110.577 22.991 110.542 27.7772 113.359 27.7772C116.141 27.7772 116.273 23.9159 116.273 21.563C116.273 20.0142 116.207 18.1645 115.737 16.6962C115.333 15.4187 114.53 14.9217 113.389 14.9217V14.9217ZM128.477 31.1757H124.902C124.544 31.1512 124.256 30.8642 124.256 30.5125L124.25 12.1611C124.281 11.8242 124.579 11.5635 124.942 11.5635H128.27C128.583 11.5784 128.841 11.7892 128.912 12.0762V14.8815H128.977C129.982 12.3729 131.391 11.175 133.87 11.175C135.48 11.175 137.051 11.7525 138.061 13.3362C139 14.8062 139 17.2755 139 19.05V30.5982C138.96 30.9202 138.662 31.1766 138.308 31.1766H134.708C134.38 31.1521 134.107 30.9106 134.072 30.5991V20.632C134.072 18.6265 134.304 15.69 131.825 15.69C130.951 15.69 130.148 16.2727 129.75 17.1582C129.245 18.2791 129.179 19.3956 129.179 20.632V30.5125C129.174 30.88 128.861 31.1775 128.477 31.1775V31.1757ZM80.6441 22.4126C80.6441 23.8056 80.6792 24.9676 79.9727 26.204C79.4015 27.2094 78.4928 27.8271 77.4884 27.8271C76.1095 27.8271 75.3019 26.7815 75.3019 25.238C75.3019 22.1912 78.0438 21.6382 80.6441 21.6382V22.4126V22.4126ZM84.2647 31.1259C84.0274 31.3367 83.6838 31.3516 83.4158 31.2107C82.2242 30.2255 82.0071 29.7679 81.3559 28.8281C79.3874 30.8292 77.9884 31.4269 75.4382 31.4269C72.4134 31.4269 70.0652 29.5719 70.0652 25.8566C70.0652 22.956 71.6409 20.9802 73.8932 20.0142C75.8424 19.1602 78.564 19.0089 80.6441 18.7726V18.3106C80.6441 17.4601 80.71 16.4556 80.2047 15.7206C79.7706 15.0626 78.9322 14.7905 78.1896 14.7905C76.8214 14.7905 75.6051 15.4905 75.3072 16.9377C75.2457 17.2597 75.0084 17.5765 74.6806 17.5914L71.2015 17.2195C70.9089 17.1539 70.5802 16.9176 70.6663 16.4705C71.4652 12.267 75.2817 11 78.6949 11C80.442 11 82.7242 11.4629 84.103 12.7797C85.85 14.4037 85.6831 16.5702 85.6831 18.9284V24.4995C85.6831 26.1734 86.3799 26.9075 87.0364 27.8122C87.264 28.1342 87.3141 28.521 87.0215 28.7625C86.2894 29.3706 84.9862 30.502 84.2691 31.1355L84.2647 31.1259V31.1259ZM33.5788 22.4126C33.5788 23.8056 33.614 24.9676 32.9066 26.204C32.3362 27.2094 31.4328 27.8271 30.4222 27.8271C29.0443 27.8271 28.2411 26.7815 28.2411 25.238C28.2411 22.1912 30.9829 21.6382 33.5788 21.6382V22.4126V22.4126ZM37.1995 31.1259C36.9622 31.3367 36.6186 31.3516 36.3505 31.2107C35.1589 30.2255 34.9471 29.7679 34.2907 28.8281C32.3213 30.8292 30.9275 31.4269 28.3729 31.4269C25.3534 31.4277 23 29.5727 23 25.8575C23 22.9569 24.5801 20.9811 26.8271 20.0151C28.7763 19.1611 31.4979 19.0097 33.5788 18.7735V18.3115C33.5788 17.461 33.6439 16.4565 33.1438 15.7215C32.7045 15.0635 31.867 14.7914 31.1297 14.7914C29.7614 14.7914 28.539 15.4914 28.2411 16.9386C28.1805 17.2606 27.9432 17.5774 27.6198 17.5922L24.1363 17.2204C23.8436 17.1547 23.5202 16.9185 23.6002 16.4714C24.4043 12.267 28.2165 11 31.6297 11C33.3767 11 35.6589 11.4629 37.0378 12.7797C38.7848 14.4037 38.6178 16.5702 38.6178 18.9284V24.4995C38.6178 26.1734 39.3147 26.9075 39.9712 27.8122C40.2032 28.1342 40.2541 28.521 39.9606 28.7625C39.2286 29.3706 37.9262 30.502 37.2091 31.1355L37.1986 31.1259" fill="black"/>
<path d="M142.938 30.7244C142.679 30.7244 142.457 30.6335 142.273 30.4517C142.088 30.2699 141.997 30.0483 142 29.7869C141.997 29.5313 142.088 29.3125 142.273 29.1307C142.457 28.9489 142.679 28.858 142.938 28.858C143.188 28.858 143.405 28.9489 143.59 29.1307C143.777 29.3125 143.872 29.5313 143.875 29.7869C143.872 29.9602 143.827 30.1179 143.739 30.2599C143.653 30.402 143.54 30.5156 143.398 30.6009C143.259 30.6832 143.105 30.7244 142.938 30.7244Z" fill="black"/>
<path d="M148.323 30.7585C147.669 30.7585 147.108 30.6151 146.64 30.3281C146.174 30.0412 145.814 29.6449 145.561 29.1392C145.311 28.6307 145.186 28.0455 145.186 27.3835C145.186 26.7187 145.314 26.1321 145.57 25.6236C145.826 25.1122 146.186 24.7145 146.652 24.4304C147.121 24.1435 147.675 24 148.314 24C148.846 24 149.316 24.098 149.725 24.294C150.137 24.4872 150.465 24.7614 150.709 25.1165C150.954 25.4687 151.093 25.8807 151.127 26.3523H149.652C149.593 26.0369 149.451 25.7741 149.226 25.5639C149.005 25.3509 148.708 25.2443 148.336 25.2443C148.02 25.2443 147.743 25.3295 147.505 25.5C147.266 25.6676 147.08 25.9091 146.946 26.2244C146.816 26.5398 146.75 26.9176 146.75 27.358C146.75 27.804 146.816 28.1875 146.946 28.5085C147.077 28.8267 147.26 29.0724 147.496 29.2457C147.735 29.4162 148.015 29.5014 148.336 29.5014C148.563 29.5014 148.766 29.4588 148.945 29.3736C149.127 29.2855 149.279 29.1591 149.401 28.9943C149.523 28.8295 149.607 28.6293 149.652 28.3935H151.127C151.09 28.8565 150.954 29.267 150.718 29.625C150.482 29.9801 150.161 30.2585 149.755 30.4602C149.348 30.6591 148.871 30.7585 148.323 30.7585Z" fill="black"/>
<path d="M154.277 30.7628C153.862 30.7628 153.489 30.6889 153.156 30.5412C152.827 30.3906 152.565 30.169 152.372 29.8764C152.182 29.5838 152.087 29.223 152.087 28.794C152.087 28.4247 152.155 28.1193 152.291 27.8778C152.428 27.6364 152.614 27.4432 152.849 27.2983C153.085 27.1534 153.351 27.044 153.646 26.9702C153.945 26.8935 154.253 26.8381 154.571 26.804C154.955 26.7642 155.266 26.7287 155.504 26.6974C155.743 26.6634 155.916 26.6122 156.024 26.544C156.135 26.473 156.19 26.3636 156.19 26.2159V26.1903C156.19 25.8693 156.095 25.6207 155.905 25.4446C155.715 25.2685 155.44 25.1804 155.082 25.1804C154.705 25.1804 154.405 25.2628 154.183 25.4276C153.965 25.5923 153.817 25.7869 153.74 26.0114L152.3 25.8068C152.413 25.4091 152.601 25.0767 152.862 24.8097C153.124 24.5398 153.443 24.3381 153.821 24.2045C154.199 24.0682 154.617 24 155.074 24C155.389 24 155.703 24.0369 156.016 24.1108C156.328 24.1847 156.614 24.3068 156.872 24.4773C157.131 24.6449 157.338 24.8736 157.494 25.1634C157.653 25.4531 157.733 25.8153 157.733 26.25V30.6307H156.25V29.7315H156.199C156.105 29.9134 155.973 30.0838 155.803 30.2429C155.635 30.3991 155.423 30.5256 155.168 30.6222C154.915 30.7159 154.618 30.7628 154.277 30.7628ZM154.678 29.6293C154.987 29.6293 155.256 29.5682 155.483 29.446C155.71 29.321 155.885 29.1562 156.007 28.9517C156.132 28.7472 156.195 28.5241 156.195 28.2827V27.5114C156.146 27.5511 156.064 27.5881 155.948 27.6222C155.834 27.6562 155.706 27.6861 155.564 27.7116C155.422 27.7372 155.281 27.7599 155.142 27.7798C155.003 27.7997 154.882 27.8168 154.78 27.831C154.55 27.8622 154.344 27.9134 154.162 27.9844C153.98 28.0554 153.837 28.1548 153.732 28.2827C153.626 28.4077 153.574 28.5696 153.574 28.7685C153.574 29.0526 153.678 29.267 153.885 29.4119C154.092 29.5568 154.357 29.6293 154.678 29.6293Z" fill="black"/>
</svg>
