<svg width="36" height="36" viewBox="0 0 36 36" fill="none" xmlns="http://www.w3.org/2000/svg">
<g clip-path="url(#clip0_4181_51761)">
<g filter="url(#filter0_d_4181_51761)">
<path d="M18 1.5C26.5604 1.5 33.5 8.43959 33.5 17C33.5 25.5604 26.5604 32.5 18 32.5C9.43959 32.5 2.5 25.5604 2.5 17C2.5 8.43959 9.43959 1.5 18 1.5Z" fill="#6B7280" stroke="#D1D5DB"/>
<path d="M33.5 17C33.5 8.43959 26.5604 1.5 18 1.5C9.43959 1.5 2.5 8.43959 2.5 17C2.5 25.5604 9.43959 32.5 18 32.5C26.5604 32.5 33.5 25.5604 33.5 17Z" stroke="#D1D5DB"/>
</g>
<path d="M18.8337 16.9994C18.8337 16.5391 18.4606 16.166 18.0003 16.166C17.5401 16.166 17.167 16.5391 17.167 16.9994C17.167 17.4596 17.5401 17.8327 18.0003 17.8327C18.4606 17.8327 18.8337 17.4596 18.8337 16.9994Z" stroke="#D1D5DB" stroke-width="1.66667" stroke-linecap="round" stroke-linejoin="round"/>
<path d="M12.9997 16.9994C12.9997 16.5391 12.6266 16.166 12.1663 16.166C11.7061 16.166 11.333 16.5391 11.333 16.9994C11.333 17.4596 11.7061 17.8327 12.1663 17.8327C12.6266 17.8327 12.9997 17.4596 12.9997 16.9994Z" stroke="#D1D5DB" stroke-width="1.66667" stroke-linecap="round" stroke-linejoin="round"/>
<path d="M24.6667 16.9994C24.6667 16.5391 24.2936 16.166 23.8333 16.166C23.3731 16.166 23 16.5391 23 16.9994C23 17.4596 23.3731 17.8327 23.8333 17.8327C24.2936 17.8327 24.6667 17.4596 24.6667 16.9994Z" stroke="#D1D5DB" stroke-width="1.66667" stroke-linecap="round" stroke-linejoin="round"/>
</g>
<defs>
<filter id="filter0_d_4181_51761" x="0" y="0" width="36" height="36" filterUnits="userSpaceOnUse" color-interpolation-filters="sRGB">
<feFlood flood-opacity="0" result="BackgroundImageFix"/>
<feColorMatrix in="SourceAlpha" type="matrix" values="0 0 0 0 0 0 0 0 0 0 0 0 0 0 0 0 0 0 127 0" result="hardAlpha"/>
<feOffset dy="1"/>
<feGaussianBlur stdDeviation="1"/>
<feColorMatrix type="matrix" values="0 0 0 0 0 0 0 0 0 0 0 0 0 0 0 0 0 0 0.05 0"/>
<feBlend mode="normal" in2="BackgroundImageFix" result="effect1_dropShadow_4181_51761"/>
<feBlend mode="normal" in="SourceGraphic" in2="effect1_dropShadow_4181_51761" result="shape"/>
</filter>
<clipPath id="clip0_4181_51761">
<rect width="36" height="36" fill="white"/>
</clipPath>
</defs>
</svg>
