<svg width="24" height="24" viewBox="0 0 24 24" fill="none" xmlns="http://www.w3.org/2000/svg">
<path d="M10.2 18H13.8C16.8 18 18 16.8 18 13.8V10.2C18 7.2 16.8 6 13.8 6H10.2C7.2 6 6 7.2 6 10.2V13.8C6 16.8 7.2 18 10.2 18Z" stroke="#D1D5DB" stroke-width="1.5" stroke-linecap="round" stroke-linejoin="round"/>
<path d="M15 6.26416V12.2522C15 13.4342 14.154 13.8962 13.116 13.2722L12.324 12.7982C12.144 12.6902 11.856 12.6902 11.676 12.7982L10.884 13.2722C9.846 13.8902 9 13.4342 9 12.2522V6.26416" stroke="#D1D5DB" stroke-width="1.5" stroke-linecap="round" stroke-linejoin="round"/>
<path d="M10.2 18H13.8C16.8 18 18 16.8 18 13.8V10.2C18 7.2 16.8 6 13.8 6H10.2C7.2 6 6 7.2 6 10.2V13.8C6 16.8 7.2 18 10.2 18Z" stroke="#D1D5DB" stroke-width="1.5" stroke-linecap="round" stroke-linejoin="round"/>
<path d="M15 6.26416V12.2522C15 13.4342 14.154 13.8962 13.116 13.2722L12.324 12.7982C12.144 12.6902 11.856 12.6902 11.676 12.7982L10.884 13.2722C9.846 13.8902 9 13.4342 9 12.2522V6.26416" stroke="#D1D5DB" stroke-width="1.5" stroke-linecap="round" stroke-linejoin="round"/>
<path d="M22 15C22 18.87 18.87 22 15 22L16.05 20.25" stroke="#D1D5DB" stroke-width="1.4" stroke-linecap="round" stroke-linejoin="round"/>
<path d="M2 9C2 5.13 5.13 2 9 2L7.95001 3.75" stroke="#D1D5DB" stroke-width="1.4" stroke-linecap="round" stroke-linejoin="round"/>
</svg>
