<svg width="20" height="20" viewBox="0 0 20 20" fill="none" xmlns="http://www.w3.org/2000/svg">
<g clip-path="url(#clip0_233_64139)">
<rect width="20" height="20" rx="10" fill="white"/>
<path d="M3.70559 7.62695C3.66302 7.66324 1.25 10.3614 1.25 10.3614H2.31709L4.7121 7.62695H3.70559Z" fill="#212736"/>
<path d="M2.75957 7.62695C2.80213 7.66324 4.34206 10.3614 4.34206 10.3614H3.27497L1.75305 7.62695H2.75957Z" fill="#212736"/>
<path d="M5.55081 6.875H6.39963L5.77727 10.3614H4.90417L5.55081 6.875Z" fill="#212736"/>
<path d="M4.83947 7.62708L4.19666 8.37276H6.56739L6.51282 8.73646L7.06451 8.00279L6.76738 7.27539L6.68853 7.62708H4.83947Z" fill="url(#paint0_linear_233_64139)"/>
<path d="M7.03419 7.62658L7.17962 8.00556L6.73707 8.61782L6.43994 10.361H7.32504L7.54932 8.93622C7.54932 8.93622 7.73131 8.13598 8.39813 8.54824C8.42242 8.53624 8.91353 7.79629 8.91353 7.79629C8.91353 7.79629 8.31928 7.14146 7.70102 8.00556C7.70702 8.02684 7.77387 7.62658 7.77387 7.62658H7.03419Z" fill="#212736"/>
<path d="M15.1346 7.58155C14.4495 7.47569 14.0836 8.03119 14.0796 8.03529C14.0675 7.86149 13.9259 7.73216 13.9218 7.73216C13.2809 7.28661 12.7535 7.79109 12.6078 7.95507L12.6649 7.6353H11.7836L11.3309 10.3618H12.1797L12.5047 8.53541C12.5789 8.22791 12.867 8.20336 12.864 8.20336C13.249 8.16079 13.2127 8.59134 13.2127 8.59134L12.8823 10.3618H13.7857C13.7857 10.3618 14.0313 8.96432 14.0798 8.66119C14.1284 8.35806 14.3647 8.25793 14.3679 8.25192C14.8288 8.04565 14.8075 8.60362 14.8075 8.60362L14.4801 10.3618H15.3895C15.3895 10.3618 15.6077 9.08846 15.7049 8.33678C15.7777 7.60911 15.1409 7.5911 15.1349 7.58209L15.1346 7.58155Z" fill="#212736"/>
<path d="M11.4038 9.21085C11.4499 9.00703 11.4608 8.82887 11.4488 8.67471C11.4125 8.20515 11.1367 7.79316 10.6843 7.66274C9.95444 7.45237 9.43549 7.68538 9.11136 7.94267C8.77167 8.21224 8.54766 8.60514 8.49091 9.03514C8.4639 9.23922 8.48109 9.41602 8.52283 9.56691C8.63143 9.96116 8.94383 10.2665 9.33482 10.3868C10.6982 10.8062 11.3312 9.65558 11.3312 9.65558C11.3312 9.65558 10.5754 9.44549 10.5713 9.44931C10.2559 9.83729 9.97299 9.79691 9.96508 9.79691C9.30617 9.83729 9.35883 9.21085 9.35883 9.21085H11.4041H11.4038ZM10.096 8.20842C10.6297 8.27827 10.5569 8.73583 10.5569 8.73583H9.46551C9.56946 8.15276 10.099 8.20542 10.096 8.20842Z" fill="#212736"/>
<path d="M18.7004 9.21085C18.7465 9.00703 18.7574 8.82887 18.7454 8.67471C18.7091 8.20515 18.4333 7.79316 17.9809 7.66274C17.2511 7.45237 16.7321 7.68538 16.408 7.94267C16.0683 8.21224 15.8443 8.60514 15.7875 9.03514C15.7605 9.23922 15.7777 9.41602 15.8195 9.56691C15.9281 9.96116 16.2405 10.2665 16.6314 10.3868C17.9948 10.8062 18.6278 9.65558 18.6278 9.65558C18.6278 9.65558 17.8721 9.44549 17.868 9.44931C17.5526 9.83729 17.2696 9.79691 17.2617 9.79691C16.6028 9.83729 16.6555 9.21085 16.6555 9.21085H18.7007H18.7004ZM17.3927 8.20842C17.9264 8.27827 17.8535 8.73583 17.8535 8.73583H16.7621C16.8661 8.15276 17.3957 8.20542 17.3927 8.20842Z" fill="#212736"/>
<path d="M2.51322 12.8955C2.4873 12.9457 2.45047 12.9877 2.40218 13.0212C2.35388 13.0548 2.29604 13.0799 2.22837 13.0968C2.16071 13.1135 2.08568 13.1219 2.00328 13.1219H1.39075V11.6543H1.98691C2.13752 11.6543 2.25566 11.6887 2.3416 11.7572C2.42728 11.8256 2.47039 11.9179 2.47039 12.0338V12.0379C2.47039 12.0799 2.4652 12.1168 2.45483 12.149C2.44447 12.1812 2.43055 12.2101 2.41309 12.236C2.39563 12.2619 2.37571 12.2846 2.35279 12.3042C2.32987 12.3239 2.30532 12.3405 2.27885 12.3544C2.3637 12.3866 2.43055 12.4303 2.47912 12.4854C2.52768 12.5405 2.55224 12.6172 2.55224 12.7148V12.7189C2.55224 12.786 2.53942 12.8447 2.5135 12.8949L2.51322 12.8955ZM2.15143 12.0884C2.15143 12.0396 2.13315 12.0022 2.09686 11.9763C2.06058 11.9503 2.00819 11.9375 1.93971 11.9375H1.70479V12.2477H1.9187C1.98991 12.2477 2.04666 12.2355 2.08841 12.2112C2.13042 12.1866 2.15116 12.1473 2.15116 12.0928V12.0887L2.15143 12.0884ZM2.23329 12.6753C2.23329 12.6264 2.21446 12.5877 2.17681 12.559C2.13916 12.5304 2.07831 12.5159 1.99428 12.5159H1.70506V12.8387H2.00492C2.07613 12.8387 2.13206 12.8259 2.17271 12.8C2.21337 12.774 2.23356 12.7339 2.23356 12.6794V12.6753H2.23329Z" fill="#212736"/>
<path d="M4.12856 12.5291V13.1141H3.80579V12.5354L3.24182 11.6465H3.61916L3.96922 12.2356L4.32555 11.6465H4.69253L4.12856 12.5291Z" fill="#212736"/>
<path d="M6.37378 13.1256V12.8803L7.08672 11.9411H6.39888V11.6582H7.50171V11.9035L6.78877 12.8426H7.52736V13.1256H6.37378Z" fill="#212736"/>
<path d="M9.85604 12.6826C9.81702 12.7743 9.76273 12.8545 9.6937 12.9238C9.6244 12.9931 9.542 13.0474 9.44623 13.0873C9.35046 13.1271 9.24596 13.147 9.13273 13.147C9.0195 13.147 8.91528 13.1271 8.82033 13.0873C8.72538 13.0474 8.64325 12.9937 8.57395 12.9257C8.50465 12.8581 8.4509 12.7784 8.41243 12.6867C8.37396 12.5953 8.35486 12.4971 8.35486 12.392V12.388C8.35486 12.2832 8.3745 12.185 8.41352 12.0933C8.45254 12.0019 8.50683 11.9214 8.57613 11.8521C8.64544 11.7828 8.72783 11.7285 8.8236 11.6887C8.91937 11.6488 9.02387 11.6289 9.1371 11.6289C9.25033 11.6289 9.35428 11.6488 9.4495 11.6887C9.54473 11.7285 9.62658 11.7822 9.69588 11.8502C9.76518 11.9178 9.81893 11.9975 9.8574 12.0892C9.89587 12.1809 9.91497 12.2788 9.91497 12.3839V12.388C9.91497 12.4927 9.89533 12.5909 9.85631 12.6826H9.85604ZM9.57719 12.388C9.57719 12.3249 9.56628 12.2657 9.54473 12.2098C9.52317 12.1539 9.49234 12.105 9.45251 12.063C9.41267 12.021 9.36547 11.988 9.3109 11.9634C9.25633 11.9389 9.19712 11.9269 9.13273 11.9269C9.06834 11.9269 9.00723 11.9389 8.95348 11.9626C8.89973 11.9863 8.85361 12.0191 8.81514 12.0611C8.77667 12.1031 8.74666 12.1517 8.72511 12.2068C8.70355 12.2619 8.69264 12.3211 8.69264 12.3839V12.388C8.69264 12.451 8.70355 12.5102 8.72511 12.5661C8.74666 12.6221 8.77749 12.6709 8.81733 12.7129C8.85716 12.7549 8.90409 12.7879 8.95784 12.8125C9.01159 12.8371 9.07134 12.8491 9.1371 12.8491C9.20285 12.8491 9.2607 12.8373 9.31527 12.8133C9.36983 12.7896 9.41622 12.7568 9.45469 12.7148C9.49316 12.6728 9.52317 12.6242 9.54473 12.5691C9.56628 12.514 9.57719 12.4548 9.57719 12.392V12.388Z" fill="#212736"/>
<path d="M14.21 13.1215L14.0758 12.7925H13.4554L13.3211 13.1215H12.9921L13.621 11.6436H13.9186L14.5475 13.1215H14.21ZM13.7656 12.0313L13.5705 12.5071H13.9604L13.7653 12.0313H13.7656Z" fill="#212736"/>
<path d="M15.936 11.952V13.1216H15.6133V11.952H15.1666V11.6543H16.3827V11.952H15.936Z" fill="#212736"/>
<path d="M18.6364 12.6826C18.5974 12.7743 18.5431 12.8545 18.4741 12.9238C18.4048 12.9931 18.3224 13.0474 18.2266 13.0873C18.1309 13.1271 18.0264 13.147 17.9131 13.147C17.7999 13.147 17.6957 13.1271 17.6007 13.0873C17.5058 13.0474 17.4236 12.9937 17.3543 12.9257C17.285 12.8581 17.2313 12.7784 17.1928 12.6867C17.1544 12.5953 17.1353 12.4971 17.1353 12.392V12.388C17.1353 12.2832 17.1549 12.185 17.1939 12.0933C17.2329 12.0019 17.2872 11.9214 17.3565 11.8521C17.4258 11.7828 17.5082 11.7285 17.604 11.6887C17.6998 11.6488 17.8043 11.6289 17.9175 11.6289C18.0307 11.6289 18.1347 11.6488 18.2299 11.6887C18.3251 11.7285 18.407 11.7822 18.4763 11.8502C18.5456 11.9178 18.5993 11.9975 18.6378 12.0892C18.6763 12.1809 18.6954 12.2788 18.6954 12.3839V12.388C18.6954 12.4927 18.6757 12.5909 18.6367 12.6826H18.6364ZM18.3576 12.388C18.3576 12.3249 18.3467 12.2657 18.3251 12.2098C18.3036 12.1539 18.2727 12.105 18.2329 12.063C18.1931 12.021 18.1459 11.988 18.0913 11.9634C18.0367 11.9389 17.9775 11.9269 17.9131 11.9269C17.8487 11.9269 17.7876 11.9389 17.7339 11.9626C17.6801 11.9863 17.634 12.0191 17.5955 12.0611C17.5571 12.1031 17.5271 12.1517 17.5055 12.2068C17.4839 12.2619 17.473 12.3211 17.473 12.3839V12.388C17.473 12.451 17.4839 12.5102 17.5055 12.5661C17.5271 12.6221 17.5579 12.6709 17.5977 12.7129C17.6376 12.7549 17.6845 12.7879 17.7382 12.8125C17.792 12.8371 17.8517 12.8491 17.9175 12.8491C17.9832 12.8491 18.0411 12.8373 18.0957 12.8133C18.1502 12.7896 18.1966 12.7568 18.2351 12.7148C18.2736 12.6728 18.3036 12.6242 18.3251 12.5691C18.3467 12.514 18.3576 12.4548 18.3576 12.392V12.388Z" fill="#212736"/>
<path d="M11.8877 11.6777L11.5019 12.2753L11.1163 11.6777H10.7682V13.1222H11.0869V12.2701L11.4266 12.7609H11.5731L11.9171 12.2701V13.1222H12.2358V11.6777H11.8877Z" fill="#212736"/>
</g>
<defs>
<linearGradient id="paint0_linear_233_64139" x1="4.19666" y1="8.00579" x2="7.06451" y2="8.00579" gradientUnits="userSpaceOnUse">
<stop stop-color="#FAAA5E"/>
<stop offset="1" stop-color="#F15C34"/>
</linearGradient>
<clipPath id="clip0_233_64139">
<rect width="20" height="20" fill="white"/>
</clipPath>
</defs>
</svg>
