<svg width="16" height="16" viewBox="0 0 16 16" fill="none" xmlns="http://www.w3.org/2000/svg">
<path d="M8.75 2.3125H1.75C1.50391 2.3125 1.3125 2.53125 1.3125 2.75V13.25C1.3125 13.4961 1.50391 13.6875 1.75 13.6875H7.76562C8.09375 14.207 8.50391 14.6445 8.99609 15C8.91406 15 8.83203 15 8.75 15H1.75C0.765625 15 0 14.2344 0 13.25V2.75C0 1.79297 0.765625 1 1.75 1H8.75C9.70703 1 10.5 1.79297 10.5 2.75V6.44141C10.0078 6.57812 9.57031 6.76953 9.1875 7.04297V2.75C9.1875 2.53125 8.96875 2.3125 8.75 2.3125ZM2.625 5.15625C2.625 4.80078 2.89844 4.5 3.28125 4.5H7.21875C7.57422 4.5 7.875 4.80078 7.875 5.15625C7.875 5.53906 7.57422 5.8125 7.21875 5.8125H3.28125C2.89844 5.8125 2.625 5.53906 2.625 5.15625ZM3.28125 7.125H7.21875C7.57422 7.125 7.875 7.42578 7.875 7.78125C7.875 8.16406 7.57422 8.4375 7.21875 8.4375H3.28125C2.89844 8.4375 2.625 8.16406 2.625 7.78125C2.625 7.42578 2.89844 7.125 3.28125 7.125ZM3.28125 9.75H4.59375C4.94922 9.75 5.25 10.0508 5.25 10.4062C5.25 10.7891 4.94922 11.0625 4.59375 11.0625H3.28125C2.89844 11.0625 2.625 10.7891 2.625 10.4062C2.625 10.0508 2.89844 9.75 3.28125 9.75ZM11.8125 7.125C13.207 7.125 14.4922 7.89062 15.2031 9.09375C15.9141 10.3242 15.9141 11.8281 15.2031 13.0312C14.4922 14.2617 13.207 15 11.8125 15C10.3906 15 9.10547 14.2617 8.39453 13.0312C7.68359 11.8281 7.68359 10.3242 8.39453 9.09375C9.10547 7.89062 10.3906 7.125 11.8125 7.125ZM11.8125 9.75C12.168 9.75 12.4688 9.47656 12.4688 9.09375C12.4688 8.73828 12.168 8.4375 11.8125 8.4375C11.4297 8.4375 11.1562 8.73828 11.1562 9.09375C11.1562 9.47656 11.4297 9.75 11.8125 9.75ZM10.9375 11.0625C10.9375 11.3086 11.1289 11.5 11.375 11.5V12.8125C11.1289 12.8125 10.9375 13.0312 10.9375 13.25C10.9375 13.4961 11.1289 13.6875 11.375 13.6875H12.25C12.4688 13.6875 12.6875 13.4961 12.6875 13.25C12.6875 13.0312 12.4688 12.8125 12.25 12.8125V11.0625C12.25 10.8438 12.0312 10.625 11.8125 10.625H11.375C11.1289 10.625 10.9375 10.8438 10.9375 11.0625Z" fill="#78C7FF"/>
</svg>
