<svg xmlns="http://www.w3.org/2000/svg" width="540" height="360" viewBox="0 0 540 360">
    <g fill="none" fill-rule="evenodd">
        <path fill="#4d4d4d" fill-rule="nonzero" d="M0 0H540V360H0z"/>
        <path fill="#F6F2FF" fill-rule="nonzero" d="M311.338 189.969c-14.993 85.148-96.116 106.234-147.16 88.428 0 0-57.168-21.489-41.922-72.83 6.444-21.703 1.287-39.15-1.767-55.377-4.17-22.154-4.428-42.037 34.116-67.36 25.926-17.035 57.612-17.524 85.795-6.763 44.4 16.95 80.11 61.817 70.938 113.902z"/>
        <path fill="#EDE4FF" fill-rule="nonzero" d="M311.338 189.969c-14.993 85.148-96.116 106.234-147.16 88.428 0 0-46.605-17.517-44.433-58.709.23-4.43 1.03-9.135 2.51-14.12 6.445-21.703 1.29-39.15-1.765-55.375.187.381 17.002 34.468 50.252 6.924 25.838-21.408 36.851-61.962 69.657-81.044 24.99 9.54 47.227 27.923 60.259 51.461 10.121 18.274 14.688 39.665 10.68 62.435z"/>
        <path fill="#E4DBFA" fill-rule="nonzero" d="M311.338 189.969c-14.993 85.148-96.116 106.234-147.16 88.428 0 0-21.725-8.167-34.818-26.456-6.084-8.5-10.304-19.185-9.615-32.253 19.892 2.366 62.706 3.577 81.096-25.872 20.48-32.798 53.474-83.181 99.817-66.288 1.724 3.111 3.281 6.312 4.666 9.588 6.76 16.008 9.341 33.96 6.014 52.853z"/>
        <path fill="#BEB2DA" fill-rule="nonzero" d="M311.338 189.969c-14.993 85.148-96.116 106.234-147.16 88.428 0 0-21.725-8.167-34.818-26.456 0 0 25.315 16.038 70.138 3.262 49.038-13.977 65.274-91.483 105.826-118.087 6.76 16.008 9.341 33.96 6.014 52.853z"/>
        <path fill="#D5301D" fill-rule="nonzero" d="M203.077 189.24c1.246 1.5 3.547 3.814 6.624 6.667 9.242 8.57 25.54 21.978 41.434 32.876.883.598 1.755 1.206 2.653 1.793 9.213 6.162 18.127 11.32 25.312 14.046 2.648.998 5.308 1.886 8 2.643h.022c21.923 6.217 45.32 3.966 76.379-13.543 34.866-19.66 38.986-55.452 49.638-75.522 1.334-2.515 3.103-4.778 5.187-6.83 14.326-14.152 43.283-17.893 44.132-18-.763-.578-28.873-21.04-75.121-28.573-3.142-.51-6.332-.978-9.526-1.401-44.465-5.922-92.752-3.564-113.323.967-.023 0-.047.018-.07.016-.021-.002-.034.008-.067.016-2.413.545-5.524 1.606-9 2.99-.06.032-.122.056-.186.073-4.584 1.847-9.823 4.245-15.028 6.754-9.311 4.517-18.525 9.425-23.75 12.256-2.713 1.49-4.355 2.399-4.355 2.399l-6.547.146-22.21 19.927s-.923 3.31-1.332 5.186c-.2.942 2.849 10.875 6.462 15.948 2.546 3.62 5.619 7.703 8.538 11.47 2.217 2.861 4.36 5.547 6.134 7.696z"/>
        <path fill="#AD2217" fill-rule="nonzero" d="M203.077 189.24c1.246 1.5 3.547 3.814 6.624 6.667 9.242 8.57 25.54 21.978 41.434 32.876.883.598 1.755 1.206 2.653 1.793 9.213 6.162 18.127 11.32 25.312 14.046 2.648.998 5.308 1.886 8 2.643h.022s.748-3.79 2.354-9.905c2.85-10.89 8.378-29.193 17.055-46.583 8.817-17.691 20.872-34.462 36.701-41.654 32.193-14.628 69.907 9.08 69.907 9.08l5.187-6.831-40.514-47.976c-44.465-5.922-92.752-3.564-113.323.967-.023 0-.047.018-.069.016-.022-.002-.035.008-.068.016-2.413.545-5.524 1.606-9 2.99-.06.032-.122.056-.186.073-4.584 1.847-9.823 4.245-15.028 6.754-9.311 4.517-18.525 9.425-23.75 12.256-2.713 1.49-4.355 2.399-4.355 2.399l-6.547.146-18.306 16.114c-.009.008-.014.02-.015.031-.018.077-.077.23-.166.462-.797 2.397-4.202 12.417-4.615 14.292-.2.944 2.408 5.084 6.016 10.154 2.547 3.62 5.62 7.703 8.538 11.47 2.222 2.869 4.364 5.555 6.139 7.704z" opacity=".62"/>
        <path fill="#CF331D" fill-rule="nonzero" d="M454.685 181.822l-1.78 1.35s-75.93-77.922-164.097-82.067c0 0 52.793-6.772 76.35.836 23.557 7.607 89.527 79.88 89.527 79.88z"/>
        <path fill="#D5301D" fill-rule="nonzero" d="M298.52 100.45c21.61 1.666 43.098 8.547 62.933 17.654 52.47 24.067 93.23 63.716 93.23 63.716 13.579-28.075 7.798-48.45 7.798-48.45-.008-.008-.02-.014-.032-.015-76.754-48.432-163.93-32.905-163.93-32.905z"/>
        <path fill="#ED5E4E" fill-rule="nonzero" d="M298.52 100.45c21.61 1.666 43.098 8.547 62.933 17.654 49.484-9.462 99.445 14.49 100.997 15.251-76.755-48.432-163.93-32.905-163.93-32.905z"/>
        <path fill="#FED194" fill-rule="nonzero" d="M153.555 157.61s-3.959 3.853-7.104 1.484c-.226-1.083-.534-2.147-.923-3.182-.37-.955-.845-1.87-1.413-2.33-.176-.144-.37-.265-.577-.36-1.038-.461-1.595.199-4.408-4.552 0 0-.99.07-1.803-2.12s.036-1.837.6-2.192c0 0-.034-1.377 1.06-1.554l1.097-.176s-.142-1.167 1.45-1.448c0 0 .492-.072.74.244-.034-.071-.961-2.063.461-2.895 0 0 .602-.177 1.166.494.564.672 2.864 1.485 4.206 1.45 1.341-.036 2.05.741 2.402 2.653.352 1.912-.424 6.944-.177 8.278.247 1.334 3.223 6.206 3.223 6.206z"/>
        <path fill="#F59D4E" fill-rule="nonzero" d="M142.293 141.414c.366.327.769.61 1.2.842.43.236.878.44 1.338.61.23.087.461.157.692.25.232.09.451.21.652.356.41.302.674.763.727 1.27.038.498-.055.998-.271 1.449-.121.216-.259.422-.411.617-.143.2-.285.4-.41.61-.261.414-.413.888-.44 1.377-.004.491.131.973.388 1.392l-.03.018c-.32-.405-.51-.898-.542-1.413-.006-.53.128-1.051.39-1.51.12-.225.253-.442.4-.65.134-.183.255-.376.36-.577.022-.038.04-.1.06-.15.021-.05.036-.107.055-.158.032-.107.059-.215.08-.325.04-.21.05-.426.027-.64-.038-.412-.248-.788-.577-1.039-.173-.135-.364-.248-.566-.334-.2-.087-.448-.176-.678-.275-.463-.195-.908-.432-1.329-.707-.424-.27-.806-.599-1.135-.977l.02-.036z"/>
        <path fill="#F59D4E" fill-rule="nonzero" d="M143.791 142.425c.353.84.724 1.673 1.133 2.485.191.412.419.806.68 1.177.036.043.077.08.115.115.02.018.045.031.067.048.022.017.046.03.072.041.096.053.208.07.316.049.216-.063.399-.208.509-.404l.03.017c-.036.118-.094.229-.171.325-.085.11-.2.194-.331.24-.151.049-.315.043-.462-.017-.035-.011-.07-.026-.101-.045-.033-.017-.064-.036-.094-.056-.055-.047-.115-.096-.165-.145-.312-.362-.574-.764-.78-1.195-.099-.209-.197-.418-.286-.629l-.126-.322c-.042-.106-.08-.216-.115-.325-.154-.438-.264-.89-.329-1.35l.038-.01z"/>
        <path fill="#F59D4E" fill-rule="nonzero" d="M140.106 142.62c.309.642.623 1.282.947 1.915.163.317.327.632.497.945.086.156.172.31.263.462.047.076.092.152.142.225.046.073.1.14.16.203.265.232.574.408.91.515.167.055.34.09.515.104.175.01.35-.008.519-.055.33-.122.614-.346.808-.64.105-.142.183-.3.23-.47.05-.168.04-.347-.026-.509l.029-.017c.105.164.146.362.115.555-.03.193-.097.378-.197.545-.05.084-.103.164-.162.24l-.091.116-.046.054-.054.054c-.038.036-.075.072-.116.106-.04.035-.085.06-.129.088l-.067.044-.071.033c-.048.022-.096.047-.146.065-.198.07-.406.103-.616.097-.202-.008-.402-.04-.597-.095-.19-.057-.373-.135-.546-.23-.181-.095-.35-.211-.502-.347-.043-.041-.081-.086-.116-.135l-.027-.035-.021-.031-.04-.062c-.056-.083-.1-.162-.147-.242-.091-.161-.18-.318-.26-.48-.158-.325-.317-.646-.454-.977-.29-.658-.536-1.334-.735-2.024l.03-.016z"/>
        <path fill="#F59D4E" fill-rule="nonzero" d="M137.95 144.353c.24.52.501 1.031.787 1.527.276.501.605.97.98 1.402.095.105.199.202.31.29.107.087.234.15.37.181.28.047.566.044.844-.01.28-.053.532-.2.717-.416.175-.224.282-.495.307-.779h.034c.037.312-.034.626-.2.892-.19.278-.474.478-.799.565-.155.046-.316.073-.478.08h-.239l-.115-.007h-.059c-.022 0-.044-.002-.066-.006-.188-.034-.366-.114-.518-.231-.128-.099-.25-.207-.36-.324-.2-.228-.382-.471-.543-.727-.154-.251-.295-.51-.421-.776-.255-.526-.448-1.079-.577-1.649l.026-.012z"/>
        <path fill="#F59D4E" fill-rule="nonzero" d="M139.135 148.653c.126-.026.244-.079.347-.155.099-.077.178-.178.23-.293.054-.115.088-.24.1-.367v-.193l-.01-.197h.034c.064.055.119.12.162.192.038.073.066.15.084.23.03.169.009.342-.064.497-.078.165-.215.296-.384.366-.164.072-.354.06-.507-.035l.008-.045zM145.532 155.912c-.37-.955-.844-1.87-1.412-2.33-.176-.144-.37-.265-.577-.36.059.01 2.222.383 4-.417 1.444-.651-.117 1.974-2.01 3.107z"/>
        <path fill="#FFF" fill-rule="nonzero" d="M200.84 170.5s-10.542 27.762-26.239 28.817c-5.616.376-9.956-1.9-13.351-5.292-6.092-6.088-9.133-15.764-11.013-20.128-2.929-6.794-1.64-6.94-1.64-6.94-.264-1.616-2.959-7.117-3.223-7.79-.264-.673.294-.586.294-.586 4.363-.352 7.029-2.782 7.527-3.31.498-.527.85.147.85.147 1.082 2.578 4.038 6.954 4.038 6.954 2.694-2.388 10.324 10.12 10.324 10.12 8.273-13.88 12.298-19.11 13.951-20.99.693-.785.97-.984.97-.984L200.84 170.5z"/>
        <path fill="#AEB6B7" fill-rule="nonzero" d="M158.084 162.367s.078 2.7-6.326 4.384c0 0-1.288.079.312-.976s4.315-3.254 4.54-5.687l1.474 2.279zM168.408 172.486s6.561 8.376 8.329 17.192c0 0 .832.955.793-2.02-.07-5.23-8.3-16.542-8.3-16.542l-.822 1.37z"/>
        <path fill="#D2D7DB" fill-rule="nonzero" d="M200.84 170.5s-5.055 13.314-13.384 21.853c-3.692 3.79-8.033 6.639-12.86 6.964-5.615.376-9.956-1.9-13.35-5.292 24.07 9.26 28.197-12.693 25.65-19.088-2.548-6.396-4.295-22.712-4.295-22.712-.098-.235-.18-.477-.246-.723.692-.785.97-.984.97-.984l5.103 5.823L200.84 170.5z" opacity=".54"/>
        <path fill="#AEB6B7" fill-rule="nonzero" d="M187.46 192.347c6.095-9.98 2.78-18.397 1.374-22.527-1.406-4.13-4.393-13.648-4.393-13.648s1.538-.116 3.991.163l12.409 14.165s-5.056 13.308-13.38 21.847z"/>
        <path fill="#949A9B" fill-rule="nonzero" d="M193.846 184.13s1.154-4.207 0-7.252-4.721-11.53-4.721-11.53l8.743 11.704s-2.391 4.659-4.022 7.077z"/>
        <path fill="#BBC3C4" fill-rule="nonzero" d="M197.131 131.486s-1.972-.157-3.32 1.708c-1.347 1.864 1.914 3.388 4.062 2.099 2.149-1.29-.742-3.807-.742-3.807z"/>
        <path fill="#FED194" fill-rule="nonzero" d="M198.888 132.817s-.784 1.922-3.009.51c-2.475-2.77-5.467-6.747-6.05-10.33-1.029-6.305-8.43-19.508-13.513-17.223 0 0-4.685 1.057-7.731 4.615-.703.814-1.278 1.729-1.705 2.715-2.478 5.758-.866 6.754-4.757 9.231-2.016 1.287-.158 3.115 1.895 3.285 2.053.17 1.95 6.698 5.885 9.41 3.934 2.713 11.062 2.146 13.456 1.372 0 0 1.987 1.183 4.247 4.862.354.577.71 1.12 1.06 1.63 0 0 2.202 6.196 1.977 8.97-.225 2.772 12.075-1.368 12.192-6.483.116-5.115-3.947-12.564-3.947-12.564z"/>
        <path fill="#F59D4E" fill-rule="nonzero" d="M188.067 124.417s.882 7.719 5.146 5.622l-3.415-4.744-1.731-.878zM184.861 118.59s-1.154-.997-4.559 3.053c0 0 1.288-6.476 3.3-6.379 2.013.097 1.26 3.326 1.26 3.326zM169.09 109.83s10.228-.897 12.577 1.75c2.35 2.647-4.862-6.778-4.862-6.778s-5.641 2.839-7.715 5.028z"/>
        <path fill="#72120C" fill-rule="nonzero" d="M183.363 106.15c5.297 2.09 6.45 13.487 2.848 11.662-4.836-2.45-5.948 7.13-6.346 2.68-.398-4.449 1.463-4.125.884-8.402-.547-4.038-3.871-3.923-4.237-3.902-5.294.454-11.297-.726-12.434-3.231-.395-.868-.204-1.894.808-3.067 1.827-2.129 3.63-2.79 5.2-2.748 2.917.077 5.034 2.574 5.034 2.574s12.877 1.169 8.243 4.434z"/>
        <path fill="#530905" fill-rule="nonzero" d="M180.748 112.09s1.846 4.446 2.797 5.566c0 0 1.067-.33 1.318-.07.252.262-4.401-6.73-4.401-6.73l.286 1.234zM171.04 99.253s3.462 7.262 6.231 8.968l2.014.593-6.403-9.254-1.842-.307z"/>
        <path fill="#72120C" fill-rule="nonzero" d="M188.043 123.547s-.294 6.084 4.535 5.585c0 0-2.158-3.735-1.862-4.837.295-1.102-2.673-.748-2.673-.748z"/>
        <path fill="#530905" fill-rule="nonzero" d="M188.067 124.417s1.745 4.851 4.269 4.277l-.713-1.414-3.41-4.355s-.287.582-.146 1.492z"/>
        <path fill="#6D378F" fill-rule="nonzero" d="M196.104 109.04c.7 1.314 1.263 2.697 1.68 4.128 2.484 8.554-5.752 15.115-5.752 15.115-3.281-2.41-9.837-14.158-11.807-17.77l-.577-1.06c-.55-.545-1.094-1.133-1.633-1.748-4.362-4.98-8.282-11.808-9.49-13.988-.367-.662.149-1.49.903-1.415 2.781.272 7.37 8.582 7.37 8.582l.102-.037c8.675-3.202 15.677 1.576 19.204 8.192z"/>
        <path fill="#FFF" fill-rule="nonzero" d="M180.23 110.514c9.107-3.692 15.88-1.472 15.88-1.472-3.525-6.619-10.529-11.395-19.2-8.193-.886 2.377.04 4.954 1.116 6.859-.006-.003 1.007 1.685 2.205 2.806z"/>
        <path fill="#F59D4E" fill-rule="nonzero" d="M183.355 136.407s2.915-1.68 3.915-2.675c1-.996-.304 3.668-1.854 4.421 0 0-1.724-1.844-2.06-1.746z"/>
        <path fill="#FFF" fill-rule="nonzero" d="M168.468 106.593c-.034.02-.076.026-.115.016-.115-.029-2.849-.728-3.255-2.409-.22-.912.29-1.917 1.516-2.986.04-.049.103-.07.163-.053.06.016.105.066.115.127.009.062-.019.123-.071.157-1.131.987-1.608 1.887-1.417 2.677.36 1.5 3 2.172 3.024 2.18.04.009.076.034.097.07.022.035.029.078.018.118-.009.044-.036.081-.075.103z"/>
        <path fill="#F59D4E" fill-rule="nonzero" d="M182.33 123.192c.088-.349.226-.683.41-.993.18-.315.405-.603.667-.855.267-.254.58-.454.923-.587.34-.132.706-.18 1.068-.14-.348.04-.687.139-1.003.29-.155.074-.303.162-.443.263-.14.098-.274.208-.398.326-.25.24-.476.505-.674.79-.203.29-.387.592-.55.906z"/>
        <path fill="#F59D4E" fill-rule="nonzero" d="M185.27 121.893c-.141-.083-.276-.16-.413-.23-.135-.069-.274-.128-.417-.178-.14-.05-.286-.083-.434-.103-.153-.018-.307-.024-.461-.02.143-.085.305-.135.472-.143.168-.01.337.012.497.068.157.055.305.135.436.238.13.1.239.226.32.368z"/>
        <path fill="#0A031C" fill-rule="nonzero" d="M167.335 117.668s-.577 1.007-.041 1.255c.535.248.84-1.423.756-1.57-.203-.352-.561-.036-.715.315z"/>
        <path fill="#D5301D" fill-rule="nonzero" d="M173.455 125.934c-.448 1.322-.628 2.399-1.209 3.326-.329.522-.764.967-1.277 1.309-.507.346-1.039.303-1.544.06-1.224-.59-2.26-2.344-2.26-2.344 2.225.567 6.29-2.351 6.29-2.351z"/>
        <circle cx="170.413" cy="120.41" r="1" fill="#F59D4E" fill-rule="nonzero"/>
        <circle cx="171.437" cy="121.357" r="1" fill="#F59D4E" fill-rule="nonzero"/>
        <circle cx="168.752" cy="121.104" r="1" fill="#F59D4E" fill-rule="nonzero"/>
        <circle cx="170.167" cy="122.355" r="1" fill="#F59D4E" fill-rule="nonzero"/>
        <path fill="#242E41" fill-rule="nonzero" d="M166.822 113.652c.018-.217.157-.405.359-.487.638-.27 2.26-.78 2.96.613.883 1.755-.366.874-.974-.053-.545-.83-2.387.765-2.345-.073z"/>
        <path fill="#FED194" fill-rule="nonzero" d="M369.16 290.908s-8.814-2.906-18.232-6.294c-8.7-3.129-17.919-6.67-21.173-8.706-6.775-4.236 15.517-8.769 15.517-8.769s4.521 2.55 8.781 5.493c1.294.894 2.682 1.695 3.674 2.73 10.575 11.02 12.692 1.808 12.692 1.808l-1.26 13.738z"/>
        <path fill="#F59D4E" fill-rule="nonzero" d="M345.903 267.505s.253 7.77-1.76 10.682c-2.014 2.913-3.06 2.725-3.06 2.725l-8.592-3.44 10.651-11.274 2.761 1.307z"/>
        <path fill="#FFB113" fill-rule="nonzero" d="M369.16 290.908s-8.814-2.906-18.232-6.294c.272-5.922 3.125-11.978 3.125-11.978 1.294.894 2.564 1.824 3.674 2.73 4.768 3.884 6.5 4.543 6.5 4.543l9.437 4.27-4.505 6.73z"/>
        <path fill="#000" fill-rule="nonzero" d="M374.106 275.27c.58-.074 1.167-.057 1.742.048l5.02 34.038s-.205.908-1.868 1.469c-.458.15-.93.256-1.408.317-2.966.409-7.357-12.033-10.03-15.982-3.462-5.103-1.749-4.94-1.749-4.94s1.31-5.032-1.385-10.063c0 0-3.72-1.416 6.283-4.129-.001.002 1.732-.59 3.395-.759z"/>
        <path fill="#FFB113" fill-rule="nonzero" d="M374.106 275.27c.58-.074 1.167-.057 1.742.048l5.02 34.038s-.205.908-1.868 1.469l-4.894-35.556z"/>
        <path fill="#FFF" fill-rule="nonzero" d="M370.962 294.654c.017.126-.068.245-.193.269-.944.182-1.825.601-2.563 1.217-.06.071-.154.102-.244.079-.09-.023-.158-.095-.176-.186-.018-.09.018-.184.092-.24.802-.679 1.767-1.14 2.8-1.336.062-.013.127 0 .18.036.053.036.09.091.101.154l.003.007zM371.958 297.806c.017.127-.067.244-.192.269-1.524.292-2.097.976-2.103.983-.082.104-.234.121-.338.038-.103-.083-.12-.234-.038-.338.027-.033.672-.826 2.388-1.154.062-.012.127.001.18.037.053.036.09.091.101.154l.002.011zM369.528 291.51c.017.128-.068.246-.195.27-2.578.476-2.47 1.961-2.468 1.972.013.132-.084.249-.217.261-.132.013-.249-.084-.261-.216-.009-.079-.148-1.934 2.86-2.49.13-.024.255.062.28.192l.001.012z"/>
        <path fill="#663E36" fill-rule="nonzero" d="M345.042 266.55c-.475 3.25-1.731 6.188-3.1 8.57-2.177 3.8-4.632 6.19-4.632 6.19s-44.104-10.543-52.011-15.638c-7.907-5.096-23.018-39.711-23.018-39.711s22.953-35.031 26.207-26.931c1.214 3.018 4.033 10.602 7.092 18.923 5.15 14.017 10.98 30.14 10.98 30.14 11.07.534 38.482 18.457 38.482 18.457z"/>
        <path fill="#59302A" fill-rule="nonzero" d="M341.942 275.12c-2.177 3.8-4.632 6.19-4.632 6.19s-18.47-4.415-33.648-8.912c-8.274-2.453-15.577-4.929-18.362-6.726-7.906-5.097-23.018-39.711-23.018-39.711s22.953-35.031 26.207-26.931c.324.808.765 1.943 1.295 3.332 1.446 3.8 3.556 9.499 5.797 15.597 0 0-10.738 11.731-9.051 22.846 1.687 11.115 8.855 25.786 55.412 34.315z"/>
        <path fill="#42211D" fill-rule="nonzero" d="M303.661 272.398c-8.274-2.453-15.577-4.929-18.362-6.726-7.906-5.097-23.018-39.711-23.018-39.711s22.953-35.031 26.207-26.931c.324.808.765 1.943 1.295 3.332 3.716 21.666-13.616 22.969-11.512 38.449 2.103 15.48 10.544 25.661 25.39 31.587z"/>
        <path fill="#FED194" fill-rule="nonzero" d="M283.805 256.358s-9.278-.142-19.277-.563c-9.238-.388-19.092-1.015-22.805-1.985-7.731-2.02 12.19-13 12.19-13s5.077 1.084 10.021 2.621c1.5.462 3.066.816 4.321 1.507 13.385 7.36 12.651-2.064 12.651-2.064l2.899 13.484z"/>
        <path fill="#F59D4E" fill-rule="nonzero" d="M254.622 240.968s2.561 7.34 1.509 10.72c-1.053 3.38-2.105 3.515-2.105 3.515l-9.23-.717 6.797-13.942 3.029.424z"/>
        <path fill="#FFB113" fill-rule="nonzero" d="M283.805 256.358s-9.278-.142-19.277-.563c-1.509-5.734-.594-12.364-.594-12.364 1.5.462 2.991.974 4.321 1.507 5.71 2.284 7.56 2.394 7.56 2.394l10.281 1.252-2.291 7.774z"/>
        <path fill="#000" fill-rule="nonzero" d="M281.639 236.49c.54-.462 1.109-.863 1.653-1.09l26.823 28.397s.4.977-.782 2.58c-.329.439-.698.845-1.104 1.213-2.492 2.308-14.677-6.406-19.73-8.34-6.536-2.498-4.84-3.461-4.84-3.461s-2.06-5.539-7.84-8.461c0 0-4.385 1.105 3.158-7.93-.004.004 1.223-1.675 2.662-2.908z"/>
        <path fill="#FFB113" fill-rule="nonzero" d="M281.639 236.49c.54-.462 1.109-.863 1.653-1.09l26.823 28.397s.4.977-.782 2.58L281.64 236.49z"/>
        <path fill="#FFF" fill-rule="nonzero" d="M291.324 256.564c.1.105.1.27 0 .375-.76.784-1.307 1.748-1.59 2.802-.037.142-.18.23-.324.2-.143-.032-.237-.17-.211-.316.302-1.154.898-2.211 1.73-3.067.107-.106.28-.106.387 0l.008.006zM294.308 258.849c.1.105.1.27 0 .375-1.228 1.27-1.314 2.273-1.315 2.283-.012.15-.141.263-.291.254-.15-.01-.262-.139-.254-.288 0-.049.085-1.206 1.468-2.629.105-.108.278-.11.386-.006l.006.01zM287.95 254.574c.1.105.1.271 0 .376-2.09 2.123-1.025 3.43-1.014 3.442.097.115.083.287-.031.385-.116.096-.286.082-.385-.03-.058-.07-1.395-1.704 1.038-4.18.051-.051.12-.08.193-.08.072 0 .141.029.192.08.003.002.005.004.006.007z"/>
        <path fill="#663E36" fill-rule="nonzero" d="M285.474 216.296c-2.69 4.039-7.846 7.355-13.983 10.055-17.105 7.527-41.804 10.24-41.804 10.24 11.333 0 24.248 3.692 24.248 3.692s-.104 2.892-.352 5.735c-.21 2.404-.525 4.771-.967 5.334-.966 1.23-2.635 7.645-2.635 7.645-7.476.534-15.031.396-22.182-.137-18.734-1.395-34.689-5.512-39.14-7.419-6.15-2.636-14.936-9.84-10.894-20.56 4.042-10.718 44.63-28.639 44.63-28.639 1.998-3.807 8.52-7.564 16.413-10.778 15.014-6.115 34.981-10.286 38.146-9.254 4.828 1.573 18.712 18.8 8.52 34.086z"/>
        <path fill="#59302A" fill-rule="nonzero" d="M285.474 216.296c-2.69 4.039-7.846 7.355-13.983 10.055-17.105 7.527-41.804 10.24-41.804 10.24 11.333 0 24.248 3.692 24.248 3.692s-.025.724-.083 1.802c0 .062-.007.128-.01.193v.024c0 .058-.007.115-.01.18v.043c0 .051-.007.103-.01.157v.075l-.007.116-.007.125v.062c0 .057-.006.115-.01.172v.012c-.051.855-.116 1.814-.202 2.77-.21 2.402-.523 4.77-.967 5.334-.966 1.23-2.636 7.644-2.636 7.644-14.593.453-26.447-.488-34.5-1.5-8.368-1.056-15.875-5.745-20.383-12.874-4.962-7.846-1.219-10.443 18.163-11.216 1.341-.052 2.787-.134 4.317-.238 1.53-.104 3.142-.23 4.817-.376h.043c.385-.032.773-.067 1.167-.103 6.838-.662 40.696-4.685 50.13-20.247 10.513-17.336-11.45-22.846-42.522-14.153-.563.157 7.777-6.577 7.598-6.815l.397-.162c14.968-6.026 34.615-10.115 37.75-9.092 2.262.739 6.515 4.916 9.345 10.72 3.193 6.57 4.57 15.238-.84 23.36z"/>
        <path fill="#42211D" fill-rule="nonzero" d="M286.3 192.927c-3.394-1.487-11.75-2.93-19.012-2.812-7.262.118-27.068 4.28-27.068 4.28h-.489c-.658-1.01-.808-2.048-.527-3.095 14.968-6.026 34.615-10.115 37.75-9.092 2.262.739 6.515 4.915 9.346 10.72z"/>
        <path fill="#BBC3C4" fill-rule="nonzero" d="M258.782 187.388s20.485-3.716 21.772-4.243c0 0-4.977-5.27-6.56-5.27-1.581 0-15.212 9.513-15.212 9.513z"/>
        <path fill="#42211D" fill-rule="nonzero" d="M243.074 237.885c-14.818 7.682-40.829 4.653-45.514 2.192-4.684-2.461-2.46-2.81-2.46-2.81 13.647 1.873 34.587-.675 34.587-.675 2.217 0 4.429.106 6.636.316 2.088.2 4.165.494 6.23.88l.52.097z"/>
        <path fill="#27140E" fill-rule="nonzero" d="M236.323 236.907c-22.912 6.788-41.223.358-41.223.358 13.647 1.874 34.587-.674 34.587-.674 2.217 0 4.429.106 6.636.316z"/>
        <path fill="#BBC3C4" fill-rule="nonzero" d="M187.78 148.21c0 .32 6.91 19.824 11.245 7.056 4.333-12.769-3.462-8.727-3.462-8.727l-2.968 3.3-3.298-3.908-1.518 2.279z"/>
        <path stroke="#FFF" stroke-linecap="round" stroke-width="1.5" d="M262.686 201.009s-89.569 31.975-70.085 41.077c19.484 9.101 50.473 7.204 50.473 7.204"/>
        <path fill="#6D378F" fill-rule="nonzero" d="M275.927 178.577s-19.562 10.778-24.833 11.833c-5.27 1.054-28.7 11.831-28.7 11.831s-.116-.115-.347-.354c-1.347-1.352-6.704-6.659-18.157-17.218-13.472-12.416-20.5-31.354-21.281-32.448-.781-1.094-.665-1.25-.665-1.25.783-1.384 2.084-2.75 3.285-3.83.903-.809 1.854-1.563 2.848-2.256.586 6.13 2.87 11.322 7.961 8.16 5.092-3.16 2.577-18.098 2.577-18.098l4.162-2.74c.39-.258.894-.26 1.286-.008l71.864 46.378z"/>
        <path fill="#582279" fill-rule="nonzero" d="M275.927 178.577s-19.562 10.778-24.833 11.833c-2.718.543-10.269 3.672-16.938 6.577-6.267 2.725-11.763 5.254-11.763 5.254s-.115-.115-.346-.354c6.046-20.959-20.177-51.147-24.172-47.752-4.685 3.982-7.34 1.445-7.846 0-.505-1.445-1.43-.28-1.43-.28-1.55-2.462-2.667-4.673-3.374-6.713.904-.81 1.856-1.564 2.852-2.257.586 6.13 2.87 11.322 7.961 8.16 5.092-3.16 2.577-18.098 2.577-18.098l4.12-2.713.042-.028c.39-.257.894-.26 1.286-.007l71.864 46.378z"/>
        <path fill="#C90060" fill-rule="nonzero" d="M192.601 149.838s-1.832.485-8.16-1.944c0 0-.743.186.585-1.472 1.328-1.659 3.391-2.096 3.391-2.096l4.184 5.512z"/>
        <path fill="#42115F" fill-rule="nonzero" d="M275.927 178.577s-19.562 10.778-24.833 11.833c-2.718.543-10.269 3.672-16.938 6.577.224-6.403-1.623-16.161-11.654-26.412-12.433-12.707-17.753-29.737-19.769-38.345l.043-.027c.39-.258.894-.26 1.286-.007l71.865 46.38z"/>
        <path fill="#FF920F" fill-rule="nonzero" d="M277.528 180.9L243.789 191.383 234.565 182.366 210.025 158.375 247.996 142.601 254.703 151.3 254.703 151.301z"/>
        <path fill="#FFAD01" fill-rule="nonzero" d="M295.293 144.721L291.665 152.105 287.793 159.988 287.603 160.377 277.528 180.895 248.032 142.644 247.996 142.597 247.996 142.597 249.473 140.143 257.781 126.362 258.399 125.336 267.976 109.438 267.982 109.428 267.982 109.428z"/>
        <path fill="#000" fill-rule="nonzero" d="M267.989 109.428l-.006.01c-.17.363-3.851 8.193-8.523 16.509-2.834 5.02-6.041 9.821-9.595 14.361-.783.999-1.362 1.695-1.653 2.042-.121.143-.194.23-.212.247l1.477-2.454 8.307-13.781.616-1.025 9.589-15.909z"/>
        <path fill="#FAD6AB" fill-rule="nonzero" d="M267.989 109.427L267.99 109.427 267.989 109.428 267.983 109.438 258.442 125.321 257.826 126.346 249.524 140.164 248.212 142.35 248.032 142.648 242.436 144.964 236.871 147.266 210.025 158.375 219.375 142.486 229.857 124.673z"/>
        <path fill="#FFCF58" fill-rule="nonzero" d="M267.989 109.427L267.99 109.427 267.989 109.428 267.983 109.438 258.442 125.321 257.826 126.346 249.524 140.164 248.212 142.35 248.032 142.648 242.436 144.964 236.871 147.266 210.025 158.375 219.375 142.486 229.857 124.673z"/>
        <path fill="#F27204" fill-rule="nonzero" d="M277.528 180.9l-33.739 10.485-9.224-9.018s26.912.231 20.138-31.065l22.825 29.598z"/>
        <path fill="#000" fill-rule="nonzero" d="M220.213 141.068L257.826 126.346 258.441 125.321 220.817 140.041z"/>
        <path fill="#EDE2DB" fill-rule="nonzero" d="M265.652 172.959L246.727 180.268 250.675 185.127 270.571 179.013z"/>
        <path fill="#90898B" fill-rule="nonzero" d="M262.77 177.184L264.405 179.195 267.543 178.134 265.941 176.162zM249.13 180.663L249.552 181.18 257.139 178.718 256.75 178.24zM250.247 182.036L250.718 182.617 259.16 179.903 258.726 179.367zM251.364 183.41L251.835 183.991 260.277 181.277 259.842 180.742z"/>
        <path fill="#EAECED" fill-rule="nonzero" d="M238.16 161.589L223.725 166.699 218.565 161.124 233.619 156.172z"/>
        <path fill="#515151" fill-rule="nonzero" d="M224.77 165.517L224.019 165.781 220.235 161.667 221.011 161.41z"/>
        <path fill="#515151" fill-rule="nonzero" d="M224.919 165.465L224.622 165.568 220.858 161.461 221.165 161.359zM225.543 165.244L225.248 165.348 221.504 161.246 221.81 161.143zM226.165 165.026L225.871 165.129 222.148 161.032 222.451 160.93zM226.915 164.763L226.503 164.907 222.8 160.815 223.224 160.673zM227.402 164.592L227.11 164.694 223.426 160.606 223.727 160.505zM228.016 164.377L227.725 164.478 224.061 160.395 224.361 160.295zM228.736 164.123L228.23 164.302 224.581 160.222 225.104 160.047zM229.237 163.947L228.948 164.049 225.323 159.975 225.62 159.877zM229.843 163.735L229.557 163.835 225.95 159.766 226.245 159.668zM230.446 163.523L230.161 163.623 226.574 159.558 226.868 159.461zM231.155 163.273L230.657 163.449 227.085 159.388 227.598 159.218zM231.646 163.1L231.363 163.201 227.813 159.146 228.106 159.049zM232.243 162.892L231.961 162.991 228.429 158.941 228.72 158.844zM232.836 162.683L232.555 162.782 229.043 158.737 229.333 158.641z"/>
        <path fill="#515151" fill-rule="nonzero" d="M233.4 162.485L232.817 162.69 229.313 158.648 229.913 158.447zM234.016 162.268L233.737 162.367 230.262 158.332 230.549 158.236zM234.602 162.063L234.325 162.16 230.867 158.13 231.153 158.035zM235.186 161.858L234.909 161.955 231.471 157.929 231.756 157.834zM235.768 161.653L235.492 161.75 232.071 157.729 232.355 157.636z"/>
        <path fill="#515151" fill-rule="nonzero" d="M236.323 161.458L235.629 161.702 232.213 157.682 232.927 157.445zM236.923 161.247L236.649 161.343 233.264 157.332 233.545 157.239z"/>
        <path fill="#000" fill-rule="nonzero" d="M239.472 141.592L236.622 147.81 240.608 152.716 245.941 150.654 242.128 145.715 244.74 139.328z"/>
        <path fill="#B28567" fill-rule="nonzero" d="M236.952 147.236l-.032.942s3.366-1.585 5.254-2.504c.056-.236.13-.468.22-.692l-5.442 2.254z" opacity=".32" style="mix-blend-mode:multiply"/>
        <path fill="#593D2D" fill-rule="nonzero" d="M259.432 151.912l.187-.266.18-.366c.05-.054.093-.115.128-.18l.024-.082.061-.088h.012l.016-.028v-.01l.035-.05.077-.169.115-.174.021-.047.012-.01.115-.247.115-.15.09-.222.185-.263.25-.507.201-.291.154-.335.07-.062-.023-.022v-.007c.054-.096.09-.201.104-.31l.017-.03h.04l-.009-.185c.082.078.178.04.29-.116l-.032-.206.144-.122.15-.335.224-.397.136-.305c.033.033.12-.056.263-.266l.04-.267.166-.23c.037-.069.064-.142.082-.217.063.023.143-.049.245-.231l.04-.134.016-.03h.039l.015-.028-.007-.052.23-.346.135-.302.116-.143.087-.22.182-.256.243-.493.196-.285.15-.328.07-.06-.021-.02.063-.116.164-.231.047-.215.073-.06.102-.248.182-.255.038-.135.182-.254.116-.274.534-.814.086-.214.017-.03.115-.142.108-.324.15-.197.015-.025-.015-.015c.017-.022.032-.043.05-.07l.02-.106.088-.086.015-.026.084-.217.094-.036.23-.54.188-.199.045-.212.123-.217.21-.303c-.046-.046-.014-.17.1-.37 0 0 .176-.293.214-.253l.024.025c.022-.051.04-.104.053-.158.05-.053.096-.11.134-.172l.021-.105.085-.084.015-.027.084-.213.093-.036.23-.534.184-.195.045-.21.116-.215.207-.3c-.046-.047-.012-.168.1-.366l.203-.429c-.033.081-.03.14.008.18l.024.024c.029-.07.068-.165.101-.251.056 0 .126-.072.21-.222l.037-.128.017-.027h.036l.015-.027-.006-.05.218-.324.128-.288.115-.135.083-.21.173-.243.231-.47.187-.27.142-.312.067-.056-.022-.022v-.007c.05-.09.083-.19.096-.292l.016-.028h.037l-.008-.178c.075.08.165.049.268-.093l-.03-.2.134-.115.14-.313.208-.368.127-.285c.008.01.021.007.039 0h.034c.01-.016.014-.03.022-.047.054-.06.104-.123.148-.19l.036-.254.009-.013c.063.022.134-.02.212-.127l-.024-.168c.007-.019.013-.035.017-.05l.116-.09.138-.31.207-.366.124-.283c.03.032.116-.047.243-.238l.035-.253.154-.21c.08-.164.101-.265.065-.304l-.134-.143h-.037l-.05.155-.23.415-.295.391c.027.028.017.088-.029.18l-.19.336-.098.105.01.05-.098.106-.056.156h-.032l-.05.155-.156.277-.179.248-.022.053-.176.231c.026.028.016.088-.03.179l-.192.346-.098.106.01.051-.099.106-.133.364-.346.479-.08.2c-.1.09-.183.198-.247.316l.022.024.008.053.022.023.045-.079.023.026-.074.131-.166.163-.037.128-.097.115-.07.184-.115.21-.26.53-.137.115-.016.027.008.049-.128.164-.16.346-.248.247.005.038-.056.029-.045.08-.16.219-.327.77-.16.22-.165.425-.354.625-.177.244.024.024c-.056.095-.083.204-.076.314l-.089-.09-.077.007-.046.081-.16.222-.333.78-.162.222-.168.43-.357.63-.18.249.026.025c-.046.078-.074.164-.081.254l-.035-.035c-.03-.032-.115.045-.24.231l.007.181c-.048 0-.144.103-.29.316l-.046.215-.251.443-.088.218-.023-.022-.031.056-.115.27-.134.042-.079.27-.08.141-.102.115-.023.116-.047.082-.08.009-.063.243-.103.116c-.075.152-.138.308-.19.47-.035-.036-.138.078-.305.346l.023.022.01.054.022.023.046-.083.026.024-.079.14-.174.174-.04.133-.1.115-.073.191-.126.223-.275.554-.143.115-.016.03.008.049-.135.174-.167.36-.261.264.01.07-.034.106-.255.45-.32.431c.029.028.019.09-.031.188l-.208.367-.105.116.01.05-.105.116-.144.387-.37.52-.088.213c-.106.1-.195.218-.265.346l.023.022.01.056.022.022.049-.086.025.026-.08.141-.178.182-.04.135-.104.115-.075.195-.13.23-.28.567-.143.123c-.053.025-.146.142-.28.356l.024.022.009.054.011.012-.086.184-.268.275.018.105h.005l-.064.167-.13.231-.204.41c.063.082.125.165.184.248l.089-.116.07-.231z"/>
        <path fill="#593D2D" fill-rule="nonzero" d="M275.7 127.36l-.042-.153-.236-.283-.263-.379-.217-.258c.041-.015-.002-.134-.132-.357l-.223-.154-.14-.256c-.124-.158-.21-.231-.26-.208l-.185.07-.015.038.126.124.303.434.255.48c.035-.013.087.025.156.116l.242.346.061.148.05.013.062.147.123.13-.011.03.126.123.197.284.161.292.042.046.151.285c.036-.014.088.023.155.115l.24.347.06.145.052.014.06.145.285.297.307.555.152.17c.045.137.11.266.195.384l.03-.012.052.016.03-.01-.056-.08.033-.011.092.132.084.231.103.094.062.143.141.149.147.21.38.489.045.179.02.027.047.015.098.195.25.306.125.346.066.021.08.076.292.42.244.462c.036-.013.088.023.154.108l.23.338.06.142.049.014.058.142.279.29.299.54.09.102-.008.026.108.157.122.115c-.03.01 0 .096.102.257l.23.213.023.09.017.025.052.015.02.089.268.327.032.054c-.01.065-.03.129-.06.188l-.272.323-.02.102-.014.026h-.036c-.028.05-.028.092 0 .122l.077.082c.004.064-.01.127-.037.185l-.097.182-.106-.115-.07.008-.115.206.009.173-.014.026-.106.133c-.024.075-.132.304-.24.535l-.013-.188-.115.207-.224.544c-.024-.027-.086.046-.182.216l-.077.206h-.037v.122l-.027.053-.116.162.021.022.01.048c-.006.012-.01.025-.014.037l-.013-.014h-.037l-.105.264-.166.115-.155.415-.1.187v.451l-.1.187-.087-.09c.048-.089.05-.157 0-.202l-.023-.024-.036.007-.284.657c-.029-.03-.092.045-.188.223l-.056.108v.123l-.015.028-.081-.04c-.09.212-.116.346-.07.386l-.26.355.009.049H278.403l-.069.008-.012.025v.126l.011.012-.04.094-.15.222-.08.21-.165.247.008.174-.044.08c-.044-.043-.075-.047-.093-.01l-.203.378c-.033.081-.056.167-.07.254l-.092.009-.101.19c-.02.036-.007.076.038.122l-.087.162-.074.01-.203.507-.095.115-.015.03-.253.538-.082.085-.014.154-.015.029h-.035l-.023.104.082.041.021.022-.029.054-.115-.115-.073.01-.204.508-.23.359c-.04.073-.071.15-.093.23l-.105.013-.103.192c-.02.037-.007.077.038.123l-.087.164-.074.01-.207.514-.096.115-.016.028-.256.547-.082.086-.014.155-.016.029h-.036l-.023.105.083.041.021.022-.029.055-.115-.116-.074.01-.206.515-.231.364c-.042.076-.075.158-.096.243l-.032-.032-.036.006-.115.273-.156.23-.083.218-.17.256.007.176-.045.085c-.045-.044-.077-.046-.097-.01l-.21.393c-.036.09-.06.183-.074.278l-.009-.01-.076.011-.014.027v.129l-.09.168c-.16.3-.205.513-.132.635l-.045.083-.122-.16-.076.012-.015.03-.036.134-.015.028h-.039c-.03.055-.029.097 0 .127l-.276.584-.106.068c-.02.038-.008.078.037.115l-.06.115-.091.042-.015.026v.13l-.106-.061-.022.115-.015.029h-.04l-.15.412c-.049.094-.102.128-.159.104l-.038.133.024.023.077-.011.03.097-.075.115c-.056.131-.172.227-.312.255l-.031.057v.084l-.04.074c-.019.038 0 .086.063.145-.025.043-.045.089-.06.136-.054.03-.142.1-.185.06l-.022-.022h-.038l-.287.667-.366.552-.095.248-.072.065c.04.037.022.133-.052.29l-.298.363-.022.11-.015.027-.04.007c-.015.024-.021.053-.018.082h-.027l-.29.671-.369.558-.097.251-.071.065c.039.037.022.134-.053.292l-.3.367-.023.115-.015.028h-.033l-.42-.353c-.068-.082-.062-.142.018-.178l.032-.014c-.091-.112-.198-.21-.319-.29l.028-.012.013-.037c-.076-.099-.172-.18-.282-.24l-.022-.025.01-.037-.17-.058c.1-.045.098-.144 0-.298l-.2-.045-.06-.173-.253-.254-.285-.346-.231-.23c.04-.02-.01-.13-.154-.333l-.23-.131-.156-.231c-.05-.058-.109-.11-.172-.154.044-.048 0-.147-.126-.304l-.108-.085-.022-.026.009-.037-.02-.023-.05-.013-.231-.333-.231-.231-.093-.16-.174-.16-.176-.262-.377-.406-.199-.288-.255-.26-.032-.087-.029.013c-.07-.084-.155-.154-.25-.207l-.022-.026.009-.038-.173-.059c.1-.046.097-.148-.006-.307l-.202-.045-.063-.177-.26-.259-.29-.346-.237-.238c.011 0 .012-.02.009-.041l.01-.036c-.013-.016-.026-.026-.04-.04-.041-.078-.087-.153-.138-.224l-.231-.134-.01-.014c.04-.056.021-.145-.06-.267l-.17-.039-.043-.038-.053-.148-.26-.261-.295-.354-.238-.24c.04-.019-.014-.134-.161-.345l-.237-.135-.161-.244c-.136-.146-.231-.208-.278-.185l-.178.087-.01.04.136.115.338.407.295.461c.035-.017.09.015.165.097l.271.328.074.14.052.01.073.142.134.115-.01.033.137.115.221.267.186.277.045.042.175.271c.035-.017.09.015.164.096l.27.326.072.14.052.008.072.14.308.272.355.526.166.156c.057.134.135.257.23.366l.03-.013.052.01.03-.012-.063-.074.031-.015.104.125.104.23.11.086.074.137.153.136.164.198.42.453.062.176.022.025.048.01.116.187.274.283.155.333.067.015.085.07.327.393.285.442c.034-.016.087.016.161.096l.263.316.07.136.051.01.07.135.303.267.346.513.098.093-.007.026.118.17.132.107c-.03.014.011.097.123.248l.242.193.03.088.02.023.052.011.029.087.295.303.016.022.237-.122h.011l.246-.462.053-.167h.04l.129-.311.444-.693.014-.158.23-.3.03-.186-.022-.02h-.04l-.022-.022c.023-.073.02-.151-.008-.222l.13.124.078-.014.015-.027.022.021c.048-.094.088-.191.122-.29l.084-.159.054-.166h.038l.128-.308.44-.692.014-.158.231-.297.147-.37.033.033c.054-.104.098-.214.13-.326l.036-.137.207-.185.13-.377.116-.205.115-.148.015-.026-.007-.05.115-.149.055-.163.097-.116.098-.246.18-.21-.023-.023-.007-.047.23-.372.128-.3.137-.126c.15-.31.251-.536.305-.686l.037-.008.03-.182.442-.633.051-.163.105-.195.128-.172v-.13l.11-.145.045-.084-.007-.047-.023-.024h-.037c.024-.057.044-.107.06-.15l.115-.02.103-.192.23-.366.044-.21.066-.062.038-.131.015-.03h.036l.163-.43.236-.316.081-.212.661-1.11c.023-.044.033-.094.03-.143h.012l.101-.19.231-.36.044-.21.065-.06.036-.131.017-.028h.034l.16-.428.231-.309.08-.21.654-1.095c.017-.033.027-.068.03-.105l.021-.144.428-.608.05-.16.101-.188.124-.166v-.127l.106-.138.044-.082-.007-.047-.023-.023h-.035c.03-.07.05-.126.067-.177.06.012.118-.02.14-.077l.028-.053.036-.13.015-.027h.035l.064-.183.108-.14c.06-.104.1-.22.115-.34l.13-.115.013-.025v-.05l.015-.028h.034l.037-.128.1-.188c.224-.433.47-.854.74-1.26l.127-.362.069-.094.055.01.169-.44.294-.425.05-.154-.056-.058.313-.488.014-.025.204-.317.033-.128.445-.707c.032-.093.054-.165.07-.23l.221-.415.049-.156h.036l.046-.115c.01-.048.023-.095.041-.14.024-.053.052-.103.085-.15l-.019-.02-.138-.192-.042-.087-.503-.503c-.061-.087-.05-.145.034-.174l.032-.011c-.08-.12-.179-.227-.292-.317l.029-.01.015-.036c-.067-.105-.156-.194-.26-.263l-.02-.027.013-.035-.165-.073c.104-.036.116-.135.023-.297l-.195-.063-.045-.176-.23-.275-.254-.366-.211-.25c.041-.015 0-.13-.125-.346l-.22-.151-.134-.247c-.046-.063-.1-.12-.158-.169.047-.044.017-.146-.1-.314l-.101-.093-.019-.028.012-.036-.017-.025-.05-.017-.207-.346-.213-.253-.078-.169-.16-.174-.153-.276-.34-.437-.174-.303-.23-.28-.026-.09-.03.01c-.061-.09-.14-.169-.23-.23l-.02-.029.013-.036-.168-.073c.104-.038.116-.14.02-.306l-.196-.062-.049-.183-.23-.28-.261-.375-.216-.257c.013 0 .015-.02.014-.04l.012-.035c-.011-.018-.024-.03-.035-.045-.034-.08-.072-.157-.116-.231l-.222-.154-.008-.015c.045-.052.033-.142-.037-.27l-.167-.054-.078-.068z"/>
        <path fill="#FF920F" fill-rule="nonzero" d="M291.665 152.11l.317.433-3.817 7.486c-.077.052-.157.103-.238.151-.107.07-.214.135-.324.202-2.363 1.428-4.941 2.463-7.635 3.067-4.985 1.144-8.431.346-10.9-1.475-.09-.064-.18-.132-.266-.202-4.342-3.416-5.545-10.038-6.923-14.307-.04-.126-.082-.248-.122-.37-.745-2.22-1.567-3.715-2.98-3.626-3.447.22-5.282-1.58-8.916-3.157l-.346-.144c-.017 0-.032-.014-.048-.021-2.245-.923-5.175-1.75-9.51-1.99-11.861-.655-20.8 5.308-20.8 5.308s.061-.346.209-.98l10.481-17.812 38.142-15.246 27.302 35.295-3.626 7.388z" opacity=".47"/>
        <path fill="#000" fill-rule="nonzero" d="M291.982 152.543L288.165 160.029 288.022 160.31 287.927 160.18 287.793 159.993 284.12 154.91 288.505 147.776 291.665 152.11z"/>
        <path fill="#FFF" fill-rule="nonzero" d="M187.962 142.098s-1.27 8.192.23 12.055c0 0 .41.703.44-.761.03-1.464-.103-5.402 2.467-4.722 0 0 .846.05 1.5 1.168l-4.637-7.74z"/>
        <path fill="#FED194" fill-rule="nonzero" d="M282.782 149.35c-.701 1.055-2.814.293-2.814.293s2.461 3.923 2.519 5.33c.058 1.406-1.615.938-1.615.938s.586 1.375.761 2.37c.175.997-.145 1.29-.145 1.29-1.29.527-2.168-.673-2.168-.673s0 .585-1.113.82c-1.112.234-2.635-1.641-4.334-4.04-1.698-2.397-3.273-3.337-3.273-3.337-.115 5.095-2.174 5.739-2.115 3.632.048-1.76-1.127-5.192-1.55-6.923-.073-.265-.122-.535-.148-.808-.06-1.112-.762-3.983-.762-3.983l3.104-4.1s.793.415 1.897 1.038c2.028 1.138 5.107 2.965 6.244 4.18 1.762 1.864 6.213 2.92 5.512 3.973z"/>
        <path fill="#F59D4E" fill-rule="nonzero" d="M271.03 141.192c-.064.038-.135.063-.208.076 0 0-.956 2.317-2.332 4.046-.84 1.084-1.375 2.373-1.551 3.733-.072-.265-.121-.535-.148-.808-.059-1.112-.761-3.983-.761-3.983l3.103-4.101s.793.414 1.897 1.037z"/>
        <path fill="#FFF" fill-rule="nonzero" d="M271.154 140.546c-1.319 3.407-5.539 5.026-5.539 5.026l-5.623-4.13s.264.528-2.284.656-26.131-13.538-26.351-13.667l-14.584 17.992c-10.125-4.575-12.898-13.92-13.023-14.355v-.015s.243-.29.675-.794c1.977-2.308 7.888-9.066 12.536-13.077 5.803-5.006 15.097-11.087 21.422-11.086 13.885 0 26.27 23.02 27.5 24.916 1.23 1.897 0 3.375 0 3.375l5.27 5.16z"/>
        <path fill="#D2D7DB" fill-rule="nonzero" d="M231.355 128.43l-14.583 17.992c-10.125-4.575-12.898-13.92-13.024-14.355l.672-.808s2.423 5.798 6.636 8.9c4.212 3.103 9.312-8.375 13.096-11.412 1.385-1.112 2.723-1.452 3.86-1.434 1.202.026 2.367.416 3.343 1.117z" opacity=".54"/>
        <path fill="#F59D4E" fill-rule="nonzero" d="M279.31 158.907c-.803-1.154-1.582-2.326-2.338-3.518-.37-.599-.734-1.203-1.08-1.816l-.254-.461c-.085-.155-.162-.313-.244-.47-.082-.157-.15-.319-.225-.478-.039-.08-.07-.162-.101-.244l-.094-.248.033-.01.136.23c.042.077.084.152.135.23.098.148.179.3.28.445l.57.88c.2.29.377.59.577.88l.563.888.552.895c.175.305.363.602.533.91.346.61.692 1.228.99 1.877l-.033.01zM280.862 155.919c-.584-1-1.155-2.01-1.713-3.03-.273-.51-.54-1.026-.802-1.545-.259-.52-.514-1.039-.736-1.577l.03-.013c.339.484.65.97.95 1.466.153.246.292.499.44.747l.422.758.4.77c.127.26.262.517.38.782.251.528.472 1.07.66 1.625l-.03.017zM279.954 149.652c-.23-.338-.449-.692-.674-1.03-.225-.338-.436-.692-.643-1.049l.028-.018c.196.102.374.235.525.395.145.148.273.311.383.486.11.175.203.36.276.554.08.206.125.423.135.644l-.03.018z"/>
        <path fill="#AEB6B7" fill-rule="nonzero" d="M231.355 128.43l-14.583 17.992c-10.125-4.575-12.898-13.92-13.024-14.355 2.967 5.442 9.04 12.773 12.145 12.48 3.104-.291 13.178-15.23 13.136-15.807-.041-.577-.983-1.409-1.012-1.434 1.2.03 2.364.421 3.338 1.124z"/>
        <path fill="#BBC3C4" fill-rule="nonzero" d="M259.996 141.443s3.015-2.017 4.57-3.923c0 0 1.368-.085-2.993 5.077l-1.577-1.154z"/>
        <path fill="#C90060" fill-rule="nonzero" d="M192.601 149.838s10.132-1.366 13.794-20.845c0 0-.461-.7-2.216.414-1.755 1.113-4.48 3.787-4.48 3.787s-.928 10.485-7.098 16.644z"/>
        <path fill="#FFF" fill-rule="nonzero" d="M192.601 149.838s2.226-3.375 3.202-7.74 1.797-9.791 1.328-10.615c-.468-.824 4.73.735 4.823 1.48.093.745.174 11.288 1.19 16.051 0 .004-7.452-3.627-10.543.824z"/>
        <path fill="#C90060" fill-rule="nonzero" d="M191.528 149.919s-4.5 1.038-2.98 5.564c1.522 4.525 4.165 5.228 4.165 5.228s-2.462-2.28-1.397-4.5c1.065-2.22 1.752-3.446 1.164-6.374l-.952.082z"/>
        <path fill="#C90060" fill-rule="nonzero" d="M192.276 150.482s-.238 3.173 3.055 3.097c3.293-.076 4.292-1.677 4.292-1.677s-2.003 1.154-3.248 0-1.91-1.857-3.958-2.067l-.141.647z"/>
        <path stroke="#E4DBFA" stroke-linecap="round" stroke-width="1.875" d="M119.671 170.026s-6.435-20.654-6.452-39.626c-.014-14.025 8.551-29.225 21.67-39.645M139.531 88.108s9.404-6.718 13.48-8.538"/>
    </g>
</svg>
