<svg width="30" height="30" viewBox="0 0 30 30" fill="none" xmlns="http://www.w3.org/2000/svg">
    <path d="M8 8h1.261c.784 0 1.4.674 1.335 1.45l-.602 7.221a2.027 2.027 0 0 0 2.023 2.197h7.72c1.045 0 1.958-.856 2.038-1.892l.135-1.873.041-.578M10.77 9.355h5.93M21.775 12.35l-2.9-2.9M21.775 9.45l-2.9 2.9M18.332 22.5a.906.906 0 1 0 0-1.813.906.906 0 0 0 0 1.813zM12.531 22.5a.906.906 0 1 0 0-1.812.906.906 0 0 0 0 1.812zM12.35 15.975h3.988" stroke="#D1D5DB" stroke-width="1.2" stroke-miterlimit="10" stroke-linecap="round" stroke-linejoin="round"/>
</svg>
