<svg width="20" height="20" viewBox="0 0 20 20" fill="none" xmlns="http://www.w3.org/2000/svg">
<rect width="20" height="20" rx="10" fill="white"/>
<path fill-rule="evenodd" clip-rule="evenodd" d="M6.66357 9.69611C6.68216 9.71469 7.51859 9.69611 8.2435 9.65893C8.41078 9.1199 8.80112 8.69239 9.32156 8.48793L9.34015 7.01953L6.66357 9.69611Z" fill="url(#paint0_linear_246_57057)"/>
<path fill-rule="evenodd" clip-rule="evenodd" d="M10.5483 11.9619L10.4926 13.5604L13.1877 10.8838L11.7193 10.9024C11.4963 11.4042 11.0873 11.7946 10.5483 11.9619Z" fill="url(#paint1_linear_246_57057)"/>
<path fill-rule="evenodd" clip-rule="evenodd" d="M12.9089 6.70238C12.7974 6.73955 12.6859 6.77673 12.5743 6.8139C12.1468 6.98119 11.7379 7.22282 11.4033 7.53881L11.2918 7.65033L11.1803 7.76185L10.5111 8.431C11.1245 8.59828 11.6264 9.10014 11.7937 9.71352L12.4814 9.02579C12.5186 8.98862 12.5372 8.95144 12.5743 8.91427C12.6115 8.87709 12.6487 8.85851 12.6859 8.82133C13.0018 8.54252 13.4108 8.39382 13.8569 8.39382C14.303 8.39382 14.7119 8.56111 15.0279 8.82133C15.065 8.85851 15.1022 8.87709 15.1394 8.91427C15.1766 8.95144 15.1951 8.98862 15.2323 9.02579C15.5111 9.34178 15.6598 9.7507 15.6598 10.1968C15.6598 10.6429 15.4925 11.0518 15.2323 11.3678C15.1951 11.405 15.1766 11.4421 15.1394 11.4793C15.1022 11.5165 15.065 11.5537 15.0279 11.5723C14.7119 11.8511 14.303 11.9998 13.8569 11.9998C13.4108 11.9998 13.0018 11.8325 12.6859 11.5723C12.6487 11.5351 12.6115 11.5165 12.5743 11.4793L11.2918 12.7618L11.4033 12.8734C11.7379 13.1894 12.1282 13.431 12.5743 13.5983C12.6859 13.6354 12.7974 13.6726 12.9089 13.7098C13.2063 13.7841 13.5223 13.8399 13.8569 13.8399C14.1914 13.8399 14.5074 13.8027 14.8048 13.7098C14.9163 13.6726 15.0279 13.6354 15.1394 13.5983C15.5669 13.431 15.9758 13.1894 16.3104 12.8734L16.4219 12.7618L16.5334 12.6503C16.8494 12.3157 17.0911 11.9254 17.2583 11.4793C17.2955 11.3678 17.3327 11.2563 17.3699 11.1447C17.4442 10.8474 17.5 10.5314 17.5 10.1968C17.5 9.86222 17.4628 9.54624 17.3699 9.24884C17.3327 9.13732 17.2955 9.02579 17.2583 8.91427C17.0911 8.48676 16.8494 8.07784 16.5334 7.74327L16.2918 7.50163C15.9572 7.18565 15.5669 6.94401 15.1208 6.77673C15.0093 6.73955 14.8977 6.70238 14.7862 6.6652C14.4888 6.60944 14.1728 6.57227 13.8569 6.57227C13.5223 6.57227 13.2063 6.60944 12.9089 6.70238ZM8.2249 10.6987L7.53717 11.3864C7.49999 11.4236 7.4814 11.4607 7.44423 11.4979C7.40705 11.5351 7.36988 11.5723 7.33271 11.5908C7.01672 11.8697 6.6078 12.0184 6.1617 12.0184C5.71561 12.0184 5.30669 11.8511 4.9907 11.5908C4.95353 11.5537 4.91635 11.5351 4.87918 11.4979C4.842 11.4607 4.80483 11.4236 4.78624 11.3864C4.50743 11.0704 4.35873 10.6615 4.35873 10.2154C4.35873 9.71352 4.56319 9.26743 4.87918 8.93286C5.21375 8.59828 5.65985 8.41241 6.1617 8.41241C6.6078 8.41241 7.01672 8.5797 7.33271 8.83992C7.36988 8.87709 7.40705 8.89568 7.44423 8.93286L8.72675 7.65033L8.61523 7.53881C8.28066 7.22282 7.89032 6.98119 7.44423 6.8139C7.03531 6.64661 6.6078 6.57227 6.14312 6.57227C5.80854 6.57227 5.49256 6.60944 5.19516 6.70238C5.08364 6.73955 4.97211 6.77673 4.86059 6.8139C4.37732 6.99977 3.93122 7.27858 3.57806 7.65033C3.2249 8.00349 2.92751 8.44959 2.74163 8.93286C2.70446 9.04438 2.66729 9.1559 2.63011 9.26743C2.55576 9.56483 2.5 9.88081 2.5 10.2154C2.5 10.6615 2.57435 11.1076 2.74163 11.4979C2.90892 11.9254 3.15056 12.3157 3.44795 12.6689L3.68959 12.9105C4.02416 13.2079 4.41449 13.4682 4.86059 13.6169C4.97211 13.654 5.08364 13.6912 5.19516 13.7284C5.49256 13.8027 5.80854 13.8585 6.14312 13.8585C6.47769 13.8585 6.79367 13.8213 7.09107 13.7284C7.20259 13.6912 7.31412 13.654 7.42564 13.6169C7.85315 13.4496 8.26207 13.2079 8.59664 12.892L8.70817 12.7804L9.50742 11.9812C8.89404 11.8139 8.39218 11.312 8.2249 10.6987Z" fill="url(#paint2_linear_246_57057)"/>
<path fill-rule="evenodd" clip-rule="evenodd" d="M8.94985 11.2378C9.1729 11.4609 9.4517 11.6096 9.7491 11.6653C9.54464 11.498 9.39594 11.275 9.28442 11.0519C9.17289 11.0891 9.04278 11.1635 8.94985 11.2378ZM10.6413 10.8846C10.7156 10.6988 10.7528 10.5129 10.7714 10.327H10.0651V10.7917C10.251 10.7731 10.4554 10.8103 10.6413 10.8846ZM10.6041 10.9776C10.4182 10.9218 10.251 10.8846 10.0465 10.8846V11.6653C10.2881 11.4794 10.474 11.2564 10.6041 10.9776ZM10.0465 10.1969H10.7714C10.7714 9.99245 10.7342 9.80658 10.6785 9.62071C10.474 9.69506 10.2695 9.73223 10.0465 9.73223V10.1969ZM10.7528 9.47201C10.8829 9.41625 11.013 9.3419 11.1246 9.24896C10.9015 8.97015 10.5855 8.80286 10.2324 8.7471C10.4554 8.95156 10.6413 9.1932 10.7528 9.47201ZM10.0465 9.62071V8.7471C10.3067 8.95156 10.5112 9.21179 10.6227 9.50918C10.4554 9.58353 10.251 9.62071 10.0465 9.62071ZM9.93497 9.62071V8.72852C9.67475 8.93298 9.47029 9.1932 9.34018 9.4906C9.54464 9.56495 9.73051 9.62071 9.93497 9.62071ZM10.8829 10.1969C10.8829 9.99245 10.8458 9.76941 10.79 9.56495C10.9387 9.50918 11.0688 9.41625 11.1989 9.32331C11.3848 9.58353 11.4777 9.88093 11.4777 10.1783L10.8829 10.1969ZM11.1432 11.1263C11.013 11.0333 10.8829 10.959 10.7528 10.9032C10.8272 10.7174 10.8643 10.5129 10.8829 10.3084H11.4591C11.4405 10.6244 11.329 10.9032 11.1432 11.1263ZM10.2324 11.6653C10.4368 11.4794 10.6041 11.275 10.7156 11.0148C10.8458 11.0705 10.9573 11.1263 11.0688 11.2192C10.8458 11.4609 10.5484 11.6096 10.2324 11.6653ZM9.09854 10.1969C9.09854 9.97387 9.13572 9.75082 9.21007 9.54636C9.07996 9.4906 8.94985 9.39766 8.81973 9.30472C8.63386 9.56495 8.52234 9.86234 8.52234 10.1969H9.09854ZM9.93497 10.1969H9.19148C9.19148 9.99245 9.22866 9.78799 9.28442 9.60212C9.48888 9.67647 9.69334 9.73223 9.91639 9.73223V10.1969H9.93497ZM9.24724 9.45342C9.11713 9.39766 9.00561 9.32331 8.89409 9.23037C9.11713 8.97015 9.41453 8.80286 9.7491 8.7471C9.52605 8.95156 9.35877 9.17461 9.24724 9.45342ZM9.93497 11.6839C9.69334 11.498 9.50747 11.275 9.37735 11.0148C9.56323 10.9404 9.7491 10.9032 9.93497 10.9032V11.6839ZM9.93497 10.7731V10.3084H9.21007C9.22866 10.5129 9.26583 10.6988 9.34018 10.8846C9.52605 10.8289 9.73051 10.7917 9.93497 10.7731ZM8.8755 11.1635C8.67104 10.9218 8.55951 10.643 8.54092 10.327H9.11713C9.13572 10.5501 9.17289 10.7545 9.24724 10.959C9.11713 10.9962 8.98702 11.0705 8.8755 11.1635Z" fill="#2E3191"/>
<defs>
<linearGradient id="paint0_linear_246_57057" x1="5.33242" y1="8.36936" x2="10.6869" y2="8.36936" gradientUnits="userSpaceOnUse">
<stop stop-color="#EC1C24"/>
<stop offset="1" stop-color="#2E3191"/>
</linearGradient>
<linearGradient id="paint1_linear_246_57057" x1="9.03408" y1="12.2169" x2="14.6164" y2="12.2169" gradientUnits="userSpaceOnUse">
<stop stop-color="#EC1C24"/>
<stop offset="1" stop-color="#2E3191"/>
</linearGradient>
<linearGradient id="paint2_linear_246_57057" x1="2.51478" y1="10.2063" x2="17.4843" y2="10.2063" gradientUnits="userSpaceOnUse">
<stop stop-color="#EC1C24"/>
<stop offset="1" stop-color="#2E3191"/>
</linearGradient>
</defs>
</svg>
