<svg width="30" height="30" viewBox="0 0 30 30" fill="none" xmlns="http://www.w3.org/2000/svg">
    <path d="M13.127 17.5H10.42a3.333 3.333 0 0 0-3.334 3.334V22.5" stroke="#DFDFDF" stroke-width="1.25" stroke-linecap="round" stroke-linejoin="round"/>
    <path d="M19.377 20.5a1.125 1.125 0 1 0 0-2.25 1.125 1.125 0 0 0 0 2.25z" fill="#DFDFDF" stroke="#DFDFDF" stroke-width="1.25" stroke-linecap="round" stroke-linejoin="round"/>
    <path d="M19.991 23.75h-1.195a.375.375 0 0 1-.347-.235l-.572-1.422a.375.375 0 0 0-.44-.223l-1.34.342a.375.375 0 0 1-.417-.174l-.563-.967a.375.375 0 0 1 .013-.397l.782-1.173a.375.375 0 0 0-.032-.457l-.705-.789a.375.375 0 0 1-.05-.429l.581-1.072a.375.375 0 0 1 .361-.197l1.428.118a.375.375 0 0 0 .371-.215l.575-1.243a.375.375 0 0 1 .341-.217h1.224a.375.375 0 0 1 .338.214l.592 1.247a.375.375 0 0 0 .371.213l1.313-.115a.375.375 0 0 1 .355.183l.627 1.064a.375.375 0 0 1-.06.458l-.775.765a.375.375 0 0 0-.036.494l.878 1.16a.375.375 0 0 1 .035.395l-.475.937a.375.375 0 0 1-.425.195l-1.382-.344a.375.375 0 0 0-.437.221l-.588 1.43a.375.375 0 0 1-.346.233z" stroke="#DFDFDF" stroke-width="1.25"/>
    <path d="M13.754 14.166a3.332 3.332 0 0 0 2.399-5.713 3.334 3.334 0 1 0-2.4 5.713z" stroke="#DFDFDF" stroke-width="1.25" stroke-linecap="round" stroke-linejoin="round"/>
</svg>
