<svg width="30" height="30" viewBox="0 0 30 30" fill="none" xmlns="http://www.w3.org/2000/svg">
    <path d="M14.997 19.515a1.743 1.743 0 1 0 0 3.485 1.743 1.743 0 0 0 0-3.485zm0 0v-2.018m-3.763-.06a1.743 1.743 0 1 0-2.982 1.805 1.743 1.743 0 0 0 2.982-1.805zm0 0 1.874-1.183m5.656 1.183-1.954-1.183m-1.807-5.08a1.743 1.743 0 1 0 0-3.485 1.743 1.743 0 0 0 0 3.485zm0 0v2.285m3.763-.207a1.743 1.743 0 1 0 2.982-1.806 1.743 1.743 0 0 0-2.982 1.806zm0 0-2.026 1.183m-5.504-1.184 1.954 1.184m3.756 1.07a1.992 1.992 0 1 1-3.983 0 1.992 1.992 0 0 1 3.983 0zm4.213 1.346a1.743 1.743 0 1 0-1.806 2.981 1.743 1.743 0 0 0 1.806-2.981zM8.84 13.838a1.743 1.743 0 1 0 1.806-2.982 1.743 1.743 0 0 0-1.806 2.982z" stroke="#D1D5DB" stroke-width="1.2" stroke-miterlimit="10"/>
</svg>
