<svg width="20" height="20" viewBox="0 0 20 20" fill="none" xmlns="http://www.w3.org/2000/svg">
    <path d="M13.332 3.333h1.667A1.667 1.667 0 0 1 16.665 5v11.667A1.667 1.667 0 0 1 15 18.333h-10a1.667 1.667 0 0 1-1.667-1.666V5a1.667 1.667 0 0 1 1.667-1.667h1.666" stroke="#D1D5DB" stroke-width="1.2" stroke-linecap="round" stroke-linejoin="round"/>
    <path d="M12.501 1.667h-5a.833.833 0 0 0-.833.833v1.667c0 .46.373.833.833.833h5c.46 0 .834-.373.834-.833V2.5a.833.833 0 0 0-.834-.833z" stroke="#D1D5DB" stroke-width="1.2" stroke-linecap="round" stroke-linejoin="round"/>
</svg>
