<svg width="12" height="12" viewBox="0 0 12 12" fill="none" xmlns="http://www.w3.org/2000/svg">
    <path d="M1.356 5.598v2.32c0 2.32.93 3.25 3.25 3.25H7.39c2.32 0 3.25-.93 3.25-3.25v-2.32" stroke="#DFDFDF" stroke-linecap="round" stroke-linejoin="round"/>
    <path d="M6 5.999c.946 0 1.643-.77 1.55-1.716L7.21.832H4.796L4.45 4.283C4.357 5.23 5.055 6 6 6z" stroke="#DFDFDF" stroke-linecap="round" stroke-linejoin="round"/>
    <path d="M9.26 5.999c1.044 0 1.809-.848 1.706-1.886l-.145-1.421c-.186-1.343-.703-1.86-2.056-1.86H7.189l.361 3.622c.088.852.858 1.545 1.71 1.545zM2.714 5.999c.853 0 1.623-.693 1.705-1.545l.114-1.142.248-2.48H3.205c-1.353 0-1.87.517-2.056 1.86l-.14 1.42C.906 5.153 1.671 6 2.714 6zM6 8.582c-.862 0-1.291.429-1.291 1.292v1.291h2.583V9.874c0-.863-.429-1.292-1.292-1.292z" stroke="#DFDFDF" stroke-linecap="round" stroke-linejoin="round"/>
</svg>
