<svg width="550" height="315" viewBox="0 0 550 315" fill="none" xmlns="http://www.w3.org/2000/svg">
<path d="M39.5075 311.513C39.5075 311.513 -49.3887 266 39.5144 198C99.1643 134.502 28.6357 43.923 109.607 11.0318C197.147 -24.5285 293.458 38.1025 330.107 28.4862C403.203 9.30448 495.918 18.7502 480.492 111.923C461.127 228.882 540.578 213.964 493.389 311.905L39.5094 311.515L39.5075 311.513Z" fill="url(#paint0_linear_12316_83203)"/>
<path d="M507.636 132.178C505.683 130.987 503.735 129.786 501.76 128.638C500.699 128.022 500.244 127.203 500.328 125.949C500.471 123.819 500.443 121.681 500.113 119.563C499.947 118.503 500.325 117.775 501.248 117.231C503.398 115.964 505.527 114.663 507.648 113.353C509.099 112.459 509.296 111.805 508.557 110.241C507.623 108.265 506.622 106.323 505.704 104.34C505.077 102.98 504.104 102.677 502.771 103.165C500.724 103.918 498.665 104.638 496.636 105.438C495.472 105.898 494.571 105.791 493.759 104.744C492.421 103.015 490.901 101.442 489.188 100.072C488.336 99.3902 488.208 98.5302 488.561 97.5483C489.179 95.8346 489.796 94.1241 490.411 92.4104C491.02 90.7124 490.798 90.0713 489.203 89.2582C487.306 88.292 485.378 87.382 483.462 86.4469C481.911 85.6902 481.265 85.8434 480.341 87.3006C479.287 88.9705 478.269 90.6655 477.268 92.3698C476.722 93.3016 475.982 93.6237 474.918 93.433C472.035 92.9201 469.127 92.8451 466.221 93.1515C465.348 93.2422 464.867 92.9545 464.455 92.2509C463.46 90.5435 462.414 88.8673 461.41 87.1631C460.742 86.031 459.859 85.6995 458.657 86.2937C456.56 87.3288 454.454 88.342 452.357 89.3802C451.122 89.9931 450.8 90.9469 451.312 92.2353C451.774 93.3955 452.145 94.59 452.613 95.7471C453.097 96.9479 452.816 97.836 451.742 98.5646C449.274 100.241 447.105 102.261 445.289 104.628C444.456 105.713 443.558 105.929 442.306 105.426C440.234 104.594 438.125 103.856 436.025 103.099C434.911 102.699 433.99 102.874 433.422 104.056C432.405 106.164 431.369 108.265 430.327 110.36C429.668 111.68 430.015 112.618 431.275 113.356C433.429 114.616 435.532 115.961 437.679 117.231C438.665 117.812 439.02 118.603 438.811 119.714C438.443 121.668 438.359 123.657 438.568 125.621C438.733 127.206 438.134 128.147 436.786 128.885C434.917 129.908 433.138 131.087 431.3 132.166C430.068 132.888 429.653 133.804 430.33 135.152C431.36 137.197 432.346 139.261 433.338 141.325C433.909 142.517 434.789 142.867 436.028 142.413C437.685 141.804 439.342 141.188 441.014 140.628C442.687 140.068 443.23 140.346 444.041 142.041C444.896 142.798 445.576 143.699 446.222 144.624C446.378 144.85 446.534 145.075 446.687 145.3C447.099 145.625 447.502 145.96 447.901 146.301C448.972 147.354 450.117 148.333 451.356 149.199C451.465 149.281 451.571 149.365 451.68 149.446C452.392 150.028 452.604 150.757 452.382 151.714C452.061 153.118 451.752 154.522 451.452 155.932C451.446 155.948 451.44 155.963 451.434 155.982C451.181 156.561 451.072 157.08 451.115 157.54C451.009 158.04 450.903 158.54 450.797 159.041C450.448 160.714 450.788 161.305 452.429 161.842C454.501 162.521 456.598 163.125 458.667 163.822C460.083 164.3 460.973 163.8 461.534 162.496C462.271 160.776 463.029 159.066 463.744 157.336C463.984 157.242 464.087 156.995 464.184 156.78C464.88 155.216 466.012 154.763 467.707 154.985C469.925 155.275 472.175 155.075 474.375 154.641C475.62 154.397 476.456 154.759 477.096 155.873C478.182 157.768 479.352 159.613 480.488 161.48C481.134 162.54 482.02 162.828 483.147 162.277C485.203 161.276 487.256 160.273 489.31 159.266C490.667 158.6 491.01 157.605 490.442 156.176C489.712 154.34 489.11 152.455 488.423 150.6C488.027 149.528 488.267 148.702 489.154 147.977C491.419 146.122 493.413 144.002 495.026 141.554C495.791 140.393 496.718 140.149 497.966 140.622C499.62 141.244 501.295 141.807 502.952 142.417C504.21 142.879 505.065 142.448 505.636 141.294C506.625 139.289 507.642 137.294 508.603 135.274C509.327 133.748 509.09 133.054 507.645 132.172L507.636 132.178ZM483.665 132.76C479.876 138.924 474.076 141.378 466.899 140.562C466.899 140.584 466.899 140.606 466.899 140.625C466.877 140.622 466.852 140.619 466.83 140.615C464.817 140.265 462.982 139.658 461.344 138.808C455.013 135.14 451.858 128.679 452.928 121.458C453.927 114.726 459.288 108.878 465.884 107.69C472.943 106.417 479.174 108.168 483.262 114.335C487.163 120.217 487.403 126.665 483.662 132.757L483.665 132.76Z" fill="#636363"/>
<path d="M107.114 220.141C120.095 220.141 133.076 220.147 146.057 220.147C146.3 221.156 146.988 221.287 147.859 221.069C148.29 220.946 148.281 220.59 148.296 220.246C153.828 220.213 159.356 220.177 164.887 220.15C167.479 220.138 170.071 220.165 172.663 220.141C173.57 220.132 174.22 220.249 174.193 221.407C174.172 222.428 174.031 223.272 172.756 223.122C171.125 222.934 171.173 223.951 171.173 225.083C171.185 249.54 171.182 273.996 171.182 298.453C171.182 300.063 170.365 300.869 168.73 300.869C146.054 300.869 123.376 300.866 100.7 300.863C100.679 300.515 100.634 300.168 100.643 299.824C100.984 288.037 101.801 276.277 102.813 264.532C103.624 255.119 104.489 245.711 105.387 236.307C105.902 230.913 106.53 225.529 107.108 220.141H107.114ZM122.044 272.766V272.772C120.948 272.772 119.856 272.766 118.76 272.775C118.365 272.778 117.853 272.763 117.769 273.242C117.539 274.568 117.542 275.915 117.769 277.238C117.859 277.75 118.386 277.836 118.853 277.836C120.942 277.842 123.031 277.842 125.121 277.836C125.818 277.836 126.192 277.522 126.306 276.786C126.863 273.194 126.515 272.766 122.939 272.766H122.044ZM121.984 241.377C117.177 241.47 117.674 240.578 117.641 245.086C117.635 246.127 118.147 246.484 119.116 246.463C120.355 246.436 121.595 246.466 122.834 246.457C126.692 246.427 126.276 246.947 126.327 242.781C126.339 241.781 126.009 241.308 124.959 241.365C123.971 241.419 122.977 241.377 121.984 241.374V241.377ZM147.323 226.127C148.012 226.175 148.637 226.145 148.629 225.193C148.62 224.2 148.123 223.796 147.156 223.778C146.273 223.76 146.093 224.212 146.081 224.975C146.066 225.879 146.441 226.253 147.326 226.13L147.323 226.127ZM157.446 226.142C158.455 226.088 159.308 226.325 159.347 225.152C159.38 224.23 158.817 224.089 158.102 224.134C157.413 224.176 156.536 223.882 156.515 225.101C156.5 226.008 157 226.184 157.443 226.145L157.446 226.142ZM168.482 226.121C169.254 226.127 169.963 226.229 169.972 225.149C169.978 224.224 169.464 224.086 168.745 224.134C168.102 224.176 167.315 223.921 167.27 225.041C167.231 226.041 167.767 226.199 168.482 226.121ZM163.256 224.137C162.514 224.107 161.864 224.122 161.888 225.17C161.912 226.256 162.648 226.109 163.328 226.127C164.007 226.145 164.591 226.127 164.609 225.167C164.627 224.113 163.983 224.107 163.259 224.14L163.256 224.137ZM152.427 224.134C151.747 224.119 151.152 224.134 151.134 225.092C151.116 226.13 151.753 226.136 152.493 226.133C153.226 226.133 153.866 226.139 153.854 225.095C153.84 223.999 153.1 224.152 152.427 224.131V224.134Z" fill="#575757"/>
<path d="M299.488 240.189C320.065 240.189 340.643 240.18 361.221 240.189C361.906 240.189 362.822 239.908 362.915 241.09C362.978 241.916 362.894 242.638 361.793 242.566C360.787 242.5 360.464 243.015 360.529 243.934C360.559 244.329 360.532 244.73 360.532 245.128C360.532 264.697 360.532 284.269 360.532 303.838C360.532 305.247 359.815 305.952 358.38 305.954C339.248 305.954 320.113 305.954 300.981 305.954C299.605 305.954 298.915 305.272 298.913 303.907C298.913 292.354 298.913 280.8 298.919 269.25C298.919 268.615 298.769 267.945 299.224 267.379C303.591 271.3 307.958 275.224 312.328 279.142C312.918 279.669 313.472 280.27 314.34 280.336C315.516 282.261 316.426 284.266 316.243 286.601C315.699 289.307 316.683 290.594 319.314 290.145C322.415 289.615 325.507 289.345 328.647 289.345C330.191 289.345 331.712 288.977 333.121 288.301C333.654 288.046 334.172 287.726 334.618 287.343C335.399 286.676 335.42 286.095 334.277 285.832C333.062 285.55 331.84 285.329 330.583 285.41C326.39 284.485 322.942 282.321 320.128 279.109C320.811 278.328 320.332 277.624 319.973 276.918C316.695 270.438 313.229 264.06 309.724 257.702C306.459 251.779 302.966 245.99 299.485 240.195L299.488 240.189ZM320.443 261.701C321.137 261.701 321.834 261.671 322.529 261.707C323.597 261.761 324.112 261.306 324.043 260.216C324.016 259.77 324.025 259.321 324.04 258.875C324.073 257.942 323.639 257.505 322.699 257.52C321.457 257.538 320.215 257.52 318.973 257.52C316.929 257.526 316.866 257.591 316.866 259.6C316.866 261.629 316.929 261.692 318.955 261.701C319.452 261.701 319.949 261.701 320.446 261.701H320.443Z" fill="#575757"/>
<path d="M121.091 152.288C120.313 150.666 119.792 150.399 118.188 150.935C116.581 151.471 114.994 152.06 113.405 152.644C112.22 153.081 111.376 152.743 110.825 151.602C109.873 149.627 108.927 147.651 107.94 145.694C107.287 144.401 107.688 143.527 108.87 142.833C110.633 141.8 112.342 140.672 114.132 139.693C115.428 138.986 116.003 138.085 115.841 136.568C115.644 134.685 115.722 132.785 116.075 130.914C116.275 129.851 115.934 129.094 114.988 128.537C112.929 127.322 110.912 126.035 108.846 124.829C107.637 124.123 107.305 123.225 107.937 121.962C108.936 119.956 109.933 117.948 110.906 115.927C111.453 114.796 112.333 114.628 113.402 115.011C115.416 115.736 117.44 116.442 119.427 117.238C120.627 117.72 121.489 117.514 122.289 116.475C124.031 114.206 126.111 112.276 128.478 110.671C129.508 109.974 129.777 109.124 129.313 107.975C128.867 106.867 128.508 105.724 128.065 104.613C127.574 103.38 127.88 102.467 129.068 101.881C131.076 100.887 133.1 99.9172 135.111 98.9265C136.266 98.3578 137.111 98.675 137.751 99.7586C138.715 101.387 139.718 102.994 140.672 104.628C141.067 105.302 141.531 105.58 142.366 105.49C145.153 105.197 147.946 105.269 150.708 105.76C151.729 105.939 152.438 105.634 152.962 104.742C153.923 103.111 154.899 101.489 155.91 99.8903C156.793 98.4925 157.416 98.3488 158.903 99.0731C160.741 99.9681 162.588 100.839 164.411 101.764C165.94 102.542 166.15 103.153 165.569 104.781C164.982 106.421 164.387 108.061 163.794 109.699C163.456 110.639 163.579 111.462 164.396 112.114C166.039 113.425 167.497 114.931 168.781 116.586C169.559 117.589 170.424 117.69 171.54 117.25C173.486 116.484 175.461 115.796 177.425 115.074C178.7 114.604 179.634 114.898 180.235 116.2C181.115 118.097 182.076 119.956 182.971 121.848C183.678 123.344 183.492 123.97 182.1 124.826C180.065 126.08 178.024 127.325 175.961 128.537C175.072 129.058 174.713 129.756 174.872 130.77C175.189 132.797 175.219 134.844 175.078 136.882C174.997 138.082 175.434 138.864 176.452 139.456C178.347 140.555 180.214 141.704 182.088 142.845C183.477 143.689 183.701 144.356 183.007 145.814C182.088 147.747 181.112 149.654 180.161 151.575C179.613 152.68 178.793 153.093 177.587 152.65C175.997 152.066 174.39 151.531 172.803 150.932C171.606 150.483 170.717 150.716 169.984 151.824C168.437 154.168 166.527 156.197 164.351 157.972C163.501 158.663 163.267 159.456 163.651 160.483C164.309 162.258 164.887 164.063 165.587 165.82C166.132 167.188 165.806 168.139 164.501 168.777C162.531 169.741 160.559 170.702 158.589 171.659C157.509 172.183 156.659 171.908 156.039 170.896C154.947 169.112 153.824 167.343 152.785 165.529C152.175 164.464 151.373 164.114 150.175 164.35C148.062 164.766 145.907 164.958 143.779 164.679C142.154 164.467 141.064 164.901 140.4 166.397C140.286 166.652 140.163 166.96 139.789 166.966C139.879 166.382 139.915 165.784 140.071 165.221C140.762 162.746 141.433 160.268 141.956 157.75C142.118 156.975 141.977 156.406 141.507 155.85C142.687 154.395 143.163 152.731 143.013 150.875C149.894 151.656 155.461 149.307 159.095 143.407C162.687 137.577 162.456 131.405 158.712 125.775C154.791 119.872 148.814 118.199 142.043 119.414C135.716 120.552 130.574 126.149 129.616 132.593C128.553 139.747 131.834 146.128 138.35 149.564C137.736 151.195 137.422 152.877 137.527 154.625C136.844 154.625 136.509 155.009 136.204 155.601C133.923 160.034 131.78 164.542 129.266 168.852C127.835 168.142 127.539 167.089 128.173 165.64C128.691 164.458 129.092 163.225 129.526 162.007C129.816 161.195 129.81 160.351 129.053 159.839C127.107 158.526 125.461 156.858 123.626 155.419C122.866 154.308 122.106 153.198 121.088 152.297L121.091 152.288Z" fill="#636363"/>
<path d="M107.114 220.14C106.536 225.528 105.907 230.912 105.393 236.306C104.495 245.71 103.63 255.118 102.819 264.531C101.807 276.276 100.99 288.036 100.648 299.823C100.64 300.167 100.684 300.514 100.705 300.862C100.373 303.244 100.891 305.627 100.717 308.012C98.5563 308.871 96.2845 308.976 94.0008 308.985C92.9023 306.234 92.6209 303.289 92.0313 300.428C90.427 292.624 88.9933 284.785 87.7511 276.917C87.7002 276.593 87.7691 276.198 87.1046 275.89C85.4554 286.719 83.438 297.402 83.0459 308.302C80.7203 309.045 78.3378 308.808 75.9612 308.724C74.9017 302.334 74.2222 295.896 73.5637 289.458C72.6927 280.933 71.9325 272.4 72.133 263.816C72.1989 260.969 72.4024 258.177 73.2884 255.42C73.9917 253.232 73.899 250.882 73.9199 248.599C74.0127 238.233 73.5787 227.886 72.8783 217.545C72.8334 216.899 72.8244 216.252 72.7975 215.605C73.2704 215.725 73.7373 215.878 74.2162 215.956C85.2189 217.725 96.2336 217.761 107.257 216.183C107.512 217.515 106.976 218.82 107.123 220.149L107.114 220.14Z" fill="#3E3E89"/>
<path opacity="0.5" d="M107 219.253C107 219.253 106.362 220.297 103.979 221.731C100.084 224.075 91.5297 227.453 73.4898 229C73.406 226.668 73.3314 224.484 73.2688 222.495C73.0404 215.379 72.424 214.149 72.4995 214L88.8159 208L104.542 213.286L107 215.5H107.5L107 219.253Z" fill="#30306E"/>
<path d="M107.248 216.176C96.2245 217.754 85.2098 217.718 74.2071 215.949C73.7282 215.871 73.2613 215.718 72.7883 215.599C71.4654 214.351 71.5731 212.755 71.7138 211.157C72.1119 206.739 73.1236 202.42 73.9527 198.077C75.0661 192.243 75.3714 186.341 75.7785 180.438C76.2454 173.71 78.17 167.353 81.0314 161.271C82.6118 157.915 85.4014 156.538 88.9841 156.493C92.079 156.718 95.1679 157.032 98.2778 156.975C100.235 157.308 102.202 157.592 104.147 157.984C105.764 158.31 107.347 158.846 108.568 159.998C109.361 160.747 109.924 160.669 110.732 160.037C113.665 157.745 116.644 155.512 119.613 153.267C120.083 152.911 120.597 152.611 121.091 152.285C122.109 153.186 122.869 154.297 123.63 155.407C121.271 158.613 118.724 161.669 116.108 164.665C115.755 165.069 115.243 165.458 115.94 166C119.077 168.445 122.187 170.929 125.542 173.084C126.174 173.488 126.653 173.354 127.024 172.707C127.766 171.414 128.52 170.13 129.269 168.84C131.783 164.53 133.926 160.022 136.207 155.59C136.512 154.997 136.847 154.614 137.53 154.614C138.945 154.731 140.205 155.365 141.51 155.841C141.983 156.401 142.121 156.966 141.959 157.742C141.436 160.262 140.762 162.737 140.074 165.212C139.915 165.775 139.882 166.374 139.792 166.957L139.798 166.919C139.774 166.957 139.727 167.002 139.733 167.032C139.75 167.116 139.792 167.191 139.825 167.272C137.961 170.95 136.856 174.97 134.707 178.523C133.282 180.878 131.747 183.12 129.481 184.781C128.736 185.326 128.038 185.485 127.125 185.284C121.474 184.054 115.922 182.477 110.442 180.639C107.416 179.268 104.24 178.206 101.453 176.335C101.184 176.152 100.828 175.889 100.502 176.17C100.184 176.44 100.379 176.817 100.457 177.149C101.259 180.54 102.232 183.884 103.788 187.011C105.345 190.139 107.239 193.037 109.927 195.341C110.107 195.835 110.002 196.323 109.882 196.808C109.436 197.389 109.46 197.984 109.819 198.595C109.858 199.999 109.876 201.402 109.586 202.788C109.173 203.264 109.179 203.758 109.511 204.273C109.547 205.278 109.58 206.287 109.307 207.272C108.948 207.544 108.939 207.843 109.239 208.17C109.251 208.975 109.283 209.78 109.014 210.558C108.766 210.726 108.706 210.92 108.93 211.157C108.793 212.279 108.64 213.399 108.52 214.524C108.433 215.344 108.002 215.868 107.254 216.167L107.248 216.176Z" fill="#4E4E98"/>
<path d="M314.342 280.331C313.474 280.265 312.92 279.667 312.331 279.137C307.961 275.219 303.594 271.295 299.227 267.374C296.284 264.477 293.36 261.561 290.589 258.496C289.691 257.503 289.613 258.73 289.442 259.179C287.488 264.348 285.557 269.526 283.645 274.71C282.887 276.76 281.986 278.76 281.477 280.897C281.142 281.651 280.813 282.409 280.472 283.16C280.122 283.932 280.107 284.917 279.122 285.288C278.942 285.279 278.766 285.27 278.586 285.261C276.626 285.042 274.779 284.435 273.001 283.603C271.876 283.028 272.007 282.064 272.133 281.038C273.04 273.567 274.004 266.105 275.518 258.724C275.548 258.583 275.509 258.431 275.503 258.284C275.937 256.434 276.371 254.584 276.805 252.735C277.443 250.768 278.08 248.805 278.721 246.838C278.918 246.231 278.927 245.809 278.095 246.177C277.673 246.317 277.23 246.413 276.835 246.605C271.681 249.098 266.428 251.295 260.714 252.163C260.382 252.214 260.169 252.373 260.053 252.678C252.348 252.687 244.647 252.723 236.943 252.693C234.958 252.687 233.737 251.499 233.139 249.673C232.531 247.823 232.19 245.919 232.103 243.971C231.858 238.425 233.118 233.121 234.68 227.865C238.05 227.64 241.424 227.416 244.794 227.191C244.755 228.308 245.336 228.517 246.371 228.517C260.675 228.49 274.982 228.508 289.287 228.523C289.93 228.523 290.571 228.613 291.214 228.664C294.18 232.358 296.805 236.293 299.49 240.188C302.971 245.982 306.464 251.771 309.73 257.694C313.235 264.052 316.701 270.433 319.978 276.91C320.334 277.617 320.816 278.32 320.134 279.101C318.329 280.104 316.311 280.098 314.342 280.328V280.331Z" fill="#3E3E89"/>
<path d="M390.496 232.537L390.499 232.534C394.012 229.434 397.193 225.972 400.936 223.126C405.042 223.306 409.086 222.938 413.088 221.932C415.89 221.229 418.568 220.193 421.28 219.238C421.63 229.19 422.388 239.116 423.079 249.047C423.303 252.273 423.471 255.509 423.83 258.721C424.21 262.097 423.465 265.219 422.274 268.328C417.82 279.954 412.878 291.376 407.829 302.752C407.587 303.297 407.407 303.908 406.632 303.887C404.363 303.45 402.07 303.228 399.763 303.118C398.895 302.669 399.391 301.962 399.508 301.405C402.193 288.697 404.902 275.991 407.611 263.285C408.158 260.72 407.195 258.257 407.096 255.736C407.063 254.922 406.871 254.111 406.737 253.183C406.024 253.689 406.063 254.336 405.875 254.865C404.809 257.868 403.764 260.879 402.711 263.884C402.07 265.712 400.726 267.095 399.628 268.622C392.411 278.643 385.156 288.634 377.91 298.631C377.566 299.107 377.311 299.678 376.71 299.918C374.237 298.834 372.789 296.769 371.522 294.527C372.199 291.851 373.654 289.511 374.794 287.038C378.862 278.23 383.016 269.46 387.078 260.645C387.856 258.954 387.685 257.032 387.913 255.216C388.784 248.257 389.61 241.289 390.439 234.324C390.508 233.734 390.481 233.132 390.499 232.537H390.496Z" fill="#CADCFB"/>
<path d="M390.499 232.534C394.012 229.434 397.193 225.972 400.936 223.126C399.516 223.092 393.386 222.316 390.499 221.932V232.534Z" fill="#CADCFB"/>
<path d="M244.791 227.191C241.42 227.416 238.047 227.64 234.677 227.865C234.09 227.826 233.504 227.76 232.917 227.748C229.61 227.679 226.311 227.556 223.114 226.569C220.807 225.829 219.873 224.147 219.771 221.831C219.61 218.221 220.253 214.713 221.025 211.217C221.902 207.239 223.267 203.402 224.434 199.508C225.844 196.494 226.946 193.345 228.514 190.397C229.783 188.011 231.54 186.272 234.072 185.258C236.826 184.153 239.669 183.531 242.612 183.285C244.56 184.695 246.703 185.683 249.089 186.024C250.702 186.254 252.169 185.961 252.926 184.246C255.734 184.731 258.43 185.551 260.93 186.937C262.399 187.751 263.599 188.81 264.06 190.532C265.201 194.794 266.362 199.047 267.517 203.306C266.835 203.306 266.616 203.8 266.395 204.324C265.859 205.608 265.311 206.889 264.752 208.164C262.6 213.079 260.439 217.99 258.284 222.902C255.844 221.486 253.255 221.022 250.493 221.705C248.448 220.343 246.129 219.544 243.878 218.655C240.056 217.143 237.463 214.827 237.128 210.448C237.038 209.289 237.308 207.957 236.299 206.7C235.252 208.538 233.926 210.023 233.309 211.944C231.974 213.177 231.322 214.845 230.487 216.395C230.244 216.85 230.439 217.209 230.9 217.308C231.944 217.532 232.935 218.119 234.066 217.844C234.587 218.383 235.299 218.448 235.97 218.601C238.721 219.23 241.483 219.816 244.228 220.466C245.632 220.798 246.982 221.286 248.095 222.262C248.182 223.42 247.859 224.617 248.421 225.731C248.08 226.039 248.065 226.449 248.053 226.865C246.985 227.149 245.832 226.617 244.791 227.191Z" fill="#DB6142"/>
<path d="M423.663 185.157C422.867 186.366 421.975 186.674 420.454 186.163C418.018 185.339 415.746 186.085 413.846 187.833C406.524 194.57 399.209 201.311 391.888 208.045C391.634 208.279 391.34 208.467 391.065 208.677C391.032 202.9 391.032 197.126 390.951 191.35C390.924 189.512 390.697 187.677 390.532 185.845C390.505 185.531 390.571 185.064 390.11 184.998C389.793 184.953 389.619 185.289 389.443 185.525C388.76 186.444 387.976 187.309 387.422 188.3C386.728 189.539 385.95 189.721 384.86 188.874C382.531 187.231 380.149 185.672 377.653 184.292C376.889 183.807 376.566 183.322 377.144 182.364C379.853 177.896 382.642 173.493 386.039 169.494C388.191 166.962 390.772 165.318 394.091 164.798C396.249 164.459 398.365 163.849 400.577 163.867C401.978 166.833 403.57 169.679 405.908 172.029C406.569 172.693 407.327 173.454 408.362 173.059C409.365 172.676 409.482 171.637 409.625 170.697C409.984 168.362 409.568 166.058 409.338 163.747C415.516 163.693 418.853 165.965 421.05 171.724C422.699 176.046 423.277 180.577 423.66 185.148L423.663 185.157Z" fill="#3E3E89"/>
<path d="M244.791 227.194C245.833 226.619 246.982 227.152 248.054 226.867C250.439 226.936 252.822 227.041 255.204 226.811C256.656 227.272 257.087 226.421 257.239 225.221C257.868 224.575 258.054 223.731 258.281 222.905C260.439 217.993 262.597 213.081 264.749 208.166C265.309 206.891 265.857 205.61 266.392 204.326C266.611 203.802 266.832 203.312 267.515 203.309C277.075 203.327 286.638 203.348 296.198 203.365C297.892 203.368 299.586 203.416 301.277 203.351C302.436 203.306 302.654 203.632 302.187 204.7C300.074 209.531 298.009 214.383 295.929 219.229C294.77 221.926 293.6 224.62 292.462 227.328C292.202 227.948 291.948 228.514 291.214 228.672C290.571 228.624 289.927 228.532 289.287 228.532C274.983 228.517 260.676 228.499 246.371 228.526C245.333 228.526 244.755 228.316 244.794 227.2L244.791 227.194Z" fill="#BACBE4"/>
<path d="M242.608 183.287C239.666 183.535 236.819 184.158 234.068 185.259C231.536 186.274 229.779 188.013 228.51 190.398C226.942 193.346 225.84 196.495 224.431 199.509C222.368 198.704 220.854 197.357 220.249 195.169C220.049 194.448 219.716 194.208 218.974 194.343C217.771 194.562 216.586 194.409 215.463 193.921C212.772 192.757 212.213 189.575 214.338 187.555C214.658 187.249 215.023 186.992 215.32 186.753C215.424 186.408 215.188 186.34 215.038 186.247C211.848 184.25 211.776 181.066 214.909 178.935C217.181 177.39 219.74 177.217 222.374 177.543C223.658 177.701 224.933 177.947 226.217 178.07C230.162 178.45 232.955 176.648 234.284 172.888C234.969 170.955 235.212 168.92 235.577 166.914C236.858 159.88 243.712 155.705 250.39 157.863C251.399 158.189 252.497 158.545 253.117 159.342C254.52 161.146 256.571 161.404 258.513 161.79C260.387 162.164 261.351 163.334 261.662 164.948C262.228 167.878 261.473 170.641 260.013 173.215C259.8 172.9 259.89 172.55 259.875 172.206C259.803 170.518 259.797 168.809 259.097 167.222C258.432 165.717 258.184 165.651 256.846 166.573C253.536 168.857 250.133 170.898 245.888 170.7C245.35 170.677 245.044 170.838 244.966 171.404C244.82 172.487 244.562 173.559 244.703 174.666C245.107 177.806 244.248 180.644 242.605 183.287H242.608Z" fill="#FE7032"/>
<path d="M223.115 226.573C226.311 227.561 229.61 227.681 232.917 227.753C233.504 227.765 234.09 227.83 234.677 227.869C233.112 233.125 231.852 238.429 232.1 243.975C232.187 245.924 232.528 247.827 233.136 249.677C233.734 251.503 234.955 252.688 236.94 252.697C244.644 252.727 252.346 252.691 260.05 252.682C263.917 252.682 267.787 252.682 271.654 252.682C273.372 252.7 275.087 252.718 276.805 252.736C276.371 254.586 275.937 256.436 275.503 258.285C260.657 258.285 245.812 258.291 230.963 258.294C228.978 258.294 229.011 258.3 228.9 260.213C228.017 275.568 227.119 290.919 226.228 306.274C226.189 306.93 226.198 307.735 225.291 307.669C224.282 307.594 224.483 306.69 224.497 306.029C224.764 294.733 225.045 283.434 225.321 272.138C225.422 268.007 225.497 263.877 225.629 259.746C225.659 258.821 225.488 258.157 224.581 257.678C223.597 257.16 223.049 256.199 223.049 255.092C223.049 245.586 223.088 236.076 223.115 226.57V226.573Z" fill="#727272"/>
<path d="M244.491 141.907C242.71 138.283 240.064 135.544 236.61 133.374C230.962 129.821 228.954 122.901 231.345 116.385C233.41 110.764 239.771 106.855 245.712 107.558C252.686 108.381 257.748 113.344 258.544 120.088C258.864 122.79 258.55 125.457 257.218 127.768C255.153 131.348 254.296 135.134 254.347 139.196C253.653 139.363 252.959 139.534 252.264 139.701C252.641 134.73 253.402 129.77 252.884 124.751C252.581 124.993 252.501 125.278 252.357 125.526C252.144 125.9 252.546 126.738 251.74 126.619C251.112 126.526 251.064 125.852 251.061 125.281C251.058 124.535 251.097 123.781 251.004 123.045C250.911 122.311 250.729 121.321 249.834 121.405C248.831 121.497 248.625 122.509 248.729 123.383C248.816 124.113 249.1 124.823 249.331 125.529C249.46 125.924 249.603 126.301 249.22 126.622C248.822 126.954 248.388 126.858 247.957 126.669C247.311 126.388 247.152 125.858 247.155 125.209C247.161 124.314 247.215 123.41 246.856 122.557C246.637 122.036 246.389 121.485 245.706 121.611C245.072 121.731 245.114 122.32 245.084 122.817C245.018 123.85 245.335 124.79 245.829 125.67C246.383 126.657 246.02 127.502 245.47 128.304C245.221 128.669 244.775 128.753 244.395 128.546C243.521 128.07 242.884 127.412 242.965 126.304C242.985 126.008 243.003 125.7 242.947 125.409C242.833 124.829 242.713 124.239 242.504 123.688C242.363 123.32 242.037 122.991 241.57 123.132C241.157 123.257 241.199 123.67 241.178 124.015C241.121 125.074 241.246 126.092 241.785 127.044C242.246 127.861 241.962 128.795 241.363 129.199C240.702 129.645 240.585 128.585 240.19 128.232C240.004 128.064 239.864 127.855 239.513 128.028C239.361 128.349 239.525 128.66 239.687 128.965C241.66 132.704 243.635 136.442 245.616 140.174C245.799 140.522 246.029 141.003 246.49 140.782C247.104 140.486 246.676 139.989 246.49 139.636C245.431 137.609 244.335 135.604 243.261 133.584C242.887 132.883 242.489 132.189 242.195 131.452C241.845 130.578 242.21 129.734 242.701 129.07C243.198 128.396 243.65 129.214 244.099 129.378C245.042 129.728 245.844 129.543 246.296 128.699C246.766 127.822 247.293 127.436 248.292 127.741C248.598 127.834 248.99 127.738 249.316 127.636C251.543 126.96 252.39 127.777 252.138 130.103C251.788 133.359 251.615 136.631 251.363 139.899C249.127 140.77 246.781 141.252 244.482 141.904L244.491 141.907Z" fill="#575757"/>
<path d="M422.564 202.992C423.39 202.202 424.177 201.367 425.048 200.633C427.014 198.981 428.31 197.021 428.224 194.345C430.537 192.624 432.773 190.777 435.192 189.212C437.553 187.685 439.053 185.778 439.472 182.953C439.678 181.549 440.974 180.894 442.45 181.145C442.513 181.501 442.228 181.672 442.046 181.893C441.857 182.121 441.6 182.333 441.809 182.666C441.989 182.947 442.309 183.055 442.594 182.956C443.791 182.537 445.135 182.342 445.781 181.016C446.637 180.813 447.002 181.522 447.517 181.95C447.885 182.663 448.062 183.3 447.239 183.893C440.84 188.496 436.102 194.782 430.612 200.307C429.175 201.753 427.709 203.171 426.323 204.665C425.422 205.638 424.698 205.626 423.914 204.572C423.5 204.016 423.013 203.516 422.558 202.989L422.564 202.992Z" fill="#E7A496"/>
<path d="M422.564 202.992C423.39 202.202 424.177 201.367 425.048 200.633C427.014 198.981 428.31 197.021 428.224 194.345L423.5 185L418.5 184L417 193L422.564 202.992Z" fill="#E7A496"/>
<path d="M377.656 184.301C380.152 185.681 382.534 187.24 384.863 188.883C383.54 190.562 382.241 192.259 380.882 193.912C380.292 194.627 379.951 195.411 379.739 196.3C378.389 201.957 377.198 207.662 375.584 213.244C374.662 216.441 374.902 219.063 377.281 221.412C378.075 222.99 378.203 224.762 378.733 226.414C378.814 226.662 378.862 226.935 378.634 227.096C378.329 227.315 378.072 227.096 377.85 226.893C377.177 226.27 377.078 225.31 376.479 224.367C375.737 226.184 375.71 227.946 375.207 229.587C375.019 230.2 375.144 231.302 374.297 231.185C373.648 231.095 374.01 230.075 374.025 229.47C374.049 228.587 374.166 227.707 374.273 226.45C373.471 227.725 373.738 228.862 373.411 229.859C373.25 230.359 373.33 231.179 372.666 231.128C371.927 231.071 372.271 230.257 372.208 229.763C372.16 229.392 372.199 229.009 372.199 228.614C371.828 228.686 371.924 228.94 371.858 229.105C371.729 229.416 371.69 229.871 371.217 229.757C370.897 229.68 370.876 229.29 370.864 229C370.846 228.506 370.879 228.009 370.888 227.512C370.99 226.914 371.092 226.315 371.193 225.72C371.092 225.708 370.993 225.696 370.891 225.684C370.762 226.333 370.631 226.983 370.502 227.635C370.325 228.036 370.125 228.416 369.631 228.497C369.293 227.084 369.808 225.732 369.924 224.352C370.84 213.445 371.951 202.562 373.36 191.706C373.501 190.631 373.851 189.697 374.477 188.826C375.551 187.33 376.59 185.809 377.647 184.301H377.656ZM372.343 227.312C372.394 227.237 372.462 227.177 372.471 227.105C372.483 227.022 372.471 226.872 372.43 226.851C372.208 226.752 372.262 226.962 372.253 227.058C372.247 227.135 372.307 227.219 372.343 227.312Z" fill="#E7A496"/>
<path d="M90.2569 152.636C89.0627 152.316 88.1079 151.634 87.2698 150.745C85.019 148.347 83.3428 145.579 82.2264 142.517C80.4425 137.608 84.0372 132.798 89.2273 133.064C91.8792 133.199 94.5042 132.989 97.1351 132.756C98.922 132.597 99.1046 132.786 98.8472 134.504C98.6646 135.734 98.4132 136.955 98.1947 138.18C97.5512 140.406 95.1746 141.816 95.2764 144.405C95.2944 144.845 94.9082 144.899 94.5072 144.851C93.9205 144.776 93.1752 144.262 92.8609 145.207C92.6005 145.989 93.0705 146.554 93.6841 146.961C94.2138 147.312 94.2438 147.752 94.0223 148.251C93.2052 150.089 92.3102 151.864 90.2539 152.642L90.2569 152.636Z" fill="#FE7032"/>
<path d="M242.608 183.284C244.252 180.641 245.111 177.804 244.707 174.664C244.563 173.556 244.823 172.485 244.97 171.401C245.048 170.836 245.353 170.671 245.892 170.698C250.136 170.898 253.536 168.857 256.85 166.57C258.185 165.648 258.433 165.714 259.1 167.22C259.801 168.806 259.807 170.512 259.879 172.203C259.894 172.548 259.804 172.898 260.016 173.212L260.031 173.188C259.63 173.371 259.852 173.655 259.912 173.912C259.077 175.753 258.619 177.75 257.565 179.501C256.796 180.779 255.994 181.955 254.201 181.539C253.563 181.392 253.297 181.787 253.207 182.341C253.102 182.976 253.021 183.613 252.929 184.248C252.168 185.96 250.705 186.253 249.091 186.023C246.706 185.684 244.563 184.694 242.614 183.284H242.608Z" fill="#F9AA85"/>
<path d="M421.277 219.239C418.566 220.193 415.887 221.226 413.085 221.932C409.086 222.938 405.043 223.306 400.933 223.127C401.4 222.088 402.367 221.51 403.157 220.78C408.877 215.485 414.615 210.211 420.349 204.934C420.604 204.701 420.894 204.509 421.167 204.297C421.654 208.679 422.1 213.064 422.654 217.437C422.807 218.637 421.951 218.805 421.277 219.236V219.239Z" fill="#3E3E89"/>
<path d="M400.933 223.127C401.4 222.088 402.367 221.51 403.157 220.78C408.877 215.485 414.615 210.211 420.349 204.934C420.604 204.701 420.894 204.509 421.167 204.297L420.349 183.5L408 183L394.5 195.5L391 201.5L390.5 222L400.933 223.127Z" fill="#3E3E89"/>
<path d="M401.537 158.433C400.93 156.694 399.828 155.35 398.401 154.186C393.606 150.271 394.713 143.036 400.475 140.708C401.463 140.31 402.322 139.804 403.148 139.166C404.339 138.244 405.689 137.607 407.165 137.281C408.799 136.916 409.775 137.371 410.505 138.774C411.409 140.519 411.265 141.953 410.074 143.09C407.063 142.692 405.177 143.97 404.51 146.865C404.354 147.538 404.255 148.23 404.064 148.894C403.911 149.427 403.752 149.96 402.959 149.445C402.163 148.93 401.687 149.412 401.391 150.175C401.068 151.013 401.082 151.866 401.525 152.614C402.247 153.833 402.352 155.126 402.241 156.479C402.187 156.742 402.13 157.005 402.073 157.266C401.894 157.655 401.714 158.047 401.531 158.436L401.537 158.433Z" fill="#FE7032"/>
<path d="M402.244 156.475C402.354 155.122 402.25 153.829 401.528 152.611C401.085 151.863 401.07 151.013 401.394 150.171C401.687 149.408 402.166 148.926 402.962 149.441C403.755 149.956 403.917 149.423 404.067 148.89C404.255 148.226 404.357 147.538 404.512 146.861C405.18 143.964 407.066 142.689 410.077 143.087C412.28 146.463 412.768 150.18 412.36 154.107C412.097 156.646 411.118 158.495 408.335 158.863C406.132 158.507 403.965 158.061 402.244 156.475Z" fill="#F9AA85"/>
<path d="M310.616 169.024C310.616 164.343 310.661 159.662 310.586 154.983C310.565 153.708 310.969 153.382 312.19 153.421C314.614 153.499 314.614 153.433 314.614 155.917C314.614 164.98 314.62 174.041 314.597 183.104C314.597 183.678 314.989 184.603 314.082 184.744C313.025 184.909 311.882 185.064 310.855 184.612C310.415 184.418 310.622 183.795 310.622 183.364C310.61 178.584 310.616 173.804 310.616 169.024Z" fill="#636363"/>
<path d="M90.2564 152.642C92.3127 151.864 93.2076 150.089 94.0247 148.252C94.2462 147.752 94.2193 147.312 93.6865 146.962C93.0729 146.557 92.606 145.989 92.8634 145.208C93.1777 144.262 93.923 144.777 94.5096 144.851C94.9077 144.902 95.2938 144.848 95.2788 144.405C95.1771 141.816 97.5536 140.407 98.1971 138.18C100.029 141.921 100.631 145.881 100.277 150.003C100.226 150.607 99.996 151.254 99.3824 151.448C98.3288 151.783 98.272 152.505 98.3139 153.418C98.3648 154.603 98.2989 155.794 98.2809 156.979C95.1711 157.036 92.0822 156.719 88.9873 156.495C89.4423 155.22 90.0469 153.995 90.2564 152.639V152.642Z" fill="#F9AA85"/>
<path d="M273.001 283.602C274.779 284.434 276.626 285.038 278.586 285.26C277.793 288.591 276.629 291.824 276.117 295.233C275.704 297.978 275.803 300.573 277.368 302.967C274.98 302.186 273.142 300.65 271.621 298.708C269.813 296.397 268.685 293.667 267.099 291.222C267.167 291.153 267.23 291.039 267.311 291.022C271.331 290.171 272.154 286.879 273.004 283.602H273.001Z" fill="#E7A496"/>
<path d="M328.526 171.232C328.526 175.267 328.484 179.299 328.55 183.33C328.571 184.537 328.152 184.869 326.997 184.851C324.578 184.812 324.578 184.866 324.578 182.433C324.578 174.713 324.629 166.997 324.539 159.278C324.519 157.596 325.336 157.602 326.548 157.602C327.763 157.602 328.619 157.587 328.565 159.281C328.443 163.262 328.526 167.245 328.526 171.229V171.232Z" fill="#636363"/>
<path d="M109.926 195.357C107.238 193.052 105.344 190.152 103.787 187.027C102.231 183.896 101.258 180.556 100.456 177.165C100.378 176.829 100.183 176.455 100.501 176.186C100.83 175.904 101.183 176.168 101.452 176.35C104.242 178.221 107.415 179.284 110.441 180.655C110.33 184.968 110.222 189.281 110.103 193.594C110.085 194.183 109.986 194.77 109.926 195.36V195.357Z" fill="#3A3A7B"/>
<path d="M304.177 172.463C304.177 168.877 304.216 165.292 304.156 161.706C304.135 160.548 304.479 160.03 305.674 160.182C306.117 160.239 306.572 160.212 307.018 160.191C307.853 160.152 308.158 160.545 308.155 161.362C308.14 168.782 308.137 176.202 308.161 183.624C308.161 184.531 307.826 184.921 306.931 184.834C306.832 184.825 306.73 184.834 306.631 184.834C303.911 184.81 304.192 185.091 304.18 182.475C304.165 179.138 304.177 175.8 304.177 172.466V172.463Z" fill="#636363"/>
<path d="M376.886 307.929C377.206 308.54 377.817 308.612 378.394 308.764C379.119 308.956 379.837 309.168 380.406 309.692C380.81 310.063 380.953 310.539 380.777 311.048C380.609 311.533 380.133 311.437 379.75 311.437C377.062 311.446 374.375 311.425 371.69 311.455C371.007 311.464 370.681 311.177 370.564 310.551C370.546 310.453 370.507 310.36 370.489 310.264C369.771 306.139 368.706 302.111 367.029 298.262C366.503 297.049 366.706 296.283 368.092 295.957C369.008 295.741 369.897 295.415 370.795 295.137C371.396 296.651 371.953 298.187 372.615 299.674C373.878 302.509 374.913 305.463 376.886 307.932V307.929Z" fill="#DB6142"/>
<path d="M401.539 158.432C401.718 158.043 401.898 157.651 402.078 157.262C403.883 158.896 405.909 160.045 408.411 160.162C408.719 161.362 409.031 162.56 409.339 163.76C409.569 166.07 409.986 168.375 409.626 170.71C409.483 171.65 409.366 172.688 408.363 173.071C407.328 173.466 406.57 172.706 405.909 172.042C403.568 169.692 401.979 166.846 400.578 163.88C400.898 162.063 401.219 160.249 401.539 158.432Z" fill="#F9AA85"/>
<path d="M321.643 175.45C321.643 178.087 321.604 180.724 321.661 183.358C321.685 184.43 321.388 184.968 320.239 184.84C319.748 184.786 319.242 184.804 318.749 184.834C317.892 184.888 317.62 184.463 317.62 183.663C317.635 178.192 317.635 172.721 317.62 167.249C317.62 166.504 317.895 166.217 318.662 166.157C321.625 165.926 321.643 165.92 321.643 168.883C321.643 171.071 321.643 173.259 321.643 175.45Z" fill="#636363"/>
<path d="M47.9455 78.9836C44.243 79.0075 41.1451 75.9905 41.0972 72.3209C41.0493 68.5795 44.1502 65.3918 47.8467 65.3828C51.4983 65.3739 54.695 68.4687 54.7489 72.0665C54.8057 75.751 51.648 78.9596 47.9425 78.9836H47.9455ZM43.1176 72.27C43.1325 74.883 45.2427 76.9632 47.8886 76.9722C50.5256 76.9812 52.7405 74.7513 52.7016 72.1203C52.6656 69.5912 50.4268 67.3912 47.8916 67.3912C45.2337 67.3912 43.1026 69.5732 43.1176 72.27Z" fill="#787878"/>
<path d="M75.9574 308.723C78.3339 308.807 80.7164 309.043 83.0421 308.301C84.4189 311.054 87.0828 311.806 89.7317 312.554C90.5428 312.784 91.4138 312.817 92.1202 313.35C92.4315 313.587 92.8415 313.838 92.659 314.299C92.5003 314.691 92.0544 314.565 91.7221 314.568C88.3339 314.58 84.9457 314.577 81.5605 314.577C80.2645 314.577 78.9654 314.515 77.6754 314.595C76.5051 314.667 76.0591 314.095 75.9364 313.051C75.7688 311.608 75.8855 310.168 75.9603 308.726L75.9574 308.723Z" fill="#DB6142"/>
<path d="M93.9974 308.981C96.2842 308.972 98.553 308.867 100.714 308.008C102.202 310.935 104.976 311.872 107.874 312.593C108.745 312.809 109.651 312.899 110.334 313.566C110.54 313.77 110.825 313.964 110.711 314.308C110.612 314.605 110.307 314.56 110.071 314.563C105.09 314.566 100.109 314.563 95.1288 314.563C94.3626 314.563 94.1232 314.087 93.9915 313.437C93.6951 311.95 93.7909 310.465 93.9944 308.981H93.9974Z" fill="#DB6142"/>
<path d="M407.467 306.742C409.994 307.473 412.529 308.182 415.046 308.948C415.8 309.179 416.519 309.538 417.234 309.882C417.632 310.074 418.129 310.331 417.973 310.858C417.836 311.322 417.306 311.184 416.929 311.184C413.403 311.193 409.874 311.19 406.348 311.19C403.666 311.19 400.984 311.163 398.302 311.205C397.381 311.22 396.988 311.031 397.384 310.047C397.809 308.99 398.171 307.91 398.56 306.838C401.544 308.119 404.51 308.008 407.467 306.745V306.742Z" fill="#DB6142"/>
<path d="M252.267 139.705C252.962 139.537 253.656 139.367 254.351 139.199C254.707 140.899 255.09 142.578 254.988 144.35C254.925 145.458 254.458 146.182 253.486 146.487C251.92 146.978 250.331 147.424 248.723 147.733C247.353 147.996 246.431 147.239 245.952 145.982C245.437 144.635 244.976 143.267 244.491 141.908C246.79 141.255 249.137 140.774 251.372 139.903C251.672 139.837 251.968 139.771 252.267 139.702V139.705Z" fill="#787878"/>
<path d="M335.399 177.245C335.399 179.286 335.351 181.328 335.417 183.366C335.453 184.444 335.139 184.976 333.992 184.845C333.549 184.794 333.094 184.812 332.648 184.842C331.786 184.899 331.364 184.584 331.367 183.656C331.391 179.424 331.385 175.195 331.373 170.963C331.373 170.226 331.643 169.924 332.418 169.87C335.39 169.652 335.399 169.637 335.399 172.618C335.399 174.162 335.399 175.704 335.399 177.248V177.245Z" fill="#636363"/>
<path d="M267.096 291.222C268.682 293.67 269.811 296.397 271.619 298.708C273.139 300.65 274.977 302.186 277.365 302.967C278.159 303.814 278.629 304.861 279.17 305.864C279.38 306.256 279.649 306.699 279.341 307.118C278.991 307.594 278.422 307.453 277.955 307.346C276.563 307.022 275.42 306.226 274.354 305.316C273.828 304.864 273.298 304.394 272.87 303.853C270.742 301.171 268.485 298.633 265.983 296.274C263.714 294.137 264.193 292.545 267.093 291.219L267.096 291.222Z" fill="#2F3B62"/>
<path d="M279.122 285.289C280.104 284.918 280.122 283.933 280.472 283.161C280.813 282.41 281.142 281.653 281.478 280.898C281.87 289.408 281.995 297.92 282.136 306.436C282.145 307.052 282.13 307.744 281.301 307.753C280.511 307.759 280.397 307.079 280.358 306.469C280.107 302.293 279.87 298.118 279.628 293.939C279.46 291.057 279.29 288.172 279.122 285.289Z" fill="#727272"/>
<path d="M407.467 306.741C404.51 308.004 401.544 308.115 398.56 306.834C398.961 305.592 399.359 304.352 399.76 303.113C402.068 303.224 404.36 303.446 406.629 303.883C406.369 304.993 406.874 305.879 407.467 306.741Z" fill="#E7A496"/>
<path d="M376.887 307.927C374.911 305.46 373.879 302.503 372.616 299.669C371.954 298.181 371.398 296.646 370.796 295.131C371.038 294.927 371.278 294.724 371.52 294.523C372.783 296.768 374.232 298.834 376.704 299.914C376.576 302.59 376.683 305.26 376.887 307.927Z" fill="#E7A496"/>
<path d="M225.64 120.742C226.221 120.852 227.655 120.493 227.757 121.313C227.885 122.361 226.386 122.241 225.59 122.618C225.194 122.807 224.745 122.897 224.311 122.981C223.435 123.145 222.441 123.13 222.279 122.092C222.13 121.116 223.093 120.867 223.895 120.757C224.377 120.688 224.88 120.745 225.637 120.745L225.64 120.742Z" fill="#787878"/>
<path d="M226.626 108.063C227.943 108.416 229.233 109.213 230.313 110.335C230.69 110.727 230.52 111.17 229.981 111.134C228.451 111.032 226.907 110.874 225.641 109.865C225.291 109.587 225.012 109.195 225.192 108.698C225.395 108.132 225.886 108.054 226.626 108.063Z" fill="#787878"/>
<path d="M256.594 102.332C256.549 103.158 254.196 105.915 253.4 106.088C252.823 106.214 252.799 105.816 252.894 105.484C253.284 104.098 253.738 102.73 254.774 101.661C255.139 101.284 255.6 101.087 256.121 101.329C256.534 101.521 256.621 101.91 256.597 102.329L256.594 102.332Z" fill="#787878"/>
<path d="M259.968 115.644C259.672 115.665 259.325 115.716 259.154 115.428C258.906 115.009 259.316 114.806 259.555 114.599C260.465 113.824 261.519 113.261 262.602 112.782C263.231 112.504 263.934 112.519 264.291 113.213C264.674 113.962 264.117 114.453 263.545 114.761C262.438 115.359 261.187 115.461 259.965 115.641L259.968 115.644Z" fill="#787878"/>
<path d="M240.442 103.543C240.391 104.058 240.522 104.695 240.1 104.836C239.505 105.034 239.331 104.348 239.101 103.95C238.529 102.965 238.011 101.945 237.918 100.78C237.874 100.221 237.954 99.631 238.619 99.4754C239.256 99.3257 239.651 99.7567 239.888 100.278C240.37 101.337 240.274 102.504 240.442 103.546V103.543Z" fill="#787878"/>
<path d="M408.413 160.163C405.91 160.046 403.884 158.897 402.079 157.263C402.136 156.999 402.19 156.736 402.247 156.473C403.968 158.059 406.135 158.508 408.338 158.864C408.365 159.298 408.389 159.729 408.416 160.163H408.413Z" fill="#CE8E71"/>
<path d="M109.819 198.607C109.463 198 109.439 197.401 109.882 196.82C110.128 197.425 110.131 198.021 109.819 198.607Z" fill="#575757"/>
<path d="M109.508 204.285C109.179 203.774 109.17 203.277 109.583 202.801C109.828 203.31 109.795 203.803 109.508 204.285Z" fill="#575757"/>
<path d="M109.232 208.183C108.935 207.86 108.944 207.558 109.3 207.285C109.462 207.599 109.438 207.899 109.232 208.183Z" fill="#575757"/>
<path d="M108.924 211.165C108.703 210.929 108.76 210.734 109.008 210.566C109.116 210.785 109.077 210.982 108.924 211.165Z" fill="#575757"/>
<path d="M259.909 173.912C259.852 173.654 259.628 173.37 260.029 173.188C259.99 173.43 259.948 173.669 259.909 173.912Z" fill="#2F2D35"/>
<path d="M139.829 167.279C139.796 167.198 139.754 167.123 139.736 167.04C139.73 167.007 139.778 166.965 139.802 166.926C139.811 167.043 139.82 167.162 139.829 167.279Z" fill="#FCFDFE"/>
<path d="M122.043 272.766H122.938C126.518 272.766 126.865 273.194 126.305 276.785C126.191 277.519 125.817 277.833 125.12 277.836C123.031 277.842 120.941 277.842 118.852 277.836C118.385 277.836 117.858 277.749 117.769 277.237C117.538 275.914 117.535 274.567 117.769 273.242C117.853 272.766 118.364 272.781 118.759 272.775C119.855 272.763 120.947 272.772 122.043 272.772V272.766Z" fill="#787878"/>
<path d="M121.981 241.376C122.972 241.376 123.965 241.421 124.956 241.364C126.01 241.307 126.336 241.777 126.324 242.78C126.273 246.943 126.689 246.425 122.831 246.455C121.592 246.464 120.353 246.434 119.113 246.461C118.144 246.482 117.632 246.126 117.638 245.084C117.671 240.577 117.177 241.469 121.981 241.376Z" fill="#787878"/>
<path d="M79.2771 71.1205C80.1391 71.0995 80.8126 71.0307 80.8186 72.1172C80.8246 73.1169 80.3038 73.2486 79.5076 73.2246C78.7413 73.2007 78.011 73.2875 78.035 72.1262C78.0559 71.0666 78.6935 71.0756 79.2771 71.1205Z" fill="#575757"/>
<path d="M90.0553 71.0827C90.9862 70.96 91.2765 71.4 91.2526 72.277C91.2196 73.4772 90.3726 73.1959 89.6782 73.2468C88.8012 73.3096 88.43 72.9325 88.466 72.0375C88.5139 70.8463 89.3819 71.1426 90.0583 71.0827H90.0553Z" fill="#575757"/>
<path d="M58.6844 71.1168C59.4237 71.0719 60.0432 71.1168 60.0372 72.1704C60.0343 73.2359 59.3847 73.215 58.6454 73.221C57.8762 73.227 57.2896 73.1551 57.2776 72.1285C57.2626 71.027 57.9421 71.0929 58.6844 71.1168Z" fill="#575757"/>
<path d="M63.8871 73.235C63.046 73.2948 62.3995 73.199 62.4145 72.1066C62.4295 71.0679 63.0849 71.059 63.8123 71.0769C64.4887 71.0949 65.231 70.9333 65.252 72.0347C65.2699 73.0674 64.7491 73.3218 63.8871 73.232V73.235Z" fill="#575757"/>
<path d="M146.11 88.0082C146.056 87.2061 146.074 86.5266 147.208 86.5566C148.217 86.5805 148.28 87.1702 148.286 87.9244C148.292 88.7236 148.283 89.3911 147.158 89.3611C146.149 89.3342 146.044 88.7715 146.11 88.0082Z" fill="#575757"/>
<path d="M84.7576 73.2337C83.9375 73.2696 83.3089 73.2157 83.2879 72.1861C83.267 71.0367 84.0033 71.0906 84.7785 71.0696C85.5807 71.0487 86.1224 71.2073 86.0985 72.201C86.0745 73.2337 85.44 73.2815 84.7546 73.2337H84.7576Z" fill="#575757"/>
<path d="M115.838 73.2042C115.096 73.261 114.503 73.1862 114.503 72.1476C114.503 71.0731 115.162 71.109 115.892 71.106C116.638 71.103 117.275 71.112 117.263 72.1685C117.251 73.2251 116.608 73.2371 115.838 73.2042Z" fill="#575757"/>
<path d="M141.816 71.1226C142.681 71.0658 143.292 71.1346 143.277 72.1732C143.262 73.2268 142.603 73.1969 141.873 73.2148C141.098 73.2328 140.529 73.1639 140.541 72.1283C140.553 71.0658 141.166 71.0478 141.816 71.1196V71.1226Z" fill="#575757"/>
<path d="M126.327 73.2041C125.566 73.249 124.938 73.2041 124.929 72.1655C124.92 71.1179 125.557 71.103 126.306 71.106C127.039 71.106 127.694 71.088 127.688 72.1476C127.685 73.1772 127.087 73.258 126.33 73.2041H126.327Z" fill="#575757"/>
<path d="M148.263 93.1644C148.341 94.0743 148.137 94.6669 147.107 94.6819C146.036 94.6999 146.117 93.9875 146.099 93.2811C146.078 92.476 146.117 91.8354 147.236 91.8594C148.278 91.8803 148.326 92.47 148.263 93.1614V93.1644Z" fill="#575757"/>
<path d="M100.265 71.1242C101.052 71.0733 101.678 71.1242 101.633 72.1688C101.591 73.1775 100.948 73.1984 100.214 73.2194C99.4271 73.2433 98.8824 73.1146 98.8943 72.1179C98.9093 71.0553 99.5798 71.0942 100.268 71.1242H100.265Z" fill="#575757"/>
<path d="M95.1644 73.1961C94.3114 73.253 93.7217 73.2051 93.7128 72.1635C93.7038 71.1129 94.3024 71.095 95.0477 71.1009C95.778 71.1069 96.4155 71.08 96.4066 72.1426C96.3976 73.1602 95.8558 73.2859 95.1644 73.1931V73.1961Z" fill="#575757"/>
<path d="M105.469 73.2033C104.703 73.2692 104.158 73.1435 104.155 72.1348C104.152 71.0722 104.802 71.1171 105.52 71.1022C106.278 71.0872 106.855 71.1411 106.843 72.1737C106.828 73.2123 106.227 73.2482 105.469 73.2033Z" fill="#575757"/>
<path d="M69.0053 73.2028C68.242 73.2777 67.7092 73.14 67.7092 72.1313C67.7092 71.0628 68.3588 71.1136 69.0801 71.1017C69.8374 71.0897 70.415 71.1376 70.3971 72.1762C70.3791 73.2298 69.7655 73.2388 69.0053 73.2028Z" fill="#575757"/>
<path d="M121.286 73.2334C120.418 73.2574 119.753 73.2903 119.726 72.2397C119.705 71.3119 120.103 71.0245 120.956 71.0664C121.702 71.1023 122.456 70.9796 122.438 72.141C122.423 73.0988 121.962 73.3442 121.286 73.2334Z" fill="#575757"/>
<path d="M131.369 71.1077C132.162 71.1137 132.874 70.9909 132.889 72.0864C132.901 73.0682 132.413 73.2507 131.599 73.2148C130.899 73.1849 130.208 73.2986 130.184 72.2151C130.166 71.2274 130.657 71.0269 131.366 71.1047L131.369 71.1077Z" fill="#575757"/>
<path d="M146.111 77.5398C146.075 76.6988 146.087 76.0642 147.129 76.0522C148.224 76.0403 148.266 76.6988 148.284 77.5009C148.302 78.3121 148.126 78.791 147.153 78.782C146.132 78.773 146.039 78.2013 146.111 77.5398Z" fill="#575757"/>
<path d="M148.272 82.7622C148.311 83.5254 148.188 84.0941 147.189 84.1181C146.03 84.145 146.117 83.4147 146.093 82.6485C146.066 81.8224 146.282 81.3734 147.246 81.3824C148.296 81.3943 148.305 82.0259 148.272 82.7592V82.7622Z" fill="#575757"/>
<path d="M110.813 71.1172C111.475 71.0933 112.004 71.21 112.01 72.1319C112.016 73.2782 111.262 73.1795 110.511 73.2154C109.706 73.2543 109.358 72.931 109.358 72.1019C109.358 71.0394 110.059 71.1022 110.813 71.1172Z" fill="#575757"/>
<path d="M136.733 73.2004C135.931 73.2782 135.378 73.1316 135.384 72.1199C135.39 71.1681 135.937 71.0783 136.653 71.1112C137.296 71.1411 137.976 71.0364 138.012 72.0391C138.044 72.9999 137.575 73.2752 136.733 73.1974V73.2004Z" fill="#575757"/>
<path d="M74.2782 71.1141C75.0085 71.0872 75.5263 71.2279 75.5233 72.1557C75.5233 73.2093 74.8529 73.1734 74.1255 73.2183C73.2097 73.2752 72.8924 72.8681 72.9133 71.9881C72.9373 70.9555 73.6586 71.1411 74.2782 71.1141Z" fill="#575757"/>
<path d="M146.062 71.3002C146.655 71.1625 147.25 71.1655 147.843 71.2972C147.843 71.9736 147.843 72.6501 147.843 73.3295C147.217 73.4462 146.58 73.6258 146.056 73.0601C146.056 72.4735 146.059 71.8898 146.062 71.3032V71.3002Z" fill="#575757"/>
<path d="M549.056 123.359C549.033 123.811 548.73 123.937 548.482 124.078C545.899 125.571 543.304 127.047 540.721 128.54C539.987 128.965 539.733 128.714 539.754 127.942C539.769 127.394 539.721 126.846 539.763 126.302C539.844 125.179 539.712 124.296 538.227 124.464C537.491 124.548 537.32 124.051 537.323 123.413C537.323 122.806 537.569 122.411 538.194 122.488C539.634 122.665 539.799 121.887 539.778 120.707C539.73 117.891 539.778 117.888 542.196 119.28C544.223 120.444 546.246 121.617 548.266 122.794C548.557 122.964 548.82 123.186 549.056 123.356V123.359Z" fill="#575757"/>
<path d="M527.961 124.604C527.168 124.616 526.417 124.706 526.42 123.547C526.423 122.428 527.123 122.44 527.905 122.446C528.674 122.449 529.395 122.398 529.404 123.529C529.413 124.676 528.692 124.631 527.958 124.604H527.961Z" fill="#575757"/>
<path d="M533.321 124.601C532.522 124.667 531.891 124.601 531.909 123.487C531.926 122.449 532.543 122.44 533.276 122.446C534.031 122.455 534.77 122.365 534.788 123.508C534.806 124.631 534.126 124.649 533.321 124.601Z" fill="#575757"/>
<path d="M522.639 124.601C521.876 124.622 521.154 124.7 521.157 123.542C521.16 122.548 521.678 122.428 522.459 122.44C523.276 122.455 524.055 122.377 524.025 123.596C524.001 124.637 523.351 124.628 522.636 124.601H522.639Z" fill="#575757"/>
<path d="M517.051 124.6C516.246 124.699 515.782 124.46 515.788 123.484C515.794 122.418 516.446 122.448 517.18 122.445C517.922 122.442 518.536 122.445 518.545 123.502C518.557 124.657 517.865 124.639 517.051 124.6Z" fill="#575757"/>
<path d="M366.611 124.621C366.082 124.662 365.432 124.582 365.465 123.477C365.501 122.322 366.279 122.474 367.016 122.445C367.839 122.412 368.467 122.513 368.449 123.597C368.428 124.785 367.614 124.579 366.611 124.621Z" fill="#575757"/>
<path d="M361.562 122.457C362.349 122.419 363.047 122.401 363.062 123.532C363.077 124.69 362.34 124.612 361.58 124.612C360.826 124.612 360.081 124.702 360.086 123.541C360.092 122.416 360.784 122.416 361.562 122.457Z" fill="#575757"/>
<path d="M356.443 122.456C357.275 122.358 357.712 122.69 357.679 123.615C357.646 124.56 357.164 124.896 356.275 124.95C355.159 125.018 355.135 124.288 355.072 123.513C354.985 122.471 355.653 122.408 356.443 122.453V122.456Z" fill="#575757"/>
<path d="M357.213 134.028C357.239 134.941 357.278 135.686 356.147 135.665C355.057 135.644 355.046 134.923 355.046 134.147C355.046 133.408 355.12 132.765 356.102 132.729C357.189 132.687 357.299 133.342 357.213 134.028Z" fill="#575757"/>
<path d="M372.271 124.601C371.538 124.622 370.883 124.658 370.856 123.601C370.826 122.374 371.595 122.452 372.415 122.44C373.193 122.431 373.717 122.527 373.723 123.536C373.729 124.703 373.011 124.622 372.271 124.601Z" fill="#575757"/>
<path d="M377.697 124.601C376.961 124.604 376.269 124.697 376.245 123.608C376.221 122.512 376.817 122.428 377.658 122.434C378.49 122.44 379.107 122.497 379.08 123.605C379.053 124.688 378.379 124.619 377.697 124.604V124.601Z" fill="#575757"/>
<path d="M382.935 124.599C382.18 124.644 381.582 124.566 381.558 123.536C381.531 122.357 382.276 122.447 383.048 122.441C383.788 122.435 384.434 122.417 384.437 123.485C384.44 124.626 383.743 124.632 382.935 124.599Z" fill="#575757"/>
<path d="M388.473 124.592C387.622 124.637 386.994 124.616 386.958 123.572C386.916 122.428 387.587 122.413 388.398 122.44C389.104 122.464 389.807 122.356 389.816 123.449C389.825 124.544 389.218 124.679 388.473 124.592Z" fill="#575757"/>
<path d="M393.707 122.451C394.422 122.445 395.141 122.329 395.168 123.427C395.195 124.511 394.599 124.63 393.746 124.621C392.923 124.612 392.279 124.561 392.3 123.451C392.321 122.361 393.016 122.445 393.707 122.454V122.451Z" fill="#575757"/>
<path d="M399.032 124.6C398.221 124.681 397.658 124.489 397.679 123.433C397.7 122.224 398.535 122.49 399.233 122.448C399.996 122.403 400.568 122.502 400.562 123.52C400.553 124.648 399.852 124.63 399.035 124.6H399.032Z" fill="#575757"/>
<path d="M404.621 124.601C403.797 124.619 403.064 124.667 403.052 123.514C403.043 122.47 403.657 122.422 404.417 122.443C405.165 122.464 405.952 122.314 405.938 123.508C405.923 124.511 405.363 124.655 404.621 124.598V124.601Z" fill="#575757"/>
<path d="M355.045 149.952C354.968 149.231 355.255 148.782 356.204 148.788C357.404 148.797 357.183 149.62 357.227 150.341C357.278 151.164 357.069 151.652 356.093 151.631C354.926 151.604 355.06 150.817 355.048 149.952H355.045Z" fill="#575757"/>
<path d="M410.02 124.602C409.194 124.62 408.466 124.674 408.451 123.536C408.436 122.53 408.984 122.396 409.762 122.45C410.448 122.498 411.301 122.198 411.334 123.413C411.364 124.458 410.828 124.688 410.02 124.599V124.602Z" fill="#575757"/>
<path d="M415.36 124.586C414.417 124.679 413.825 124.52 413.842 123.436C413.863 122.344 414.573 122.446 415.276 122.449C415.977 122.449 416.689 122.35 416.707 123.442C416.725 124.529 416.141 124.7 415.36 124.586Z" fill="#575757"/>
<path d="M357.215 128.867C357.263 129.636 357.23 130.325 356.125 130.322C355.087 130.322 355.042 129.651 355.102 128.936C355.156 128.251 354.973 127.389 356.14 127.365C357.272 127.344 357.245 128.071 357.215 128.864V128.867Z" fill="#575757"/>
<path d="M357.212 155.629C357.257 156.384 357.221 157.015 356.18 157.012C354.911 157.006 355.132 156.093 355.057 155.345C354.979 154.561 355.282 154.169 356.141 154.151C357.296 154.124 357.254 154.857 357.212 155.629Z" fill="#575757"/>
<path d="M355.171 144.879C355.135 144.154 355.132 143.493 356.195 143.49C357.266 143.487 357.23 144.157 357.227 144.888C357.224 145.615 357.266 146.297 356.195 146.297C355.126 146.297 355.138 145.63 355.171 144.879Z" fill="#575757"/>
<path d="M357.219 139.501C357.183 140.16 357.392 140.908 356.27 140.947C355.108 140.986 355.159 140.279 355.159 139.501C355.159 138.771 355.144 138.1 356.192 138.1C357.234 138.1 357.255 138.756 357.219 139.498V139.501Z" fill="#575757"/>
<path d="M355.455 159.769C356.404 159.541 357.086 159.592 357.113 160.876C357.14 162.175 356.536 162.412 355.455 162.13C355.455 161.343 355.455 160.556 355.455 159.769Z" fill="#575757"/>
<path d="M357.216 182.407C357.246 183.161 357.264 183.823 356.216 183.838C354.977 183.859 355.103 182.997 355.058 182.224C355.013 181.485 355.228 181.018 356.111 180.991C357.231 180.958 357.273 181.635 357.219 182.407H357.216Z" fill="#575757"/>
<path d="M345.441 226.142C344.791 226.094 343.998 226.354 343.971 225.223C343.941 224.089 344.657 224.113 345.444 224.113C346.228 224.113 346.937 224.086 346.904 225.223C346.875 226.357 346.093 226.1 345.441 226.142Z" fill="#575757"/>
<path d="M357.213 192.884C357.237 193.758 357.273 194.438 356.201 194.441C355.21 194.444 355.025 193.89 355.073 193.106C355.118 192.367 355.067 191.594 356.222 191.624C357.294 191.651 357.255 192.307 357.213 192.884Z" fill="#575757"/>
<path d="M340.163 226.129C339.496 226.105 338.745 226.3 338.712 225.189C338.676 224.013 339.433 224.115 340.19 224.109C340.915 224.103 341.582 224.067 341.573 225.135C341.561 226.207 340.888 226.156 340.166 226.132L340.163 226.129Z" fill="#575757"/>
<path d="M329.817 224.095C330.362 224.035 330.889 224.227 330.835 225.221C330.772 226.454 329.871 226.062 329.206 226.131C328.461 226.205 327.982 226.011 327.985 225.107C327.991 223.895 328.841 224.152 329.814 224.098L329.817 224.095Z" fill="#575757"/>
<path d="M324.015 226.133C323.282 226.166 322.615 226.189 322.615 225.124C322.615 223.906 323.456 224.154 324.165 224.115C324.943 224.07 325.521 224.181 325.485 225.208C325.443 226.33 324.674 226.106 324.015 226.136V226.133Z" fill="#575757"/>
<path d="M355.177 219.827C355.108 219.004 355.2 218.408 356.224 218.42C357.296 218.432 357.227 219.127 357.224 219.839C357.221 220.539 357.314 221.246 356.236 221.264C355.078 221.285 355.132 220.551 355.18 219.827H355.177Z" fill="#575757"/>
<path d="M318.574 226.126C317.852 226.18 317.227 226.132 317.236 225.093C317.245 224.01 317.963 224.106 318.661 224.112C319.343 224.118 320.085 223.977 320.106 225.072C320.13 226.24 319.361 226.144 318.574 226.126Z" fill="#575757"/>
<path d="M313.31 226.133C312.627 226.124 311.888 226.286 311.858 225.181C311.828 224.137 312.445 224.083 313.205 224.113C313.932 224.143 314.749 223.942 314.737 225.145C314.725 226.229 314.019 226.139 313.313 226.13L313.31 226.133Z" fill="#575757"/>
<path d="M308.083 226.136C307.245 226.127 306.515 226.276 306.482 225.181C306.446 224.001 307.215 224.121 307.967 224.109C308.703 224.097 309.352 224.097 309.343 225.145C309.332 226.216 308.64 226.151 308.086 226.133L308.083 226.136Z" fill="#575757"/>
<path d="M357.207 225.006C357.356 226.084 356.668 226.155 355.836 226.146C355.144 226.137 354.698 225.994 354.713 225.174C354.731 224.177 355.219 223.782 356.189 223.767C357.09 223.752 357.284 224.231 357.207 225.006Z" fill="#575757"/>
<path d="M334.785 224.117C335.531 224.075 336.147 224.114 336.162 225.144C336.177 226.225 335.501 226.141 334.794 226.141C334.031 226.141 333.304 226.213 333.343 225.057C333.382 223.953 334.13 224.15 334.788 224.117H334.785Z" fill="#575757"/>
<path d="M350.879 226.127C350.217 226.106 349.472 226.303 349.442 225.187C349.412 224.004 350.169 224.124 350.917 224.109C351.666 224.094 352.291 224.13 352.291 225.163C352.291 226.258 351.582 226.15 350.876 226.13L350.879 226.127Z" fill="#575757"/>
<path d="M357.218 187.632C357.185 188.288 357.389 189.036 356.278 189.078C355.138 189.12 355.153 188.434 355.159 187.65C355.165 186.923 355.144 186.258 356.185 186.255C357.215 186.252 357.263 186.884 357.218 187.635V187.632Z" fill="#575757"/>
<path d="M355.225 172.042C355.144 170.911 355.294 170.336 356.288 170.381C357.26 170.426 357.171 171.096 357.189 171.734C357.206 172.494 357.024 173.141 356.114 173.165C355.025 173.194 355.264 172.329 355.228 172.039L355.225 172.042Z" fill="#575757"/>
<path d="M357.183 198.32C357.207 199.045 357.165 199.646 356.216 199.658C355.294 199.667 355.18 199.128 355.189 198.407C355.198 197.734 355.168 197.132 356.153 197.132C357.078 197.132 357.225 197.629 357.183 198.32Z" fill="#575757"/>
<path d="M355.195 203.611C355.126 202.958 355.287 202.485 356.209 202.5C357.047 202.515 357.194 202.955 357.185 203.623C357.176 204.338 357.188 205.047 356.155 205.029C355.222 205.012 355.201 204.368 355.195 203.611Z" fill="#575757"/>
<path d="M355.447 165.128C356.013 165.035 356.683 164.763 357.036 165.391C357.345 165.945 357.345 166.681 357.048 167.232C356.707 167.866 356.022 167.576 355.459 167.501C355.456 166.708 355.453 165.918 355.447 165.125V165.128Z" fill="#575757"/>
<path d="M355.459 207.931C356.034 207.835 356.704 207.581 357.051 208.248C357.327 208.775 357.321 209.449 357.039 209.975C356.686 210.634 356.025 210.397 355.447 210.293C355.45 209.506 355.456 208.718 355.459 207.934V207.931Z" fill="#575757"/>
<path d="M355.285 177.184C355.321 176.496 355.216 175.756 356.198 175.768C357.296 175.78 357.021 176.648 357.111 177.286C357.221 178.073 356.916 178.561 356.096 178.558C355.057 178.555 355.386 177.708 355.285 177.184Z" fill="#575757"/>
<path d="M303.953 225.208C304.019 226.1 303.444 226.142 302.804 226.13C302.214 226.118 302.022 225.843 302.151 225.286C302.283 224.714 302.307 224.089 303.163 224.125C303.941 224.155 304.001 224.646 303.956 225.211L303.953 225.208Z" fill="#575757"/>
<path d="M355.455 213.288C356.539 213.016 357.143 213.249 357.113 214.554C357.081 215.838 356.407 215.898 355.452 215.665C355.452 214.872 355.455 214.078 355.458 213.288H355.455Z" fill="#575757"/>
<path d="M355.456 213.29C355.456 214.083 355.453 214.876 355.45 215.667C354.824 214.873 354.8 214.08 355.456 213.29Z" fill="#575757"/>
<path d="M355.459 207.933C355.456 208.72 355.45 209.507 355.447 210.291C354.836 209.501 354.785 208.714 355.459 207.933Z" fill="#575757"/>
<path d="M355.447 165.125C355.45 165.918 355.453 166.708 355.459 167.501C354.794 166.711 354.827 165.921 355.447 165.125Z" fill="#575757"/>
<path d="M355.455 159.772C355.455 160.559 355.455 161.347 355.455 162.134C354.809 161.347 354.815 160.559 355.455 159.772Z" fill="#575757"/>
<path d="M147.847 73.3273C147.847 72.6508 147.847 71.9744 147.847 71.295C148.505 71.9714 148.499 72.6478 147.847 73.3273Z" fill="#575757"/>
<path d="M146.062 71.3002C146.062 71.8868 146.059 72.4707 146.056 73.0573C145.47 72.4707 145.418 71.8838 146.062 71.3002Z" fill="#575757"/>
<path d="M148.272 214.792C148.335 215.546 148.2 216.106 147.191 216.1C146.051 216.097 146.09 215.372 146.099 214.597C146.108 213.894 146.024 213.176 147.093 213.161C148.29 213.143 148.299 213.918 148.272 214.792Z" fill="#575757"/>
<path d="M146.108 188.1C146.051 187.375 146.129 186.783 147.167 186.78C148.305 186.78 148.29 187.477 148.287 188.27C148.284 189.037 148.206 189.62 147.185 189.638C146 189.659 146.093 188.905 146.111 188.097L146.108 188.1Z" fill="#575757"/>
<path d="M146.117 204.029C146.03 203.197 146.189 202.673 147.177 202.652C148.317 202.625 148.284 203.32 148.284 204.101C148.284 204.867 148.182 205.436 147.189 205.451C146.051 205.469 146.054 204.774 146.117 204.029Z" fill="#575757"/>
<path d="M148.274 198.6C148.268 199.39 148.391 200.108 147.313 200.135C146.433 200.159 146.032 199.854 146.095 198.956C146.146 198.243 145.924 197.429 147.112 197.429C148.043 197.429 148.334 197.872 148.271 198.6H148.274Z" fill="#575757"/>
<path d="M206.248 226.126C205.464 226.144 204.698 226.258 204.722 225.078C204.743 223.983 205.476 224.118 206.162 224.112C206.859 224.106 207.577 224.01 207.589 225.096C207.598 226.135 206.973 226.18 206.251 226.126H206.248Z" fill="#575757"/>
<path d="M200.777 226.121C199.948 226.178 199.31 226.142 199.331 225.098C199.355 223.886 200.211 224.155 200.911 224.116C201.603 224.077 202.177 224.125 202.192 225.083C202.21 226.25 201.465 226.172 200.777 226.121Z" fill="#575757"/>
<path d="M173.944 226.127C173.172 226.16 172.423 226.232 172.456 225.067C172.486 223.972 173.232 224.128 173.908 224.113C174.62 224.098 175.312 224.041 175.315 225.112C175.318 226.16 174.674 226.175 173.941 226.127H173.944Z" fill="#575757"/>
<path d="M178.966 224.132C180.037 224.093 180.708 224.063 180.702 225.134C180.696 226.35 179.855 226.092 179.145 226.14C178.352 226.194 177.801 226.059 177.834 225.048C177.873 223.925 178.648 224.153 178.966 224.135V224.132Z" fill="#575757"/>
<path d="M184.674 226.13C183.911 226.169 183.174 226.217 183.21 225.065C183.243 223.963 183.997 224.137 184.671 224.119C185.383 224.101 186.075 224.053 186.075 225.121C186.075 226.172 185.419 226.172 184.677 226.13H184.674Z" fill="#575757"/>
<path d="M189.968 226.131C189.229 226.173 188.573 226.182 188.582 225.116C188.591 223.895 189.438 224.147 190.145 224.12C190.818 224.093 191.429 224.09 191.453 225.069C191.483 226.239 190.734 226.164 189.968 226.131Z" fill="#575757"/>
<path d="M195.435 226.132C194.773 226.106 194.004 226.315 193.968 225.205C193.935 224.196 194.501 224.064 195.285 224.109C195.994 224.151 196.832 223.912 196.832 225.121C196.832 226.174 196.168 226.162 195.435 226.129V226.132Z" fill="#575757"/>
<path d="M211.649 226.104C210.658 226.194 210.059 226.104 210.089 225.075C210.113 224.237 210.568 224.141 211.242 224.102C212.175 224.045 212.612 224.416 212.666 225.353C212.726 226.407 211.921 226.003 211.649 226.107V226.104Z" fill="#575757"/>
<path d="M147.858 221.069C146.987 221.291 146.298 221.156 146.056 220.147C146.301 219.671 145.951 218.887 146.753 218.711C148.031 218.429 148.283 219.112 148.073 220.183C147.855 220.444 147.846 220.752 147.858 221.069Z" fill="#575757"/>
<path d="M147.841 210.533C146.901 210.746 146.221 210.704 146.206 209.426C146.191 208.151 146.775 207.894 147.852 208.178C147.849 208.962 147.844 209.749 147.841 210.533Z" fill="#575757"/>
<path d="M147.846 194.72C146.861 194.957 146.233 194.84 146.203 193.562C146.173 192.218 146.933 192.266 147.843 192.377C147.843 193.158 147.843 193.936 147.846 194.717V194.72Z" fill="#575757"/>
<path d="M147.84 210.532C147.843 209.747 147.849 208.96 147.852 208.176C148.492 208.966 148.552 209.75 147.84 210.532Z" fill="#575757"/>
<path d="M147.847 194.721C147.847 193.94 147.847 193.161 147.844 192.38C148.547 193.158 148.514 193.94 147.847 194.721Z" fill="#575757"/>
<path d="M147.858 221.069C147.849 220.755 147.858 220.444 148.073 220.183C148.151 220.189 148.226 220.206 148.295 220.242C148.28 220.586 148.286 220.943 147.855 221.065L147.858 221.069Z" fill="#575757"/>
<path d="M147.323 226.125C146.437 226.251 146.063 225.877 146.078 224.97C146.09 224.206 146.273 223.754 147.153 223.772C148.122 223.793 148.619 224.197 148.625 225.188C148.634 226.14 148.009 226.17 147.32 226.122L147.323 226.125Z" fill="#575757"/>
<path d="M157.446 226.142C157.003 226.184 156.503 226.007 156.518 225.097C156.536 223.882 157.413 224.172 158.104 224.131C158.823 224.086 159.382 224.226 159.349 225.148C159.308 226.325 158.454 226.085 157.449 226.139L157.446 226.142Z" fill="#575757"/>
<path d="M168.481 226.119C167.766 226.197 167.23 226.038 167.269 225.038C167.314 223.916 168.101 224.173 168.745 224.132C169.463 224.084 169.978 224.221 169.972 225.146C169.963 226.227 169.257 226.125 168.481 226.119Z" fill="#575757"/>
<path d="M163.252 224.133C163.979 224.1 164.622 224.109 164.601 225.16C164.583 226.121 164 226.139 163.32 226.121C162.641 226.103 161.905 226.249 161.881 225.163C161.86 224.118 162.509 224.1 163.249 224.13L163.252 224.133Z" fill="#575757"/>
<path d="M152.423 224.129C153.096 224.15 153.836 223.997 153.85 225.092C153.862 226.137 153.222 226.128 152.489 226.131C151.752 226.131 151.112 226.128 151.13 225.089C151.148 224.132 151.743 224.117 152.423 224.132V224.129Z" fill="#575757"/>
<path d="M314.343 280.329C316.312 280.098 318.33 280.101 320.134 279.102C322.948 282.313 326.396 284.477 330.589 285.402C327.985 287.246 325.061 287.632 321.981 287.279C320.069 287.06 318.159 286.824 316.246 286.596C316.432 284.259 315.522 282.253 314.343 280.332V280.329Z" fill="#E7A496"/>
<path d="M316.246 286.602C318.158 286.829 320.068 287.066 321.98 287.284C325.06 287.637 327.984 287.251 330.589 285.407C331.846 285.326 333.067 285.551 334.282 285.829C335.425 286.093 335.404 286.676 334.623 287.341C334.177 287.721 333.656 288.041 333.127 288.299C331.717 288.975 330.196 289.343 328.652 289.343C325.512 289.343 322.42 289.61 319.319 290.142C316.688 290.591 315.701 289.304 316.248 286.599L316.246 286.602Z" fill="#2F3B62"/>
<path d="M320.443 261.705C319.946 261.705 319.449 261.705 318.952 261.705C316.923 261.696 316.863 261.633 316.863 259.604C316.863 257.596 316.929 257.53 318.97 257.524C320.213 257.521 321.455 257.542 322.697 257.524C323.637 257.509 324.071 257.946 324.038 258.88C324.023 259.326 324.014 259.775 324.041 260.221C324.11 261.31 323.595 261.765 322.526 261.711C321.832 261.675 321.134 261.705 320.44 261.705H320.443Z" fill="#787878"/>
<path d="M370.512 227.639C370.64 226.989 370.772 226.34 370.901 225.688C371.003 225.699 371.101 225.711 371.203 225.723C371.101 226.322 371 226.921 370.898 227.516C370.769 227.555 370.64 227.597 370.512 227.636V227.639Z" fill="#578CEE"/>
<path d="M138.352 149.558C131.839 146.122 128.555 139.743 129.618 132.587C130.576 126.143 135.718 120.545 142.045 119.408C148.816 118.19 154.793 119.866 158.714 125.768C162.455 131.399 162.686 137.57 159.097 143.401C155.463 149.3 149.899 151.65 143.018 150.869C142.835 150.103 142.698 149.321 142.461 148.573C142.021 147.178 141.306 146.927 140.163 147.813C139.504 148.322 138.953 148.971 138.352 149.555V149.558Z" fill="#3E3E3E"/>
<path d="M138.353 149.555C138.951 148.968 139.505 148.322 140.164 147.813C141.307 146.93 142.022 147.178 142.462 148.573C142.699 149.321 142.836 150.103 143.019 150.869C143.169 152.725 142.69 154.389 141.513 155.843C140.205 155.367 138.948 154.733 137.533 154.616C137.428 152.868 137.742 151.186 138.356 149.555H138.353Z" fill="#E7A496"/>
<path d="M271.65 252.681C267.783 252.681 263.913 252.681 260.046 252.681C260.163 252.375 260.375 252.217 260.707 252.166C266.421 251.295 271.674 249.101 276.828 246.608C277.223 246.416 277.669 246.32 278.088 246.18C276.46 248.859 274.129 250.843 271.65 252.681Z" fill="#2C2C6C"/>
<path d="M271.651 252.679C274.13 250.838 276.461 248.857 278.09 246.178C278.922 245.807 278.913 246.232 278.715 246.839C278.075 248.803 277.44 250.769 276.8 252.736C275.082 252.718 273.366 252.7 271.648 252.682L271.651 252.679Z" fill="#2C2C6C"/>
<path fill-rule="evenodd" clip-rule="evenodd" d="M25.9011 179.966C25.8072 180.452 25.7115 180.947 25.6137 181.455V181.44C23.8387 179.83 20.6121 178.92 18.7025 179.369L18.6581 179.379C17.9676 179.543 17.2411 179.716 17.206 180.563C17.1671 181.509 17.8615 181.919 18.6906 182.17C19.9459 182.551 21.2257 182.503 22.4997 182.454C22.7658 182.444 23.0317 182.434 23.297 182.428C25.6077 182.374 25.7364 182.461 25.476 184.786C25.4618 184.914 25.4282 185.04 25.3948 185.166C25.3506 185.332 25.3067 185.498 25.3084 185.663C25.3293 187.154 25.2665 188.477 23.1144 187.941C22.8162 187.868 22.432 188.082 22.0693 188.285C21.9587 188.347 21.8501 188.408 21.7465 188.459C20.0345 189.303 19.5466 190.964 19.0976 192.601C18.1997 195.876 18.8492 198.779 21.3425 200.479C21.6397 200.682 21.9309 200.896 22.2224 201.11C23.2109 201.836 24.2039 202.566 25.452 202.862C26.1225 203.02 26.3081 203.586 26.4278 204.221C26.8977 206.714 27.3676 209.207 27.9243 211.679C28.1732 212.79 28.4875 213.886 28.8016 214.981C28.9674 215.559 29.1331 216.137 29.2892 216.717C29.364 216.995 29.4538 217.351 29.0947 217.492C28.7504 217.63 28.5349 217.333 28.3943 217.079C28.3105 216.928 28.2528 216.762 28.1952 216.597C28.1376 216.432 28.08 216.266 27.9962 216.115C26.9187 214.182 25.6376 212.404 23.5843 211.425C21.9411 210.644 20.3517 211.751 20.4236 213.514C20.4954 215.274 24.9462 218.806 26.6822 218.48C26.781 218.462 26.8797 218.438 26.9665 218.39C28.0201 217.809 28.7295 218.315 29.4179 219.093C30.1722 219.946 30.6301 220.94 30.8187 222.024C31.0502 223.362 31.3349 224.69 31.6197 226.017C31.9499 227.557 32.2803 229.097 32.5278 230.656C32.7313 231.934 32.3781 232.512 31.3006 232.934C29.5646 233.616 28.3374 234.894 27.3018 236.403C26.787 237.151 26.6463 237.893 26.8708 238.797C27.5218 241.413 29.3352 243.217 31.1357 245.008L31.2228 245.095C32.2374 246.106 32.9827 247.115 33.1982 248.611C33.3102 249.394 33.5441 250.166 33.7773 250.936C34.0799 251.935 34.3813 252.93 34.4134 253.939C34.5661 258.71 34.623 263.493 34.186 268.261C34.1231 268.929 34.0333 269.447 33.2072 269.453C32.5008 269.459 31.9441 269.345 31.7825 268.492C31.6671 267.882 31.4698 267.288 31.2733 266.696C31.2353 266.581 31.1973 266.466 31.1599 266.352C29.7801 262.143 27.8286 258.252 24.6828 255.062C24.554 254.931 24.4214 254.782 24.2847 254.628C23.6426 253.906 22.9097 253.082 22.0608 253.625C21.0988 254.239 21.5756 255.37 21.9842 256.339C22.046 256.485 22.1062 256.628 22.1596 256.765C23.713 260.758 25.7603 264.511 27.9004 268.21C28.493 269.231 28.2715 269.483 27.1761 269.471C24.6417 269.446 22.1074 269.452 19.5731 269.458C19.0664 269.459 18.5597 269.461 18.053 269.462C16.1404 269.465 16.0746 269.572 16.4966 271.419C16.9349 273.331 17.3765 275.242 17.8182 277.154C19.2583 283.387 20.6986 289.621 22.0249 295.879C22.3482 297.408 22.9378 297.971 24.3536 298.151L24.3622 298.152C29.6452 298.819 34.9222 299.485 40.25 298.746C40.909 298.655 41.5709 298.587 42.233 298.519C43.5467 298.384 44.8608 298.249 46.1525 297.932C46.787 297.777 47.1911 297.546 47.3497 296.822C48.3602 292.226 49.3838 287.634 50.4072 283.042C51.2875 279.092 52.1677 275.143 53.0396 271.192C53.4138 269.492 53.3569 269.462 51.558 269.462C50.5408 269.46 49.5236 269.458 48.5063 269.457C44.4383 269.449 40.3702 269.441 36.3021 269.48C35.1258 269.492 34.602 269.081 34.7846 267.92C34.9258 267.037 34.9688 266.148 35.0117 265.26C35.0407 264.661 35.0697 264.062 35.1288 263.466C35.4012 260.755 38.9181 258.752 41.4443 259.812C42.7373 260.351 44.0513 260.752 45.4311 261.003C50.3338 261.901 56.1734 258.513 57.8077 253.775C58.4123 252.024 57.9154 250.805 56.3291 249.875C54.588 248.853 52.7013 248.836 50.7822 248.817C50.6986 248.817 50.615 248.816 50.5314 248.815C46.1225 248.767 43.0546 250.832 41.0671 254.655C40.8956 254.984 40.7319 255.32 40.5683 255.655C39.6555 257.525 38.7459 259.389 36.4996 260.156C36.4436 260.175 36.3976 260.223 36.351 260.272C36.3255 260.298 36.2998 260.325 36.2722 260.348C36.2053 260.403 36.141 260.471 36.0762 260.539C35.8856 260.74 35.6909 260.945 35.4161 260.853C35.0218 260.722 35.0471 260.361 35.0703 260.029C35.0757 259.953 35.0809 259.879 35.0809 259.809C35.0767 258.422 35.0784 257.036 35.08 255.649C35.083 253.05 35.0861 250.451 35.051 247.851C35.039 246.834 35.467 246.438 36.3799 246.247C37.9423 245.918 39.4838 245.529 40.8965 244.729C43.4347 243.296 44.3386 240.892 43.1803 238.174C41.6029 234.472 39.1575 231.889 34.7367 232.089C33.8477 232.128 33.4018 231.796 33.2371 230.85C32.3931 225.995 31.3994 221.174 29.8429 216.486C29.5736 215.669 29.5855 214.795 29.825 213.975C29.8475 213.898 29.87 213.821 29.8924 213.743C30.4594 211.789 31.0315 209.817 33.8388 210.18C34.1949 210.225 34.6259 210.006 34.9612 209.809C37.4515 208.33 39.5227 206.432 40.7289 203.736C41.585 201.82 40.5673 200.21 38.4601 200.099C35.045 199.922 30.6271 203.721 30.3099 207.121C30.3019 207.205 30.291 207.293 30.2798 207.383C30.232 207.767 30.1803 208.182 30.3428 208.447C31.0754 209.638 30.567 210.566 30.0572 211.496C29.9151 211.756 29.7729 212.015 29.6574 212.281C29.5556 212.511 29.4359 212.757 29.1396 212.724C28.8708 212.694 28.8254 212.47 28.7832 212.262C28.7756 212.225 28.7681 212.188 28.7594 212.152C28.6518 211.705 28.5484 211.256 28.4449 210.807C28.2577 209.996 28.0705 209.184 27.8585 208.378C27.0533 205.331 26.5774 202.344 29.0947 199.773C29.2481 199.615 29.3437 199.397 29.4378 199.183C29.4667 199.117 29.4954 199.052 29.5257 198.989C30.4386 197.103 31.0761 195.196 29.9657 193.155C29.7472 192.754 29.5586 192.272 29.8489 191.877C30.681 190.751 31.6837 189.797 32.86 189.012C33.4248 188.636 33.8795 188.843 34.3348 189.05C34.5382 189.143 34.7417 189.235 34.9552 189.276C35.3383 189.351 35.7573 189.372 36.1435 189.312C38.535 188.947 40.3518 187.546 41.9142 185.846C42.7403 184.948 42.2075 183.64 41.0851 183.394C38.4033 182.805 34.4703 184.9 33.5155 187.405C33.4167 187.669 33.2312 187.956 33.0037 188.1C31.9351 188.764 31.0372 189.62 30.1452 190.491C29.828 190.799 29.4449 191.081 28.948 190.97C28.1279 190.784 26.1345 188.174 26.0926 187.294C25.9771 184.892 26.295 182.526 26.6125 180.162C26.6654 179.769 26.7182 179.376 26.769 178.983C27.0025 177.16 28.8702 175.651 30.7858 175.594C31.4241 175.575 32.0624 175.58 32.7007 175.585C33.3584 175.59 34.0161 175.595 34.6738 175.573C35.6676 175.543 36.7391 175.304 36.772 174.128C36.8079 172.933 35.7394 172.667 34.7487 172.613C33.0905 172.523 31.4832 172.903 29.8908 173.305C29.2683 173.463 28.8313 173.843 28.8013 174.556C28.7804 175.068 28.7145 175.696 28.074 175.651C27.5033 175.612 27.5486 175.184 27.5904 174.789C27.6032 174.668 27.6157 174.55 27.6101 174.448C27.4874 172.209 26.6942 170.374 24.5661 169.366C23.3868 168.806 22.2195 168.803 21.3485 169.967C20.681 170.862 20.9953 172.389 21.9022 173.349C22.8749 174.382 24.138 174.628 25.4401 174.669C26.4218 174.699 26.8348 175.07 26.6523 176.037C26.412 177.322 26.1636 178.608 25.9011 179.966ZM34.3506 250.138C33.7071 248.881 33.4826 248.007 33.7579 246.69L33.7596 246.692C33.486 248.008 33.7129 248.878 34.3513 250.132C34.351 250.134 34.3508 250.136 34.3506 250.138Z" fill="#636363"/>
<path d="M233.309 211.939C233.925 210.018 235.251 208.533 236.299 206.695C237.307 207.955 237.041 209.284 237.128 210.443C237.463 214.822 240.052 217.138 243.877 218.65C246.128 219.542 248.448 220.341 250.492 221.7C249.714 221.975 248.948 222.31 248.095 222.257C246.981 221.281 245.631 220.79 244.227 220.461C241.48 219.811 238.72 219.225 235.969 218.596C235.302 218.443 234.587 218.377 234.066 217.839C234.012 215.845 233.605 213.9 233.309 211.939Z" fill="#B0492F"/>
<path d="M248.092 222.261C248.948 222.315 249.711 221.977 250.489 221.705C253.252 221.022 255.838 221.486 258.28 222.902C258.053 223.728 257.864 224.572 257.238 225.218C256.385 224.467 255.482 223.964 254.347 224.659C252.402 225.18 250.492 225.901 248.418 225.733C247.855 224.62 248.178 223.423 248.092 222.264V222.261Z" fill="#E7A496"/>
<path d="M233.31 211.941C233.603 213.902 234.01 215.85 234.067 217.841C232.935 218.116 231.948 217.53 230.9 217.305C230.442 217.206 230.245 216.847 230.487 216.392C231.319 214.842 231.972 213.175 233.31 211.941Z" fill="#575757"/>
<path d="M248.419 225.731C250.49 225.898 252.4 225.18 254.348 224.656C254.663 225.363 255.171 225.988 255.204 226.805C252.822 227.039 250.439 226.934 248.054 226.862C248.063 226.446 248.081 226.036 248.422 225.728L248.419 225.731Z" fill="#B0492F"/>
<path d="M255.205 226.804C255.172 225.987 254.663 225.361 254.349 224.655C255.483 223.96 256.387 224.463 257.24 225.214C257.084 226.415 256.656 227.265 255.205 226.804Z" fill="#DB6142"/>
<path d="M252.269 139.701C251.969 139.767 251.673 139.833 251.374 139.902C251.622 136.636 251.799 133.362 252.149 130.105C252.397 127.779 251.55 126.962 249.326 127.639C249 127.737 248.608 127.833 248.303 127.743C247.303 127.441 246.776 127.827 246.306 128.701C245.851 129.545 245.052 129.728 244.109 129.381C243.66 129.216 243.209 128.399 242.712 129.072C242.218 129.74 241.853 130.581 242.206 131.455C242.499 132.188 242.9 132.883 243.271 133.586C244.346 135.603 245.441 137.612 246.501 139.638C246.684 139.991 247.112 140.488 246.501 140.784C246.037 141.006 245.81 140.524 245.627 140.177C243.646 136.441 241.67 132.706 239.698 128.968C239.539 128.665 239.371 128.354 239.524 128.031C239.877 127.854 240.015 128.067 240.2 128.234C240.593 128.59 240.709 129.647 241.374 129.201C241.972 128.8 242.26 127.866 241.796 127.046C241.257 126.094 241.131 125.077 241.188 124.017C241.206 123.673 241.167 123.26 241.58 123.134C242.047 122.99 242.373 123.32 242.514 123.691C242.727 124.241 242.843 124.831 242.957 125.412C243.014 125.699 242.996 126.01 242.975 126.307C242.894 127.414 243.532 128.073 244.406 128.549C244.789 128.758 245.232 128.671 245.48 128.306C246.031 127.501 246.393 126.66 245.839 125.672C245.349 124.795 245.028 123.852 245.094 122.82C245.127 122.326 245.082 121.733 245.717 121.614C246.399 121.485 246.648 122.039 246.866 122.559C247.225 123.415 247.171 124.316 247.165 125.211C247.162 125.861 247.321 126.391 247.968 126.672C248.399 126.86 248.833 126.956 249.231 126.624C249.614 126.307 249.47 125.927 249.341 125.532C249.111 124.825 248.827 124.116 248.74 123.385C248.635 122.511 248.845 121.497 249.844 121.407C250.739 121.326 250.922 122.314 251.015 123.047C251.107 123.784 251.068 124.538 251.071 125.283C251.071 125.855 251.122 126.528 251.751 126.621C252.556 126.741 252.155 125.903 252.367 125.529C252.508 125.28 252.592 124.996 252.894 124.753C253.409 129.773 252.649 134.732 252.275 139.704L252.269 139.701Z" fill="#787878"/>
<path d="M372.343 227.31C372.307 227.217 372.247 227.133 372.253 227.055C372.262 226.962 372.208 226.753 372.43 226.849C372.475 226.87 372.487 227.019 372.472 227.103C372.46 227.175 372.391 227.235 372.343 227.31Z" fill="#FBFCFD"/>
<path d="M43.1143 72.2733C43.0994 69.5765 45.2335 67.3975 47.8884 67.3945C50.4235 67.3945 52.6624 69.5915 52.6983 72.1237C52.7342 74.7516 50.5223 76.9815 47.8854 76.9755C45.2424 76.9665 43.1293 74.8863 43.1143 72.2733Z" fill="#313131"/>
<defs>
<linearGradient id="paint0_linear_12316_83203" x1="254" y1="169.5" x2="254.301" y2="311.905" gradientUnits="userSpaceOnUse">
<stop stop-color="#3D3D3D"/>
<stop offset="1" stop-color="#313131"/>
</linearGradient>
</defs>
</svg>
