<svg width="12" height="12" viewBox="0 0 12 12" fill="none" xmlns="http://www.w3.org/2000/svg">
    <path d="m3.091 2.413 2.392 1.248M6.014 1.12a1.063 1.063 0 0 0-1.063 0l-3.72 2.126a1.063 1.063 0 0 0-.53.92v4.25a1.063 1.063 0 0 0 .53.92l3.72 2.022a1.063 1.063 0 0 0 1.063 0l3.72-2.022a1.063 1.063 0 0 0 .531-.92V7.355" stroke="#DFDFDF" stroke-width=".957" stroke-linecap="round" stroke-linejoin="round"/>
    <path d="m.844 3.613 4.639 2.684.58-.336M5.483 11.5V6.291" stroke="#DFDFDF" stroke-width=".957" stroke-linecap="round" stroke-linejoin="round"/>
    <path d="m8.781 6.284-.992-.992.992-.992" stroke="#DFDFDF" stroke-linecap="round" stroke-linejoin="round"/>
    <path d="M7.988 5.28c.717.119 1.49.262 2.12-.099a2.097 2.097 0 0 0 .977-1.244 2.104 2.104 0 0 0-3.864-1.6" stroke="#DFDFDF" stroke-linecap="round" stroke-linejoin="round"/>
</svg>
