<svg width="16" height="16" viewBox="0 0 16 16" fill="none" xmlns="http://www.w3.org/2000/svg">
<path d="M2.03101 8.18591C1.98966 8.06165 1.98966 7.92735 2.03101 7.8031C2.86191 5.30319 5.22044 3.5 8.00012 3.5C10.7786 3.5 13.1359 5.3014 13.9686 7.80011C14.0106 7.92411 14.0106 8.05831 13.9686 8.18291C13.1383 10.6828 10.7798 12.486 8.00012 12.486C5.22164 12.486 2.86371 10.6846 2.03101 8.18591Z" stroke="#DFDFDF" stroke-linecap="round" stroke-linejoin="round"/>
<path d="M9.79729 7.993C9.79729 8.46965 9.60794 8.92678 9.2709 9.26382C8.93386 9.60086 8.47673 9.79021 8.00008 9.79021C7.52344 9.79021 7.06631 9.60086 6.72927 9.26382C6.39223 8.92678 6.20288 8.46965 6.20288 7.993C6.20288 7.51636 6.39223 7.05923 6.72927 6.72219C7.06631 6.38515 7.52344 6.1958 8.00008 6.1958C8.47673 6.1958 8.93386 6.38515 9.2709 6.72219C9.60794 7.05923 9.79729 7.51636 9.79729 7.993Z" stroke="#DFDFDF" stroke-linecap="round" stroke-linejoin="round"/>
</svg>
