<svg width="16" height="16" viewBox="0 0 16 16" fill="none" xmlns="http://www.w3.org/2000/svg">
<path d="M11.0357 4.27968C10.9639 4.24006 10.8913 4.2018 10.8179 4.16493C9.97027 3.73948 9.01319 3.5 8.00012 3.5C5.22044 3.5 2.86191 5.30319 2.03101 7.8031C1.98966 7.92735 1.98966 8.06165 2.03101 8.18591C2.43505 9.39833 3.19819 10.4466 4.19424 11.2045M12.8561 5.79202C13.3416 6.38108 13.722 7.06001 13.9686 7.80011C14.0106 7.92411 14.0106 8.05831 13.9686 8.18291C13.1383 10.6828 10.7798 12.486 8.00012 12.486C7.57763 12.486 7.16486 12.4444 6.76571 12.3649C6.67644 12.3472 6.58786 12.3275 6.5 12.306" stroke="#DFDFDF" stroke-linecap="round" stroke-linejoin="round"/>
<path d="M6.72951 9.26382C6.39247 8.92678 6.20312 8.46965 6.20312 7.993C6.20312 7.51636 6.39247 7.05923 6.72951 6.72219C7.06655 6.38515 7.52368 6.1958 8.00033 6.1958C8.47698 6.1958 8.9341 6.38515 9.27114 6.72219M9.7731 8.28837C9.71194 8.65547 9.53774 8.99721 9.27114 9.26382C8.97169 9.56327 8.57743 9.74614 8.15892 9.7832" stroke="#DFDFDF" stroke-linecap="round" stroke-linejoin="round"/>
<path d="M14 2L2 14" stroke="#DFDFDF" stroke-linecap="round" stroke-linejoin="round"/>
</svg>
