<svg width="30" height="30" viewBox="0 0 30 30" fill="none" xmlns="http://www.w3.org/2000/svg">
    <path d="M19.77 16.132a4.771 4.771 0 1 0-6.421 4.476 1.08 1.08 0 0 0-.021.205v2.377c0 .609.498 1.107 1.107 1.107h1.171a1.11 1.11 0 0 0 1.108-1.107v-2.377c0-.075-.008-.15-.023-.222a4.77 4.77 0 0 0 3.077-4.46h.002zM20.05 21.196 21.4 22.57M21.99 16.038h2.343M15.001 9.01V6.833M19.908 11.046l1.504-1.504M9.95 21.196 8.602 22.57M8.01 16.038H5.666M10.092 11.046 8.588 9.542" stroke="#9CA3AF" stroke-width="1.2" stroke-linecap="round" stroke-linejoin="round"/>
</svg>
