<svg xmlns="http://www.w3.org/2000/svg" xmlns:xlink="http://www.w3.org/1999/xlink" width="162" height="28" viewBox="0 0 162 28">
    <defs>
        <linearGradient id="zlmu5q9b3b" x1="50%" x2="50%" y1="0%" y2="100%">
            <stop offset="0%" stop-color="#2684FF"/>
            <stop offset="100%" stop-color="#FFF" stop-opacity="0"/>
        </linearGradient>
        <linearGradient id="o96fne35dd" x1="4.211%" x2="94.076%" y1="50%" y2="50%">
            <stop offset="0%" stop-color="#2684FF"/>
            <stop offset="100%" stop-color="#FFF" stop-opacity="0"/>
        </linearGradient>
        <linearGradient id="yhlgkhuwze" x1="44.261%" x2="19.097%" y1="28.034%" y2="34.532%">
            <stop offset="0%" stop-color="#FFF"/>
            <stop offset="100%" stop-color="#FFF" stop-opacity="0"/>
        </linearGradient>
        <path id="h592u25a8a" d="M11.292 0c6.237 0 11.293 5.056 11.293 11.292 0 2.924-1.111 5.588-2.934 7.594h.013l-8.372 8.858-8.372-8.859h.014C1.111 16.88 0 14.217 0 11.293 0 5.056 5.056 0 11.292 0zm0 7.009c-2.365 0-4.283 1.918-4.283 4.283 0 1.067.383 2.057 1.074 2.837l.038.042.295.325 2.876 3.044 2.877-3.044.295-.325c.702-.772 1.097-1.756 1.111-2.82v-.059c0-2.365-1.917-4.283-4.283-4.283z"/>
    </defs>
    <g fill="none" fill-rule="evenodd">
        <g>
            <g>
                <g>
                    <g transform="translate(-158 -4983) translate(79 4919) translate(79 64)">
                        <mask id="6ht0w7lzic" fill="#fff">
                            <use xlink:href="#h592u25a8a"/>
                        </mask>
                        <use fill="#FFF" xlink:href="#h592u25a8a"/>
                        <path fill="url(#zlmu5q9b3b)" d="M14.737 11.33l2.737 1.374 5.819-1.244v6.209L11.685 30.176c-.262-.301-.393-.914-.393-1.839 0-.924.131-2.323.393-4.195l.289-3.115-.682-3.34v-4.483l3.445-1.874z" mask="url(#6ht0w7lzic)" opacity=".4"/>
                        <path fill="url(#o96fne35dd)" d="M14.737 11.33l2.737 1.374 5.819-1.244v6.209L11.685 30.176c-.262-.301-.393-.914-.393-1.839 0-.924.131-2.323.393-4.195l.289-3.115-.682-3.34v-4.483l3.445-1.874z" mask="url(#6ht0w7lzic)" opacity=".3"/>
                        <path fill="url(#yhlgkhuwze)" d="M10.656 17.14L20.777 22.156 10.656 28.781z" mask="url(#6ht0w7lzic)"/>
                    </g>
                    <path fill="#FFF" fill-rule="nonzero" d="M33.468 9.5c.694 0 1.243-.549 1.243-1.225 0-.694-.549-1.243-1.243-1.243-.676 0-1.225.549-1.225 1.243 0 .676.549 1.225 1.225 1.225zm.859 10.892v-8.79h-1.7v8.79h1.7zm7.767 0V9.098h4.331V7.434H35.972v1.664h4.331v11.294h1.791zm7.694 0V15.22c.037-1.298.731-2.321 2.047-2.321 1.535 0 2.047.987 2.047 2.211v5.282H55.6v-5.574c0-1.956-1.042-3.473-3.143-3.473-1.006 0-2.03.348-2.669 1.28V7.16H48.07v13.232h1.718zM59.182 9.5c.695 0 1.243-.549 1.243-1.225 0-.694-.548-1.243-1.243-1.243-.676 0-1.224.549-1.224 1.243 0 .676.548 1.225 1.224 1.225zm.859 10.892v-8.79h-1.7v8.79h1.7zm4.642 0v-5.08c0-1.335.695-2.413 2.047-2.413 1.535 0 2.047.987 2.047 2.211v5.282h1.718v-5.574c0-1.956-1.042-3.473-3.144-3.473-1.023 0-2.065.42-2.704 1.517v-1.26h-1.682v8.79h1.718zm10.253 0v-2.65l1.224-1.224 2.87 3.874h2.156l-3.82-5.08 3.747-3.71h-2.376l-3.801 3.892V7.16h-1.7v13.232h1.7zm20.56 0v-1.681h-6.122V7.434h-1.791v12.958h7.913zm5.684.274c2.632 0 4.496-1.992 4.496-4.678 0-2.669-1.864-4.66-4.496-4.66-2.632 0-4.496 1.991-4.496 4.66 0 2.686 1.864 4.678 4.496 4.678zm0-1.535c-1.462 0-2.741-1.097-2.741-3.143 0-2.03 1.279-3.126 2.741-3.126 1.462 0 2.741 1.097 2.741 3.126 0 2.046-1.279 3.143-2.741 3.143zm10.107 5.008c3.307 0 4.404-2.175 4.404-4.405v-8.133h-1.7v1.225c-.438-.877-1.352-1.39-2.704-1.39-2.413 0-4.04 1.902-4.04 4.277 0 2.486 1.7 4.259 4.04 4.259 1.315 0 2.266-.64 2.686-1.444v1.26c0 1.902-.84 2.852-2.686 2.852-1.335 0-2.267-.932-2.395-2.157l-1.663.384c.22 1.883 1.864 3.272 4.058 3.272zm.255-5.611c-1.553 0-2.54-1.097-2.54-2.815 0-1.7 1.023-2.814 2.54-2.814 1.48 0 2.504 1.115 2.504 2.814 0 1.7-1.023 2.815-2.504 2.815zm7.731-9.028c.695 0 1.243-.549 1.243-1.225 0-.694-.548-1.243-1.243-1.243-.676 0-1.224.549-1.224 1.243 0 .676.548 1.225 1.224 1.225zm.86 10.892v-8.79h-1.7v8.79h1.7zm5.683.274c2.175 0 3.216-1.48 3.216-2.723 0-1.298-.84-2.266-2.43-2.613l-1.426-.311c-.676-.146-1.005-.53-1.005-1.06 0-.603.585-1.17 1.462-1.17 1.39 0 1.755 1.005 1.828 1.462l1.517-.566c-.183-.786-.933-2.358-3.345-2.358-1.718 0-3.125 1.28-3.125 2.778 0 1.243.822 2.175 2.193 2.467l1.499.33c.73.164 1.133.584 1.133 1.132 0 .622-.53 1.17-1.499 1.17-1.243 0-1.937-.731-2.047-1.645l-1.553.549c.146 1.005 1.17 2.558 3.582 2.558zm8.535-.183c.584 0 1.023-.11 1.17-.164v-1.462c-.147.036-.458.073-.677.073-.895 0-1.224-.402-1.224-1.206v-4.57h1.9v-1.553h-1.9V8.823h-1.572v1.426c0 .767-.402 1.352-1.353 1.352h-.475v1.554h1.682v4.825c0 1.59.95 2.503 2.449 2.503zM138.645 9.5c.695 0 1.243-.549 1.243-1.225 0-.694-.548-1.243-1.243-1.243-.676 0-1.224.549-1.224 1.243 0 .676.548 1.225 1.224 1.225zm.86 10.892v-8.79h-1.7v8.79h1.7zm6.634.274c2.284 0 3.545-1.48 3.965-2.741l-1.516-.658c-.201.694-.805 1.81-2.45 1.81-1.425 0-2.686-1.08-2.686-3.09 0-2.046 1.28-3.07 2.668-3.07 1.499 0 2.139 1.005 2.358 1.864l1.553-.658c-.365-1.334-1.571-2.796-3.91-2.796-2.504 0-4.423 1.92-4.423 4.66 0 2.669 1.882 4.68 4.44 4.68zm8.735 0c2.175 0 3.217-1.48 3.217-2.723 0-1.298-.84-2.266-2.43-2.613l-1.426-.311c-.676-.146-1.005-.53-1.005-1.06 0-.603.584-1.17 1.462-1.17 1.389 0 1.754 1.005 1.827 1.462l1.517-.566c-.183-.786-.932-2.358-3.344-2.358-1.718 0-3.125 1.28-3.125 2.778 0 1.243.822 2.175 2.193 2.467l1.498.33c.731.164 1.133.584 1.133 1.132 0 .622-.53 1.17-1.498 1.17-1.243 0-1.938-.731-2.047-1.645l-1.554.549c.147 1.005 1.17 2.558 3.582 2.558z" transform="translate(-158 -4983) translate(79 4919) translate(79 64)"/>
                </g>
            </g>
        </g>
    </g>
</svg>
