<svg width="16" height="16" viewBox="0 0 16 16" fill="none" xmlns="http://www.w3.org/2000/svg">
    <path d="M2.007 7.48v3.994c0 2.993.2 3.193 3.193 3.193h5.593c2.994 0 3.194-.2 3.194-3.193V7.48" stroke="#d1d5db" stroke-width="1.4" stroke-linecap="round" stroke-linejoin="round"/>
    <path d="M8 8c1.22 0 2.12-.993 2-2.213l-.44-4.453H6.447L6 5.787c-.12 1.22.78 2.214 2 2.214z" stroke="#d1d5db" stroke-width="1.4" stroke-linecap="round" stroke-linejoin="round"/>
    <path d="M12.207 8c1.346 0 2.333-1.093 2.2-2.433l-.187-1.833c-.24-1.733-.907-2.4-2.653-2.4H9.533L10 6.007c.113 1.1 1.107 1.994 2.207 1.994zM3.76 8c1.1 0 2.093-.893 2.2-1.993l.147-1.473.32-3.2H4.393c-1.746 0-2.413.667-2.653 2.4l-.18 1.833c-.133 1.34.853 2.434 2.2 2.434zM8 11.334c-1.113 0-1.667.553-1.667 1.667v1.666h3.334v-1.666c0-1.114-.554-1.667-1.667-1.667z" stroke="#d1d5db" stroke-width="1.4" stroke-linecap="round" stroke-linejoin="round"/>
</svg>