<svg width="16" height="16" viewBox="0 0 16 16" fill="none" xmlns="http://www.w3.org/2000/svg">
    <path d="M7.222 1.173H5.84C2.383 1.173 1 2.556 1 6.013v4.148C1 13.617 2.383 15 5.84 15h4.148c3.456 0 4.84-1.383 4.84-4.84V8.779" stroke="#4B5563" stroke-width="1.4" stroke-linecap="round" stroke-linejoin="round"/>
    <path d="M10.707 1.879 5.26 7.327a1.875 1.875 0 0 0-.456.912l-.297 2.081c-.11.754.421 1.28 1.175 1.176l2.081-.298c.29-.041.698-.249.913-.456l5.447-5.448c.94-.94 1.383-2.032 0-3.415-1.382-1.383-2.474-.94-3.415 0z" stroke="#4B5563" stroke-width="1.4" stroke-miterlimit="10" stroke-linecap="round" stroke-linejoin="round"/>
    <path d="M9.926 2.66a4.94 4.94 0 0 0 3.415 3.414" stroke="#4B5563" stroke-width="1.4" stroke-miterlimit="10" stroke-linecap="round" stroke-linejoin="round"/>
</svg>
