<svg width="107" height="24" viewBox="0 0 107 24" fill="none" xmlns="http://www.w3.org/2000/svg">
<g clip-path="url(#clip0_2_86260)">
<path fill-rule="evenodd" clip-rule="evenodd" d="M105.704 6.9098C105.844 7.47962 105.983 8.05223 105.999 8.64435C106.028 8.65644 106.058 8.6583 106.087 8.64993V10.602V10.9738C105.942 11.3855 105.892 11.8132 105.841 12.2413L105.841 12.2415C105.809 12.5123 105.777 12.7832 105.721 13.0504C104.928 16.8588 103.141 20.0407 99.8188 22.1936C97.4763 23.7115 94.8903 24.3353 92.1091 23.8249C88.6353 23.1873 86.5568 21.0307 85.6403 17.6852C85.0119 15.3911 85.1727 13.0913 85.6375 10.7926C86.2594 7.72316 87.6045 5.04697 89.8865 2.86344C92.9661 -0.0823193 97.7766 -0.872442 101.377 1.04244C103.742 2.30013 105.075 4.35538 105.704 6.9098ZM97.8026 15.9981C98.8874 14.2682 99.447 12.3793 99.4191 10.298C99.4442 9.45679 99.3559 8.60345 99.0584 7.77522C98.2943 5.63817 96.3144 5.48665 94.9089 6.47756C94.2675 6.93025 93.7544 7.50844 93.3565 8.17957C92.2783 9.99686 91.8014 11.9759 91.8953 14.0776C91.9418 15.1094 92.0552 16.1449 92.6612 17.0475C93.2719 17.9566 94.0686 18.2959 95.1366 18.0738C96.3646 17.8181 97.1705 17.0066 97.8026 15.9981ZM64.7964 0.547921C64.8127 0.551791 64.829 0.555653 64.8452 0.559256C65.4169 0.689394 65.6818 1.06493 65.5953 1.64219C65.2439 4.02548 64.8915 6.40844 64.5391 8.79147L64.5376 8.80162L64.5361 8.81228L64.5344 8.82344C64.2937 10.4515 64.0529 12.0796 63.8124 13.7078C63.6821 14.5904 63.5522 15.4731 63.4223 16.3558L63.4204 16.3689C63.1166 18.4335 62.8128 20.4981 62.5027 22.5618C62.4032 23.2265 62.209 23.4486 61.5397 23.4672C60.119 23.5064 58.6975 23.4975 57.276 23.4886H57.2759H57.2759H57.2759H57.2758L56.9867 23.4868C56.3379 23.483 56.0665 23.0229 55.8499 22.4893C54.9636 20.3003 54.0681 18.115 53.1725 15.9294L53.171 15.9257L52.9032 15.2723C52.7533 14.9062 52.599 14.5417 52.4317 14.1461L52.4313 14.1451L52.4306 14.1435L52.4304 14.1431C52.3398 13.9289 52.2453 13.7056 52.1456 13.468C51.9751 13.9547 51.922 14.3833 51.8715 14.7906C51.8556 14.9185 51.84 15.0443 51.8212 15.1691C51.5868 16.7226 51.3628 18.2776 51.1387 19.8327C51.0145 20.6951 50.8903 21.5575 50.7643 22.4196C50.6406 23.2655 50.3757 23.4914 49.4936 23.496C48.0992 23.5035 46.7049 23.5016 45.3106 23.497C44.3531 23.4942 43.9674 23.075 44.0984 22.1342C44.2789 20.8396 44.4719 19.5465 44.6649 18.2534L44.6651 18.2523L44.6653 18.251L44.6655 18.2496L44.6657 18.2483L44.6659 18.247C44.735 17.7837 44.8042 17.3205 44.8727 16.8572C45.0674 15.5407 45.2623 14.2242 45.4572 12.9076L45.4588 12.897L45.4601 12.8884L45.4613 12.8799L45.4626 12.8714C45.6846 11.3712 45.9067 9.87089 46.1286 8.37032C46.2496 7.55218 46.3701 6.73405 46.4905 5.91596L46.4919 5.90655L46.4924 5.90317C46.7136 4.40082 46.9348 2.89861 47.1594 1.39679C47.245 0.82418 47.4532 0.582495 48.0258 0.544383C49.6637 0.435625 51.3043 0.433766 52.9422 0.556468C53.4209 0.59272 53.6106 0.94874 53.7686 1.33451C54.2454 2.5008 54.7228 3.66587 55.2004 4.8312L55.2062 4.84531L55.5273 5.62905C56.1074 7.04663 56.6874 8.46327 57.2693 9.87991C57.3169 9.9969 57.3711 10.1112 57.4252 10.2253L57.4253 10.2254L57.4253 10.2254L57.4253 10.2255C57.4494 10.2763 57.4735 10.3272 57.497 10.3782L57.6114 10.3558L57.7572 9.38617L57.7581 9.38014L57.7588 9.37564L57.7594 9.37146L57.76 9.36759C57.8502 8.76875 57.9403 8.17002 58.0297 7.5709C58.1251 6.93193 58.2198 6.2927 58.3145 5.65339L58.3146 5.6525L58.3148 5.65143L58.315 5.64972C58.5237 4.24133 58.7324 2.83259 58.949 1.4256C59.0457 0.800941 59.2493 0.57134 59.8832 0.533229C61.4588 0.437484 63.0391 0.470019 64.6174 0.517426C64.6772 0.519614 64.7371 0.533821 64.7964 0.547921ZM43.5351 0.543357C43.2776 0.501527 43.0118 0.486654 42.7506 0.489443C42.2915 0.495854 41.8322 0.489 41.3729 0.482147C40.5002 0.469127 39.6278 0.456109 38.7581 0.534061C38.0675 0.596342 37.8788 0.817576 37.7802 1.48872C37.5602 2.97694 37.3415 4.46537 37.1227 5.95381L37.1227 5.95387L37.1227 5.95399L37.1227 5.95412C36.6852 8.93086 36.2477 11.9076 35.8003 14.8827C35.5688 16.423 34.7824 17.5682 33.2468 18.0608C32.0914 18.4317 30.9657 17.7364 30.6942 16.5624C30.5537 15.9549 30.6472 15.364 30.7407 14.7728L30.7407 14.7728C30.7579 14.6638 30.7751 14.5549 30.7909 14.4458C31.0701 12.5282 31.3526 10.6111 31.6351 8.69413L31.6353 8.69312L31.6354 8.6921L31.6356 8.69109L31.6366 8.68434C31.775 7.74518 31.9134 6.80605 32.0514 5.86692C32.106 5.49478 32.1618 5.12283 32.2176 4.7509L32.2176 4.75069L32.2176 4.75042L32.2177 4.75009C32.3729 3.71576 32.528 2.68162 32.6565 1.64395C32.7421 0.952362 32.4641 0.653045 31.7688 0.542427C31.2596 0.461817 30.7479 0.475277 30.2813 0.48755C30 0.49495 29.7351 0.501918 29.497 0.487584C29.207 0.487584 28.9363 0.486036 28.6788 0.484563C28.1381 0.48147 27.6554 0.478709 27.1731 0.491302C26.4127 0.511752 26.0985 0.786901 25.9805 1.52404C25.8853 2.116 25.801 2.70963 25.7166 3.30353L25.7166 3.30375C25.6749 3.59761 25.6331 3.89153 25.59 4.18536C25.4857 4.89635 25.3817 5.6074 25.2778 6.31845L25.2776 6.31971L25.2776 6.31985C24.9656 8.45301 24.6537 10.5862 24.3324 12.7178L24.2989 12.9391V12.9392V12.9392V12.9392C24.0644 14.4882 23.8302 16.0358 24.0981 17.6072C24.3956 19.3511 25.076 20.9062 26.4629 22.0598C28.4503 23.7125 30.776 24.2182 33.2924 23.8994C37.0803 23.4188 39.8346 21.4537 41.5347 18.0292C42.2571 16.5751 42.4869 14.9965 42.7164 13.4196C42.7385 13.2677 42.7606 13.1158 42.7831 12.9641C43.0282 11.3143 43.271 9.66448 43.5139 8.01468L43.5139 8.01437C43.6874 6.83564 43.8609 5.6569 44.0352 4.47817C44.0866 4.13195 44.1401 3.78587 44.1935 3.43977C44.2793 2.8845 44.3651 2.32918 44.4424 1.77316C44.5474 1.03509 44.2685 0.661411 43.5351 0.543357ZM82.0245 17.5778C82.2204 17.5777 82.4196 17.5777 82.6108 17.6122C83.2513 17.7256 83.5757 18.1727 83.4818 18.8104C83.3043 20.0188 83.1202 21.2263 82.9334 22.4328C82.8023 23.2815 82.543 23.499 81.6069 23.5009C79.6708 23.5063 77.7351 23.5053 75.7995 23.5044H75.7995H75.7994C75.055 23.504 74.3106 23.5037 73.5663 23.5037V23.5055H73.5508C71.0304 23.5055 68.5108 23.5055 65.9904 23.5046C65.9378 23.5046 65.8851 23.505 65.8325 23.5054H65.8324C65.6215 23.5068 65.4102 23.5083 65.2012 23.486C64.3423 23.3931 63.9825 22.642 64.4919 21.9383C65.0445 21.1748 65.6202 20.428 66.1957 19.6815C66.386 19.4347 66.5762 19.1879 66.7656 18.9405C69.0044 16.0175 71.2442 13.0951 73.484 10.1727L73.509 10.14L75.9487 6.95665C75.9598 6.94194 75.9716 6.92756 75.9834 6.91317L75.9836 6.91284L75.9837 6.9128C76.0113 6.87911 76.0389 6.84532 76.0584 6.80699C76.0751 6.77397 76.1017 6.74324 76.1284 6.71256C76.1865 6.64565 76.2444 6.57894 76.1978 6.48909C76.1467 6.38965 76.0429 6.40147 75.9454 6.41258C75.9153 6.41601 75.8857 6.41937 75.8586 6.41937C73.5653 6.41472 71.273 6.41286 68.9798 6.41472C68.7149 6.41565 68.4518 6.40171 68.2027 6.30782C67.7742 6.14608 67.5567 5.75938 67.6283 5.25835C67.8086 4.00345 67.9908 2.74855 68.1888 1.49644C68.3003 0.790907 68.4695 0.63846 69.1639 0.538068C69.3777 0.507392 69.5943 0.488801 69.8099 0.488801C75.0006 0.486013 80.1903 0.486013 85.38 0.489731C85.6886 0.49066 85.9991 0.51297 86.3049 0.552941C87.1313 0.660769 87.4473 1.32168 86.9872 2.04116C86.7548 2.4048 86.4857 2.74481 86.2169 3.08449L86.2164 3.08509C86.1198 3.20715 86.0232 3.32917 85.9284 3.45223C83.5126 6.59045 81.0963 9.72823 78.6798 12.8662L78.6765 12.8705L78.6698 12.8791L75.5276 16.9596C75.522 16.9669 75.5162 16.9741 75.5104 16.9812C75.5048 16.988 75.4992 16.9948 75.4936 17.0016C75.4652 17.0358 75.4369 17.07 75.417 17.1083C75.3966 17.1472 75.3647 17.1836 75.3327 17.2201C75.2584 17.3049 75.1839 17.3899 75.2534 17.5062C75.3128 17.6061 75.4279 17.5926 75.5374 17.5797C75.5736 17.5754 75.6092 17.5713 75.642 17.5713C76.9153 17.574 78.189 17.5748 79.4627 17.5756C80.3117 17.5761 81.1606 17.5766 82.0094 17.5778H82.0245ZM20.4933 5.96641C19.2773 7.64767 18.062 9.32915 16.8468 11.0106C15.6317 12.6918 14.4167 14.373 13.2009 16.054C12.8653 16.5187 12.7789 16.5336 12.368 16.1767C11.0955 15.0686 9.82383 13.9578 8.55777 12.8423C8.05302 12.398 7.82993 12.4101 7.43673 12.9567C5.17698 16.0986 2.91815 19.2423 0.662122 22.387C0.165739 23.0786 0.325623 23.4058 1.18918 23.4932C1.2824 23.5024 1.37669 23.5014 1.47124 23.5003H1.47127L1.47172 23.5003C1.50146 23.5 1.53123 23.4997 1.561 23.4997H5.55716C5.93924 23.4997 6.3214 23.5004 6.70359 23.5011H6.70369H6.70411C7.63838 23.5028 8.57285 23.5046 9.50685 23.496C10.2189 23.4895 10.9319 23.443 11.6281 23.2887C16.2173 22.2755 19.4057 19.5193 21.2629 15.2731C22.5783 12.2651 22.714 9.16037 21.3856 6.07796C21.0975 5.40775 20.9125 5.3873 20.4933 5.96641ZM3.73063 14.9095C2.73483 16.962 1.73904 19.0145 0.742081 21.0665C0.728961 21.0936 0.716625 21.1213 0.704019 21.1497C0.635352 21.3041 0.558725 21.4765 0.30426 21.6595C0.342758 21.3849 0.378642 21.1247 0.413217 20.874C0.479658 20.3923 0.541265 19.9455 0.607295 19.4992C0.94808 17.1834 1.29128 14.8682 1.63446 12.553C1.7172 11.9949 1.79994 11.4367 1.88265 10.8785C1.9925 10.1371 2.10215 9.39572 2.2118 8.65427C2.56327 6.2777 2.91475 3.90098 3.27326 1.52534C3.38481 0.791917 3.65252 0.559528 4.38966 0.558598C4.8568 0.557722 5.32395 0.556593 5.79109 0.555464C8.29667 0.549409 10.8022 0.543353 13.3078 0.57626C14.5887 0.592992 15.8009 0.983405 16.9684 1.51232C17.2567 1.64321 17.1727 1.7878 17.0866 1.93626C17.0699 1.96494 17.0532 1.99376 17.0391 2.02265C16.2691 3.60606 15.4986 5.18892 14.7282 6.77168C14.0838 8.09537 13.4395 9.419 12.7956 10.7428C12.7344 10.8694 12.6747 10.9969 12.6149 11.1243C12.5369 11.2908 12.4589 11.4574 12.3773 11.6222C12.1542 12.073 12.0501 12.099 11.6606 11.7663C10.8782 11.0979 10.0983 10.4264 9.31843 9.75486C8.96057 9.44673 8.60268 9.13859 8.24453 8.83072L8.24446 8.83066C8.11527 8.72006 7.98609 8.60946 7.85411 8.50165C7.29452 8.04524 7.03796 8.09637 6.71913 8.75263C5.72219 10.8046 4.72641 12.8571 3.73063 14.9095Z" fill="#EFF1F4"/>
</g>
<defs>
<clipPath id="clip0_2_86260">
<rect width="105.783" height="24" fill="white" transform="translate(0.30426)"/>
</clipPath>
</defs>
</svg>
