<svg width="42" height="24" viewBox="0 0 42 24" fill="none" xmlns="http://www.w3.org/2000/svg">
    <g clip-path="url(#hu1ijtn6la)" fill="#fff">
        <path d="M41.587 18.923v-3.788H5.64s.05 3.496 0 3.4c.146 1.456 1.846 1.456 1.846 1.456h2.108c.273-1.998 2.267-3.548 4.686-3.548 2.42 0 4.412 1.55 4.686 3.548h9.605c.274-1.998 2.267-3.548 4.686-3.548 2.42 0 4.413 1.55 4.686 3.548h2.48c1.213-.242 1.164-1.068 1.164-1.068z"/>
        <path d="M36.635 19.993a3.534 3.534 0 0 0-3.501-3.065 3.534 3.534 0 0 0-3.501 3.065 3.438 3.438 0 0 0-.035.47 3.536 3.536 0 0 0 7.071 0 3.188 3.188 0 0 0-.034-.47zm-3.501 2.222a1.753 1.753 0 0 1 0-3.504 1.752 1.752 0 0 1 0 3.504zM17.658 19.993a3.534 3.534 0 0 0-3.5-3.065 3.534 3.534 0 0 0-3.502 3.065 3.438 3.438 0 0 0-.034.47 3.536 3.536 0 0 0 7.07 0 3.73 3.73 0 0 0-.034-.47zm-3.5 2.222a1.753 1.753 0 0 1 0-3.504 1.752 1.752 0 0 1 0 3.504z"/>
        <path fill-rule="evenodd" clip-rule="evenodd" d="m33.907 3.027 7.232 6.557.45.408V11.983H5.554v-3.06L.6 7.807l9.906-1.069L.601 5.135l9.906-1.311L.601 2.367l5.292-.533C5.943.231 7.496 0 7.496 0h20.276c1.167.023 1.506 1.116 1.506 1.116v1.567H33.527l.38.344zm-2.72 6.244s5.865.018 6.247 0c.384-.018 0-.53 0-.53S32.7 4.516 32.681 4.498c-.2-.254-.474-.236-.474-.236h-1.493s.074 4.753.092 4.735c0 .238.382.274.382.274zM17.269 7.046c-.019.097-.079.343-.116.494l-.02.08h-1.691l-.025-.064c.408-.593.841-1.24 1.256-1.863h-.538c-.247 0-.3.027-.367.132a1.322 1.322 0 0 0-.125.272l-.111-.003.02-.2c.017-.155.035-.324.04-.42h.102c.038.078.079.078.176.078h1.283l.023.055c-.408.607-.825 1.231-1.238 1.866.104.008.237.01.441.01.392 0 .466-.012.556-.102.074-.069.157-.208.221-.357l.113.022zm-2.895.465v.106h.872V7.51c-.213-.025-.24-.048-.354-.338-.205-.539-.421-1.118-.624-1.668l-.135.024-.66 1.656c-.11.274-.16.3-.36.326v.108h.768V7.51c-.256-.026-.32-.05-.253-.254.025-.076.055-.157.084-.238l.04-.108h.644l.042.117c.04.111.078.213.103.291.045.133.037.166-.167.194zm-.354-1.32.06-.156.261.725h-.537c.067-.189.141-.378.216-.57zm-1.136 1.428c.03-.091.118-.444.134-.53l-.11-.027c-.049.105-.114.226-.187.31-.07.085-.113.11-.296.11h-.251c-.185-.004-.213-.053-.213-.274V6.63h.323c.2 0 .226.036.274.269h.114v-.692h-.114c-.045.223-.07.27-.27.27h-.327V5.8c0-.102.01-.11.123-.11h.24c.173 0 .225.02.281.098.048.061.095.17.123.277l.115-.016c-.013-.188-.028-.44-.031-.506a8.807 8.807 0 0 1-.48.006h-1.014v.108c.223.02.261.038.261.313v1.231c0 .264-.02.286-.311.312v.106h1.616zm6.092-1.702c.118-.198.18-.24.39-.262h.002v-.11h-.735v.108c.236.028.258.066.192.205-.088.187-.252.508-.354.698a68.117 68.117 0 0 1-.382-.721c-.054-.111-.064-.152.156-.182v-.108h-.88v.108c.195.02.238.06.357.27.185.323.3.532.398.727a.301.301 0 0 1 .045.16v.382c0 .274-.022.282-.287.317v.108h.974v-.108c-.274-.032-.3-.045-.3-.317V6.8a.33.33 0 0 1 .039-.176c.156-.306.26-.496.385-.706zm.512-.365h.925v.108c-.236.026-.274.044-.274.318v.54c.066-.015.141-.066.241-.161.203-.199.369-.385.482-.521.084-.102.067-.148-.076-.168l-.07-.008v-.108h.813v.108c-.226.028-.333.044-.538.262l-.084.086h-.001c-.111.113-.254.257-.38.39.215.282.5.646.718.908.129.156.173.182.335.206v-.003c.2-.026.25-.052.36-.326l.661-1.656.134-.024c.204.55.42 1.13.625 1.668.111.286.14.313.345.337.194-.026.245-.055.353-.325l.66-1.656.135-.024c.203.55.42 1.13.625 1.668.113.29.14.313.354.338v.108h-.872v-.106c.203-.028.211-.061.167-.194-.026-.078-.063-.18-.103-.29l-.043-.118h-.644l-.04.108c-.029.08-.058.162-.083.238-.067.203-.003.228.252.254v.108h-1.626v-.106c.204-.028.212-.061.168-.194-.026-.078-.063-.18-.103-.29l-.043-.118h-.645l-.038.108c-.03.08-.06.162-.084.238-.068.203-.004.228.252.254v.108h-.753v.005h-.59a51.433 51.433 0 0 1-.694-.9c-.068-.093-.12-.108-.172-.1v.579c0 .272.025.287.277.315v.108h-.926v-.108c.246-.025.277-.043.277-.315V5.98c0-.274-.028-.297-.277-.318v-.11zm2.997.639.061-.156.26.725h-.537c.067-.189.141-.378.216-.57zm2.18-.156-.06.156c-.075.191-.15.38-.217.569h.538l-.26-.725zm3.238 1.127c.002.306-.011.326-.26.352v.11h.924v-.108c-.266-.033-.277-.048-.284-.353l-.021-1.205c-.007-.244.025-.27.285-.298v-.108h-.63L27.25 7.03l-.646-1.478h-.641v.108c.277.025.302.1.292.257l-.031.44c-.05.698-.058.825-.07.92-.026.184-.107.22-.29.237v.108h.778v-.108c-.232-.023-.3-.06-.304-.234 0-.097.002-.314.048-1.353.233.564.506 1.254.678 1.693h.097c.129-.306.314-.735.496-1.155v-.003L27.9 5.9l.002 1.263z"/>
        <path d="M7.675 13.772a3.153 3.153 0 0 1-.162.413c-.084.016-.315.066-.536.066-.717 0-1.067-.436-1.067-.9 0-.553.455-.933 1.12-.933.252 0 .46.05.553.062.012.123.033.292.056.423l-.095.02c-.06-.187-.133-.295-.284-.351a.856.856 0 0 0-.298-.05c-.472 0-.72.33-.72.771 0 .517.29.85.751.85.289 0 .44-.125.59-.399l.092.028zM8.663 12.992c.375 0 .644.262.644.605 0 .436-.35.646-.648.646-.411 0-.659-.302-.659-.607.002-.432.374-.644.663-.644zm-.035.095c-.169 0-.323.153-.323.469 0 .341.156.592.387.592.169 0 .315-.112.315-.487 0-.326-.135-.574-.379-.574zM11.175 14.208v-.079c.162-.016.184-.026.184-.211v-.454c0-.197-.079-.305-.244-.305-.102 0-.199.05-.305.13.003.032.008.065.008.116v.528c0 .167.023.18.18.197v.078h-.632v-.079c.172-.016.195-.026.195-.2v-.468c0-.199-.07-.3-.236-.3-.11 0-.215.064-.305.13v.639c0 .173.02.185.177.2v.078h-.638v-.079c.187-.016.203-.027.203-.203v-.56c0-.17-.01-.182-.168-.208v-.071c.142-.018.285-.054.426-.107v.217c.062-.043.121-.087.21-.135a.439.439 0 0 1 .234-.072.34.34 0 0 1 .321.218c.08-.057.153-.101.226-.147a.469.469 0 0 1 .233-.07c.233 0 .372.152.372.419v.521c0 .176.017.184.18.2v.079h-.62v-.002zM12.01 13.075c.14-.02.301-.065.445-.116v.211c.009-.005.235-.126.246-.13a.423.423 0 0 1 .174-.055c.323 0 .516.253.516.518 0 .407-.349.667-.732.735a.5.5 0 0 1-.204-.045v.357c0 .192.022.207.243.228v.079h-.71v-.079c.189-.018.21-.034.21-.208v-1.223c0-.159-.008-.17-.187-.193v-.079h-.001zm.445.926c.066.061.18.105.272.105.238 0 .392-.193.392-.493 0-.298-.183-.457-.38-.457a.56.56 0 0 0-.284.106v.74zM13.636 14.21v-.08c.183-.017.203-.03.203-.207V12.64c0-.16-.015-.177-.197-.2v-.074c.166-.016.353-.057.454-.092v1.646c0 .179.017.192.202.208v.079h-.662v.002zM15.61 13.976c-.185.22-.396.268-.494.268a.56.56 0 0 1-.582-.581.672.672 0 0 1 .634-.67c.26 0 .456.204.454.422-.002.053-.01.08-.054.092-.057.011-.44.034-.777.046-.005.347.223.496.431.496a.52.52 0 0 0 .34-.134l.049.06zm-.51-.88c-.13 0-.256.117-.294.335.155 0 .311-.001.474-.008.05 0 .068-.013.068-.054.004-.14-.091-.274-.247-.274zM16.47 14.21a.306.306 0 0 1-.124.034c-.195 0-.3-.103-.3-.324v-.78h-.2l-.013-.033.08-.082h.133v-.226c.064-.056.16-.13.223-.186l.043.008c-.005.107-.009.261-.009.404h.327c.026.026.016.09-.018.114h-.309v.686c0 .216.094.254.166.254a.429.429 0 0 0 .172-.041l.026.075-.196.097zM17.906 13.976c-.185.22-.397.268-.495.268a.56.56 0 0 1-.582-.581.671.671 0 0 1 .634-.67c.261 0 .456.204.454.422-.001.053-.01.08-.054.092-.057.011-.439.034-.777.046-.005.347.223.496.431.496a.52.52 0 0 0 .34-.134l.049.06zm-.51-.88c-.13 0-.257.117-.295.335.156 0 .312-.001.474-.008.05 0 .069-.013.069-.054.003-.14-.092-.274-.248-.274zM20.431 13.755c-.018.09-.105.37-.134.452h-1.378v-.08c.265-.023.288-.038.288-.266v-1.064c0-.23-.03-.244-.26-.264v-.08h.807v.08c-.232.022-.265.033-.265.264v1.089c0 .162.02.205.187.208l.216.003c.152 0 .197-.02.264-.087a.942.942 0 0 0 .18-.278l.095.023zM21.39 12.992c.376 0 .644.262.644.605 0 .436-.349.646-.647.646-.412 0-.659-.302-.659-.607.003-.432.374-.644.662-.644zm-.034.095c-.169 0-.323.153-.323.469 0 .341.156.592.387.592.168 0 .314-.112.314-.487 0-.326-.134-.574-.378-.574zM22.732 13.81c-.062.047-.088.095-.088.128 0 .047.05.101.178.101l.328-.001c.185 0 .43.059.43.324 0 .285-.37.546-.758.546-.34 0-.518-.177-.523-.334 0-.061.027-.11.076-.153.062-.055.17-.137.236-.183a.386.386 0 0 1-.22-.148.237.237 0 0 1-.038-.121.658.658 0 0 0 .28-.189l.099.03zm.141.026c-.284 0-.508-.156-.508-.408 0-.305.3-.448.534-.448.102 0 .199.025.29.068.133 0 .315-.022.395-.04l.017.025c-.018.044-.063.123-.108.147-.045 0-.14-.011-.18-.013.048.06.081.143.081.241.002.29-.262.428-.521.428zm.062.408c-.144 0-.21.017-.262.056-.075.057-.13.134-.13.208 0 .148.164.257.394.257.269 0 .424-.126.424-.293a.199.199 0 0 0-.134-.195.876.876 0 0 0-.292-.033zm-.06-1.173c-.125 0-.236.108-.236.32 0 .207.108.357.265.357.126-.005.231-.107.231-.322-.001-.203-.101-.355-.26-.355zM23.788 14.21v-.079c.18-.016.2-.03.2-.214v-.551c0-.17-.01-.18-.18-.205v-.069c.158-.023.306-.059.437-.106v.931c0 .183.02.198.205.214v.08h-.662zm.311-1.47c-.087 0-.166-.07-.166-.153 0-.09.08-.155.17-.155.088 0 .16.065.16.155 0 .08-.072.153-.164.153zM25.43 13.353c-.057-.162-.137-.266-.308-.266-.098 0-.177.066-.177.17 0 .11.084.165.244.234.25.108.382.191.382.375 0 .252-.252.38-.487.38a.852.852 0 0 1-.352-.077 6.389 6.389 0 0 1-.052-.321l.087-.015c.054.172.16.316.362.316.111 0 .198-.068.198-.175 0-.115-.072-.177-.233-.25-.203-.09-.373-.178-.373-.378s.183-.354.465-.354c.126 0 .228.026.287.036.008.066.031.236.044.303l-.087.022zM26.39 14.21a.306.306 0 0 1-.124.034c-.195 0-.3-.103-.3-.324v-.78h-.2l-.013-.033.08-.082h.133v-.226c.064-.056.159-.13.223-.186l.043.008c-.005.107-.009.261-.009.404h.326c.027.026.017.09-.017.114h-.309v.686c0 .216.094.254.166.254.067 0 .13-.022.172-.041l.026.075-.197.097zM26.78 14.21v-.079c.18-.016.2-.03.2-.214v-.551c0-.17-.01-.18-.179-.205v-.069a2.24 2.24 0 0 0 .436-.106v.931c0 .183.02.198.205.214v.08h-.662zm.311-1.47c-.087 0-.165-.07-.165-.153 0-.09.078-.155.169-.155.088 0 .16.065.16.155 0 .08-.072.153-.164.153zM28.771 13.964c-.13.16-.326.279-.503.279-.377 0-.6-.279-.6-.569 0-.211.102-.39.297-.526a.83.83 0 0 1 .457-.156c.128 0 .224.036.27.072.041.03.05.051.05.082 0 .067-.076.127-.11.127-.017 0-.03-.007-.058-.028a.47.47 0 0 0-.296-.118c-.179 0-.343.142-.343.424-.002.372.277.495.44.495.122 0 .22-.03.349-.143l.047.061zM29.764 13.353c-.058-.162-.138-.266-.308-.266-.099 0-.177.066-.177.17 0 .11.082.165.244.234.25.108.382.191.382.375 0 .252-.253.38-.487.38a.852.852 0 0 1-.352-.077 6.389 6.389 0 0 1-.053-.321l.087-.015c.054.172.16.316.362.316.112 0 .199-.068.199-.175 0-.115-.073-.177-.233-.25-.203-.09-.374-.178-.374-.378s.184-.354.466-.354c.126 0 .227.026.287.036.008.066.03.236.044.303l-.087.022zM31.98 12.869c-.05-.177-.132-.356-.408-.356-.218 0-.303.146-.303.289 0 .178.125.273.37.39.345.162.505.29.505.549 0 .29-.27.508-.655.508a1.38 1.38 0 0 1-.456-.089 3.627 3.627 0 0 1-.08-.416l.095-.021c.059.178.193.424.495.424.205 0 .33-.13.33-.303 0-.198-.119-.284-.375-.411-.306-.155-.485-.284-.485-.541 0-.248.222-.474.617-.474.17 0 .33.04.391.05.012.1.025.212.05.386l-.09.015zM33.137 12.992c.376 0 .644.262.644.605 0 .436-.349.646-.647.646-.411 0-.659-.302-.659-.607.002-.432.374-.644.662-.644zm-.034.095c-.169 0-.323.153-.323.469 0 .341.156.592.387.592.169 0 .314-.112.314-.487-.001-.326-.136-.574-.378-.574zM34.02 14.21v-.08c.183-.017.203-.03.203-.207V12.64c0-.16-.015-.177-.197-.2v-.074c.166-.016.352-.057.454-.092v1.646c0 .179.017.192.202.208v.079h-.663v.002zM36.328 14.146c-.147.02-.31.054-.467.095v-.203c-.15.116-.279.203-.44.203-.206 0-.37-.116-.37-.402v-.529c0-.143-.023-.157-.096-.172l-.079-.015v-.073c.13-.005.331-.032.44-.048-.007.092-.007.223-.007.397v.372c0 .226.128.291.254.291a.44.44 0 0 0 .296-.12v-.632c0-.143-.03-.16-.127-.175l-.094-.012v-.073c.184-.009.397-.037.479-.048v.9c0 .136.023.157.13.162l.08.003v.079h.001zM37.125 14.21a.306.306 0 0 1-.125.034c-.195 0-.3-.103-.3-.324v-.78h-.2l-.013-.033.08-.082h.133v-.226c.064-.056.16-.13.223-.186l.043.008c-.005.107-.008.261-.008.404h.326c.026.026.016.09-.018.114h-.308v.686c0 .216.093.254.165.254a.429.429 0 0 0 .172-.041l.027.075-.197.097zM37.515 14.21v-.079c.18-.016.2-.03.2-.214v-.551c0-.17-.01-.18-.179-.205v-.069c.158-.023.305-.059.436-.106v.931c0 .183.02.198.205.214v.08h-.662zm.312-1.47c-.087 0-.166-.07-.166-.153 0-.09.079-.155.169-.155.088 0 .16.065.16.155 0 .08-.072.153-.163.153zM39.063 12.992c.375 0 .644.262.644.605 0 .436-.349.646-.647.646-.412 0-.66-.302-.66-.607.004-.432.375-.644.663-.644zm-.034.095c-.17 0-.323.153-.323.469 0 .341.155.592.387.592.168 0 .314-.112.314-.487 0-.326-.134-.574-.378-.574zM40.81 14.207v-.08c.16-.016.176-.034.176-.217v-.448c0-.19-.078-.303-.255-.303a.504.504 0 0 0-.307.13v.636c0 .181.016.188.18.204v.08h-.64v-.08c.185-.02.203-.029.203-.206v-.557c0-.174-.022-.18-.174-.205v-.074c.147-.021.301-.056.433-.107l-.002.21c.059-.037.123-.078.197-.123a.462.462 0 0 1 .24-.078c.235 0 .383.159.383.422v.512c0 .18.017.188.181.205v.079h-.616z"/>
    </g>
    <defs>
        <clipPath id="hu1ijtn6la">
            <path fill="#fff" d="M0 0h42v24H0z"/>
        </clipPath>
    </defs>
</svg>
