<svg width="162" height="24" viewBox="0 0 162 24" fill="none" xmlns="http://www.w3.org/2000/svg">
    <g clip-path="url(#cj8nyocpma)">
        <path d="M39.499 19.81v-3.863c0-.5-.035-.815-.103-.947-.069-.138-.255-.248-.558-.33-.44-.128-.66-.348-.66-.662 0-.22.092-.389.278-.506.186-.118.455-.177.808-.177.117 0 .409.008.874.022h.44c.813-.005 1.287-.01 1.424-.014.142-.01.642-.054 1.498-.133.284-.029.544-.044.778-.044.803 0 1.518.164 2.144.492 1.092.568 1.638 1.469 1.638 2.703 0 .998-.382 1.799-1.146 2.4-.72.564-1.59.845-2.614.845-.259 0-.577-.017-.954-.051a7.372 7.372 0 0 0-.374-.022c-.142 0-.213.08-.213.242v.044l.051 1.204c.01.235.051.412.125.53.078.112.235.23.47.352.318.17.477.357.477.558 0 .308-.235.545-.705.712-.47.166-1.135.25-1.997.25-1.81 0-2.716-.311-2.716-.933 0-.147.039-.26.117-.338.078-.078.262-.19.55-.338.177-.093.28-.222.31-.389.028-.166.048-.702.058-1.608zm3.311-4.796v2.497c0 .19.042.306.125.345.142.068.32.103.536.103.323 0 .595-.09.815-.272.318-.26.477-.695.477-1.307 0-.636-.186-1.097-.558-1.38a1.353 1.353 0 0 0-.852-.272c-.362 0-.543.095-.543.286zM56.231 18.252l-1.901 3.701c-.294.573-.544.972-.75 1.197-.205.22-.425.33-.66.33a.698.698 0 0 1-.558-.249 5.732 5.732 0 0 1-.786-1.13l-2.085-3.959c-.112-.215-.222-.37-.33-.462a.977.977 0 0 0-.433-.22c-.372-.108-.558-.309-.558-.603 0-.298.23-.516.69-.653.46-.137 1.187-.206 2.18-.206.833 0 1.444.061 1.836.184.396.117.595.3.595.55 0 .177-.093.346-.28.507a1.483 1.483 0 0 0-.227.242.377.377 0 0 0-.051.206c0 .166.107.443.323.83.215.377.416.565.602.565a.376.376 0 0 0 .3-.14c.079-.092.221-.332.427-.719.151-.284.227-.5.227-.646 0-.118-.078-.257-.235-.419-.166-.176-.25-.34-.25-.492 0-.235.155-.404.463-.506.313-.103.825-.154 1.535-.154.998 0 1.497.215 1.497.646 0 .25-.178.43-.536.543-.279.088-.47.184-.572.286-.098.103-.252.36-.463.771z" fill="#fff"/>
        <path d="M62.354 17.878v2.482c0 .294.071.533.213.72a.682.682 0 0 0 .558.279c.191 0 .443-.089.757-.265a.425.425 0 0 1 .22-.066c.117 0 .225.071.323.213a.799.799 0 0 1 .147.463c0 .303-.167.594-.5.873-.695.593-1.537.889-2.525.889-.783 0-1.412-.22-1.887-.66-.475-.446-.712-1.031-.712-1.756v-3.392c0-.113-.015-.181-.044-.206-.025-.03-.093-.044-.206-.044h-.756c-.142 0-.233-.022-.272-.066-.039-.05-.059-.16-.059-.33v-.324c.005-.146.062-.254.17-.323l3.362-2.114a.653.653 0 0 1 .308-.067h.595c.122 0 .203.03.242.089.044.053.066.164.066.33v.991c0 .147.022.243.066.287.05.044.15.066.301.066h1.359c.18 0 .298.034.352.102.054.064.081.204.081.42v.432c0 .235-.034.4-.103.492-.068.088-.193.133-.374.133h-1.33c-.136 0-.23.024-.278.073-.05.049-.074.142-.074.279zM66.936 20c.465 0 .869.162 1.211.485.348.328.521.751.521 1.27 0 .485-.173.893-.52 1.226a1.707 1.707 0 0 1-1.212.485c-.465 0-.869-.162-1.212-.485a1.657 1.657 0 0 1-.52-1.248c0-.51.173-.925.52-1.248A1.75 1.75 0 0 1 66.936 20zM77.956 16.453v3.37c0 .76.066 1.25.198 1.47.162.259.502.389 1.02.389.559 0 1-.123 1.322-.368.324-.244.549-.626.676-1.145.073-.318.24-.477.5-.477.259 0 .47.117.63.352.167.23.25.531.25.903 0 .607-.225 1.256-.675 1.946-.142.22-.267.37-.375.448a.618.618 0 0 1-.389.125l-1.63-.198h-5.132c-.338 0-.575-.04-.712-.118a.546.546 0 0 1-.301-.506c0-.138.032-.238.096-.301.068-.07.23-.165.484-.287.279-.132.458-.318.536-.558.064-.2.096-.786.096-1.755 0-.45-.013-1.099-.037-1.946-.025-.813-.04-1.424-.044-1.836 0-.391-.032-.658-.096-.8-.059-.147-.186-.252-.382-.316-.323-.112-.528-.203-.616-.271-.157-.123-.235-.262-.235-.419 0-.357.296-.629.888-.815.504-.162 1.18-.242 2.027-.242.95 0 1.659.049 2.129.146.607.133.91.397.91.794 0 .161-.041.281-.125.36-.078.078-.274.183-.587.315a.598.598 0 0 0-.352.426c-.05.2-.074.639-.074 1.314zM87.097 17.878v2.482c0 .294.07.533.213.72a.682.682 0 0 0 .558.279c.19 0 .443-.089.756-.265a.424.424 0 0 1 .22-.066c.118 0 .226.071.323.213a.799.799 0 0 1 .147.463c0 .303-.166.594-.5.873-.694.593-1.536.889-2.525.889-.783 0-1.412-.22-1.887-.66-.474-.446-.712-1.031-.712-1.756v-3.392c0-.113-.014-.181-.044-.206-.024-.03-.093-.044-.205-.044h-.757c-.142 0-.232-.022-.271-.066-.04-.05-.059-.16-.059-.33v-.324c.005-.146.061-.254.169-.323l3.362-2.114a.653.653 0 0 1 .309-.067h.595c.122 0 .203.03.242.089.044.053.066.164.066.33v.991c0 .147.022.243.066.287.049.044.15.066.301.066h1.358c.181 0 .299.034.353.102.053.064.08.204.08.42v.432c0 .235-.034.4-.102.492-.069.088-.194.133-.375.133H87.45c-.137 0-.23.024-.279.073-.049.049-.073.142-.073.279zM98.279 13.832v6.704c0 .382.014.627.044.734.034.108.125.213.272.316.176.123.293.23.352.323a.584.584 0 0 1 .095.338c0 .392-.394.69-1.182.896-.71.181-1.42.271-2.129.271-.156 0-.26-.024-.308-.073-.044-.044-.074-.154-.088-.33-.025-.25-.113-.375-.265-.375-.083 0-.213.074-.389.22-.5.407-1.055.61-1.666.61-.76 0-1.442-.282-2.049-.845a4.147 4.147 0 0 1-.866-1.167 3.778 3.778 0 0 1-.44-1.74c0-.69.19-1.356.572-1.998a3.578 3.578 0 0 1 1.439-1.365c.509-.265 1.01-.397 1.505-.397.568 0 1.077.127 1.527.382.074.04.132.059.176.059.157 0 .235-.21.235-.632 0-.181-.044-.318-.132-.411-.083-.098-.235-.181-.455-.25-.308-.098-.463-.269-.463-.514 0-.357.355-.636 1.065-.837 1.253-.347 2.093-.521 2.518-.521.421 0 .632.2.632.602zm-3.987 3.694c-.318 0-.57.168-.756.506-.25.45-.375 1.043-.375 1.777 0 .666.12 1.168.36 1.505a.808.808 0 0 0 .698.368c.318 0 .548-.184.69-.551.147-.372.22-.97.22-1.792 0-.754-.086-1.255-.257-1.505a.69.69 0 0 0-.58-.308zM101.458 20c.465 0 .869.162 1.211.485.348.328.522.751.522 1.27 0 .485-.174.893-.522 1.226a1.705 1.705 0 0 1-1.211.485 1.71 1.71 0 0 1-1.212-.485 1.658 1.658 0 0 1-.52-1.248c0-.51.173-.925.52-1.248.343-.319.747-.48 1.212-.485zM42.594 0c.503 0 1.163.125 1.978.374.098.029.176.044.235.044.048 0 .195-.044.44-.132a.703.703 0 0 1 .248-.044c.327 0 .672.259 1.033.776.366.518.55 1.011.55 1.48 0 .274-.084.506-.25.696a.756.756 0 0 1-.593.278.87.87 0 0 1-.476-.117c-.122-.078-.39-.31-.806-.696-.586-.547-1.162-.82-1.729-.82-.273 0-.493.066-.659.198a.64.64 0 0 0-.242.52c0 .425.374.744 1.121.96 1.011.297 1.658.515 1.941.651 1.246.606 1.868 1.497 1.868 2.674 0 1.04-.425 1.89-1.274 2.55-.87.674-2.005 1.01-3.407 1.01a9.57 9.57 0 0 1-1.977-.22c-.694-.15-1.194-.326-1.502-.527-.235-.156-.447-.495-.637-1.018a4.622 4.622 0 0 1-.279-1.538c0-.24.05-.42.147-.542a.562.562 0 0 1 .461-.235c.186 0 .364.095.535.286.102.107.344.452.725 1.033.18.273.467.5.857.681.396.18.804.271 1.224.271.36 0 .654-.066.879-.198.224-.136.337-.31.337-.52 0-.195-.088-.364-.264-.505-.176-.142-.462-.274-.857-.396-.699-.22-1.23-.42-1.597-.6a4.934 4.934 0 0 1-1.026-.697c-.771-.683-1.157-1.46-1.157-2.33 0-.429.1-.846.3-1.252.2-.41.484-.764.85-1.062C40.411.344 41.413 0 42.594 0zM52.022 2.901c.85 0 1.57.215 2.16.645.313.23.53.493.653.79.127.294.19.7.19 1.217l-.014 1.091c0 .757.053 1.248.16 1.473.054.107.106.176.155.205a1 1 0 0 0 .307.08c.157.025.235.128.235.308 0 .235-.096.479-.286.733a2.3 2.3 0 0 1-.725.637 2.24 2.24 0 0 1-1.15.323c-.513 0-.918-.176-1.216-.528-.103-.127-.198-.19-.286-.19-.098 0-.227.06-.388.183a2.749 2.749 0 0 1-1.663.535c-.64 0-1.157-.137-1.553-.41a1.948 1.948 0 0 1-.615-.704 1.971 1.971 0 0 1-.227-.916c0-.508.205-.957.615-1.348.64-.615 1.597-.925 2.871-.93.284 0 .462-.027.535-.08.073-.06.11-.191.11-.396 0-.518-.054-.891-.161-1.121-.108-.234-.283-.352-.527-.352a.643.643 0 0 0-.396.132c-.112.088-.254.25-.425.484-.434.62-.889.93-1.362.93a.823.823 0 0 1-.586-.212.727.727 0 0 1-.227-.557c0-.234.092-.469.278-.703.19-.235.447-.44.769-.616a5.832 5.832 0 0 1 2.769-.703zm-.49 4.242a.744.744 0 0 0-.565.263.916.916 0 0 0-.234.63c0 .235.056.425.168.572a.542.542 0 0 0 .447.212c.39 0 .586-.33.586-.989 0-.268-.03-.45-.088-.542-.054-.093-.159-.141-.315-.146zM65.237 5.612l.102 2.578c.01.196.04.34.088.432.054.093.205.271.454.535.074.078.11.188.11.33 0 .322-.193.547-.579.674-.385.127-1.074.19-2.065.19-.674 0-1.15-.058-1.429-.176-.288-.122-.432-.32-.432-.593 0-.098.015-.168.044-.212.03-.05.127-.164.293-.345.196-.205.293-.888.293-2.05 0-.675-.078-1.173-.234-1.495-.127-.26-.362-.389-.703-.389-.328 0-.552.105-.674.315-.123.21-.184.591-.184 1.143V8c0 .289.018.487.052.594.039.108.16.315.366.623.054.088.08.188.08.3 0 .288-.2.5-.6.637-.4.137-1.026.206-1.875.206-1.358 0-2.037-.281-2.037-.843a.48.48 0 0 1 .059-.264c.044-.063.144-.15.3-.263a.608.608 0 0 0 .242-.315c.034-.122.066-.418.095-.887.034-.556.051-1.14.051-1.75 0-.338-.026-.557-.08-.66-.049-.107-.195-.237-.44-.388-.21-.132-.315-.293-.315-.484a.56.56 0 0 1 .257-.476c.17-.127.522-.286 1.055-.476.468-.166.92-.305 1.355-.418.434-.117.732-.175.893-.175.147 0 .269.053.367.16a.534.534 0 0 1 .154.382l-.008.183a.839.839 0 0 0-.007.102c0 .235.098.352.293.352.117 0 .242-.093.373-.278.42-.606 1.03-.909 1.832-.909.615 0 1.142.161 1.582.484.308.23.523.5.645.813.122.308.197.762.227 1.363zM73.785 5.201l-1.897 3.692c-.293.572-.542.97-.747 1.195-.205.22-.425.33-.66.33a.696.696 0 0 1-.556-.25 5.72 5.72 0 0 1-.784-1.128l-2.08-3.949c-.113-.214-.223-.368-.33-.461a.974.974 0 0 0-.432-.22c-.371-.107-.557-.308-.557-.6 0-.299.23-.516.689-.653.459-.136 1.184-.205 2.175-.205.83 0 1.44.061 1.832.183.395.118.593.3.593.55 0 .176-.093.344-.278.505a1.479 1.479 0 0 0-.228.242.376.376 0 0 0-.05.205c0 .166.107.442.322.828.214.376.415.564.6.564a.375.375 0 0 0 .3-.14c.079-.092.22-.331.425-.717.152-.283.228-.498.228-.645 0-.117-.079-.256-.235-.417-.166-.176-.249-.34-.249-.491 0-.234.154-.403.462-.506.312-.102.822-.153 1.53-.153.997 0 1.495.215 1.495.644 0 .25-.178.43-.535.542-.278.088-.469.184-.571.286-.098.103-.252.36-.462.77zM81.828 6.923h-3.443c-.15 0-.227.066-.227.198 0 .317.171.617.513.9.347.28.718.418 1.114.418.234 0 .493-.044.776-.132.288-.092.525-.205.71-.337.167-.117.299-.175.396-.175.127 0 .252.078.374.234a.778.778 0 0 1 .183.484c0 .351-.22.69-.66 1.018-.776.581-1.672.872-2.688.872-1.025 0-1.885-.298-2.578-.894a3.664 3.664 0 0 1-.835-1.062 3.717 3.717 0 0 1-.432-1.744c0-.82.249-1.558.747-2.212.43-.567.976-.99 1.64-1.268a4.124 4.124 0 0 1 1.62-.315c.927 0 1.716.264 2.365.792.328.263.591.576.792.937.23.41.344.81.344 1.202 0 .317-.066.578-.198.784-.132.2-.303.3-.513.3zm-3.252-1.37h.74c.312 0 .469-.144.469-.432 0-.264-.076-.479-.227-.645a.765.765 0 0 0-.594-.249.754.754 0 0 0-.644.322c-.147.2-.22.403-.22.608 0 .147.034.25.102.308.074.059.198.088.374.088zM89.784 6.923H86.34c-.152 0-.227.066-.227.198 0 .317.17.617.512.9.347.28.718.418 1.114.418.234 0 .493-.044.776-.132.288-.092.525-.205.71-.337.167-.117.299-.175.396-.175.127 0 .252.078.374.234a.778.778 0 0 1 .183.484c0 .351-.22.69-.66 1.018-.776.581-1.672.872-2.688.872-1.025 0-1.885-.298-2.578-.894a3.664 3.664 0 0 1-.835-1.062 3.717 3.717 0 0 1-.432-1.744c0-.82.249-1.558.747-2.212.43-.567.977-.99 1.64-1.268a4.124 4.124 0 0 1 1.62-.315c.928 0 1.716.264 2.366.792.327.263.59.576.79.937.23.41.345.81.345 1.202 0 .317-.066.578-.198.784-.132.2-.302.3-.512.3zm-3.253-1.37h.74c.313 0 .469-.144.469-.432 0-.264-.076-.479-.227-.645a.765.765 0 0 0-.594-.249.754.754 0 0 0-.644.322c-.147.2-.22.403-.22.608 0 .147.034.25.103.308.073.059.197.088.373.088zM99.446 3.406V6.77c0 .757.066 1.245.197 1.465.162.259.501.388 1.019.388.556 0 .996-.122 1.318-.366.322-.244.547-.625.674-1.143.073-.317.239-.476.498-.476s.469.117.63.352c.166.23.249.53.249.9 0 .606-.224 1.254-.674 1.942-.141.22-.266.369-.373.447a.618.618 0 0 1-.389.125l-1.626-.198h-5.12c-.337 0-.574-.04-.71-.117a.545.545 0 0 1-.301-.506c0-.137.032-.237.095-.3.069-.069.23-.164.484-.286.278-.132.456-.317.534-.557.064-.2.096-.784.096-1.75 0-.45-.013-1.097-.037-1.942-.024-.81-.039-1.421-.044-1.831 0-.391-.032-.657-.095-.799-.059-.146-.186-.251-.381-.315-.322-.112-.527-.203-.615-.27-.157-.123-.235-.262-.235-.418 0-.357.296-.628.887-.814C96.03.14 96.704.06 97.548.06c.948 0 1.656.048 2.125.146.605.132.908.396.908.791 0 .161-.042.281-.125.36-.078.077-.273.182-.586.314a.597.597 0 0 0-.351.425c-.049.2-.073.638-.073 1.311zM108.749 2.901c.893 0 1.677.232 2.351.696.484.332.872.764 1.165 1.297.303.556.454 1.138.454 1.743 0 1.06-.486 1.961-1.458 2.703-.928.709-1.99 1.063-3.186 1.063-1.167 0-2.112-.333-2.835-.997-.703-.644-1.055-1.484-1.055-2.52 0-1.152.43-2.095 1.289-2.828.899-.771 1.99-1.157 3.275-1.157zm-.586 1.692a.638.638 0 0 0-.52.242c-.127.156-.191.366-.191.63 0 .293.054.694.161 1.201.113.503.244.95.396 1.341.151.4.398.6.74.6.434 0 .652-.275.652-.827 0-.41-.057-.877-.169-1.4-.107-.522-.239-.947-.395-1.274-.162-.332-.386-.503-.674-.513zM121.04 2.513c.122 0 .23.07.323.212a.846.846 0 0 1 .139.484c0 .2-.064.427-.191.681a1.848 1.848 0 0 1-.446.608c-.113.098-.169.176-.169.234 0 .015.005.074.015.176.014.103.022.196.022.279 0 .58-.196 1.07-.586 1.465-.352.351-.806.625-1.363.82a5.434 5.434 0 0 1-1.824.293c-.161 0-.32-.01-.476-.029a2.759 2.759 0 0 0-.293-.022c-.259 0-.388.13-.388.388 0 .166.083.298.249.396.171.093.4.14.688.14.196 0 .484-.028.865-.081.801-.113 1.392-.169 1.773-.169.576 0 1.023.095 1.34.286.254.146.454.351.601.615.151.264.227.547.227.85 0 .493-.181.972-.542 1.436-.43.547-1.062.952-1.897 1.216-.655.205-1.412.307-2.271.307-1.084 0-1.963-.166-2.637-.498a2.032 2.032 0 0 1-.748-.615 1.327 1.327 0 0 1-.278-.791.96.96 0 0 1 .154-.528.906.906 0 0 1 .403-.344c.146-.059.22-.122.22-.19 0-.054-.061-.132-.184-.235-.39-.327-.586-.667-.586-1.018 0-.235.093-.476.279-.725.19-.25.425-.442.703-.58.117-.058.176-.116.176-.175 0-.068-.073-.17-.22-.308-.503-.464-.754-1.006-.754-1.626 0-.327.087-.64.263-.938a2.42 2.42 0 0 1 .747-.762 4.689 4.689 0 0 1 2.616-.769c.38 0 .805.05 1.274.147.445.088.75.132.916.132.532 0 1.062-.21 1.589-.63.118-.088.208-.132.271-.132zm-3.977 1.516a.731.731 0 0 0-.594.279c-.146.185-.219.432-.219.74 0 .527.08.95.241 1.267.162.317.374.476.638.476a.736.736 0 0 0 .615-.293c.151-.2.227-.466.227-.799 0-.522-.08-.927-.242-1.216-.156-.293-.378-.444-.666-.454zm-1.597 6.667c-.122 0-.183.07-.183.212 0 .288.156.52.469.696.312.18.717.271 1.216.271.478 0 .852-.063 1.12-.19.274-.127.411-.306.411-.535a.404.404 0 0 0-.154-.315.588.588 0 0 0-.381-.125c-.078 0-.191.01-.337.03a6.803 6.803 0 0 1-1.634.03 3.14 3.14 0 0 1-.417-.06.623.623 0 0 0-.11-.014zM126 3.414V7.67c0 .337.029.584.087.74.064.156.189.3.374.432.151.108.252.2.3.279a.47.47 0 0 1 .081.285c0 .63-.798.945-2.395.945-.86 0-1.541-.068-2.044-.205a.858.858 0 0 1-.418-.256.633.633 0 0 1-.153-.418.51.51 0 0 1 .08-.307c.054-.074.191-.19.41-.352.152-.112.259-.296.323-.55.063-.253.095-.632.095-1.135 0-.161-.012-.462-.037-.901a14.641 14.641 0 0 0-.044-.777c-.029-.2-.166-.354-.41-.461-.303-.132-.454-.327-.454-.586 0-.308.198-.537.593-.689.547-.21 1.133-.388 1.758-.535.625-.146 1.109-.22 1.451-.22.268 0 .403.152.403.455zM124.549.205c.425 0 .762.08 1.011.242.249.156.374.369.374.637 0 .376-.188.674-.564.894-.596.347-1.316.52-2.161.52-.357 0-.64-.068-.85-.205-.283-.176-.425-.42-.425-.733 0-.42.3-.75.901-.989.611-.244 1.182-.366 1.714-.366zM130.204 2.908c.244 0 .642.054 1.194.162.113.019.205.029.279.029.083 0 .244-.044.483-.132a.813.813 0 0 1 .286-.066c.224 0 .452.144.681.432.186.23.337.481.454.755.117.273.176.51.176.71a.653.653 0 0 1-.205.491.726.726 0 0 1-.513.19.868.868 0 0 1-.461-.124c-.132-.083-.347-.266-.645-.55-.313-.302-.571-.453-.776-.453a.49.49 0 0 0-.359.153.479.479 0 0 0-.147.352c0 .24.23.464.689.674.825.371 1.457.777 1.897 1.216.371.371.557.825.557 1.363 0 .679-.298 1.245-.894 1.7-.513.395-1.14.593-1.883.593-.19 0-.537-.032-1.04-.096-.474-.053-.74-.08-.798-.08-.064 0-.137.007-.22.022-.142.02-.244.03-.308.03-.229 0-.41-.06-.542-.177-.2-.18-.386-.464-.556-.85-.171-.39-.257-.725-.257-1.003 0-.45.176-.674.528-.674.136 0 .261.046.373.14.117.087.359.326.725.717.201.215.367.364.498.447a.821.821 0 0 0 .425.117.582.582 0 0 0 .389-.124.443.443 0 0 0 .146-.345c0-.22-.188-.42-.564-.6-.786-.386-1.355-.784-1.707-1.195a2.14 2.14 0 0 1-.52-1.42c0-.582.178-1.083.535-1.503.508-.6 1.201-.9 2.08-.9zM138.819 4.828v2.476c0 .293.071.532.212.718a.68.68 0 0 0 .557.278c.19 0 .442-.088.754-.264a.427.427 0 0 1 .22-.066c.117 0 .225.071.322.213a.795.795 0 0 1 .147.461c0 .303-.166.594-.498.872-.694.591-1.534.887-2.52.887-.781 0-1.409-.22-1.883-.66-.473-.444-.71-1.028-.71-1.75V4.607c0-.112-.015-.18-.044-.205-.025-.03-.093-.044-.205-.044h-.755c-.141 0-.232-.022-.271-.066-.039-.049-.058-.159-.058-.33v-.322c.005-.147.061-.254.168-.322l3.355-2.11a.653.653 0 0 1 .308-.066h.593c.122 0 .203.03.242.088.044.053.066.163.066.33v.988c0 .147.022.242.066.286.049.044.149.066.3.066h1.355c.181 0 .298.034.352.103.054.063.08.202.08.417v.432c0 .235-.034.398-.102.491-.069.088-.193.132-.374.132h-1.326c-.136 0-.229.024-.278.073-.049.05-.073.142-.073.279zM145.485 3.414V7.67c0 .337.029.584.088.74.063.156.188.3.373.432.152.108.252.2.301.279.053.073.08.168.08.285 0 .63-.798.945-2.395.945-.86 0-1.541-.068-2.044-.205a.85.85 0 0 1-.417-.256.63.63 0 0 1-.154-.418c0-.132.027-.234.08-.307.054-.074.191-.19.41-.352.152-.112.259-.296.323-.55.063-.253.095-.632.095-1.135 0-.161-.012-.462-.037-.901a14.641 14.641 0 0 0-.044-.777c-.029-.2-.166-.354-.41-.461-.303-.132-.454-.327-.454-.586 0-.308.198-.537.593-.689.547-.21 1.133-.388 1.758-.535.626-.146 1.109-.22 1.451-.22.268 0 .403.152.403.455zM144.034.205c.425 0 .762.08 1.011.242.249.156.374.369.374.637 0 .376-.188.674-.564.894-.596.347-1.316.52-2.161.52-.357 0-.64-.068-.85-.205-.283-.176-.425-.42-.425-.733 0-.42.301-.75.901-.989.611-.244 1.182-.366 1.714-.366zM150.935 2.908c.869 0 1.636.218 2.3.652.63.415.945.93.945 1.546 0 .425-.147.77-.44 1.033-.273.25-.603.374-.989.374-.405 0-.71-.147-.915-.44-.064-.093-.157-.33-.279-.71-.131-.41-.383-.616-.754-.616-.269 0-.496.117-.681.352-.181.234-.271.522-.271.864 0 .586.21 1.106.63 1.56.341.367.771.55 1.289.55.244 0 .449-.02.615-.059.166-.044.383-.129.652-.256a.5.5 0 0 1 .227-.051c.166 0 .313.078.44.234.127.156.19.34.19.55 0 .22-.09.451-.271.696a2.56 2.56 0 0 1-.71.63c-.635.39-1.385.586-2.249.586-1.006 0-1.863-.293-2.571-.88-.909-.742-1.363-1.687-1.363-2.835 0-1.103.422-2.017 1.267-2.74.806-.693 1.785-1.04 2.938-1.04zM157.586 2.908c.244 0 .642.054 1.194.162.112.019.205.029.278.029.083 0 .245-.044.484-.132a.808.808 0 0 1 .286-.066c.224 0 .451.144.681.432.185.23.337.481.454.755.117.273.176.51.176.71a.657.657 0 0 1-.205.491.726.726 0 0 1-.513.19.874.874 0 0 1-.462-.124c-.131-.083-.346-.266-.644-.55-.313-.302-.572-.453-.777-.453a.494.494 0 0 0-.359.153.482.482 0 0 0-.146.352c0 .24.229.464.688.674.826.371 1.458.777 1.898 1.216.371.371.556.825.556 1.363 0 .679-.297 1.245-.893 1.7-.513.395-1.141.593-1.883.593-.19 0-.537-.032-1.04-.096-.474-.053-.74-.08-.798-.08-.064 0-.137.007-.22.022-.142.02-.244.03-.308.03-.229 0-.41-.06-.542-.177-.2-.18-.386-.464-.557-.85-.171-.39-.256-.725-.256-1.003 0-.45.176-.674.527-.674.137 0 .262.046.374.14.117.087.359.326.725.717.2.215.366.364.498.447a.821.821 0 0 0 .425.117.578.578 0 0 0 .388-.124.44.44 0 0 0 .147-.345c0-.22-.188-.42-.564-.6-.786-.386-1.355-.784-1.707-1.195a2.135 2.135 0 0 1-.52-1.42c0-.582.178-1.083.535-1.503.508-.6 1.201-.9 2.08-.9z" fill="#fff"/>
        <path d="M16.321 10.965c1.92 4.506 1.874 9.226.234 12.74-3.67-1.252-7.104-4.49-9.024-8.996-1.92-4.506-1.874-9.225-.234-12.74 3.671 1.253 7.105 4.49 9.024 8.996z" fill="url(#ki9nyxqzab)" fill-opacity=".9"/>
        <path d="M10.769 12.088c-.047 4.897 1.804 9.239 4.665 11.858 2.91-2.564 4.842-6.87 4.888-11.768.047-4.898-1.804-9.24-4.665-11.858-2.91 2.565-4.842 6.87-4.888 11.768z" fill="url(#qzn4yy68dc)" fill-opacity=".9"/>
        <path d="M15 10.965c-1.92 4.506-1.874 9.226-.234 12.74 3.67-1.252 7.104-4.49 9.024-8.996 1.92-4.506 1.873-9.225.234-12.74-3.671 1.253-7.105 4.49-9.024 8.996z" fill="url(#d7wyjoudjd)" fill-opacity=".9"/>
        <path d="M19.83 11.993C16.579 15.656 15.123 20.145 15.56 24c3.879-.022 8.164-2 11.414-5.663 3.25-3.662 4.707-8.151 4.269-12.006-3.878.022-8.163 2-11.414 5.663z" fill="url(#il29o1mgue)" fill-opacity=".9"/>
        <path d="M11.491 11.993c3.252 3.663 4.707 8.152 4.269 12.006-3.879-.022-8.164-2-11.414-5.663C1.096 14.674-.362 10.185.076 6.33c3.879.022 8.164 2 11.415 5.663z" fill="url(#vjmff1tx9f)" fill-opacity=".9"/>
        <path d="M24.767 17.648a1.632 1.632 0 1 0 0-3.263 1.632 1.632 0 0 0 0 3.263z" fill="#E5E5E5"/>
        <path d="M22.125 13.975s-.342 7.569 4.003 4.378c.017 0 1.885-1.251 2.91-2.83 0 0-4.163 7.39-11.683 8.357.033-.008 3.776-4.078 4.77-9.905zM6.448 17.648a1.632 1.632 0 1 0 0-3.263 1.632 1.632 0 0 0 0 3.263z" fill="#E5E5E5"/>
        <path d="M9.09 13.975s.342 7.569-4.003 4.378c-.017 0-1.801-1.29-2.827-2.87-.017-.016 4.08 7.43 11.6 8.397-.032-.008-3.776-4.078-4.77-9.905zM20.235 14.598c-.659 2.26-2.622 3.902-4.857 3.902-2.237 0-4.133-1.635-4.79-3.898.856 4.423 2.757 7.953 4.928 9.399 2.048-1.725 3.848-5.182 4.72-9.403.024-.001-.024.004 0 0z" fill="#E5E5E5"/>
        <path d="M15.867 17.77a1.632 1.632 0 1 0-.75-3.176 1.632 1.632 0 0 0 .75 3.176z" fill="#E5E5E5"/>
    </g>
    <defs>
        <linearGradient id="ki9nyxqzab" x1="7.66" y1="3.428" x2="23.617" y2="15.492" gradientUnits="userSpaceOnUse">
            <stop stop-color="#fff"/>
            <stop offset="1" stop-color="#fff" stop-opacity=".6"/>
        </linearGradient>
        <linearGradient id="qzn4yy68dc" x1="15.734" y1="1.518" x2="26.947" y2="14.565" gradientUnits="userSpaceOnUse">
            <stop stop-color="#fff"/>
            <stop offset="1" stop-color="#fff" stop-opacity=".6"/>
        </linearGradient>
        <linearGradient id="d7wyjoudjd" x1="23.801" y1="2.635" x2="25.881" y2="22.961" gradientUnits="userSpaceOnUse">
            <stop stop-color="#fff"/>
            <stop offset="1" stop-color="#fff" stop-opacity=".6"/>
        </linearGradient>
        <linearGradient id="il29o1mgue" x1="29.232" y1="8.546" x2="15.496" y2="24.281" gradientUnits="userSpaceOnUse">
            <stop stop-color="#fff"/>
            <stop offset="1" stop-color="#fff" stop-opacity=".6"/>
        </linearGradient>
        <linearGradient id="vjmff1tx9f" x1="2.143" y1="7.516" x2="15.273" y2="24.052" gradientUnits="userSpaceOnUse">
            <stop stop-color="#fff"/>
            <stop offset="1" stop-color="#fff" stop-opacity=".6"/>
        </linearGradient>
        <clipPath id="cj8nyocpma">
            <path fill="#fff" d="M0 0h161.176v24.001H0z"/>
        </clipPath>
    </defs>
</svg>
