<svg width="71" height="24" viewBox="0 0 71 24" fill="none" xmlns="http://www.w3.org/2000/svg">
<g clip-path="url(#clip0_6645_73333)">
<mask id="mask0_6645_73333" style="mask-type:luminance" maskUnits="userSpaceOnUse" x="0" y="0" width="71" height="24">
<path d="M71 0H0V24H71V0Z" fill="white"/>
</mask>
<g mask="url(#mask0_6645_73333)">
<path d="M7.63281 17.9312L10.6686 19.6498L17.1852 15.8019V3.82812L20.9714 6.02993V18.0021L10.6686 24.0003L7.63281 22.1544V17.9312Z" fill="#EFF1F4"/>
<path d="M13.6384 6.06904L10.6027 4.35045L4.08605 8.19836V20.1722L0.299805 17.9704V5.99817L10.6027 0L13.6384 1.84584V6.06904Z" fill="#EFF1F4"/>
<path d="M7.63281 17.9297L10.6686 19.6483V23.9987L7.63281 22.1529V17.9297Z" fill="#DFE2E8"/>
<path d="M8.18555 10.502L10.6556 11.7841V15.0328L8.18555 13.6557V10.502Z" fill="#E9EBEF"/>
<path d="M13.1253 10.502L10.6553 11.7841V15.0328L13.1253 13.6557V10.502Z" fill="#DFE2E8"/>
<path d="M8.18555 10.5009L10.6556 9.16406L13.1257 10.5009L10.6556 11.783L8.18555 10.5009Z" fill="#EFF1F4"/>
<path d="M25.7436 8.711V7.41602H25.1699V17.5842H25.7436V17.3684C25.7469 17.3346 25.7469 17.2991 25.7436 17.2621V13.047C26.2643 13.5044 26.6275 14.0536 27.2623 14.2501C27.9485 14.4627 28.6235 14.4788 29.3113 14.2695C29.975 14.0681 30.5102 13.6832 30.9312 13.142C32.0482 11.7036 31.8875 9.53084 30.5841 8.3035C29.2213 7.02623 27.5098 7.15186 25.7436 8.711ZM28.3246 13.9151C26.9329 13.9038 25.877 12.7796 25.7436 11.2446V10.5649C25.8835 8.99931 26.9489 7.92177 28.3889 7.93949C29.9718 7.95881 31.1723 9.26347 31.1643 10.9563C31.1578 12.625 29.9075 13.928 28.3246 13.9151Z" fill="#EFF1F4"/>
<path d="M64.6474 7.56633C63.1994 7.48096 61.9106 8.34751 61.4252 9.73269C60.8917 11.2548 61.3545 12.9541 62.5261 13.7852C63.6301 14.568 65.7627 14.5841 66.706 13.819C66.8041 13.7385 66.9696 13.6917 66.8667 13.5178C66.7832 13.3777 66.6771 13.2536 66.4843 13.3648C66.3461 13.4453 66.2095 13.5339 66.0648 13.5983C64.2328 14.4214 62.2561 13.5468 61.8334 11.7444C61.7418 11.3514 61.7595 11.1565 62.2529 11.1791C63.0805 11.2177 63.9098 11.1904 64.739 11.1904C65.4879 11.1904 66.2368 11.192 66.9857 11.1904C67.8792 11.1887 67.9692 11.0679 67.7683 10.1627C67.4614 8.78722 66.0986 7.6533 64.6474 7.56633ZM66.8844 10.7265C66.0841 10.72 65.2838 10.7249 64.4835 10.7249C63.7635 10.7249 63.0419 10.7023 62.3236 10.7329C61.8607 10.7539 61.7129 10.6379 61.8366 10.1547C62.1548 8.9193 63.2637 8.05114 64.5413 8.08819C65.8238 8.12523 66.9873 9.11419 67.2364 10.3238C67.3135 10.6959 67.1721 10.7281 66.8844 10.7265Z" fill="#EFF1F4"/>
<path d="M34.6582 4.36133C34.4284 4.36133 34.2468 4.47247 34.2291 4.72212C34.2083 5.01043 34.3931 5.1715 34.655 5.16506C34.8784 5.16023 35.0311 5.00399 35.0423 4.75433C35.0327 4.5079 34.9057 4.36133 34.6582 4.36133Z" fill="#EFF1F4"/>
<path d="M34.9214 7.21484H34.3477V14.3953H34.9214V7.21484Z" fill="#EFF1F4"/>
<path d="M58.2181 8.66195C56.4616 7.06577 54.8047 6.93531 53.4242 8.2303C52.1 9.47052 51.9329 11.7174 53.0739 13.1364C53.7312 13.9546 54.5942 14.3686 55.6516 14.3863C56.7091 14.404 57.4965 13.887 58.2197 12.9947V14.3332H58.7935V2.20312H58.2197V8.66195H58.2181ZM55.6774 13.8789C54.0896 13.8934 52.8216 12.5324 52.8312 10.8235C52.8409 9.14999 54.0992 7.81474 55.6549 7.82602C57.1285 7.83729 58.2085 9.10973 58.2181 10.8493C58.2278 12.5952 57.1623 13.8661 55.6774 13.8789Z" fill="#EFF1F4"/>
<path d="M70.6958 2.20312H70.1221V14.3332H70.6958V2.20312Z" fill="#EFF1F4"/>
<path d="M50.1885 9.10608C49.9586 8.25886 49.2001 7.68385 48.2696 7.61781C47.4147 7.5566 46.6385 7.79498 45.9442 8.26691C45.9249 8.25725 45.9088 8.24436 45.896 8.23148V7.58398H45.3223V14.3343H45.896V9.54901C46.1194 8.61804 46.865 8.08813 47.998 8.09296C49.1117 8.09779 49.7947 8.88541 49.8028 10.1901C49.806 10.7345 49.806 11.2789 49.806 11.8233V13.2423C49.806 13.4581 49.806 13.674 49.806 13.8898C49.806 14.0267 49.777 14.1926 49.8863 14.2683C49.9313 14.3086 49.9892 14.3343 50.0551 14.3343C50.1917 14.3343 50.3042 14.2232 50.3042 14.0847V10.4993C50.3604 9.25909 50.1901 9.10286 50.1901 9.10286L50.1885 9.10608Z" fill="#EFF1F4"/>
<path d="M41.9554 7.40315L41.0346 8.28419L40.7581 8.54834L38.0727 11.1174V2.24414H37.499V14.3951H38.0727V12.2255V12.0145V11.8229L38.9631 11.0175L39.0627 11.1351L41.2387 13.7154C41.3078 13.7992 41.3753 13.8829 41.4444 13.9667C41.4878 14.0198 41.5328 14.0714 41.5778 14.1181L41.8092 14.3935L42.047 14.2936C42.1225 14.2775 42.2061 14.2453 42.2993 14.1873L39.5287 10.7727L39.4082 10.6229L39.6927 10.2975L39.6943 10.2959L40.0639 9.94802C40.8948 9.20067 41.6983 8.41949 42.5131 7.6528C42.5115 7.65119 42.5099 7.64958 42.5066 7.64958L42.5773 7.58355L41.9554 7.40315Z" fill="#EFF1F4"/>
</g>
</g>
<defs>
<clipPath id="clip0_6645_73333">
<rect width="71" height="24" fill="white"/>
</clipPath>
</defs>
</svg>
