<svg width="115" height="24" viewBox="0 0 115 24" fill="none" xmlns="http://www.w3.org/2000/svg">
<g clip-path="url(#clip0_215_63694)">
<path d="M41.8545 3.98888C41.5213 3.97782 41.4036 4.12057 41.3047 4.39702C40.3206 7.1354 39.3296 9.87077 38.3386 12.6061C37.7987 14.098 37.2547 15.5888 36.7107 17.0836C36.5871 17.0213 36.5743 16.9409 36.5456 16.8615C36.0857 15.5868 35.6209 14.3141 35.157 13.0414C34.1037 10.1532 33.0514 7.26408 31.9932 4.37792C31.9329 4.21306 31.9418 3.98687 31.6401 3.9929C30.6571 4.01099 29.674 3.99994 28.687 3.99994C28.687 4.06528 28.6771 4.10147 28.688 4.12861C30.7055 9.31887 32.7261 14.5081 34.7337 19.7024C34.8346 19.9638 34.9691 20.006 35.2055 20.004C36.1767 19.9939 37.1479 19.9849 38.1181 20.009C38.4237 20.017 38.5305 19.8934 38.6304 19.63C40.3335 15.1857 42.0464 10.7454 43.7564 6.30404C44.0452 5.55209 44.3251 4.79712 44.6257 3.99994C43.6605 3.99994 42.7565 4.02004 41.8536 3.98988L41.8545 3.98888Z" fill="white"/>
<path d="M78.0263 12.4104C77.9838 10.7739 77.1797 9.57054 75.6398 8.95531C74.5282 8.51097 73.3711 8.4215 72.2021 8.65875C70.4486 9.01361 69.1836 10.0189 68.3667 11.6444C68.3667 9.26091 68.3539 6.8774 68.3786 4.49488C68.3826 4.06462 68.2619 3.96912 67.8633 3.99124C67.2066 4.02642 66.546 4.01838 65.8883 3.99325C65.5738 3.98119 65.5115 4.08574 65.5115 4.38732C65.5204 9.45392 65.5204 14.5205 65.5115 19.5881C65.5115 19.8998 65.5688 20.0254 65.9091 20.0114C66.5826 19.9822 67.261 19.9732 67.9335 20.0144C68.3331 20.0385 68.3776 19.8847 68.3746 19.5379C68.3588 17.5716 68.3727 15.6042 68.3608 13.6379C68.3588 13.3393 68.4261 13.083 68.5823 12.8407C69.8354 10.8955 72.657 10.6492 74.1306 11.4605C74.9129 11.8907 75.173 12.6376 75.1809 13.474C75.2017 15.5238 75.1987 17.5736 75.1859 19.6243C75.1839 19.934 75.2611 20.0214 75.5667 20.0114C76.2738 19.9872 76.9829 19.9933 77.69 20.0094C77.9541 20.0154 78.057 19.9631 78.056 19.6625C78.0411 17.2458 78.0896 14.8281 78.0263 12.4125V12.4104Z" fill="white"/>
<path d="M92.9425 8.52C92.268 8.53608 91.5915 8.55317 90.919 8.51497C90.5075 8.49185 90.4254 8.64365 90.4363 9.02264C90.461 9.8912 90.4442 10.7618 90.4442 11.6313C90.2405 11.3931 90.1416 11.1357 90.0081 10.8985C89.1526 9.37851 87.8135 8.70698 86.1282 8.56524C82.5876 8.26667 79.3585 10.6612 79.6176 14.6814C79.7521 16.7613 80.6689 18.3567 82.4887 19.2976C84.4113 20.2918 86.4012 20.3602 88.3208 19.2222C89.3197 18.6301 89.9201 17.6841 90.4432 16.6215C90.4432 17.6339 90.4502 18.6462 90.4383 19.6585C90.4353 19.9048 90.4838 20.0144 90.7587 20.0073C91.4985 19.9882 92.2403 19.9912 92.98 20.0073C93.2214 20.0123 93.2807 19.9339 93.2807 19.6977C93.2738 16.0837 93.2738 12.4687 93.2807 8.85476C93.2807 8.58735 93.1946 8.51598 92.9405 8.521L92.9425 8.52ZM88.3634 17.4036C86.9985 17.9525 85.61 17.9958 84.265 17.3122C82.9862 16.6618 82.3156 15.2745 82.5352 13.8118C82.7765 12.2084 83.725 11.1759 85.2065 10.8985C85.5793 10.8291 85.9522 10.7678 86.235 10.7949C86.962 10.7849 87.5761 10.8693 88.1705 11.0825C89.6501 11.6132 90.3799 12.6105 90.4294 14.1707C90.4779 15.6886 89.7786 16.8357 88.3634 17.4036Z" fill="white"/>
<path d="M114.478 16.0904C113.855 16.1296 113.228 16.1125 112.603 16.0944C112.327 16.0864 112.16 16.1527 112.03 16.4261C111.831 16.8433 111.466 17.1228 111.054 17.3037C109.441 18.0095 107.829 18.0105 106.268 17.164C105.504 16.7488 105.012 16.0733 104.773 15.2098C104.677 14.8639 104.751 14.7895 105.095 14.7936C106.675 14.8097 108.255 14.8006 109.835 14.8006H113.834C114.642 14.8006 115.03 14.3945 114.998 13.5822C114.911 11.4088 113.791 9.69781 111.835 9.03634C109.496 8.24418 107.131 8.30047 104.876 9.35601C103.117 10.1783 102.064 11.6098 101.87 13.6033C101.659 15.7757 102.322 17.5872 104.182 18.8026C105.995 19.9878 108.033 20.1326 110.115 19.9466C111.158 19.8531 112.147 19.5606 113.032 18.9806C113.899 18.4126 114.524 17.6465 114.842 16.6322C114.96 16.2542 114.969 16.0612 114.479 16.0924L114.478 16.0904ZM104.998 12.7297C105.292 12.1044 105.736 11.6199 106.328 11.3113C107.804 10.5412 109.323 10.5402 110.826 11.2208C111.479 11.5164 111.922 12.0502 112.118 12.7679C112.184 13.0112 112.146 13.1258 111.849 13.1218C110.748 13.1057 109.648 13.1148 108.547 13.1148C107.446 13.1148 106.345 13.1057 105.245 13.1198C104.904 13.1248 104.851 13.0424 104.998 12.7297Z" fill="white"/>
<path d="M21.1536 0C19.6029 0 18.5397 0.796181 18.0887 2.3051C17.4657 4.38603 16.8475 6.46897 16.2324 8.55291C15.4026 11.3677 14.5778 14.1835 13.75 16.9983C13.4503 17.9854 13.1506 18.9726 12.8391 20.001C14.7281 20.001 16.537 20.001 18.3459 20.001C19.9293 20.001 20.9746 19.2129 21.4355 17.6668C21.839 16.3157 22.2346 14.9626 22.6362 13.6105C23.279 11.4441 23.8991 9.27068 24.5311 7.10129C24.8495 6.00956 25.1433 4.90878 25.5053 3.82911C25.8959 2.56748 26.2866 1.30586 26.6901 0.00100528C24.8021 0 22.9784 0 21.1536 0Z" fill="white"/>
<path d="M63.5969 15.399C62.956 15.4302 62.3132 15.4231 61.6713 15.4C61.4221 15.391 61.3321 15.4975 61.25 15.7056C60.8949 16.6114 60.2323 17.1944 59.3333 17.5071C58.0892 17.9393 56.8341 17.9102 55.6157 17.4538C54.2894 16.9572 53.5595 15.968 53.4962 14.5093C53.4369 13.1522 53.8879 12.0424 55.1024 11.3859C56.5938 10.5787 58.1435 10.5455 59.6953 11.2382C60.2007 11.4643 60.7189 11.785 60.9078 12.2887C61.2164 13.109 61.7722 13.1954 62.4793 13.0999C62.5278 13.0929 62.5782 13.0999 62.6277 13.0999C62.9402 13.0999 63.2567 13.0698 63.5652 13.107C63.9589 13.1552 63.9569 12.9461 63.9035 12.6677C63.6256 11.2261 62.873 10.1022 61.5783 9.44675C59.1504 8.21729 56.6254 8.24544 54.1262 9.16427C52.1007 9.90918 50.8408 11.3849 50.6331 13.6217C50.4254 15.8474 51.1038 17.682 53.0611 18.9024C54.0758 19.5347 55.1973 19.8323 56.3653 19.9419C58.1515 20.1087 59.9188 20.0384 61.5497 19.1638C62.8789 18.45 63.6839 17.3312 63.9243 15.8112C63.9678 15.5337 63.951 15.3829 63.5979 15.4L63.5969 15.399Z" fill="white"/>
<path d="M10.8484 13.9987C10.7851 13.7595 10.7287 13.5162 10.6565 13.2799C9.88804 10.7909 9.22343 8.26964 8.39069 5.80067C7.95157 4.71698 6.9151 4.00726 5.7283 4.00223C3.81854 3.99419 1.90976 4.00022 0 4.00022V4.20027C0.40648 5.08894 0.591423 6.05199 0.8812 6.97886C1.42515 8.71699 1.93943 10.4652 2.46657 12.2093C2.73063 13.1342 2.98481 14.061 3.25975 14.9829C3.80865 16.8256 4.36941 18.6652 4.92523 20.5059C5.22885 22.1354 5.81632 23.5418 7.6074 24.0002H13.8322C12.8382 20.6657 11.8433 17.3322 10.8493 13.9977L10.8484 13.9987Z" fill="white"/>
<path d="M101.861 10.7547C101.838 10.1234 101.844 9.48907 101.859 8.85674C101.865 8.59437 101.794 8.51093 101.522 8.54008C100.842 8.61447 100.21 8.80145 99.6419 9.20156C98.737 9.84091 98.1881 10.7447 97.7045 11.7449C97.7045 10.7959 97.6966 9.84795 97.7094 8.89897C97.7134 8.63257 97.66 8.50992 97.3623 8.51797C96.6393 8.53807 95.9144 8.53807 95.1914 8.51797C94.8937 8.50992 94.8433 8.62654 94.8443 8.89495C94.8522 12.4747 94.8542 16.0545 94.8413 19.6333C94.8403 19.9611 94.9452 20.0143 95.232 20.0063C95.9055 19.9862 96.582 19.9771 97.2545 20.0093C97.6194 20.0264 97.7203 19.9319 97.7154 19.5499C97.6926 17.7525 97.7124 15.954 97.6985 14.1556C97.6956 13.8228 97.7747 13.5444 97.9547 13.2739C98.7953 12.0103 99.9436 11.2714 101.461 11.194C101.791 11.1769 101.874 11.0714 101.862 10.7537L101.861 10.7547Z" fill="white"/>
<path d="M48.5462 8.51667C47.8905 8.54683 47.2308 8.53879 46.5741 8.51868C46.2794 8.50963 46.1756 8.59106 46.1765 8.90571C46.1864 12.4835 46.1874 16.0603 46.1746 19.6381C46.1736 19.9748 46.2992 20.014 46.5771 20.006C47.2506 19.9889 47.9271 19.9708 48.5986 20.011C48.9962 20.0352 49.0456 19.8864 49.0417 19.5365C49.0249 17.7894 49.0338 16.0422 49.0338 14.295C49.0338 12.5478 49.0199 10.7675 49.0437 9.00423C49.0496 8.59709 48.925 8.49858 48.5462 8.51667Z" fill="white"/>
<path d="M46.2824 6.43669C46.5474 6.66589 47.1576 6.48394 47.6155 6.48394C47.6155 6.49299 47.6155 6.50203 47.6155 6.51108C47.9765 6.51108 48.3375 6.49902 48.6975 6.5151C48.9378 6.52616 49.0486 6.47489 49.0387 6.19442C49.0179 5.56411 49.0219 4.93279 49.0377 4.30248C49.0436 4.06524 48.9813 3.98381 48.738 3.99286C48.2307 4.01095 47.7214 3.99889 47.213 3.99889C46.1815 3.99889 46.1706 3.99889 46.1864 5.05845C46.1933 5.53295 45.9728 6.16929 46.2824 6.43669Z" fill="white"/>
</g>
<defs>
<clipPath id="clip0_215_63694">
<rect width="115" height="24" fill="white"/>
</clipPath>
</defs>
</svg>
