<svg width="124" height="21" viewBox="0 0 124 21" fill="none" xmlns="http://www.w3.org/2000/svg">
<g clip-path="url(#clip0_8828_87840)">
<path fill-rule="evenodd" clip-rule="evenodd" d="M33.609 16.4602C30.4611 18.7707 25.8977 20.0032 21.9692 20.0032C16.4602 20.0032 11.5011 17.9747 7.74913 14.6009C7.45445 14.3352 7.71834 13.9736 8.07212 14.1804C12.1213 16.526 17.1275 17.9371 22.2992 17.9371C25.7869 17.9371 29.6239 17.2187 33.1518 15.7275C33.6845 15.5023 34.1302 16.0749 33.609 16.4602Z" fill="#EFF1F4"/>
<path fill-rule="evenodd" clip-rule="evenodd" d="M34.9181 14.9687C34.5167 14.4566 32.2578 14.7268 31.2437 14.8461C30.9346 14.8841 30.8874 14.6164 31.1657 14.424C32.9653 13.1629 35.9175 13.527 36.2618 13.9495C36.6066 14.3745 36.1723 17.3208 34.4814 18.7278C34.222 18.9436 33.9746 18.8288 34.0899 18.5423C34.4695 17.5983 35.3211 15.4828 34.9177 14.9687" fill="#EFF1F4"/>
<path fill-rule="evenodd" clip-rule="evenodd" d="M31.3147 5.52321V4.29727C31.3147 4.11215 31.4559 3.98751 31.6258 3.98751H37.1369C37.3138 3.98751 37.4554 4.11419 37.4554 4.29768V5.34708C37.4529 5.5228 37.3043 5.75328 37.04 6.11738L34.1844 10.1769C35.2457 10.1511 36.3657 10.3085 37.3281 10.8487C37.5448 10.9705 37.6039 11.149 37.6204 11.3252V12.6328C37.6204 12.8114 37.4221 13.0202 37.2149 12.9124C35.519 12.0272 33.2671 11.9308 31.3923 12.9218C31.2015 13.0251 31.0008 12.8184 31.0008 12.6398V11.3979C31.0008 11.1985 31.0032 10.8581 31.2035 10.5549L34.5123 5.83092H31.6328C31.4563 5.83092 31.3143 5.70628 31.3143 5.52321H31.3147ZM11.2109 13.1706H9.53396C9.37349 13.1592 9.24626 13.039 9.23436 12.8866V4.31852C9.23436 4.14689 9.378 4.01122 9.55736 4.01122H11.121C11.2836 4.01816 11.4133 4.14239 11.4247 4.29727V5.41737H11.4555C11.8635 4.33486 12.6301 3.83018 13.6632 3.83018C14.7126 3.83018 15.368 4.33486 15.8396 5.41737C16.2451 4.33486 17.1673 3.83018 18.1552 3.83018C18.8582 3.83018 19.6269 4.1191 20.0964 4.76721C20.6267 5.48807 20.5183 6.53502 20.5183 7.45325L20.5163 12.8609C20.5163 13.0325 20.3726 13.1706 20.1933 13.1706H18.5188C18.3513 13.1592 18.2171 13.0251 18.2171 12.8609V8.31958C18.2171 7.95793 18.25 7.05645 18.1699 6.7136C18.0448 6.13822 17.67 5.9764 17.1841 5.9764C16.7786 5.9764 16.3543 6.2461 16.1819 6.67845C16.0095 7.11039 16.0263 7.8337 16.0263 8.31958V12.8609C16.0263 13.0325 15.8827 13.1706 15.7033 13.1706H14.0288C13.8593 13.1592 13.7272 13.0251 13.7272 12.8609L13.7247 8.31958C13.7247 7.36416 13.8827 5.9576 12.6917 5.9576C11.4867 5.9576 11.5343 7.32861 11.5343 8.31958V12.8609C11.5343 13.0325 11.3903 13.1706 11.2109 13.1706V13.1706ZM42.1998 3.83018C44.6877 3.83018 46.0343 5.9576 46.0343 8.66243C46.0343 11.2757 44.5465 13.3492 42.1998 13.3492C39.757 13.3492 38.4268 11.2218 38.4268 8.5709C38.4268 5.90366 39.773 3.83059 42.1998 3.83059V3.83018ZM42.2141 5.5796C40.9788 5.5796 40.9008 7.25587 40.9008 8.30119C40.9008 9.34814 40.8844 11.5834 42.1998 11.5834C43.4992 11.5834 43.5607 9.78008 43.5607 8.68123C43.5607 7.95793 43.5299 7.09405 43.3104 6.40834C43.122 5.81171 42.7469 5.5796 42.2141 5.5796V5.5796ZM49.2606 13.1706H47.591C47.4236 13.1592 47.2889 13.0251 47.2889 12.8609L47.2865 4.29032C47.3008 4.13299 47.44 4.01122 47.6095 4.01122H49.1637C49.3098 4.01816 49.4305 4.11665 49.4633 4.25068V5.5608H49.4937C49.9632 4.38921 50.6211 3.82978 51.7789 3.82978C52.5312 3.82978 53.2646 4.09948 53.7366 4.83913C54.1749 5.52566 54.1749 6.67886 54.1749 7.5076V12.9009C54.156 13.0513 54.0169 13.171 53.8519 13.171H52.1704C52.0173 13.1596 51.8897 13.0468 51.8733 12.9013V8.24643C51.8733 7.30981 51.9816 5.93839 50.8239 5.93839C50.4159 5.93839 50.0408 6.21055 49.8549 6.6241C49.6189 7.14758 49.5881 7.66901 49.5881 8.24643V12.8609C49.586 13.0325 49.4395 13.1714 49.2606 13.1714V13.1706ZM26.9212 9.07803C26.9212 9.72859 26.9376 10.2713 26.6077 10.8487C26.3409 11.3182 25.9165 11.6067 25.4474 11.6067C24.8035 11.6067 24.4263 11.1184 24.4263 10.3975C24.4263 8.97464 25.7068 8.71637 26.9212 8.71637V9.07803V9.07803ZM28.6121 13.1473C28.5013 13.2458 28.3409 13.2528 28.2157 13.187C27.6592 12.7268 27.5578 12.5131 27.2537 12.0742C26.3343 13.0088 25.681 13.2879 24.4899 13.2879C23.0773 13.2879 21.9806 12.4216 21.9806 10.6865C21.9806 9.3318 22.7165 8.40907 23.7684 7.95793C24.6787 7.55909 25.9498 7.48839 26.9212 7.37806V7.16229C26.9212 6.76509 26.952 6.29596 26.716 5.9527C26.5133 5.64539 26.1217 5.5183 25.7749 5.5183C25.1359 5.5183 24.5679 5.84522 24.4288 6.52112C24.4 6.67151 24.2892 6.81944 24.1361 6.82638L22.5113 6.65271C22.3746 6.62206 22.2211 6.51173 22.2614 6.30291C22.6344 4.33977 24.4169 3.74805 26.0109 3.74805C26.8268 3.74805 27.8927 3.96422 28.5366 4.57923C29.3525 5.33768 29.2746 6.34949 29.2746 7.4508V10.0527C29.2746 10.8344 29.6 11.1772 29.9066 11.5998C30.0129 11.7502 30.0363 11.9308 29.8996 12.0436C29.5577 12.3276 28.9491 12.856 28.6142 13.1518L28.6121 13.1473V13.1473ZM4.94059 9.07803C4.94059 9.72859 4.957 10.2713 4.62662 10.8487C4.36026 11.3182 3.93835 11.6067 3.46637 11.6067C2.82284 11.6067 2.44772 11.1184 2.44772 10.3975C2.44772 8.97464 3.72822 8.71637 4.94059 8.71637V9.07803V9.07803ZM6.6315 13.1473C6.52069 13.2458 6.36022 13.2528 6.23504 13.187C5.67851 12.7268 5.5796 12.5131 5.27302 12.0742C4.35328 13.0088 3.70236 13.2879 2.50928 13.2879C1.09909 13.2883 0 12.422 0 10.6869C0 9.33221 0.737928 8.40948 1.78736 7.95834C2.69766 7.5595 3.96872 7.4888 4.94059 7.37847V7.1627C4.94059 6.76549 4.97096 6.29637 4.73743 5.95311C4.53222 5.6458 4.1411 5.51871 3.79676 5.51871C3.15774 5.51871 2.58685 5.84563 2.44772 6.52153C2.4194 6.67191 2.30859 6.81985 2.15756 6.82679L0.530668 6.65312C0.393999 6.62247 0.242966 6.51213 0.280314 6.30332C0.655845 4.33977 2.43623 3.74805 4.03028 3.74805C4.84619 3.74805 5.91204 3.96422 6.55598 4.57923C7.37189 5.33768 7.29391 6.34949 7.29391 7.4508V10.0527C7.29391 10.8344 7.61937 11.1772 7.92595 11.5998C8.0343 11.7502 8.05811 11.9308 7.92103 12.0436C7.57915 12.3276 6.97091 12.856 6.63601 13.1518L6.63109 13.1473" fill="#EFF1F4"/>
<path d="M95.8903 3.73563C95.2187 3.8105 94.6461 4.11001 94.0757 4.44254C93.8224 4.59009 93.5582 4.88739 93.3666 4.28839C93.1926 3.74003 92.6112 3.93603 92.2126 3.98228C91.7171 4.03953 91.9241 4.4998 91.9219 4.78389C91.9087 8.40876 91.9307 12.0314 91.8977 15.6563C91.8911 16.3236 92.0695 16.5504 92.7477 16.546C93.4216 16.5416 93.6463 16.306 93.622 15.6409C93.5802 14.5089 93.611 13.3748 93.611 12.1041C93.9832 12.3045 94.199 12.4256 94.4192 12.5401C96.7712 13.7558 99.2708 12.6877 99.9667 10.1617C100.072 9.77635 100.136 9.37995 100.207 8.98575C100.759 5.90483 98.7136 3.42291 95.8903 3.73563ZM98.1564 10.4128C97.5662 11.8707 94.6725 12.2164 93.7321 10.9832C93.5582 10.7563 93.611 10.4987 93.6066 10.2498C93.5978 9.59136 93.6044 8.9351 93.6044 8.27663C93.6044 7.91106 93.6044 7.54549 93.6044 7.17992C93.6044 5.5855 93.8092 5.32123 95.2539 5.03935C96.6303 4.77288 97.7644 5.24195 98.174 6.34968C98.6695 7.69084 98.6938 9.08044 98.1564 10.4128Z" fill="#EFF1F4"/>
<path d="M75.5414 6.33154C75.4754 4.74813 74.5526 4.01479 72.9868 3.94432C71.7139 3.88706 70.6745 4.48166 69.4302 5.10489C69.4302 3.60297 69.406 2.253 69.4412 0.905236C69.4567 0.262184 69.2827 -0.00648795 68.5802 0.00011875C67.9129 0.00452321 67.7918 0.275398 67.794 0.854585C67.8094 4.66885 67.8072 8.48091 67.7962 12.2952C67.794 12.8435 67.8534 13.1827 68.5559 13.1783C69.2166 13.1739 69.4611 12.9933 69.4456 12.3084C69.406 10.5488 69.4721 8.78702 69.4148 7.02964C69.3906 6.27648 69.6505 5.87788 70.3464 5.65545C70.8639 5.49028 71.3594 5.26786 71.9188 5.24583C73.3282 5.19298 73.8589 5.67527 73.8677 7.0825C73.8787 8.87952 73.8875 10.6765 73.8633 12.4736C73.8545 13.1254 74.2201 13.1695 74.7112 13.1607C75.1825 13.154 75.5877 13.154 75.5789 12.489C75.5524 10.4387 75.6273 8.38181 75.5414 6.33154Z" fill="#EFF1F4"/>
<path d="M83.9193 4.44907C83.47 4.73536 83.3049 4.78822 83.1001 4.24206C82.9063 3.73115 82.3998 3.95357 82.0386 3.99541C81.6202 4.04386 81.7611 4.44907 81.7611 4.71334C81.7523 8.37785 81.7655 12.0424 81.7435 15.7069C81.7391 16.2993 81.8712 16.5547 82.5275 16.5459C83.1485 16.5393 83.3643 16.3521 83.3423 15.7267C83.3005 14.5595 83.3313 13.3901 83.3313 12.0314C83.8158 12.3066 84.1131 12.5004 84.4324 12.6524C86.4915 13.6258 88.6101 12.822 89.5416 10.7453C90.0085 9.7014 89.9865 8.61129 89.9204 7.51898C89.7178 4.12975 86.7866 2.62342 83.9193 4.44907ZM87.9097 10.5184C87.2733 11.9279 84.2849 12.1921 83.4965 10.8862C83.4348 10.7827 83.3886 10.677 83.3555 10.5669V7.59826C83.3555 7.57404 83.3555 7.54761 83.3555 7.52339V6.12497C83.5714 5.54138 84.1682 5.2617 84.8795 5.0723C86.2294 4.71114 87.4186 5.10974 87.8965 6.17122C88.5396 7.60047 88.555 9.09138 87.9097 10.5184Z" fill="#EFF1F4"/>
<path d="M113.898 6.27425C113.861 4.85161 112.92 4.02577 111.518 3.94869C110.331 3.88262 109.295 4.27242 108.304 4.85601C108.005 5.03219 107.683 5.25241 107.587 4.69084C107.47 3.99934 106.95 4.21296 106.562 4.22837C105.966 4.2548 106.184 4.75911 106.177 5.07403C106.153 6.24562 106.166 7.41941 106.166 8.5932C106.166 9.80222 106.179 11.0134 106.159 12.2225C106.151 12.7884 106.155 13.1937 106.941 13.1848C107.677 13.176 107.778 12.8523 107.769 12.2489C107.745 10.4519 107.785 8.65486 107.747 6.86004C107.734 6.28966 107.943 5.96153 108.441 5.76994C109.016 5.54971 109.575 5.28765 110.209 5.25241C111.667 5.17313 112.169 5.58275 112.205 7.02961C112.246 8.82443 112.24 10.6215 112.22 12.4185C112.213 13.1056 112.586 13.1672 113.134 13.1738C113.68 13.1804 113.936 13.0285 113.927 12.4339C113.9 10.3792 113.951 8.32452 113.898 6.27425Z" fill="#EFF1F4"/>
<path d="M64.1276 8.16152C63.3568 7.83559 62.564 7.56251 61.8086 7.20355C61.3197 6.97231 60.9938 6.5605 61.0907 5.96369C61.1854 5.3801 61.5862 5.10702 62.1323 4.9859C62.945 4.80532 63.7378 4.94406 64.524 5.13125C64.8301 5.20392 65.1868 5.45718 65.308 4.93965C65.4071 4.51022 65.2837 4.13364 64.8015 3.98829C64.1694 3.79669 63.5264 3.66456 62.8062 3.71962C62.6389 3.71962 62.4186 3.7064 62.1984 3.72182C60.7934 3.81872 59.8244 4.5939 59.5866 5.80073C59.3619 6.94368 59.9632 7.93469 61.3021 8.5381C61.9628 8.8354 62.6653 9.04461 63.337 9.32209C63.9448 9.57315 64.4513 9.92991 64.339 10.7051C64.2245 11.5023 63.6387 11.7776 62.945 11.8657C62.0619 11.978 61.1964 11.7908 60.3353 11.6146C60.0226 11.5508 59.6152 11.172 59.4831 11.815C59.3884 12.2753 59.5866 12.588 60.0446 12.7334C61.3219 13.1386 62.608 13.3566 63.925 12.9249C65.0921 12.5418 65.8299 11.6322 65.8673 10.5377C65.9092 9.43 65.374 8.68785 64.1276 8.16152Z" fill="#EFF1F4"/>
<path d="M78.6843 4.19474C78.1557 4.21236 77.7747 4.21456 77.7813 4.92368C77.81 7.41441 77.8078 9.90293 77.7813 12.3937C77.7747 13.0675 78.0985 13.1666 78.6622 13.171C79.2546 13.1754 79.5365 13.0059 79.5189 12.3606C79.4859 11.1164 79.5101 9.86989 79.5101 8.62563C79.5101 7.41661 79.4837 6.20758 79.5211 5.00076C79.5431 4.36432 79.2921 4.17492 78.6843 4.19474Z" fill="#EFF1F4"/>
<path d="M103.037 4.19727C102.467 4.19727 102.158 4.28976 102.185 4.96584C102.231 6.17047 102.198 7.37729 102.198 8.58191C102.198 9.82397 102.216 11.066 102.189 12.3081C102.178 12.8675 102.266 13.1912 102.953 13.1714C103.543 13.1559 103.808 13.026 103.801 12.3808C103.775 9.89664 103.772 7.41032 103.803 4.9262C103.81 4.3272 103.585 4.19947 103.037 4.19727Z" fill="#EFF1F4"/>
<path d="M78.6141 0.131218C77.971 0.177465 77.5812 0.510002 77.6143 1.17067C77.6473 1.82033 78.1053 2.17269 78.7 2.14626C79.2946 2.11983 79.7504 1.697 79.724 1.08258C79.6976 0.470362 79.2681 0.118005 78.6141 0.131218Z" fill="#EFF1F4"/>
<path d="M103.094 0.144624C102.486 0.11159 102.002 0.272353 102.002 1.03653C101.896 1.71041 102.31 2.08259 102.894 2.13985C103.471 2.1949 103.951 1.90641 104.008 1.22812C104.065 0.569654 103.766 0.179859 103.094 0.144624Z" fill="#EFF1F4"/>
<path d="M123.87 13.0008C123.868 12.3753 123.868 11.7499 123.866 11.1267V5.99107H123.855C123.852 5.46034 123.852 4.9296 123.85 4.39886C123.421 4.09275 122.723 4.0377 122.593 4.38565C122.256 5.29737 121.925 4.71378 121.575 4.50897C119.369 3.21846 117.034 4.05972 116.158 6.46455C115.742 7.60311 115.753 8.79452 115.982 9.93527C116.449 12.2586 118.417 13.4016 120.525 12.7916C120.525 12.7916 120.531 12.7894 120.54 12.785C120.734 12.7277 120.928 12.6572 121.122 12.5691C121.529 12.4172 122.02 12.2256 122.172 12.1419C122.509 14.7141 121.536 15.8086 118.988 15.6765C118.375 15.6457 117.732 15.573 117.173 15.3506C116.411 15.0489 116.581 15.5642 116.559 15.9231C116.532 16.335 116.834 16.4605 117.12 16.5882C117.12 16.5882 117.127 16.5904 117.136 16.5948C117.177 16.6146 117.219 16.6323 117.261 16.6521C117.382 16.7115 117.51 16.7512 117.642 16.7798C117.924 16.8701 118.305 16.9692 118.75 17.0309C119.111 17.0815 119.516 17.1057 119.941 17.0793C120.542 17.0419 121.183 16.9031 121.813 16.586C121.811 16.586 121.811 16.586 121.809 16.586C123.018 15.9958 123.645 14.8991 123.87 13.0008ZM122.205 10.2722C122.044 11.1267 121.562 11.4768 120.49 11.6464C119.17 11.8534 118.085 11.2434 117.717 10.0476C117.387 8.97069 117.391 7.87618 117.735 6.8037C117.983 6.02411 118.483 5.42951 119.32 5.29737C120.324 5.13881 121.41 5.20928 122.073 6.00209C122.128 6.06815 122.17 6.13642 122.205 6.20689V10.2722Z" fill="#EFF1F4"/>
</g>
<defs>
<clipPath id="clip0_8828_87840">
<rect width="123.87" height="20.0024" fill="white"/>
</clipPath>
</defs>
</svg>
