<svg width="120" height="27" viewBox="0 0 107 24" fill="none" xmlns="http://www.w3.org/2000/svg">
<path d="M76.3692 23.7208C76.3957 23.6943 76.4487 23.6428 76.4752 23.6163C76.7451 23.4759 76.9978 23.3051 77.2513 23.1366C79.0499 21.9581 80.8219 20.7367 82.5051 19.3975C84.703 17.6434 86.805 15.7153 88.4257 13.402C89.3422 12.0706 90.1058 10.5918 90.3663 8.9812C90.5558 7.95946 90.3632 6.91665 90.0941 5.92767C90.0909 5.97993 90.0894 6.03296 90.0878 6.08522C89.6932 4.78425 88.6995 3.77265 87.6544 2.95292C86.9867 2.47636 86.2887 2.03491 85.5485 1.68003C85.5313 1.65663 85.497 1.61061 85.4798 1.58721C85.4182 1.57551 85.2934 1.55289 85.231 1.54119C85.2178 1.52092 85.192 1.48114 85.1788 1.46086C85.0555 1.40392 84.9362 1.3462 84.8184 1.28381C84.7654 1.27367 84.6601 1.25261 84.6079 1.24247C84.5852 1.21517 84.5408 1.16136 84.5182 1.13406C84.4082 1.10598 84.2998 1.0779 84.1921 1.04982C84.1719 1.02642 84.1305 0.979625 84.1102 0.957007C84.0494 0.939068 83.9285 0.90319 83.8685 0.885251C83.4769 0.687142 83.0604 0.54441 82.6548 0.379059C82.3795 0.268305 82.0808 0.197329 81.8507 0H76.7857C78.8565 0.914889 80.7759 2.20026 82.3553 3.82803C83.2367 4.76787 84.0229 5.83797 84.4246 7.0742C84.8301 8.37673 84.7061 9.78689 84.3208 11.0785C83.732 12.9722 82.6338 14.6647 81.3835 16.1872C78.9836 19.1417 76.0026 21.5369 73.0918 23.961C74.1026 23.9665 75.1142 23.9915 76.125 23.9657C76.1414 23.9142 76.1726 23.8121 76.1882 23.7606C76.2335 23.7505 76.3239 23.731 76.3692 23.7208Z" fill="#EFF1F4" fill-opacity="0.7"/>
<path d="M81.8512 0C82.0812 0.197329 82.38 0.268305 82.6553 0.379059C83.0609 0.54441 83.4774 0.687142 83.8689 0.885251C83.929 0.90319 84.0498 0.939068 84.1107 0.957007C84.131 0.979625 84.1723 1.02642 84.1926 1.04982C84.3002 1.0779 84.4086 1.10598 84.5186 1.13406C84.5412 1.16136 84.5857 1.21517 84.6083 1.24247C84.6606 1.25261 84.7658 1.27367 84.8189 1.28381C84.9367 1.3462 85.056 1.40392 85.1792 1.46086C85.1925 1.48114 85.2182 1.52092 85.2315 1.54119C85.2939 1.55289 85.4187 1.57551 85.4803 1.58721C85.4974 1.61061 85.5318 1.65663 85.5489 1.68003C86.2891 2.03491 86.9872 2.47636 87.6548 2.95292C88.6999 3.77265 89.6936 4.78425 90.0883 6.08522C90.0898 6.03296 90.0914 5.97993 90.0945 5.92767C90.3636 6.91665 90.5562 7.95946 90.3667 8.9812C90.1062 10.5918 89.3426 12.0706 88.4262 13.402C86.8054 15.7153 84.7034 17.6434 82.5055 19.3975C80.8224 20.7367 79.0503 21.9581 77.2517 23.1366C76.9983 23.3051 76.7456 23.4759 76.4757 23.6163C76.4492 23.6428 76.3961 23.6943 76.3696 23.7208C76.3244 23.731 76.2339 23.7505 76.1887 23.7606C76.1731 23.8121 76.1419 23.9142 76.1255 23.9657C76.5716 23.9439 77.0193 23.9852 77.4647 23.9462C77.8422 23.7481 78.1596 23.4509 78.5153 23.2154C81.4612 21.1111 84.4117 18.9631 86.8897 16.305C88.0159 15.0859 89.047 13.7608 89.8028 12.2781C90.4853 10.9615 90.9049 9.49597 90.8955 8.00547C91.2582 9.08649 91.3097 10.2619 91.0546 11.3725C90.6748 13.0424 89.7607 14.5353 88.7054 15.862C86.1238 19.0543 82.7832 21.494 79.5386 23.9618C88.4878 23.9603 97.4362 23.9587 106.385 23.9626V0H81.8512Z" fill="#EFF1F4"/>
<path d="M72.5438 6.95066C72.1593 6.80403 71.7007 6.9881 71.5205 7.35624C70.6618 7.64326 69.8015 7.92483 68.9404 8.20327C68.6339 7.35624 68.4959 6.45383 68.134 5.62708C67.9374 5.1552 67.5646 4.78316 67.1231 4.53514C67.3626 4.24967 67.8415 4.41814 68.0856 4.12644C68.1901 3.99697 68.0926 3.84254 68.0622 3.70604C68.0333 3.54927 68.0357 3.38548 67.9616 3.24119C68.0528 3.18191 68.1433 3.12342 68.2354 3.06336C68.0973 2.84419 67.9554 2.62736 67.8157 2.40976C67.797 2.17031 67.7814 1.92774 67.8797 1.70233C68.0138 1.33654 67.6527 1.02143 67.3228 0.959037C66.6934 0.836583 66.0008 0.856862 65.4221 1.15715C64.9884 1.37397 64.7006 1.85677 64.7497 2.34424C64.7622 2.79271 65.0126 3.17879 65.259 3.53523C65.3589 3.64365 65.3214 3.78638 65.309 3.91741C64.1031 3.98605 62.8981 4.0734 61.6931 4.14672C61.1144 4.17324 60.5192 4.4197 60.2073 4.93057C61.2415 4.94227 62.2773 4.93213 63.3123 4.93603C63.3138 4.98907 63.3162 5.09671 63.3177 5.15052C62.2414 5.16066 61.1643 5.1435 60.0872 5.16066C60.0489 5.25972 60.0107 5.35955 59.9741 5.45938C60.6261 5.4586 61.2789 5.48434 61.9286 5.41571C62.3904 5.47576 62.856 5.45939 63.3208 5.4664C63.3177 5.51866 63.3131 5.62474 63.3099 5.67777C62.9356 5.67699 62.562 5.67777 62.1884 5.67855C62.204 5.79321 62.2203 5.90708 62.2383 6.02173C62.5978 6.02251 62.9582 6.02173 63.3185 6.02485C63.317 6.07789 63.3138 6.18318 63.3123 6.23622C62.9667 6.23934 62.6205 6.23544 62.2749 6.2448C62.2913 6.3345 62.3085 6.42419 62.3264 6.51389C62.6555 6.50843 62.9839 6.50999 63.3138 6.51077C63.3146 6.56458 63.3154 6.67378 63.3162 6.72837C62.9816 6.72759 62.647 6.71901 62.3147 6.74943C62.388 6.83055 62.4208 6.98654 62.5456 7.00994C62.8006 7.0349 63.0572 7.01228 63.3138 7.0154C63.3146 7.07234 63.3162 7.18543 63.3162 7.24237C63.2273 7.22755 63.0486 7.19791 62.959 7.18309C63.0338 7.3149 63.2117 7.29852 63.3364 7.35234C63.8941 7.49585 64.4978 7.66822 64.88 8.12996C65.1046 8.57921 65.0875 9.11504 64.9627 9.59081C64.8028 10.1157 64.4994 10.6594 63.9659 10.8746C63.3146 11.1016 62.5986 11.1593 61.9263 10.9947C60.7486 10.7124 59.6441 10.1992 58.5428 9.70625C58.2519 9.58691 58.0273 9.36229 57.8432 9.11348C57.7582 9.50892 57.9524 9.89656 58.2504 10.15C58.9383 10.7787 59.8274 11.1117 60.6659 11.4869C60.6175 11.568 60.5699 11.6491 60.5231 11.7302C60.7189 11.7529 60.9217 11.7809 61.0863 11.8995C60.7478 11.9182 60.3843 11.9252 60.109 12.1522C60.3188 12.2044 60.5348 12.259 60.6971 12.4135C60.3547 12.4166 59.9663 12.4361 59.7276 12.72C59.9522 12.766 60.1807 12.8191 60.3687 12.9587C59.9928 12.9641 59.6254 13.0476 59.2869 13.2106C59.5287 13.2597 59.8617 13.2878 59.9187 13.5881C59.5685 13.5865 59.184 13.5218 58.8735 13.7269C59.0989 13.7815 59.3298 13.8533 59.4803 14.0428C59.12 14.0272 58.7542 14.0436 58.4212 14.1926C58.5545 14.2799 58.6809 14.3774 58.7987 14.4858C58.5155 14.5381 58.2293 14.5786 57.954 14.6652C58.0561 14.7838 58.1412 14.9171 58.1903 15.0677C57.7785 15.1932 57.3986 15.3929 57.0243 15.6004C57.0227 15.7096 57.0227 15.818 57.0235 15.9272C56.5422 16.0013 55.9393 16.0465 55.671 16.5192C55.448 16.9778 55.2896 17.4965 54.8833 17.835C54.6345 18.0377 54.3935 18.2982 54.3849 18.6383C54.342 18.87 54.4738 19.2163 54.7593 19.1757C55.1329 19.1632 55.2873 18.7779 55.5299 18.5588C56.1562 17.9059 57.0804 17.7203 57.8128 17.2235C57.9516 17.3163 58.0889 17.4107 58.2293 17.5035C58.762 17.1946 59.2947 16.8811 59.8625 16.6385C60.4241 16.3998 60.974 16.1183 61.4552 15.7377C62.4902 14.9359 63.3302 13.9235 64.185 12.9407C64.7965 13.3252 65.5297 13.4181 66.1841 13.7043C66.3954 13.8049 66.6474 13.925 66.6949 14.1816C66.8556 14.932 66.8127 15.7104 66.9523 16.4654C67.003 16.8187 67.1036 17.1626 67.1879 17.5089C67.2386 17.5035 67.3407 17.4933 67.3914 17.4879C67.62 17.7632 67.4726 18.0994 67.4024 18.402C67.3415 18.6063 67.4546 18.8567 67.6777 18.8957C68.1012 18.9776 68.5208 18.7873 68.9475 18.8247C69.4404 18.8622 69.9255 19.086 70.4247 18.9721C70.6251 18.9027 70.7827 18.6141 70.6446 18.4293C70.4824 18.3333 70.2827 18.3435 70.1096 18.2772C69.6884 18.1235 69.3273 17.8428 68.9046 17.6922C68.8765 17.5854 68.85 17.4785 68.825 17.3724C68.928 17.3685 69.0317 17.3654 69.1362 17.3615C69.0371 16.1245 68.9482 14.8867 68.8601 13.6481C68.8258 13.1334 68.793 12.5539 68.414 12.1616C67.7721 11.5118 66.8658 11.2342 66.1685 10.6601C65.9758 10.5073 65.8167 10.2553 65.9275 10.0058C66.1708 9.29911 66.4368 8.60105 66.6809 7.89441C66.9469 8.3811 67.2136 8.86779 67.4772 9.35605C67.6098 9.59471 67.7666 9.84898 68.0294 9.96051C68.3523 10.1048 68.722 9.99171 69.0122 9.82246C69.8686 9.32017 70.7312 8.8288 71.5884 8.3265C71.7756 8.21107 72.001 8.14711 72.2202 8.20327C72.4752 8.27269 72.7864 8.19313 72.9213 7.95213C73.1038 7.59413 72.9338 7.08481 72.5438 6.95066Z" fill="#EFF1F4"/>
<path d="M61.3091 6.02078C61.3629 5.90691 61.4175 5.79304 61.4729 5.67994C60.948 5.67604 60.4231 5.67682 59.8989 5.67682C59.8638 5.79148 59.828 5.90535 59.7944 6.02C60.2991 6.02234 60.8045 6.02078 61.3091 6.02078Z" fill="#EFF1F4"/>
<path d="M58.4098 9.36313C59.6024 9.9598 60.8362 10.5299 62.1598 10.7593C62.7479 10.8427 63.3906 10.8817 63.9296 10.5838C64.3351 10.3693 64.5933 9.952 64.6892 9.51132C64.8203 9.07533 64.8476 8.53716 64.5192 8.17916C64.1947 7.81726 63.6784 7.78996 63.2432 7.65191C62.4905 7.42884 61.8221 6.98036 61.2722 6.42659C61.1467 6.2706 60.9259 6.34704 60.7551 6.32832C60.4314 6.3486 60.0953 6.28932 59.7802 6.3603C59.065 6.81189 58.3825 7.4109 58.0658 8.21503C57.8896 8.61827 57.9972 9.15332 58.4098 9.36313ZM63.3048 8.62607C63.5661 8.36089 64.0598 8.43186 64.2501 8.74697C64.332 9.02541 64.105 9.26018 63.9841 9.4887C63.8422 9.43333 63.7002 9.37873 63.5591 9.32413C63.6667 9.1502 63.7728 8.97393 63.8523 8.7844C63.6511 8.78596 63.5809 8.98875 63.4834 9.12368C63.3071 9.42319 63.0895 9.70241 62.9749 10.0339C63.1894 9.98632 63.2681 9.77105 63.3773 9.60804C63.5224 9.66029 63.6667 9.71567 63.811 9.77261C63.6644 9.98788 63.5263 10.2593 63.2502 10.3217C62.985 10.3989 62.6177 10.2718 62.5412 9.98554C62.542 9.75389 62.6879 9.56202 62.7994 9.37015C62.9632 9.11978 63.1028 8.84914 63.3048 8.62607ZM62.9632 8.24701C63.1083 8.37883 62.992 8.57303 62.9164 8.70797C62.698 9.06051 62.4976 9.42631 62.2417 9.75311C62.1598 9.87556 61.9953 9.9091 61.8619 9.86698C61.6107 9.80303 61.3729 9.69773 61.1326 9.60414C61.4914 9.03399 61.8424 8.45994 62.2012 7.89057C62.4601 7.99665 62.744 8.06606 62.9632 8.24701ZM61.0851 7.87809C61.0016 7.84612 60.9189 7.81492 60.8362 7.78294C60.9049 7.66673 60.9735 7.55129 61.0437 7.43664C61.358 7.55207 61.6692 7.67608 61.9812 7.7962C61.9102 7.91085 61.8393 8.02551 61.7699 8.14016C61.6856 8.10662 61.6022 8.07308 61.5203 8.03954C61.2254 8.48178 60.9712 8.94975 60.6686 9.38575C60.5243 9.40525 60.3761 9.28826 60.2341 9.24926C60.5165 8.79142 60.805 8.33749 61.0851 7.87809ZM59.834 6.97724C60.0945 7.0802 60.3815 7.14805 60.603 7.32978C60.7668 7.51307 60.5726 7.74238 60.4845 7.91397C60.2536 8.25481 60.0828 8.65259 59.7771 8.93415C59.4276 9.03399 59.0969 8.7844 58.7725 8.68613C59.1274 8.11676 59.4861 7.55051 59.834 6.97724Z" fill="#EFF1F4"/>
<path d="M59.6461 8.39859C59.838 8.10533 60.0268 7.80894 60.1937 7.50086C60.1664 7.48292 60.1118 7.44782 60.0845 7.43066C59.8505 7.8261 59.5775 8.1997 59.3755 8.61386C59.4847 8.5694 59.5876 8.50466 59.6461 8.39859Z" fill="#EFF1F4"/>
<path d="M62.2294 8.96984C62.3495 8.76627 62.5055 8.57284 62.5391 8.33105C62.3488 8.43011 62.2684 8.63836 62.1569 8.80761C62.0227 9.05095 61.827 9.267 61.77 9.54545C61.9822 9.40817 62.0976 9.17731 62.2294 8.96984Z" fill="#EFF1F4"/>
<path d="M27.5097 8.59062C24.7346 8.58828 21.9595 8.58828 19.1844 8.59062C18.7383 8.63352 18.3163 8.81759 17.8702 8.87219C17.5535 8.89637 17.2361 8.86829 16.9194 8.88077C16.8227 8.85737 16.7587 8.93458 16.6878 8.97904C17.0785 9.02272 17.4732 9.00946 17.8647 9.04534C18.1658 9.07108 18.4466 9.19119 18.7344 9.27308C18.7024 9.36434 18.6704 9.45481 18.6377 9.54529C18.2984 9.60379 17.9739 9.72624 17.6378 9.79643C17.2041 9.85181 16.7642 9.80267 16.3298 9.85337C16.3532 9.87131 16.4007 9.90641 16.4249 9.92435C16.8586 9.9844 17.3071 9.90485 17.7368 10.0101C17.9614 10.0718 18.1798 10.1552 18.4013 10.227C18.3694 10.3096 18.3374 10.3923 18.3054 10.4758C17.814 10.5374 17.3578 10.7792 16.8531 10.755C16.563 10.8049 16.2143 10.6832 15.9632 10.865C16.3337 10.9071 16.7081 10.879 17.0793 10.9118C17.4599 10.9477 17.8094 11.1146 18.172 11.2222C18.973 11.2713 19.778 11.2214 20.5774 11.2869C20.2881 11.3922 19.9683 11.379 19.6828 11.5022C19.1985 11.6909 18.6712 11.6325 18.1642 11.6613C18.0675 11.6551 17.9794 11.6909 17.9014 11.7455C18.3374 11.8313 18.7859 11.7635 19.2226 11.8345C19.5596 11.9296 19.8872 12.0606 20.2389 12.0942C20.2194 12.1457 20.1796 12.2486 20.1601 12.3001C19.8333 12.3157 19.5065 12.3641 19.2031 12.4927C18.7063 12.7088 18.1533 12.6019 17.6307 12.6636C17.6066 12.6854 17.5582 12.7298 17.534 12.7525C17.8756 12.7977 18.2212 12.7922 18.5651 12.8086C19.0245 12.8071 19.4223 13.0801 19.8723 13.1378C19.8505 13.1775 19.8084 13.2579 19.7865 13.2977C19.448 13.3296 19.1095 13.3702 18.7874 13.4872C18.4146 13.6206 18.0168 13.6065 17.6268 13.6034C17.463 13.612 17.2782 13.5823 17.1362 13.6837C17.6877 13.7976 18.2758 13.6393 18.8069 13.8631C19.0448 13.963 19.2991 14.0121 19.5549 14.0371C19.5315 14.0714 19.4839 14.1408 19.4605 14.1751C18.888 14.1891 18.3592 14.4216 17.7984 14.5004C17.7945 14.4731 17.7867 14.4192 17.7828 14.3919C17.7797 14.4161 17.7743 14.4629 17.7711 14.4871C17.4607 14.484 17.1503 14.4887 16.8391 14.4965C16.8282 14.5261 16.8071 14.5854 16.7962 14.615C17.2025 14.6275 17.6112 14.6017 18.0168 14.6478C18.4154 14.7265 18.7944 14.8942 19.2047 14.92C19.1766 15.0026 19.1493 15.0853 19.1228 15.168C18.7554 15.1579 18.3896 15.2023 18.0441 15.331C17.5332 15.5081 16.9842 15.4371 16.4546 15.4597C16.4436 15.4893 16.4202 15.5486 16.4093 15.5783C16.8968 15.6055 17.3944 15.54 17.8717 15.6695C18.2009 15.7506 18.5316 15.831 18.8678 15.877C18.8389 15.9355 18.81 15.9947 18.7812 16.054C18.3569 16.0673 17.9435 16.1718 17.5348 16.2779C17.1043 16.3988 16.6542 16.3395 16.2136 16.3629C16.1239 16.3566 16.0474 16.4089 15.9733 16.4518C16.4943 16.5298 17.0341 16.4276 17.5434 16.5867C17.8671 16.685 18.1962 16.7731 18.537 16.7848C18.516 16.8332 18.4747 16.9284 18.4536 16.9767C18.0363 16.9603 17.6261 17.0391 17.2345 17.1772C16.7814 17.3378 16.2955 17.2544 15.8267 17.2848C15.7354 17.2848 15.6598 17.3215 15.599 17.3955C16.1449 17.4517 16.7135 17.3449 17.2376 17.5445C17.5418 17.6506 17.8624 17.6919 18.1837 17.6982C18.1588 17.7754 18.1346 17.8526 18.1104 17.9298C17.7314 17.9189 17.3562 17.9813 16.999 18.1069C16.4717 18.3003 15.9024 18.2083 15.354 18.2449C15.3462 18.2746 15.3299 18.3346 15.3213 18.3643C15.8571 18.3853 16.4124 18.3104 16.9264 18.5C17.2064 18.5943 17.4997 18.6419 17.7953 18.6552C17.8234 18.6762 17.8803 18.7191 17.9084 18.741C19.1158 18.7316 20.3224 18.7394 21.5297 18.7371C22.4166 16.235 23.3236 13.7391 24.2097 11.2362C25.0005 11.23 25.7922 11.2612 26.5831 11.2635C26.8896 10.372 27.2031 9.48211 27.5097 8.59062Z" fill="#EFF1F4"/>
<path d="M15.0703 10.2082C14.6975 9.60917 14.0689 9.22075 13.4363 8.9423C12.7874 8.67712 12.0761 8.61862 11.3811 8.6233C9.66756 8.62798 7.95477 8.62408 6.24121 8.62486C5.55095 8.64436 4.90515 8.98676 4.20786 8.9189C3.98792 8.94542 3.71571 8.83701 3.53866 9.0086C3.98948 9.07412 4.44809 9.0359 4.89813 9.10531C5.19295 9.18565 5.48153 9.29094 5.78338 9.35022C5.76544 9.4017 5.73112 9.50465 5.71318 9.55613C5.14771 9.58889 4.63138 9.89229 4.05811 9.86031C3.76641 9.89229 3.43727 9.79011 3.17364 9.95001C3.51838 9.99758 3.86702 9.97574 4.21332 9.9968C4.64464 9.99992 5.02916 10.2277 5.45268 10.283C5.42694 10.3556 5.40198 10.4281 5.37624 10.5014C5.05958 10.517 4.74759 10.5771 4.44887 10.6839C4.04485 10.8236 3.61198 10.7877 3.19236 10.8017C3.06367 10.8087 2.91392 10.7908 2.81876 10.9C3.31715 10.9717 3.83349 10.8696 4.3194 11.0263C4.58458 11.1145 4.85445 11.1862 5.12899 11.2393C5.10403 11.2798 5.05568 11.3602 5.03072 11.3999C4.75461 11.4397 4.47539 11.4733 4.2141 11.5786C3.69075 11.779 3.12139 11.6877 2.57776 11.7494C2.54656 11.7689 2.48416 11.8063 2.45296 11.8258C2.89208 11.8968 3.34055 11.8375 3.77889 11.9085C4.10881 12.0021 4.43171 12.1245 4.77489 12.162C4.75929 12.2142 4.7281 12.318 4.7125 12.3694C4.38881 12.3913 4.06513 12.4396 3.76407 12.5652C3.26178 12.7828 2.70567 12.6744 2.17686 12.7282C2.16672 12.7555 2.14566 12.8093 2.13474 12.8366C2.53954 12.8686 2.9459 12.8592 3.34991 12.8967C3.71337 12.9645 4.04641 13.1369 4.40909 13.2094C4.38725 13.2672 4.36464 13.3257 4.3428 13.3834C4.00118 13.3857 3.66891 13.4645 3.34679 13.5682C2.87414 13.7367 2.36717 13.6431 1.87891 13.6876C1.8485 13.7094 1.78688 13.7546 1.75568 13.7765C2.20572 13.8186 2.66121 13.7843 3.10969 13.8435C3.44117 13.9317 3.75705 14.0822 4.10491 14.1072C4.08385 14.1423 4.04173 14.2125 4.02067 14.2476C3.67515 14.2866 3.32885 14.3341 2.99971 14.4511C2.50522 14.629 1.97563 14.5167 1.46788 14.5829C1.45384 14.6087 1.42654 14.6602 1.4125 14.6859C1.8485 14.707 2.28995 14.6633 2.72205 14.735C3.07147 14.8208 3.41153 14.9495 3.77109 14.9885C3.74067 15.0712 3.70947 15.1547 3.67905 15.2381C3.25554 15.2116 2.85308 15.3496 2.45374 15.4674C2.01073 15.5509 1.55523 15.5142 1.10676 15.5275L1.09272 15.6538C1.56693 15.6741 2.05051 15.6187 2.51458 15.7404C2.81798 15.8161 3.12451 15.8808 3.43259 15.9377C3.40841 15.9986 3.38501 16.0586 3.36083 16.1202C2.95525 16.1585 2.55982 16.2552 2.1675 16.3605C1.79234 16.4681 1.39924 16.4158 1.01472 16.4322C0.89149 16.4408 0.742518 16.408 0.659063 16.5313C1.17851 16.5945 1.71512 16.5048 2.22132 16.6631C2.51302 16.7473 2.80784 16.8206 3.10891 16.8596C3.08941 16.9041 3.04885 16.9922 3.02857 17.0367C2.65887 17.0499 2.29619 17.1217 1.94599 17.2403C1.43824 17.4228 0.89305 17.3151 0.368919 17.3721C0.358 17.3939 0.337721 17.436 0.326802 17.4571C0.822854 17.5468 1.34386 17.4134 1.82744 17.5834C2.13318 17.6841 2.44672 17.7613 2.77041 17.7683C2.75169 17.826 2.71581 17.9414 2.69787 17.9992C2.33909 17.9968 1.99201 18.0865 1.65273 18.1949C1.1208 18.3845 0.549089 18.2612 0 18.3275L0.0787756 18.4141C0.54363 18.4913 1.03032 18.3782 1.4866 18.5241C1.88905 18.6535 2.30633 18.7479 2.73141 18.7386C4.68052 18.7308 6.62963 18.7495 8.57796 18.7292C9.91715 18.7292 11.2766 18.4281 12.4325 17.7355C13.3903 17.1287 14.1999 16.2536 14.6413 15.2015C15.1241 14.0432 15.4806 12.8093 15.4736 11.5442C15.465 11.0716 15.2762 10.6254 15.0703 10.2082ZM12.0558 12.4654C11.736 12.4903 11.4178 12.5473 11.1198 12.6721C10.6363 12.8772 10.102 12.7703 9.59502 12.8312C9.56538 12.853 9.50767 12.8967 9.47803 12.9185C10.0115 13.0121 10.5746 12.8928 11.0902 13.0901C11.3367 13.1814 11.587 13.2648 11.8483 13.3023C11.8288 13.3592 11.8085 13.4169 11.789 13.4746C11.4131 13.4731 11.0473 13.5596 10.6924 13.6759C10.1808 13.8521 9.63012 13.7047 9.10989 13.8209C9.58956 13.9988 10.1254 13.8139 10.6121 13.9738C10.9077 14.076 11.2041 14.1867 11.5215 14.1976C11.495 14.239 11.4412 14.3217 11.4147 14.3638C11.0356 14.3521 10.6636 14.4301 10.3056 14.5471C9.79937 14.7179 9.26042 14.6258 8.73863 14.6742C8.74019 14.7031 8.74487 14.76 8.74721 14.7889C9.05529 14.7904 9.36338 14.7873 9.67224 14.7935C10.1246 14.7982 10.538 15.0041 10.9779 15.0821C10.8913 15.1656 10.8063 15.2514 10.7213 15.3379C10.3407 15.3216 9.96004 15.3684 9.60204 15.5002C9.10677 15.685 8.57172 15.579 8.05929 15.6429C8.03433 15.6671 7.98519 15.7162 7.96023 15.7404C8.55924 15.7755 9.17463 15.7076 9.75101 15.9175C9.27212 16.089 8.75813 16.0383 8.26052 16.0805C7.85026 16.1171 7.43844 16.1 7.02663 16.1046C7.63343 14.4644 8.22932 12.8202 8.84549 11.1839C9.80015 11.2135 10.8281 11.077 11.7056 11.5388C11.3429 11.6308 10.9865 11.7579 10.6129 11.7969C10.1987 11.8305 9.78221 11.8055 9.36884 11.8398C9.33374 11.864 9.26432 11.9116 9.22922 11.935C9.73776 11.9873 10.2541 11.9288 10.7587 12.0122C11.1838 12.1393 11.612 12.2719 12.0605 12.2727C12.0597 12.3203 12.0573 12.417 12.0558 12.4654Z" fill="#EFF1F4"/>
<path d="M33.5374 18.7325C34.4796 18.734 35.4312 18.6303 36.3242 18.3144C37.3912 17.9658 38.356 17.3106 39.0525 16.4277C39.6297 15.7374 39.9456 14.8779 40.2139 14.0309C40.4783 13.2291 40.6179 12.386 40.6202 11.5413C40.6233 11.156 40.4783 10.7933 40.3316 10.4431C40.1367 9.94937 39.7147 9.59137 39.281 9.30903C38.5346 8.80829 37.6244 8.61954 36.7368 8.62578C34.9687 8.625 33.2013 8.62579 31.4339 8.62501C30.7405 8.62345 30.0978 8.98144 29.4006 8.91827C29.1642 8.94089 28.8858 8.84573 28.683 9.00328C29.1237 9.07348 29.5729 9.04306 30.0152 9.1C30.3279 9.17565 30.6282 9.29733 30.9464 9.35348C30.923 9.40184 30.8762 9.49778 30.8521 9.54613C30.5502 9.61087 30.2429 9.65767 29.9489 9.75594C29.4419 9.92675 28.9006 9.83472 28.3765 9.8745L28.3804 9.97121C28.7197 9.98525 29.0589 9.98135 29.3974 9.99851C29.8139 10.0133 30.1868 10.227 30.5962 10.2832C30.5791 10.337 30.544 10.4446 30.5268 10.4985C30.225 10.5133 29.927 10.5718 29.6416 10.6685C29.1892 10.8331 28.7009 10.7824 28.2291 10.8073C28.1308 10.8034 28.0372 10.8323 27.9537 10.883C28.2759 10.9516 28.6066 10.922 28.9334 10.9391C29.3928 10.9438 29.8077 11.1731 30.2577 11.2363C30.2429 11.2808 30.2141 11.3697 30.2 11.4149C29.6743 11.3931 29.2149 11.7058 28.6947 11.7113C28.3227 11.7386 27.9452 11.6996 27.5794 11.7791C28.052 11.9679 28.5886 11.7815 29.0706 11.9476C29.3467 12.0475 29.6314 12.1262 29.9239 12.1637C29.9075 12.2151 29.8756 12.3189 29.8592 12.3711C29.2609 12.3376 28.7509 12.7346 28.1565 12.7042C27.9015 12.7096 27.6464 12.7096 27.3922 12.7112L27.3774 12.8492C27.6878 12.857 27.9982 12.868 28.3094 12.8812C28.7477 12.8859 29.1291 13.1386 29.5573 13.2026C29.5433 13.247 29.5144 13.3352 29.4996 13.3796C29.1463 13.3905 28.8016 13.4693 28.4662 13.5769C27.9561 13.7485 27.4117 13.6222 26.8899 13.7103C26.9445 13.747 27.003 13.7891 27.0724 13.7891C27.4553 13.818 27.8422 13.7899 28.2236 13.8375C28.573 13.9178 28.8998 14.0831 29.2625 14.1112C29.2344 14.1448 29.1783 14.2118 29.1502 14.2454C28.8132 14.2922 28.4732 14.3335 28.1511 14.4497C27.6301 14.6283 27.0739 14.5215 26.5373 14.5862C26.7323 14.7867 27.0482 14.6541 27.2962 14.6946C27.8601 14.6509 28.3734 14.9232 28.9224 14.9918C28.8881 15.0752 28.8538 15.1587 28.8203 15.2422C28.4685 15.2219 28.1238 15.2944 27.7946 15.4122C27.3095 15.5861 26.7877 15.4777 26.2878 15.544C26.2589 15.5666 26.202 15.6134 26.1731 15.636C26.6621 15.693 27.1636 15.6087 27.6449 15.7351C27.9545 15.8107 28.2665 15.8778 28.58 15.9379C28.5637 15.9823 28.5317 16.072 28.5161 16.1173C28.116 16.1609 27.7229 16.2467 27.336 16.3544C26.8774 16.4854 26.3962 16.3957 25.929 16.448C25.8962 16.4675 25.8307 16.5072 25.7987 16.5275C26.2168 16.5829 26.6419 16.5353 27.0591 16.5938C27.4592 16.6671 27.8414 16.8231 28.2493 16.8559C28.2322 16.9035 28.1979 16.9986 28.1807 17.047C27.772 17.0306 27.3805 17.1507 26.9944 17.2685C26.5607 17.4089 26.1006 17.3262 25.6544 17.359C25.5686 17.3582 25.5 17.3948 25.4477 17.4674C25.9609 17.5298 26.4921 17.4221 26.9905 17.5883C27.2916 17.6873 27.6028 17.7544 27.9202 17.7716C27.8937 17.8472 27.8672 17.9229 27.8414 17.9993C27.3516 17.986 26.9024 18.192 26.4313 18.2855C26.0288 18.323 25.624 18.2972 25.2208 18.3167C25.2161 18.3464 25.2075 18.4057 25.2036 18.4353C25.7418 18.4595 26.301 18.3815 26.8166 18.5788C27.4514 18.7949 28.1277 18.7293 28.786 18.7379C30.37 18.734 31.9534 18.7449 33.5374 18.7325ZM33.9836 11.1895C34.9375 11.1996 35.9553 11.0889 36.8398 11.5233C36.0817 11.8501 35.251 11.8197 34.4445 11.8361C34.4367 11.8642 34.4219 11.9195 34.4149 11.9476C34.7472 11.9523 35.0802 11.9663 35.4125 11.9702C36.0255 11.9492 36.5769 12.2963 37.1939 12.2705C37.1962 12.3189 37.2025 12.4148 37.2056 12.4632C36.9108 12.4936 36.6136 12.531 36.3383 12.6465C35.8235 12.8726 35.2502 12.7861 34.705 12.8235C34.6933 12.8492 34.6707 12.8999 34.659 12.9257C35.1933 13.0076 35.758 12.8929 36.2696 13.102C36.5013 13.1901 36.7384 13.2626 36.9833 13.3024C36.9739 13.3453 36.9537 13.4311 36.9435 13.4748C36.5762 13.4763 36.2166 13.5504 35.8703 13.6674C35.3563 13.8499 34.8049 13.7236 34.2761 13.8016C34.3845 13.9303 34.56 13.885 34.7058 13.8991C35.1052 13.9139 35.5209 13.8632 35.8999 14.0207C36.1519 14.1237 36.4194 14.1721 36.6869 14.2111C36.6549 14.2438 36.591 14.3093 36.559 14.3421C36.2143 14.3865 35.8617 14.3998 35.5318 14.5238C35.0646 14.697 34.5615 14.6424 34.0748 14.6634C33.9734 14.6463 33.8986 14.7001 33.8416 14.775C34.2597 14.8069 34.6809 14.7664 35.0974 14.8186C35.4413 14.8888 35.7728 15.0105 36.1183 15.0815C36.0349 15.1673 35.9514 15.2531 35.8695 15.3389C35.6145 15.3436 35.3547 15.3248 35.1067 15.395C34.794 15.4816 34.4867 15.6056 34.1583 15.6111C33.837 15.6337 33.5109 15.5963 33.1935 15.647C33.1701 15.6696 33.1225 15.7133 33.0983 15.7351C33.6934 15.7905 34.3143 15.6891 34.8813 15.9246C34.3977 16.0946 33.8798 16.033 33.3791 16.0822C32.9782 16.1157 32.5758 16.1032 32.1749 16.1009C32.7778 14.4638 33.3846 12.8282 33.9836 11.1895Z" fill="#EFF1F4"/>
<path d="M40.7597 17.3616C41.0327 17.4934 41.3541 17.4076 41.6465 17.4341C42.1348 17.4006 42.5723 17.6642 43.052 17.6986C43.233 17.7149 43.417 17.7064 43.5988 17.7266C43.7633 17.8577 43.9053 18.016 44.0714 18.1462C43.5387 18.3155 42.974 18.2188 42.4265 18.2617C42.3399 18.2562 42.2783 18.2929 42.2401 18.3724C42.616 18.3888 42.992 18.3818 43.3679 18.3919C43.8998 18.3982 44.3912 18.6563 44.9247 18.6571C45.3006 18.6493 45.6586 18.771 46.0283 18.8162C47.0321 18.9449 48.0531 18.9465 49.0585 18.8248C50.7681 18.6197 52.4053 17.7836 53.5346 16.4771C53.9465 15.992 54.2998 15.4616 54.6367 14.9219C53.4871 14.9141 52.3374 14.9211 51.1877 14.918C50.8422 15.3969 50.4452 15.8563 49.9367 16.1667C49.3042 16.5559 48.5289 16.6542 47.8012 16.5739C47.3699 16.5216 46.9159 16.3118 46.7248 15.8992C46.5322 15.4437 46.6453 14.9367 46.7521 14.4742C46.951 13.7489 47.2201 13.0305 47.6444 12.4042C48.2535 11.4761 49.3525 10.8919 50.4632 10.9129C50.974 10.909 51.5395 11.0564 51.8523 11.4901C52.0629 11.7607 52.066 12.1219 52.0535 12.4494C53.2063 12.4338 54.359 12.4479 55.5126 12.4416C55.6234 11.5369 55.5313 10.5284 54.9323 9.79915C54.4051 9.14087 53.5635 8.85073 52.7578 8.72125C51.0575 8.45139 49.34 8.73139 47.6467 8.91468C46.9198 8.9334 46.1921 8.91546 45.4652 8.92326C45.3599 8.91156 45.2655 8.94822 45.1891 9.01686C46.1102 9.07535 47.0345 9.05196 47.9564 9.10343C47.5056 9.23681 47.1055 9.52773 46.6289 9.56595C46.1523 9.61742 45.6883 9.75314 45.2102 9.79369C44.6463 9.82021 44.08 9.78745 43.5169 9.81943C43.481 9.84127 43.4092 9.88495 43.3741 9.90601C44.2438 9.9762 45.1376 9.84205 45.987 10.094C45.824 10.2227 45.6586 10.3482 45.4948 10.4746C45.1509 10.491 44.8061 10.53 44.4747 10.6251C43.8164 10.8287 43.1183 10.7523 42.4398 10.7928C42.4405 10.817 42.4413 10.8661 42.4413 10.8903C42.8266 10.902 43.2119 10.9012 43.598 10.9129C44.0051 10.92 44.3904 11.0627 44.7835 11.1524C44.7219 11.2218 44.6603 11.2912 44.5987 11.3598C44.2266 11.3505 43.8569 11.409 43.506 11.5314C42.96 11.7202 42.3742 11.6375 41.8095 11.6843C41.737 11.6757 41.698 11.7436 41.652 11.7841C42.0147 11.813 42.3789 11.8099 42.7432 11.8192C43.2002 11.8192 43.612 12.0571 44.0636 12.1024C44.0168 12.1749 43.97 12.2482 43.9248 12.3208C43.5707 12.3309 43.2189 12.3847 42.8898 12.5173C42.3711 12.7256 41.8033 12.6164 41.2628 12.6803C41.2339 12.7022 41.1762 12.7474 41.1474 12.7692C41.5927 12.8301 42.0451 12.7942 42.492 12.8449C42.8391 12.912 43.1643 13.0586 43.5083 13.1405C43.4794 13.2013 43.4506 13.2637 43.4225 13.3253C42.967 13.3121 42.5349 13.4493 42.1013 13.5656C41.6169 13.6943 41.0982 13.532 40.6217 13.6841C41.1637 13.8339 41.7479 13.6584 42.283 13.8526C42.5716 13.9657 42.875 14.0218 43.1807 14.0663C43.1558 14.0975 43.1058 14.1615 43.0809 14.1926C42.7541 14.2355 42.4203 14.2465 42.1059 14.3588C41.5592 14.5553 40.9719 14.4929 40.4025 14.5117C40.3908 14.5413 40.3659 14.5998 40.3542 14.6294C40.7987 14.652 41.2488 14.6091 41.6902 14.6801C42.1083 14.7815 42.5193 14.9336 42.9553 14.9391C42.9366 14.9991 42.8999 15.1185 42.882 15.1777C42.5614 15.184 42.244 15.2308 41.9429 15.3423C41.4734 15.5178 40.9656 15.4484 40.4766 15.478C40.3908 15.4765 40.3214 15.51 40.2676 15.5794C40.7543 15.6434 41.2534 15.5529 41.7331 15.6792C42.1114 15.7721 42.4905 15.8719 42.882 15.8906C42.8789 15.9366 42.8726 16.0279 42.8695 16.0739C42.2588 16.1995 41.6559 16.4218 41.0226 16.3726C40.8167 16.3991 40.5515 16.3048 40.397 16.4787C40.9469 16.531 41.5155 16.4514 42.0482 16.6339C42.3711 16.7369 42.7065 16.8032 43.0481 16.7915C43.0832 16.8601 43.1183 16.928 43.155 16.9966C42.8773 17.0512 42.6059 17.1292 42.336 17.2119C41.8251 17.3795 41.2745 17.2134 40.7597 17.3616Z" fill="#EFF1F4"/>
<path d="M38.1671 20.9492C37.7849 21.7214 37.4191 22.5013 37.0557 23.2821C37.2639 23.2821 37.4722 23.2805 37.6812 23.2797C38.0431 22.5068 38.4299 21.7448 38.7731 20.9625C38.5711 20.9562 38.3683 20.9539 38.1671 20.9492Z" fill="#EFF1F4"/>
<path d="M39.8003 20.9616C39.7083 21.0903 39.6482 21.2385 39.5796 21.3797C39.7941 21.3812 40.0086 21.3805 40.2231 21.3758C40.2816 21.2369 40.3416 21.0989 40.3985 20.9593C40.1989 20.9562 39.9992 20.9437 39.8003 20.9616Z" fill="#EFF1F4"/>
<path d="M49.2217 20.9569C49.16 21.0989 49.0969 21.2401 49.0337 21.3812C49.2412 21.3664 49.4658 21.4171 49.6639 21.3477C49.7481 21.2307 49.7871 21.0895 49.837 20.9562C49.6319 20.9546 49.4268 20.9546 49.2217 20.9569Z" fill="#EFF1F4"/>
<path d="M63.2451 23.2825C63.4417 23.2817 63.6398 23.2817 63.8379 23.2832C64.213 22.5127 64.5898 21.7428 64.9329 20.9582C64.7294 20.9559 64.5258 20.9559 64.323 20.9551C63.9666 21.7319 63.5501 22.4838 63.2451 23.2825Z" fill="#EFF1F4"/>
<path d="M33.5275 21.0643C32.9113 20.881 32.2616 20.9839 31.6299 20.9512C31.2298 21.714 30.8842 22.5041 30.5083 23.2786C31.0473 23.2739 31.5885 23.3035 32.1259 23.2544C32.9659 23.1818 33.749 22.5298 33.8918 21.6859C33.9619 21.4191 33.7911 21.1352 33.5275 21.0643ZM32.8544 22.4846C32.4886 22.9135 31.8709 22.8683 31.3616 22.8722C31.5651 22.3621 31.828 21.8785 32.0557 21.3794C32.4231 21.4137 32.8934 21.2499 33.1742 21.5603C33.2639 21.8973 33.051 22.2272 32.8544 22.4846Z" fill="#EFF1F4"/>
<path d="M60.2096 20.9539C59.6925 21.5264 59.2011 22.1215 58.6777 22.6877C58.7417 22.1121 58.7846 21.535 58.8314 20.957C58.5943 20.9562 58.358 20.9547 58.1216 20.9531C58.0748 21.7276 58.0857 22.506 58.1115 23.2813C58.3197 23.2805 58.5288 23.2797 58.7378 23.2782C59.4382 22.4959 60.2072 21.7744 60.8757 20.9656C60.6526 20.9547 60.4311 20.9539 60.2096 20.9539Z" fill="#EFF1F4"/>
<path d="M36.3419 21.5628C35.6992 21.4029 34.9512 21.6065 34.5472 22.1485C34.3756 22.3903 34.2087 22.6968 34.3101 22.9995C34.4435 23.2912 34.8093 23.3653 35.1002 23.352C35.5713 23.3044 36.0892 23.1711 36.3856 22.7725C36.214 22.7647 36.0416 22.7561 35.87 22.7725C35.7062 22.7959 35.5737 22.9137 35.4106 22.941C35.2523 22.9675 35.0979 22.9152 34.9458 22.8833C34.9466 22.8045 34.9481 22.6454 34.9489 22.5658C35.4777 22.5487 36.0073 22.5604 36.5369 22.5643C36.6422 22.3521 36.7451 22.115 36.6944 21.8732C36.6391 21.7188 36.4948 21.6088 36.3419 21.5628ZM36.0167 22.2569C35.7148 22.2577 35.413 22.2601 35.1127 22.239C35.3225 21.92 35.7421 21.7991 36.0806 21.9894C36.0596 22.0783 36.0377 22.1673 36.0167 22.2569Z" fill="#EFF1F4"/>
<path d="M41.4339 22.7882C41.4705 22.3811 41.5033 21.9732 41.5298 21.5652C41.2982 21.5645 41.0673 21.5645 40.8364 21.5652C40.8458 22.1369 40.8567 22.7079 40.8645 23.2796C41.0782 23.2796 41.2927 23.2804 41.5072 23.2811C42.0625 22.7203 42.6108 22.1518 43.1482 21.573C42.9306 21.566 42.7138 21.5645 42.497 21.5645C42.1522 21.9809 41.7911 22.3826 41.4339 22.7882Z" fill="#EFF1F4"/>
<path d="M43.3344 22.4413C43.2455 22.6285 43.1917 22.8648 43.3024 23.0543C43.421 23.2665 43.6846 23.3211 43.9077 23.3437C44.4474 23.3647 45.009 23.1776 45.3748 22.7681C45.1151 22.7689 44.835 22.7158 44.5995 22.857C44.4037 22.9615 44.1651 22.9849 43.9599 22.896C43.91 22.7946 43.8851 22.6862 43.8843 22.5715C44.4209 22.5497 44.9591 22.5598 45.4965 22.5614C45.654 22.2946 45.7538 21.9577 45.5627 21.6793C44.7867 21.2667 43.694 21.6348 43.3344 22.4413ZM44.9801 22.2385C44.6752 22.2806 44.3663 22.2494 44.0605 22.244C44.2594 22.0045 44.6034 21.7947 44.9154 21.9405C45.0573 21.953 45.0792 22.1574 44.9801 22.2385Z" fill="#EFF1F4"/>
<path d="M47.2667 21.8399C47.3073 21.7486 47.3486 21.6582 47.3907 21.5677C47.195 21.5669 46.9992 21.5677 46.8042 21.5716C46.5437 22.1456 46.2583 22.708 45.9946 23.2813C46.2068 23.2813 46.4189 23.2805 46.6311 23.2789C46.7988 22.9373 46.9306 22.5738 47.1396 22.2541C47.3338 21.9967 47.6778 21.9904 47.9703 21.9787C48.0405 21.8266 48.1122 21.6753 48.1832 21.524C47.8431 21.5006 47.5327 21.6418 47.2667 21.8399Z" fill="#EFF1F4"/>
<path d="M52.3249 21.6026C51.9193 21.4411 51.4623 21.5495 51.0902 21.7484C51.1066 21.7024 51.1394 21.6104 51.1558 21.5651C50.9522 21.5651 50.7502 21.5651 50.5482 21.5667C50.2822 22.14 50.0006 22.7054 49.7417 23.2818C49.9515 23.281 50.1629 23.2802 50.3735 23.2748C50.5638 22.9027 50.6964 22.4987 50.9304 22.1517C51.1238 21.8896 51.4833 21.9169 51.7688 21.9567C51.6885 22.4348 51.3749 22.8263 51.226 23.281C51.435 23.281 51.6456 23.2802 51.8562 23.2756C52.02 22.8645 52.2376 22.4785 52.4099 22.0713C52.4692 21.9216 52.5027 21.6852 52.3249 21.6026Z" fill="#EFF1F4"/>
<path d="M55.1621 21.5674C55.1324 21.6236 55.1028 21.6797 55.0747 21.7367C54.971 21.6595 54.8813 21.5487 54.7456 21.5362C54.0031 21.3888 53.2184 21.8981 53.011 22.6173C52.9501 22.8294 53.011 23.0907 53.2223 23.1929C53.6185 23.366 54.0826 23.2763 54.45 23.0712C54.3439 23.2287 54.2581 23.4097 54.0998 23.5228C53.8931 23.6374 53.6482 23.5984 53.4236 23.5984C53.3955 23.5587 53.3385 23.4775 53.3097 23.4378C53.1022 23.4417 52.8955 23.4432 52.6888 23.4417C52.6685 23.4931 52.6272 23.5945 52.6069 23.6452C52.7075 23.8433 52.9135 23.9245 53.1217 23.9572C53.4594 24.0641 53.8057 23.9424 54.1434 23.8964C54.5053 23.8293 54.808 23.5688 54.9601 23.2373C55.2284 22.6835 55.5006 22.1313 55.7533 21.5705C55.556 21.5666 55.3586 21.5666 55.1621 21.5674ZM53.6529 22.767C53.6302 22.2257 54.2433 21.7008 54.7588 21.9847C54.9866 22.5541 54.1357 23.1695 53.6529 22.767Z" fill="#EFF1F4"/>
<path d="M62.3258 21.5264C61.7697 21.4648 61.0919 21.5709 60.7885 22.1004C61.0171 22.095 61.2838 22.1761 61.4741 22.0076C61.6816 21.8321 61.9671 21.8415 62.2112 21.9273C62.2057 21.9718 62.1932 22.0614 62.187 22.1067C61.8758 22.226 61.542 22.2455 61.216 22.2931C60.8931 22.3446 60.5312 22.474 60.3915 22.7977C60.3065 22.9459 60.2878 23.19 60.4734 23.2696C60.8658 23.4568 61.3236 23.307 61.6816 23.1066C61.6902 23.151 61.7073 23.2392 61.7159 23.2829C61.9288 23.2813 62.1425 23.2805 62.357 23.2813C62.3274 22.7455 62.7821 22.3454 62.8687 21.8345C62.8367 21.5849 62.5286 21.542 62.3258 21.5264ZM61.0023 22.9467C60.9625 22.8172 61.0358 22.6792 61.1629 22.6363C61.4421 22.5419 61.7354 22.5006 62.0248 22.4491C61.8696 22.8515 61.4195 23.0887 61.0023 22.9467Z" fill="#EFF1F4"/>
<path d="M66.61 22.6004C66.4384 22.9241 66.0102 23.0115 65.6896 22.8757C65.8113 22.4156 66.0858 22.0186 66.2363 21.5693C66.0367 21.5662 65.8386 21.5654 65.6397 21.5631C65.4548 21.9336 65.2793 22.3087 65.1007 22.6823C65.0329 22.8461 64.9307 23.0645 65.0836 23.2143C65.4884 23.4428 65.9907 23.3117 66.376 23.1012C66.3619 23.1456 66.3338 23.2353 66.3198 23.2805C66.5203 23.2805 66.7215 23.2805 66.9227 23.2805C67.1934 22.7096 67.4663 22.1395 67.7362 21.5678C67.5272 21.5654 67.3182 21.5646 67.1107 21.5615C66.9414 21.9063 66.7901 22.2604 66.61 22.6004Z" fill="#EFF1F4"/>
<path d="M68.081 22.7703C68.0334 23.0885 68.3454 23.3077 68.6317 23.3303C69.1995 23.3966 69.8195 23.2102 70.2041 22.7711C69.9381 22.7609 69.6534 22.7219 69.4163 22.8709C69.2096 22.9863 68.9686 22.9387 68.7494 22.8958C68.7494 22.7835 68.751 22.672 68.7565 22.5605C69.2798 22.5581 69.8032 22.5581 70.3265 22.5612C70.4911 22.3187 70.548 22.0192 70.4614 21.7368C69.6097 21.1581 68.2261 21.7337 68.081 22.7703ZM69.8492 22.2532C69.5364 22.2539 69.2244 22.2625 68.914 22.243C69.0942 21.9771 69.474 21.7875 69.7782 21.9521C69.9123 21.9973 69.8375 22.1494 69.8492 22.2532Z" fill="#EFF1F4"/>
<path d="M39.4905 21.5706C39.2221 22.1415 38.9421 22.707 38.6816 23.2818C38.8907 23.2803 39.1013 23.2795 39.3118 23.2795C39.5755 22.707 39.8633 22.1462 40.1121 21.5683C39.9046 21.5652 39.6971 21.5659 39.4905 21.5706Z" fill="#EFF1F4"/>
<path d="M48.126 23.28C48.3373 23.2815 48.5487 23.2815 48.7601 23.2807C49.0229 22.7067 49.3006 22.1389 49.5705 21.568C49.3638 21.5664 49.1571 21.5648 48.9504 21.5625C48.6704 22.1326 48.3974 22.7059 48.126 23.28Z" fill="#EFF1F4"/>
</svg>
