<svg width="114" height="24" viewBox="0 0 114 24" fill="none" xmlns="http://www.w3.org/2000/svg">
<path d="M17.3027 6.13509L17.2004 9.41932L8.63477 18.7299C12.2128 18.7299 14.4814 18.695 15.7897 18.6223C15.4108 20.3894 15.1021 21.8338 14.7917 23.9994C13.0713 23.854 10.3889 23.8179 7.70478 23.8179C4.71321 23.8179 2.09824 23.854 0 23.9994L0.0697636 20.6779L8.63477 11.4046C4.88525 11.4046 3.50889 11.4401 1.96167 11.4762C2.30458 9.81603 2.5458 7.97615 2.78642 6.13509C5.50367 6.24329 6.57023 6.27876 10.1134 6.27876C13.3817 6.27876 15.2381 6.24329 17.3027 6.13509ZM27.0383 5.15958C21.4643 5.15958 17.2004 10.14 17.2004 16.0966C17.2004 20.5709 19.7799 23.9994 24.8017 23.9994C30.4088 23.9994 34.6402 19.0184 34.6402 13.027C34.6402 8.58984 32.1281 5.15958 27.0383 5.15958ZM25.3521 19.2123C24.1135 19.2123 23.3916 18.0919 23.3916 15.8908C23.3916 12.6066 24.7331 9.97271 26.385 9.97271C27.5881 9.97271 28.3106 11.0564 28.3106 13.2924C28.31 16.5406 27.004 19.2123 25.3521 19.2123ZM105.825 4.91245C100.179 4.91245 95.8587 9.95852 95.8587 15.9901C95.8587 20.5254 98.4719 23.9994 103.56 23.9994C109.24 23.9994 113.527 18.9528 113.527 12.8839C113.527 8.38705 110.984 4.91245 105.825 4.91245ZM104.01 19.1934C102.771 19.1934 102.05 18.073 102.05 15.8719C102.05 12.5877 103.392 9.95438 105.043 9.95438C106.246 9.95438 106.97 11.0369 106.97 13.2735C106.969 16.5228 105.662 19.1934 104.01 19.1934ZM63.5686 11.6565C64.0162 8.58984 63.7755 5.81051 60.3707 5.81051C57.8935 5.81051 55.2105 7.90403 53.3186 11.4046C53.7319 8.51653 53.4901 5.81051 50.1195 5.81051C47.5743 5.81051 44.8222 8.01163 42.9297 11.6565C43.4115 9.27447 43.3087 6.56728 43.1709 5.99024C41.2104 6.31542 39.4912 6.49515 37.0825 6.56728C37.1517 8.22801 37.0482 10.3919 36.7384 12.4505L35.9474 17.8631C35.6376 19.9933 35.2935 22.4475 34.9494 23.9994H41.3476C41.3825 23.06 41.6237 21.5807 41.7951 20.2818L42.3456 16.5654C42.7925 14.1461 44.7181 11.2964 46.1974 11.2964C47.0576 11.2964 47.0239 12.1259 46.7827 13.6779L46.1631 17.8631C45.8527 19.9933 45.5098 22.4475 45.1651 23.9994H51.6319C51.6667 23.06 51.8731 21.5807 52.0445 20.2818L52.5944 16.5654C53.0419 14.1461 54.9693 11.2964 56.4474 11.2964C57.3082 11.2964 57.2745 12.0893 57.1355 13.173L55.5907 23.9994H61.4928L63.5686 11.6565ZM94.4711 18.3332L93.7829 22.5923C92.7164 23.1693 90.721 24 88.4164 24C84.4948 24 83.7044 21.9065 84.3228 17.4676L85.3208 10.3215H83.391L83.9361 5.69582L86.0433 5.59413L86.8349 2.23777L92.7844 0L92.0282 5.59413H96.1218C95.9846 6.17116 95.5016 9.34838 95.3662 10.3215H91.3737L90.4792 16.926C90.2386 18.6223 90.3769 19.2359 91.5452 19.2359C92.4072 19.2354 93.6789 18.7299 94.4711 18.3332ZM71.9001 20.6336C74.0657 20.3652 75.5562 18.2776 75.9145 16.1947L75.9748 15.6366C75.0442 15.4285 73.6992 15.27 72.3949 15.4297C71.1528 15.581 70.1193 16.0972 69.5636 16.8445C69.1444 17.3813 68.9339 18.0234 69.0273 18.789C69.1686 19.936 70.4368 20.8121 71.9001 20.6336ZM70.0567 23.9326C67 24.308 64.9869 23.0948 64.3827 20.335C64.0037 18.5986 64.5299 16.6204 65.4505 15.4403C66.6832 13.8966 68.6921 12.9057 71.1439 12.6066C73.1168 12.3618 74.7793 12.4824 76.3342 12.7769L76.3987 12.5102C76.443 12.084 76.4879 11.6583 76.4259 11.1486C76.2645 9.84027 75.2328 9.06104 72.6852 9.37439C70.9665 9.58546 69.3312 10.2062 68.0613 10.9127L66.8262 7.18037C68.5473 6.19244 70.7165 5.44041 73.199 5.13534C77.9412 4.55358 81.2733 6.06592 81.7002 9.5423C81.8131 10.467 81.8267 11.4466 81.7102 12.3358C81.1012 16.6346 80.711 19.8691 80.5402 22.0371C80.5124 22.373 80.5148 22.9494 80.5449 23.7671L74.6599 23.7617C74.7852 23.423 74.8976 22.9636 74.9975 22.3871C75.0637 22.0082 75.111 21.5299 75.1406 20.9505C73.8972 22.6573 72.1874 23.6707 70.0567 23.9326Z" fill="#E23744"/>
</svg>
