<svg xmlns="http://www.w3.org/2000/svg" width="122" height="20" viewBox="0 0 122 20">
    <g fill="none" fill-rule="evenodd">
        <g fill-rule="nonzero">
            <g>
                <g>
                    <path fill="#fff" d="M121.297.007L116.873.007 116.873 7.535 115.083 9.713 113.285 7.535 113.285.007 108.861.007 108.861 9.132 112.87 13.978 112.87 19.169 117.288 19.169 117.288 13.978 121.297 9.132 121.297.007M58.516.111L62.933.111 62.933 19.211 58.516 19.211 58.516.111M100.607 19.093L96.183 19.093 96.183 2.212 98.395 0 106.621 0 106.621 4.424 100.607 4.424 100.607 19.093M86.339 14.759L86.339 11.869 91.186 11.869 91.186 7.452 86.339 7.452 86.339 4.431 88.054 4.424 93.183 4.445 93.197.021 88.061 0 84.113.021 81.915 2.233 81.915 16.964 84.128 19.176 88.04 19.176 93.183 19.197 93.197 14.78 88.047 14.759 86.339 14.759M74.118 12.139L72.321 14.309 70.523 12.139 70.523.104 66.106.104 66.106 13.722 70.599 19.169 74.042 19.169 78.535 13.722 78.535.104 74.118.104 74.118 12.139M9.083 14.807H4.438V4.438h4.645v10.37zM7.376.062H0v19.162h11.288l2.199-2.212V2.274L11.275.062h-3.9M22.48 4.424L27.609 4.445 27.63.021 22.487 0 18.54.021 16.341 2.233 16.341 16.964 18.554 19.176 22.466 19.176 27.609 19.197 27.63 14.78 22.48 14.759 20.766 14.759 20.766 11.869 25.611 11.869 25.611 7.452 20.766 7.452 20.766 4.431 22.48 4.424M34.543.062L30.125.062 30.125 16.991 32.337 19.197 40.557 19.197 40.557 14.78 34.543 14.78 34.543.062M51.105.104L51.105 7.452 47.138 7.452 47.138.062 42.72.062 42.72 19.211 47.138 19.211 47.138 11.869 51.105 11.869 51.105 19.211 55.53 19.211 55.53.104 51.105.104" transform="translate(-768 -277) translate(768 262) translate(0 15)"/>
                    <path fill="#E36556" d="M.028 14.807L4.431 14.807 4.431 19.211.028 19.211.028 14.807M116.887.007L121.29.007 121.29 4.411 116.887 4.411 116.887.007" transform="translate(-768 -277) translate(768 262) translate(0 15)"/>
                </g>
            </g>
        </g>
    </g>
</svg>
