<svg width="148" height="24" viewBox="0 0 148 24" fill="none" xmlns="http://www.w3.org/2000/svg">
    <g clip-path="url(#b8jb80ot6a)">
        <path d="M147.196 16.664c-1.215-3.583-2.421-7.172-3.642-10.753-.157-.46-.234-1.15-.901-1.064-1.24.16-2.559.197-3.097 1.753-.717 2.077-1.572 4.107-2.338 6.17-.252.677-.535 1.21-1.387 1.13-1.061-.1-1.077.47-.738 1.23.279.633.827 1.196.393 1.986-.858 1.56.609 1.6 1.391 2.061 1.094.65 1.322-.234 1.522-.956.305-1.102.904-1.61 2.088-1.422.6.096 1.228.019 1.84.01.47-.006.704.215.904.652.935 2.058.95 2.048 3.03 1.356.532-.178 1.07-.338 1.605-.507v-.308c-.483-.32-.51-.864-.67-1.338zm-5.272-2.691c-.495.188-1.169.264-1.615-.065-.455-.335.006-.827.123-1.23.228-.772.514-1.526.772-2.288.095.024.191.049.283.077.175.778.397 1.55.511 2.337.058.381.556.929-.074 1.169zM114.621 8.354c2.051.013 2.048.013 1.919 2.058-.043.664-.016 1.338-.123 1.987-.252 1.51-.049 3.07-.498 4.552-.231.766-1.246 1.563-.794 2.165.468.625 1.624.191 2.479.21.56.012 1.126-.031 1.682-.111 2.63-.375 5.094-1.147 6.97-3.165 2.169-2.331 2.568-6.351.88-8.498-3.027-3.848-9.72-3.485-12.515.803zm6.422 8c-.806.2-1.267.127-1.16-.9.234-2.234.412-4.476.591-6.715.104-1.31.941-1.043 1.624-.68 1.556.83 1.824 2.34 1.842 3.322-.055 2.98-1.095 4.527-2.897 4.974zM112.572 4.958c-1.575-.231-2.811.815-2.814 2.426-.003 1.738 0 3.479 0 5.503-.348-.375-.434-.437-.483-.523-1.119-2.012-2.233-4.026-3.349-6.04-.939-1.699-.939-1.699-2.682-.684-.265.154-.529.314-.8.459-.443.24-.585.578-.277 1.002.754 1.028.421 2.175.345 3.273-.185 2.704-.434 5.404-.653 8.108-.03.387-.196.855.391.996.981.24 2.768-1.076 2.845-2.088l.317-4.091c.105-.021.206-.043.311-.061 1.165 1.799 2.328 3.598 3.497 5.391.187.29.298.692.701.757.689.114 2.787-1.701 2.808-2.445.108-3.734.197-7.468.295-11.202.022-.363.083-.705-.452-.781zM131.909 5.374c-1.205.233-1.639.722-1.694 1.996-.151 3.466-.493 6.926-.76 10.39-.108 1.937-.108 1.937 1.731 1.424.197-.056.391-.148.591-.163 1.276-.102 1.615-.816 1.673-2.04.16-3.21.483-6.416.735-9.624.231-2.894.333-2.485-2.276-1.983zM97.907 5.413c-.2.05-.394.117-.597.145-.725.095-1.018.48-1.064 1.227-.246 3.93-.538 7.858-.815 11.786-.025.35-.123.726.326.91.95.394 3.525-1.082 3.617-2.11.302-3.361.579-6.723.769-8.965.154-3.568.154-3.568-2.236-2.993zM30.6 8.325c.526.213.923.074 1.317-.027.47-.123.689.046.652.523-.215 2.752-.012 5.58-.821 8.227-.748 2.452-.938 2.396 1.688 2.292.616-.025 1.234-.046 1.84-.133 2.583-.372 5.004-1.14 6.859-3.11 2.199-2.33 2.623-6.307.95-8.513-2.95-3.881-9.84-3.521-12.484.742zm7.567 7.478c-.64.43-1.437.91-2.125.523-.545-.305-.074-1.135-.157-1.726.169-1.88.381-3.755.492-5.635.083-1.38.787-1.32 1.734-.892.139.062.265.154.385.246 2.008 1.594 1.82 6.044-.33 7.484zM66.196 10.627c1.741-1.474 3.048-3.35 4.525-5.085-3.737-1.051-5.752 1.099-7.542 3.738-.062-.779 0-1.388.037-1.994.154-2.488.163-2.426-2.282-1.931-1.188.24-1.658.683-1.707 1.987-.136 3.678-.474 7.35-.723 11.026-.025.379-.268.843.237 1.092.762.378 3.457-1.26 3.558-2.134.126-1.105-.03-2.246.505-3.633 1.196 1.52 2.208 2.787 3.205 4.07 1.494 1.919 2.168 1.986 4.106.485.501-.39.483-.6.058-1.052-1.36-1.46-2.599-3.035-4.004-4.447-.822-.827-.932-1.307.027-2.122zM89.947 17.692c-1.363-4.014-2.72-8.028-4.09-12.038-.13-.379-.256-.757-.776-.837-1.067-.163-2.645.683-3.079 1.76a232.12 232.12 0 0 0-2.371 6.145c-.27.738-.57 1.273-1.489 1.178-1.166-.12-.938.553-.643 1.233.277.63.837 1.19.376 1.98-.914 1.557.593 1.57 1.344 2.046 1.052.668 1.384-.138 1.565-.886.295-1.224.978-1.679 2.2-1.467.396.068.818.04 1.224-.006.827-.092 1.405.126 1.525 1.052.212 1.64 1.083 1.836 2.42 1.132.447-.234.973-.314 1.45-.49.224-.082.498-.165.451-.479-.043-.132-.073-.227-.107-.323zm-5.653-3.725c-.49.166-1.188.179-1.612-.061-.418-.24.018-.803.144-1.206.256-.815.545-1.62.942-2.79.276 1.2.504 2.027.649 2.87.064.397.476.984-.123 1.187zM53.136 5.841c-.181-.535-.341-1.12-1.085-1.012-1.443.01-2.421.652-2.953 2a282.086 282.086 0 0 0-2.252 5.88c-.267.73-.575 1.292-1.5 1.194-.97-.102-.994.421-.683 1.135.295.676.873 1.28.409 2.128-.886 1.618.71 1.55 1.442 2.012 1.12.7 1.32-.308 1.498-.988.305-1.156.954-1.568 2.107-1.387.498.08 1.024.028 1.535-.003.643-.037.99.166 1.233.84.698 1.938.742 1.92 2.707 1.26.387-.128.778-.26 1.169-.377.504-.151.547-.4.372-.902-1.353-3.918-2.667-7.852-3.999-11.78zm-1.639 8.154c-.501.034-1.024.077-1.51-.025-.412-.086-.237-.48-.145-.753.32-.941.655-1.876 1.129-3.227.323 1.415.554 2.424.787 3.433.065.264.09.547-.261.572zM73.931 5.462c-.91.219-1.233.637-1.288 1.547-.23 3.777-.53 7.551-.788 11.328-.024.382-.206.852.228 1.12.714.44 3.632-1.012 3.703-1.858.274-3.211.517-6.425.77-9.636 0-.154-.007-.308 0-.462.116-2.74.128-2.7-2.624-2.039z" fill="#EFF1F4"/>
        <path d="M0 .025c.983-.056 16.964 0 16.964 0s8.78 1.308 9.435 12.055c0-.056.329 10.092-10.255 11.889-.11-.056-12.817 0-12.817 0V3.296L0 .025z" fill="#EFF1F4" fill-opacity=".4"/>
        <path d="m6.974 15.937 3.232-4.497h6.872l3.192 4.497-3.07-1.146.084 4.787s-.983 2.125-7.364 3.149V14.87l-2.946 1.066zM9.646 5.932c0-2.059 1.72-3.727 3.847-3.727 2.126 0 3.846 1.668 3.846 3.727 0 2.058-2.292 1.778-3.846 3.726-2.126 0-3.847-1.668-3.847-3.726z" fill="#fff"/>
        <path d="M16.826 6.989s.734.805 1.431.793a.676.676 0 0 0 .649-.621c.04-.491-.083-1.321-1.31-1.527-1.913-.574-.77 1.355-.77 1.355z" fill="#D1D1D1"/>
        <path d="M13.585 10.832c1.905 0 3.45-1.498 3.45-3.346s-1.545-3.345-3.45-3.345c-1.906 0-3.45 1.497-3.45 3.345s1.544 3.346 3.45 3.346z" fill="#fff"/>
        <path d="m16.586 5.036 1.65.525c.175.055.175.32.003.378l-1.65.543c-.12.04-.24-.055-.24-.187V5.223a.184.184 0 0 1 .237-.187z" fill="#fff"/>
        <path d="M26.132 9.877c-.98 1.945-6.547 12.147-22.805 14.095 0 0 12.71-.055 12.817 0C26.728 22.169 26.4 12.024 26.4 12.08a17.347 17.347 0 0 0-.267-2.203z" fill="#EFF1F4"/>
        <path d="M17.093 4.62c-1.597-.077-3.1.747-3.735 1.152l-.034.022-.018.009C11.192 7.087 9.91 7.21 9.898 7.21c-.009 0-.015.006-.021.01.003.002.003.005.003.009.003.009.006.018.01.024.002.006.002.01.005.015.003.007.003.01.007.016l.009.021c.003.01.009.019.012.025.003.003.003.01.006.012.13-.012 1.38-.166 3.447-1.422l.062-.037c.63-.403 2.135-1.226 3.714-1.125-.022-.043-.04-.092-.059-.138z" fill="#E9E9EB"/>
        <path d="M16.847 6.396s-.024.018-.049.049c-1.287 1.48-2.374 1.367-2.39 1.367-1.189-.019-1.988-.378-2.375-1.066-.728-1.293.148-3.45.642-4.46h-.012s-.003 0-.003.002c-.006.003-.01 0-.015.003-.003 0-.003.003-.006.003H12.626c-.003 0-.003.003-.006.003h-.018s-.003 0-.003.004c-.013.006-.025.006-.037.006h-.003s-.003 0-.003.003c-.007.003-.01 0-.016.003H12.527l-.002.003c-.003 0-.006.003-.006.003-.006.003-.01 0-.013.003-.156.329-.34.75-.503 1.223-.483 1.413-.513 2.513-.086 3.268.411.735 1.25 1.116 2.491 1.137h.016c.144 0 1.216.065 2.482-1.391-.006-.004-.031-.139-.059-.163z" fill="#E9E9EB"/>
    </g>
    <defs>
        <clipPath id="b8jb80ot6a">
            <path fill="#fff" d="M0 0h147.866v24H0z"/>
        </clipPath>
    </defs>
</svg>
