<svg width="67" height="24" viewBox="0 0 67 24" fill="none" xmlns="http://www.w3.org/2000/svg">
<path fill-rule="evenodd" clip-rule="evenodd" d="M28.6342 4.27996C28.6596 4.30544 29.8061 4.27996 30.7997 4.22901C31.029 3.49018 31.564 2.90422 32.2773 2.62398L32.3028 0.611328L28.6342 4.27996Z" fill="white"/>
<path fill-rule="evenodd" clip-rule="evenodd" d="M33.9584 7.38878L33.882 9.57976L37.5761 5.91113L35.5634 5.93661C35.2577 6.62448 34.6972 7.15949 33.9584 7.38878Z" fill="white"/>
<path fill-rule="evenodd" clip-rule="evenodd" d="M37.1946 0.178336C37.0418 0.229289 36.8889 0.280243 36.7361 0.331196C36.1501 0.560485 35.5896 0.891681 35.131 1.32478L34.9782 1.47764L34.8253 1.6305L33.9082 2.54766C34.7489 2.77695 35.4367 3.46482 35.666 4.30555L36.6087 3.36291C36.6596 3.31196 36.6851 3.26101 36.7361 3.21005C36.787 3.1591 36.838 3.13362 36.8889 3.08267C37.322 2.70052 37.8825 2.49671 38.4939 2.49671C39.1054 2.49671 39.6659 2.726 40.099 3.08267C40.1499 3.13362 40.2009 3.1591 40.2518 3.21005C40.3028 3.26101 40.3283 3.31196 40.3792 3.36291C40.7614 3.79601 40.9652 4.3565 40.9652 4.96794C40.9652 5.57938 40.7359 6.13986 40.3792 6.57296C40.3283 6.62392 40.3028 6.67487 40.2518 6.72582C40.2009 6.77678 40.1499 6.82773 40.099 6.85321C39.6659 7.23536 39.1054 7.43917 38.4939 7.43917C37.8825 7.43917 37.322 7.20988 36.8889 6.85321C36.838 6.80225 36.787 6.77678 36.7361 6.72582L34.9782 8.48371L35.131 8.63657C35.5896 9.06967 36.1246 9.40087 36.7361 9.63016C36.8889 9.68111 37.0418 9.73206 37.1946 9.78302C37.6023 9.88492 38.0354 9.96135 38.4939 9.96135C38.9525 9.96135 39.3856 9.9104 39.7932 9.78302C39.9461 9.73206 40.099 9.68111 40.2518 9.63016C40.8378 9.40087 41.3983 9.06967 41.8569 8.63657L42.0097 8.48371L42.1626 8.33085C42.5957 7.87227 42.9269 7.33726 43.1562 6.72582C43.2071 6.57296 43.2581 6.4201 43.309 6.26724C43.4109 5.85962 43.4874 5.42652 43.4874 4.96794C43.4874 4.50936 43.4364 4.07626 43.309 3.66863C43.2581 3.51577 43.2071 3.36291 43.1562 3.21005C42.9269 2.62409 42.5957 2.06361 42.1626 1.60503L41.8314 1.27383C41.3728 0.840728 40.8378 0.509532 40.2264 0.280243C40.0735 0.229289 39.9206 0.178336 39.7678 0.127383C39.3601 0.0509532 38.927 0 38.4939 0C38.0354 0 37.6023 0.0509532 37.1946 0.178336ZM30.7745 5.65581L29.8319 6.59844C29.7809 6.64939 29.7555 6.70035 29.7045 6.7513C29.6536 6.80225 29.6026 6.85321 29.5517 6.87868C29.1186 7.26083 28.5581 7.46464 27.9466 7.46464C27.3352 7.46464 26.7747 7.23536 26.3416 6.87868C26.2906 6.82773 26.2397 6.80225 26.1887 6.7513C26.1378 6.70035 26.0868 6.64939 26.0614 6.59844C25.6792 6.16534 25.4754 5.60485 25.4754 4.99341C25.4754 4.30555 25.7556 3.69411 26.1887 3.23553C26.6473 2.77695 27.2588 2.52218 27.9466 2.52218C28.5581 2.52218 29.1186 2.75147 29.5517 3.10815C29.6026 3.1591 29.6536 3.18458 29.7045 3.23553L31.4624 1.47764L31.3095 1.32478C30.851 0.891681 30.316 0.560485 29.7045 0.331196C29.144 0.101906 28.5581 0 27.9211 0C27.4626 0 27.0295 0.0509532 26.6218 0.178336C26.469 0.229289 26.3161 0.280243 26.1633 0.331196C25.5009 0.585962 24.8894 0.968111 24.4054 1.47764C23.9213 1.9617 23.5137 2.57314 23.2589 3.23553C23.208 3.38839 23.157 3.54125 23.1061 3.69411C23.0042 4.10173 22.9277 4.53484 22.9277 4.99341C22.9277 5.60485 23.0296 6.21629 23.2589 6.7513C23.4882 7.33726 23.8194 7.87227 24.227 8.35633L24.5582 8.68752C25.0168 9.09515 25.5518 9.45182 26.1633 9.65563C26.3161 9.70659 26.469 9.75754 26.6218 9.80849C27.0295 9.9104 27.4626 9.98683 27.9211 9.98683C28.3797 9.98683 28.8128 9.93588 29.2205 9.80849C29.3733 9.75754 29.5262 9.70659 29.679 9.65563C30.265 9.42634 30.8255 9.09515 31.2841 8.66205L31.4369 8.50919L32.5324 7.41369C31.6917 7.1844 31.0038 6.49653 30.7745 5.65581Z" fill="white"/>
<path fill-rule="evenodd" clip-rule="evenodd" d="M31.7675 6.3954C32.0732 6.70112 32.4553 6.90493 32.863 6.98136C32.5827 6.75207 32.3789 6.44635 32.2261 6.14063C32.0732 6.19158 31.8949 6.29349 31.7675 6.3954ZM34.0858 5.91134C34.1878 5.65657 34.2387 5.40181 34.2642 5.14704H33.2961V5.78396C33.5508 5.75848 33.8311 5.80943 34.0858 5.91134ZM34.0349 6.03872C33.7801 5.96229 33.5508 5.91134 33.2706 5.91134V6.98136C33.6018 6.72659 33.8566 6.42087 34.0349 6.03872ZM33.2706 4.96871H34.2642C34.2642 4.68846 34.2132 4.4337 34.1368 4.17893C33.8566 4.28084 33.5763 4.33179 33.2706 4.33179V4.96871ZM34.2387 3.97512C34.417 3.89869 34.5954 3.79678 34.7482 3.6694C34.4425 3.28725 34.0094 3.05796 33.5254 2.98153C33.8311 3.26177 34.0859 3.59297 34.2387 3.97512ZM33.2706 4.17893V2.98153C33.6273 3.26177 33.9075 3.61845 34.0604 4.02607C33.8311 4.12798 33.5508 4.17893 33.2706 4.17893ZM33.1177 4.17893V2.95605C32.7611 3.2363 32.4808 3.59297 32.3025 4.0006C32.5827 4.1025 32.8375 4.17893 33.1177 4.17893ZM34.417 4.96871C34.417 4.68846 34.3661 4.38274 34.2897 4.1025C34.4935 4.02607 34.6718 3.89869 34.8501 3.77131C35.1049 4.12798 35.2323 4.5356 35.2323 4.94323L34.417 4.96871ZM34.7737 6.24254C34.5954 6.11515 34.417 6.01325 34.2387 5.93682C34.3406 5.68205 34.3916 5.40181 34.417 5.12157H35.2068C35.1813 5.55467 35.0285 5.93682 34.7737 6.24254ZM33.5254 6.98136C33.8056 6.72659 34.0349 6.44635 34.1878 6.08968C34.3661 6.16611 34.519 6.24254 34.6718 6.36992C34.3661 6.70112 33.9585 6.90493 33.5254 6.98136ZM31.9713 4.96871C31.9713 4.66299 32.0222 4.35727 32.1242 4.07703C31.9458 4.0006 31.7675 3.87321 31.5891 3.74583C31.3344 4.1025 31.1815 4.51013 31.1815 4.96871H31.9713ZM33.1177 4.96871H32.0987C32.0987 4.68846 32.1496 4.40822 32.2261 4.15345C32.5063 4.25536 32.7865 4.33179 33.0923 4.33179V4.96871H33.1177ZM32.1751 3.94964C31.9968 3.87321 31.8439 3.77131 31.6911 3.64392C31.9968 3.28725 32.4044 3.05796 32.863 2.98153C32.5573 3.26177 32.328 3.56749 32.1751 3.94964ZM33.1177 7.00683C32.7865 6.75207 32.5318 6.44635 32.3534 6.08968C32.6082 5.98777 32.863 5.93682 33.1177 5.93682V7.00683ZM33.1177 5.75848V5.12157H32.1242C32.1496 5.40181 32.2006 5.65657 32.3025 5.91134C32.5573 5.83491 32.8375 5.78396 33.1177 5.75848ZM31.6656 6.29349C31.3853 5.96229 31.2325 5.58014 31.207 5.14704H31.9968C32.0222 5.45276 32.0732 5.733 32.1751 6.01325C31.9968 6.0642 31.8184 6.16611 31.6656 6.29349Z" fill="white"/>
<path fill-rule="evenodd" clip-rule="evenodd" d="M0 17.8844H1.50312V18.0118C1.50312 18.3684 1.60503 18.6487 1.78336 18.8525C1.9617 19.0563 2.21646 19.1837 2.52218 19.1837C2.85338 19.1837 3.10815 19.0818 3.31196 18.878C3.51577 18.6742 3.5922 18.4194 3.5922 18.0627C3.5922 17.5277 3.21005 17.1456 2.42028 16.8908C2.31837 16.8653 2.24194 16.8398 2.19099 16.8144C1.5286 16.6105 1.04454 16.3303 0.738822 15.9482C0.433102 15.566 0.280243 15.1074 0.280243 14.5215C0.280243 13.7317 0.509532 13.0948 0.942635 12.6362C1.37574 12.1521 1.9617 11.9229 2.67504 11.9229C3.36291 11.9229 3.89792 12.1267 4.30555 12.5598C4.71317 12.9929 4.94246 13.5788 4.96794 14.3431H3.4903V14.2667C3.4903 13.9865 3.41387 13.7826 3.26101 13.6043C3.10815 13.4514 2.87886 13.3495 2.62409 13.3495C2.34385 13.3495 2.14004 13.426 1.98718 13.6043C1.83432 13.7826 1.75789 14.0119 1.75789 14.2922C1.75789 14.4196 1.78336 14.5215 1.80884 14.6234C1.83432 14.7253 1.88527 14.8017 1.9617 14.8781C2.11456 15.0565 2.44575 15.2093 2.98076 15.3622C3.21005 15.4131 3.38839 15.4641 3.51577 15.5151C4.10173 15.7189 4.50936 15.9991 4.7896 16.3558C5.06984 16.7125 5.19723 17.1965 5.19723 17.757C5.19723 18.6232 4.96794 19.3111 4.48388 19.8461C3.99983 20.3811 3.36291 20.6359 2.57314 20.6359C1.83432 20.6359 1.22288 20.3811 0.764298 19.8716C0.254766 19.3875 0.0254766 18.7251 0 17.8844ZM7.56655 12.1267V14.9036C7.77036 14.6234 8.02513 14.3941 8.30537 14.2667C8.58562 14.1393 8.89134 14.0629 9.24801 14.0629C10.0378 14.0629 10.6492 14.3177 11.0568 14.8017C11.4899 15.2858 11.6938 15.9736 11.6938 16.8908V20.5339H10.2161V17.7315C10.2161 16.8653 10.1142 16.2794 9.93588 15.9736C9.73206 15.6679 9.40087 15.5151 8.91681 15.5151C8.43276 15.5151 8.07608 15.6934 7.84679 16.0246C7.64298 16.3813 7.5156 16.9672 7.5156 17.8079V20.5085H6.08891V12.1267H7.56655ZM15.9229 15.4641C15.3624 15.5151 14.9548 15.6679 14.7255 15.9227C14.4962 16.1774 14.3943 16.636 14.3943 17.2984V20.5339H12.9166V14.1648H14.2924V14.9036C14.5217 14.6234 14.751 14.4196 15.0312 14.2667C15.286 14.1393 15.5917 14.0629 15.9229 14.0629V15.4641ZM21.1711 16.636C21.0437 16.2029 20.8399 15.8972 20.5341 15.6679C20.2284 15.4386 19.8718 15.3367 19.4132 15.3367C19.031 15.3367 18.6744 15.4641 18.3686 15.6934C18.0629 15.9227 17.8591 16.2539 17.7317 16.636H21.1711ZM17.6808 17.8079C17.7317 18.2665 17.9101 18.6232 18.2158 18.878C18.5215 19.1327 18.9291 19.2601 19.4132 19.2601C19.7444 19.2601 20.0501 19.1837 20.3049 19.0563C20.5596 18.9289 20.7634 18.7251 20.9163 18.4703H22.4958C22.2156 19.1582 21.8334 19.6932 21.2984 20.0754C20.7634 20.4575 20.152 20.6359 19.4386 20.6359C18.9546 20.6359 18.5215 20.5594 18.1393 20.3811C17.7317 20.2027 17.375 19.9735 17.0693 19.6423C16.7636 19.3365 16.5343 18.9799 16.3815 18.5722C16.2286 18.1646 16.1267 17.757 16.1267 17.3239C16.1267 16.8908 16.2031 16.4577 16.356 16.0755C16.5088 15.6934 16.7381 15.3367 17.0184 15.031C17.3496 14.6998 17.7062 14.4196 18.1139 14.2412C18.5215 14.0629 18.9291 13.961 19.3622 13.961C19.9227 13.961 20.4322 14.0884 20.8908 14.3431C21.3749 14.5979 21.7825 14.9546 22.1137 15.3877C22.3175 15.6679 22.4704 15.9736 22.5723 16.3048C22.6742 16.636 22.7251 17.0182 22.7251 17.4768C22.7251 17.5022 22.7251 17.5532 22.7251 17.6296C22.7251 17.706 22.7251 17.757 22.7251 17.7825H17.6808V17.8079ZM28.3045 16.636C28.1771 16.2029 27.9733 15.8972 27.6676 15.6679C27.3619 15.4386 27.0052 15.3367 26.5466 15.3367C26.1645 15.3367 25.8078 15.4641 25.5021 15.6934C25.1964 15.9227 24.9925 16.2539 24.8652 16.636H28.3045ZM24.8142 17.8079C24.8652 18.2665 25.0435 18.6232 25.3492 18.878C25.6549 19.1327 26.0626 19.2601 26.5466 19.2601C26.8778 19.2601 27.1835 19.1837 27.4383 19.0563C27.6931 18.9289 27.8969 18.7251 28.0497 18.4703H29.6293C29.349 19.1582 28.9669 19.6932 28.4319 20.0754C27.8969 20.4575 27.2854 20.6359 26.5721 20.6359C26.1135 20.6359 25.6549 20.5594 25.2728 20.3811C24.8652 20.2027 24.5085 19.9735 24.2028 19.6423C23.8971 19.3365 23.6678 18.9799 23.5149 18.5722C23.362 18.1646 23.2601 17.757 23.2601 17.3239C23.2601 16.8908 23.3366 16.4577 23.4894 16.0755C23.6423 15.6934 23.8716 15.3367 24.1518 15.031C24.483 14.6998 24.8397 14.4196 25.2473 14.2412C25.6549 14.0629 26.0626 13.961 26.4957 13.961C27.0562 13.961 27.5657 14.0884 28.0243 14.3431C28.5083 14.5979 28.9159 14.9546 29.2471 15.3877C29.451 15.6679 29.6038 15.9736 29.7057 16.3048C29.8076 16.636 29.8586 17.0182 29.8586 17.4768C29.8586 17.5022 29.8586 17.5532 29.8586 17.6296C29.8586 17.706 29.8586 17.757 29.8586 17.7825H24.8142V17.8079Z" fill="white"/>
<path fill-rule="evenodd" clip-rule="evenodd" d="M34.8246 20.331H33.1941V11.9492H35.3596L37.4996 18.0381L39.6142 11.9492H41.7797V20.331H40.1747L40.2256 14.2421L38.1111 20.331H36.8882L34.7736 14.2421L34.8246 20.331ZM44.2764 17.121C44.2764 17.656 44.4548 18.0891 44.8114 18.4458C45.1681 18.8024 45.6012 18.9808 46.1107 18.9808C46.5693 18.9808 46.9769 18.8024 47.3336 18.4458C47.6903 18.0891 47.8686 17.656 47.8686 17.1719C47.8686 16.6624 47.6903 16.2038 47.3336 15.8471C46.9769 15.465 46.5693 15.2867 46.0853 15.2867C45.5757 15.2867 45.1681 15.465 44.8114 15.8217C44.4548 16.1783 44.2764 16.6114 44.2764 17.121ZM48.0215 20.331V19.5412C47.8431 19.847 47.5884 20.0763 47.2827 20.2291C46.9515 20.382 46.5438 20.4584 46.0598 20.4584C45.1171 20.4584 44.3528 20.1272 43.7159 19.4903C43.079 18.8534 42.7733 18.0636 42.7733 17.121C42.7733 16.6879 42.8497 16.2548 43.0026 15.8471C43.1554 15.4395 43.3847 15.1083 43.665 14.8026C43.9707 14.4714 44.3274 14.2166 44.7095 14.0638C45.0917 13.9109 45.5248 13.8345 46.0088 13.8345C46.4674 13.8345 46.875 13.9109 47.2062 14.0638C47.5374 14.2166 47.8177 14.4459 47.996 14.7516V13.9873H49.4482V20.3055H48.0215V20.331ZM53.6773 15.2867C53.1168 15.3376 52.7092 15.4905 52.4799 15.7452C52.2506 16 52.1487 16.4586 52.1487 17.121V20.3565H50.671V14.0128H52.0468V14.7516C52.2761 14.4714 52.5054 14.2676 52.7856 14.1147C53.0404 13.9873 53.3461 13.9109 53.6773 13.9109V15.2867ZM58.6197 20.331V19.6432C58.4159 19.9234 58.1612 20.1527 57.8809 20.2801C57.6007 20.4075 57.295 20.4839 56.9383 20.4839C56.1485 20.4839 55.5371 20.2291 55.104 19.7451C54.6709 19.261 54.4671 18.5477 54.4671 17.656V14.0128H55.9447V16.8662C55.9447 17.7324 56.0466 18.2929 56.2504 18.6241C56.4542 18.9298 56.7854 19.1081 57.2695 19.1081C57.7535 19.1081 58.1102 18.9298 58.3395 18.5731C58.5433 18.2165 58.6707 17.6305 58.6707 16.7898V14.0128H60.1229V20.331H58.6197ZM61.8043 20.331V15.3121H60.8362V14.0128H61.8043V11.9747H63.282V14.0128H64.2501V15.3121H63.282V20.331H61.8043ZM66.4156 13.3504H64.9889V11.9492H66.4156V13.3504ZM64.9634 14.0128H66.3901V20.331H64.9634V14.0128Z" fill="white"/>
<path fill-rule="evenodd" clip-rule="evenodd" d="M24.839 23.9753H24.5333V22.3448H24.9409C25.0428 22.3448 25.1193 22.3448 25.1957 22.3703C25.2467 22.3703 25.2976 22.3958 25.3486 22.4212C25.425 22.4722 25.4759 22.5231 25.5014 22.5996C25.5524 22.676 25.5524 22.7524 25.5524 22.8289C25.5524 22.9817 25.5014 23.1091 25.3995 23.211C25.2976 23.3129 25.1702 23.3384 24.9919 23.3384H24.8645V23.9753H24.839ZM24.839 23.0582H24.9155C24.9919 23.0582 25.0683 23.0327 25.1193 23.0072C25.1702 22.9563 25.1957 22.9053 25.1957 22.8543C25.1957 22.7779 25.1702 22.727 25.1193 22.7015C25.0683 22.676 24.9919 22.6505 24.9155 22.6505H24.839V23.0582ZM35.3609 23.5677C35.3609 23.6441 35.3863 23.6951 35.4118 23.7205C35.4373 23.746 35.4628 23.7715 35.5137 23.7715C35.5647 23.7715 35.5902 23.7715 35.6156 23.746C35.6411 23.7205 35.6666 23.6951 35.6666 23.6441C35.6666 23.6186 35.6666 23.5677 35.6411 23.5422C35.6156 23.5167 35.5901 23.4913 35.5392 23.4658C35.5137 23.4658 35.4628 23.4403 35.4118 23.4148C35.3609 23.3894 35.3099 23.3639 35.3099 23.3639C35.259 23.3384 35.2335 23.2874 35.208 23.2365C35.1825 23.1855 35.1825 23.1346 35.1825 23.0836C35.1825 22.9817 35.208 22.8798 35.2844 22.8289C35.3609 22.7524 35.4373 22.727 35.5392 22.727C35.6411 22.727 35.743 22.7524 35.794 22.8289C35.8704 22.9053 35.8959 22.9817 35.8959 23.0836H35.6411C35.6411 23.0327 35.6411 23.0072 35.6156 22.9817C35.5902 22.9563 35.5647 22.9563 35.5392 22.9563C35.5137 22.9563 35.4882 22.9563 35.4628 22.9817C35.4373 23.0072 35.4373 23.0327 35.4373 23.0582C35.4373 23.1091 35.4882 23.1601 35.6156 23.211C35.6411 23.211 35.6666 23.2365 35.6921 23.2365C35.794 23.2874 35.8704 23.3384 35.9213 23.3894C35.9723 23.4403 35.9723 23.5167 35.9723 23.6186C35.9723 23.7205 35.9213 23.8225 35.8449 23.8989C35.7685 23.9753 35.6666 24.0008 35.5647 24.0008C35.4373 24.0008 35.3609 23.9498 35.2844 23.8734C35.208 23.797 35.1825 23.6951 35.157 23.5422L35.3609 23.5677ZM34.0106 23.4403C34.0106 23.5167 34.0616 23.5932 34.1125 23.6441C34.1635 23.6951 34.2399 23.7205 34.3418 23.7205C34.4182 23.7205 34.4692 23.6951 34.5201 23.6696C34.5711 23.6441 34.622 23.5932 34.6475 23.5677H34.9532C34.9023 23.6951 34.8259 23.797 34.7239 23.8734C34.622 23.9498 34.4947 23.9753 34.3673 23.9753C34.2654 23.9753 34.1889 23.9498 34.1125 23.9244C34.0361 23.8989 33.9596 23.8479 33.9087 23.7715C33.8577 23.7206 33.8068 23.6441 33.7813 23.5677C33.7558 23.4913 33.7304 23.4148 33.7304 23.3129C33.7304 23.2365 33.7558 23.1346 33.7813 23.0836C33.8068 23.0072 33.8577 22.9308 33.9087 22.8798C33.9596 22.8034 34.0361 22.7524 34.1125 22.727C34.1889 22.7015 34.2654 22.676 34.3673 22.676C34.4692 22.676 34.5711 22.7015 34.673 22.7524C34.7749 22.8034 34.8513 22.8798 34.9023 22.9563C34.9532 23.0072 34.9787 23.0582 34.9787 23.1346C35.0042 23.211 35.0042 23.2874 35.0042 23.3639V23.3894C35.0042 23.4148 35.0042 23.4148 35.0042 23.4148H34.0106V23.4403ZM34.6985 23.211C34.673 23.1346 34.622 23.0582 34.5711 23.0327C34.5201 22.9817 34.4437 22.9563 34.3418 22.9563C34.2654 22.9563 34.1889 22.9817 34.138 23.0327C34.087 23.0836 34.0361 23.1346 34.0106 23.211H34.6985ZM33.2718 22.727H33.552V23.9498H33.2718V22.727ZM33.552 22.5996H33.2718V22.3193H33.552V22.5996ZM32.6603 23.9753V23.0072H32.482V22.7524H32.6603V22.3448H32.9406V22.7524H33.1189V23.0072H32.9406V23.9753H32.6603ZM32.0234 22.727H32.3037V23.9498H32.0234V22.727ZM32.3037 22.5996H32.0234V22.3193H32.3037V22.5996ZM31.4884 22.3448H31.7687V23.9753H31.4884V22.3448ZM30.9534 22.727H31.2337V23.9498H30.9534V22.727ZM31.2337 22.5996H30.9534V22.3193H31.2337V22.5996ZM29.756 22.8289C29.807 22.7779 29.8579 22.7524 29.9343 22.727C29.9853 22.7015 30.0617 22.7015 30.1382 22.7015C30.2146 22.7015 30.291 22.727 30.3674 22.7524C30.4439 22.7779 30.4948 22.8289 30.5713 22.8798C30.6477 22.9308 30.6986 23.0072 30.7241 23.0836C30.7496 23.1601 30.7751 23.262 30.7751 23.3384C30.7751 23.4403 30.7496 23.5422 30.7241 23.6186C30.6732 23.6951 30.6222 23.7715 30.5458 23.8479C30.4948 23.8989 30.4184 23.9244 30.3674 23.9498C30.291 23.9753 30.2146 23.9753 30.1382 23.9753C30.0617 23.9753 29.9853 23.9753 29.9343 23.9498C29.8834 23.9244 29.807 23.8989 29.756 23.8479V23.9498H29.4758V22.3193H29.756V22.8289ZM29.756 23.3639C29.756 23.4658 29.7815 23.5422 29.8579 23.6186C29.9343 23.6951 30.0108 23.7205 30.0872 23.7205C30.1891 23.7205 30.291 23.6951 30.342 23.6186C30.4184 23.5422 30.4439 23.4658 30.4439 23.3639C30.4439 23.262 30.4184 23.1855 30.342 23.1091C30.2655 23.0327 30.1891 23.0072 30.0872 23.0072C29.9853 23.0072 29.9089 23.0327 29.8324 23.1091C29.7815 23.1601 29.756 23.262 29.756 23.3639ZM28.9408 22.727H29.221V23.9498H28.9408V22.727ZM29.221 22.5996H28.9408V22.3193H29.221V22.5996ZM28.2019 23.5677C28.2019 23.6441 28.2274 23.6951 28.2529 23.7205C28.2784 23.746 28.3038 23.7715 28.3548 23.7715C28.4057 23.7715 28.4312 23.7715 28.4567 23.746C28.4822 23.7205 28.5077 23.6951 28.5077 23.6441C28.5077 23.6186 28.5077 23.5677 28.4822 23.5422C28.4567 23.5167 28.4312 23.4913 28.3803 23.4658C28.3548 23.4658 28.3038 23.4403 28.2529 23.4148C28.2019 23.3894 28.151 23.3639 28.151 23.3639C28.1 23.3384 28.0746 23.2874 28.0491 23.2365C28.0236 23.1855 28.0236 23.1346 28.0236 23.0836C28.0236 22.9817 28.0491 22.8798 28.1255 22.8289C28.2019 22.7524 28.2784 22.727 28.3803 22.727C28.4822 22.727 28.5841 22.7524 28.635 22.8289C28.686 22.9053 28.7369 22.9817 28.7369 23.0836H28.4822C28.4822 23.0327 28.4822 23.0072 28.4567 22.9817C28.4312 22.9563 28.4057 22.9563 28.3803 22.9563C28.3548 22.9563 28.3293 22.9563 28.3038 22.9817C28.2784 23.0072 28.2784 23.0327 28.2784 23.0582C28.2784 23.1091 28.3293 23.1601 28.4567 23.211C28.4822 23.211 28.5077 23.2365 28.5331 23.2365C28.635 23.2874 28.7115 23.3384 28.7624 23.3894C28.8134 23.4403 28.8134 23.5167 28.8134 23.6186C28.8134 23.7205 28.7624 23.8225 28.686 23.8989C28.6096 23.9753 28.5077 24.0008 28.4057 24.0008C28.2784 24.0008 28.2019 23.9498 28.1255 23.8734C28.0491 23.797 28.0236 23.6951 27.9981 23.5422L28.2019 23.5677ZM27.2593 23.5677C27.2593 23.6441 27.2848 23.6951 27.3103 23.7205C27.3357 23.746 27.3867 23.7715 27.4122 23.7715C27.4631 23.7715 27.4886 23.7715 27.5141 23.746C27.5395 23.7205 27.565 23.6951 27.565 23.6441C27.565 23.6186 27.565 23.5677 27.5395 23.5422C27.5141 23.5167 27.4886 23.4913 27.4376 23.4658C27.4122 23.4658 27.3612 23.4403 27.3103 23.4148C27.2593 23.3894 27.2083 23.3639 27.2083 23.3639C27.1574 23.3384 27.1319 23.2874 27.1064 23.2365C27.081 23.1855 27.081 23.1346 27.081 23.0836C27.081 22.9817 27.1064 22.8798 27.1829 22.8289C27.2593 22.7524 27.3357 22.727 27.4376 22.727C27.5395 22.727 27.6415 22.7524 27.6924 22.8289C27.7688 22.9053 27.7943 22.9817 27.7943 23.0836H27.5395C27.5395 23.0327 27.5395 23.0072 27.5141 22.9817C27.4886 22.9563 27.4631 22.9563 27.4376 22.9563C27.4122 22.9563 27.3867 22.9563 27.3612 22.9817C27.3357 23.0072 27.3357 23.0327 27.3357 23.0582C27.3357 23.1091 27.3867 23.1601 27.5141 23.211C27.5395 23.211 27.565 23.2365 27.5905 23.2365C27.6924 23.2874 27.7688 23.3384 27.8198 23.3894C27.8707 23.4403 27.8707 23.5167 27.8707 23.6186C27.8707 23.7205 27.8198 23.8225 27.7434 23.8989C27.6669 23.9753 27.565 24.0008 27.4631 24.0008C27.3357 24.0008 27.2593 23.9498 27.1829 23.8734C27.1064 23.797 27.081 23.6951 27.0555 23.5422L27.2593 23.5677ZM25.6033 23.3384C25.6033 23.262 25.6288 23.1601 25.6543 23.0836C25.6798 23.0072 25.7307 22.9308 25.7817 22.8798C25.8326 22.8289 25.909 22.7779 25.9855 22.727C26.0619 22.7015 26.1383 22.676 26.2148 22.676C26.2912 22.676 26.3931 22.7015 26.4695 22.727C26.546 22.7524 26.6224 22.8034 26.6733 22.8543C26.7498 22.9053 26.7752 22.9817 26.8262 23.0582C26.8517 23.1346 26.8772 23.211 26.8772 23.3129C26.8772 23.4148 26.8517 23.4913 26.8262 23.5677C26.8007 23.6441 26.7498 23.7206 26.6988 23.7715C26.6479 23.8225 26.5714 23.8734 26.495 23.9244C26.4186 23.9498 26.3421 23.9753 26.2402 23.9753C26.1383 23.9753 26.0619 23.9498 25.9855 23.9244C25.909 23.8989 25.8326 23.8479 25.7817 23.7715C25.7307 23.6951 25.6798 23.6441 25.6543 23.5677C25.6288 23.5167 25.6033 23.4403 25.6033 23.3384ZM25.909 23.3384C25.909 23.4403 25.9345 23.5422 26.0109 23.6186C26.0619 23.6951 26.1638 23.7205 26.2657 23.7205C26.3676 23.7205 26.4441 23.6951 26.5205 23.6186C26.5714 23.5422 26.6224 23.4658 26.6224 23.3384C26.6224 23.2365 26.5969 23.1601 26.5205 23.0836C26.4441 23.0072 26.3676 22.9817 26.2657 22.9817C26.1638 22.9817 26.0874 23.0072 26.0109 23.0836C25.9345 23.1601 25.909 23.2365 25.909 23.3384ZM22.6735 23.4403C22.6735 23.5167 22.7245 23.5932 22.7754 23.6441C22.8264 23.6951 22.9028 23.7205 23.0047 23.7205C23.0811 23.7205 23.1321 23.6951 23.183 23.6696C23.234 23.6441 23.285 23.5932 23.3104 23.5677H23.6161C23.5652 23.6951 23.4888 23.797 23.3869 23.8734C23.285 23.9498 23.1576 23.9753 23.0302 23.9753C22.9283 23.9753 22.8518 23.9498 22.7754 23.9244C22.699 23.8989 22.6226 23.8479 22.5716 23.7715C22.5207 23.7206 22.4697 23.6441 22.4442 23.5677C22.4187 23.4913 22.3933 23.4148 22.3933 23.3129C22.3933 23.2365 22.4187 23.1346 22.4442 23.0836C22.4697 23.0072 22.5207 22.9308 22.5716 22.8798C22.6226 22.8034 22.699 22.7524 22.7754 22.727C22.8518 22.7015 22.9283 22.676 23.0302 22.676C23.1321 22.676 23.234 22.7015 23.3359 22.7524C23.4378 22.8034 23.5142 22.8798 23.5652 22.9563C23.6161 23.0072 23.6416 23.0582 23.6416 23.1346C23.6671 23.211 23.6671 23.2874 23.6671 23.3639V23.3894C23.6671 23.4148 23.6671 23.4148 23.6671 23.4148H22.6735V23.4403ZM23.3614 23.211C23.3359 23.1346 23.285 23.0582 23.234 23.0327C23.183 22.9817 23.1066 22.9563 23.0047 22.9563C22.9283 22.9563 22.8518 22.9817 22.8009 23.0327C22.7499 23.0836 22.699 23.1346 22.6735 23.211H23.3614ZM21.8583 23.9753V23.0072H21.6799V22.7524H21.8583V22.3448H22.1385V22.7524H22.3168V23.0072H22.1385V23.9753H21.8583ZM21.2213 22.727H21.5016V23.9498H21.2213V22.727ZM21.5016 22.5996H21.2213V22.3193H21.5016V22.5996ZM20.1768 22.727V22.8543C20.2278 22.8034 20.2787 22.7524 20.3297 22.727C20.3806 22.7015 20.457 22.676 20.508 22.676C20.5844 22.676 20.6863 22.7015 20.7373 22.727C20.8137 22.7524 20.8647 22.8034 20.8902 22.8798C20.9156 22.9308 20.9411 22.9817 20.9411 23.0327C20.9411 23.0836 20.9666 23.1855 20.9666 23.2874V23.9498H20.6863V23.4148C20.6863 23.262 20.6609 23.1346 20.6354 23.0836C20.6099 23.0327 20.5335 22.9817 20.4316 22.9817C20.3297 22.9817 20.2787 23.0072 20.2278 23.0836C20.1768 23.1601 20.1768 23.262 20.1768 23.4403V23.9753H19.8966V22.7524H20.1768V22.727ZM19.3616 22.727H19.6418V23.9498H19.3616V22.727ZM19.6418 22.5996H19.3616V22.3193H19.6418V22.5996ZM19.2087 22.727V22.9817H19.0049V23.9498H18.7246V22.9817H18.5718V22.727H18.6992V22.7015C18.6992 22.5741 18.7246 22.4722 18.8011 22.4212C18.8775 22.3703 18.9794 22.3193 19.1323 22.3193H19.1577C19.1832 22.3193 19.1832 22.3193 19.1832 22.3193V22.5741H19.1577C19.0813 22.5741 19.0558 22.5741 19.0304 22.5996C19.0049 22.6251 18.9794 22.6505 18.9794 22.7015V22.727H19.2087ZM17.6291 22.727V22.8543C17.6801 22.8034 17.7311 22.7524 17.782 22.727C17.833 22.7015 17.9094 22.676 17.9603 22.676C18.0368 22.676 18.1387 22.7015 18.1896 22.727C18.2661 22.7524 18.317 22.8034 18.3425 22.8798C18.368 22.9308 18.3934 22.9817 18.3934 23.0327C18.3934 23.0836 18.4189 23.1855 18.4189 23.2874V23.9498H18.1387V23.4148C18.1387 23.262 18.1132 23.1346 18.0877 23.0836C18.0622 23.0327 17.9858 22.9817 17.8839 22.9817C17.782 22.9817 17.7311 23.0072 17.6801 23.0836C17.6291 23.1601 17.6291 23.262 17.6291 23.4403V23.9753H17.3489V22.7524H17.6291V22.727ZM16.7629 22.3448H17.0687V23.9753H16.7629V22.3448Z" fill="white"/>
<path fill-rule="evenodd" clip-rule="evenodd" d="M49.499 22.3449V22.6251H48.9385L48.8876 22.9054C48.9131 22.8799 48.964 22.8799 48.9895 22.8544C49.015 22.8544 49.0659 22.829 49.1169 22.829C49.2697 22.829 49.3971 22.8799 49.499 23.0073C49.6009 23.1092 49.6519 23.2621 49.6519 23.4149C49.6519 23.4913 49.6519 23.5423 49.6264 23.6187C49.6009 23.6952 49.5754 23.7461 49.5245 23.7971C49.4735 23.8735 49.3971 23.9244 49.3207 23.9499C49.2443 23.9754 49.1678 24.0009 49.0914 24.0009C48.9385 24.0009 48.8112 23.9499 48.7092 23.848C48.6073 23.7461 48.5309 23.6187 48.5309 23.4659H48.8366C48.8366 23.5423 48.8621 23.5933 48.9131 23.6442C48.964 23.6952 49.015 23.7206 49.0914 23.7206C49.1678 23.7206 49.2188 23.6952 49.2697 23.6442C49.3207 23.5933 49.3462 23.5168 49.3462 23.4404C49.3462 23.364 49.3207 23.2875 49.2697 23.2366C49.2188 23.1856 49.1423 23.1602 49.0659 23.1602C49.015 23.1602 48.964 23.1601 48.9385 23.1856C48.9131 23.2111 48.8621 23.2366 48.8621 23.2621L48.5819 23.2111L48.7347 22.3704H49.499V22.3449ZM47.4864 23.0582C47.4354 23.0328 47.3845 22.9818 47.359 22.9309C47.3335 22.8799 47.308 22.8035 47.308 22.7525C47.308 22.6251 47.359 22.5232 47.4354 22.4468C47.5373 22.3704 47.6392 22.3194 47.7666 22.3194C47.894 22.3194 48.0214 22.3704 48.0978 22.4468C48.1997 22.5232 48.2252 22.6251 48.2252 22.7525C48.2252 22.829 48.1997 22.8799 48.1742 22.9309C48.1488 22.9818 48.0978 23.0328 48.0214 23.0582C48.1233 23.1092 48.1742 23.1601 48.2252 23.2366C48.2761 23.313 48.3016 23.3894 48.3016 23.4659C48.3016 23.6187 48.2507 23.7461 48.1488 23.848C48.0468 23.9499 47.9195 24.0009 47.7411 24.0009C47.5883 24.0009 47.4609 23.9499 47.359 23.848C47.2571 23.7461 47.2061 23.6187 47.2061 23.4659C47.2061 23.3894 47.2316 23.2875 47.2571 23.2366C47.308 23.1856 47.3845 23.1092 47.4864 23.0582ZM47.5373 23.4913C47.5373 23.5678 47.5628 23.6187 47.6137 23.6697C47.6647 23.7206 47.7157 23.7461 47.7666 23.7461C47.843 23.7461 47.894 23.7206 47.9195 23.6697C47.9704 23.6187 47.9959 23.5678 47.9959 23.4913C47.9959 23.4149 47.9704 23.364 47.9449 23.313C47.894 23.2621 47.843 23.2621 47.7666 23.2621C47.6902 23.2621 47.6392 23.2875 47.6137 23.3385C47.5628 23.364 47.5373 23.4149 47.5373 23.4913ZM47.6137 22.7525C47.6137 22.8035 47.6392 22.829 47.6647 22.8544C47.6902 22.8799 47.7411 22.9054 47.7666 22.9054C47.8176 22.9054 47.843 22.8799 47.8685 22.8544C47.894 22.829 47.9195 22.778 47.9195 22.727C47.9195 22.6761 47.894 22.6506 47.8685 22.5997C47.843 22.5742 47.7921 22.5487 47.7666 22.5487C47.7157 22.5487 47.6902 22.5742 47.6647 22.5997C47.6137 22.6761 47.6137 22.7016 47.6137 22.7525ZM46.4163 23.9754H46.0852L46.4418 23.4149C46.4163 23.4149 46.3909 23.4149 46.3654 23.4404C46.3399 23.4404 46.3399 23.4404 46.3144 23.4404C46.1871 23.4404 46.0597 23.3894 45.9832 23.2875C45.8813 23.1856 45.8559 23.0582 45.8559 22.9054C45.8559 22.8544 45.8559 22.778 45.8813 22.7016C45.9068 22.6251 45.9323 22.5742 45.9832 22.5232C46.0342 22.4468 46.1106 22.3959 46.1871 22.3704C46.2635 22.3449 46.3399 22.3194 46.4418 22.3194C46.5183 22.3194 46.5947 22.3449 46.6711 22.3704C46.7475 22.3959 46.7985 22.4468 46.8495 22.4978C46.9004 22.5487 46.9514 22.5997 46.9768 22.6761C47.0023 22.7525 47.0278 22.8035 47.0278 22.8799C47.0278 22.9563 47.0023 23.0328 46.9768 23.1347C46.9514 23.2111 46.8749 23.313 46.7985 23.4659L46.4163 23.9754ZM46.6966 22.9054C46.6966 22.829 46.6711 22.7525 46.6202 22.7016C46.5692 22.6506 46.5183 22.6251 46.4418 22.6251C46.3654 22.6251 46.3144 22.6506 46.2635 22.7016C46.2125 22.7525 46.1871 22.829 46.1871 22.9054C46.1871 22.9818 46.2125 23.0582 46.2635 23.1092C46.3144 23.1601 46.3654 23.1856 46.4418 23.1856C46.5183 23.1856 46.5692 23.1601 46.6202 23.1092C46.6711 23.0328 46.6966 22.9818 46.6966 22.9054ZM45.2954 23.9754H44.9897V22.5997H44.7094V22.3704H45.2954V23.9754ZM43.3846 23.4404C43.3846 23.5168 43.4356 23.5933 43.4865 23.6442C43.5375 23.6952 43.6139 23.7206 43.7158 23.7206C43.7923 23.7206 43.8432 23.6952 43.8942 23.6697C43.9451 23.6442 43.9961 23.5933 44.0215 23.5678H44.3273C44.2763 23.6952 44.1999 23.7971 44.098 23.8735C43.9961 23.9499 43.8687 23.9754 43.7413 23.9754C43.6394 23.9754 43.563 23.9499 43.4865 23.9244C43.4101 23.899 43.3337 23.848 43.2827 23.7716C43.2318 23.7206 43.1808 23.6442 43.1553 23.5678C43.1299 23.4913 43.1044 23.4149 43.1044 23.313C43.1044 23.2366 43.1299 23.1347 43.1553 23.0837C43.1808 23.0073 43.2318 22.9309 43.2827 22.8799C43.3337 22.8035 43.4101 22.7525 43.4865 22.727C43.563 22.7016 43.6394 22.6761 43.7413 22.6761C43.8432 22.6761 43.9451 22.7016 44.047 22.7525C44.1489 22.8035 44.2254 22.8799 44.2763 22.9563C44.3273 23.0073 44.3527 23.0582 44.3527 23.1347C44.3782 23.2111 44.3782 23.2875 44.3782 23.364V23.3894C44.3782 23.4149 44.3782 23.4149 44.3782 23.4149H43.3846V23.4404ZM44.0725 23.2111C44.047 23.1347 43.9961 23.0582 43.9451 23.0328C43.8942 22.9818 43.8177 22.9563 43.7158 22.9563C43.6394 22.9563 43.563 22.9818 43.512 23.0328C43.4611 23.0837 43.4101 23.1347 43.3846 23.2111H44.0725ZM42.6713 23.1856C42.6458 23.1092 42.5949 23.0837 42.5439 23.0328C42.4929 23.0073 42.4165 22.9818 42.3656 22.9818C42.2637 22.9818 42.1872 23.0073 42.1108 23.0837C42.0344 23.1601 42.0089 23.2366 42.0089 23.3385C42.0089 23.4404 42.0344 23.5168 42.1108 23.5933C42.1872 23.6697 42.2637 23.6952 42.3656 23.6952C42.442 23.6952 42.5184 23.6697 42.5694 23.6442C42.6203 23.6187 42.6713 23.5678 42.6968 23.4913H43.0025C42.977 23.6442 42.9006 23.7716 42.7732 23.848C42.6713 23.9244 42.5439 23.9754 42.391 23.9754C42.2891 23.9754 42.2127 23.9499 42.1363 23.9244C42.0598 23.899 41.9834 23.848 41.9325 23.7716C41.8815 23.7206 41.8306 23.6442 41.8051 23.5678C41.7796 23.4913 41.7541 23.4149 41.7541 23.313C41.7541 23.2366 41.7796 23.1347 41.8051 23.0582C41.8306 22.9818 41.8815 22.9054 41.9325 22.8544C42.0089 22.778 42.0598 22.727 42.1618 22.7016C42.2382 22.6761 42.3401 22.6506 42.4165 22.6506C42.5694 22.6506 42.6968 22.7016 42.7987 22.778C42.9006 22.8544 42.977 22.9818 43.028 23.1347H42.6713V23.1856ZM40.7351 22.7525V22.8799C40.786 22.829 40.837 22.778 40.8879 22.7525C40.9389 22.727 41.0153 22.7016 41.0663 22.7016C41.1427 22.7016 41.2446 22.727 41.2956 22.7525C41.372 22.778 41.4229 22.829 41.4484 22.9054C41.4739 22.9563 41.4994 23.0073 41.4994 23.0582C41.4994 23.1092 41.5248 23.2111 41.5248 23.313V23.9754H41.2446V23.4404C41.2446 23.2875 41.2191 23.1601 41.1936 23.1092C41.1682 23.0582 41.0917 23.0073 40.9898 23.0073C40.8879 23.0073 40.837 23.0328 40.786 23.1092C40.7351 23.1856 40.7351 23.2875 40.7351 23.4659V24.0009H40.4548V22.778H40.7351V22.7525ZM39.9198 22.7525H40.2001V23.9754H39.9198V22.7525ZM40.2001 22.6251H39.9198V22.3449H40.2001V22.6251ZM38.7224 23.4659H39.0027V23.4913C39.0027 23.5678 39.0281 23.6187 39.0536 23.6442C39.0791 23.6952 39.13 23.6952 39.2065 23.6952C39.2829 23.6952 39.3339 23.6697 39.3593 23.6442C39.3848 23.6187 39.4103 23.5423 39.4103 23.4913C39.4103 23.3894 39.3339 23.313 39.181 23.2621C39.1555 23.2621 39.1555 23.2621 39.13 23.2366C39.0027 23.1856 38.9007 23.1347 38.8498 23.0582C38.7988 22.9818 38.7479 22.9054 38.7479 22.778C38.7479 22.6251 38.7988 22.4978 38.8753 22.4213C38.9517 22.3194 39.0791 22.2939 39.2065 22.2939C39.3339 22.2939 39.4358 22.3449 39.5122 22.4213C39.5886 22.4978 39.6396 22.6251 39.6396 22.778H39.3593V22.7525C39.3593 22.7016 39.3339 22.6506 39.3084 22.6251C39.2829 22.5997 39.2319 22.5742 39.181 22.5742C39.13 22.5742 39.0791 22.5997 39.0536 22.6251C39.0281 22.6506 39.0027 22.7016 39.0027 22.7525C39.0027 22.778 39.0027 22.8035 39.0027 22.8035C39.0027 22.829 39.0281 22.829 39.0281 22.8544C39.0536 22.8799 39.13 22.9309 39.2319 22.9563C39.2829 22.9563 39.3084 22.9818 39.3339 22.9818C39.4358 23.0073 39.5377 23.0837 39.5886 23.1347C39.6396 23.2111 39.665 23.2875 39.665 23.4149C39.665 23.5933 39.6141 23.7206 39.5377 23.8225C39.4358 23.9244 39.3084 23.9754 39.1555 23.9754C39.0027 23.9754 38.9007 23.9244 38.7988 23.8225C38.7734 23.7461 38.7224 23.6187 38.7224 23.4659Z" fill="white"/>
<path d="M37.7545 23.0068H36.9138V23.3126H37.7545V23.0068Z" fill="white"/>
</svg>
