<svg width="144" height="24" viewBox="0 0 144 24" fill="none" xmlns="http://www.w3.org/2000/svg">
    <path d="M53.826 3v2.798h1.026v12.031h10.072v-3.544h-2.798v.745H57.65v-3.17h4.663V9.062H57.65V5.798h4.477v.839h2.798V3H53.826z" fill="#fff"/>
    <path d="M1 5.984h1V17.833h9.932V14.33H9.178v.75H4.755v-3.17h4.59V9.155h-4.59v-3.17h4.423v.75h2.754V3.23H1v2.754zm17.941 9.346c-1.753 0-3.255-1.419-3.255-3.254 0-1.836 1.42-3.255 3.255-3.255.333 0 .667.084 1.001.167v.667h2.754V7.57c-.667-.5-1.418-.918-2.253-1.169-.166-.083-.334-.083-.5-.083-.334-.083-.668-.083-1.002-.083a5.805 5.805 0 0 0-5.841 5.841 5.805 5.805 0 0 0 5.841 5.842c1.669 0 3.171-.668 4.172-1.753l-1.502-2.253c-.584.918-1.586 1.418-2.67 1.418zM30.54 6.235c-3.338 0-6.091 2.586-6.091 5.841 0 3.254 2.67 5.842 6.09 5.842 3.422 0 6.092-2.588 6.092-5.842-.083-3.17-2.753-5.841-6.091-5.841zm0 9.179c-1.92 0-3.42-1.503-3.42-3.255s1.5-3.254 3.42-3.254c1.836 0 3.421 1.502 3.421 3.255 0 1.752-1.585 3.254-3.421 3.254zM52.069 8.82s-.083-2.169-2.086-2.586c0 0-2.42-.417-3.922 1.251 0 0-1.669-2.503-4.506-.417h-.333v-.668h-3.59v2.754h.752v6.009h-.751v2.67h3.589v-7.51s2.169-2.586 2.837-.5v8.01h2.753v-7.51s1.92-2.671 2.587-.335v7.844h2.753v-7.01l-.083-2.002zM74.718 15.217l-5.969-8.86-.093-.093h-2.425V9.06h.933l5.688 8.395v.559h2.519v-2.798h-.653z" fill="#fff"/>
    <path d="M75.371 9.061V6.264h-2.425l-.094.187-5.875 8.766h-.746v2.798h2.518v-.466l5.783-8.488h.839zM82.925 5.984c-.84 0-2.052.653-2.518 1.027v-.747h-3.45v2.612h.745v9.513h-.746V21h3.451v-3.358c3.823.186 5.782-2.425 5.782-2.425 2.052-2.145.933-6.436.933-6.436-1.213-3.17-4.197-2.797-4.197-2.797zm1.212 7.648s-.652 1.399-3.731 1.399v-4.85c.28-.466.84-1.026 1.68-1.305 0 0 1.958-.28 2.331.745.093 0 1.12 2.239-.28 4.011zm8.114-6.528v-.84h-3.45v2.612h.746v6.248H88.8v2.611h3.451v-7.648c1.4-2.051 3.637-1.305 3.637-1.305l1.308-2.425c-2.053-1.025-4.385.373-4.944.747zm12.684-.933s-3.823-.933-5.69 1.679c0 0-2.517 2.611-.838 6.808 0 0 3.078 6.155 9.607 1.68l-1.401-2.24s-2.891 3.544-5.875-.839h7.834v-2.798c0-.094-.745-3.73-3.637-4.29zm1.212 4.57h-5.408c.186-1.026.839-1.679 1.491-1.959.373-.186.84-.28 1.306-.28.747 0 1.493.28 2.052.84.466.466.653 1.025.653 1.025v.374h-.094zm11.658 1.399s-2.33-1.587-3.731-2.145c0 0-1.491-.933 0-1.586 0 0 1.307-.28 1.866.373v.653h2.612V7.104s-1.959-.933-3.171-1.027c0 0-2.518-.186-3.358.746l-.093.095c-1.493 1.305-1.399 3.637.186 4.849.653.466 1.586 1.12 2.706 1.678 0 0 2.144.746.932 1.773 0 0-.932.466-2.332.093l-1.678-.932-1.587 1.958s1.773 1.212 3.545 1.398h2.145s2.519-.186 2.892-1.958c-.094 0 .559-2.61-.934-3.637zm10.073 0s-2.331-1.587-3.731-2.145c0 0-1.491-.933 0-1.586 0 0 1.307-.28 1.866.373v.653h2.611V7.104s-1.958-.933-3.17-1.027c0 0-2.519-.186-3.358.746l-.093.095c-1.493 1.305-1.4 3.637.186 4.849.653.466 1.586 1.12 2.704 1.678 0 0 2.145.746.934 1.773 0 0-.934.466-2.332.093l-1.679-.932-1.586 1.958s1.773 1.212 3.545 1.398h2.145s2.517-.186 2.89-1.958c0 0 .561-2.61-.932-3.637z" fill="#fff"/>
</svg>
