<svg xmlns="http://www.w3.org/2000/svg" width="69" height="23" viewBox="0 0 69 23">
    <g fill="none" fill-rule="evenodd">
        <g fill="#fff" fill-rule="nonzero">
            <g>
                <path d="M37.35 5.612c1.784.002 3.568-.029 5.351.01 2.018.044 3.05 1.047 3.073 3.07.042 3.607.047 7.216-.002 10.822-.027 1.963-.88 2.818-2.83 2.85-3.26.051-6.52.055-9.78-.002-1.93-.034-2.725-.93-2.781-2.891-.02-.672-.005-1.345-.004-2.018.003-4.137 1.337-5.443 5.568-5.447 1.66-.002 3.324-.052 4.982.016 1.152.047 1.502-.44 1.483-1.518-.02-1.076-.26-1.621-1.536-1.605h-10.5V5.63c1.72.043 5.254-.02 6.976-.017zm.728 13.474c.984 0 1.97-.035 2.953.01 1.259.056 1.403-.737 1.355-1.675-.048-.921.298-2.118-1.277-2.123-1.845-.006-3.692-.032-5.534.048-1.544.067-1.8 1.128-1.797 2.447.004 1.46.984 1.286 1.9 1.295.8.008 1.6.002 2.4-.002zm-22.729.09v3.242c-3.078.002-8.826-.014-11.904-.029-2.662-.012-3.436-.778-3.44-3.361-.004-3.488-.01-6.976.002-10.464.007-2.054.826-2.921 2.871-2.943 3.2-.035 6.403-.037 9.603.004 1.893.023 2.674.818 2.742 2.692.041 1.162.041 2.325 0 3.487-.09 2.601-1.485 4.043-4.146 4.166-1.966.091-3.94.047-5.909.036-1.035-.006-1.964-.071-1.957 1.448.005 1.398.595 1.78 1.908 1.746 2.707-.072 10.23-.024 10.23-.024zM7.21 12.71v-.034c1.047 0 2.103.092 3.136-.022 1.458-.16 1.592-1.267 1.582-2.457-.012-1.26-.852-1.3-1.765-1.3-1.6.003-3.203.06-4.8-.018-1.43-.07-2.158.324-2.16 1.927 0 1.609.738 2.036 2.162 1.913.61-.053 1.23-.009 1.846-.009zM16.5.093h3.303c0 2.688-.051 5.349.028 8.006l-.035 2.706h1.818s3.14-4.815 3.371-5.176h3.89s-2.235 3.686-3.379 5.31c-.625.886-.596 1.58-.053 2.492 1.68 2.82 4.932 8.987 4.932 8.987H26.63c-1.012-1.748-4.937-8.416-4.937-8.416h-1.898l.02 8.416-3.323.082c.014-6.966.006-15.21.006-22.407zM61.13 0h3.501v5.63H69v3.269h-4.37c0 4.571.047 9.21.047 13.519h-3.546V8.898h-4.503V5.63h4.503V0zm-14.19 22.418c0-4.772-.013-9.674-.013-14.367 0-1.418 1.071-2.381 2.603-2.418l6.14-.004s-.005 1.882 0 3.27l-1.586.024c-3.742-.006-3.666.057-3.666 3.875l-.011 9.62H46.94z" transform="translate(-768 -366) translate(768 354) translate(0 12)"/>
            </g>
        </g>
    </g>
</svg>
