<svg width="168" height="25" viewBox="0 0 168 25" fill="none" xmlns="http://www.w3.org/2000/svg">
<path d="M83.5699 13.5071H79.0425V12.6506H80.3885V3.59579H79.0425V2.73926H83.5699V3.59579H82.2239V12.6506H83.5699V13.5071Z" fill="#EFF1F4"/>
<path d="M95.8047 2.73566H99.5983V3.59227H98.2522V13.6269H97.1508L90.9097 5.18313L90.1755 3.95939H90.0531L90.1755 5.18313V12.5255H91.5216V13.3822H87.728V12.5255H89.0741V3.4699H87.728V2.61328H90.7874L96.1718 9.83332L97.0284 11.1794H97.1508L97.0284 9.83332V3.4699H95.6823V2.73566H95.8047Z" fill="#EFF1F4"/>
<path d="M103.627 13.5071V12.6506H104.973V3.59579H103.627V2.73926H105.463C105.708 2.73926 105.83 2.73926 106.197 2.73926C106.442 2.73926 106.686 2.73926 107.054 2.73926C107.298 2.73926 107.543 2.73926 107.788 2.73926C108.032 2.73926 108.277 2.73926 108.4 2.73926C109.378 2.73926 110.235 2.86162 110.969 3.10634C111.703 3.35107 112.315 3.71815 112.805 4.2076C113.294 4.69705 113.661 5.18649 113.906 5.92066C114.151 6.53247 114.273 7.389 114.273 8.24553C114.273 9.10207 114.151 9.83623 113.906 10.448C113.661 11.1822 113.294 11.6717 112.805 12.2835C112.315 12.7729 111.703 13.14 110.847 13.5071C110.113 13.7518 109.134 13.8742 108.032 13.8742C107.91 13.8742 107.665 13.8742 107.421 13.8742C107.176 13.8742 106.931 13.8742 106.686 13.8742C106.442 13.8742 106.197 13.8742 105.952 13.8742C105.708 13.8742 105.463 13.8742 105.218 13.8742H103.627V13.5071ZM108.155 3.47343C107.91 3.47343 107.543 3.47343 107.298 3.47343C107.054 3.47343 106.809 3.47343 106.686 3.59579V12.7729C106.809 12.7729 106.809 12.7729 107.054 12.7729C107.176 12.7729 107.298 12.7729 107.543 12.7729C107.665 12.7729 107.91 12.7729 108.032 12.7729C108.155 12.7729 108.277 12.7729 108.4 12.7729C109.134 12.7729 109.868 12.6506 110.357 12.4058C110.847 12.1611 111.336 11.794 111.581 11.3046C111.948 10.8151 112.07 10.3257 112.193 9.83623C112.315 9.22443 112.437 8.61262 112.437 8.00081C112.437 7.51136 112.315 7.02192 112.193 6.41011C112.07 5.92066 111.826 5.43121 111.581 4.94177C111.214 4.45232 110.847 4.08524 110.357 3.84051C109.623 3.59579 109.011 3.47343 108.155 3.47343Z" fill="#EFF1F4"/>
<path d="M126.873 2.73926V5.30885H125.894V3.96287L125.527 3.59579H121.734V7.63373H124.303L124.548 7.389V6.77719H125.527V9.34679H124.548V8.73498L124.303 8.49026H121.734V12.6506H125.772L126.139 12.2835V10.8151H127.118V13.5071H118.675V12.6506H120.021V3.59579H118.675V2.73926H126.873Z" fill="#EFF1F4"/>
<path d="M140.573 3.59587H139.227V2.73926H143.021V3.59587H141.797L138.248 13.5081H136.535L132.496 3.59587H131.15V2.73926H135.923V3.59587H134.454L137.269 10.8159L137.759 12.2844H137.881L138.37 10.8159L140.573 3.59587Z" fill="#EFF1F4"/>
<path d="M43.3292 12.162L38.3118 8.98031H41.2488C42.3502 8.98031 42.8397 8.61319 43.2068 8.24607C43.6963 7.6342 43.6963 7.02233 43.6963 6.77759V5.3091C43.6963 3.71825 42.3502 2.98401 41.7383 2.73926C41.6159 2.73926 41.6159 2.73926 41.4936 2.73926H31.9484C31.4589 2.73926 31.0918 3.10638 31.0918 3.59587V12.5291C31.0918 13.0186 31.4589 13.3858 31.9484 13.3858C32.4379 13.3858 32.805 13.0186 32.805 12.5291V4.57486H41.2488C41.4936 4.69724 41.8607 4.81961 41.8607 5.3091V6.77759C41.8607 6.77759 41.8607 6.77759 41.8607 6.89996V7.02233C41.7383 7.14471 41.6159 7.14471 41.2488 7.14471H35.1301C34.763 7.14471 34.3959 7.38946 34.2735 7.75658C34.1511 8.1237 34.2735 8.61319 34.6406 8.73557L42.2278 13.6305C42.3502 13.7529 42.5949 13.7529 42.7173 13.7529C42.962 13.7529 43.3292 13.6305 43.4515 13.3858C43.8187 13.0186 43.6963 12.4068 43.3292 12.162Z" fill="#EFF1F4"/>
<path d="M27.6732 4.45249C28.1625 4.45249 28.5298 4.08537 28.5298 3.59587C28.5298 3.10638 28.1625 2.73926 27.6732 2.73926H17.2714H17.1489H17.0265C16.537 2.73926 16.1699 3.10638 16.1699 3.59587V12.5291C16.1699 13.0186 16.537 13.3858 17.0265 13.3858H17.1489H17.2714H27.6732C28.1625 13.3858 28.5298 13.0186 28.5298 12.5291C28.5298 12.0397 28.1625 11.6725 27.6732 11.6725H17.8833V8.98031H26.2046C26.6941 8.98031 27.0613 8.61319 27.0613 8.1237C27.0613 7.6342 26.6941 7.26708 26.2046 7.26708H17.8833V4.57486H27.6732V4.45249Z" fill="#EFF1F4"/>
<path d="M13.2379 11.5502L7.73104 7.38945L12.8707 4.45249C13.3602 4.20774 13.4826 3.59587 13.2379 3.22875C12.9931 2.73926 12.3812 2.61688 12.0141 2.86163L2.71372 8.1237V3.71825C2.71372 3.22875 2.34659 2.86163 1.8571 2.86163C1.36761 2.86163 1.00049 3.22875 1.00049 3.71825V12.5291C1.00049 13.0186 1.36761 13.3858 1.8571 13.3858C2.34659 13.3858 2.71372 13.0186 2.71372 12.5291V10.2041L6.01781 8.36845L12.1365 13.0186C12.3812 13.141 12.5036 13.141 12.7484 13.141C12.9931 13.141 13.2378 13.0186 13.4826 12.7739C13.7273 12.4068 13.7273 11.7949 13.2379 11.5502Z" fill="#EFF1F4"/>
<path d="M58.7413 12.162L53.724 8.98031H56.6609C57.7623 8.98031 58.2518 8.61319 58.6189 8.24607C59.1084 7.6342 59.1084 7.02233 59.1084 6.77759V5.3091C59.1084 3.71825 57.7623 2.98401 57.1504 2.73926C57.028 2.73926 57.028 2.73926 56.9057 2.73926H47.3605C46.871 2.73926 46.5039 3.10638 46.5039 3.59587V12.5291C46.5039 13.0186 46.871 13.3858 47.3605 13.3858C47.85 13.3858 48.2171 13.0186 48.2171 12.5291V4.57486H56.7833C57.028 4.69724 57.3952 4.81961 57.3952 5.3091V6.77759C57.3952 6.77759 57.3952 6.77759 57.3952 6.89996V7.02233C57.2728 7.14471 57.1504 7.14471 56.7833 7.14471H50.6646C50.2975 7.14471 49.9304 7.38946 49.808 7.75658C49.6856 8.1237 49.808 8.61319 50.1751 8.73557L57.7623 13.6305C57.8847 13.7529 58.1294 13.7529 58.2518 13.7529C58.4965 13.7529 58.8636 13.6305 58.986 13.3858C59.2308 13.0186 59.1084 12.4068 58.7413 12.162Z" fill="#EFF1F4"/>
<path d="M74.2751 10.9343V2.97997C74.2751 2.49047 73.908 2.12335 73.4185 2.12335C72.929 2.12335 72.5619 2.49047 72.5619 2.97997V7.14067H63.8734C63.5062 7.14067 63.3839 7.0183 63.2615 7.0183C63.2615 6.89592 63.1391 6.77355 63.2615 6.65118C63.2615 6.5288 63.2615 6.5288 63.2615 6.40643V2.85759C63.2615 2.3681 62.8944 2.00098 62.4049 2.00098C61.9154 2.00098 61.5483 2.3681 61.5483 2.85759V6.28405C61.5483 6.65117 61.4259 7.38542 61.9154 7.99728C62.1601 8.3644 62.772 8.8539 63.8734 8.8539H72.5619V10.8119C72.5619 10.8119 72.5619 10.8119 72.5619 10.9343C72.5619 11.0566 72.5619 11.3014 72.4395 11.4237C72.3171 11.5461 72.0724 11.5461 71.95 11.5461H62.6496C62.1601 11.5461 61.793 11.9132 61.793 12.4027C61.793 12.8922 62.1601 13.2594 62.6496 13.2594H71.95C72.929 13.2594 73.5409 12.8922 73.7856 12.5251C74.2751 12.0356 74.2751 11.179 74.2751 10.9343Z" fill="#EFF1F4"/>
<path d="M113.485 20.3203C113.37 19.5285 112.919 19.1 112.154 19.0302C111.913 19.0082 111.672 18.9963 111.43 18.9956C110.132 18.9919 108.833 18.9975 107.535 18.9906C107.045 18.9881 106.818 18.7499 106.816 18.2699C106.813 17.7948 107.042 17.5554 107.527 17.5315C107.637 17.5259 107.748 17.5284 107.859 17.5284C109.499 17.5284 111.14 17.529 112.78 17.5278C113.142 17.5271 113.376 17.3179 113.371 17.01C113.365 16.709 113.147 16.5085 112.795 16.5079C110.974 16.5054 109.152 16.5079 107.33 16.5092C106.056 16.5098 105.595 17.321 105.689 18.4904C105.767 19.4657 106.182 19.8804 107.114 19.9966C107.283 20.018 107.455 20.0224 107.626 20.023C108.974 20.0255 110.323 20.0218 111.671 20.0287C112.151 20.0312 112.365 20.2769 112.357 20.7765C112.348 21.266 112.118 21.4853 111.595 21.4859C109.854 21.4884 108.113 21.4878 106.372 21.4859C106.099 21.4853 105.9 21.5889 105.83 21.8774C105.76 22.1677 105.877 22.3587 106.193 22.5001C108.149 22.5013 110.105 22.502 112.062 22.5032C112.816 22.4322 113.264 22.0866 113.435 21.4425C113.534 21.0724 113.54 20.6935 113.485 20.3203Z" fill="#EFF1F4"/>
<path d="M88.1597 21.4762C88.0697 21.468 87.9785 21.4712 87.8879 21.4712C87.0225 21.4712 86.1571 21.4712 85.2917 21.4712C84.4263 21.4712 83.5609 21.4718 82.6955 21.4712C82.0765 21.4705 81.9449 21.3361 81.9443 20.7064C81.9443 20.5493 81.9552 20.391 81.9419 20.2358C81.9256 20.0435 81.9926 19.9813 82.1792 19.9876C82.5917 20.0008 83.0041 19.992 83.4166 19.992C84.6643 19.992 85.9125 19.9901 87.1602 19.9932C87.406 19.9938 87.5944 19.9115 87.6844 19.6608C87.7635 19.4403 87.7061 19.2511 87.5431 19.0921C87.4126 18.9646 87.2514 18.9696 87.0895 18.9696C85.61 18.9702 84.131 18.9696 82.6515 18.9696C81.9425 18.9696 81.9425 18.9696 81.9437 18.247C81.9449 17.6695 82.0783 17.5313 82.6418 17.5306C84.433 17.5294 86.2241 17.5306 88.0159 17.53C88.4103 17.53 88.6428 17.3365 88.6398 17.0166C88.6367 16.7049 88.4145 16.5095 88.0395 16.5095C86.0871 16.5076 84.1346 16.5032 82.1822 16.5127C81.3114 16.5171 80.7963 17.0631 80.7896 17.9655C80.7824 18.9809 80.7824 19.997 80.7896 21.0124C80.7963 21.9475 81.3204 22.4897 82.2203 22.496C83.166 22.5023 84.1123 22.4973 85.058 22.4979C85.4608 22.4985 85.863 22.4985 86.2658 22.4985C86.8896 22.4979 87.5141 22.5036 88.1373 22.4941C88.4326 22.4897 88.6428 22.2598 88.6398 21.9808C88.6367 21.7074 88.4423 21.5013 88.1597 21.4762Z" fill="#EFF1F4"/>
<path d="M101.025 20.198C100.876 19.5263 100.463 19.1216 99.8031 19.04C99.5543 19.0092 99.3019 18.9972 99.0507 18.9966C97.7329 18.9922 96.4152 18.9979 95.0975 18.9916C94.6065 18.9891 94.3891 18.7578 94.3861 18.2683C94.3831 17.7939 94.6156 17.552 95.0975 17.5312C95.1977 17.5268 95.2986 17.5287 95.3995 17.5287C97.0493 17.5287 98.6992 17.5293 100.348 17.5275C100.709 17.5268 100.908 17.3434 100.911 17.0241C100.912 16.7018 100.717 16.5089 100.359 16.5082C98.518 16.5057 96.6767 16.4969 94.836 16.5152C93.8366 16.5252 93.3438 17.0266 93.249 18.0547C93.1547 19.0745 93.592 19.7997 94.4175 19.9618C94.6627 20.0095 94.9175 20.0202 95.1676 20.0215C96.5257 20.0278 97.8833 20.0215 99.2415 20.0284C99.7349 20.0309 99.9384 20.2584 99.9366 20.7623C99.9348 21.2562 99.7077 21.4843 99.1908 21.485C97.4503 21.4881 95.7105 21.4881 93.97 21.485C93.688 21.4843 93.473 21.5729 93.4005 21.8796C93.3317 22.1705 93.4476 22.359 93.7647 22.5004C95.7213 22.501 97.6774 22.5017 99.634 22.5023C100.493 22.4231 100.967 21.9782 101.063 21.1337C101.1 20.8233 101.095 20.5097 101.025 20.198Z" fill="#EFF1F4"/>
<path d="M33.3711 17.5303C35.1012 17.5297 36.832 17.5303 38.5622 17.5303C38.6425 17.5303 38.7235 17.5322 38.8038 17.5297C39.1184 17.5209 39.3388 17.3116 39.3419 17.0213C39.3449 16.731 39.1305 16.5136 38.8074 16.5117C37.8013 16.5054 36.7952 16.5092 35.7891 16.5098C34.8234 16.5098 33.8572 16.5017 32.8916 16.5123C32.0201 16.5205 31.5147 17.0584 31.5086 17.9695C31.5026 18.9536 31.505 19.9376 31.508 20.9216C31.511 21.9804 32.008 22.4957 33.0323 22.497C34.9134 22.4995 36.7946 22.4976 38.6763 22.4976C38.7669 22.4976 38.8605 22.5058 38.9469 22.4844C39.206 22.419 39.3473 22.2299 39.3376 21.9622C39.3286 21.7109 39.1903 21.5293 38.9354 21.4865C38.8273 21.4683 38.715 21.4727 38.6045 21.4727C36.9244 21.4721 35.2444 21.4721 33.5643 21.4721C33.4435 21.4721 33.3227 21.4765 33.202 21.4702C32.8209 21.4507 32.6578 21.276 32.6506 20.8808C32.647 20.6822 32.6645 20.4818 32.6458 20.2845C32.6228 20.0482 32.7013 19.9841 32.929 19.986C34.1561 19.9979 35.3839 19.9916 36.611 19.9916C37.0537 19.9916 37.4963 19.9979 37.939 19.9872C38.2258 19.9803 38.41 19.7736 38.4143 19.4896C38.4185 19.2043 38.2373 18.9988 37.9535 18.9737C37.8532 18.9649 37.7524 18.9693 37.6515 18.9693C36.2028 18.9693 34.754 18.9693 33.3052 18.9693C32.6482 18.9693 32.6482 18.9693 32.6488 18.2869C32.6494 17.6667 32.7786 17.5303 33.3711 17.5303Z" fill="#EFF1F4"/>
<path d="M74.6229 16.5231C72.7508 16.5136 70.8787 16.5187 69.0072 16.5212C68.5935 16.5218 68.3767 16.7512 68.3737 17.1829C68.3701 17.7377 68.3725 18.2932 68.3725 18.8481C68.3725 19.8534 68.3695 20.8588 68.3743 21.8642C68.3761 22.311 68.6914 22.5837 69.0809 22.4907C69.352 22.426 69.5127 22.186 69.5133 21.8215C69.5157 20.5126 69.5278 19.2031 69.5054 17.8948C69.4994 17.5599 69.6009 17.4964 69.8901 17.5121C70.3521 17.5366 70.8159 17.5184 71.2785 17.519C72.2949 17.519 73.3112 17.5203 74.3282 17.5197C74.6344 17.5197 74.8892 17.6133 74.9992 17.9394C75.2117 18.5684 74.8995 19.0322 74.2606 19.0353C73.2037 19.0403 72.1469 19.0416 71.0901 19.0347C70.8093 19.0328 70.5888 19.1101 70.4983 19.4067C70.4204 19.6618 70.546 19.8622 70.8684 20.0363C72.2864 20.801 73.7044 21.5658 75.123 22.3305C75.2123 22.3789 75.2993 22.4342 75.3935 22.4681C75.6375 22.5542 75.8953 22.4386 76.0047 22.2036C76.1164 21.9635 76.0512 21.6908 75.835 21.54C75.7353 21.4703 75.6242 21.4181 75.5161 21.3628C74.6628 20.9261 73.8089 20.4906 72.9133 20.0332C73.5305 20.0332 74.0939 20.047 74.6567 20.03C75.5264 20.0036 76.0282 19.5493 76.146 18.6972C76.1713 18.5119 76.1647 18.3208 76.1617 18.133C76.1454 17.1075 75.6031 16.5281 74.6229 16.5231Z" fill="#EFF1F4"/>
<path d="M62.8826 16.6376C62.6145 16.5296 62.3355 16.5094 62.0529 16.5088C61.1977 16.5082 60.342 16.5088 59.4869 16.5082C58.5309 16.5082 57.5749 16.5044 56.6189 16.5094C56.1908 16.512 55.9867 16.72 55.9848 17.1636C55.98 18.7238 55.9806 20.2835 55.9848 21.8437C55.9861 22.2358 56.2083 22.4859 56.5338 22.4928C56.875 22.5004 57.1045 22.2484 57.1099 21.8399C57.1166 21.3372 57.125 20.8345 57.1069 20.3325C57.0978 20.0818 57.1751 20.0177 57.4113 20.0195C58.9204 20.0302 60.4302 20.0252 61.9393 20.0246C62.2316 20.0246 62.5233 20.0051 62.8035 19.9121C63.4201 19.7079 63.7305 19.197 63.7504 18.3663C63.7734 17.4338 63.4956 16.884 62.8826 16.6376ZM61.8802 19.038C60.3734 19.0424 58.8661 19.0355 57.3593 19.0456C57.1534 19.0468 57.1015 18.9764 57.1093 18.7772C57.122 18.4536 57.1292 18.1281 57.1075 17.8058C57.0906 17.5563 57.1866 17.5142 57.401 17.5174C58.1643 17.5299 58.9277 17.5224 59.6916 17.5224C60.4151 17.5224 61.1386 17.5205 61.8614 17.5236C62.3953 17.5262 62.6435 17.7725 62.6405 18.2852C62.6368 18.7879 62.3941 19.0368 61.8802 19.038Z" fill="#EFF1F4"/>
<path d="M51.1018 17.638C51.4666 17.3791 51.4454 16.9123 51.0777 16.7213C50.8573 16.6063 50.6737 16.6955 50.4883 16.823C49.6593 17.3948 48.8217 17.954 47.9999 18.5377C47.7867 18.6891 47.646 18.6992 47.4287 18.5371C46.5784 17.9044 45.7119 17.2955 44.849 16.6829C44.5145 16.4454 44.1806 16.5127 44.0356 16.835C43.9203 17.092 43.9952 17.3226 44.2802 17.5286C45.0314 18.0715 45.7868 18.6087 46.5398 19.1478C46.8133 19.3438 46.8127 19.3432 46.5289 19.5374C45.7645 20.0601 44.9994 20.5804 44.2379 21.1075C43.8744 21.3588 43.8454 21.7886 44.1679 22.011C44.3961 22.1687 44.6015 22.0971 44.8098 21.9532C45.6974 21.3406 46.5923 20.7399 47.4758 20.1204C47.646 20.001 47.7559 20.0073 47.9202 20.128C48.7662 20.7487 49.6212 21.3563 50.4757 21.9639C50.7842 22.1832 51.0698 22.1448 51.2413 21.8772C51.4001 21.6296 51.3259 21.3387 51.0457 21.1176C50.9817 21.0667 50.9134 21.0221 50.8476 20.9743C50.1115 20.4465 49.3748 19.9194 48.5983 19.3627C48.8416 19.1937 49.0403 19.0542 49.2402 18.9172C49.8615 18.4912 50.4877 18.074 51.1018 17.638Z" fill="#EFF1F4"/>
<path fill-rule="evenodd" clip-rule="evenodd" d="M149.146 2.00098C147.489 2.00098 146.146 3.34425 146.146 5.00127V9.00295C146.146 10.66 147.489 12.0032 149.146 12.0032H163.15C164.807 12.0032 166.151 10.66 166.151 9.00295V5.00127C166.151 3.34425 164.807 2.00098 163.15 2.00098H149.146ZM151.421 5.68701C151.394 5.43888 151.283 5.24567 151.086 5.10739C150.891 4.96912 150.637 4.89998 150.324 4.89998C150.104 4.89998 149.916 4.93313 149.759 4.99942C149.602 5.06572 149.481 5.15569 149.398 5.26934C149.315 5.383 149.272 5.51275 149.27 5.6586C149.27 5.77983 149.298 5.88496 149.352 5.97398C149.409 6.06301 149.486 6.13878 149.583 6.20129C149.679 6.2619 149.786 6.31304 149.904 6.35472C150.021 6.39639 150.14 6.43143 150.259 6.45984L150.804 6.59623C151.024 6.64737 151.235 6.71651 151.438 6.80364C151.643 6.89077 151.825 7.00064 151.986 7.13323C152.149 7.26582 152.278 7.42588 152.373 7.61341C152.467 7.80093 152.515 8.02066 152.515 8.27259C152.515 8.61354 152.428 8.91377 152.253 9.17328C152.079 9.43089 151.827 9.63262 151.498 9.77847C151.17 9.92243 150.773 9.99441 150.307 9.99441C149.854 9.99441 149.461 9.92432 149.128 9.78415C148.797 9.64398 148.537 9.43941 148.35 9.17043C148.164 8.90146 148.063 8.57376 148.048 8.18735H149.085C149.101 8.39003 149.163 8.55861 149.273 8.6931C149.383 8.82759 149.526 8.92798 149.702 8.99427C149.88 9.06057 150.079 9.09372 150.299 9.09372C150.528 9.09372 150.729 9.05962 150.901 8.99143C151.075 8.92135 151.212 8.82474 151.31 8.70162C151.409 8.5766 151.459 8.43075 151.461 8.26406C151.459 8.11253 151.414 7.98751 151.327 7.88901C151.24 7.78862 151.118 7.70528 150.961 7.63898C150.805 7.57079 150.623 7.51017 150.415 7.45714L149.753 7.28666C149.274 7.16354 148.895 6.97696 148.617 6.72693C148.34 6.475 148.202 6.14067 148.202 5.72395C148.202 5.3811 148.295 5.08087 148.48 4.82326C148.668 4.56565 148.923 4.36581 149.245 4.22375C149.567 4.07979 149.931 4.00781 150.338 4.00781C150.751 4.00781 151.113 4.07979 151.424 4.22375C151.736 4.36581 151.982 4.56376 152.16 4.81758C152.338 5.06951 152.43 5.35932 152.435 5.68701H151.421ZM158.236 4.08737V9.90633H157.299L154.557 5.94273H154.509V9.90633H153.455V4.08737H154.398L157.137 8.05381H157.188V4.08737H158.236ZM159.385 9.90633H161.357C161.948 9.90633 162.454 9.78984 162.874 9.55685C163.297 9.32386 163.62 8.98954 163.843 8.55387C164.068 8.11821 164.181 7.59731 164.181 6.99117C164.181 6.38692 164.069 5.86791 163.846 5.43414C163.622 5.00037 163.302 4.66794 162.886 4.43685C162.471 4.20386 161.974 4.08737 161.397 4.08737H159.385V9.90633ZM161.306 8.99427H160.439V4.99942H161.337C161.731 4.99942 162.061 5.0733 162.326 5.22104C162.593 5.3669 162.795 5.58757 162.931 5.88306C163.067 6.17666 163.136 6.54603 163.136 6.99117C163.136 7.4363 163.067 7.80756 162.931 8.10495C162.795 8.40044 162.591 8.62301 162.32 8.77265C162.049 8.9204 161.711 8.99427 161.306 8.99427Z" fill="#EFF1F4"/>
</svg>
