<svg xmlns="http://www.w3.org/2000/svg" width="124" height="19" viewBox="0 0 124 19">
    <g fill="none" fill-rule="evenodd">
        <g>
            <g>
                <g>
                    <path fill="#fff" d="M6.644 10.762v2.873h.92c.535 0 .944-.125 1.23-.375.288-.25.43-.603.43-1.062 0-.466-.142-.823-.43-1.068-.286-.245-.695-.368-1.23-.368h-.92zm0-6.477v2.58h.722c.447 0 .788-.11 1.022-.332.234-.222.35-.544.35-.963 0-.42-.116-.739-.35-.957-.234-.217-.575-.328-1.022-.328h-.722zM0 4.918L1.482 0h7.322c1.556 0 2.77.437 3.64 1.31.873.872 1.31 2.085 1.31 3.64 0 .993-.208 1.818-.624 2.476-.416.656-1.005 1.085-1.767 1.283 1.035.256 1.806.736 2.312 1.444.507.708.76 1.66.76 2.851 0 1.688-.478 2.96-1.432 3.821-.957.86-2.363 1.29-4.218 1.29H1.482V4.918H0zM16.394 0L21.896 0 21.896 13.195 26.165 13.195 24.69 18.113 16.394 18.114 16.394 4.918 14.905 4.918 16.387 0zM26.467 4.918L27.95 0h-.001H33.4v9.883c0 1.148.116 1.938.346 2.371.23.434.625.65 1.183.65.551 0 .946-.222 1.183-.67.238-.444.356-1.228.356-2.351V0h5.455v9.832c0 1.287-.071 2.347-.213 3.18-.143.832-.37 1.529-.68 2.09-.611 1.13-1.442 1.996-2.495 2.598-1.053.6-2.255.902-3.606.902-1.358 0-2.562-.302-3.615-.902-1.055-.602-1.884-1.468-2.494-2.599-.305-.551-.526-1.24-.665-2.064-.14-.826-.207-1.892-.207-3.205V4.918h-1.48zM43.281 4.918L44.763 0 44.751 0 54.95 0 53.491 4.918 50.107 4.918 50.107 6.672 54.499 6.672 53.103 11.297 50.107 11.297 50.107 13.197 55.075 13.197 53.601 18.114 44.751 18.114 44.751 4.918z" transform="translate(-48 -277) translate(48 262) translate(0 15)"/>
                    <path fill="#fff" d="M69.976 12.563c1.25-.007 2.163-.293 2.74-.859.575-.564.864-1.45.864-2.653 0-1.178-.276-2.057-.827-2.634-.553-.576-1.396-.866-2.534-.866h-.243v7.012zM64.571 0h4.412c1.41 0 2.616.094 3.614.278.997.186 1.81.474 2.435.86 1.32.825 2.333 1.92 3.04 3.28.706 1.36 1.059 2.912 1.059 4.65 0 1.734-.353 3.277-1.053 4.629-.704 1.353-1.718 2.445-3.045 3.28-.647.395-1.468.684-2.46.866-.995.182-2.326.271-3.994.271H64.57V4.918h.008-1.47l1.46-4.91L64.57 0zM90.567 0l5.326 18.114h-5.889l-.489-2.288h-4.131l-.467 2.288h-5.872l3.95-13.196h-1.468L83 0h7.566zm-3.08 5.498h-.095c-.02.496-.073 1.023-.156 1.585s-.24 1.362-.467 2.401l-.47 2.057h2.28l-.468-2.057c-.23-1.039-.385-1.84-.468-2.401-.083-.562-.135-1.09-.156-1.585zM102.07 4.675V8.23h.855c.522 0 .923-.15 1.205-.453.281-.303.423-.736.423-1.3 0-.579-.142-1.025-.423-1.334-.282-.31-.683-.467-1.205-.467h-.855zM96.714 0h6.88c2 0 3.529.525 4.585 1.575 1.055 1.05 1.584 2.562 1.584 4.537 0 1.29-.266 2.353-.797 3.187-.531.835-1.249 1.322-2.152 1.463l4.069 7.352h-6.142l-2.671-5.959v5.96h-5.356V4.924l-.007-.007h-1.47L96.711 0h.003zM113.954 18.114L113.954 4.918 110.821 4.918 112.29 0 123.254 0 121.767 4.918 119.407 4.918 119.407 18.114z" transform="translate(-48 -277) translate(48 262) translate(0 15)"/>
                </g>
            </g>
        </g>
    </g>
</svg>
