<svg width="126" height="24" viewBox="0 0 126 24" fill="none" xmlns="http://www.w3.org/2000/svg">
<g clip-path="url(#clip0_221_56979)">
<path fill-rule="evenodd" clip-rule="evenodd" d="M87.1514 2.16083e-06H97.1603L95.4921 7.96491H73.6429C76.423 -0.0327466 87.1514 2.16083e-06 87.1514 2.16083e-06ZM52.9897 2.16083e-06H62.3094C70.8057 0.57661 72.269 6.40044 72.5094 7.96491H51.3157L52.9897 2.16083e-06ZM27.9812 2.16083e-06H52.0322L50.3093 7.96491H26.3768C26.8138 5.83845 27.7769 1.13407 27.9812 2.16083e-06ZM3.97475 7.96491L5.65151 2.16083e-06H14.8344C23.499 0.107604 25.0572 6.12939 25.3312 7.96491H3.97475ZM72.411 15.8597H93.8386L92.1778 23.7895C92.1778 23.7895 88.1236 23.7895 81.724 23.7915C79.9155 23.7327 73.7997 23.0007 72.411 15.8598V15.8597ZM49.4905 15.8597L71.5106 15.8772C70.6443 17.9411 67.3117 23.626 58.9328 23.8038L58.0904 23.8045H58.09C57.7211 23.7962 57.4047 23.7972 57.1303 23.8053C54.0943 23.8077 50.9916 23.8108 47.8796 23.8142L49.4902 15.8597H49.4905ZM32.2976 15.8597H40.8417L39.2033 23.825C36.2841 23.8291 33.4044 23.8338 30.6144 23.8389C30.8097 22.8127 31.8212 18.0808 32.2976 15.8597ZM0.598877 24L2.31262 15.8597H24.3742C23.5226 18.0329 20.39 23.6756 10.7873 23.8943C10.4559 23.8958 10.1334 23.8972 9.8151 23.8987C9.80136 23.8985 9.78806 23.8987 9.77431 23.8984C9.37227 23.8918 9.01993 23.8939 8.71379 23.9039C3.68411 23.9297 0.599023 23.9613 0.599023 23.9999L0.598877 24Z" fill="white"/>
<path fill-rule="evenodd" clip-rule="evenodd" d="M96.2399 8.03502L104.733 7.96484L102.977 15.8596L94.3877 15.841L96.2399 8.03502Z" fill="white"/>
<path fill-rule="evenodd" clip-rule="evenodd" d="M125.395 8H106.519L104.759 15.8762L123.639 15.8947L125.395 8ZM111.372 11.0676C111.38 10.8712 111.323 10.7196 111.201 10.6128C111.08 10.506 110.898 10.4526 110.654 10.4526C110.489 10.4526 110.345 10.4762 110.223 10.5233C110.101 10.5688 110.003 10.6325 109.93 10.7141C109.858 10.7943 109.813 10.8869 109.796 10.9922C109.779 11.0786 109.784 11.154 109.812 11.2184C109.842 11.2828 109.888 11.3386 109.951 11.3857C110.015 11.4312 110.091 11.4713 110.178 11.5059C110.266 11.5388 110.359 11.5671 110.457 11.5907L110.87 11.6944C111.072 11.7415 111.253 11.8043 111.414 11.8829C111.577 11.9614 111.713 12.058 111.822 12.1727C111.933 12.2874 112.011 12.4225 112.057 12.578C112.102 12.7335 112.108 12.9118 112.075 13.1128C112.025 13.4082 111.909 13.6642 111.726 13.881C111.543 14.0962 111.303 14.2635 111.006 14.3829C110.709 14.5007 110.365 14.5596 109.974 14.5596C109.586 14.5596 109.259 14.4999 108.992 14.3805C108.724 14.2611 108.53 14.0844 108.408 13.8504C108.287 13.6147 108.251 13.3233 108.3 12.9762H109.282C109.265 13.138 109.289 13.2731 109.353 13.3815C109.418 13.4883 109.516 13.5692 109.646 13.6242C109.776 13.6776 109.928 13.7043 110.103 13.7043C110.277 13.7043 110.431 13.6791 110.565 13.6289C110.701 13.5786 110.811 13.5087 110.896 13.4192C110.98 13.3296 111.032 13.2267 111.051 13.1105C111.069 13.0021 111.053 12.911 111.001 12.8372C110.95 12.7633 110.867 12.7005 110.753 12.6487C110.64 12.5952 110.5 12.5481 110.333 12.5073L109.831 12.3753C109.443 12.2764 109.15 12.1216 108.952 11.9111C108.753 11.7006 108.682 11.4171 108.738 11.0605C108.788 10.7683 108.909 10.5131 109.102 10.2947C109.296 10.0748 109.54 9.90436 109.833 9.7834C110.129 9.66087 110.452 9.59961 110.802 9.59961C111.159 9.59961 111.459 9.66166 111.705 9.78576C111.95 9.90828 112.129 10.0795 112.242 10.2994C112.355 10.5193 112.389 10.7754 112.345 11.0676H111.372ZM117.346 9.66559L116.548 14.4913H115.671L114.088 11.454H114.051L113.547 14.4913H112.531L113.328 9.66559H114.22L115.796 12.7005H115.835L116.335 9.66559H117.346ZM117.387 14.4913H119.113C119.601 14.4913 120.034 14.3978 120.413 14.2109C120.791 14.0224 121.101 13.7522 121.344 13.4003C121.586 13.0469 121.748 12.6235 121.829 12.1303C121.914 11.6197 121.89 11.1807 121.759 10.8131C121.628 10.4439 121.402 10.1604 121.081 9.96248C120.762 9.76455 120.361 9.66559 119.878 9.66559H118.185L117.387 14.4913ZM119.172 13.6171H118.548L119.057 10.5398H119.726C120.026 10.5398 120.268 10.5908 120.453 10.6929C120.637 10.7935 120.761 10.9529 120.825 11.1713C120.891 11.388 120.895 11.6708 120.837 12.0195C120.776 12.3871 120.672 12.6887 120.525 12.9243C120.38 13.16 120.193 13.3343 119.965 13.4474C119.738 13.5605 119.474 13.6171 119.172 13.6171Z" fill="white"/>
</g>
<defs>
<clipPath id="clip0_221_56979">
<rect width="124.796" height="24" fill="white" transform="translate(0.598877)"/>
</clipPath>
</defs>
</svg>
