<svg width="72" height="48" viewBox="0 0 72 48" fill="none" xmlns="http://www.w3.org/2000/svg">
<g clip-path="url(#clip0_1_296)">
<path d="M156 0H0V48H156V0Z" fill="transparent"/>
<path d="M65.3874 27.1604C65.1968 27.351 64.8155 27.1604 64.6249 27.351C64.4343 27.351 64.2436 27.351 64.053 27.351C62.9092 27.351 62.3373 27.9229 62.3373 29.0667C62.3373 30.973 62.3373 32.8794 62.3373 34.9763C62.3373 35.3576 62.1467 35.5482 61.7654 35.5482C60.431 35.5482 60.431 35.5482 60.431 34.2138C60.431 31.5449 60.431 29.0667 60.431 26.3978C60.431 25.8259 60.431 25.8259 61.0029 25.8259H61.1935C62.1467 25.8259 62.1467 25.8259 62.3373 26.7791C62.9092 25.8259 63.8624 25.6353 65.0062 25.6353C65.1968 25.6353 65.3874 25.6353 65.3874 25.8259C65.3874 26.3978 65.3874 26.7791 65.3874 27.1604Z" fill="#fff"/>
<path d="M41.9395 42.0298C41.3676 41.8392 40.9863 41.4579 40.9863 40.886C40.9863 40.6954 40.9863 40.5048 41.1769 40.5048C41.3676 40.5048 41.5582 40.5048 41.5582 40.886C41.5582 41.4579 41.7488 41.4579 42.702 41.4579C43.0833 41.4579 43.2739 41.2673 43.2739 40.886C43.2739 40.5048 43.0833 40.3141 42.702 40.1235C42.3207 39.9329 41.9395 39.9329 41.5582 39.7422C40.9863 39.5516 40.7957 39.1703 40.7957 38.2171C40.7957 37.6452 41.1769 37.264 41.7488 37.264C42.3207 37.0733 42.702 37.0733 43.2739 37.264C43.6552 37.4546 44.0364 37.6452 44.0364 38.2171C44.0364 38.4078 44.2271 38.5984 43.8458 38.789C43.6552 38.789 43.2739 38.789 43.2739 38.4078C43.2739 38.2171 43.0833 38.0265 42.702 38.0265C42.5114 38.0265 42.3207 38.0265 42.1301 38.0265C41.7488 38.0265 41.5582 38.2171 41.5582 38.5984C41.5582 38.9797 41.5582 39.361 42.1301 39.361C42.5114 39.5516 43.0833 39.5516 43.4645 39.7422C44.0364 39.9329 44.2271 40.5048 44.2271 41.2673C44.2271 41.8392 43.8458 42.2205 43.2739 42.4111C43.0833 42.0298 42.5114 42.0298 41.9395 42.0298C42.1301 42.0298 42.1301 42.0298 41.9395 42.0298Z" fill="#fff"/>
<path d="M22.1135 42.0298C21.351 41.6485 21.1604 41.0766 21.351 40.3141C21.351 39.5516 21.351 38.789 21.351 38.0265C21.351 37.4546 21.7323 37.0733 22.3042 36.8827C22.8761 36.8827 23.2574 36.8827 23.8293 36.8827C24.4012 37.0733 24.7824 37.6452 24.5918 38.2171C24.5918 38.4078 24.4012 38.4078 24.2105 38.4078C24.0199 38.4078 23.8293 38.4078 23.8293 38.2171C23.8293 38.0265 23.8293 37.6452 23.448 37.4546C23.0667 37.264 22.6855 37.264 22.3042 37.4546C22.1136 37.4546 22.1135 37.6452 22.1135 38.0265C22.1135 38.789 22.1135 39.7422 22.1135 40.5047C22.1135 40.886 22.3042 41.0766 22.6855 41.0766C22.8761 41.0766 23.0667 41.0766 23.0667 41.0766C23.2574 41.0766 23.6386 41.0766 23.6386 40.6954C23.8293 40.3141 23.8293 40.1235 23.6386 39.7422C23.6386 39.5516 23.2574 39.5516 23.0667 39.5516C22.8761 39.5516 22.6855 39.5516 22.6855 39.1703C22.6855 38.789 22.8761 38.789 23.0667 38.789C24.2105 38.789 24.2105 38.789 24.2105 39.9328C24.2105 40.886 24.0199 41.2673 23.2574 41.2673C23.0667 42.0298 22.6855 42.0298 22.1135 42.0298Z" fill="#fff"/>
<path d="M37.7455 42.0298C36.9829 41.6485 36.7923 41.0766 36.9829 40.3141C36.9829 39.5516 36.9829 38.789 36.9829 38.0265C36.9829 37.4546 37.1736 37.0733 37.7455 37.0733C38.1267 36.8827 38.6986 37.0733 39.0799 37.0733C39.6518 37.2639 40.0331 37.4546 40.0331 38.2171C40.0331 38.4078 40.2237 38.789 39.6518 38.789C39.2705 38.789 39.0799 38.789 39.0799 38.4078C39.0799 38.0265 38.8893 37.8358 38.508 37.8358C37.3642 37.8358 37.3642 37.8358 37.3642 38.9797C37.3642 39.5516 37.3642 40.1235 37.3642 40.6954C37.3642 41.2673 37.5548 41.4579 38.1267 41.4579C38.3174 41.4579 38.3174 41.4579 38.508 41.4579C38.8893 41.4579 39.0799 41.2673 39.0799 40.886C39.0799 40.5047 39.0799 40.3141 39.4612 40.3141C39.8424 40.3141 39.8425 40.5047 39.8425 40.886C39.8425 41.6485 39.4612 41.8392 38.8893 42.0298C38.8893 42.0298 38.3174 42.0298 37.7455 42.0298C37.9361 42.0298 37.7455 42.0298 37.7455 42.0298Z" fill="#fff"/>
<path d="M16.9664 8.66887C16.9664 9.43141 16.9664 10.1939 16.9664 10.7658C16.9664 11.1471 16.7758 11.3377 16.5851 11.719C15.0601 13.2441 13.7256 14.5785 12.2006 16.1036C12.0099 16.1036 11.6287 16.2942 11.8193 16.6755C12.2006 17.0568 12.3912 17.438 12.7725 17.438C14.1069 17.438 15.4413 17.438 16.7758 17.438C17.3477 17.438 17.3477 17.6287 17.3477 18.0099C17.3477 19.535 17.3477 20.8694 17.3477 22.3945C17.3477 22.7758 17.157 22.9664 16.7758 22.9664C15.4413 22.9664 14.1069 22.9664 12.7725 22.9664C12.2006 22.9664 11.2474 23.9196 11.2474 24.4915C11.2474 25.8259 11.2474 27.1604 11.2474 28.6854C11.2474 29.0667 11.2474 29.2573 10.8661 29.448C9.15042 31.1637 7.62535 32.6887 5.90965 34.4044C5.71902 34.5951 5.52838 34.5951 5.33775 34.5951C3.81268 34.5951 2.09697 34.5951 0.571901 34.5951C0.190634 34.5951 0 34.4044 0 34.0232C0 32.4981 0 30.7824 0 29.2573C0 29.0667 2.68221e-07 28.8761 0.190634 28.6854C1.90634 26.9697 3.62204 25.254 5.33775 23.7289C5.52838 23.5383 5.71902 23.5383 6.10028 23.5383C7.43472 23.5383 8.76916 23.5383 10.1036 23.5383C10.8661 23.5383 11.6287 22.5851 11.6287 22.0132C11.6287 20.8694 11.6287 19.535 11.6287 18.3912C11.6287 18.2006 11.438 18.0099 11.438 17.8193C10.8661 17.2474 10.2942 16.8661 9.53169 16.8661C8.38789 16.8661 7.24409 16.8661 6.10028 16.8661C6.10028 16.8661 5.90965 16.6755 5.90965 16.2942C5.90965 14.7692 5.90965 13.2441 5.90965 11.719C5.90965 11.5284 5.90965 11.3377 6.10028 11.1471C7.81599 9.43141 9.53169 7.7157 11.2474 6.19063C11.438 6 11.6287 6 11.8193 6C13.3444 6 14.8694 6 16.3945 6C16.7758 6 16.9664 6.19063 16.9664 6.5719C16.9664 7.1438 16.9664 7.90634 16.9664 8.66887Z" fill="#fff"/>
<path d="M24.4012 26.7791C25.7356 25.254 28.2139 25.4446 29.3577 26.9697C30.3108 25.6353 31.8359 25.6353 33.1703 25.8259C34.3141 26.0165 35.0767 26.9697 35.0767 28.3041C35.0767 30.5918 35.0767 32.6887 35.0767 34.9763C35.0767 35.3576 34.886 35.3576 34.6954 35.3576C34.3141 35.3576 34.1235 35.3576 33.7422 35.3576C33.361 35.3576 33.1703 35.167 33.1703 34.7857C33.1703 32.8794 33.1703 30.7824 33.1703 28.8761C33.1703 27.7322 32.7891 27.351 31.6453 27.351C31.0734 27.351 30.5015 27.351 30.1202 27.7322C29.9296 28.1135 29.9296 28.6854 29.9296 29.2573C29.9296 31.1637 29.9296 32.8794 29.9296 34.7857C29.9296 35.3576 29.7389 35.3576 29.3577 35.3576C28.0232 35.3576 28.0232 35.3576 28.0232 34.2138C28.0232 32.4981 28.0232 30.7824 28.0232 28.8761C28.0232 27.7322 27.6419 27.1603 26.3075 27.1603C26.1169 27.1603 25.9262 27.1603 25.7356 27.1603C24.7824 27.1603 24.2105 27.7322 24.2105 28.6854C24.2105 30.5918 24.2105 32.6887 24.2105 34.5951C24.2105 34.9763 24.0199 35.167 23.6386 35.167C22.3042 35.167 22.3042 35.167 22.3042 33.8325C22.3042 31.1637 22.3042 28.6854 22.3042 26.0165C22.3042 25.4446 22.3042 25.4446 22.8761 25.4446C22.8761 25.4446 22.8761 25.4446 23.0667 25.4446C24.4012 25.8259 24.4012 25.8259 24.4012 26.7791Z" fill="#fff"/>
<path d="M16.3945 35.3576C15.8226 35.3576 15.0601 35.3576 14.4882 35.3576C14.1069 35.3576 14.1069 35.167 14.1069 34.9763C14.1069 33.6419 13.9163 34.0232 15.0601 33.8325C15.8226 33.8325 16.7758 33.8325 17.5383 33.8325C18.3009 33.8325 18.6821 33.6419 18.6821 33.2606C18.8728 32.6887 18.6821 32.1168 17.9196 31.7356C17.1571 31.3543 16.3945 30.973 15.632 30.5918C15.4414 30.4011 15.2507 30.4011 15.0601 30.2105C13.7257 29.448 13.535 27.9229 14.1069 26.9697C14.4882 26.0166 15.4414 25.8259 16.3945 25.6353C17.5383 25.6353 18.6821 25.6353 19.6353 25.6353C20.0166 25.6353 20.0166 25.8259 20.0166 26.0166C20.0166 27.351 20.0166 27.1604 18.8728 27.1604C18.1102 27.1604 17.5383 27.1604 16.7758 27.1604C16.3945 27.1604 15.8226 27.1604 15.632 27.7323C15.4414 28.1135 15.632 28.6854 16.2039 28.8761C16.9664 29.2573 17.9196 29.8292 18.8728 30.2105C20.5885 30.973 20.7791 32.3075 20.3978 33.6419C20.2072 34.4044 19.4447 34.9763 18.3009 35.167C17.729 35.3576 16.9664 35.3576 16.3945 35.3576Z" fill="#fff"/>
<path d="M56.0464 30.2105C56.0464 30.973 56.0464 31.7356 56.0464 32.4981C56.0464 33.4513 56.4277 33.8326 57.3808 33.8326C57.5715 33.8326 57.5715 33.8326 57.7621 33.8326C58.5246 33.8326 58.5246 33.8326 58.5246 34.5951C58.5246 35.3576 58.5246 35.3576 57.7621 35.3576C57.1902 35.3576 56.8089 35.3576 56.237 35.3576C54.9026 34.9764 54.1401 34.0232 54.1401 32.4981C54.1401 30.973 54.1401 29.2573 54.1401 27.7323C54.1401 27.351 53.9494 27.1604 53.5682 27.1604C52.615 27.1604 52.615 27.1604 52.615 26.2072C52.615 25.6353 52.615 25.6353 53.1869 25.6353C53.3775 25.6353 53.3775 25.6353 53.5682 25.6353C53.9494 25.6353 53.9494 25.4447 53.9494 25.254C53.9494 24.8728 53.9494 24.3009 53.9494 23.9196C53.9494 23.5383 54.1401 23.5383 54.3307 23.3477C55.6651 23.1571 55.6651 23.1571 55.6651 24.6821C55.6651 25.6353 55.6651 25.6353 56.6183 25.6353C56.9996 25.6353 57.1902 25.6353 57.5715 25.6353C57.9527 25.6353 58.1434 25.8259 58.1434 26.2072C58.1434 27.5416 58.334 27.351 57.1902 27.351C55.8558 27.351 55.8558 27.351 55.8558 28.6854C56.0464 29.0667 56.0464 29.6386 56.0464 30.2105Z" fill="#fff"/>
<path d="M49.1835 26.7791C49.946 25.6353 50.8992 25.6353 51.8524 25.826C52.4243 26.0166 52.043 26.5885 52.2337 26.9698C52.2337 27.351 52.043 27.351 51.8524 27.351C51.4711 27.351 51.2805 27.351 50.8992 27.351C49.7554 27.351 49.1835 27.9229 49.1835 29.0667C49.1835 30.9731 49.1835 32.8794 49.1835 34.7857C49.1835 35.167 48.9929 35.3576 48.6116 35.3576C47.4678 35.3576 47.4678 35.3576 47.4678 34.2138C47.4678 31.545 47.4678 28.8761 47.4678 26.3979C47.4678 26.0166 47.6584 25.6353 48.0397 25.826C48.0397 25.826 48.0397 25.826 48.2303 25.826C48.9929 25.826 48.9929 25.826 49.1835 26.7791Z" fill="#fff"/>
<path d="M29.7389 42.0298C29.3576 42.0298 28.7857 42.0298 28.4044 42.0298C27.8325 41.8392 27.4513 41.4579 27.4513 40.886C27.4513 40.6954 27.4513 40.5047 27.6419 40.5047C27.8325 40.5047 28.0232 40.5047 28.0232 40.6954C28.0232 41.4579 28.4044 41.2673 29.3576 41.2673C29.9295 41.2673 29.9295 40.886 29.9295 40.5047C29.9295 40.1235 29.7389 39.9328 29.3576 39.9328C28.9763 39.7422 28.5951 39.7422 28.2138 39.5516C27.6419 39.3609 27.4513 38.9797 27.4513 38.5984C27.4513 38.2171 27.4513 38.0265 27.4513 37.6452C27.6419 37.0733 28.0232 36.8827 28.5951 36.8827C29.3576 36.8827 30.1201 36.6921 30.5014 37.6452C30.692 38.2171 30.5014 38.4078 30.1201 38.4078C29.9295 38.4078 29.7389 38.4078 29.7389 38.2171C29.7389 37.8359 29.5482 37.6452 29.167 37.6452C28.9763 37.6452 28.7857 37.6452 28.5951 37.6452C28.2138 37.6452 28.0232 37.8359 28.0232 38.2171C28.0232 38.5984 28.0232 38.9797 28.4044 38.9797C28.7857 39.1703 29.167 39.1703 29.7389 39.1703C30.5014 39.3609 30.692 39.7422 30.692 40.6954C30.692 41.4579 30.3108 41.8392 29.7389 42.0298Z" fill="#fff"/>
<path d="M33.1703 42.0298C32.9797 42.0298 32.789 42.0298 32.5984 42.0298C32.4078 41.8392 32.5984 41.6485 32.5984 41.6485C32.5984 40.5047 32.5984 39.3609 32.5984 38.4077C32.5984 38.0265 32.4078 37.8358 32.0265 37.8358C31.8359 37.8358 31.8359 37.8358 31.6452 37.8358C31.4546 37.8358 31.4546 37.6452 31.4546 37.4546C31.4546 37.2639 31.4546 37.0733 31.6452 37.0733C32.5984 37.0733 33.3609 37.0733 34.3141 37.0733C34.5047 37.0733 34.5047 37.2639 34.5047 37.4546C34.5047 37.6452 34.5047 37.8358 34.3141 37.8358C33.9328 37.8358 33.5516 37.6452 33.3609 37.8358C33.1703 38.0265 33.3609 38.5984 33.3609 38.789C33.3609 39.7422 33.3609 40.5047 33.3609 41.4579C33.1703 41.6485 33.1703 41.8392 33.1703 42.0298Z" fill="#fff"/>
<path d="M16.2039 42.0298C15.2507 42.0298 14.4882 42.0298 13.535 42.0298C13.535 40.5047 13.535 38.9796 13.535 37.4546C13.535 37.2639 13.535 37.0733 13.9163 37.0733C14.1069 37.0733 14.2975 37.0733 14.2975 37.4546C14.2975 38.5984 14.2975 39.7422 14.2975 40.886C14.2975 41.2672 14.4882 41.4579 14.8694 41.4579C15.2507 41.4579 15.632 41.4579 16.0132 41.4579C16.3945 41.4579 16.3945 41.4579 16.2039 42.0298Z" fill="#fff"/>
<path d="M26.3075 42.0298C26.1168 42.0298 25.9262 42.0298 25.7356 42.0298C25.5449 42.0298 25.7356 41.8391 25.7356 41.6485C25.7356 40.3141 25.7356 38.789 25.7356 37.4546C25.7356 37.0733 25.7356 37.0733 26.1168 37.0733C26.4981 37.0733 26.4981 37.2639 26.4981 37.4546C26.4981 38.789 26.4981 40.3141 26.4981 41.6485C26.3075 41.8391 26.3075 41.8392 26.3075 42.0298Z" fill="#fff"/>
<path d="M35.8392 42.0298C35.6485 42.0298 35.4579 42.0298 35.0766 42.0298C35.0766 40.5047 35.0766 38.9796 35.0766 37.4546C35.0766 37.2639 35.2673 37.0733 35.4579 37.0733C35.6485 37.0733 35.8392 37.0733 35.8392 37.4546C35.8392 38.9796 35.8392 40.5047 35.8392 42.0298Z" fill="#fff"/>
<path d="M20.2072 38.9796C20.2072 37.2639 20.0165 37.0733 18.3008 37.0733C17.3477 37.0733 16.9664 37.4546 16.9664 38.4077C16.9664 39.1703 16.9664 39.7422 16.9664 40.5047C16.9664 41.2673 17.157 41.8392 17.9196 42.2204C17.9196 42.2204 17.9196 42.2204 18.1102 42.2204C18.4915 42.0298 19.0634 42.2204 19.4446 42.2204C20.2072 42.0298 20.3978 41.8392 20.3978 41.0766C20.3978 40.1234 20.2072 39.5515 20.2072 38.9796ZM19.4446 38.9796C19.4446 39.5515 19.4446 40.3141 19.4446 40.886C19.4446 41.2672 19.254 41.4579 18.8727 41.4579C18.6821 41.4579 18.4915 41.4579 18.4915 41.4579C17.9196 41.4579 17.7289 41.2672 17.7289 40.6953C17.7289 40.3141 17.7289 39.9328 17.7289 39.5515C17.7289 39.1703 17.7289 38.789 17.7289 38.2171C17.7289 37.8358 17.9196 37.6452 18.3008 37.6452C19.6353 37.8358 19.6353 37.6452 19.4446 38.9796Z" fill="#fff"/>
<path d="M44.9896 26.2072C44.9896 25.8259 44.799 25.8259 44.6083 25.8259C43.0833 25.8259 41.5582 25.8259 40.2237 25.8259C38.508 25.8259 37.5549 26.9697 37.5549 28.4948C37.5549 30.0198 37.5549 31.5449 37.5549 32.8794C37.5549 34.2138 38.3174 35.167 39.6518 35.3576C40.2237 35.5482 40.605 35.3576 41.1769 35.3576C41.9394 35.3576 42.702 35.167 43.2739 34.4044C43.4645 35.3576 43.4645 35.3576 44.4177 35.3576C44.6083 35.3576 44.6083 35.3576 44.799 35.3576C45.1802 35.3576 45.1802 35.167 45.1802 34.9763C44.9896 32.1168 44.9896 29.0667 44.9896 26.2072ZM43.0833 32.6887C42.8926 33.4513 42.5114 33.8325 41.7488 33.8325C41.3675 33.8325 40.9863 33.8325 40.605 33.8325C39.8425 33.8325 39.2706 33.4513 39.2706 32.6887C39.2706 31.3543 39.2706 30.0198 39.2706 28.6854C39.2706 27.9229 39.6518 27.5416 40.605 27.5416C41.3675 27.5416 42.1301 27.5416 42.8926 27.5416C43.2739 27.5416 43.2739 27.7322 43.2739 27.9229C43.2739 28.6854 43.2739 29.4479 43.2739 30.2105C43.0833 30.7824 43.0833 31.7355 43.0833 32.6887Z" fill="#fff"/>
</g>
<defs>
<clipPath id="clip0_1_296">
<rect width="72" height="48" fill="transparent"/>
</clipPath>
</defs>
</svg>
