<svg width="147" height="24" viewBox="0 0 147 24" fill="none" xmlns="http://www.w3.org/2000/svg">
    <g clip-path="url(#aa37kfb0da)" fill="#fff">
        <path d="M56.444 11.884c.674 0 1.297-.088 1.868-.26a4.55 4.55 0 0 0 1.477-.735c.415-.318.74-.705.973-1.16.235-.456.35-.978.35-1.56v-.053c0-1.117-.406-1.99-1.22-2.62-.812-.627-1.953-.94-3.422-.94h-5.603v7.328h5.577zM46.967 1.236h9.805c1.411 0 2.667.202 3.763.6 1.096.403 2.003.961 2.72 1.674a5.843 5.843 0 0 1 1.302 1.983c.305.755.458 1.589.458 2.498v.065c0 .953-.153 1.803-.458 2.55a5.85 5.85 0 0 1-1.286 1.95 6.966 6.966 0 0 1-1.97 1.363 9.533 9.533 0 0 1-2.475.761l7.015 9.287h-4.813l-6.619-8.83h-3.54v8.83h-3.9V1.238l-.002-.002zM75.718 5.1H68.7V1.236H86.62V5.1H79.6v18.865h-3.883V5.1zM91.481 1.236h16.514V5.1H95.364v5.569h11.162v3.863H95.364v5.569h12.794v3.864H91.481V1.236zM8.292 12.548c.731 0 1.397-.095 2.001-.28a4.632 4.632 0 0 0 1.554-.8 3.54 3.54 0 0 0 .996-1.23 3.62 3.62 0 0 0 .343-1.597v-.05c0-1.269-.438-2.228-1.312-2.878-.876-.652-2.037-.976-3.48-.976h-4.51v7.812h4.408v-.001zM0 1.27h8.535c1.281 0 2.446.168 3.501.503 1.053.333 1.954.812 2.704 1.429a6.174 6.174 0 0 1 1.726 2.256c.402.89.602 1.893.602 3.021v.066c0 1.234-.238 2.308-.715 3.23a6.964 6.964 0 0 1-1.938 2.321c-.814.628-1.764 1.099-2.85 1.413-1.085.313-2.235.47-3.453.47H3.884V24H0V1.27H0zM142.913 8.562c-1.404 1.397-3.689 1.397-5.112 0-1.403-1.397-1.403-3.673 0-5.09 1.404-1.418 3.688-1.398 5.112 0a3.57 3.57 0 0 1 0 5.09zm-6.825-6.799c-2.361 2.351-2.361 6.15 0 8.483l4.271 4.25 4.271-4.25c2.361-2.35 2.361-6.15 0-8.483a6.056 6.056 0 0 0-8.543 0M122.824 11.813c.674 0 1.297-.087 1.868-.258a4.548 4.548 0 0 0 1.476-.736c.416-.319.741-.706.974-1.161.235-.455.35-.977.35-1.56v-.052c0-1.118-.406-1.99-1.219-2.62-.813-.628-1.953-.94-3.423-.94h-5.603v7.328h5.577zm-9.477-10.647h9.805c1.411 0 2.667.202 3.762.599 1.097.404 2.004.962 2.721 1.674a5.84 5.84 0 0 1 1.302 1.983c.306.756.458 1.59.458 2.498v.066c0 .952-.152 1.803-.458 2.55a5.836 5.836 0 0 1-1.286 1.95 6.965 6.965 0 0 1-1.97 1.363 9.528 9.528 0 0 1-2.475.76l7.015 9.287h-4.813l-6.619-8.83h-3.539v8.83h-3.902V1.168l-.001-.002zM31.447.996c-6.374 0-11.543 5.141-11.543 11.484s5.168 11.484 11.543 11.484c6.376 0 11.543-5.14 11.543-11.484C42.99 6.137 37.823.996 31.447.996zm0 19.096c-4.226 0-7.65-3.408-7.65-7.612 0-4.204 3.424-7.612 7.65-7.612 4.226 0 7.651 3.408 7.651 7.612 0 4.204-3.425 7.612-7.65 7.612z"/>
    </g>
    <defs>
        <clipPath id="aa37kfb0da">
            <path fill="#fff" d="M0 0h146.401v24H0z"/>
        </clipPath>
    </defs>
</svg>
