<svg width="70" height="24" viewBox="0 0 70 24" fill="none" xmlns="http://www.w3.org/2000/svg">
    <g clip-path="url(#1dvegxcita)">
        <path d="M7.887 5.33h25.818c1.098.002 2.195-.003 3.292.003l.025.005c-.84.595-1.676 1.194-2.51 1.797-1.239.9-2.482 1.796-3.726 2.688-.625.442-1.25.882-1.881 1.316l-.88.59c-1.32.867-2.679 1.688-4.124 2.332-.775.343-1.586.627-2.43.733-.477.054-.97.074-1.435-.06-.35-.1-.674-.283-.953-.516-.263-.213-.477-.477-.707-.724-.533-.605-1.065-1.21-1.63-1.785a16.271 16.271 0 0 0-3.283-2.537c-.055-.032-.11-.072-.176-.071-.83-.027-1.66.014-2.489.068.131.05.27.076.402.122.715.232 1.385.584 2.027.971.58.355 1.14.745 1.678 1.161.426.318.821.674 1.21 1.034.38.363.747.74 1.079 1.148.447.546.892 1.116 1.491 1.506.367.249.788.414 1.22.505.397.09.808.09 1.212.071.491-.036.976-.135 1.447-.279.7-.215 1.374-.508 2.03-.832 1.359-.689 2.64-1.517 3.885-2.393 1.924-1.34 3.793-2.755 5.658-4.173 1.187-.893 2.36-1.805 3.56-2.679.77-.002 1.54 0 2.309 0l-.022.019c-.38.249-.754.506-1.127.766-2.514 1.73-4.956 3.56-7.444 5.328-.602.434-1.214.853-1.825 1.274-1.254.858-2.535 1.68-3.874 2.4-.716.389-1.454.739-2.217 1.023-.841.31-1.722.54-2.622.576a4.816 4.816 0 0 1-2.273-.448c-.691-.342-1.24-.91-1.707-1.512-.228-.283-.43-.587-.67-.86a13.55 13.55 0 0 0-1.167-1.196c-1.033-.944-2.211-1.717-3.443-2.376-.755-.4-1.536-.755-2.346-1.031-.082-.026-.17-.001-.254 0-.335.027-.672.044-1.006.09-.043.006-.086.008-.129.01.006-1.154.001-2.309.003-3.463.002-.2-.005-.4.004-.6z" fill="#fff"/>
        <path d="M38.66 6.854a84 84 0 0 1 1.964-1.409v1.422a1.265 1.265 0 0 1-.047.037c-2.557 1.723-5.009 3.596-7.509 5.4-.62.457-1.251.895-1.879 1.34a61.452 61.452 0 0 1-3.623 2.397c-.68.41-1.369.803-2.077 1.16-.755.376-1.526.727-2.331.983-.892.284-1.82.487-2.76.493a6.04 6.04 0 0 1-2.322-.406 6.008 6.008 0 0 1-1.922-1.241c-.266-.254-.49-.546-.717-.832-.21-.267-.402-.548-.629-.801a12.803 12.803 0 0 0-2.63-2.337c-1.268-.86-2.682-1.48-4.126-1.977-.058-.02-.118-.035-.17-.068.002-.285.001-.57 0-.855.62.17 1.226.387 1.824.622.812.322 1.602.695 2.37 1.111 1.465.81 2.79 1.883 3.853 3.178.222.28.444.56.674.832a5.436 5.436 0 0 0 1.626 1.255c.383.178.784.32 1.199.404.508.106 1.03.136 1.548.105a7.912 7.912 0 0 0 1.466-.242 12.643 12.643 0 0 0 2.335-.875c1.422-.684 2.756-1.533 4.059-2.418 1.206-.855 2.404-1.721 3.587-2.609l.024.04-.008-.043c.252-.2.516-.386.77-.583 1.24-.931 2.477-1.867 3.718-2.796.578-.428 1.15-.864 1.732-1.287z" fill="#fff"/>
        <path d="M37.073 10.332a155.774 155.774 0 0 1 3.552-2.605c-.002 5.424-.001 10.848 0 16.272H7.884c-.006-3.823.002-7.647-.004-11.47.117.016.226.065.34.098 1.337.457 2.624 1.071 3.792 1.87.425.296.833.618 1.214.97.315.273.605.574.881.887.182.19.332.408.5.61.187.224.363.456.563.669a7.036 7.036 0 0 0 1.76 1.378 6.702 6.702 0 0 0 2.215.739 7.13 7.13 0 0 0 1.51.066 9.472 9.472 0 0 0 1.456-.193c.758-.16 1.492-.419 2.21-.71a24.433 24.433 0 0 0 3.279-1.726c.664-.408 1.31-.844 1.953-1.282.618-.42 1.222-.858 1.826-1.297.57-.421 1.145-.838 1.711-1.266 1.332-.997 2.654-2.007 3.982-3.01zM50.457 16.82c.29-.008.58-.031.87-.035-.002 1.008 0 2.015 0 3.023 0 .105.007.233.103.3.093.06.211.035.316.041l.003.176c-.252.002-.504 0-.756.002-.025-.148-.037-.298-.062-.446-.112.194-.272.376-.492.445a.796.796 0 0 1-.638-.077 1.039 1.039 0 0 1-.451-.628 1.635 1.635 0 0 1-.011-.776c.065-.278.237-.532.48-.682.245-.15.576-.17.821-.012a.987.987 0 0 1 .295.315c-.005-.419 0-.838-.003-1.257.003-.083-.06-.156-.135-.18-.11-.04-.226-.03-.34-.032v-.177zm-.301 1.444a.522.522 0 0 0-.322.347c-.077.254-.08.523-.062.786.022.212.048.45.212.606a.464.464 0 0 0 .56.084.757.757 0 0 0 .33-.43c.064-.216.069-.445.054-.668-.024-.246-.117-.505-.322-.657a.504.504 0 0 0-.45-.068zM44.885 16.997v-.177c.538.002 1.076 0 1.614.001v.177c-.156.003-.317-.014-.47.027-.088.03-.08.141-.088.216v2.653c.007.083-.003.206.1.235.149.04.307.01.46.023-.001.058-.002.116-.001.175-.539-.002-1.078.001-1.616-.001 0-.06.002-.119.003-.177.151-.004.305.012.455-.017.107-.02.096-.152.103-.236.002-.885.002-1.77 0-2.655-.004-.073.003-.179-.08-.21-.155-.054-.32-.027-.48-.034zM56.536 16.998a.787.787 0 0 1 .012-.182c.6.01 1.201 0 1.802.005.247.014.505.055.715.196a.874.874 0 0 1 .39.6c.04.27-.01.58-.22.773-.249.222-.582.342-.914.352-.242.007-.484 0-.726.004.002.412-.007.825.004 1.238-.005.092.083.154.168.16.149.009.3.003.45.004 0 .059 0 .118.002.177h-1.682a.807.807 0 0 1 .007-.178c.141-.001.283.009.423-.006.075-.008.126-.085.121-.158V17.21c.006-.075-.023-.16-.101-.184-.147-.043-.301-.025-.45-.027zm1.09.069c-.046.068-.027.154-.031.23v1.275c.233-.004.467.01.7-.014.197-.023.408-.1.514-.28.12-.217.124-.476.101-.717-.019-.205-.133-.408-.324-.495-.222-.098-.47-.087-.706-.085-.088.006-.197.007-.254.086zM63.908 17.187c.05-.007.098-.013.15-.017.033.301.006.608.014.912.24.002.478-.002.718.002l-.004.22c-.237-.003-.475 0-.712-.001-.003.482-.002.965 0 1.447-.003.132.056.28.186.333.131.062.296.007.382-.106.114-.143.135-.333.146-.51l.164.003c-.024.23-.047.484-.212.662-.221.256-.657.279-.908.057-.127-.119-.163-.3-.157-.468v-1.419h-.385v-.164c.15-.033.303-.098.4-.224.16-.206.207-.473.218-.727zM60.051 18.041c.276-.058.58-.01.812.155.253.173.416.461.456.763.057.397-.02.848-.33 1.129-.228.21-.552.317-.861.274a.96.96 0 0 1-.631-.364c-.174-.206-.25-.478-.26-.743-.01-.252.038-.51.167-.73a1.03 1.03 0 0 1 .647-.484zm.149.152c-.208.027-.366.203-.439.391-.092.26-.094.543-.08.817.02.236.07.493.251.662.197.202.562.18.74-.035.191-.21.21-.507.227-.776 0-.289-.002-.609-.182-.851a.535.535 0 0 0-.517-.208zM61.707 18.295c.19-.24.537-.301.82-.22.111.026.206.091.306.143.08-.061.133-.2.255-.154.017.262.04.523.058.785h-.16a1.172 1.172 0 0 0-.207-.408.675.675 0 0 0-.796-.16c-.17.084-.263.322-.141.482.138.165.37.184.566.223.232.05.49.066.677.228a.667.667 0 0 1 .223.447c.007.206-.122.388-.273.515-.177.159-.428.208-.659.19a1.062 1.062 0 0 1-.526-.21c-.052.056-.1.117-.152.173-.036.044-.1.016-.148.022-.01-.294-.035-.587-.044-.881l.151-.001c.078.178.145.367.283.51.143.162.369.224.579.214.145-.008.302-.05.4-.166.105-.12.12-.326.001-.441-.066-.074-.169-.094-.26-.118-.23-.052-.466-.09-.692-.163a.592.592 0 0 1-.374-.322c-.104-.225-.045-.503.113-.688zM46.643 18.106c.246-.01.492-.033.738-.042.032.16.046.321.07.482.129-.21.325-.393.571-.449.23-.053.502-.043.689.119.173.156.242.4.245.628.007.37-.002.74.005 1.111 0 .064.02.143.087.17.095.036.2.02.3.025l.003.176c-.39.001-.78.002-1.172 0l.004-.177c.115-.009.256.023.346-.069.048-.048.036-.123.041-.184-.002-.322.002-.644-.003-.965-.003-.181-.043-.38-.188-.503-.171-.137-.428-.124-.609-.012-.203.131-.311.376-.319.613-.008.289-.002.577-.004.866 0 .081.005.183.086.228.097.035.203.024.306.027v.177h-1.175c0-.06.002-.118.004-.176.13-.006.344.029.383-.141.008-.466 0-.932.003-1.398.002-.094 0-.202-.074-.272-.086-.094-.225-.072-.339-.082 0-.051 0-.102.002-.152zM54.014 18.07c.25-.046.52-.044.758.058a.56.56 0 0 1 .35.487c.005.417-.001.835.002 1.252.001.1.02.221.116.276.094.034.19-.012.275-.05.022.04.046.08.063.122a.477.477 0 0 1-.645.092.782.782 0 0 1-.188-.3c-.148.122-.28.274-.468.336a1.122 1.122 0 0 1-.735-.02.495.495 0 0 1-.295-.548c.037-.223.222-.384.412-.486.328-.176.7-.25 1.066-.297-.014-.194.05-.42-.086-.583-.198-.248-.6-.244-.84-.061-.094.064-.006.164.033.233.062.085.06.21-.01.29-.12.134-.374.092-.442-.075a.38.38 0 0 1 .042-.36.89.89 0 0 1 .592-.366zm-.095 1.317c-.209.122-.283.403-.198.623a.32.32 0 0 0 .31.197c.278.01.534-.185.639-.437.08-.198.051-.416.052-.624-.274.052-.56.096-.803.24zM52.581 17.146c.183-.042.37.157.306.337a.27.27 0 0 1-.327.18c-.113-.034-.206-.147-.193-.268a.27.27 0 0 1 .214-.249zM51.85 18.104c.293-.006.586-.013.879-.026.004.65-.007 1.301.005 1.951.05.179.283.102.42.119v.176c-.42.002-.84 0-1.26.002v-.176c.127-.017.28.034.388-.053.066-.08.043-.195.049-.29-.003-.42 0-.838-.001-1.257 0-.08-.025-.166-.095-.21-.112-.079-.258-.054-.386-.059v-.177z" fill="#fff"/>
        <path d="M49.942.003c.042.004.095-.015.132.01-.031.012-.066.012-.097.014l.008.033c-.04.007-.091-.003-.112.04l-.092.02.003.02c-.033.006-.073.005-.09.04-.03.007-.068.003-.077.038a.18.18 0 0 0-.095.042 2.12 2.12 0 0 1-.109.024c-.003.042-.047.033-.077.04-.012.029-.046.03-.07.04l.002.017a1.86 1.86 0 0 0-.094.02c-.02.031-.058.031-.09.039l.007.019c-.034.006-.07.008-.092.036-.086.04-.177.072-.255.123a1.93 1.93 0 0 0-.064.024c-.031.02-.066.032-.096.053-.029.012-.06.017-.082.04-.03.007-.062.01-.077.04a.52.52 0 0 0-.161.079c-.027.012-.062.013-.075.043-.03.007-.072 0-.081.038-.027.005-.056.005-.061.037l-.094.022.005.022c-.031.008-.08-.004-.087.037-.088.02-.156.082-.242.107-.012.03-.05.026-.072.036l.004.017c-.085.023-.152.087-.24.105l.003.015c-.051.015-.093.05-.145.062l.005.017-.075.022c-.018.026-.049.034-.076.044a.46.46 0 0 1-.166.078v.013a.081.081 0 0 0-.05.04c-.03.008-.062.013-.082.038l-.072.026.004.018a1.942 1.942 0 0 0-.091.023c-.011.026-.038.033-.06.042a.227.227 0 0 1-.078.041c-.064.049-.139.08-.21.117l.002.016a2.25 2.25 0 0 0-.073.021c-.02.027-.052.034-.081.043-.005.031-.035.031-.06.037a.18.18 0 0 1-.078.042l-.07.054a.32.32 0 0 0-.066.036c-.041.023-.084.043-.124.068-.02.023-.05.03-.076.04a.2.2 0 0 1-.07.038v.014c-.024.012-.06.01-.068.043l-.052.006v.03c-.032.01-.082 0-.083.046l-.048.004c-.035.055-.114.06-.165.099l-.027.032-.043.003c-.008.033-.041.035-.067.043l-.03.031-.042.006c-.027.043-.079.059-.12.082a.19.19 0 0 1-.08.04c-.008.03-.039.031-.062.04a.368.368 0 0 1-.133.082.342.342 0 0 1-.052.037v.012c-.05.013-.089.044-.13.069a.184.184 0 0 1-.088.037l.002.03-.052.008c-.05.053-.12.087-.184.123-.043.033-.101.048-.132.094l-.051.005-.001.032c-.034.003-.065.014-.085.042a2.27 2.27 0 0 0-.045.035c-.029.008-.059.014-.078.038l-.057.043-.062.028a.238.238 0 0 1-.147.079v.031l-.043.001v.02c-.024.011-.058.013-.066.045h-.036l.003.034a1.957 1.957 0 0 0-.084.019c-.022.054-.092.053-.124.098a.167.167 0 0 0-.074.046 8.442 8.442 0 0 1-.073.024l.001.032-.053.004c-.042.064-.132.074-.178.135l-.037.012c-.03.02-.059.04-.083.065a.28.28 0 0 0-.136.082c-.026.006-.053.01-.058.04-.027.006-.055.01-.063.042l-.033.003.002.032a.64.64 0 0 0-.09.027.5.5 0 0 1-.058.044c-.02.025-.05.032-.077.042a.196.196 0 0 1-.095.073l.006.017c-.027.007-.061.004-.07.036-.049.014-.079.063-.132.066v.015a.06.06 0 0 0-.048.041l-.036.002.004.038a3.315 3.315 0 0 0-.068.005 1.69 1.69 0 0 0-.028.033c-.064.036-.118.09-.19.11a1.355 1.355 0 0 0-.06.068l-.044.003c-.005.03-.032.037-.055.046-.016.02-.039.03-.06.041a.261.261 0 0 1-.04.04 1.153 1.153 0 0 0-.136.09.494.494 0 0 1-.105.067c-.04.029-.077.06-.115.09a.357.357 0 0 0-.095.064 83.73 83.73 0 0 0-1.965 1.408c-.581.424-1.153.86-1.731 1.288-1.242.929-2.478 1.864-3.718 2.795-.255.197-.519.383-.77.583l.007.044-.024-.04a159.43 159.43 0 0 1-3.587 2.608c-1.303.886-2.637 1.735-4.059 2.418-.75.36-1.527.669-2.335.875-.48.12-.97.215-1.465.242-.518.032-1.04.001-1.549-.104a5.36 5.36 0 0 1-1.198-.405 5.437 5.437 0 0 1-1.626-1.254c-.23-.273-.453-.552-.675-.832a13.313 13.313 0 0 0-3.853-3.178 22.006 22.006 0 0 0-2.37-1.112 18.135 18.135 0 0 0-1.824-.621l-.031-.007.004-.018c-.066-.005-.13-.016-.196-.025l.003-.02c-.05-.01-.104-.006-.147-.036-.06-.014-.122-.02-.183-.026-.019-.043-.07-.027-.106-.033-.05-.051-.137-.03-.203-.044l.003-.02a1.284 1.284 0 0 0-.126-.014l-.002-.024c-.048-.009-.118.019-.147-.033-.098-.005-.195-.022-.293-.029-.056-.057-.153-.008-.216-.056-.069-.01-.138-.014-.207-.023-.074-.036-.16-.027-.238-.047a1.52 1.52 0 0 1 .21-.031v-.02c.069-.003.137-.011.205-.015l-.005-.021c.106.001.21-.022.316-.023v-.02c.081 0 .16-.016.241-.019l-.003-.021c.093.001.185-.018.278-.02l.001-.02c.087-.002.173-.017.26-.018v-.02c.08.003.16-.017.241-.016l-.003-.022c.122.005.244-.02.366-.019.036 0 .07-.007.105-.015.334-.045.671-.062 1.007-.09.084 0 .171-.026.254 0 .81.276 1.59.632 2.346 1.032 1.232.659 2.41 1.43 3.443 2.376.412.374.802.774 1.166 1.196.24.273.442.576.67.859.468.603 1.016 1.17 1.708 1.512a4.816 4.816 0 0 0 2.273.448c.9-.035 1.78-.265 2.621-.576a17.412 17.412 0 0 0 2.217-1.022c1.34-.72 2.62-1.543 3.875-2.4.61-.421 1.223-.84 1.825-1.275 2.487-1.767 4.93-3.598 7.443-5.328.374-.26.748-.517 1.128-.766a.115.115 0 0 0 .035-.032.201.201 0 0 0 .065-.043l.037-.012c.048-.054.118-.084.179-.122l.059-.042a.56.56 0 0 1 .12-.077c.032-.024.068-.043.1-.067l.036-.011c.024-.042.07-.059.101-.093l.038-.01c.028-.022.058-.042.082-.07l.043-.006.028-.04c.03-.01.074-.01.085-.05l.052-.006-.001-.033.05-.01c.013-.02.035-.032.057-.044a.326.326 0 0 1 .065-.035c.007-.029.034-.032.06-.038.009-.026.034-.033.059-.042l.056-.044a.323.323 0 0 1 .063-.035c.013-.028.044-.03.07-.04l.024-.034.053-.002-.002-.035.054-.005c.003-.033.032-.037.06-.042.005-.031.033-.034.059-.039.007-.029.04-.03.062-.041.032-.064.12-.05.152-.11l.051-.007v-.032l.052-.008c.025-.044.078-.058.12-.083a.837.837 0 0 1 .06-.04c.07-.033.125-.095.202-.115a.059.059 0 0 1 .049-.04l-.002-.015a.239.239 0 0 0 .087-.035l.04-.044.057-.013c.04-.044.104-.06.14-.109l.054-.004-.004-.034.117-.027V3.41c.043-.04.121-.032.148-.087l.043-.006c.009-.043.072-.025.076-.073l.047-.005c.002-.041.045-.035.076-.043a.957.957 0 0 1 .05-.054.384.384 0 0 0 .13-.073c.028-.056.111-.033.135-.085.023-.007.053-.007.06-.037a.277.277 0 0 0 .142-.08.184.184 0 0 0 .101-.056l.042-.007a.147.147 0 0 1 .06-.044c.029-.036.098-.02.11-.071l.055-.005-.006-.024a4.1 4.1 0 0 0 .05-.014l-.006-.02c.032-.005.066-.011.088-.038.022-.008.05-.014.062-.039a.51.51 0 0 0 .18-.098l.05-.005-.002-.032.052-.008c.026-.018.053-.035.078-.056.025-.012.065-.009.075-.041.03-.009.064-.013.081-.043l.053-.009-.002-.028a.223.223 0 0 0 .15-.079l.053-.005v-.032c.068.004.115-.048.177-.067l-.003-.018.084-.02-.005-.019c.031-.005.064-.012.088-.036.047-.027.1-.045.142-.08.025-.01.052-.019.08-.028.017-.022.044-.03.07-.038l-.002-.017.083-.02-.002-.017c.03-.007.064-.015.085-.042l.084-.024c.008-.033.04-.033.069-.038l-.004-.02.066-.016-.002-.019c.035-.007.071-.017.107-.027.013-.03.043-.032.07-.038l-.001-.019.083-.018-.004-.019c.055-.014.114-.03.152-.076a.414.414 0 0 0 .154-.066l-.004-.014.1-.022-.001-.018c.06-.012.111-.048.17-.068a.235.235 0 0 1 .08-.039c.052-.034.111-.055.169-.077l-.004-.018c.03-.008.08.005.088-.036.035-.009.08-.005.1-.042l.085-.021c.024-.028.061-.033.095-.044.022-.025.054-.031.085-.04a.161.161 0 0 1 .097-.037c.04-.05.111-.059.17-.078L48.035.76l.101-.021-.003-.021.102-.02-.003-.019c.032-.006.07-.007.09-.037.066-.013.123-.048.187-.065a.217.217 0 0 1 .095-.042.324.324 0 0 1 .08-.038c.038-.025.083-.03.127-.037l-.001-.018.092-.023c.026-.031.069-.032.106-.04l-.003-.017c.068-.018.13-.05.2-.065a.255.255 0 0 1 .114-.04c.027-.014.057-.025.076-.051.043-.007.087-.014.131-.023l-.001-.019c.072-.006.132-.051.203-.06l-.007-.022.104-.005a1.82 1.82 0 0 0-.002-.033l.124-.005-.006-.036z" fill="#EFF1F4"/>
        <path d="M53.362.563c.112-.007.214-.065.328-.067-.002.048-.05.056-.084.075a.317.317 0 0 1-.109.03l.006.025-.084.014.001.02-.084.018.005.018c-.032.008-.077.001-.088.039L53.12.76l.005.016a.341.341 0 0 0-.09.042l-.073.01.002.03c-.041.002-.085.001-.11.038l-.101.025c-.015.036-.054.03-.084.036-.02.04-.07.032-.105.042l.005.02-.086.017.003.02a.606.606 0 0 1-.134.02l.05.018c-.03.01-.078-.002-.084.04-.072.006-.131.052-.202.066-.02.026-.054.028-.084.035-.018.035-.063.032-.095.043-.013.039-.06.028-.09.037l.004.019c-.027.007-.063.003-.072.035-.033.012-.089 0-.094.046-.026 0-.052.002-.077.003l.002.033c-.081-.005-.143.054-.22.063l.004.022-.086.015.006.02a3.653 3.653 0 0 0-.084.018l.003.022c-.033.008-.077-.001-.089.038-.035.01-.092-.004-.095.045h-.059l.003.035a7.037 7.037 0 0 0-.102.007l.004.034-.064.002.002.035c-.042.008-.103-.008-.125.038l-.094.024.005.02a1.43 1.43 0 0 0-.093.023c-.021.03-.057.034-.09.037v.022c-.031.007-.073 0-.086.037l-.074.019.003.022a3.203 3.203 0 0 0-.071.007c-.014.057-.096.023-.115.075h-.045l-.025.037-.083.01v.029l-.06.004v.033a.843.843 0 0 0-.122.02l.005.02a.488.488 0 0 0-.169.08c-.029.01-.064.011-.079.042l-.052.007.002.031c-.038.007-.095-.009-.108.04a4.91 4.91 0 0 0-.1.025c-.018.03-.052.034-.081.04a.46.46 0 0 1-.176.083.095.095 0 0 1-.055.035l.005.016c-.068.01-.122.058-.19.065-.014.038-.057.033-.088.04v.029l-.055.009c-.025.027-.06.036-.095.04-.01.034-.046.03-.072.038l.004.02a4.482 4.482 0 0 0-.082.02l.003.02c-.028.005-.065 0-.069.037l-.085.022c-.019.037-.064.033-.098.042-.01.037-.048.035-.077.042-.01.028-.038.032-.061.038-.016.033-.053.032-.083.038-.009.03-.04.033-.063.043a1.237 1.237 0 0 1-.083.038l.003.018-.063.006v.03c-.032.006-.073.002-.088.038-.03.008-.062.014-.079.042l-.054.006.005.035-.102.009.001.027a.157.157 0 0 0-.087.039c-.024.01-.052.014-.06.04-.03.009-.066.007-.08.039-.03.011-.06.017-.08.042-.029.009-.06.014-.078.04a.29.29 0 0 0-.076.038c-.047.027-.093.057-.146.07-.007.033-.043.029-.068.035l.002.016a.963.963 0 0 0-.15.076c-.022.012-.046.021-.06.042-.051.018-.106.038-.139.084l-.069.004.002.036c-.032.008-.075.003-.09.04l-.072.02.002.016c-.026.01-.053.017-.07.04l-.063.025c-.067.047-.14.09-.215.122a.203.203 0 0 1-.052.039v.014c-.03.008-.076-.001-.081.04-.047.013-.087.041-.13.064a.388.388 0 0 0-.076.053 6.36 6.36 0 0 0-.082.025c-.009.027-.033.035-.056.043a.151.151 0 0 1-.08.039.383.383 0 0 1-.04.042.304.304 0 0 1-.08.037c-.015.021-.039.03-.062.038-.014.032-.05.03-.077.04a.096.096 0 0 1-.053.04l.004.014-.074.023-.074.056c-.038.017-.074.038-.112.054v.024c-.06.002-.096.05-.148.07-.03.04-.083.054-.12.087-.021.012-.049.017-.059.042-.025.006-.051.01-.058.038a.295.295 0 0 0-.138.082c-.049.01-.085.045-.12.078-.025.007-.05.014-.06.04-.03.008-.058.017-.078.04a.595.595 0 0 0-.062.037l-.06.04c-.02.013-.047.02-.059.043-.025.006-.05.01-.057.038-.024.01-.05.016-.06.042-.03.008-.059.017-.078.04a1.392 1.392 0 0 0-.046.025.382.382 0 0 1-.06.042.693.693 0 0 0-.072.052 1.036 1.036 0 0 0-.047.026.263.263 0 0 1-.077.041.443.443 0 0 1-.081.067l-.04.01c-.007.029-.035.034-.058.041-.026.037-.068.055-.102.08-.032.023-.076.031-.092.069l-.036.003.003.021-.054.021c-.024.02-.047.04-.073.057a.609.609 0 0 0-.06.04l-.044.026a.876.876 0 0 1-.06.041c-.024.018-.049.036-.074.051a.204.204 0 0 0-.044.038c-.042.022-.09.04-.117.081a.13.13 0 0 0-.06.042c-.023.008-.05.012-.054.04-.025.006-.049.015-.065.035a.5.5 0 0 0-.042.04c-.026.007-.052.014-.057.044l-.044.009c-.008.026-.032.035-.054.044-.03.019-.062.037-.08.068h-.037l.003.036c-.032.008-.077.001-.086.043a2.069 2.069 0 0 0-.035.005l.005.035a7.048 7.048 0 0 1-.063.004l.003.036-.062.003v.036l-.05.006a1.597 1.597 0 0 0-.036.05c-.01 0-.031.005-.041.006-.028.035-.067.056-.102.081-.023.027-.056.033-.088.038l.002.029c-.094.042-.166.12-.254.17-.02.018-.04.034-.053.058-.013 0-.04.003-.053.005l.002.031c-.027.006-.06.006-.067.04-.024.008-.047.016-.06.038l-.06.041-.054.041a155.75 155.75 0 0 0-3.552 2.606c-1.328 1.003-2.65 2.013-3.982 3.01-.566.428-1.14.845-1.71 1.266-.605.439-1.21.877-1.827 1.297-.644.438-1.29.874-1.953 1.282a24.433 24.433 0 0 1-3.28 1.725c-.717.292-1.45.55-2.21.711-.479.102-.966.167-1.454.193a7.13 7.13 0 0 1-1.51-.066 6.702 6.702 0 0 1-2.216-.739 7.036 7.036 0 0 1-1.76-1.378c-.2-.213-.376-.445-.563-.669-.168-.202-.318-.42-.5-.61a9.53 9.53 0 0 0-.881-.888c-.381-.35-.789-.673-1.214-.969-1.168-.799-2.455-1.413-3.792-1.87-.114-.033-.223-.082-.34-.099-.035-.03-.081-.03-.124-.034v-.022l-.13-.02-.018-.023c-.088-.022-.174-.056-.266-.058l-.001-.029a6.482 6.482 0 0 0-.124-.005 1.1 1.1 0 0 1 .003-.025 5.199 5.199 0 0 0-.103-.013l.003-.02-.16-.023.003-.021a3.589 3.589 0 0 0-.162-.017l.003-.022-.142-.02.004-.02a1.843 1.843 0 0 0-.198-.022v-.029l-.121-.008.002-.021c-.039-.007-.086 0-.115-.033-.068-.01-.137-.02-.205-.027l.003-.02a2.21 2.21 0 0 1-.136-.018c-.065-.053-.167-.009-.23-.062a.8.8 0 0 0-.135-.017l.002-.02c-.06-.007-.12-.016-.179-.022l.002-.02a1.683 1.683 0 0 1-.139-.014c-.07-.051-.175-.011-.248-.062a1.953 1.953 0 0 0-.175-.02l.002-.02c-.087 0-.171-.021-.258-.022l.005-.02a1.036 1.036 0 0 0-.187-.016l.003-.024c-.067-.005-.134-.013-.201-.017l.003-.02c-.1-.003-.198-.022-.298-.022l.005-.022c-.064-.005-.132 0-.19-.033-.072-.006-.144-.015-.216-.019l-.002-.02c-.125 0-.249-.025-.374-.024l.004-.023c-.108 0-.214-.024-.322-.017l.005-.024c-.108-.003-.214-.019-.321-.016l.003-.024c-.1.003-.2-.02-.301-.014l-.001-.02c-.118.001-.236-.02-.354-.016l-.002-.025c-.206.008-.411-.027-.618-.018l.002-.024c-.183.004-.364-.017-.547-.014-.04-.003-.084.006-.118-.02-.146-.002-.292-.008-.438-.006C.052 11.2.01 11.21 0 11.176c.014-.038.058-.025.09-.031l-.003-.018c.077-.01.144-.055.222-.06l-.002-.02.104-.016-.004-.021a3.67 3.67 0 0 0 .124-.02l-.003-.02c.086 0 .156-.057.242-.061l-.006-.021.102-.008-.001-.029a.91.91 0 0 0 .142-.02l-.003-.02.159-.023-.003-.022c.034-.004.068-.009.103-.012v-.023l.14-.02-.004-.02a.848.848 0 0 0 .114-.021c.06-.037.133-.034.2-.045l-.001-.015a.065.065 0 0 0 .057-.035c.079-.006.156-.022.235-.03.016-.033.054-.028.084-.036.059-.033.129-.03.193-.045.041-.04.102-.029.154-.033l-.004-.022.125-.014-.003-.02c.064-.007.128-.015.191-.024.048-.045.124-.028.185-.041l-.002-.02c.054-.012.12.003.163-.038.066-.017.144-.002.202-.041.038-.007.077-.011.116-.014l-.003-.023a1.73 1.73 0 0 0 .185-.018l-.005-.02a.586.586 0 0 0 .155-.02c.018-.023.05-.018.075-.022.066-.005.132-.016.199-.022.046-.057.126-.016.19-.022v.02c.098.004.194.025.292.026v.024c.054.006.108.011.162.013l-.002.021.145.016-.004.02c.067.004.133.013.2.021l-.003.022c.048 0 .096.003.144.005v.029c.085.008.169.023.254.026l-.003.02c.06.01.119.019.178.023v.023l.088.009-.003.02c.073.006.145.018.217.025l-.004.021.144.017-.004.022c.06.008.12.016.18.02 0 .008 0 .023-.002.03l.162.01-.002.031.122.006-.005.025h.067v.03c.079.003.155.023.234.028l-.004.022c.042.008.084.013.126.015l-.004.022.14.02-.004.022.088.013-.002.02c.063.007.125.018.188.026.017.054.085.029.128.038l-.002.032.104.005-.004.025.14.018-.001.028.121.01-.001.029c.036.004.072.01.107.017.053.033.113.049.17.067 1.445.499 2.859 1.118 4.127 1.978a12.807 12.807 0 0 1 2.63 2.336c.226.254.42.535.628.802.228.286.452.578.717.831.554.531 1.21.957 1.923 1.241a6.037 6.037 0 0 0 2.322.407c.94-.006 1.867-.21 2.76-.494.805-.255 1.576-.606 2.33-.983a31.53 31.53 0 0 0 2.078-1.159 61.452 61.452 0 0 0 3.623-2.397c.627-.445 1.26-.884 1.879-1.34 2.5-1.805 4.951-3.677 7.509-5.4l.047-.037.03-.027c.025-.007.057-.009.062-.042l.034-.003V6.76c.031-.008.077-.001.084-.045h.037l-.003-.034.1-.023-.003-.018c.039-.022.083-.042.109-.082l.052-.006-.001-.035.044-.003a1.391 1.391 0 0 1-.004-.03.84.84 0 0 0 .093-.026c.022-.02.045-.04.07-.06l.072-.025v-.03l.06-.006c0-.007 0-.021-.002-.028a.216.216 0 0 0 .1-.054c.045-.028.09-.057.135-.088.02-.012.044-.019.056-.042.041-.023.09-.043.117-.084.026-.002.057-.002.06-.038l.072-.02.049-.06.053-.005a2.04 2.04 0 0 1-.001-.035l.052-.002a5.49 5.49 0 0 0 .027-.034c.05-.017.088-.054.139-.068l-.003-.02.044-.002v-.033l.06-.005-.002-.033c.029-.01.078.002.083-.04.025-.006.052-.014.064-.04.023-.009.048-.016.072-.023l-.002-.016c.034-.029.089-.036.11-.08.028-.007.069 0 .076-.039.07-.03.134-.074.202-.108.02-.03.053-.036.087-.038v-.03l.043-.003-.002-.019a.487.487 0 0 0 .067-.038c.043-.025.085-.053.133-.069l-.002-.02h.045l-.004-.035.064-.003-.002-.034c.032-.008.084.006.086-.041l.055-.005-.002-.033c.03-.008.076.002.085-.039.093-.046.184-.097.276-.146l-.006-.015c.028-.005.064-.003.066-.04.03-.01.078 0 .078-.046l.039.004-.002-.035.1-.024-.003-.017c.036-.027.086-.038.11-.08.026-.008.069-.002.075-.04.069-.027.13-.072.197-.103l-.004-.02.044-.001-.002-.033c.031-.007.08.004.085-.042.03-.006.07 0 .08-.038a.208.208 0 0 0 .08-.038c.021-.01.046-.02.061-.04.02-.01.04-.018.062-.026.04-.04.107-.046.135-.097l.054-.004-.002-.036c.016 0 .047-.003.062-.004l-.002-.034c.036-.009.098.01.102-.042.026-.004.057-.003.065-.036.034-.008.07-.014.097-.04a.656.656 0 0 1 .128-.065c.012-.035.054-.027.083-.037V3.74c.024-.01.056-.013.07-.04l.07-.022v-.018c.024-.008.062-.005.066-.04l.094-.022-.004-.022.1-.023-.001-.029.072-.009c.008-.025.025-.037.052-.038l-.005-.018.087-.018-.007-.02a.136.136 0 0 0 .087-.04l.056-.01v-.029c.03-.007.08.006.084-.04.028-.009.073.002.083-.037.029-.008.068-.005.08-.04.029-.009.072-.002.077-.042l.073-.01v-.029c.03-.01.08.003.084-.04.037-.004.076-.007.102-.039.023-.007.051-.011.061-.04.036-.008.073-.017.11-.024l-.003-.019.09-.024c.017-.035.056-.032.089-.04l-.002-.014a.43.43 0 0 1 .154-.063c.015-.032.054-.029.082-.04.054-.038.125-.05.175-.094.026-.013.072-.005.078-.043l.074-.006-.003-.033.082-.006-.002-.032.101-.01-.003-.032.083-.004-.002-.032c.08 0 .145-.043.216-.067l-.001-.016c.058-.02.124-.033.17-.077.028-.01.067-.005.082-.038a.276.276 0 0 0 .108-.041c.025-.009.063-.007.064-.044.032-.002.063-.003.097-.003l-.003-.033.105-.02-.006-.02c.066 0 .117-.046.18-.053l.002-.024c.031-.009.076-.001.088-.04l.092-.011-.003-.03c.08.001.148-.039.22-.064l-.002-.017c.03-.01.081.004.087-.04l.093-.01-.002-.03c.038-.005.09.006.11-.039l.096-.019-.007-.02c.044-.005.093-.007.127-.04.026-.013.072-.003.081-.04.033-.01.088.008.099-.038l.105-.022c.013-.037.058-.022.087-.033v-.024l.138-.025-.004-.02.095-.02a.147.147 0 0 1 .09-.039l-.003-.017c.05-.01.1-.02.15-.026.007-.045.057-.029.09-.035l-.004-.022c.047-.018.12 0 .147-.051a4.15 4.15 0 0 1 .086-.01c.003-.047.056-.03.089-.037l-.005-.023.12-.02-.002-.02c.034-.007.068-.012.104-.018l-.004-.021.105-.016v-.023l.102-.015-.004-.022.1-.01V1.04a9.87 9.87 0 0 0 .137-.02V.997l.12-.02-.002-.02.107-.017-.007-.021.15-.024c.023-.049.083-.032.127-.04v-.02l.094-.022c.037-.027.084-.029.129-.035l-.005-.02c.047-.007.093-.015.14-.021l-.003-.021.103-.015V.678l.123-.018-.005-.02c.092.003.171-.053.262-.056l.001-.021z" fill="#EFF1F4"/>
        <path d="M44.096.82c.04-.036.1-.12.153-.052a.694.694 0 0 1-.12.06c-.003.036-.04.035-.066.04l.001.033h-.063l.004.034c-.027.007-.058.008-.07.037a.43.43 0 0 0-.06.04c-.022.011-.045.022-.058.043a2.494 2.494 0 0 0-.051.024c-.06.046-.13.081-.186.132a.741.741 0 0 0-.06.039.65.65 0 0 0-.118.081.792.792 0 0 0-.107.067 7.668 7.668 0 0 1-.128.091.41.41 0 0 1-.117.067l.002.014c-.06.03-.111.076-.17.108-.02.02-.045.029-.068.038v.012a.087.087 0 0 0-.05.042l-.04.008a2.568 2.568 0 0 0-.077.072l-.074.023.002.036-.052.003c-.016.02-.033.039-.05.057a.215.215 0 0 0-.066.037l-.058.04c-.06.038-.12.08-.178.12a1.346 1.346 0 0 0-.049.027c-.02.014-.038.027-.056.042-.019.016-.038.033-.055.05a.423.423 0 0 0-.119.08 1.746 1.746 0 0 0-.114.08 1.89 1.89 0 0 0-.052.023c-.018.03-.053.036-.084.043l.001.034h-.042v.038l-.053.003c-.003.037-.039.037-.066.043l.001.03-.06.007v.035a3.677 3.677 0 0 0-.05.007c-.028.041-.072.065-.111.094-.012.005-.035.014-.046.02a.382.382 0 0 1-.06.058.217.217 0 0 0-.084.055l-.04.012c-.006.028-.033.033-.056.042a.422.422 0 0 1-.04.042c-.032.023-.083.026-.096.069l-.034.001.002.018a.56.56 0 0 0-.108.077 3.23 3.23 0 0 0-.123.081 1.025 1.025 0 0 0-.04.038c-.024.009-.05.015-.057.044l-.039.009c-.056.053-.125.088-.184.136a.263.263 0 0 1-.076.041c-.036.055-.105.071-.141.127-.025.008-.05.014-.058.043l-.038.01a.14.14 0 0 1-.072.044v.025a.218.218 0 0 0-.128.078c-.023.01-.047.019-.06.042a3.938 3.938 0 0 0-.05.025 3.259 3.259 0 0 0-.025.03.641.641 0 0 0-.086.052.334.334 0 0 1-.12.079c-.004.032-.032.036-.057.04a.494.494 0 0 1-.159.12c-.016.019-.038.03-.06.04-.027.022-.058.041-.078.071l-.041.003c-.007.035-.04.039-.066.047l-.001.031-.033.002c-.005.03-.033.037-.058.043-.025.037-.066.056-.101.08-.02.015-.04.028-.06.04-.016.022-.043.03-.067.04a1.63 1.63 0 0 0-.048.051c-.04.018-.084.038-.1.083l-.053.003.002.033c-.056.004-.084.06-.138.068v.031l-.059.005-.001.034-.042.001.004.027-.036.002a.055.055 0 0 1-.05.043l.002.03-.06.002-.002.032c-.042.006-.068.038-.102.058-.057.038-.115.074-.164.12a2.347 2.347 0 0 0-.035.012l-.042.042c-1.202.873-2.374 1.785-3.56 2.678-1.866 1.419-3.736 2.834-5.66 4.173-1.243.876-2.526 1.704-3.884 2.393-.656.325-1.33.617-2.03.832-.47.145-.956.243-1.447.28-.405.018-.815.018-1.212-.072a3.422 3.422 0 0 1-1.22-.505c-.6-.39-1.044-.96-1.491-1.506a12.561 12.561 0 0 0-1.079-1.147c-.389-.361-.784-.717-1.21-1.035a18.637 18.637 0 0 0-1.678-1.16c-.643-.388-1.312-.74-2.027-.972-.133-.045-.271-.072-.402-.122.829-.053 1.659-.095 2.49-.068.065 0 .12.04.175.072 1.196.7 2.302 1.555 3.282 2.536.566.575 1.098 1.18 1.631 1.785.23.247.444.51.706.724.28.233.603.416.954.516.466.134.958.115 1.435.06.844-.106 1.655-.39 2.43-.732 1.445-.645 2.803-1.466 4.123-2.334.294-.195.587-.393.88-.588.631-.434 1.257-.874 1.882-1.317a724.29 724.29 0 0 0 3.726-2.687c.834-.604 1.67-1.203 2.51-1.798l-.025-.005-.013-.002c.033-.011.089.004.097-.044l.036-.003a1.561 1.561 0 0 0-.004-.032.14.14 0 0 0 .11-.059l.048-.008-.002-.033.053-.007c.004-.032.032-.037.06-.044.01-.017.021-.035.033-.052l.066-.025c.008-.027.034-.034.058-.042.026-.035.072-.047.103-.079l.061-.038a.171.171 0 0 1 .063-.041l.001-.013a.053.053 0 0 0 .048-.042l.052-.005v-.03c.025-.01.062-.009.07-.042l.034-.006a2.314 2.314 0 0 0-.006-.033c.034-.004.08-.003.087-.047l.036.003v-.035l.09-.026c.003-.03.029-.036.054-.043a.808.808 0 0 1 .042-.04.216.216 0 0 0 .081-.062l.045-.014.054-.042a3.86 3.86 0 0 1 .08-.067l.038-.01c.009-.027.034-.034.059-.042a.42.42 0 0 1 .041-.04.211.211 0 0 1 .07-.036l-.002-.015a.21.21 0 0 0 .093-.056l.037-.01a.114.114 0 0 1 .04-.042.773.773 0 0 0 .136-.095l.035-.006-.002-.029a.162.162 0 0 0 .086-.04l.042-.03a.165.165 0 0 1 .067-.039l-.001-.018.046-.004-.003-.034c.012 0 .035.003.046.004l-.003-.038.061-.007-.001-.033.063-.005-.004-.032c.037-.006.077-.013.102-.045l.045-.024c.011-.025.037-.031.061-.04l.075-.057.035-.004-.003-.034.048-.007c.026-.03.062-.05.097-.07l.06-.038a.282.282 0 0 1 .13-.07l.001-.03.033-.004a.722.722 0 0 1 .073-.06 1.91 1.91 0 0 0 .066-.022c.01-.026.035-.033.059-.042a.382.382 0 0 1 .104-.077l.074-.051c.02-.014.045-.024.059-.046l.038-.007c.026-.024.056-.043.083-.067.023-.009.05-.016.056-.045h.037l-.002-.035c.037-.008.098.006.102-.049l.029.002c.006-.043.058-.037.077-.07.027-.01.06-.014.076-.042.057-.025.108-.06.161-.095.024-.006.05-.013.055-.043l.053-.006v-.035l.053-.005c.004-.034.037-.035.065-.043v-.013c.044-.024.086-.05.126-.08a.806.806 0 0 1 .109-.065 1.42 1.42 0 0 0 .072-.054c.071-.03.131-.078.196-.119.072-.031.136-.076.202-.118.017-.014.035-.027.054-.04.022-.01.046-.017.07-.026a.216.216 0 0 1 .107-.067v-.026c.105-.02.184-.101.28-.144l-.001-.015c.026-.007.053-.015.069-.04l.087-.028v-.01l.051-.04c.021-.01.043-.019.066-.028.032-.022.065-.044.096-.069l.04-.006c.018-.025.044-.043.069-.06l.044-.011a.394.394 0 0 1 .085-.054.38.38 0 0 0 .074-.054l.084-.024c.025-.043.078-.055.118-.08.022-.021.051-.03.08-.04.01-.026.037-.031.061-.04.045-.03.101-.047.134-.092.026-.013.066-.01.08-.042.027-.01.061-.01.08-.036l.038-.024h.044z" fill="#EFF1F4"/>
        <path d="M54.735 8.295h.418c.101.038.208.062.304.114.206.11.383.281.488.491.15.305.168.657.126.988 1.415.002 2.83 0 4.245 0v.216c-.274 0-.548.002-.823 0-.004 1.089 0 2.178-.001 3.266-.008.107.032.237.149.264.109.016.22.005.33.008.004.07.004.14.003.21-.475 0-.95 0-1.424.002a1.392 1.392 0 0 1 .006-.214c.107 0 .214.01.32-.006.095-.017.14-.116.155-.202.022-.156.01-.314.008-.47-.264.226-.586.39-.927.458a.965.965 0 0 1-.729-.138c-.27-.167-.446-.44-.59-.716-.108-.214-.252-.421-.465-.543.027-.08.059-.158.098-.233.327.293.842.3 1.211.084.177-.104.248-.315.274-.508.025-.25.037-.51-.045-.752-.063-.174-.173-.342-.34-.432a.745.745 0 0 0-.372-.078l-1.11.001c-.002 1.097 0 2.194 0 3.291-.006.103.047.22.157.24.107.013.214.004.32.006l.001.211c-.474-.002-.948.003-1.423-.002 0-.07 0-.14.002-.21.117-.004.238.017.352-.015.115-.05.136-.192.138-.304 0-1.073.003-2.145 0-3.217l-1.202-.001c-.014.374-.003.75-.007 1.124.002.714-.001 1.428.002 2.142-.004.103.026.23.138.263.112.023.227.005.341.01l.002.211c-.475 0-.95.002-1.424 0l.003-.21c.107-.004.214.008.32-.008.11-.019.153-.138.164-.235.012-.157.003-.315.006-.472-.004-.3.02-.606-.052-.9a.726.726 0 0 0-.218-.38c-.236-.214-.64-.27-.89-.052-.22.19-.293.494-.312.773-.013.286-.015.58.063.857a.82.82 0 0 0 .318.465 9.16 9.16 0 0 1-.207.162 1.213 1.213 0 0 1-.37-.296c-.216-.25-.311-.584-.313-.91-.008-.335.077-.684.294-.946.213-.274.554-.443.902-.435.287-.009.567.103.785.287v-1c-.002-.138-.025-.295-.137-.39-.062-.055-.15-.06-.228-.06-.794.002-1.587-.002-2.381.002.266.191.416.504.467.82.065.415.021.875-.247 1.214-.219.294-.578.46-.94.474.048.16.145.298.225.443.13.206.307.407.546.482.218.066.443-.036.606-.178.033.046.066.093.097.14a1.38 1.38 0 0 1-.22.188.896.896 0 0 1-.75.112c-.208-.06-.379-.204-.524-.359-.178-.2-.274-.454-.42-.675a1.792 1.792 0 0 0-.373-.386.895.895 0 0 1 .092-.262c.226.23.58.309.888.231.183-.042.382-.121.47-.3.141-.282.136-.607.128-.914-.018-.286-.068-.597-.272-.813a.687.687 0 0 0-.513-.218h-1.103v3.265c-.005.1.026.222.13.26.114.026.232.008.348.01l.006.21c-.475.006-.95 0-1.425.004 0-.071 0-.142.002-.213.113-.003.228.013.34-.012.13-.048.145-.21.149-.329v-2.725a.684.684 0 0 0-.07-.332.268.268 0 0 0-.236-.138c-.277-.002-.554.003-.83-.003-.007 1.09-.002 2.179-.003 3.268-.006.102.028.224.135.26.112.024.229.007.343.01.005.071.006.142.003.212-.476-.001-.951.004-1.426-.002 0-.07.003-.141.01-.21.107 0 .215.01.32-.006.085-.018.134-.101.15-.18.02-.104.013-.211.014-.317-.002-.34.002-.68 0-1.02-.258.004-.516 0-.773.003v.552c0 .171-.008.346-.066.51a.551.551 0 0 1-.404.336c-.207.047-.431.057-.633-.019a.817.817 0 0 1-.52-.57c-.031-.15-.03-.309.008-.458a.794.794 0 0 1 .622-.559c.203-.033.41-.006.613-.017-.016-.144-.02-.29-.028-.434a1.39 1.39 0 0 1-.552.055.81.81 0 0 1-.591-.405c-.147-.286-.132-.668.076-.923a.89.89 0 0 1 .714-.32c.206.006.432.041.582.196.143.138.171.347.175.536.004.432.002.864.003 1.295.258.006.515.001.773.005.002-.433 0-.867 0-1.3.003-.15-.009-.32-.126-.43-.114-.1-.278-.066-.418-.072l.002-.208c2.344-.005 4.688 0 7.032-.001-.035-.304-.025-.622.087-.91.142-.356.477-.622.854-.684zm-.188.32c-.175.155-.255.387-.285.612-.027.22-.036.443-.008.663.451-.003.902 0 1.353 0 .028-.306.027-.62-.06-.917-.059-.201-.201-.39-.404-.463a.592.592 0 0 0-.596.105zm-8.95 1.398a.357.357 0 0 0-.226.19.932.932 0 0 0-.076.351c-.008.199-.004.403.063.593a.38.38 0 0 0 .249.235c.1.018.214.004.293-.066.175-.133.225-.367.231-.576.008-.223-.028-.471-.193-.635a.357.357 0 0 0-.341-.092zm12.53.294c.179.252.246.571.226.876-.021.281-.163.546-.372.732-.225.214-.538.305-.841.325.096.231.188.48.385.647.159.126.354.229.562.221.34.002.662-.158.92-.37.047-.029.029-.09.036-.136v-1.979c-.002-.122-.002-.251-.06-.362a.27.27 0 0 0-.246-.156c-.272 0-.543-.003-.814.002.066.069.149.12.203.2zm-12.558 1.746c-.155.06-.23.229-.253.383-.03.23-.04.468.021.693.027.11.101.21.204.26a.358.358 0 0 0 .415-.089c.148-.161.183-.392.177-.603-.005-.205-.048-.43-.21-.571a.34.34 0 0 0-.354-.073zM61.377 9.89c2.75-.002 5.502 0 8.253-.001v.215h-1.756c-.005.292-.003.585-.001.878.389-.295.987-.282 1.35.052.295.252.424.653.406 1.033.001.356-.136.72-.412.952-.284.261-.715.318-1.07.186.034-.058.07-.116.106-.174a.583.583 0 0 0 .475.025.655.655 0 0 0 .345-.386c.09-.244.097-.509.091-.767a1.543 1.543 0 0 0-.12-.597c-.088-.185-.266-.344-.479-.353a.561.561 0 0 0-.458.17c-.17.175-.22.43-.235.665-.002.535-.001 1.07 0 1.605-.007.103.049.22.159.242.105.01.212.001.318.003v.212c-.474-.002-.947 0-1.421-.002v-.209c.11-.005.223.01.333-.011.085-.021.131-.108.146-.189.024-.13.006-.264.014-.396-.223.155-.493.25-.767.225-.376-.016-.711-.272-.877-.603-.136-.27-.16-.583-.123-.88.043-.334.224-.654.508-.842a1.099 1.099 0 0 1 1.259.055c-.007-.194.008-.388-.01-.581-.017-.142-.107-.308-.267-.312-.64 0-1.28-.002-1.92 0v3.288c-.004.1.042.22.15.243.11.014.22.002.33.006v.212c-.474-.003-.948-.002-1.422 0 0-.071 0-.142.003-.212.132-.015.288.039.402-.051.106-.115.085-.286.088-.43 0-1.019.002-2.037.001-3.056-.285-.002-.57 0-.855 0l-.001 1.46c-.149.002-.298.002-.446.001-.012-.164.03-.344-.065-.49-.101-.19-.32-.28-.526-.283a.657.657 0 0 0-.48.14.536.536 0 0 0-.103.647.444.444 0 0 0 .326.232c.368.05.745.01 1.11.08a.788.788 0 0 1 .471.341c.16.256.167.588.056.864-.187.439-.648.737-1.121.755a1.5 1.5 0 0 1-1.111-.348c-.482-.38-.744-.971-.838-1.565l.19-.008c.046.338.164.67.365.948.198.28.473.52.809.615.28.074.595.08.858-.059a.847.847 0 0 0 .42-.483.942.942 0 0 0-.003-.533c-.058-.19-.245-.312-.436-.334-.333-.044-.675.022-1.004-.061-.178-.046-.36-.122-.482-.266a.606.606 0 0 1-.08-.624c.085-.192.274-.31.462-.382.382-.13.815-.112 1.18.064-.005-.176.02-.36-.046-.527-.04-.107-.144-.19-.262-.185h-1.789c0-.072 0-.143.002-.215zm5.171 1.097c-.186.074-.311.251-.37.437-.084.267-.083.553-.067.83.021.236.07.488.238.666.18.205.52.23.733.062.168-.126.25-.333.287-.533.05-.288.049-.585.004-.873-.035-.204-.125-.412-.302-.531a.589.589 0 0 0-.523-.058z" fill="#fff"/>
    </g>
    <defs>
        <clipPath id="1dvegxcita">
            <path fill="#fff" d="M0 0h69.631v24H0z"/>
        </clipPath>
    </defs>
</svg>
