<svg width="156" height="48" viewBox="0 0 156 48" fill="none" xmlns="http://www.w3.org/2000/svg">
<rect width="156" height="48" fill="transparent"/>
<path d="M27 25.9V25.8C27 24.5 26.7 23.2 26.2 22C26.2 21.9 26.1 21.8 26 21.7V21.5C25.9 21.3 25.8 21.1 25.7 20.9C25.4 20.4 25 19.9 24.6 19.4L24.4 19.2C24.3 19.1 24.2 18.9 24 18.8C23.5 18.3 22.9 17.8 22.3 17.4C22.3 17.4 22.3 17.4 22.2 17.4L22 17.3C20.8 16.6 19.5 16.2 18.2 16C17.8 16 17.5 15.9 17.1 15.9C17 15.9 17 15.9 16.9 15.9C16.8 15.9 16.8 15.9 16.8 15.9C16.8 15.9 16.8 15.9 16.7 15.9C16.2 15.9 15.7 16 15.3 16.1C14.9 16.2 14.5 16.3 14 16.4C13.6 16.5 13.2 16.7 12.8 16.9C12.5 17 12.3 17.2 12 17.3L11.7 17.5C10.9 18 10.1 18.7 9.5 19.4L9.4 19.6C9.2 19.7 9.1 19.9 9 20C8.7 20.5 8.4 21 8.1 21.5L8 21.6C7.4 22.9 7.1 24.3 7 25.7V25.8C7 26.4 7 26.9 7.1 27.4C7.4 28.4 7.6 29.2 8 30V30.1C8.1 30.3 8.2 30.4 8.2 30.6C8.6 31.3 9.1 32 9.6 32.6L9.8 32.8C9.9 32.9 10 33 10 33C10.4 33.4 10.8 33.8 11.3 34.1C11.4 34.2 11.5 34.2 11.6 34.3L11.9 34.5C12.1 34.6 12.2 34.7 12.4 34.8C12.6 34.9 12.9 35 13.1 35.1C14.1 35.5 15.2 35.8 16.4 35.8C16.5 35.8 16.6 35.8 16.7 35.8C16.7 35.8 16.7 35.8 16.8 35.8H16.9C18.6 35.8 20.2 35.4 21.7 34.6L22 34.4C22.7 34 23.3 33.6 23.8 33C24 32.8 24.2 32.6 24.4 32.4L24.6 32.2C25 31.7 25.4 31.2 25.7 30.7C25.8 30.5 25.9 30.3 26 30.1L26.1 29.9C26.7 28.7 27 27.3 27 25.9ZM15.2 35.3C15.1 35.3 15 35.3 14.9 35.2C14.8 35.2 14.8 35.2 14.7 35.1C14.6 35.1 14.5 35 14.4 35C14.3 35 14.2 35 14.2 34.9C14.1 34.9 14 34.8 13.9 34.8C13.8 34.8 13.7 34.7 13.7 34.7C13.6 34.7 13.5 34.6 13.4 34.6C13.3 34.6 13.2 34.5 13.2 34.5C13.1 34.5 13 34.4 12.9 34.4C12.8 34.4 12.8 34.3 12.7 34.3C12.7 34.3 12.6 34.3 12.6 34.2C13 34 13.4 33.9 13.8 33.8C14.4 34.4 15 34.9 15.7 35.3C15.6 35.3 15.6 35.3 15.5 35.3C15.3 35.3 15.3 35.3 15.2 35.3ZM7.5 26H10.5C10.5 27 10.7 27.9 10.9 28.8C10 29.1 9.2 29.4 8.4 29.8C7.7 28.6 7.5 27.3 7.5 26ZM8.6 21.3C8.6 21.2 8.7 21.2 8.7 21.1C8.8 21 8.8 20.9 8.9 20.8C8.9 20.7 9 20.7 9 20.6C9.1 20.5 9.1 20.4 9.2 20.3C9.2 20.2 9.3 20.2 9.3 20.1C9.4 20 9.5 19.9 9.6 19.8C10.2 20.1 10.8 20.4 11.4 20.6C11.1 21.2 10.9 21.8 10.8 22.4C10 22.1 9.2 21.8 8.5 21.5C8.6 21.4 8.6 21.3 8.6 21.3ZM19.2 16.6C19.3 16.6 19.4 16.6 19.5 16.7C19.6 16.7 19.6 16.7 19.7 16.8C19.8 16.8 19.9 16.9 20 16.9C20.1 16.9 20.1 16.9 20.2 17C20.3 17 20.4 17.1 20.5 17.1C20.6 17.1 20.6 17.1 20.7 17.2C20.8 17.2 20.9 17.3 21 17.3C21.1 17.3 21.1 17.4 21.2 17.4C21.3 17.4 21.4 17.5 21.4 17.5C21.5 17.5 21.5 17.6 21.6 17.6H21.7C21.3 17.8 20.9 18 20.5 18.1C20 17.6 19.5 17.1 19 16.6C19.1 16.6 19.1 16.6 19.2 16.6C19.2 16.5 19.1 16.5 19.2 16.6ZM24.7 20.1C24.8 20.2 24.9 20.3 25 20.4C25 20.5 25.1 20.5 25.1 20.6C25.2 20.7 25.2 20.8 25.3 20.9C25.3 21 25.4 21.1 25.4 21.1C25.4 21.2 25.5 21.3 25.5 21.3C24.6 21.7 23.7 22.1 22.7 22.4C22.5 21.7 22.3 21.1 22 20.4C22.8 20.1 23.5 19.8 24.2 19.4C24.3 19.5 24.4 19.6 24.5 19.8C24.6 20 24.7 20.1 24.7 20.1ZM25.4 30.7C25.4 30.7 25.3 30.7 25.4 30.7C25.3 30.9 25.2 31.1 25.1 31.2C25.1 31.2 25.1 31.2 25.1 31.3C25 31.5 24.9 31.6 24.8 31.8C24.7 31.9 24.6 32 24.5 32.2C23.7 31.8 22.8 31.5 22 31.2C22.4 30.5 22.6 29.8 22.9 29C24 29.3 25 29.7 25.9 30.1C25.6 30.3 25.5 30.5 25.4 30.7ZM23.3 33.2C23.2 33.3 23.2 33.3 23.1 33.4L23 33.5C22.9 33.6 22.9 33.6 22.8 33.6L22.7 33.7C22.6 33.8 22.6 33.8 22.5 33.8L22.4 33.9C22.3 34 22.2 34 22.2 34.1C22.2 34.1 22.1 34.1 22.1 34.2C22 34.3 21.9 34.3 21.8 34.4C21.3 34.1 20.7 33.9 20.2 33.7C20.8 33.1 21.3 32.4 21.7 31.6C22.6 31.8 23.4 32.1 24.2 32.5C24.2 32.5 24.2 32.5 24.1 32.6L24 32.7C23.9 32.8 23.9 32.8 23.8 32.9L23.7 33C23.6 33.1 23.6 33.1 23.5 33.2C23.4 33.1 23.4 33.1 23.3 33.2ZM21 34.7C20.9 34.7 20.8 34.8 20.7 34.8C20.6 34.8 20.5 34.9 20.5 34.9C20.4 34.9 20.3 35 20.2 35C20.1 35 20 35.1 20 35.1C19.9 35.1 19.8 35.2 19.7 35.2C19.6 35.2 19.5 35.2 19.5 35.3C19.4 35.3 19.3 35.3 19.2 35.4C19.1 35.4 19 35.4 19 35.4C18.9 35.4 18.8 35.4 18.7 35.5C18.6 35.5 18.5 35.5 18.5 35.5C18.4 35.5 18.2 35.5 18.1 35.5C18.8 35.1 19.5 34.6 20.1 34C20.6 34.2 21.1 34.3 21.6 34.6C21.6 34.6 21.5 34.6 21.5 34.7C21.1 34.6 21.1 34.6 21 34.7ZM10 32.4C9.9 32.3 9.9 32.3 9.8 32.2L9.7 32.1C9.7 32.1 9.7 32 9.6 32L9.5 31.9C9.5 31.8 9.4 31.8 9.4 31.7L9.3 31.6C9.3 31.5 9.2 31.5 9.2 31.4L9.1 31.3C9 31.2 9 31.1 8.9 31L8.8 30.9C8.8 30.8 8.7 30.8 8.7 30.7L8.6 30.6C8.6 30.5 8.5 30.5 8.5 30.4C8.5 30.4 8.5 30.3 8.4 30.3C8.4 30.3 8.4 30.2 8.3 30.2C9.1 29.8 9.9 29.5 10.8 29.2C11.1 30 11.4 30.9 11.8 31.6C11.3 31.8 10.6 32.1 10 32.4ZM10 19.4L10.1 19.3C10.1 19.2 10.2 19.2 10.2 19.1L10.3 19C10.4 19 10.4 18.9 10.5 18.9L10.6 18.8C10.7 18.8 10.7 18.7 10.8 18.7L10.9 18.6C11 18.6 11 18.5 11.1 18.5L11.2 18.4C11.3 18.4 11.3 18.3 11.4 18.3L11.5 18.2C11.6 18.2 11.6 18.1 11.7 18.1C11.7 18.1 11.8 18.1 11.8 18C11.9 18 12 17.9 12 17.9C12.3 18.1 12.6 18.2 12.9 18.4C12.4 19 11.9 19.7 11.6 20.5C11 20.1 10.5 19.8 10 19.4C9.9 19.5 9.9 19.5 10 19.4ZM15.3 16.5C15.4 16.5 15.4 16.5 15.5 16.5H15.6C15.7 16.5 15.7 16.5 15.8 16.5H15.9H16H16.1H16.2C15.7 17.1 15.3 17.8 14.9 18.6C14.4 18.5 13.9 18.4 13.4 18.2C14.1 17.4 14.7 16.9 15.3 16.5ZM21.5 20.4C20.9 20.6 20.2 20.8 19.5 20.9C19.3 20.2 19 19.5 18.7 18.8C19.2 18.7 19.7 18.6 20.2 18.4C20.8 19 21.2 19.7 21.5 20.4ZM15.4 33.2C15.1 32.6 14.8 31.9 14.6 31.2C16.1 30.9 17.7 30.9 19.2 31C19 31.8 18.7 32.5 18.3 33.2C17.3 33.1 16.4 33.1 15.4 33.2ZM12.3 31.4C11.9 30.7 11.5 29.9 11.3 29C12 28.8 12.8 28.6 13.6 28.5C13.7 29.3 13.9 30.1 14.1 30.9C13.5 31 12.9 31.2 12.3 31.4ZM15.3 18.8C15.8 18.9 16.4 18.9 16.9 18.9C17.4 18.9 17.9 18.9 18.4 18.8C18.7 19.5 19 20.1 19.2 20.9C17.6 21.1 16 21.2 14.4 20.9C14.7 20.2 14.9 19.5 15.3 18.8ZM14.3 21.3C15.1 21.4 15.9 21.5 16.7 21.5C17.6 21.5 18.4 21.4 19.3 21.3C19.5 21.9 19.6 22.5 19.7 23.2C17.8 23.4 15.8 23.4 13.9 23.1C14 22.5 14.2 21.9 14.3 21.3ZM19.3 30.7C17.7 30.5 16.1 30.6 14.5 30.9C14.3 30.1 14.1 29.3 14 28.5C15.9 28.2 17.9 28.2 19.8 28.4C19.7 29.2 19.5 29.9 19.3 30.7ZM13.7 25.9C13.7 25.1 13.8 24.3 13.9 23.5C14.9 23.7 16 23.7 17.1 23.7C18 23.7 18.9 23.6 19.8 23.5C19.9 24.2 20 25 20 25.8V25.9C20 26.6 20 27.3 19.9 28C17.9 27.8 15.9 27.8 13.9 28.1C13.8 27.4 13.7 26.6 13.7 25.9ZM18.5 33.6C18.8 33.6 19.1 33.7 19.4 33.8C18.8 34.4 18.2 34.8 17.5 35.2C17.8 34.7 18.2 34.2 18.5 33.6ZM19.7 33.5C19.4 33.4 19 33.3 18.7 33.3C19 32.6 19.3 31.9 19.6 31.1C20.2 31.2 20.8 31.3 21.3 31.4C20.8 32.2 20.3 32.9 19.7 33.5ZM21.4 31.1C20.8 31 20.2 30.8 19.6 30.8C19.8 30.1 20 29.3 20.1 28.5C20.8 28.6 21.6 28.8 22.3 28.9C22.1 29.6 21.8 30.4 21.4 31.1ZM22.4 28.5C21.7 28.3 20.9 28.2 20.2 28C20.3 27.3 20.3 26.6 20.3 25.9H22.7C22.7 26.8 22.6 27.7 22.4 28.5ZM20.3 25.6C20.3 24.9 20.2 24.2 20.1 23.5C20.9 23.4 21.7 23.2 22.4 23C22.6 23.8 22.7 24.7 22.7 25.6H20.3ZM23.1 25.6C23.1 24.7 23 23.8 22.8 22.9C23.8 22.6 24.8 22.2 25.7 21.8C26.3 23 26.6 24.3 26.6 25.6H23.1ZM20.1 23.1C20 22.5 19.9 21.8 19.7 21.2C20.4 21.1 21.1 20.9 21.7 20.7C22 21.3 22.2 22 22.4 22.6C21.6 22.9 20.9 23 20.1 23.1ZM18.6 18.4C18.2 17.6 17.8 16.9 17.3 16.3C17.6 16.3 17.8 16.3 18.1 16.3C18.8 16.8 19.5 17.4 20.1 18C19.6 18.2 19.1 18.4 18.6 18.4ZM18.2 18.5C17.3 18.6 16.3 18.6 15.4 18.5C15.8 17.7 16.3 17 16.8 16.4C17.3 17 17.8 17.7 18.2 18.5ZM14.9 18.8C14.6 19.5 14.3 20.2 14.1 20.9C13.4 20.8 12.7 20.6 12 20.4C12.4 19.7 12.8 19 13.3 18.3C13.8 18.5 14.4 18.7 14.9 18.8ZM11.8 20.7C12.5 20.9 13.2 21.1 13.9 21.2C13.7 21.8 13.6 22.4 13.5 23C12.7 22.9 11.9 22.7 11.1 22.5C11.4 21.9 11.6 21.3 11.8 20.7ZM11.1 22.9C11.9 23.1 12.7 23.3 13.5 23.5C13.4 24.2 13.3 24.9 13.3 25.7H10.7C10.8 24.7 10.9 23.8 11.1 22.9ZM13.4 26C13.4 26.7 13.5 27.5 13.5 28.2C12.7 28.3 11.9 28.5 11.2 28.7C11 27.8 10.8 26.9 10.8 26H13.4ZM14.2 31.3C14.4 32 14.7 32.6 15 33.3C14.6 33.4 14.2 33.4 13.8 33.5C13.3 33 12.8 32.4 12.5 31.8C13.1 31.6 13.6 31.4 14.2 31.3ZM15.2 33.6C15.5 34.2 15.9 34.9 16.4 35.4C15.6 35 14.8 34.4 14.2 33.8C14.5 33.7 14.8 33.6 15.2 33.6ZM18.1 33.6C17.7 34.3 17.3 34.9 16.9 35.5C16.4 34.9 16 34.3 15.6 33.6C16.4 33.5 17.3 33.5 18.1 33.6ZM23.1 26H26.6C26.6 27.3 26.3 28.6 25.8 29.8C24.9 29.3 23.8 28.9 22.8 28.6C23 27.8 23.1 26.9 23.1 26ZM22.4 17.9C22.4 17.9 22.4 18 22.4 17.9C22.6 18.1 22.8 18.2 22.9 18.3C22.9 18.3 22.9 18.3 23 18.4C23.2 18.5 23.3 18.7 23.5 18.8C23.5 18.8 23.6 18.8 23.6 18.9C23.7 19 23.9 19.2 24 19.3C23.3 19.7 22.6 20 21.9 20.3C21.5 19.6 21.1 18.9 20.6 18.3C21 18.1 21.5 17.9 21.9 17.7C22.1 17.7 22.2 17.8 22.4 17.9ZM12.5 17.5L12.6 17.4C12.7 17.4 12.7 17.3 12.8 17.3C12.9 17.3 12.9 17.3 13 17.2C13.1 17.2 13.1 17.1 13.2 17.1C13.3 17.1 13.3 17.1 13.4 17C13.5 17 13.5 16.9 13.6 16.9C13.7 16.9 13.7 16.9 13.8 16.8C13.9 16.8 14 16.7 14 16.7C14.1 16.7 14.1 16.7 14.2 16.6C14.3 16.6 14.4 16.6 14.4 16.5H14.5C14.1 16.9 13.6 17.3 13.3 17.7C12.9 17.8 12.7 17.6 12.5 17.5C12.4 17.5 12.4 17.5 12.5 17.5ZM8.4 21.8C9.1 22.2 9.9 22.5 10.8 22.8C10.6 23.7 10.5 24.7 10.5 25.6H7.5C7.5 24.4 7.8 23.2 8.3 22.1C8.3 22 8.3 21.9 8.4 21.8ZM11.6 33.8C11.5 33.8 11.5 33.7 11.4 33.7C11.3 33.6 11.2 33.5 11.1 33.4C11 33.3 11 33.3 10.9 33.2C10.8 33.1 10.7 33 10.6 32.9C10.5 32.8 10.5 32.8 10.4 32.7C10.3 32.6 10.3 32.6 10.2 32.5C10.8 32.2 11.4 31.9 12.1 31.7C12.5 32.3 12.9 32.9 13.4 33.4C12.9 33.5 12.5 33.7 12 33.9C11.9 34 11.8 33.9 11.6 33.8Z" fill="#fff"/>
<path d="M14.4 24.8C14.4 24.8 14.5 24.9 14.4 24.8V26.8H14.1V24.8H14.4Z" fill="#fff"/>
<path d="M15.7 24.8C15.7 24.8 15.8 24.9 15.7 24.8V26.8H15.4L15 25.8V26.9H14.7V24.9H15L15.4 26V24.9H15.7V24.8Z" fill="#fff"/>
<path d="M16 24.9C16 24.9 16 24.8 16 24.9H16.7C16.9 24.9 17.1 25 17.1 25.3V26.6C17.1 26.8 17 27 16.7 27H16V24.9ZM16.5 26.6C16.6 26.6 16.6 26.6 16.6 26.5V25.3C16.6 25.2 16.6 25.2 16.5 25.2H16.3V26.6H16.5Z" fill="#fff"/>
<path d="M18.2 25.1C18.2 25.2 18.2 25.2 18.2 25.1H17.5V25.6H18V26H17.5V26.5H18.1V26.8H17.1V24.8H18.1V25.1H18.2Z" fill="#fff"/>
<path d="M19.6 24.8C19.6 24.8 19.6 24.9 19.6 24.8L19.2 26.8C19.2 26.8 19.2 26.8 19.1 26.8H18.8C18.8 26.8 18.8 26.8 18.7 26.8L18.3 24.8V24.7H18.5C18.5 24.7 18.5 24.7 18.6 24.7L18.9 26.1L19.2 24.7C19.2 24.7 19.2 24.7 19.3 24.7H19.6V24.8Z" fill="#fff"/>
<path d="M26.9 31.2C26.1 37.9 20.3 43 13.2 43C8.2 43 3.9 40.5 1.4 36.7L0 37.6L0.7 35.4L2.3 30.7L6.5 31.2L9.4 31.6L7.6 32.7C9.9 35.3 13.1 36.9 16.7 36.9C20.9 37 24.7 34.7 26.9 31.2Z" fill="#fff"/>
<path d="M7.5 30.9C2.4 26.6 1.29999 18.9 5.19999 13C7.99999 8.8 12.5 6.6 17 6.7V5L18.4 6.8L21.4 10.7L18.7 13.9L16.8 16.1V14C13.4 14.5 10.3 16.3 8.3 19.3C6 22.8 5.8 27.2 7.5 30.9Z" fill="#fff"/>
<path d="M18.4 14C24.7 11.8 31.9 14.9 35 21.3C37.1 25.8 36.7 30.8 34.3 34.6L35.7 35.5L33.4 35.8L28.5 36.4L27.2 32.4L26.3 29.6L28.1 30.7C29.5 27.5 29.5 23.9 28 20.7C26.2 16.9 22.5 14.5 18.4 14Z" fill="#fff"/>
<path d="M105.9 28.3H102.2V27.6H103.3V20.2H102.2V19.5H105.9V20.2H104.8V27.6H105.9V28.3Z" fill="#fff"/>
<path d="M115.9 19.5H119V20.2H117.9V28.4H117L111.9 21.5L111.3 20.5H111.2L111.3 21.5V27.5H112.4V28.2H109.3V27.5H110.4V20.1H109.3V19.4H111.8L116.2 25.3L116.9 26.4H117L116.9 25.3V20.1H115.8V19.5H115.9Z" fill="#fff"/>
<path d="M122.3 28.3V27.6H123.4V20.2H122.3V19.5H123.8C124 19.5 124.1 19.5 124.4 19.5C124.6 19.5 124.8 19.5 125.1 19.5C125.3 19.5 125.5 19.5 125.7 19.5C125.9 19.5 126.1 19.5 126.2 19.5C127 19.5 127.7 19.6 128.3 19.8C128.9 20 129.4 20.3 129.8 20.7C130.2 21.1 130.5 21.5 130.7 22.1C130.9 22.6 131 23.3 131 24C131 24.7 130.9 25.3 130.7 25.8C130.5 26.4 130.2 26.8 129.8 27.3C129.4 27.7 128.9 28 128.2 28.3C127.6 28.5 126.8 28.6 125.9 28.6C125.8 28.6 125.6 28.6 125.4 28.6C125.2 28.6 125 28.6 124.8 28.6C124.6 28.6 124.4 28.6 124.2 28.6C124 28.6 123.8 28.6 123.6 28.6H122.3V28.3ZM126 20.1C125.8 20.1 125.5 20.1 125.3 20.1C125.1 20.1 124.9 20.1 124.8 20.2V27.7C124.9 27.7 124.9 27.7 125.1 27.7C125.2 27.7 125.3 27.7 125.5 27.7C125.6 27.7 125.8 27.7 125.9 27.7C126 27.7 126.1 27.7 126.2 27.7C126.8 27.7 127.4 27.6 127.8 27.4C128.2 27.2 128.6 26.9 128.8 26.5C129.1 26.1 129.2 25.7 129.3 25.3C129.4 24.8 129.5 24.3 129.5 23.8C129.5 23.4 129.4 23 129.3 22.5C129.2 22.1 129 21.7 128.8 21.3C128.5 20.9 128.2 20.6 127.8 20.4C127.2 20.2 126.7 20.1 126 20.1Z" fill="#fff"/>
<path d="M141.3 19.5V21.6H140.5V20.5L140.2 20.2H137.1V23.5H139.2L139.4 23.3V22.8H140.2V24.9H139.4V24.4L139.2 24.2H137.1V27.6H140.4L140.7 27.3V26.1H141.5V28.3H134.6V27.6H135.7V20.2H134.6V19.5H141.3Z" fill="#fff"/>
<path d="M152.5 20.2H151.4V19.5H154.5V20.2H153.5L150.6 28.3H149.2L145.9 20.2H144.8V19.5H148.7V20.2H147.5L149.8 26.1L150.2 27.3H150.3L150.7 26.1L152.5 20.2Z" fill="#fff"/>
<path d="M69.8 36.1H66.5C66 36.1 65.8 36 65.7 35.9V32.3C65.7 32.1 65.5 31.9 65.3 31.9C65.1 31.9 64.9 32.1 64.9 32.3V36C64.9 36.1 64.9 36.1 64.9 36.2C65 36.3 65.3 36.8 66.4 36.8H69.7C69.9 36.8 70.1 36.6 70.1 36.4C70.1 36.2 70 36.1 69.8 36.1Z" fill="#fff"/>
<path d="M78 32H72.9C72.7 32 72.5 32.2 72.5 32.4V36.4C72.5 36.6 72.7 36.8 72.9 36.8H78C78.2 36.8 78.4 36.6 78.4 36.4V32.4C78.4 32.2 78.2 32 78 32ZM77.6 36H73.2V32.8H77.6V36Z" fill="#fff"/>
<path d="M86.5 34.2H83.8C83.6 34.2 83.4 34.4 83.4 34.6C83.4 34.8 83.6 35 83.8 35H86.1V36.2H82V33.1H86.4C86.6 33.1 86.8 32.9 86.8 32.7C86.8 32.5 86.6 32.3 86.4 32.3H82C81.6 32.3 81.3 32.6 81.3 33V36.1C81.3 36.5 81.6 36.8 82 36.8H86.1C86.5 36.8 86.8 36.5 86.8 36.1V34.6C86.9 34.4 86.7 34.2 86.5 34.2Z" fill="#fff"/>
<path d="M90.4 32C90.2 32 90 32.2 90 32.4V36.6C90 36.8 90.2 37 90.4 37C90.6 37 90.8 36.8 90.8 36.6V32.4C90.8 32.2 90.6 32 90.4 32Z" fill="#fff"/>
<path d="M110.8 32C110.6 32 110.4 32.2 110.4 32.4V36.6C110.4 36.8 110.6 37 110.8 37C111 37 111.2 36.8 111.2 36.6V32.4C111.2 32.2 111 32 110.8 32Z" fill="#fff"/>
<path d="M98.5 34.3H95.3C94.9 34.3 94.6 34 94.6 33.7C94.6 33.4 94.9 33.1 95.3 33.1H99.1C99.3 33.1 99.5 32.9 99.5 32.7C99.5 32.5 99.3 32.3 99.1 32.3H95.3C94.5 32.3 93.9 32.9 93.9 33.7C93.9 34.5 94.5 35.1 95.3 35.1H98.5C98.8 35.1 99.1 35.3 99.1 35.6C99.1 35.9 98.8 36.1 98.5 36.1H94.4C94.2 36.1 94 36.3 94 36.5C94 36.7 94.2 36.9 94.4 36.9H98.5C99.2 36.9 99.8 36.3 99.8 35.6C99.9 34.9 99.3 34.3 98.5 34.3Z" fill="#fff"/>
<path d="M127.5 34.3H124.3C123.9 34.3 123.6 34 123.6 33.7C123.6 33.4 123.9 33.1 124.3 33.1H128.1C128.3 33.1 128.5 32.9 128.5 32.7C128.5 32.5 128.3 32.3 128.1 32.3H124.3C123.5 32.3 122.9 32.9 122.9 33.7C122.9 34.5 123.5 35.1 124.3 35.1H127.5C127.8 35.1 128.1 35.3 128.1 35.6C128.1 35.9 127.8 36.1 127.5 36.1H123.4C123.2 36.1 123 36.3 123 36.5C123 36.7 123.2 36.9 123.4 36.9H127.5C128.2 36.9 128.8 36.3 128.8 35.6C128.8 34.9 128.2 34.3 127.5 34.3Z" fill="#fff"/>
<path d="M107.3 32.3H102.2C102 32.3 101.8 32.5 101.8 32.7C101.8 32.9 102 33.1 102.2 33.1H104.4V36.9C104.4 37.1 104.6 37.3 104.8 37.3C105 37.3 105.2 37.1 105.2 36.9V33.1H107.4C107.6 33.1 107.8 32.9 107.8 32.7C107.8 32.5 107.6 32.3 107.3 32.3Z" fill="#fff"/>
<path d="M115.3 33.1H119.9C120.1 33.1 120.3 32.9 120.3 32.7C120.3 32.5 120.1 32.3 119.9 32.3H115.3C114.8 32.3 114.3 32.7 114.3 33.3V35.9C114.3 36.4 114.7 36.9 115.3 36.9H119.9C120.1 36.9 120.3 36.7 120.3 36.5C120.3 36.3 120.1 36.1 119.9 36.1H115.3C115.2 36.1 115.1 36 115.1 35.9V33.3C115.1 33.2 115.2 33.1 115.3 33.1Z" fill="#fff"/>
<path d="M73 27.2L68.9 24.6H71.3C72.2 24.6 72.6 24.3 72.9 24C73.3 23.5 73.3 23 73.3 22.8V21.6C73.3 20.3 72.2 19.7 71.7 19.5C71.6 19.5 71.6 19.5 71.5 19.5H63.7C63.3 19.5 63 19.8 63 20.2V27.5C63 27.9 63.3 28.2 63.7 28.2C64.1 28.2 64.4 27.9 64.4 27.5V21H71.3C71.5 21.1 71.8 21.2 71.8 21.6V22.8C71.8 22.8 71.8 22.8 71.8 22.9V23C71.7 23.1 71.6 23.1 71.3 23.1H66.3C66 23.1 65.7 23.3 65.6 23.6C65.5 23.9 65.6 24.3 65.9 24.4L72.1 28.4C72.2 28.5 72.4 28.5 72.5 28.5C72.7 28.5 73 28.4 73.1 28.2C73.4 27.9 73.3 27.4 73 27.2Z" fill="#fff"/>
<path d="M60.2001 20.9C60.6 20.9 60.9001 20.6 60.9001 20.2C60.9001 19.8 60.6 19.5 60.2001 19.5H51.7001H51.6H51.5C51.1 19.5 50.8 19.8 50.8 20.2V27.5C50.8 27.9 51.1 28.2 51.5 28.2H51.6H51.7001H60.2001C60.6 28.2 60.9001 27.9 60.9001 27.5C60.9001 27.1 60.6 26.8 60.2001 26.8H52.2001V24.6H59C59.4 24.6 59.7001 24.3 59.7001 23.9C59.7001 23.5 59.4 23.2 59 23.2H52.2001V21H60.2001V20.9Z" fill="#fff"/>
<path d="M48.4 26.7L43.9 23.3L48.1 20.9C48.5 20.7 48.6 20.2 48.4 19.9C48.2 19.5 47.7 19.4 47.4 19.6L39.8 23.9V20.3C39.8 19.9 39.5 19.6 39.1 19.6C38.7 19.6 38.4 19.9 38.4 20.3V27.5C38.4 27.9 38.7 28.2 39.1 28.2C39.5 28.2 39.8 27.9 39.8 27.5V25.6L42.5 24.1L47.5 27.9C47.7 28 47.8 28 48 28C48.2 28 48.4 27.9 48.6 27.7C48.8 27.4 48.8 26.9 48.4 26.7Z" fill="#fff"/>
<path d="M85.6 27.2L81.5 24.6H83.9C84.8 24.6 85.2 24.3 85.5 24C85.9 23.5 85.9 23 85.9 22.8V21.6C85.9 20.3 84.8 19.7 84.3 19.5C84.2 19.5 84.2 19.5 84.1 19.5H76.3C75.9 19.5 75.6 19.8 75.6 20.2V27.5C75.6 27.9 75.9 28.2 76.3 28.2C76.7 28.2 77 27.9 77 27.5V21H84C84.2 21.1 84.5 21.2 84.5 21.6V22.8C84.5 22.8 84.5 22.8 84.5 22.9V23C84.4 23.1 84.3 23.1 84 23.1H79C78.7 23.1 78.4 23.3 78.3 23.6C78.2 23.9 78.3 24.3 78.6 24.4L84.8 28.4C84.9 28.5 85.1 28.5 85.2 28.5C85.4 28.5 85.7 28.4 85.8 28.2C86 27.9 85.9 27.4 85.6 27.2Z" fill="#fff"/>
<path d="M98.3 26.2V19.7C98.3 19.3 98 19 97.6 19C97.2 19 96.9 19.3 96.9 19.7V23.1H89.8C89.5 23.1 89.4 23 89.3 23C89.3 22.9 89.2 22.8 89.3 22.7C89.3 22.6 89.3 22.6 89.3 22.5V19.6C89.3 19.2 89 18.9 88.6 18.9C88.2 18.9 87.9 19.2 87.9 19.6V22.4C87.9 22.7 87.8 23.3 88.2 23.8C88.4 24.1 88.9 24.5 89.8 24.5H96.9V26.1C96.9 26.1 96.9 26.1 96.9 26.2C96.9 26.3 96.9 26.5 96.8 26.6C96.7 26.7 96.5 26.7 96.4 26.7H88.8C88.4 26.7 88.1 27 88.1 27.4C88.1 27.8 88.4 28.1 88.8 28.1H96.4C97.2 28.1 97.7 27.8 97.9 27.5C98.3 27.1 98.3 26.4 98.3 26.2Z" fill="#fff"/>
</svg>
