<svg width="117" height="24" viewBox="0 0 117 24" fill="none" xmlns="http://www.w3.org/2000/svg">
<g clip-path="url(#clip0_215_63293)">
<path d="M95 18C95.4631 17.8772 97.5 18 98.5 17C98.5498 16.9773 98.1534 17.7434 98.2093 17.7339C98.4887 18.0007 98.7665 17.9604 99.0656 17.754C99.2996 17.5924 99.5408 17.4409 99.7572 17.2562C100.422 16.6873 100.887 16.0022 100.963 15.1056C101.032 14.2916 100.733 13.5738 100.316 12.9068C99.4884 11.5863 98.3321 10.6138 96.983 9.86067C95.4607 9.01092 93.8287 8.4451 92.1433 8.02325C91.957 7.97643 91.888 7.89538 91.8931 7.69956C91.9062 7.18961 91.8966 6.67866 91.8981 6.16821C91.8991 5.82187 91.9001 5.82187 92.2369 5.82187C97.1692 5.82187 102.101 5.82288 107.033 5.82338C108.675 5.82338 110.316 5.8259 111.957 5.81935C112.167 5.81835 112.254 5.86466 112.241 6.09824C112.22 6.49039 112.239 6.88455 112.239 7.27771C112.238 11.839 112.244 16.4004 112.232 20.9612C112.228 22.3385 111.246 23.2809 109.871 23.2809C106.873 23.2809 103.876 23.2809 100.878 23.2809C98.6502 23.2809 96.4227 23.2874 94.1956 23.2748C92.9094 23.2678 91.9313 22.3184 91.9021 21.0644C91.885 20.3199 91.9036 19.5748 91.8951 18.8298C91.8926 18.6315 91.949 18.5942 92.1428 18.6335C93.0071 18.8076 93.8815 18.8776 94.7645 18.854C95.2165 18.8419 95.6661 18.8097 96.1156 18.7593C96.5626 18.7095 96.7267 18.5645 96.6814 18.2151L95 18ZM111.483 9.26112C111.5 7.67892 110.211 6.37158 108.612 6.35246C106.979 6.33282 105.707 7.59234 105.679 9.17252C105.646 10.9707 107.024 12.1129 108.513 12.1421C110.161 12.1743 111.467 10.8972 111.483 9.26112Z" fill="white"/>
<path d="M96.6799 18.2146C96.7252 18.564 96.5616 18.709 96.1141 18.7588C95.6645 18.8092 95.215 18.8414 94.7629 18.8535C93.8805 18.8771 93.0061 18.8077 92.1412 18.633C91.9474 18.5937 91.891 18.631 91.8935 18.8293C91.9021 19.5738 91.883 20.3194 91.9006 21.0639C91.9298 22.3179 92.9079 23.2673 94.1941 23.2743C96.4216 23.2869 98.6487 23.2799 100.876 23.2804C103.874 23.2809 106.872 23.2804 109.87 23.2804C111.245 23.2804 112.226 22.338 112.23 20.9607C112.242 16.3994 112.237 11.838 112.238 7.27722C112.238 6.88406 112.218 6.4899 112.24 6.09774C112.252 5.86417 112.166 5.81836 111.956 5.81886C110.315 5.8254 108.673 5.82289 107.032 5.82289C102.1 5.82289 97.1677 5.82188 92.2353 5.82138C91.8986 5.82138 91.8976 5.82138 91.8966 6.16772C91.8956 6.67817 91.9051 7.18912 91.8915 7.69907C91.8865 7.89439 91.9555 7.97594 92.1417 8.02276C93.8271 8.44461 95.4591 9.00993 96.9814 9.86017C98.3305 10.6133 99.4874 11.5858 100.314 12.9063C100.732 13.5733 101.03 14.2906 100.961 15.1051C100.885 16.0022 100.42 16.6873 99.7557 17.2557C99.5397 17.4404 99.2981 17.5919 99.064 17.7535C98.765 17.9599 98.4871 18.0002 98.2077 17.7334C98.1106 17.313 98.1423 17.2406 98.5098 17.0226C98.9064 16.788 99.2865 16.5303 99.582 16.1703C100.178 15.4449 100.219 14.5227 99.6787 13.602C98.9593 12.3762 97.9288 11.4625 96.7156 10.7522C94.846 9.65781 92.7971 9.05876 90.6889 8.63942C89.7113 8.44511 88.7226 8.3394 87.7244 8.35299C87.2809 8.35903 86.8404 8.41843 86.4155 8.55133C85.4631 8.84884 85.1525 9.49017 85.4973 10.4341C85.7958 11.2526 86.4165 11.7993 87.1011 12.276C88.3108 13.1187 89.6504 13.6493 91.1148 13.8411C91.9142 13.9458 92.7171 13.9493 93.5165 13.827C93.8538 13.7751 94.039 13.8431 94.1624 14.0737C94.3194 14.3666 94.2122 14.6093 93.886 14.6677C93.2341 14.7835 92.5746 14.8313 91.9142 14.8066C90.6783 14.7603 89.4727 14.5484 88.3481 14.0122C87.222 13.4756 86.1427 12.862 85.3181 11.8924C84.7075 11.1741 84.4039 10.349 84.5046 9.39755C84.5947 8.54579 85.1404 8.0731 85.8879 7.78565C86.4064 7.58631 86.9511 7.50425 87.5044 7.4821C88.6119 7.4378 89.7118 7.5118 90.7991 7.73129C90.9985 7.77156 91.0664 7.74085 91.0574 7.51583C91.0367 7.023 91.0408 6.52815 91.0544 6.03482C91.0594 5.85108 91.0272 5.77657 90.8273 5.80879C90.6537 5.83648 90.4775 5.80124 90.3093 5.74838C89.7289 5.56615 89.4702 5.04211 89.6539 4.41034C89.9655 3.3396 90.2801 2.26987 90.5993 1.20165C90.8243 0.446045 91.4334 -0.000976562 92.2197 -0.000976562C98.7761 -0.000976562 105.332 -0.000976562 111.888 -0.000976562C112.715 -0.000976562 113.318 0.459133 113.546 1.25149C113.863 2.35495 114.201 3.45236 114.502 4.56035C114.668 5.1735 114.254 5.71365 113.626 5.79369C113.447 5.81634 113.194 5.72875 113.108 5.86014C113.019 5.99656 113.098 6.23316 113.073 6.42194C113.038 6.68068 113.158 6.79093 113.368 6.9344C114.076 7.42119 114.753 7.95429 115.441 8.47028C115.568 8.56542 115.693 8.66107 115.818 8.75923C116.577 9.36281 116.563 10.3158 115.786 10.9067C115.254 11.311 114.722 11.7147 114.187 12.1149C113.854 12.3641 113.553 12.6596 113.159 12.8197C113.027 12.8735 113.079 12.9908 113.079 13.082C113.076 15.6513 113.075 18.2202 113.079 20.7895C113.079 21.2351 113.042 21.672 112.883 22.0924C112.421 23.3166 111.277 24.1075 109.968 24.1075C104.701 24.1075 99.4345 24.1075 94.1679 24.1075C92.4176 24.1075 91.0292 22.6959 91.0473 20.9446C91.0554 20.1583 91.0448 19.3715 91.0559 18.5846C91.0584 18.4145 90.993 18.3642 90.8434 18.3173C89.8386 18.0027 88.8636 17.6166 87.9962 17.008C87.4616 16.6335 87.012 16.1819 86.8454 15.5159C86.7956 15.3166 86.8046 15.1172 86.8142 14.9174C86.8283 14.6365 86.9662 14.4955 87.2048 14.5C87.4711 14.5051 87.7103 14.6964 87.6836 14.9415C87.6252 15.4771 87.9328 15.8079 88.2967 16.0998C89.1238 16.7633 90.0873 17.1535 91.0956 17.4444C92.3547 17.8074 93.6368 18.0138 94.9512 17.9634C95.3096 17.9499 95.6681 17.9086 96.025 17.8688C96.3924 17.828 96.4891 17.8733 96.6799 18.2146ZM102.034 4.96358V4.96559C103.633 4.96559 105.232 4.96559 106.83 4.96559C108.982 4.96559 111.133 4.96761 113.285 4.9671C113.689 4.9671 113.743 4.89008 113.627 4.50095C113.334 3.50774 113.042 2.51453 112.746 1.52232C112.603 1.04358 112.329 0.84625 111.83 0.84625C109.361 0.847257 106.891 0.84776 104.422 0.84776C100.37 0.84776 96.3189 0.84776 92.2671 0.84776C91.8835 0.84776 91.5361 1.03503 91.4636 1.31894C91.4229 1.47852 91.3584 1.62652 91.3121 1.78157C91.0388 2.69374 90.7699 3.60741 90.5026 4.52159C90.3894 4.90871 90.4312 4.96308 90.8344 4.96358C94.5676 4.96358 98.3013 4.96358 102.035 4.96358H102.034ZM113.092 11.8859C113.863 11.3009 114.599 10.7527 115.322 10.1874C115.624 9.95129 115.602 9.66485 115.283 9.41718C114.828 9.06329 114.365 8.71795 113.906 8.3696C113.644 8.17126 113.381 7.97493 113.092 7.75797V11.8854V11.8859Z" fill="white"/>
<path d="M108.589 8.17387C109.191 8.1784 109.677 8.66418 109.671 9.25467C109.665 9.86027 109.172 10.3375 108.554 10.3355C107.98 10.334 107.502 9.8361 107.508 9.24662C107.514 8.63599 107.984 8.16883 108.589 8.17387ZM108.988 8.54991C108.783 8.54337 108.584 8.73113 108.575 8.94105C108.566 9.1545 108.743 9.34831 108.956 9.35636C109.184 9.36492 109.366 9.20534 109.377 8.98686C109.388 8.7563 109.211 8.55746 108.988 8.55041V8.54991Z" fill="white"/>
<path d="M18.6719 20.5361H19.5935C20.6366 20.5361 21.3868 21.1634 21.3868 22.2065C21.3868 23.2496 20.6366 23.8769 19.5935 23.8769H18.6719V20.5361ZM19.5892 23.5068C20.3751 23.5068 21.0024 23.0781 21.0024 22.2065C21.0024 21.3349 20.3751 20.9062 19.5892 20.9062H19.0562V23.5068H19.5892Z" fill="white"/>
<path d="M22.0171 20.5361H23.9861V20.9062H22.4015V21.9493H23.7246V22.3194H22.4015V23.5068H23.9861V23.8769H22.0171V20.5361Z" fill="white"/>
<path d="M24.6077 20.5361H24.992V23.5068H26.6538V23.8769H24.6077V20.5361Z" fill="white"/>
<path d="M27.1365 20.5361H27.5208V23.8769H27.1365V20.5361Z" fill="white"/>
<path d="M31.1274 20.5361L29.7585 23.8769H29.3656L27.9924 20.5361H28.4082L29.5599 23.3668L30.7116 20.5361H31.1274Z" fill="white"/>
<path d="M31.5962 20.5361H33.5652V20.9062H31.9806V21.9493H33.3037V22.3194H31.9806V23.5068H33.5652V23.8769H31.5962V20.5361Z" fill="white"/>
<path d="M36.1429 23.8788L35.2856 22.4114H34.5726V23.8788H34.1882V20.5381H35.3671C36.1972 20.5381 36.5187 20.9167 36.5187 21.4726C36.5187 21.947 36.2887 22.2942 35.7057 22.3842L36.5859 23.8788H36.1429ZM34.5712 22.0456H35.3928C35.9172 22.0456 36.1329 21.8241 36.1329 21.4769C36.1329 21.1296 35.9158 20.9082 35.3928 20.9082H34.5712V22.0456Z" fill="white"/>
<path d="M37.1772 20.5361H37.5616V23.8769H37.1772V20.5361Z" fill="white"/>
<path d="M41.3082 20.5361V23.8769H40.8924L38.8062 21.0134V23.8769H38.4219V20.5361H38.9234L40.9281 23.281V20.5361H41.3068H41.3082Z" fill="white"/>
<path d="M41.9355 22.2165C41.9355 21.2591 42.69 20.4775 43.6788 20.4775C44.1932 20.4775 44.6447 20.6904 44.9605 21.0234L44.7219 21.2891C44.4561 20.9819 44.0803 20.8333 43.6916 20.8333C42.8972 20.8333 42.3228 21.4706 42.3228 22.2151C42.3228 22.9595 42.8786 23.5782 43.6859 23.5782C44.3947 23.5782 44.8605 23.1138 44.8605 22.3908V22.3722H43.6102V22.0022H45.2491V22.2636C45.2491 23.2167 44.689 23.934 43.6831 23.934C42.6771 23.934 41.9355 23.1796 41.9355 22.2136V22.2165Z" fill="white"/>
<path d="M45.5249 23.6603C45.5249 23.5247 45.6334 23.4219 45.769 23.4219C45.9046 23.4219 46.0131 23.5261 46.0131 23.6603C46.0131 23.8045 45.9046 23.9044 45.769 23.9044C45.6334 23.9044 45.5249 23.8045 45.5249 23.6603Z" fill="white"/>
<path d="M48.364 20.9062H47.248V20.5361H49.8529V20.9062H48.7469V23.8769H48.3626V20.9062H48.364Z" fill="white"/>
<path d="M49.9346 22.2108C49.9346 21.2577 50.689 20.4775 51.6778 20.4775C52.6666 20.4775 53.4253 21.2591 53.4253 22.2108C53.4253 23.1624 52.6537 23.9354 51.6778 23.9354C50.7019 23.9354 49.9346 23.1767 49.9346 22.2108ZM53.0367 22.2151C53.0367 21.4749 52.4594 20.8333 51.6778 20.8333C50.8962 20.8333 50.3232 21.4749 50.3232 22.2151C50.3232 22.9552 50.9105 23.5782 51.6778 23.5782C52.4451 23.5782 53.0367 22.9552 53.0367 22.2151Z" fill="white"/>
<path d="M55.8457 20.9062H54.7297V20.5361H57.3346V20.9062H56.2286V23.8769H55.8443V20.9062H55.8457Z" fill="white"/>
<path d="M60.5139 20.5361V23.8769H60.1296V22.3094H58.202V23.8769H57.8176V20.5361H58.202V21.9407H60.1296V20.5361H60.5139Z" fill="white"/>
<path d="M61.3713 20.5361H63.3403V20.9062H61.7557V21.9493H63.0789V22.3194H61.7557V23.5068H63.3403V23.8769H61.3713V20.5361Z" fill="white"/>
<path d="M65.1679 20.5361H66.1339C66.9869 20.5361 67.3898 20.9648 67.3898 21.5978C67.3898 22.2308 66.9883 22.6595 66.1339 22.6595H65.5509V23.8783H65.1665V20.5376L65.1679 20.5361ZM66.1339 22.2879C66.7254 22.2879 67.0055 22.0222 67.0055 21.5978C67.0055 21.1734 66.7254 20.9076 66.1339 20.9076H65.5509V22.2894H66.1339V22.2879Z" fill="white"/>
<path d="M67.7097 22.2108C67.7097 21.2577 68.4642 20.4775 69.453 20.4775C70.4417 20.4775 71.2005 21.2591 71.2005 22.2108C71.2005 23.1624 70.4289 23.9354 69.453 23.9354C68.477 23.9354 67.7097 23.1767 67.7097 22.2108ZM70.8118 22.2151C70.8118 21.4749 70.2346 20.8333 69.453 20.8333C68.6714 20.8333 68.0984 21.4749 68.0984 22.2151C68.0984 22.9552 68.6856 23.5782 69.453 23.5782C70.2203 23.5782 70.8118 22.9552 70.8118 22.2151Z" fill="white"/>
<path d="M71.822 20.5361H72.2064V23.8769H71.822V20.5361Z" fill="white"/>
<path d="M75.9528 20.5361V23.8769H75.5369L73.4508 21.0134V23.8769H73.0664V20.5361H73.5679L75.5727 23.281V20.5361H75.9513H75.9528Z" fill="white"/>
<path d="M77.5559 20.9062H76.4399V20.5361H79.0448V20.9062H77.9388V23.8769H77.5545V20.9062H77.5559Z" fill="white"/>
<path d="M79.0137 23.6603C79.0137 23.5247 79.1222 23.4219 79.2578 23.4219C79.3934 23.4219 79.5019 23.5261 79.5019 23.6603C79.5019 23.8045 79.3934 23.9044 79.2578 23.9044C79.1222 23.9044 79.0137 23.8045 79.0137 23.6603Z" fill="white"/>
<path d="M45.3011 3.09183C44.8359 3.08891 44.6681 3.27704 44.569 3.66203C44.324 4.60849 44.0761 5.55494 43.8136 6.49847C43.3746 8.08221 42.924 9.66303 42.4369 11.397C42.3275 11.1039 42.2677 10.9755 42.2313 10.8414C41.6625 8.74575 41.0996 6.65014 40.5294 4.55599C40.1284 3.08454 40.1226 3.09621 38.5636 3.10204C38.1494 3.1035 37.9438 3.17204 37.8242 3.65037C37.1767 6.23889 36.468 8.81429 35.7768 11.4057C35.5959 11.2555 35.5726 11.0674 35.5215 10.8807C34.858 8.46575 34.1813 6.05514 33.5207 3.64016C33.4493 3.3762 33.4493 3.10641 33.0716 3.11079C32.4561 3.11662 31.8422 3.11225 31.167 3.11225C32.1514 6.53931 33.108 9.85991 34.0603 13.1805C34.5795 14.9888 34.5766 14.9757 36.4009 14.9188C36.767 14.9072 36.9026 14.7774 36.9857 14.4478C37.3634 12.9443 37.7572 11.4451 38.1509 9.94595C38.4324 8.8697 38.7226 7.79492 39.0084 6.71868C39.6792 8.9047 40.2305 11.0718 40.7875 13.2374C41.2265 14.9407 41.2309 14.9203 43.0129 14.9203C43.4825 14.9203 43.605 14.7497 43.7232 14.3311C44.6361 11.1009 45.5811 7.8795 46.5202 4.65661C46.9796 3.07871 46.9825 3.10204 45.2996 3.09329L45.3011 3.09183Z" fill="white"/>
<path d="M29.1006 13.0524C29.1283 13.0072 29.1604 12.9664 29.1939 12.9255C29.2071 12.8658 29.2377 12.7987 29.2946 12.7185C30.2308 11.3797 30.451 9.87182 30.3227 8.26766C30.0704 5.15414 27.6744 2.90541 24.4938 2.90395C23.7894 2.87478 23.0646 3.02645 22.3632 3.29916C19.7805 4.29811 18.4271 6.89101 18.7509 9.89078C19.1782 13.8399 22.8327 16.0347 26.5471 14.7732C26.6419 14.7412 26.7308 14.7149 26.8183 14.6901C26.8256 14.6755 26.8402 14.6624 26.8606 14.6551C27.1173 14.5764 27.3185 14.3897 27.546 14.2512L28.0112 14.7499L28.7652 15.5578L28.7827 15.5403L30.1229 14.168L27.3579 11.1974L26.1577 9.90827L26.0367 10.0264L24.9517 11.0866L24.765 11.2689L25.0465 11.5708L26.0265 12.6208C26.0133 12.6178 26.0017 12.6135 25.99 12.6091C26.0148 12.6353 26.0396 12.6616 26.0644 12.6893C23.8915 13.7626 21.2519 12.2751 20.9953 9.88932C20.8319 8.36391 20.9909 6.88517 22.2582 5.80455C23.3373 4.88435 24.6046 4.69331 25.9083 5.24602C27.2792 5.82643 27.9442 6.97705 28.0973 8.39745C28.1921 9.27828 28.144 10.1679 27.7444 11.0049C27.6175 11.2703 27.5213 11.336 27.3594 11.1989L29.0992 13.067C29.0992 13.067 29.1021 13.0583 29.105 13.0539L29.1006 13.0524Z" fill="white"/>
<path d="M58.1182 13.0121C58.1415 12.9771 58.1648 12.9421 58.1954 12.9115C58.2013 12.9057 58.2071 12.9028 58.2129 12.8998C58.2421 12.859 58.2713 12.8167 58.2975 12.773C58.3019 12.7657 58.3077 12.7613 58.3121 12.7555C58.3252 12.7321 58.3369 12.7088 58.3559 12.684C59.1827 11.4969 59.419 10.1567 59.4059 8.73049C59.3709 4.77406 55.7192 2.03096 51.8926 3.12179C49.2618 3.87136 47.7247 6.13322 47.7466 9.21757C47.7757 13.3125 51.3559 16.0717 55.2788 14.8613C55.499 14.7942 55.7046 14.7373 55.8971 14.698C55.9044 14.695 55.9103 14.6921 55.9176 14.6892C55.9365 14.6819 55.954 14.6732 55.973 14.6659C56.1771 14.5448 56.3667 14.3946 56.565 14.2634L56.1013 13.7661L57.0798 14.8146L57.7127 15.4927L57.7725 15.5569L59.0544 14.243L59.1288 14.1657L58.9917 14.0184L57.1163 12.0044L58.0846 13.0457C58.0948 13.034 58.1065 13.0223 58.1167 13.0107L58.1182 13.0121ZM56.7925 10.9705C56.724 11.1396 56.6628 11.2344 56.5855 11.2549C56.5753 11.284 56.5621 11.3103 56.5403 11.338C56.5315 11.3482 56.5228 11.354 56.5125 11.3569L55.6638 10.4455L55.1636 9.90882L55.1301 9.94236L53.7767 11.2636L53.7694 11.2694L54.4942 12.0453C54.5467 12.1051 54.5978 12.1648 54.6488 12.2261C54.678 12.2611 54.7159 12.2946 54.7567 12.3267L54.9901 12.5761L55.1403 12.738C55.0965 12.7671 55.0484 12.7905 54.9988 12.8065C54.9901 12.8094 54.9828 12.8109 54.974 12.8138C54.9448 12.8269 54.9128 12.8371 54.8807 12.8444C54.7436 12.9523 54.5219 12.9698 54.3469 13.0019C52.4263 13.3519 50.7915 12.3821 50.182 10.5096C49.7634 9.22195 49.8655 7.95467 50.5247 6.76322C51.2145 5.51343 52.6319 4.77406 53.889 4.96365C55.5355 5.21156 56.7371 6.33155 57.0638 7.87446C57.2884 8.94049 57.198 9.96423 56.7925 10.9705Z" fill="white"/>
<path d="M68.0512 12.8633C66.7183 12.8866 65.3854 12.8546 64.0525 12.8823C63.6062 12.891 63.4516 12.7685 63.4794 12.3164C63.5173 11.6937 63.5114 11.0652 63.4794 10.441C63.4604 10.0517 63.6077 9.94666 63.9781 9.95686C64.802 9.97874 65.626 9.96416 66.45 9.96416C67.8427 9.96416 67.8208 9.96416 67.8456 8.57729C67.8543 8.09459 67.7654 7.88021 67.2258 7.93125C66.6979 7.9823 66.1597 7.96479 65.6275 7.93709C64.9348 7.90063 64.0306 8.25063 63.6091 7.78834C63.1994 7.33917 63.5435 6.45251 63.4808 5.76273C63.4414 5.32815 63.5712 5.17065 64.0335 5.18523C65.05 5.21877 66.0693 5.19544 67.0872 5.19544C68.5616 5.19544 68.5426 5.19544 68.5514 3.71378C68.5543 3.2515 68.4435 3.08962 67.9535 3.09691C65.9177 3.12171 63.8818 3.12025 61.846 3.09691C61.4056 3.09254 61.2671 3.20046 61.2729 3.65399C61.3006 5.43461 61.2846 7.21522 61.2846 8.99583C61.2846 10.7283 61.3181 12.4623 61.2671 14.1933C61.2481 14.8233 61.4508 14.9327 62.0312 14.9181C63.7025 14.8772 65.3752 14.9035 67.0479 14.9035C68.6156 14.9035 68.5981 14.9035 68.5806 13.3737C68.5762 12.9566 68.4493 12.856 68.0483 12.8618L68.0512 12.8633Z" fill="white"/>
<path d="M79.5541 14.797L78.0578 12.0218L77.2602 10.543L77.021 10.1012L77.126 10.2951C77.2324 10.2558 77.336 10.2076 77.4308 10.1449C77.4993 10.0764 77.5897 10.0064 77.7093 9.93201C79.0422 9.09493 79.5497 7.5389 79.172 5.88225C78.8614 4.52163 77.597 3.42206 76.1227 3.17998C74.625 2.93352 73.1243 3.20185 71.6281 3.09831C71.0827 3.06039 70.9325 3.23248 70.9369 3.77643C70.9631 6.9512 70.95 10.126 70.95 13.3007C70.95 14.9559 70.95 14.9428 72.6329 14.9136C73.0354 14.9064 73.1812 14.8116 73.1696 14.3916C73.1404 13.3824 73.1943 12.3703 73.1462 11.3612C73.12 10.807 73.3066 10.718 73.8331 10.6801C73.9891 10.6685 74.1306 10.6699 74.2633 10.683H74.9648L74.8627 10.4891L75.9506 12.5541L76.111 12.8603L76.8577 14.2778L77.196 14.9195L77.9179 14.9224L79.0218 14.9282L79.6285 14.9311L79.5555 14.7955L79.5541 14.797ZM73.1593 7.01974V6.94828C73.1593 5.67662 73.906 5.09913 75.3993 5.2158C76.1941 5.2785 76.8679 5.8385 76.9918 6.53995C77.142 7.39161 76.7045 8.20827 75.9258 8.52473C75.586 8.66327 75.2302 8.68077 74.8656 8.67931C73.1593 8.67494 73.1593 8.67931 73.1593 7.01974Z" fill="white"/>
<path d="M15.0105 12.166H2.50972C1.5392 12.166 0.752441 12.9528 0.752441 13.9233C0.752441 14.8938 1.5392 15.6806 2.50972 15.6806H15.0105C15.981 15.6806 16.7677 14.8938 16.7677 13.9233C16.7677 12.9528 15.981 12.166 15.0105 12.166Z" fill="white"/>
<path d="M15.0118 7.80566H7.82954C6.85903 7.80566 6.07227 8.59243 6.07227 9.56294C6.07227 10.5335 6.85903 11.3202 7.82954 11.3202H15.0118C15.9823 11.3202 16.7691 10.5335 16.7691 9.56294C16.7691 8.59243 15.9823 7.80566 15.0118 7.80566Z" fill="white"/>
<path d="M15.0103 3.45996H11.2202C10.2497 3.45996 9.46289 4.24672 9.46289 5.21724C9.46289 6.18776 10.2497 6.97452 11.2202 6.97452H15.0103C15.9809 6.97452 16.7676 6.18776 16.7676 5.21724C16.7676 4.24672 15.9809 3.45996 15.0103 3.45996Z" fill="white"/>
</g>
<defs>
<clipPath id="clip0_215_63293">
<rect width="116.16" height="24" fill="white" transform="translate(0.600098)"/>
</clipPath>
</defs>
</svg>
