<svg width="89" height="24" viewBox="0 0 89 24" fill="none" xmlns="http://www.w3.org/2000/svg">
    <g clip-path="url(#sfwjara24a)" fill="#fff">
        <path d="M17.812 8.99c-.637-1.596-1.704-2.764-3.362-3.32-1.143-.384-2.325-.375-3.508-.266-1.938.18-3.252 1.189-3.952 3.005-.167.433-.27.886-.407 1.384-.087-.16-.064-.276-.065-.387-.002-.947-.001-1.895-.001-2.842 0-1.397.009-2.794-.003-4.19C6.502.971 5.52.005 4.124 0c-.626-.002-1.25 0-1.876.001A2.115 2.115 0 0 0 .716.624C.189 1.142 0 1.792 0 2.514v16.85c0 .762-.004 1.524.003 2.286.013 1.23.838 2.163 2.055 2.248.836.06 1.68.058 2.518-.008.698-.056 1.223-.417 1.595-1.007.246-.392.348-.822.346-1.281-.003-.62 0-1.241 0-1.862l.073-.01c.125.316.238.636.375.946.653 1.48 1.67 2.585 3.258 3.064 1.006.304 2.042.298 3.078.2 1.797-.169 3.168-1.02 4.068-2.595.724-1.267.992-2.66 1.086-4.093.097-1.482.051-2.969.038-4.452-.013-1.303-.194-2.586-.682-3.81zm-5.56 6.737c-.23 1.154-.885 1.763-2.047 1.936-.339.05-.679.072-1.021.063a4.823 4.823 0 0 1-1.192-.111c-.924-.2-1.505-.756-1.708-1.676a5.759 5.759 0 0 1 .025-2.64c.225-.92.82-1.465 1.73-1.663a5.515 5.515 0 0 1 2.355-.001c1.01.217 1.628.843 1.839 1.852.155.743.166 1.494.018 2.24zM38.34 13.297a8.431 8.431 0 0 0-.188-1.831c-.46-2.196-1.587-3.918-3.582-5.023-1.193-.66-2.483-.995-3.83-1.053-1.704-.073-3.418-.158-5.1.262-2.826.705-4.71 2.41-5.522 5.239-.355 1.237-.345 2.507-.322 3.778.012.83-.034 1.66.07 2.488.388 3.076 2.152 5.41 5.19 6.364 1.76.553 3.566.478 5.37.441a9.532 9.532 0 0 0 1.713-.2c3.542-.727 5.764-3.163 6.139-6.746.13-1.237.046-2.479.062-3.719zm-6.274 2.64c-.25 1.024-.92 1.6-1.937 1.782a6.097 6.097 0 0 1-2.066.008c-1.094-.179-1.754-.774-2-1.854a5.483 5.483 0 0 1 .016-2.494c.226-.961.848-1.533 1.803-1.742a5.629 5.629 0 0 1 2.382 0c1.041.22 1.684.927 1.857 2.003.056.348.08.698.073 1.018a5.15 5.15 0 0 1-.128 1.278zM88.108 14.678c-.021-.8.017-1.598-.06-2.399-.313-3.272-2.351-5.734-5.552-6.56-2.187-.566-4.427-.551-6.626-.151-3.258.592-5.396 2.514-6.082 5.81-.424 2.04-.385 4.134-.072 6.18.477 3.12 2.313 5.145 5.36 6.035 1.678.49 3.401.405 5.118.37a9.2 9.2 0 0 0 1.998-.264c2.948-.722 4.877-2.499 5.649-5.47.303-1.168.281-2.36.267-3.55zm-6.221 1.018c-.198 1.117-.813 1.788-1.92 2.008-.801.159-1.61.157-2.41-.037-.934-.228-1.505-.82-1.718-1.754a5.593 5.593 0 0 1 .01-2.551c.222-.937.834-1.5 1.76-1.717.73-.17 1.474-.18 2.21-.048 1.32.236 2.01 1.023 2.117 2.379.02.233.027.468.039.687-.024.354-.028.695-.088 1.033zM67.764 17.939c-.412-.229-.862-.308-1.325-.311a198.08 198.08 0 0 0-2.843 0c-.94.008-1.87.093-2.771.39-.068.022-.149.08-.202-.035.05-.044.099-.091.152-.134 2.21-1.8 4.417-3.602 6.632-5.395.837-.677 1.392-1.504 1.43-2.605.025-.751.055-1.507-.002-2.255-.096-1.274-.996-2.16-2.188-2.165-3.77-.015-7.541-.015-11.312 0-1.218.005-2.131.87-2.203 2.066-.041.681-.015 1.367-.003 2.05.008.377.125.73.332 1.049.452.692 1.13.97 1.92.99.889.022 1.778.01 2.667.01.724-.001 1.443-.054 2.153-.202.204-.043.398-.144.647-.07-.06.05-.12.098-.177.148-2.046 1.782-4.09 3.569-6.141 5.344-.788.68-1.392 1.465-1.457 2.54-.044.731-.027 1.465-.024 2.198.006 1.388.974 2.348 2.366 2.35 2.246.003 4.493 0 6.74 0 1.485 0 2.97.007 4.454-.002 1.224-.007 2.121-.79 2.222-2.003.063-.756.043-1.524.002-2.284-.038-.74-.41-1.31-1.07-1.674zM50.64 5.461c-.313-.05-.624-.038-.936-.03-1.194.028-2.138.481-2.669 1.611-.216.462-.342.953-.446 1.449-.09.423-.185.845-.279 1.267l-.078-.017c0-.634.005-1.269-.001-1.903-.013-1.285-.875-2.28-2.147-2.39-.756-.064-1.523-.02-2.284-.008-.211.004-.423.06-.625.142-.931.376-1.449 1.183-1.45 2.292-.003 2.725-.001 5.45-.001 8.175 0 1.856.016 3.713-.005 5.568-.013 1.088.809 2.344 2.283 2.289.663-.026 1.328-.001 1.992-.006a2.59 2.59 0 0 0 .552-.05c1-.231 1.68-1.128 1.684-2.222.004-1.944 0-3.888.002-5.832 0-.664-.012-1.33.016-1.992.061-1.39.786-2.1 2.167-2.184.595-.035 1.19-.021 1.786-.029 1.006-.012 1.847-.745 1.898-1.744.048-.944.04-1.895-.002-2.84-.036-.839-.62-1.41-1.458-1.546z"/>
    </g>
    <defs>
        <clipPath id="sfwjara24a">
            <path fill="#fff" d="M0 0h88.115v24H0z"/>
        </clipPath>
    </defs>
</svg>
