<svg width="20" height="20" viewBox="0 0 20 20" fill="none" xmlns="http://www.w3.org/2000/svg">
<g clip-path="url(#clip0_6147_72186)">
<rect width="20" height="20" rx="10" fill="url(#paint0_linear_6147_72186)"/>
<path d="M9.40207 12.114C9.05577 11.9151 8.75988 11.6657 8.62006 11.2761C8.44285 10.7821 8.5469 10.3257 8.82166 9.89693C9.07854 9.49591 9.43621 9.19921 9.83453 8.94654C9.87518 8.92045 9.91907 8.90252 9.94834 8.86177C9.97272 8.82916 9.98736 8.79167 9.95972 8.7558C9.93045 8.71668 9.89306 8.72972 9.85729 8.74928C9.38419 9.02641 8.9631 9.3606 8.65745 9.82684C8.40546 10.2116 8.32742 10.6354 8.40546 11.0756C8.52414 11.7472 9.09642 12.308 9.763 12.4384C10.2572 12.5362 10.693 12.4156 11.0588 12.0635C11.0799 12.0439 11.0896 12.0374 11.1124 11.9852C11.0718 11.9966 11.0327 12.0243 10.9954 12.0455C10.4767 12.3585 9.94671 12.4254 9.40207 12.114Z" fill="white"/>
<path d="M10.4608 8.53954C10.5908 8.48248 10.7193 8.41891 10.8493 8.36022C11.0542 8.26893 11.2542 8.26893 11.4493 8.38956C11.4834 8.41076 11.5175 8.43195 11.5517 8.45314C11.5192 8.29827 11.4151 8.21839 11.2802 8.17438C10.9827 8.07983 10.7128 8.15482 10.4575 8.3162C10.4218 8.33903 10.3892 8.37489 10.3632 8.40913C10.3356 8.44662 10.2966 8.49063 10.3307 8.53791C10.3665 8.59008 10.4201 8.55747 10.4608 8.53954Z" fill="white"/>
<path d="M10.2703 8.76469C10.2882 8.76795 10.3077 8.76632 10.3272 8.76795C10.4931 8.77773 10.6361 8.7109 10.7711 8.6245C10.9564 8.50712 11.1466 8.42235 11.3824 8.53647C11.3304 8.38323 11.2361 8.33595 11.08 8.36856C10.9142 8.40279 10.7646 8.48104 10.6101 8.54625C10.5207 8.58374 10.4329 8.63265 10.3305 8.62776C10.2378 8.6245 10.2037 8.58048 10.2329 8.49082C10.2508 8.43702 10.2768 8.38486 10.3029 8.32617C10.2427 8.3278 10.2086 8.35878 10.1728 8.38323C10.0931 8.44029 10.0151 8.50549 10.046 8.61635C10.0769 8.72394 10.1744 8.74839 10.2703 8.76469Z" fill="white"/>
<path d="M9.7255 9.85335C9.74338 9.85498 9.76777 9.85335 9.76939 9.82889C9.77102 9.80607 9.74663 9.80118 9.72875 9.79792C9.6377 9.78325 9.54503 9.78488 9.45399 9.79466C9.32718 9.8077 9.20362 9.83541 9.09469 9.90551C9.00039 9.96746 8.93373 10.049 8.91422 10.1598C8.91422 10.1598 8.90772 10.1859 8.92073 10.1875C8.93211 10.1892 8.94024 10.1826 8.94024 10.1826C8.94511 10.1712 8.94674 10.1582 8.95324 10.1468C9.06705 9.94627 9.26865 9.86802 9.48976 9.85824C9.59868 9.85335 9.61657 9.84682 9.7255 9.85335Z" fill="white"/>
<path d="M9.18292 10.2042C9.24632 10.2433 9.34387 10.2221 9.36013 10.1504C9.38451 10.0412 9.45605 10.0297 9.53571 10.0086C9.55522 10.0037 9.57961 9.99877 9.58124 9.95312C9.3959 10.0575 9.12601 9.95965 9.01221 10.2335C9.01221 10.2335 9.03334 10.2514 9.05123 10.227C9.08862 10.165 9.12114 10.1667 9.18292 10.2042ZM9.34712 10.0591C9.35688 10.1243 9.33899 10.1634 9.28859 10.1781C9.21706 10.1993 9.17641 10.1732 9.14552 10.1324C9.25933 10.1781 9.30322 10.1716 9.34712 10.0591Z" fill="white"/>
<path d="M11.9041 11.7748C11.8505 11.8254 11.818 11.8889 11.7562 11.9232C11.7058 11.9525 11.6554 11.9851 11.5968 11.9541C11.5383 11.9232 11.5286 11.8645 11.5269 11.8074C11.5269 11.7764 11.5269 11.7455 11.5269 11.7145V11.708C11.5269 11.6297 11.5286 11.5531 11.5269 11.4749V11.3249V11.2303C11.5383 11.2189 11.5481 11.2075 11.5578 11.1945C11.5708 11.1782 11.5822 11.1602 11.592 11.1423C11.6082 11.1146 11.6212 11.0836 11.6326 11.0478C11.6326 11.0478 11.5985 11.0901 11.5253 11.1309V11.113V10.7152C11.5253 10.5065 11.5253 10.2946 11.5253 10.0974V9.84141V9.80066H11.5464H11.7936C11.8391 9.80066 11.8765 9.76317 11.8765 9.71752C11.8765 9.69144 11.8651 9.66862 11.8472 9.65394C11.8456 9.65231 11.8456 9.65231 11.844 9.65068C11.8293 9.6409 11.8131 9.63438 11.7952 9.63438H11.6229H11.5269V9.45995C11.5269 9.45017 11.5269 9.44039 11.5269 9.42898C11.5269 9.2627 11.4489 9.15185 11.3026 9.08501C11.1546 9.01817 10.9839 9.0524 10.8701 9.16C10.7563 9.26596 10.7547 9.39963 10.7644 9.55939C10.7238 9.51375 10.6994 9.48114 10.6701 9.45343C10.5466 9.33769 10.3385 9.32301 10.1938 9.4192C10.067 9.50234 10.0214 9.6572 10.0751 9.82674C10.1011 9.90662 10.1385 9.98161 10.1922 10.0436C10.2474 10.1071 10.2507 10.1397 10.1645 10.1838C9.9808 10.2783 9.8166 10.4038 9.68003 10.562C9.45892 10.8179 9.34999 11.1097 9.4134 11.4504C9.48656 11.8449 9.83611 12.1367 10.21 12.1204C10.3791 12.1123 10.5872 12.0145 10.6588 11.9036C10.5905 11.9313 10.5303 11.9607 10.4685 11.9819C10.2133 12.0666 9.9743 12.0487 9.7727 11.8482C9.50932 11.5857 9.4703 11.2417 9.66377 10.8961C9.80847 10.6386 10.0214 10.4462 10.2669 10.2881C10.3547 10.231 10.4246 10.2212 10.5011 10.2962C10.5628 10.3549 10.6734 10.394 10.6523 10.4968C10.6327 10.5946 10.5206 10.6027 10.4409 10.6353C10.3759 10.6614 10.3011 10.6598 10.223 10.7103C10.4181 10.725 10.5872 10.7103 10.7579 10.6337C10.7579 10.7625 10.7563 10.8798 10.7579 10.9956C10.7596 11.1863 10.8896 11.333 11.0717 11.3607C11.0717 11.3607 11.1628 11.3787 11.2733 11.3591C11.2912 11.3559 11.3107 11.3526 11.3302 11.3461V11.4097V11.5172C11.327 11.6199 11.327 11.7243 11.3318 11.827C11.3383 11.9802 11.5058 12.1139 11.6651 12.0992C11.8212 12.0829 11.9285 11.9411 11.9041 11.7748ZM10.4344 10.0452C10.423 10.0582 10.4084 10.0615 10.3954 10.0452C10.3076 9.94086 10.2263 9.83163 10.2165 9.70937C10.2182 9.58711 10.2897 9.51538 10.3986 9.50886C10.5141 9.50234 10.61 9.5708 10.6165 9.67351C10.6262 9.83 10.5303 9.9376 10.4344 10.0452ZM10.7579 10.293C10.6994 10.2473 10.649 10.2049 10.597 10.1675C10.5596 10.1414 10.5807 10.1218 10.6002 10.099C10.6604 10.0289 10.7092 9.95227 10.7579 9.8512V10.293ZM11.2863 11.201C11.2798 11.201 11.2733 11.2026 11.2668 11.2026C11.2327 11.2043 11.1953 11.2043 11.1546 11.1994C11.1416 11.1977 11.1286 11.1961 11.1156 11.1945C11.0148 11.1765 10.9579 11.1081 10.9579 10.9988C10.9563 10.7315 10.9579 10.4658 10.9579 10.1984C10.9579 9.94086 10.9579 9.68329 10.9579 9.42735C10.9579 9.29856 11.0262 9.22194 11.14 9.21868C11.2375 9.21705 11.3042 9.26759 11.327 9.35888L11.3302 9.50886V9.56428V9.63601H11.2067H11.1075C11.062 9.63601 11.0246 9.67351 11.0246 9.71915C11.0246 9.7648 11.062 9.80229 11.1075 9.80229H11.2278H11.3286V9.8838L11.3335 10.1006C11.3335 10.2669 11.3335 10.4315 11.3335 10.5978V11.1472V11.1977C11.3188 11.1977 11.3026 11.1994 11.2863 11.201Z" fill="white"/>
<path d="M11.8955 8.33653C11.8955 8.33653 15.869 7.63554 14.713 12.1283C14.713 12.1772 13.8383 14.8573 16.7566 15.7751C16.7566 15.7751 12.3946 16.9879 12.5979 12.3386C12.606 12.1658 12.6369 11.993 12.6938 11.83C12.9344 11.1404 13.5554 8.92502 11.8955 8.33653Z" fill="white"/>
<path d="M8.39648 8.62426C8.39648 8.62426 7.69738 4.64008 12.1781 5.79915C12.2269 5.79915 14.8997 6.67619 15.815 3.75C15.815 3.75 17.0246 8.12379 12.3878 7.92002C12.2155 7.91187 12.0431 7.8809 11.8806 7.82384C11.1928 7.58257 8.98502 6.95984 8.39648 8.62426Z" fill="white"/>
<path d="M8.61113 12.2569C8.61113 12.2569 4.63769 12.9579 5.79363 8.46508C5.79363 8.41618 6.66831 5.73615 3.75 4.81835C3.75 4.81835 8.11201 3.60549 7.90879 8.25479C7.90066 8.42759 7.86977 8.60039 7.81287 8.76341C7.57225 9.45298 6.95119 11.6668 8.61113 12.2569Z" fill="white"/>
<path d="M12.11 11.9688C12.11 11.9688 12.8091 15.9529 8.32841 14.7939C8.27964 14.7939 5.60683 13.9168 4.69151 16.843C4.69151 16.843 3.48191 12.4692 8.11869 12.673C8.29102 12.6811 8.46335 12.7121 8.62593 12.7692C9.31365 13.0121 11.5215 13.6348 12.11 11.9688Z" fill="white"/>
</g>
<defs>
<linearGradient id="paint0_linear_6147_72186" x1="10" y1="0" x2="10" y2="20" gradientUnits="userSpaceOnUse">
<stop stop-color="#F5784D"/>
<stop offset="1" stop-color="#D22128"/>
</linearGradient>
<clipPath id="clip0_6147_72186">
<rect width="20" height="20" fill="white"/>
</clipPath>
</defs>
</svg>
