<svg width="82" height="24" viewBox="0 0 82 24" fill="none" xmlns="http://www.w3.org/2000/svg">
    <path fill-rule="evenodd" clip-rule="evenodd" d="M81.955 6.022c.05.738-.21 1.466-.698 2.005-.18.189-.379.349-.608.448.448.768.608 1.715.448 2.762-.17 1.107-.468 2.144-.757 3.141-.15.519-.29 1.007-.41 1.496-.169.698-.318 1.226-.468 1.725-.399 1.296-1.386 2.014-2.782 2.024h-1.097c-.229 0-.408 0-.578.01h-.15c-.448 0-.847-.09-1.196-.26a8.621 8.621 0 0 1-3.041.529h-.02a6.07 6.07 0 0 1-1.516-.19c-1.336-.338-2.353-1.136-2.881-2.243-.757 1.214-1.513 2.419-2.27 3.624l-.004.006c-1.495 2.363-3.51 2.861-4.935 2.861H52.54c-.08.01-.16.01-.24.01-.07 0-.15 0-.229-.01h-.947c-.06.01-.13.01-.2.01s-.14 0-.2-.01h-9.85c-.16.03-.33.04-.499.04-.17 0-.329-.01-.488-.04h-3.032c-.08.01-.15.01-.219.01-.08 0-.16 0-.23-.01h-16.95c-.08.02-.16.02-.23.02-.079 0-.159-.01-.239-.02h-2.482a3.233 3.233 0 0 1-.868 0H6.016c-.09.01-.18.02-.259.02-.081 0-.155-.008-.235-.017a1.722 1.722 0 0 0-.024-.003H3.613v-.01c-.11-.01-.219-.03-.329-.06-.309-.09-1.336-.478-1.426-1.864-.1-.658-.189-1.326-.279-2.044-.09-.41-.07-.748.01-1.027a3.83 3.83 0 0 1-1.236-1.496c-.569-1.226-.449-2.712.349-4.068.648-1.117 1.555-1.825 2.453-2.293a3.2 3.2 0 0 1-.06-.17c-.22-.668-.409-1.456-.13-2.263.08-.24.2-.449.34-.648a2.376 2.376 0 0 1-.55-1.287c-.139-1.326.789-2.612 2.065-2.861.289-.05.548-.06.787-.06h5.585c.741 0 1.433.003 2.086.005.586.003 1.14.005 1.672.005.1-.389.21-.768.32-1.147l.06-.204.059-.205C15.808.748 16.775.01 18.35.01h1.775c1.047.01 1.635.489 1.945.887.309.4.618 1.087.368 2.104l-.104.41-.105.408h4.696l.14-.509c.078-.293.157-.582.24-.867l.079-.29c.27-.976.987-2.143 2.842-2.153h.937c.339 0 .628 0 .897.01h.012c.34.01 1.322.04 1.973.877.658.858.428 1.835.349 2.154l-.043.18c-.046.193-.094.393-.147.598 1.396-.01 2.812-.01 4.228-.01.12-.678.309-1.376.588-2.124C39.4.668 40.326.04 41.503.01 41.832 0 42.17 0 42.54 0c.349 0 .718 0 1.156.01.489.01.938.16 1.317.409C45.45.149 46 .01 46.638.01H48.403c.907 0 1.595.31 2.044.897.448.599.558 1.346.329 2.234-.07.25-.14.498-.21.768h28.986c1.665 0 2.333 1.136 2.403 2.113zm-38.089-.398c-3.74 0-7.478 0-11.217.01-.439 0-.599-.07-.449-.548.25-.808.459-1.625.658-2.453.15-.618 0-.797-.618-.817-.598-.01-1.197-.01-1.795 0-.658 0-.947.219-1.117.837-.239.848-.478 1.695-.678 2.553-.08.319-.209.428-.528.428-2.513-.01-5.015-.01-7.528 0-.419 0-.469-.14-.37-.508.25-.848.47-1.695.679-2.553.13-.528-.06-.757-.598-.767-.386-.007-.777-.005-1.165-.003l-.58.003c-.758 0-1.037.199-1.247.947l-.14.496c-.176.62-.352 1.237-.478 1.867-.09.419-.269.518-.668.508a1693.694 1693.694 0 0 0-10.17 0c-.166-.001-.333-.003-.499.03-.359.07-.658.529-.618.918.05.438.369.438.708.428.264-.01.52 0 .783.01h.015c.12 0 .22.02.239.18.06.508-.439 1.356-.907 1.525-.788.28-.918.649-.579 1.676.17.528.38.578 1.167.339 1.117-.35 2.263-.519 3.44-.37.399.05.618.28.588.709-.03.428-.289.478-.648.498-1.366.07-2.722.2-4.028.608-1.247.39-2.383.958-3.071 2.144-1.017 1.755-.3 3.38 1.695 3.73 1.346.239 2.642.04 3.859-.619l.082-.045c.219-.12.42-.232.526.185.06.229.289.289.528.289.223 0 .445 0 .666.002.443.002.883.004 1.328-.002.48-.01.818-.26.958-.718.11-.35.2-.698.289-1.057.138-.513.28-1.024.42-1.535v-.001c.265-.96.53-1.918.776-2.881.499-1.964-.15-2.991-2.114-3.4-.967-.2-1.944-.16-2.931-.11a9.74 9.74 0 0 0-.373.028c-.237.022-.37.034-.425-.026-.07-.076-.016-.267.109-.701l.031-.109c.07-.259.18-.359.439-.359.22.007.444.005.666.003l.33-.003 1.58.002h.005c1.583.002 3.162.003 4.747-.011.42 0 .539.11.4.518-.07.192-.12.39-.169.588-.043.171-.085.342-.141.509-.12.339 0 .399.31.389.926-.02 1.864-.02 2.791-.01.26 0 .379-.09.439-.35.048-.234.116-.463.184-.693.06-.199.118-.399.165-.603.06-.259.19-.348.448-.348 2.563.01 5.115.01 7.678 0 .31 0 .379.12.3.398-.043.154-.084.307-.125.46v.002c-.136.504-.272 1.006-.424 1.503-.09.289-.04.408.279.468 1.037.21 2.084.429 3.11.698 1.865.499 3.68 1.127 5.385 2.044.31.17.499.2.559-.239.022-.19.073-.381.124-.572.04-.148.079-.297.105-.445.25-1.575-.35-2.672-1.715-3.041-.758-.21-1.546-.18-2.313.01-.654.163-1.215.521-1.871.94l-.074.047c.06-.225.12-.436.176-.638.122-.433.231-.822.313-1.217.07-.319.2-.428.528-.428 2.323.01 4.657.02 6.98 0 .409 0 .508.1.399.518-.166.582-.314 1.17-.462 1.759-.246.973-.491 1.947-.815 2.897-.338 1.008-.189 1.636.699 2.214.737.479 1.206 1.246 1.665 2.074l.088-.273v-.003l.091-.282v-.003h.001v-.001c.698-2.561 1.395-5.123 2.083-7.684l.008-.028c.17-.62.254-.932.458-1.078.207-.148.536-.125 1.197-.08h.002c.16-.45.3-.908.37-1.387a6.556 6.556 0 0 1-.708.014 16.957 16.957 0 0 0-.29-.004zm-34.512 8.76v.001c-.057.326-.115.657-.476.851-.708.39-1.446.609-2.243.479-.639-.1-.848-.648-.489-1.197.24-.368.588-.578.997-.707.598-.19 1.217-.36 1.815-.34.628-.02.658-.01.478.549-.038.116-.06.24-.082.365zm31.6-9.467h2.035c.458 0 .767-.26.897-.659.19-.578.339-1.176.478-1.774.09-.39-.12-.648-.518-.658-.688-.02-1.386-.02-2.084 0-.359.01-.708.14-.847.508-.23.638-.43 1.296-.529 1.964-.06.42.15.619.569.619zm4.186-.25v.004l-.277.983c-.058.455-.2.9-.355 1.383l-.014.043a525.798 525.798 0 0 1-.997 3.8c-.28 1.041-.56 2.08-.843 3.12-.281 1.04-.563 2.079-.842 3.12-.15.57.05.809.638.819h1.695c.768 0 1.047-.2 1.246-.938.185-.678.367-1.358.549-2.039.182-.68.364-1.36.548-2.039.479-1.795.958-3.58 1.446-5.374.01-.03.016-.063.023-.097.031-.147.065-.31.316-.302.621.015 1.248.013 1.872.011l.62-.001h.041c.104-.004.223-.008.18.16-.03.108-.058.216-.085.325a5.987 5.987 0 0 1-.265.861c-.069.166-.248.202-.428.24-.08.015-.16.032-.23.06-.698.278-.818.727-.439 1.744.16.419.42.479 1.087.27 1.137-.36 2.284-.56 3.48-.39.399.06.628.24.608.688-.02.47-.299.499-.668.519-1.565.07-3.11.25-4.586.808-1.197.448-2.194 1.156-2.712 2.393-.609 1.465 0 2.742 1.525 3.19.558.17 1.137.2 1.725.16.957-.07 1.865-.29 2.702-.778l.05-.03c.152-.094.294-.182.34.16.039.289.278.379.557.379.223 0 .445 0 .666.002h.001c.442.002.883.004 1.328-.002.518 0 .877-.29 1.017-.788.03-.105.052-.21.074-.314.023-.105.045-.21.075-.314.13-.482.262-.964.393-1.445v-.001l.001-.002v-.002c.323-1.18.645-2.358.942-3.546.43-1.725-.239-2.762-1.964-3.16-.648-.15-1.306-.17-1.974-.18a66.017 66.017 0 0 0-1.326-.002l-.668.002c-.017-.071.015-.149.049-.23a.673.673 0 0 0 .06-.209c.04-.518.33-.608.798-.598 1.864.02 3.72.03 5.584-.01.518-.01.628.17.678.628.14 1.266.292 2.531.445 3.799v.004c.12.988.239 1.977.352 2.967l.07.606v.002c.1.872.199 1.74.24 2.613.04 1.047-.45 1.546-1.486 1.685-.14.01-.27.03-.399.05-.379.06-.648.28-.758.638-.15.469-.279.947-.389 1.436-.09.399.1.638.519.658.16.01.316.01.473.01.157 0 .315 0 .474.01 1.665.11 2.862-.638 3.73-2.014.652-1.042 1.305-2.081 1.959-3.121a3274.16 3274.16 0 0 0 2.928-4.664c.647-1.028 1.294-2.056 1.932-3.093.33-.549.18-.808-.458-.808h-1.845c-.598-.01-1.017.28-1.296.778-.264.465-.514.936-.762 1.405h-.001a134 134 0 0 1-.324.609l-.467.854-.017.032-.005.009v.001a387.9 387.9 0 0 1-.897 1.636.904.904 0 0 0-.056-.096c-.015-.024-.024-.037-.024-.053-.07-2.084-.18-4.178-.339-6.262-.02-.289.1-.329.34-.329.518.007 1.041.005 1.563.002h.003l.776-.002c2.094 0 4.188 0 6.282.01.032 0 .071-.006.112-.013.139-.022.3-.047.277.153-.05.409-.17.807-.32 1.196-.065.176-.25.212-.425.246-.064.013-.127.025-.182.043-.38.13-.668.34-.728.738-.039.248.042.483.123.716.023.067.046.134.066.201.14.47.39.599.868.47.106-.033.211-.068.317-.103.224-.075.45-.15.68-.197.947-.2 1.894-.349 2.861-.15.37.08.489.32.46.698-.03.36-.2.47-.54.479a16.56 16.56 0 0 0-3.36.409c-1.326.309-2.582.758-3.5 1.845-1.435 1.685-.907 3.679 1.087 4.177.36.09.718.14 1.087.14 1.247.01 2.433-.27 3.54-.977.02.568.31.728.778.708.413-.022.832-.018 1.248-.014.166.002.332.004.497.004.598 0 .907-.21 1.076-.758.17-.538.31-1.087.45-1.635.13-.533.282-1.06.434-1.587v-.001c.274-.954.548-1.907.702-2.89.21-1.345-.419-2.253-1.725-2.612-1.037-.279-2.094-.289-3.16-.239l-1.128.06c.05-.23.08-.389.11-.549.06-.418.24-.608.718-.578.524.035 1.053.026 1.584.018.236-.004.473-.008.71-.008l.962.002h.003c.641.003 1.281.005 1.926-.002.488-.01.867-.419.827-.937-.035-.447-.355-.447-.668-.448H48.483c-.018-.194.026-.348.071-.505l.018-.064c.23-.817.449-1.635.668-2.452v-.001c.17-.648 0-.877-.658-.877h-1.745c-.688 0-.947.189-1.136.867-.193.658-.377 1.316-.56 1.974zm27.861 9.134a6.105 6.105 0 0 1 2.413-.32c-.07.26-.12.44-.17.609-.269 1.107-.707 1.476-1.854 1.595-.27.03-.558.05-.838.02-.698-.07-.957-.638-.558-1.216.24-.36.608-.559 1.007-.688zm-21.118-.07c.508-.14 1.027-.26 1.505-.25.708-.04.738-.03.519.569-.044.12-.066.25-.087.381-.053.316-.105.635-.472.825-.698.36-1.416.549-2.193.45-.658-.09-.898-.659-.509-1.207.3-.43.748-.639 1.237-.768zm-44.67 5.932c-.184.302-.385.6-.606.927-.115.17-.235.348-.361.54-.08-.52-.14-.908-.22-1.297a.67.67 0 0 1-.005-.134c.002-.133.005-.27-.194-.315-.26-.05-.389.1-.519.29-.145.215-.292.428-.446.65-.173.252-.355.514-.55.805-.025-.192-.05-.37-.074-.54-.045-.321-.087-.611-.106-.905-.02-.28-.16-.33-.389-.31-.238.016-.21.146-.185.269.007.031.013.062.015.09.09.708.18 1.416.29 2.124.004.028.006.06.008.092.007.108.014.226.121.257.137.038.199-.075.256-.179a.833.833 0 0 1 .053-.09c.373-.526.745-1.06 1.18-1.683l.057-.082.101.636.188 1.179c.004.018.006.037.009.057.012.083.023.166.12.182.08.018.129-.052.174-.117l.016-.023c.589-.878 1.177-1.755 1.775-2.652-.35-.12-.539-.04-.708.23zm6.54.338c.071-.078.142-.155.21-.218.243-.22.351-.32.478-.355.101-.028.215-.016.42.006-.126.503-.255 1.006-.384 1.507v.002c-.096.373-.191.744-.284 1.113-.052.198-.207.181-.344.166a1.643 1.643 0 0 0-.065-.006c-.195-.025-.152-.152-.117-.257.007-.018.013-.036.017-.052.055-.232.117-.464.18-.698l.12-.449.001-.006c.03-.088.065-.195-.052-.253-.071-.032-.124.02-.173.066a1.786 1.786 0 0 0-.264.27c-.148.172-.294.342-.48.322-.18-.025-.255-.21-.335-.405-.048-.12-.098-.242-.174-.333a.708.708 0 0 0-.085-.065l-.034-.024-.136.48c-.111.394-.217.767-.303 1.145-.06.279-.25.289-.439.25-.19-.049-.14-.18-.097-.29a.698.698 0 0 0 .027-.08c.125-.505.26-1.005.393-1.504a169.53 169.53 0 0 0 .186-.697c.035-.128.069-.252.26-.252.179 0 .328.01.398.21 0 .01.01.03.02.04.066.09.115.21.163.327.09.219.177.43.365.43.171 0 .352-.197.528-.39zm3.311-.647a2.01 2.01 0 0 0-1.954 1.476c-.18.668.18 1.237.857 1.376.918.18 1.975-.459 2.224-1.356.23-.867-.23-1.486-1.127-1.496zm-.698 2.423c-.458-.02-.778-.329-.748-.748.03-.628.658-1.216 1.287-1.216.518 0 .787.27.777.748-.02.668-.638 1.236-1.316 1.216zm6.587-2.395c.17 0 .341-.002.512.002.021 0 .045-.002.07-.005.093-.01.195-.021.18.105 0 .15-.05.3-.26.29l-.267.001h-.001c-.176.003-.35.005-.53-.002-.373-.008-.387.254-.398.474-.003.044-.005.086-.01.125-.028.225.108.201.24.179a.434.434 0 0 1 .149-.01c.09.018.18.014.27.01.059-.002.119-.004.179 0l.064-.003c.107-.009.221-.018.205.172-.02.16-.1.24-.26.24-.082 0-.166 0-.249.002a9.313 9.313 0 0 1-.498-.002c-.17 0-.28.03-.35.21-.219.538-.169.607.41.607.042 0 .086 0 .13-.002a2.65 2.65 0 0 1 .268.002c.026.002.053.001.08 0 .103-.006.207-.011.2.17 0 .2-.11.26-.29.25-.145-.008-.287-.005-.43-.003l-.218.002c-.46 0-.692 0-.78-.113-.09-.113-.033-.343.082-.804.065-.264.135-.529.205-.793.07-.264.14-.528.204-.793.06-.219.16-.329.409-.319.228.012.456.01.684.009zm-13.078.002c-.17-.004-.342-.003-.513-.002-.228.002-.455.004-.683-.008-.23-.01-.32.08-.37.29-.076.323-.163.643-.25.964-.06.223-.12.446-.178.67-.12.453-.18.677-.094.788.085.11.312.11.762.11h.698c.15 0 .26-.03.27-.21.018-.2-.109-.2-.233-.199h-.466c-.282 0-.421 0-.471-.066-.049-.066-.01-.196.064-.454l.008-.028c.06-.23.18-.29.39-.27.109.01.216.008.323.006.107-.003.215-.005.324.005.21.01.33-.08.32-.28-.008-.163-.11-.15-.21-.136-.035.005-.07.01-.1.007-.1-.005-.2-.005-.299-.005-.1 0-.2 0-.299-.005-.012 0-.025 0-.038.002-.061.004-.128.009-.161-.082-.1-.26.16-.668.428-.678.25-.01.499-.01.748 0 .19.01.26-.08.29-.26.023-.199-.093-.181-.192-.166a.473.473 0 0 1-.068.007zm10.446.904c.252-.424.5-.84 1.03-.963l.04.047c.027.031.054.062.08.102-.299.429-.598.855-.897 1.281l-.898 1.282-.016.024c-.056.087-.125.192-.243.165-.105-.032-.118-.138-.13-.235a149.342 149.342 0 0 0-.147-.834v-.002l-.001-.001v-.002c-.087-.476-.173-.95-.25-1.429a.598.598 0 0 0-.02-.07c-.035-.109-.079-.244.14-.269.209-.02.398-.03.438.26.04.313.091.622.145.94l.085.515c.285-.206.465-.51.644-.81zm9.207-6.767a25.192 25.192 0 0 1-.938-.408c-.247-.111-.495-.223-.747-.33a4.835 4.835 0 0 1-.276-.124c-.283-.135-.58-.277-.781-.195-.22.087-.262.367-.304.653-.021.14-.042.283-.085.404-.01.025-.017.048-.025.07a1.258 1.258 0 0 1-.025.07c-.082.307-.166.614-.25.921-.22.81-.442 1.622-.637 2.44-.16.657.03.857.688.857h1.794c.559-.01.878-.26 1.037-.808.122-.428.237-.858.352-1.288.151-.562.302-1.124.466-1.683.08-.29.03-.459-.27-.579zm2.821 2.363.12-.428c.738.608 1.217 1.286 1.526 2.084.09.22.05.349-.22.349h-.321c-.322.003-.643.005-.965-.01-.389-.02-.588-.24-.498-.628.1-.448.224-.89.358-1.367zm-7.51-4.058c.223.062.446.124.67.18.25.06.37.16.36.448-.34 2.563-2.503 4.996-5.046 5.584-1.306.3-2.552.19-3.56-.827-.179-.17-.229-.08-.309.08-.229.458-.608.628-1.106.608-.33-.012-.665-.01-.998-.009-.25.002-.5.003-.747-.001-.569-.01-.748-.26-.608-.798l.56-2.084c.375-1.39.75-2.778 1.115-4.168.08-.319.2-.448.538-.418.237.021.474.038.71.055.521.037 1.043.075 1.564.164l.299.01c.045.005.092.012.14.02.047.007.094.015.139.02.479-.031.94.052 1.466.146.153.028.312.056.478.083a82.89 82.89 0 0 0-.633.188l-.304.091c-.818.509-1.346 1.207-1.546 2.164-.269 1.356.549 2.233 1.915 2.004 1.326-.23 2.503-1.874 2.293-3.2-.06-.35-.22-.649-.498-1.028.307.064.6.122.882.179.468.093.91.18 1.351.28.294.068.584.148.875.229zm-.157-2.871c0-.03-.01-.04-.04-.05-.578-.578-1.316-.738-2.084-.758-1.037-.03-2.004.2-2.861.828 1.774.11 3.54.239 5.364.438-.11-.259-.22-.388-.38-.458zM48.958 19.62c.188-.18.382-.368.631-.197.166.108.077.315-.008.512a1.51 1.51 0 0 0-.082.216c-.073.323-.163.643-.253.962v.002c-.068.24-.135.481-.195.721-.06.23-.15.419-.429.34-.213-.06-.166-.183-.119-.308a.598.598 0 0 0 .04-.131c.019-.17.073-.331.126-.492.083-.247.165-.493.123-.765l-.01-.01c-.215.035-.343.18-.472.326a1.832 1.832 0 0 1-.177.183c-.229.18-.398.279-.538-.09a1.968 1.968 0 0 0-.193-.344c-.046-.07-.095-.147-.146-.234-.179.35-.263.693-.344 1.021-.036.148-.071.293-.115.434l-.012.047c-.064.245-.128.485-.446.372-.24-.09-.165-.252-.096-.403.023-.05.046-.1.056-.145.12-.506.26-1.012.399-1.513l.1-.362c.009-.032.016-.065.023-.098.03-.14.057-.274.276-.29.219-.02.319.09.428.259.519.817.529.807 1.235.16h.002c.005-.006.012-.01.02-.016l.02-.015c.052-.041.104-.091.156-.142zm-18.468-.24c-.13-.012-.272-.026-.334.153l-.01.027-.015.039c-.033.087-.067.175-.075.263-.03.578-.279.867-.807.718-.42 0-.622 0-.695-.097-.067-.09-.025-.261.056-.591.01-.03.02-.07.02-.1a.378.378 0 0 1 .03-.138c.037-.11.075-.222-.12-.27-.229-.05-.368.04-.428.288a57.59 57.59 0 0 1-.598 2.254c-.06.23.04.26.21.26.336.008.365-.25.389-.456l.009-.073c.06-.549.329-.748.847-.648.04.006.084.004.13.002l.07-.002c.578 0 .588.01.429.588-.005.025-.015.047-.025.07a.33.33 0 0 0-.025.07.51.51 0 0 1-.042.125c-.053.121-.106.247.122.313.229.06.368-.05.428-.289.11-.425.222-.85.334-1.274l.245-.93.011-.034c.04-.114.088-.247-.111-.265l-.045-.003zm8.141.003c.24-.03.34.06.37.29.042.278.087.556.133.834.072.441.144.883.205 1.33l.002.01c.03.157.062.329-.191.348-.21.02-.36-.04-.36-.289 0-.349-.219-.369-.498-.379-.478-.02-.927-.03-1.156.509-.09.209-.33.229-.469.14-.172-.113-.069-.214.023-.304.03-.03.06-.058.077-.086.27-.416.545-.825.823-1.235.194-.288.39-.577.583-.869l.015-.023c.113-.17.215-.323.443-.276zm-.738 1.516c-.05.1-.07.18.07.23.439.169.728-.04.658-.51v-.004c-.02-.168-.041-.346-.18-.514-.187.16-.302.365-.415.57-.043.077-.086.154-.133.228zm17.898-1.496c-.08-.05-1.625-.04-1.675.03-.06.1-.09.21-.12.32l-.418 1.585c-.114.435-.172.655-.087.761.086.109.318.101.785.086h.648c.17 0 .309-.04.309-.24 0-.176-.133-.173-.254-.17l-.045.001h-.127a2.766 2.766 0 0 0-.372.01c-.369.04-.419-.12-.329-.438.07-.26.19-.41.479-.38.139.014.283.01.428.005a7 7 0 0 1 .22-.004c.14 0 .21-.08.22-.22.01-.17-.11-.18-.23-.19-.15-.01-.3-.019-.449 0-.379.04-.459-.099-.339-.458.08-.24.2-.309.429-.299.166.007.332.005.498.002l.25-.002c.14 0 .2-.1.229-.22.02-.069.03-.129-.05-.179zm-28.406-.021c.111-.005.238-.01.238.17 0 .16-.1.27-.239.24-.804-.188-.92.33-1.035.848l-.042.18-.084.32c-.065.243-.13.487-.185.736-.06.23-.16.379-.409.33-.256-.059-.197-.219-.147-.357.01-.029.02-.057.027-.083l.055-.226c.1-.412.2-.823.334-1.22.14-.408.03-.558-.389-.518l-.03.002a.172.172 0 0 1-.07-.002.442.442 0 0 0-.118-.004c-.11.007-.218.013-.21-.175.01-.23.18-.24.359-.24h.947c.107 0 .212 0 .317-.002.21-.002.418-.004.63.002l.05-.001zm16.782 0-.33.001h-.849l-.078-.002c-.156-.008-.33-.016-.33.222-.008.26.17.228.312.202.032-.006.061-.011.087-.013.468-.04.488.18.388.539-.108.367-.2.74-.292 1.11l-.106.425-.016.055c-.039.13-.075.25.135.284.19.03.31-.01.37-.23.044-.194.101-.383.159-.572.057-.19.114-.38.16-.574l.036-.161c.12-.528.234-1.039 1.03-.876.16.03.24-.1.24-.25.009-.163-.115-.16-.22-.159h-.03a16.8 16.8 0 0 0-.666-.002zM35.4 21.786c.229-.01.468-.01.698 0 .016 0 .034 0 .052-.002.1-.005.208-.01.217.142.01.17-.09.28-.27.28h-.747c-.967 0-.967 0-.718-.918l.08-.29c.115-.412.23-.825.319-1.246.06-.269.17-.448.458-.359.222.064.16.215.106.35a.874.874 0 0 0-.036.099c-.13.538-.269 1.067-.419 1.585-.08.26-.02.37.26.36zm15.415-2.393-.024-.003c-.146-.02-.328-.045-.385.163l-.314 1.176c-.105.392-.21.783-.314 1.177-.05.19.01.29.23.27.244.029.287-.134.335-.32l.003-.01c.09-.354.182-.705.274-1.057.093-.351.185-.703.274-1.057a.463.463 0 0 1 .034-.096c.043-.103.09-.213-.113-.243zm-18.677-.012c.263-.002.523-.004.789.002a.75.75 0 0 0 .06-.003c.105-.009.229-.02.229.163 0 .18-.11.25-.29.26-.112.005-.226 0-.34-.004-.248-.01-.497-.02-.736.083-.01.14-.02.27-.12.379-.005.02-.007.04-.01.06-.002.02-.005.04-.01.06.112.23.293.208.475.187.094-.01.188-.022.273.002.036.007.078.007.12.006.125-.002.254-.005.24.203-.01.2-.175.2-.32.2h-.02c-.06 0-.12 0-.18.002a5.104 5.104 0 0 1-.368-.002c-.439-.03-.489.299-.499.588-.007.26.15.238.305.216.065-.01.13-.018.184-.007.107.022.214.018.32.014.043-.002.086-.004.129-.004.12 0 .249 0 .229.18-.01.13-.08.22-.22.22-.157.002-.314.007-.47.011-.308.01-.614.018-.925.018-.18 0-.27-.07-.21-.28.11-.383.217-.764.324-1.146v-.002h.001c.107-.381.214-.762.323-1.144-.02-.24.13-.26.32-.26.132 0 .264 0 .396-.002zm9.733.022c-.27-.07-.549-.1-.818.02l-.04.02c-.016.006-.032.008-.05.01-.015.003-.031.005-.05.01-.04.03-.08.06-.12.08-.188.04-.338.12-.378.329-.02.01-.03.03-.02.05-.18.23-.25.468-.01.708 0 .02 0 .03.02.04.015.02.032.04.05.06.017.02.035.04.05.06.04.03.08.06.11.089.07.04.14.08.209.13.034.022.07.042.108.063.183.104.375.212.25.485-.129.3-.418.27-.687.22-.09-.02-.18-.07-.27-.12-.024-.012-.048-.026-.071-.04-.102-.059-.194-.113-.267.09-.06.179-.04.299.14.408.548.3 1.345.1 1.654-.438.29-.499.17-.768-.528-1.197a.419.419 0 0 0-.045-.025c-.015-.007-.03-.015-.045-.025-.279-.17-.309-.369-.06-.588.04-.02.08-.04.12-.05.029 0 .057-.002.087-.005.033-.002.066-.005.102-.005.07.02.142.038.215.055.072.017.144.035.214.055a.71.71 0 0 1 .083.033c.106.048.213.097.276-.093.07-.23-.02-.379-.23-.429zm-.868.439c0-.03 0-.06.01-.08-.01.03-.01.05-.01.08zm11.296 1.94c.159-.01.318-.021.47.024.16-.04.2.05.18.18-.03.15-.11.23-.27.19-.11.069-.21.059-.319 0h-.967c-.036.003-.075.013-.114.022-.157.038-.31.075-.215-.252l.176-.69c.134-.518.268-1.038.392-1.564.06-.239.17-.379.41-.309.227.06.17.232.122.375a1.35 1.35 0 0 0-.023.074 33.76 33.76 0 0 1-.383 1.37l-.046.156-.03.154-.009.046-.02.109c.198.146.421.13.646.116zM16.756 9.736c23.352.363 23.65 8.144 23.65 8.144h-1.545c-1.737-4.054-7.366-6.072-12.667-7.086 9.509 2.212 10.622 7.086 10.622 7.086h-1.595c-3.118-7.175-16.713-7.97-19.327-8.123-.278-.016-.431-.025-.435-.033.441 0 .873.004 1.297.012z" fill="#fff"/>
</svg>
